window.COMPOSITION={"title":"Welt am Draht","subtitle":"Camel x Joy Division - D minor / Dorian - a sketch with voices","tempo":104,"beatsPerMeasure":4,"notatedMeasures":104,"playbackMeasures":104,"order":[1,2,3,4,5,6,7,8,9,10,11,12,13,14,15,16,17,18,19,20,21,22,23,24,25,26,27,28,29,30,31,32,33,34,35,36,37,38,39,40,41,42,43,44,45,46,47,48,49,50,51,52,53,54,55,56,57,58,59,60,61,62,63,64,65,66,67,68,69,70,71,72,73,74,75,76,77,78,79,80,81,82,83,84,85,86,87,88,89,90,91,92,93,94,95,96,97,98,99,100,101,102,103,104],"notes":[{"beat":0,"duration":0.5,"midi":38,"velocity":102,"voice":"bass","bar":0},{"beat":0,"duration":4,"midi":50,"velocity":56,"voice":"pad","bar":0},{"beat":0,"duration":4,"midi":53,"velocity":56,"voice":"pad","bar":0},{"beat":0,"duration":4,"midi":57,"velocity":56,"voice":"pad","bar":0},{"beat":0.5,"duration":0.5,"midi":45,"velocity":102,"voice":"bass","bar":0},{"beat":0.5,"duration":0.16,"midi":45,"velocity":96,"voice":"tom","bar":0},{"beat":1,"duration":0.5,"midi":50,"velocity":102,"voice":"bass","bar":0},{"beat":1,"duration":0.16,"midi":47,"velocity":96,"voice":"tom","bar":0},{"beat":1.5,"duration":0.5,"midi":45,"velocity":102,"voice":"bass","bar":0},{"beat":1.5,"duration":0.16,"midi":50,"velocity":96,"voice":"tom","bar":0},{"beat":2,"duration":0.5,"midi":38,"velocity":102,"voice":"bass","bar":0},{"beat":2.5,"duration":0.5,"midi":41,"velocity":102,"voice":"bass","bar":0},{"beat":2.5,"duration":0.16,"midi":45,"velocity":96,"voice":"tom","bar":0},{"beat":3,"duration":0.5,"midi":45,"velocity":102,"voice":"bass","bar":0},{"beat":3,"duration":0.16,"midi":47,"velocity":96,"voice":"tom","bar":0},{"beat":3.5,"duration":0.5,"midi":41,"velocity":102,"voice":"bass","bar":0},{"beat":3.5,"duration":0.16,"midi":50,"velocity":96,"voice":"tom","bar":0},{"beat":4,"duration":0.5,"midi":38,"velocity":102,"voice":"bass","bar":1},{"beat":4,"duration":4,"midi":50,"velocity":56,"voice":"pad","bar":1},{"beat":4,"duration":4,"midi":53,"velocity":56,"voice":"pad","bar":1},{"beat":4,"duration":4,"midi":57,"velocity":56,"voice":"pad","bar":1},{"beat":4.5,"duration":0.5,"midi":45,"velocity":102,"voice":"bass","bar":1},{"beat":4.5,"duration":0.16,"midi":45,"velocity":96,"voice":"tom","bar":1},{"beat":5,"duration":0.5,"midi":50,"velocity":102,"voice":"bass","bar":1},{"beat":5,"duration":0.16,"midi":47,"velocity":96,"voice":"tom","bar":1},{"beat":5.5,"duration":0.5,"midi":45,"velocity":102,"voice":"bass","bar":1},{"beat":5.5,"duration":0.16,"midi":50,"velocity":96,"voice":"tom","bar":1},{"beat":6,"duration":0.5,"midi":38,"velocity":102,"voice":"bass","bar":1},{"beat":6.5,"duration":0.5,"midi":41,"velocity":102,"voice":"bass","bar":1},{"beat":6.5,"duration":0.16,"midi":45,"velocity":96,"voice":"tom","bar":1},{"beat":7,"duration":0.5,"midi":45,"velocity":102,"voice":"bass","bar":1},{"beat":7,"duration":0.16,"midi":47,"velocity":96,"voice":"tom","bar":1},{"beat":7.5,"duration":0.5,"midi":41,"velocity":102,"voice":"bass","bar":1},{"beat":7.5,"duration":0.16,"midi":50,"velocity":96,"voice":"tom","bar":1},{"beat":8,"duration":0.5,"midi":46,"velocity":102,"voice":"bass","bar":2},{"beat":8,"duration":4,"midi":58,"velocity":56,"voice":"pad","bar":2},{"beat":8,"duration":4,"midi":62,"velocity":56,"voice":"pad","bar":2},{"beat":8,"duration":4,"midi":65,"velocity":56,"voice":"pad","bar":2},{"beat":8.5,"duration":0.5,"midi":41,"velocity":102,"voice":"bass","bar":2},{"beat":8.5,"duration":0.16,"midi":45,"velocity":96,"voice":"tom","bar":2},{"beat":9,"duration":0.5,"midi":46,"velocity":102,"voice":"bass","bar":2},{"beat":9,"duration":0.16,"midi":47,"velocity":96,"voice":"tom","bar":2},{"beat":9.5,"duration":0.5,"midi":50,"velocity":102,"voice":"bass","bar":2},{"beat":9.5,"duration":0.16,"midi":50,"velocity":96,"voice":"tom","bar":2},{"beat":10,"duration":0.5,"midi":46,"velocity":102,"voice":"bass","bar":2},{"beat":10.5,"duration":0.5,"midi":41,"velocity":102,"voice":"bass","bar":2},{"beat":10.5,"duration":0.16,"midi":45,"velocity":96,"voice":"tom","bar":2},{"beat":11,"duration":1,"midi":50,"velocity":102,"voice":"bass","bar":2},{"beat":11,"duration":0.16,"midi":47,"velocity":96,"voice":"tom","bar":2},{"beat":11.5,"duration":0.16,"midi":50,"velocity":96,"voice":"tom","bar":2},{"beat":12,"duration":0.5,"midi":48,"velocity":102,"voice":"bass","bar":3},{"beat":12,"duration":4,"midi":60,"velocity":56,"voice":"pad","bar":3},{"beat":12,"duration":4,"midi":64,"velocity":56,"voice":"pad","bar":3},{"beat":12,"duration":4,"midi":67,"velocity":56,"voice":"pad","bar":3},{"beat":12.5,"duration":0.5,"midi":43,"velocity":102,"voice":"bass","bar":3},{"beat":12.5,"duration":0.16,"midi":45,"velocity":96,"voice":"tom","bar":3},{"beat":13,"duration":0.5,"midi":48,"velocity":102,"voice":"bass","bar":3},{"beat":13,"duration":0.16,"midi":47,"velocity":96,"voice":"tom","bar":3},{"beat":13.5,"duration":0.5,"midi":52,"velocity":102,"voice":"bass","bar":3},{"beat":13.5,"duration":0.16,"midi":50,"velocity":96,"voice":"tom","bar":3},{"beat":14,"duration":0.5,"midi":48,"velocity":102,"voice":"bass","bar":3},{"beat":14.5,"duration":0.5,"midi":43,"velocity":102,"voice":"bass","bar":3},{"beat":14.5,"duration":0.16,"midi":45,"velocity":96,"voice":"tom","bar":3},{"beat":15,"duration":1,"midi":52,"velocity":102,"voice":"bass","bar":3},{"beat":15,"duration":0.16,"midi":47,"velocity":96,"voice":"tom","bar":3},{"beat":15.5,"duration":0.16,"midi":50,"velocity":96,"voice":"tom","bar":3},{"beat":16,"duration":0.5,"midi":38,"velocity":102,"voice":"bass","bar":4},{"beat":16.0,"duration":0.06,"midi":42,"velocity":56,"voice":"hat","bar":4},{"beat":16,"duration":0.18,"midi":36,"velocity":116,"voice":"kick","bar":4},{"beat":16,"duration":4,"midi":50,"velocity":56,"voice":"pad","bar":4},{"beat":16,"duration":4,"midi":53,"velocity":56,"voice":"pad","bar":4},{"beat":16,"duration":4,"midi":57,"velocity":56,"voice":"pad","bar":4},{"beat":16.5,"duration":0.5,"midi":45,"velocity":102,"voice":"bass","bar":4},{"beat":16.5,"duration":0.06,"midi":42,"velocity":44,"voice":"hat","bar":4},{"beat":16.5,"duration":0.16,"midi":45,"velocity":96,"voice":"tom","bar":4},{"beat":17,"duration":0.5,"midi":50,"velocity":102,"voice":"bass","bar":4},{"beat":17.0,"duration":0.06,"midi":42,"velocity":56,"voice":"hat","bar":4},{"beat":17,"duration":0.2,"midi":38,"velocity":110,"voice":"snare","bar":4},{"beat":17,"duration":0.16,"midi":47,"velocity":96,"voice":"tom","bar":4},{"beat":17.5,"duration":0.5,"midi":45,"velocity":102,"voice":"bass","bar":4},{"beat":17.5,"duration":0.06,"midi":42,"velocity":44,"voice":"hat","bar":4},{"beat":17.5,"duration":0.16,"midi":50,"velocity":96,"voice":"tom","bar":4},{"beat":18,"duration":0.5,"midi":38,"velocity":102,"voice":"bass","bar":4},{"beat":18.0,"duration":0.06,"midi":42,"velocity":56,"voice":"hat","bar":4},{"beat":18,"duration":0.18,"midi":36,"velocity":116,"voice":"kick","bar":4},{"beat":18.5,"duration":0.5,"midi":41,"velocity":102,"voice":"bass","bar":4},{"beat":18.5,"duration":0.06,"midi":42,"velocity":44,"voice":"hat","bar":4},{"beat":18.5,"duration":0.16,"midi":45,"velocity":96,"voice":"tom","bar":4},{"beat":19,"duration":0.5,"midi":45,"velocity":102,"voice":"bass","bar":4},{"beat":19.0,"duration":0.06,"midi":42,"velocity":56,"voice":"hat","bar":4},{"beat":19,"duration":0.2,"midi":38,"velocity":110,"voice":"snare","bar":4},{"beat":19,"duration":0.16,"midi":47,"velocity":96,"voice":"tom","bar":4},{"beat":19.5,"duration":0.5,"midi":41,"velocity":102,"voice":"bass","bar":4},{"beat":19.5,"duration":0.06,"midi":42,"velocity":44,"voice":"hat","bar":4},{"beat":19.5,"duration":0.16,"midi":50,"velocity":96,"voice":"tom","bar":4},{"beat":20,"duration":0.5,"midi":38,"velocity":102,"voice":"bass","bar":5},{"beat":20.0,"duration":0.06,"midi":42,"velocity":56,"voice":"hat","bar":5},{"beat":20,"duration":0.18,"midi":36,"velocity":116,"voice":"kick","bar":5},{"beat":20,"duration":4,"midi":50,"velocity":56,"voice":"pad","bar":5},{"beat":20,"duration":4,"midi":53,"velocity":56,"voice":"pad","bar":5},{"beat":20,"duration":4,"midi":57,"velocity":56,"voice":"pad","bar":5},{"beat":20.5,"duration":0.5,"midi":45,"velocity":102,"voice":"bass","bar":5},{"beat":20.5,"duration":0.06,"midi":42,"velocity":44,"voice":"hat","bar":5},{"beat":20.5,"duration":0.16,"midi":45,"velocity":96,"voice":"tom","bar":5},{"beat":21,"duration":0.5,"midi":50,"velocity":102,"voice":"bass","bar":5},{"beat":21.0,"duration":0.06,"midi":42,"velocity":56,"voice":"hat","bar":5},{"beat":21,"duration":0.2,"midi":38,"velocity":110,"voice":"snare","bar":5},{"beat":21,"duration":0.16,"midi":47,"velocity":96,"voice":"tom","bar":5},{"beat":21.5,"duration":0.5,"midi":45,"velocity":102,"voice":"bass","bar":5},{"beat":21.5,"duration":0.06,"midi":42,"velocity":44,"voice":"hat","bar":5},{"beat":21.5,"duration":0.16,"midi":50,"velocity":96,"voice":"tom","bar":5},{"beat":22,"duration":0.5,"midi":38,"velocity":102,"voice":"bass","bar":5},{"beat":22.0,"duration":0.06,"midi":42,"velocity":56,"voice":"hat","bar":5},{"beat":22,"duration":0.18,"midi":36,"velocity":116,"voice":"kick","bar":5},{"beat":22.5,"duration":0.5,"midi":41,"velocity":102,"voice":"bass","bar":5},{"beat":22.5,"duration":0.06,"midi":42,"velocity":44,"voice":"hat","bar":5},{"beat":22.5,"duration":0.16,"midi":45,"velocity":96,"voice":"tom","bar":5},{"beat":23,"duration":0.5,"midi":45,"velocity":102,"voice":"bass","bar":5},{"beat":23.0,"duration":0.06,"midi":42,"velocity":56,"voice":"hat","bar":5},{"beat":23,"duration":0.2,"midi":38,"velocity":110,"voice":"snare","bar":5},{"beat":23,"duration":0.16,"midi":47,"velocity":96,"voice":"tom","bar":5},{"beat":23.5,"duration":0.5,"midi":41,"velocity":102,"voice":"bass","bar":5},{"beat":23.5,"duration":0.06,"midi":42,"velocity":44,"voice":"hat","bar":5},{"beat":23.5,"duration":0.16,"midi":50,"velocity":96,"voice":"tom","bar":5},{"beat":24,"duration":0.5,"midi":46,"velocity":102,"voice":"bass","bar":6},{"beat":24.0,"duration":0.06,"midi":42,"velocity":56,"voice":"hat","bar":6},{"beat":24,"duration":0.18,"midi":36,"velocity":116,"voice":"kick","bar":6},{"beat":24,"duration":4,"midi":58,"velocity":56,"voice":"pad","bar":6},{"beat":24,"duration":4,"midi":62,"velocity":56,"voice":"pad","bar":6},{"beat":24,"duration":4,"midi":65,"velocity":56,"voice":"pad","bar":6},{"beat":24.5,"duration":0.5,"midi":41,"velocity":102,"voice":"bass","bar":6},{"beat":24.5,"duration":0.06,"midi":42,"velocity":44,"voice":"hat","bar":6},{"beat":24.5,"duration":0.16,"midi":45,"velocity":96,"voice":"tom","bar":6},{"beat":25,"duration":0.5,"midi":46,"velocity":102,"voice":"bass","bar":6},{"beat":25.0,"duration":0.06,"midi":42,"velocity":56,"voice":"hat","bar":6},{"beat":25,"duration":0.2,"midi":38,"velocity":110,"voice":"snare","bar":6},{"beat":25,"duration":0.16,"midi":47,"velocity":96,"voice":"tom","bar":6},{"beat":25.5,"duration":0.5,"midi":50,"velocity":102,"voice":"bass","bar":6},{"beat":25.5,"duration":0.06,"midi":42,"velocity":44,"voice":"hat","bar":6},{"beat":25.5,"duration":0.16,"midi":50,"velocity":96,"voice":"tom","bar":6},{"beat":26,"duration":0.5,"midi":46,"velocity":102,"voice":"bass","bar":6},{"beat":26.0,"duration":0.06,"midi":42,"velocity":56,"voice":"hat","bar":6},{"beat":26,"duration":0.18,"midi":36,"velocity":116,"voice":"kick","bar":6},{"beat":26.5,"duration":0.5,"midi":41,"velocity":102,"voice":"bass","bar":6},{"beat":26.5,"duration":0.06,"midi":42,"velocity":44,"voice":"hat","bar":6},{"beat":26.5,"duration":0.16,"midi":45,"velocity":96,"voice":"tom","bar":6},{"beat":27,"duration":1,"midi":50,"velocity":102,"voice":"bass","bar":6},{"beat":27.0,"duration":0.06,"midi":42,"velocity":56,"voice":"hat","bar":6},{"beat":27,"duration":0.2,"midi":38,"velocity":110,"voice":"snare","bar":6},{"beat":27,"duration":0.16,"midi":47,"velocity":96,"voice":"tom","bar":6},{"beat":27.5,"duration":0.06,"midi":42,"velocity":44,"voice":"hat","bar":6},{"beat":27.5,"duration":0.16,"midi":50,"velocity":96,"voice":"tom","bar":6},{"beat":28,"duration":0.5,"midi":48,"velocity":102,"voice":"bass","bar":7},{"beat":28.0,"duration":0.06,"midi":42,"velocity":56,"voice":"hat","bar":7},{"beat":28,"duration":0.18,"midi":36,"velocity":116,"voice":"kick","bar":7},{"beat":28,"duration":4,"midi":60,"velocity":56,"voice":"pad","bar":7},{"beat":28,"duration":4,"midi":64,"velocity":56,"voice":"pad","bar":7},{"beat":28,"duration":4,"midi":67,"velocity":56,"voice":"pad","bar":7},{"beat":28.5,"duration":0.5,"midi":43,"velocity":102,"voice":"bass","bar":7},{"beat":28.5,"duration":0.06,"midi":42,"velocity":44,"voice":"hat","bar":7},{"beat":28.5,"duration":0.16,"midi":45,"velocity":96,"voice":"tom","bar":7},{"beat":29,"duration":0.5,"midi":48,"velocity":102,"voice":"bass","bar":7},{"beat":29.0,"duration":0.06,"midi":42,"velocity":56,"voice":"hat","bar":7},{"beat":29,"duration":0.2,"midi":38,"velocity":110,"voice":"snare","bar":7},{"beat":29,"duration":0.16,"midi":47,"velocity":96,"voice":"tom","bar":7},{"beat":29.5,"duration":0.5,"midi":52,"velocity":102,"voice":"bass","bar":7},{"beat":29.5,"duration":0.06,"midi":42,"velocity":44,"voice":"hat","bar":7},{"beat":29.5,"duration":0.16,"midi":50,"velocity":96,"voice":"tom","bar":7},{"beat":30,"duration":0.5,"midi":48,"velocity":102,"voice":"bass","bar":7},{"beat":30.0,"duration":0.06,"midi":42,"velocity":56,"voice":"hat","bar":7},{"beat":30,"duration":0.18,"midi":36,"velocity":116,"voice":"kick","bar":7},{"beat":30.5,"duration":0.5,"midi":43,"velocity":102,"voice":"bass","bar":7},{"beat":30.5,"duration":0.06,"midi":42,"velocity":44,"voice":"hat","bar":7},{"beat":30.5,"duration":0.16,"midi":45,"velocity":96,"voice":"tom","bar":7},{"beat":31,"duration":1,"midi":52,"velocity":102,"voice":"bass","bar":7},{"beat":31.0,"duration":0.06,"midi":42,"velocity":56,"voice":"hat","bar":7},{"beat":31,"duration":0.2,"midi":38,"velocity":110,"voice":"snare","bar":7},{"beat":31,"duration":0.16,"midi":47,"velocity":96,"voice":"tom","bar":7},{"beat":31.5,"duration":0.06,"midi":42,"velocity":44,"voice":"hat","bar":7},{"beat":31.5,"duration":0.16,"midi":50,"velocity":96,"voice":"tom","bar":7},{"beat":32,"duration":0.5,"midi":38,"velocity":102,"voice":"bass","bar":8},{"beat":32.0,"duration":0.06,"midi":42,"velocity":56,"voice":"hat","bar":8},{"beat":32,"duration":0.18,"midi":36,"velocity":116,"voice":"kick","bar":8},{"beat":32,"duration":4,"midi":50,"velocity":56,"voice":"pad","bar":8},{"beat":32,"duration":4,"midi":53,"velocity":56,"voice":"pad","bar":8},{"beat":32,"duration":4,"midi":57,"velocity":56,"voice":"pad","bar":8},{"beat":32.0,"duration":0.48,"midi":50,"velocity":74,"voice":"rhodes","bar":8},{"beat":32,"duration":1,"midi":50,"velocity":104,"voice":"voxM","bar":8,"vowel":"o"},{"beat":32.5,"duration":0.5,"midi":45,"velocity":102,"voice":"bass","bar":8},{"beat":32.5,"duration":0.06,"midi":42,"velocity":44,"voice":"hat","bar":8},{"beat":32.5,"duration":0.48,"midi":53,"velocity":62,"voice":"rhodes","bar":8},{"beat":32.5,"duration":0.16,"midi":45,"velocity":96,"voice":"tom","bar":8},{"beat":33,"duration":0.5,"midi":50,"velocity":102,"voice":"bass","bar":8},{"beat":33.0,"duration":0.06,"midi":42,"velocity":56,"voice":"hat","bar":8},{"beat":33.0,"duration":0.48,"midi":57,"velocity":74,"voice":"rhodes","bar":8},{"beat":33,"duration":0.2,"midi":38,"velocity":110,"voice":"snare","bar":8},{"beat":33,"duration":0.16,"midi":47,"velocity":96,"voice":"tom","bar":8},{"beat":33,"duration":1,"midi":50,"velocity":104,"voice":"voxM","bar":8,"vowel":"o"},{"beat":33.5,"duration":0.5,"midi":45,"velocity":102,"voice":"bass","bar":8},{"beat":33.5,"duration":0.06,"midi":42,"velocity":44,"voice":"hat","bar":8},{"beat":33.5,"duration":0.48,"midi":62,"velocity":62,"voice":"rhodes","bar":8},{"beat":33.5,"duration":0.16,"midi":50,"velocity":96,"voice":"tom","bar":8},{"beat":34,"duration":0.5,"midi":38,"velocity":102,"voice":"bass","bar":8},{"beat":34.0,"duration":0.06,"midi":42,"velocity":56,"voice":"hat","bar":8},{"beat":34,"duration":0.18,"midi":36,"velocity":116,"voice":"kick","bar":8},{"beat":34.0,"duration":0.48,"midi":57,"velocity":74,"voice":"rhodes","bar":8},{"beat":34,"duration":1,"midi":53,"velocity":104,"voice":"voxM","bar":8,"vowel":"a"},{"beat":34.5,"duration":0.5,"midi":41,"velocity":102,"voice":"bass","bar":8},{"beat":34.5,"duration":0.06,"midi":42,"velocity":44,"voice":"hat","bar":8},{"beat":34.5,"duration":0.48,"midi":53,"velocity":62,"voice":"rhodes","bar":8},{"beat":34.5,"duration":0.16,"midi":45,"velocity":96,"voice":"tom","bar":8},{"beat":35,"duration":0.5,"midi":45,"velocity":102,"voice":"bass","bar":8},{"beat":35.0,"duration":0.06,"midi":42,"velocity":56,"voice":"hat","bar":8},{"beat":35.0,"duration":0.48,"midi":50,"velocity":74,"voice":"rhodes","bar":8},{"beat":35,"duration":0.2,"midi":38,"velocity":110,"voice":"snare","bar":8},{"beat":35,"duration":0.16,"midi":47,"velocity":96,"voice":"tom","bar":8},{"beat":35,"duration":1,"midi":52,"velocity":104,"voice":"voxM","bar":8,"vowel":"e"},{"beat":35.5,"duration":0.5,"midi":41,"velocity":102,"voice":"bass","bar":8},{"beat":35.5,"duration":0.06,"midi":42,"velocity":44,"voice":"hat","bar":8},{"beat":35.5,"duration":0.48,"midi":53,"velocity":62,"voice":"rhodes","bar":8},{"beat":35.5,"duration":0.16,"midi":50,"velocity":96,"voice":"tom","bar":8},{"beat":36,"duration":0.5,"midi":38,"velocity":102,"voice":"bass","bar":9},{"beat":36.0,"duration":0.06,"midi":42,"velocity":56,"voice":"hat","bar":9},{"beat":36,"duration":0.18,"midi":36,"velocity":116,"voice":"kick","bar":9},{"beat":36,"duration":4,"midi":50,"velocity":56,"voice":"pad","bar":9},{"beat":36,"duration":4,"midi":53,"velocity":56,"voice":"pad","bar":9},{"beat":36,"duration":4,"midi":57,"velocity":56,"voice":"pad","bar":9},{"beat":36.0,"duration":0.48,"midi":50,"velocity":74,"voice":"rhodes","bar":9},{"beat":36,"duration":2,"midi":50,"velocity":104,"voice":"voxM","bar":9,"vowel":"o"},{"beat":36.5,"duration":0.5,"midi":45,"velocity":102,"voice":"bass","bar":9},{"beat":36.5,"duration":0.06,"midi":42,"velocity":44,"voice":"hat","bar":9},{"beat":36.5,"duration":0.48,"midi":53,"velocity":62,"voice":"rhodes","bar":9},{"beat":36.5,"duration":0.16,"midi":45,"velocity":96,"voice":"tom","bar":9},{"beat":37,"duration":0.5,"midi":50,"velocity":102,"voice":"bass","bar":9},{"beat":37.0,"duration":0.06,"midi":42,"velocity":56,"voice":"hat","bar":9},{"beat":37.0,"duration":0.48,"midi":57,"velocity":74,"voice":"rhodes","bar":9},{"beat":37,"duration":0.2,"midi":38,"velocity":110,"voice":"snare","bar":9},{"beat":37,"duration":0.16,"midi":47,"velocity":96,"voice":"tom","bar":9},{"beat":37.5,"duration":0.5,"midi":45,"velocity":102,"voice":"bass","bar":9},{"beat":37.5,"duration":0.06,"midi":42,"velocity":44,"voice":"hat","bar":9},{"beat":37.5,"duration":0.48,"midi":62,"velocity":62,"voice":"rhodes","bar":9},{"beat":37.5,"duration":0.16,"midi":50,"velocity":96,"voice":"tom","bar":9},{"beat":38,"duration":0.5,"midi":38,"velocity":102,"voice":"bass","bar":9},{"beat":38.0,"duration":0.06,"midi":42,"velocity":56,"voice":"hat","bar":9},{"beat":38,"duration":0.18,"midi":36,"velocity":116,"voice":"kick","bar":9},{"beat":38.0,"duration":0.48,"midi":57,"velocity":74,"voice":"rhodes","bar":9},{"beat":38,"duration":1,"midi":45,"velocity":104,"voice":"voxM","bar":9,"vowel":"u"},{"beat":38.5,"duration":0.5,"midi":41,"velocity":102,"voice":"bass","bar":9},{"beat":38.5,"duration":0.06,"midi":42,"velocity":44,"voice":"hat","bar":9},{"beat":38.5,"duration":0.48,"midi":53,"velocity":62,"voice":"rhodes","bar":9},{"beat":38.5,"duration":0.16,"midi":45,"velocity":96,"voice":"tom","bar":9},{"beat":39,"duration":0.5,"midi":45,"velocity":102,"voice":"bass","bar":9},{"beat":39.0,"duration":0.06,"midi":42,"velocity":56,"voice":"hat","bar":9},{"beat":39.0,"duration":0.48,"midi":50,"velocity":74,"voice":"rhodes","bar":9},{"beat":39,"duration":0.2,"midi":38,"velocity":110,"voice":"snare","bar":9},{"beat":39,"duration":0.16,"midi":47,"velocity":96,"voice":"tom","bar":9},{"beat":39,"duration":1,"midi":50,"velocity":104,"voice":"voxM","bar":9,"vowel":"o"},{"beat":39.5,"duration":0.5,"midi":41,"velocity":102,"voice":"bass","bar":9},{"beat":39.5,"duration":0.06,"midi":42,"velocity":44,"voice":"hat","bar":9},{"beat":39.5,"duration":0.48,"midi":53,"velocity":62,"voice":"rhodes","bar":9},{"beat":39.5,"duration":0.16,"midi":50,"velocity":96,"voice":"tom","bar":9},{"beat":40,"duration":0.5,"midi":46,"velocity":102,"voice":"bass","bar":10},{"beat":40.0,"duration":0.06,"midi":42,"velocity":56,"voice":"hat","bar":10},{"beat":40,"duration":0.18,"midi":36,"velocity":116,"voice":"kick","bar":10},{"beat":40,"duration":4,"midi":58,"velocity":56,"voice":"pad","bar":10},{"beat":40,"duration":4,"midi":62,"velocity":56,"voice":"pad","bar":10},{"beat":40,"duration":4,"midi":65,"velocity":56,"voice":"pad","bar":10},{"beat":40.0,"duration":0.48,"midi":58,"velocity":74,"voice":"rhodes","bar":10},{"beat":40,"duration":1,"midi":53,"velocity":104,"voice":"voxM","bar":10,"vowel":"a"},{"beat":40.5,"duration":0.5,"midi":41,"velocity":102,"voice":"bass","bar":10},{"beat":40.5,"duration":0.06,"midi":42,"velocity":44,"voice":"hat","bar":10},{"beat":40.5,"duration":0.48,"midi":62,"velocity":62,"voice":"rhodes","bar":10},{"beat":40.5,"duration":0.16,"midi":45,"velocity":96,"voice":"tom","bar":10},{"beat":41,"duration":0.5,"midi":46,"velocity":102,"voice":"bass","bar":10},{"beat":41.0,"duration":0.06,"midi":42,"velocity":56,"voice":"hat","bar":10},{"beat":41.0,"duration":0.48,"midi":65,"velocity":74,"voice":"rhodes","bar":10},{"beat":41,"duration":0.2,"midi":38,"velocity":110,"voice":"snare","bar":10},{"beat":41,"duration":0.16,"midi":47,"velocity":96,"voice":"tom","bar":10},{"beat":41,"duration":1,"midi":50,"velocity":104,"voice":"voxM","bar":10,"vowel":"o"},{"beat":41.5,"duration":0.5,"midi":50,"velocity":102,"voice":"bass","bar":10},{"beat":41.5,"duration":0.06,"midi":42,"velocity":44,"voice":"hat","bar":10},{"beat":41.5,"duration":0.48,"midi":70,"velocity":62,"voice":"rhodes","bar":10},{"beat":41.5,"duration":0.16,"midi":50,"velocity":96,"voice":"tom","bar":10},{"beat":42,"duration":0.5,"midi":46,"velocity":102,"voice":"bass","bar":10},{"beat":42.0,"duration":0.06,"midi":42,"velocity":56,"voice":"hat","bar":10},{"beat":42,"duration":0.18,"midi":36,"velocity":116,"voice":"kick","bar":10},{"beat":42.0,"duration":0.48,"midi":65,"velocity":74,"voice":"rhodes","bar":10},{"beat":42,"duration":2,"midi":53,"velocity":104,"voice":"voxM","bar":10,"vowel":"e"},{"beat":42.5,"duration":0.5,"midi":41,"velocity":102,"voice":"bass","bar":10},{"beat":42.5,"duration":0.06,"midi":42,"velocity":44,"voice":"hat","bar":10},{"beat":42.5,"duration":0.48,"midi":62,"velocity":62,"voice":"rhodes","bar":10},{"beat":42.5,"duration":0.16,"midi":45,"velocity":96,"voice":"tom","bar":10},{"beat":43,"duration":1,"midi":50,"velocity":102,"voice":"bass","bar":10},{"beat":43.0,"duration":0.06,"midi":42,"velocity":56,"voice":"hat","bar":10},{"beat":43.0,"duration":0.48,"midi":58,"velocity":74,"voice":"rhodes","bar":10},{"beat":43,"duration":0.2,"midi":38,"velocity":110,"voice":"snare","bar":10},{"beat":43,"duration":0.16,"midi":47,"velocity":96,"voice":"tom","bar":10},{"beat":43.5,"duration":0.06,"midi":42,"velocity":44,"voice":"hat","bar":10},{"beat":43.5,"duration":0.48,"midi":62,"velocity":62,"voice":"rhodes","bar":10},{"beat":43.5,"duration":0.16,"midi":50,"velocity":96,"voice":"tom","bar":10},{"beat":44,"duration":0.5,"midi":48,"velocity":102,"voice":"bass","bar":11},{"beat":44.0,"duration":0.06,"midi":42,"velocity":56,"voice":"hat","bar":11},{"beat":44,"duration":0.18,"midi":36,"velocity":116,"voice":"kick","bar":11},{"beat":44,"duration":4,"midi":60,"velocity":56,"voice":"pad","bar":11},{"beat":44,"duration":4,"midi":64,"velocity":56,"voice":"pad","bar":11},{"beat":44,"duration":4,"midi":67,"velocity":56,"voice":"pad","bar":11},{"beat":44.0,"duration":0.48,"midi":60,"velocity":74,"voice":"rhodes","bar":11},{"beat":44,"duration":1,"midi":52,"velocity":104,"voice":"voxM","bar":11,"vowel":"e"},{"beat":44.5,"duration":0.5,"midi":43,"velocity":102,"voice":"bass","bar":11},{"beat":44.5,"duration":0.06,"midi":42,"velocity":44,"voice":"hat","bar":11},{"beat":44.5,"duration":0.48,"midi":64,"velocity":62,"voice":"rhodes","bar":11},{"beat":44.5,"duration":0.16,"midi":45,"velocity":96,"voice":"tom","bar":11},{"beat":45,"duration":0.5,"midi":48,"velocity":102,"voice":"bass","bar":11},{"beat":45.0,"duration":0.06,"midi":42,"velocity":56,"voice":"hat","bar":11},{"beat":45.0,"duration":0.48,"midi":67,"velocity":74,"voice":"rhodes","bar":11},{"beat":45,"duration":0.2,"midi":38,"velocity":110,"voice":"snare","bar":11},{"beat":45,"duration":0.16,"midi":47,"velocity":96,"voice":"tom","bar":11},{"beat":45,"duration":1,"midi":55,"velocity":104,"voice":"voxM","bar":11,"vowel":"a"},{"beat":45.5,"duration":0.5,"midi":52,"velocity":102,"voice":"bass","bar":11},{"beat":45.5,"duration":0.06,"midi":42,"velocity":44,"voice":"hat","bar":11},{"beat":45.5,"duration":0.48,"midi":72,"velocity":62,"voice":"rhodes","bar":11},{"beat":45.5,"duration":0.16,"midi":50,"velocity":96,"voice":"tom","bar":11},{"beat":46,"duration":0.5,"midi":48,"velocity":102,"voice":"bass","bar":11},{"beat":46.0,"duration":0.06,"midi":42,"velocity":56,"voice":"hat","bar":11},{"beat":46,"duration":0.18,"midi":36,"velocity":116,"voice":"kick","bar":11},{"beat":46.0,"duration":0.48,"midi":67,"velocity":74,"voice":"rhodes","bar":11},{"beat":46,"duration":2,"midi":52,"velocity":104,"voice":"voxM","bar":11,"vowel":"o"},{"beat":46.5,"duration":0.5,"midi":43,"velocity":102,"voice":"bass","bar":11},{"beat":46.5,"duration":0.06,"midi":42,"velocity":44,"voice":"hat","bar":11},{"beat":46.5,"duration":0.48,"midi":64,"velocity":62,"voice":"rhodes","bar":11},{"beat":46.5,"duration":0.16,"midi":45,"velocity":96,"voice":"tom","bar":11},{"beat":47,"duration":1,"midi":52,"velocity":102,"voice":"bass","bar":11},{"beat":47.0,"duration":0.06,"midi":42,"velocity":56,"voice":"hat","bar":11},{"beat":47.0,"duration":0.48,"midi":60,"velocity":74,"voice":"rhodes","bar":11},{"beat":47,"duration":0.2,"midi":38,"velocity":110,"voice":"snare","bar":11},{"beat":47,"duration":0.16,"midi":47,"velocity":96,"voice":"tom","bar":11},{"beat":47.5,"duration":0.06,"midi":42,"velocity":44,"voice":"hat","bar":11},{"beat":47.5,"duration":0.48,"midi":64,"velocity":62,"voice":"rhodes","bar":11},{"beat":47.5,"duration":0.16,"midi":50,"velocity":96,"voice":"tom","bar":11},{"beat":48,"duration":0.5,"midi":38,"velocity":102,"voice":"bass","bar":12},{"beat":48.0,"duration":0.06,"midi":42,"velocity":56,"voice":"hat","bar":12},{"beat":48,"duration":0.18,"midi":36,"velocity":116,"voice":"kick","bar":12},{"beat":48,"duration":4,"midi":50,"velocity":56,"voice":"pad","bar":12},{"beat":48,"duration":4,"midi":53,"velocity":56,"voice":"pad","bar":12},{"beat":48,"duration":4,"midi":57,"velocity":56,"voice":"pad","bar":12},{"beat":48.0,"duration":0.48,"midi":50,"velocity":74,"voice":"rhodes","bar":12},{"beat":48,"duration":1,"midi":50,"velocity":104,"voice":"voxM","bar":12,"vowel":"o"},{"beat":48.5,"duration":0.5,"midi":45,"velocity":102,"voice":"bass","bar":12},{"beat":48.5,"duration":0.06,"midi":42,"velocity":44,"voice":"hat","bar":12},{"beat":48.5,"duration":0.48,"midi":53,"velocity":62,"voice":"rhodes","bar":12},{"beat":48.5,"duration":0.16,"midi":45,"velocity":96,"voice":"tom","bar":12},{"beat":49,"duration":0.5,"midi":50,"velocity":102,"voice":"bass","bar":12},{"beat":49.0,"duration":0.06,"midi":42,"velocity":56,"voice":"hat","bar":12},{"beat":49.0,"duration":0.48,"midi":57,"velocity":74,"voice":"rhodes","bar":12},{"beat":49,"duration":0.2,"midi":38,"velocity":110,"voice":"snare","bar":12},{"beat":49,"duration":0.16,"midi":47,"velocity":96,"voice":"tom","bar":12},{"beat":49,"duration":1,"midi":53,"velocity":104,"voice":"voxM","bar":12,"vowel":"a"},{"beat":49.5,"duration":0.5,"midi":45,"velocity":102,"voice":"bass","bar":12},{"beat":49.5,"duration":0.06,"midi":42,"velocity":44,"voice":"hat","bar":12},{"beat":49.5,"duration":0.48,"midi":62,"velocity":62,"voice":"rhodes","bar":12},{"beat":49.5,"duration":0.16,"midi":50,"velocity":96,"voice":"tom","bar":12},{"beat":50,"duration":0.5,"midi":38,"velocity":102,"voice":"bass","bar":12},{"beat":50.0,"duration":0.06,"midi":42,"velocity":56,"voice":"hat","bar":12},{"beat":50,"duration":0.18,"midi":36,"velocity":116,"voice":"kick","bar":12},{"beat":50.0,"duration":0.48,"midi":57,"velocity":74,"voice":"rhodes","bar":12},{"beat":50,"duration":1,"midi":52,"velocity":104,"voice":"voxM","bar":12,"vowel":"e"},{"beat":50.5,"duration":0.5,"midi":41,"velocity":102,"voice":"bass","bar":12},{"beat":50.5,"duration":0.06,"midi":42,"velocity":44,"voice":"hat","bar":12},{"beat":50.5,"duration":0.48,"midi":53,"velocity":62,"voice":"rhodes","bar":12},{"beat":50.5,"duration":0.16,"midi":45,"velocity":96,"voice":"tom","bar":12},{"beat":51,"duration":0.5,"midi":45,"velocity":102,"voice":"bass","bar":12},{"beat":51.0,"duration":0.06,"midi":42,"velocity":56,"voice":"hat","bar":12},{"beat":51.0,"duration":0.48,"midi":50,"velocity":74,"voice":"rhodes","bar":12},{"beat":51,"duration":0.2,"midi":38,"velocity":110,"voice":"snare","bar":12},{"beat":51,"duration":0.16,"midi":47,"velocity":96,"voice":"tom","bar":12},{"beat":51,"duration":1,"midi":50,"velocity":104,"voice":"voxM","bar":12,"vowel":"o"},{"beat":51.5,"duration":0.5,"midi":41,"velocity":102,"voice":"bass","bar":12},{"beat":51.5,"duration":0.06,"midi":42,"velocity":44,"voice":"hat","bar":12},{"beat":51.5,"duration":0.48,"midi":53,"velocity":62,"voice":"rhodes","bar":12},{"beat":51.5,"duration":0.16,"midi":50,"velocity":96,"voice":"tom","bar":12},{"beat":52,"duration":0.5,"midi":43,"velocity":102,"voice":"bass","bar":13},{"beat":52.0,"duration":0.06,"midi":42,"velocity":56,"voice":"hat","bar":13},{"beat":52,"duration":0.18,"midi":36,"velocity":116,"voice":"kick","bar":13},{"beat":52,"duration":4,"midi":55,"velocity":56,"voice":"pad","bar":13},{"beat":52,"duration":4,"midi":58,"velocity":56,"voice":"pad","bar":13},{"beat":52,"duration":4,"midi":62,"velocity":56,"voice":"pad","bar":13},{"beat":52.0,"duration":0.48,"midi":55,"velocity":74,"voice":"rhodes","bar":13},{"beat":52,"duration":1,"midi":50,"velocity":104,"voice":"voxM","bar":13,"vowel":"o"},{"beat":52.5,"duration":0.5,"midi":50,"velocity":102,"voice":"bass","bar":13},{"beat":52.5,"duration":0.06,"midi":42,"velocity":44,"voice":"hat","bar":13},{"beat":52.5,"duration":0.48,"midi":58,"velocity":62,"voice":"rhodes","bar":13},{"beat":52.5,"duration":0.16,"midi":45,"velocity":96,"voice":"tom","bar":13},{"beat":53,"duration":0.5,"midi":46,"velocity":102,"voice":"bass","bar":13},{"beat":53.0,"duration":0.06,"midi":42,"velocity":56,"voice":"hat","bar":13},{"beat":53.0,"duration":0.48,"midi":62,"velocity":74,"voice":"rhodes","bar":13},{"beat":53,"duration":0.2,"midi":38,"velocity":110,"voice":"snare","bar":13},{"beat":53,"duration":0.16,"midi":47,"velocity":96,"voice":"tom","bar":13},{"beat":53,"duration":1,"midi":46,"velocity":104,"voice":"voxM","bar":13,"vowel":"u"},{"beat":53.5,"duration":0.5,"midi":50,"velocity":102,"voice":"bass","bar":13},{"beat":53.5,"duration":0.06,"midi":42,"velocity":44,"voice":"hat","bar":13},{"beat":53.5,"duration":0.48,"midi":67,"velocity":62,"voice":"rhodes","bar":13},{"beat":53.5,"duration":0.16,"midi":50,"velocity":96,"voice":"tom","bar":13},{"beat":54,"duration":0.5,"midi":43,"velocity":102,"voice":"bass","bar":13},{"beat":54.0,"duration":0.06,"midi":42,"velocity":56,"voice":"hat","bar":13},{"beat":54,"duration":0.18,"midi":36,"velocity":116,"voice":"kick","bar":13},{"beat":54.0,"duration":0.48,"midi":62,"velocity":74,"voice":"rhodes","bar":13},{"beat":54,"duration":2,"midi":50,"velocity":104,"voice":"voxM","bar":13,"vowel":"a"},{"beat":54.5,"duration":0.5,"midi":46,"velocity":102,"voice":"bass","bar":13},{"beat":54.5,"duration":0.06,"midi":42,"velocity":44,"voice":"hat","bar":13},{"beat":54.5,"duration":0.48,"midi":58,"velocity":62,"voice":"rhodes","bar":13},{"beat":54.5,"duration":0.16,"midi":45,"velocity":96,"voice":"tom","bar":13},{"beat":55,"duration":1,"midi":50,"velocity":102,"voice":"bass","bar":13},{"beat":55.0,"duration":0.06,"midi":42,"velocity":56,"voice":"hat","bar":13},{"beat":55.0,"duration":0.48,"midi":55,"velocity":74,"voice":"rhodes","bar":13},{"beat":55,"duration":0.2,"midi":38,"velocity":110,"voice":"snare","bar":13},{"beat":55,"duration":0.16,"midi":47,"velocity":96,"voice":"tom","bar":13},{"beat":55.5,"duration":0.06,"midi":42,"velocity":44,"voice":"hat","bar":13},{"beat":55.5,"duration":0.48,"midi":58,"velocity":62,"voice":"rhodes","bar":13},{"beat":55.5,"duration":0.16,"midi":50,"velocity":96,"voice":"tom","bar":13},{"beat":56,"duration":0.5,"midi":48,"velocity":102,"voice":"bass","bar":14},{"beat":56.0,"duration":0.06,"midi":42,"velocity":56,"voice":"hat","bar":14},{"beat":56,"duration":0.18,"midi":36,"velocity":116,"voice":"kick","bar":14},{"beat":56,"duration":4,"midi":60,"velocity":56,"voice":"pad","bar":14},{"beat":56,"duration":4,"midi":64,"velocity":56,"voice":"pad","bar":14},{"beat":56,"duration":4,"midi":67,"velocity":56,"voice":"pad","bar":14},{"beat":56.0,"duration":0.48,"midi":60,"velocity":74,"voice":"rhodes","bar":14},{"beat":56,"duration":1,"midi":52,"velocity":104,"voice":"voxM","bar":14,"vowel":"e"},{"beat":56.5,"duration":0.5,"midi":43,"velocity":102,"voice":"bass","bar":14},{"beat":56.5,"duration":0.06,"midi":42,"velocity":44,"voice":"hat","bar":14},{"beat":56.5,"duration":0.48,"midi":64,"velocity":62,"voice":"rhodes","bar":14},{"beat":56.5,"duration":0.16,"midi":45,"velocity":96,"voice":"tom","bar":14},{"beat":57,"duration":0.5,"midi":48,"velocity":102,"voice":"bass","bar":14},{"beat":57.0,"duration":0.06,"midi":42,"velocity":56,"voice":"hat","bar":14},{"beat":57.0,"duration":0.48,"midi":67,"velocity":74,"voice":"rhodes","bar":14},{"beat":57,"duration":0.2,"midi":38,"velocity":110,"voice":"snare","bar":14},{"beat":57,"duration":0.16,"midi":47,"velocity":96,"voice":"tom","bar":14},{"beat":57,"duration":1,"midi":48,"velocity":104,"voice":"voxM","bar":14,"vowel":"o"},{"beat":57.5,"duration":0.5,"midi":52,"velocity":102,"voice":"bass","bar":14},{"beat":57.5,"duration":0.06,"midi":42,"velocity":44,"voice":"hat","bar":14},{"beat":57.5,"duration":0.48,"midi":72,"velocity":62,"voice":"rhodes","bar":14},{"beat":57.5,"duration":0.16,"midi":50,"velocity":96,"voice":"tom","bar":14},{"beat":58,"duration":0.5,"midi":48,"velocity":102,"voice":"bass","bar":14},{"beat":58.0,"duration":0.06,"midi":42,"velocity":56,"voice":"hat","bar":14},{"beat":58,"duration":0.18,"midi":36,"velocity":116,"voice":"kick","bar":14},{"beat":58.0,"duration":0.48,"midi":67,"velocity":74,"voice":"rhodes","bar":14},{"beat":58,"duration":2,"midi":43,"velocity":104,"voice":"voxM","bar":14,"vowel":"u"},{"beat":58.5,"duration":0.5,"midi":43,"velocity":102,"voice":"bass","bar":14},{"beat":58.5,"duration":0.06,"midi":42,"velocity":44,"voice":"hat","bar":14},{"beat":58.5,"duration":0.48,"midi":64,"velocity":62,"voice":"rhodes","bar":14},{"beat":58.5,"duration":0.16,"midi":45,"velocity":96,"voice":"tom","bar":14},{"beat":59,"duration":1,"midi":52,"velocity":102,"voice":"bass","bar":14},{"beat":59.0,"duration":0.06,"midi":42,"velocity":56,"voice":"hat","bar":14},{"beat":59.0,"duration":0.48,"midi":60,"velocity":74,"voice":"rhodes","bar":14},{"beat":59,"duration":0.2,"midi":38,"velocity":110,"voice":"snare","bar":14},{"beat":59,"duration":0.16,"midi":47,"velocity":96,"voice":"tom","bar":14},{"beat":59.5,"duration":0.06,"midi":42,"velocity":44,"voice":"hat","bar":14},{"beat":59.5,"duration":0.48,"midi":64,"velocity":62,"voice":"rhodes","bar":14},{"beat":59.5,"duration":0.16,"midi":50,"velocity":96,"voice":"tom","bar":14},{"beat":60,"duration":1,"midi":38,"velocity":102,"voice":"bass","bar":15},{"beat":60.0,"duration":0.06,"midi":42,"velocity":56,"voice":"hat","bar":15},{"beat":60,"duration":0.18,"midi":36,"velocity":116,"voice":"kick","bar":15},{"beat":60,"duration":4,"midi":50,"velocity":56,"voice":"pad","bar":15},{"beat":60,"duration":4,"midi":53,"velocity":56,"voice":"pad","bar":15},{"beat":60,"duration":4,"midi":57,"velocity":56,"voice":"pad","bar":15},{"beat":60.0,"duration":0.48,"midi":50,"velocity":74,"voice":"rhodes","bar":15},{"beat":60,"duration":2,"midi":50,"velocity":104,"voice":"voxM","bar":15,"vowel":"o"},{"beat":60.5,"duration":0.06,"midi":42,"velocity":44,"voice":"hat","bar":15},{"beat":60.5,"duration":0.48,"midi":53,"velocity":62,"voice":"rhodes","bar":15},{"beat":60.5,"duration":0.16,"midi":45,"velocity":96,"voice":"tom","bar":15},{"beat":61,"duration":1,"midi":45,"velocity":102,"voice":"bass","bar":15},{"beat":61.0,"duration":0.06,"midi":42,"velocity":56,"voice":"hat","bar":15},{"beat":61.0,"duration":0.48,"midi":57,"velocity":74,"voice":"rhodes","bar":15},{"beat":61,"duration":0.2,"midi":38,"velocity":110,"voice":"snare","bar":15},{"beat":61,"duration":0.16,"midi":47,"velocity":96,"voice":"tom","bar":15},{"beat":61.5,"duration":0.06,"midi":42,"velocity":44,"voice":"hat","bar":15},{"beat":61.5,"duration":0.48,"midi":62,"velocity":62,"voice":"rhodes","bar":15},{"beat":61.5,"duration":0.16,"midi":50,"velocity":96,"voice":"tom","bar":15},{"beat":62,"duration":2,"midi":50,"velocity":102,"voice":"bass","bar":15},{"beat":62.0,"duration":0.06,"midi":42,"velocity":56,"voice":"hat","bar":15},{"beat":62,"duration":0.18,"midi":36,"velocity":116,"voice":"kick","bar":15},{"beat":62.0,"duration":0.48,"midi":57,"velocity":74,"voice":"rhodes","bar":15},{"beat":62,"duration":2,"midi":45,"velocity":104,"voice":"voxM","bar":15,"vowel":"a"},{"beat":62.5,"duration":0.06,"midi":42,"velocity":44,"voice":"hat","bar":15},{"beat":62.5,"duration":0.48,"midi":53,"velocity":62,"voice":"rhodes","bar":15},{"beat":62.5,"duration":0.16,"midi":45,"velocity":96,"voice":"tom","bar":15},{"beat":63.0,"duration":0.06,"midi":42,"velocity":56,"voice":"hat","bar":15},{"beat":63.0,"duration":0.48,"midi":50,"velocity":74,"voice":"rhodes","bar":15},{"beat":63,"duration":0.2,"midi":38,"velocity":110,"voice":"snare","bar":15},{"beat":63,"duration":0.16,"midi":47,"velocity":96,"voice":"tom","bar":15},{"beat":63.5,"duration":0.06,"midi":42,"velocity":44,"voice":"hat","bar":15},{"beat":63.5,"duration":0.48,"midi":53,"velocity":62,"voice":"rhodes","bar":15},{"beat":63.5,"duration":0.16,"midi":50,"velocity":96,"voice":"tom","bar":15},{"beat":64,"duration":0.5,"midi":38,"velocity":102,"voice":"bass","bar":16},{"beat":64.0,"duration":0.06,"midi":42,"velocity":56,"voice":"hat","bar":16},{"beat":64,"duration":0.18,"midi":36,"velocity":116,"voice":"kick","bar":16},{"beat":64,"duration":4,"midi":50,"velocity":56,"voice":"pad","bar":16},{"beat":64,"duration":4,"midi":53,"velocity":56,"voice":"pad","bar":16},{"beat":64,"duration":4,"midi":57,"velocity":56,"voice":"pad","bar":16},{"beat":64.0,"duration":0.48,"midi":50,"velocity":74,"voice":"rhodes","bar":16},{"beat":64,"duration":1,"midi":50,"velocity":104,"voice":"voxM","bar":16,"vowel":"o"},{"beat":64.5,"duration":0.5,"midi":45,"velocity":102,"voice":"bass","bar":16},{"beat":64.5,"duration":0.06,"midi":42,"velocity":44,"voice":"hat","bar":16},{"beat":64.5,"duration":0.48,"midi":53,"velocity":62,"voice":"rhodes","bar":16},{"beat":64.5,"duration":0.16,"midi":45,"velocity":96,"voice":"tom","bar":16},{"beat":65,"duration":0.5,"midi":50,"velocity":102,"voice":"bass","bar":16},{"beat":65.0,"duration":0.06,"midi":42,"velocity":56,"voice":"hat","bar":16},{"beat":65.0,"duration":0.48,"midi":57,"velocity":74,"voice":"rhodes","bar":16},{"beat":65,"duration":0.2,"midi":38,"velocity":110,"voice":"snare","bar":16},{"beat":65,"duration":0.16,"midi":47,"velocity":96,"voice":"tom","bar":16},{"beat":65,"duration":1,"midi":50,"velocity":104,"voice":"voxM","bar":16,"vowel":"o"},{"beat":65.5,"duration":0.5,"midi":45,"velocity":102,"voice":"bass","bar":16},{"beat":65.5,"duration":0.06,"midi":42,"velocity":44,"voice":"hat","bar":16},{"beat":65.5,"duration":0.48,"midi":62,"velocity":62,"voice":"rhodes","bar":16},{"beat":65.5,"duration":0.16,"midi":50,"velocity":96,"voice":"tom","bar":16},{"beat":66,"duration":0.5,"midi":38,"velocity":102,"voice":"bass","bar":16},{"beat":66.0,"duration":0.06,"midi":42,"velocity":56,"voice":"hat","bar":16},{"beat":66,"duration":0.18,"midi":36,"velocity":116,"voice":"kick","bar":16},{"beat":66.0,"duration":0.48,"midi":57,"velocity":74,"voice":"rhodes","bar":16},{"beat":66,"duration":1,"midi":53,"velocity":104,"voice":"voxM","bar":16,"vowel":"a"},{"beat":66.5,"duration":0.5,"midi":41,"velocity":102,"voice":"bass","bar":16},{"beat":66.5,"duration":0.06,"midi":42,"velocity":44,"voice":"hat","bar":16},{"beat":66.5,"duration":0.48,"midi":53,"velocity":62,"voice":"rhodes","bar":16},{"beat":66.5,"duration":0.16,"midi":45,"velocity":96,"voice":"tom","bar":16},{"beat":67,"duration":0.5,"midi":45,"velocity":102,"voice":"bass","bar":16},{"beat":67.0,"duration":0.06,"midi":42,"velocity":56,"voice":"hat","bar":16},{"beat":67.0,"duration":0.48,"midi":50,"velocity":74,"voice":"rhodes","bar":16},{"beat":67,"duration":0.2,"midi":38,"velocity":110,"voice":"snare","bar":16},{"beat":67,"duration":0.16,"midi":47,"velocity":96,"voice":"tom","bar":16},{"beat":67,"duration":1,"midi":52,"velocity":104,"voice":"voxM","bar":16,"vowel":"e"},{"beat":67.5,"duration":0.5,"midi":41,"velocity":102,"voice":"bass","bar":16},{"beat":67.5,"duration":0.06,"midi":42,"velocity":44,"voice":"hat","bar":16},{"beat":67.5,"duration":0.48,"midi":53,"velocity":62,"voice":"rhodes","bar":16},{"beat":67.5,"duration":0.16,"midi":50,"velocity":96,"voice":"tom","bar":16},{"beat":68,"duration":0.5,"midi":38,"velocity":102,"voice":"bass","bar":17},{"beat":68.0,"duration":0.06,"midi":42,"velocity":56,"voice":"hat","bar":17},{"beat":68,"duration":0.18,"midi":36,"velocity":116,"voice":"kick","bar":17},{"beat":68,"duration":4,"midi":50,"velocity":56,"voice":"pad","bar":17},{"beat":68,"duration":4,"midi":53,"velocity":56,"voice":"pad","bar":17},{"beat":68,"duration":4,"midi":57,"velocity":56,"voice":"pad","bar":17},{"beat":68.0,"duration":0.48,"midi":50,"velocity":74,"voice":"rhodes","bar":17},{"beat":68,"duration":2,"midi":50,"velocity":104,"voice":"voxM","bar":17,"vowel":"o"},{"beat":68.5,"duration":0.5,"midi":45,"velocity":102,"voice":"bass","bar":17},{"beat":68.5,"duration":0.06,"midi":42,"velocity":44,"voice":"hat","bar":17},{"beat":68.5,"duration":0.48,"midi":53,"velocity":62,"voice":"rhodes","bar":17},{"beat":68.5,"duration":0.16,"midi":45,"velocity":96,"voice":"tom","bar":17},{"beat":69,"duration":0.5,"midi":50,"velocity":102,"voice":"bass","bar":17},{"beat":69.0,"duration":0.06,"midi":42,"velocity":56,"voice":"hat","bar":17},{"beat":69.0,"duration":0.48,"midi":57,"velocity":74,"voice":"rhodes","bar":17},{"beat":69,"duration":0.2,"midi":38,"velocity":110,"voice":"snare","bar":17},{"beat":69,"duration":0.16,"midi":47,"velocity":96,"voice":"tom","bar":17},{"beat":69.5,"duration":0.5,"midi":45,"velocity":102,"voice":"bass","bar":17},{"beat":69.5,"duration":0.06,"midi":42,"velocity":44,"voice":"hat","bar":17},{"beat":69.5,"duration":0.48,"midi":62,"velocity":62,"voice":"rhodes","bar":17},{"beat":69.5,"duration":0.16,"midi":50,"velocity":96,"voice":"tom","bar":17},{"beat":70,"duration":0.5,"midi":38,"velocity":102,"voice":"bass","bar":17},{"beat":70.0,"duration":0.06,"midi":42,"velocity":56,"voice":"hat","bar":17},{"beat":70,"duration":0.18,"midi":36,"velocity":116,"voice":"kick","bar":17},{"beat":70.0,"duration":0.48,"midi":57,"velocity":74,"voice":"rhodes","bar":17},{"beat":70,"duration":1,"midi":45,"velocity":104,"voice":"voxM","bar":17,"vowel":"u"},{"beat":70.5,"duration":0.5,"midi":41,"velocity":102,"voice":"bass","bar":17},{"beat":70.5,"duration":0.06,"midi":42,"velocity":44,"voice":"hat","bar":17},{"beat":70.5,"duration":0.48,"midi":53,"velocity":62,"voice":"rhodes","bar":17},{"beat":70.5,"duration":0.16,"midi":45,"velocity":96,"voice":"tom","bar":17},{"beat":71,"duration":0.5,"midi":45,"velocity":102,"voice":"bass","bar":17},{"beat":71.0,"duration":0.06,"midi":42,"velocity":56,"voice":"hat","bar":17},{"beat":71.0,"duration":0.48,"midi":50,"velocity":74,"voice":"rhodes","bar":17},{"beat":71,"duration":0.2,"midi":38,"velocity":110,"voice":"snare","bar":17},{"beat":71,"duration":0.16,"midi":47,"velocity":96,"voice":"tom","bar":17},{"beat":71,"duration":1,"midi":50,"velocity":104,"voice":"voxM","bar":17,"vowel":"o"},{"beat":71.5,"duration":0.5,"midi":41,"velocity":102,"voice":"bass","bar":17},{"beat":71.5,"duration":0.06,"midi":42,"velocity":44,"voice":"hat","bar":17},{"beat":71.5,"duration":0.48,"midi":53,"velocity":62,"voice":"rhodes","bar":17},{"beat":71.5,"duration":0.16,"midi":50,"velocity":96,"voice":"tom","bar":17},{"beat":72,"duration":0.5,"midi":46,"velocity":102,"voice":"bass","bar":18},{"beat":72.0,"duration":0.06,"midi":42,"velocity":56,"voice":"hat","bar":18},{"beat":72,"duration":0.18,"midi":36,"velocity":116,"voice":"kick","bar":18},{"beat":72,"duration":4,"midi":58,"velocity":56,"voice":"pad","bar":18},{"beat":72,"duration":4,"midi":62,"velocity":56,"voice":"pad","bar":18},{"beat":72,"duration":4,"midi":65,"velocity":56,"voice":"pad","bar":18},{"beat":72.0,"duration":0.48,"midi":58,"velocity":74,"voice":"rhodes","bar":18},{"beat":72,"duration":1,"midi":53,"velocity":104,"voice":"voxM","bar":18,"vowel":"a"},{"beat":72.5,"duration":0.5,"midi":41,"velocity":102,"voice":"bass","bar":18},{"beat":72.5,"duration":0.06,"midi":42,"velocity":44,"voice":"hat","bar":18},{"beat":72.5,"duration":0.48,"midi":62,"velocity":62,"voice":"rhodes","bar":18},{"beat":72.5,"duration":0.16,"midi":45,"velocity":96,"voice":"tom","bar":18},{"beat":73,"duration":0.5,"midi":46,"velocity":102,"voice":"bass","bar":18},{"beat":73.0,"duration":0.06,"midi":42,"velocity":56,"voice":"hat","bar":18},{"beat":73.0,"duration":0.48,"midi":65,"velocity":74,"voice":"rhodes","bar":18},{"beat":73,"duration":0.2,"midi":38,"velocity":110,"voice":"snare","bar":18},{"beat":73,"duration":0.16,"midi":47,"velocity":96,"voice":"tom","bar":18},{"beat":73,"duration":1,"midi":50,"velocity":104,"voice":"voxM","bar":18,"vowel":"o"},{"beat":73.5,"duration":0.5,"midi":50,"velocity":102,"voice":"bass","bar":18},{"beat":73.5,"duration":0.06,"midi":42,"velocity":44,"voice":"hat","bar":18},{"beat":73.5,"duration":0.48,"midi":70,"velocity":62,"voice":"rhodes","bar":18},{"beat":73.5,"duration":0.16,"midi":50,"velocity":96,"voice":"tom","bar":18},{"beat":74,"duration":0.5,"midi":46,"velocity":102,"voice":"bass","bar":18},{"beat":74.0,"duration":0.06,"midi":42,"velocity":56,"voice":"hat","bar":18},{"beat":74,"duration":0.18,"midi":36,"velocity":116,"voice":"kick","bar":18},{"beat":74.0,"duration":0.48,"midi":65,"velocity":74,"voice":"rhodes","bar":18},{"beat":74,"duration":2,"midi":53,"velocity":104,"voice":"voxM","bar":18,"vowel":"e"},{"beat":74.5,"duration":0.5,"midi":41,"velocity":102,"voice":"bass","bar":18},{"beat":74.5,"duration":0.06,"midi":42,"velocity":44,"voice":"hat","bar":18},{"beat":74.5,"duration":0.48,"midi":62,"velocity":62,"voice":"rhodes","bar":18},{"beat":74.5,"duration":0.16,"midi":45,"velocity":96,"voice":"tom","bar":18},{"beat":75,"duration":1,"midi":50,"velocity":102,"voice":"bass","bar":18},{"beat":75.0,"duration":0.06,"midi":42,"velocity":56,"voice":"hat","bar":18},{"beat":75.0,"duration":0.48,"midi":58,"velocity":74,"voice":"rhodes","bar":18},{"beat":75,"duration":0.2,"midi":38,"velocity":110,"voice":"snare","bar":18},{"beat":75,"duration":0.16,"midi":47,"velocity":96,"voice":"tom","bar":18},{"beat":75.5,"duration":0.06,"midi":42,"velocity":44,"voice":"hat","bar":18},{"beat":75.5,"duration":0.48,"midi":62,"velocity":62,"voice":"rhodes","bar":18},{"beat":75.5,"duration":0.16,"midi":50,"velocity":96,"voice":"tom","bar":18},{"beat":76,"duration":0.5,"midi":48,"velocity":102,"voice":"bass","bar":19},{"beat":76.0,"duration":0.06,"midi":42,"velocity":56,"voice":"hat","bar":19},{"beat":76,"duration":0.18,"midi":36,"velocity":116,"voice":"kick","bar":19},{"beat":76,"duration":4,"midi":60,"velocity":56,"voice":"pad","bar":19},{"beat":76,"duration":4,"midi":64,"velocity":56,"voice":"pad","bar":19},{"beat":76,"duration":4,"midi":67,"velocity":56,"voice":"pad","bar":19},{"beat":76.0,"duration":0.48,"midi":60,"velocity":74,"voice":"rhodes","bar":19},{"beat":76,"duration":1,"midi":52,"velocity":104,"voice":"voxM","bar":19,"vowel":"e"},{"beat":76.5,"duration":0.5,"midi":43,"velocity":102,"voice":"bass","bar":19},{"beat":76.5,"duration":0.06,"midi":42,"velocity":44,"voice":"hat","bar":19},{"beat":76.5,"duration":0.48,"midi":64,"velocity":62,"voice":"rhodes","bar":19},{"beat":76.5,"duration":0.16,"midi":45,"velocity":96,"voice":"tom","bar":19},{"beat":77,"duration":0.5,"midi":48,"velocity":102,"voice":"bass","bar":19},{"beat":77.0,"duration":0.06,"midi":42,"velocity":56,"voice":"hat","bar":19},{"beat":77.0,"duration":0.48,"midi":67,"velocity":74,"voice":"rhodes","bar":19},{"beat":77,"duration":0.2,"midi":38,"velocity":110,"voice":"snare","bar":19},{"beat":77,"duration":0.16,"midi":47,"velocity":96,"voice":"tom","bar":19},{"beat":77,"duration":1,"midi":55,"velocity":104,"voice":"voxM","bar":19,"vowel":"a"},{"beat":77.5,"duration":0.5,"midi":52,"velocity":102,"voice":"bass","bar":19},{"beat":77.5,"duration":0.06,"midi":42,"velocity":44,"voice":"hat","bar":19},{"beat":77.5,"duration":0.48,"midi":72,"velocity":62,"voice":"rhodes","bar":19},{"beat":77.5,"duration":0.16,"midi":50,"velocity":96,"voice":"tom","bar":19},{"beat":78,"duration":0.5,"midi":48,"velocity":102,"voice":"bass","bar":19},{"beat":78.0,"duration":0.06,"midi":42,"velocity":56,"voice":"hat","bar":19},{"beat":78,"duration":0.18,"midi":36,"velocity":116,"voice":"kick","bar":19},{"beat":78.0,"duration":0.48,"midi":67,"velocity":74,"voice":"rhodes","bar":19},{"beat":78,"duration":2,"midi":52,"velocity":104,"voice":"voxM","bar":19,"vowel":"o"},{"beat":78.5,"duration":0.5,"midi":43,"velocity":102,"voice":"bass","bar":19},{"beat":78.5,"duration":0.06,"midi":42,"velocity":44,"voice":"hat","bar":19},{"beat":78.5,"duration":0.48,"midi":64,"velocity":62,"voice":"rhodes","bar":19},{"beat":78.5,"duration":0.16,"midi":45,"velocity":96,"voice":"tom","bar":19},{"beat":79,"duration":1,"midi":52,"velocity":102,"voice":"bass","bar":19},{"beat":79.0,"duration":0.06,"midi":42,"velocity":56,"voice":"hat","bar":19},{"beat":79.0,"duration":0.48,"midi":60,"velocity":74,"voice":"rhodes","bar":19},{"beat":79,"duration":0.2,"midi":38,"velocity":110,"voice":"snare","bar":19},{"beat":79,"duration":0.16,"midi":47,"velocity":96,"voice":"tom","bar":19},{"beat":79.5,"duration":0.06,"midi":42,"velocity":44,"voice":"hat","bar":19},{"beat":79.5,"duration":0.48,"midi":64,"velocity":62,"voice":"rhodes","bar":19},{"beat":79.5,"duration":0.16,"midi":50,"velocity":96,"voice":"tom","bar":19},{"beat":80,"duration":0.5,"midi":38,"velocity":102,"voice":"bass","bar":20},{"beat":80.0,"duration":0.06,"midi":42,"velocity":56,"voice":"hat","bar":20},{"beat":80,"duration":0.18,"midi":36,"velocity":116,"voice":"kick","bar":20},{"beat":80,"duration":4,"midi":50,"velocity":56,"voice":"pad","bar":20},{"beat":80,"duration":4,"midi":53,"velocity":56,"voice":"pad","bar":20},{"beat":80,"duration":4,"midi":57,"velocity":56,"voice":"pad","bar":20},{"beat":80.0,"duration":0.48,"midi":50,"velocity":74,"voice":"rhodes","bar":20},{"beat":80,"duration":1,"midi":50,"velocity":104,"voice":"voxM","bar":20,"vowel":"o"},{"beat":80.5,"duration":0.5,"midi":45,"velocity":102,"voice":"bass","bar":20},{"beat":80.5,"duration":0.06,"midi":42,"velocity":44,"voice":"hat","bar":20},{"beat":80.5,"duration":0.48,"midi":53,"velocity":62,"voice":"rhodes","bar":20},{"beat":80.5,"duration":0.16,"midi":45,"velocity":96,"voice":"tom","bar":20},{"beat":81,"duration":0.5,"midi":50,"velocity":102,"voice":"bass","bar":20},{"beat":81.0,"duration":0.06,"midi":42,"velocity":56,"voice":"hat","bar":20},{"beat":81.0,"duration":0.48,"midi":57,"velocity":74,"voice":"rhodes","bar":20},{"beat":81,"duration":0.2,"midi":38,"velocity":110,"voice":"snare","bar":20},{"beat":81,"duration":0.16,"midi":47,"velocity":96,"voice":"tom","bar":20},{"beat":81,"duration":1,"midi":53,"velocity":104,"voice":"voxM","bar":20,"vowel":"a"},{"beat":81.5,"duration":0.5,"midi":45,"velocity":102,"voice":"bass","bar":20},{"beat":81.5,"duration":0.06,"midi":42,"velocity":44,"voice":"hat","bar":20},{"beat":81.5,"duration":0.48,"midi":62,"velocity":62,"voice":"rhodes","bar":20},{"beat":81.5,"duration":0.16,"midi":50,"velocity":96,"voice":"tom","bar":20},{"beat":82,"duration":0.5,"midi":38,"velocity":102,"voice":"bass","bar":20},{"beat":82.0,"duration":0.06,"midi":42,"velocity":56,"voice":"hat","bar":20},{"beat":82,"duration":0.18,"midi":36,"velocity":116,"voice":"kick","bar":20},{"beat":82.0,"duration":0.48,"midi":57,"velocity":74,"voice":"rhodes","bar":20},{"beat":82,"duration":1,"midi":52,"velocity":104,"voice":"voxM","bar":20,"vowel":"e"},{"beat":82.5,"duration":0.5,"midi":41,"velocity":102,"voice":"bass","bar":20},{"beat":82.5,"duration":0.06,"midi":42,"velocity":44,"voice":"hat","bar":20},{"beat":82.5,"duration":0.48,"midi":53,"velocity":62,"voice":"rhodes","bar":20},{"beat":82.5,"duration":0.16,"midi":45,"velocity":96,"voice":"tom","bar":20},{"beat":83,"duration":0.5,"midi":45,"velocity":102,"voice":"bass","bar":20},{"beat":83.0,"duration":0.06,"midi":42,"velocity":56,"voice":"hat","bar":20},{"beat":83.0,"duration":0.48,"midi":50,"velocity":74,"voice":"rhodes","bar":20},{"beat":83,"duration":0.2,"midi":38,"velocity":110,"voice":"snare","bar":20},{"beat":83,"duration":0.16,"midi":47,"velocity":96,"voice":"tom","bar":20},{"beat":83,"duration":1,"midi":50,"velocity":104,"voice":"voxM","bar":20,"vowel":"o"},{"beat":83.5,"duration":0.5,"midi":41,"velocity":102,"voice":"bass","bar":20},{"beat":83.5,"duration":0.06,"midi":42,"velocity":44,"voice":"hat","bar":20},{"beat":83.5,"duration":0.48,"midi":53,"velocity":62,"voice":"rhodes","bar":20},{"beat":83.5,"duration":0.16,"midi":50,"velocity":96,"voice":"tom","bar":20},{"beat":84,"duration":0.5,"midi":43,"velocity":102,"voice":"bass","bar":21},{"beat":84.0,"duration":0.06,"midi":42,"velocity":56,"voice":"hat","bar":21},{"beat":84,"duration":0.18,"midi":36,"velocity":116,"voice":"kick","bar":21},{"beat":84,"duration":4,"midi":55,"velocity":56,"voice":"pad","bar":21},{"beat":84,"duration":4,"midi":58,"velocity":56,"voice":"pad","bar":21},{"beat":84,"duration":4,"midi":62,"velocity":56,"voice":"pad","bar":21},{"beat":84.0,"duration":0.48,"midi":55,"velocity":74,"voice":"rhodes","bar":21},{"beat":84,"duration":1,"midi":50,"velocity":104,"voice":"voxM","bar":21,"vowel":"o"},{"beat":84.5,"duration":0.5,"midi":50,"velocity":102,"voice":"bass","bar":21},{"beat":84.5,"duration":0.06,"midi":42,"velocity":44,"voice":"hat","bar":21},{"beat":84.5,"duration":0.48,"midi":58,"velocity":62,"voice":"rhodes","bar":21},{"beat":84.5,"duration":0.16,"midi":45,"velocity":96,"voice":"tom","bar":21},{"beat":85,"duration":0.5,"midi":46,"velocity":102,"voice":"bass","bar":21},{"beat":85.0,"duration":0.06,"midi":42,"velocity":56,"voice":"hat","bar":21},{"beat":85.0,"duration":0.48,"midi":62,"velocity":74,"voice":"rhodes","bar":21},{"beat":85,"duration":0.2,"midi":38,"velocity":110,"voice":"snare","bar":21},{"beat":85,"duration":0.16,"midi":47,"velocity":96,"voice":"tom","bar":21},{"beat":85,"duration":1,"midi":46,"velocity":104,"voice":"voxM","bar":21,"vowel":"u"},{"beat":85.5,"duration":0.5,"midi":50,"velocity":102,"voice":"bass","bar":21},{"beat":85.5,"duration":0.06,"midi":42,"velocity":44,"voice":"hat","bar":21},{"beat":85.5,"duration":0.48,"midi":67,"velocity":62,"voice":"rhodes","bar":21},{"beat":85.5,"duration":0.16,"midi":50,"velocity":96,"voice":"tom","bar":21},{"beat":86,"duration":0.5,"midi":43,"velocity":102,"voice":"bass","bar":21},{"beat":86.0,"duration":0.06,"midi":42,"velocity":56,"voice":"hat","bar":21},{"beat":86,"duration":0.18,"midi":36,"velocity":116,"voice":"kick","bar":21},{"beat":86.0,"duration":0.48,"midi":62,"velocity":74,"voice":"rhodes","bar":21},{"beat":86,"duration":2,"midi":50,"velocity":104,"voice":"voxM","bar":21,"vowel":"a"},{"beat":86.5,"duration":0.5,"midi":46,"velocity":102,"voice":"bass","bar":21},{"beat":86.5,"duration":0.06,"midi":42,"velocity":44,"voice":"hat","bar":21},{"beat":86.5,"duration":0.48,"midi":58,"velocity":62,"voice":"rhodes","bar":21},{"beat":86.5,"duration":0.16,"midi":45,"velocity":96,"voice":"tom","bar":21},{"beat":87,"duration":1,"midi":50,"velocity":102,"voice":"bass","bar":21},{"beat":87.0,"duration":0.06,"midi":42,"velocity":56,"voice":"hat","bar":21},{"beat":87.0,"duration":0.48,"midi":55,"velocity":74,"voice":"rhodes","bar":21},{"beat":87,"duration":0.2,"midi":38,"velocity":110,"voice":"snare","bar":21},{"beat":87,"duration":0.16,"midi":47,"velocity":96,"voice":"tom","bar":21},{"beat":87.5,"duration":0.06,"midi":42,"velocity":44,"voice":"hat","bar":21},{"beat":87.5,"duration":0.48,"midi":58,"velocity":62,"voice":"rhodes","bar":21},{"beat":87.5,"duration":0.16,"midi":50,"velocity":96,"voice":"tom","bar":21},{"beat":88,"duration":0.5,"midi":48,"velocity":102,"voice":"bass","bar":22},{"beat":88.0,"duration":0.06,"midi":42,"velocity":56,"voice":"hat","bar":22},{"beat":88,"duration":0.18,"midi":36,"velocity":116,"voice":"kick","bar":22},{"beat":88,"duration":4,"midi":60,"velocity":56,"voice":"pad","bar":22},{"beat":88,"duration":4,"midi":64,"velocity":56,"voice":"pad","bar":22},{"beat":88,"duration":4,"midi":67,"velocity":56,"voice":"pad","bar":22},{"beat":88.0,"duration":0.48,"midi":60,"velocity":74,"voice":"rhodes","bar":22},{"beat":88,"duration":1,"midi":52,"velocity":104,"voice":"voxM","bar":22,"vowel":"e"},{"beat":88.5,"duration":0.5,"midi":43,"velocity":102,"voice":"bass","bar":22},{"beat":88.5,"duration":0.06,"midi":42,"velocity":44,"voice":"hat","bar":22},{"beat":88.5,"duration":0.48,"midi":64,"velocity":62,"voice":"rhodes","bar":22},{"beat":88.5,"duration":0.16,"midi":45,"velocity":96,"voice":"tom","bar":22},{"beat":89,"duration":0.5,"midi":48,"velocity":102,"voice":"bass","bar":22},{"beat":89.0,"duration":0.06,"midi":42,"velocity":56,"voice":"hat","bar":22},{"beat":89.0,"duration":0.48,"midi":67,"velocity":74,"voice":"rhodes","bar":22},{"beat":89,"duration":0.2,"midi":38,"velocity":110,"voice":"snare","bar":22},{"beat":89,"duration":0.16,"midi":47,"velocity":96,"voice":"tom","bar":22},{"beat":89,"duration":1,"midi":48,"velocity":104,"voice":"voxM","bar":22,"vowel":"o"},{"beat":89.5,"duration":0.5,"midi":52,"velocity":102,"voice":"bass","bar":22},{"beat":89.5,"duration":0.06,"midi":42,"velocity":44,"voice":"hat","bar":22},{"beat":89.5,"duration":0.48,"midi":72,"velocity":62,"voice":"rhodes","bar":22},{"beat":89.5,"duration":0.16,"midi":50,"velocity":96,"voice":"tom","bar":22},{"beat":90,"duration":0.5,"midi":48,"velocity":102,"voice":"bass","bar":22},{"beat":90.0,"duration":0.06,"midi":42,"velocity":56,"voice":"hat","bar":22},{"beat":90,"duration":0.18,"midi":36,"velocity":116,"voice":"kick","bar":22},{"beat":90.0,"duration":0.48,"midi":67,"velocity":74,"voice":"rhodes","bar":22},{"beat":90,"duration":2,"midi":43,"velocity":104,"voice":"voxM","bar":22,"vowel":"u"},{"beat":90.5,"duration":0.5,"midi":43,"velocity":102,"voice":"bass","bar":22},{"beat":90.5,"duration":0.06,"midi":42,"velocity":44,"voice":"hat","bar":22},{"beat":90.5,"duration":0.48,"midi":64,"velocity":62,"voice":"rhodes","bar":22},{"beat":90.5,"duration":0.16,"midi":45,"velocity":96,"voice":"tom","bar":22},{"beat":91,"duration":1,"midi":52,"velocity":102,"voice":"bass","bar":22},{"beat":91.0,"duration":0.06,"midi":42,"velocity":56,"voice":"hat","bar":22},{"beat":91.0,"duration":0.48,"midi":60,"velocity":74,"voice":"rhodes","bar":22},{"beat":91,"duration":0.2,"midi":38,"velocity":110,"voice":"snare","bar":22},{"beat":91,"duration":0.16,"midi":47,"velocity":96,"voice":"tom","bar":22},{"beat":91.5,"duration":0.06,"midi":42,"velocity":44,"voice":"hat","bar":22},{"beat":91.5,"duration":0.48,"midi":64,"velocity":62,"voice":"rhodes","bar":22},{"beat":91.5,"duration":0.16,"midi":50,"velocity":96,"voice":"tom","bar":22},{"beat":92,"duration":1,"midi":38,"velocity":102,"voice":"bass","bar":23},{"beat":92.0,"duration":0.06,"midi":42,"velocity":56,"voice":"hat","bar":23},{"beat":92,"duration":0.18,"midi":36,"velocity":116,"voice":"kick","bar":23},{"beat":92,"duration":4,"midi":50,"velocity":56,"voice":"pad","bar":23},{"beat":92,"duration":4,"midi":53,"velocity":56,"voice":"pad","bar":23},{"beat":92,"duration":4,"midi":57,"velocity":56,"voice":"pad","bar":23},{"beat":92.0,"duration":0.48,"midi":50,"velocity":74,"voice":"rhodes","bar":23},{"beat":92,"duration":2,"midi":50,"velocity":104,"voice":"voxM","bar":23,"vowel":"o"},{"beat":92.5,"duration":0.06,"midi":42,"velocity":44,"voice":"hat","bar":23},{"beat":92.5,"duration":0.48,"midi":53,"velocity":62,"voice":"rhodes","bar":23},{"beat":92.5,"duration":0.16,"midi":45,"velocity":96,"voice":"tom","bar":23},{"beat":93,"duration":1,"midi":45,"velocity":102,"voice":"bass","bar":23},{"beat":93.0,"duration":0.06,"midi":42,"velocity":56,"voice":"hat","bar":23},{"beat":93.0,"duration":0.48,"midi":57,"velocity":74,"voice":"rhodes","bar":23},{"beat":93,"duration":0.2,"midi":38,"velocity":110,"voice":"snare","bar":23},{"beat":93,"duration":0.16,"midi":47,"velocity":96,"voice":"tom","bar":23},{"beat":93.5,"duration":0.06,"midi":42,"velocity":44,"voice":"hat","bar":23},{"beat":93.5,"duration":0.48,"midi":62,"velocity":62,"voice":"rhodes","bar":23},{"beat":93.5,"duration":0.16,"midi":50,"velocity":96,"voice":"tom","bar":23},{"beat":94,"duration":2,"midi":50,"velocity":102,"voice":"bass","bar":23},{"beat":94.0,"duration":0.06,"midi":42,"velocity":56,"voice":"hat","bar":23},{"beat":94,"duration":0.18,"midi":36,"velocity":116,"voice":"kick","bar":23},{"beat":94.0,"duration":0.48,"midi":57,"velocity":74,"voice":"rhodes","bar":23},{"beat":94,"duration":2,"midi":45,"velocity":104,"voice":"voxM","bar":23,"vowel":"a"},{"beat":94.5,"duration":0.06,"midi":42,"velocity":44,"voice":"hat","bar":23},{"beat":94.5,"duration":0.48,"midi":53,"velocity":62,"voice":"rhodes","bar":23},{"beat":94.5,"duration":0.16,"midi":45,"velocity":96,"voice":"tom","bar":23},{"beat":95.0,"duration":0.06,"midi":42,"velocity":56,"voice":"hat","bar":23},{"beat":95.0,"duration":0.48,"midi":50,"velocity":74,"voice":"rhodes","bar":23},{"beat":95,"duration":0.2,"midi":38,"velocity":110,"voice":"snare","bar":23},{"beat":95,"duration":0.16,"midi":47,"velocity":96,"voice":"tom","bar":23},{"beat":95.5,"duration":0.06,"midi":42,"velocity":44,"voice":"hat","bar":23},{"beat":95.5,"duration":0.48,"midi":53,"velocity":62,"voice":"rhodes","bar":23},{"beat":95.5,"duration":0.16,"midi":50,"velocity":96,"voice":"tom","bar":23},{"beat":96,"duration":1,"midi":41,"velocity":102,"voice":"bass","bar":24},{"beat":96.0,"duration":0.06,"midi":42,"velocity":56,"voice":"hat","bar":24},{"beat":96,"duration":0.18,"midi":36,"velocity":116,"voice":"kick","bar":24},{"beat":96,"duration":2,"midi":69,"velocity":96,"voice":"lead","bar":24},{"beat":96,"duration":4,"midi":53,"velocity":56,"voice":"pad","bar":24},{"beat":96,"duration":4,"midi":57,"velocity":56,"voice":"pad","bar":24},{"beat":96,"duration":4,"midi":60,"velocity":56,"voice":"pad","bar":24},{"beat":96.0,"duration":0.48,"midi":53,"velocity":74,"voice":"rhodes","bar":24},{"beat":96,"duration":2,"midi":69,"velocity":110,"voice":"voxF","bar":24,"vowel":"a"},{"beat":96.5,"duration":0.06,"midi":42,"velocity":44,"voice":"hat","bar":24},{"beat":96.5,"duration":0.48,"midi":57,"velocity":62,"voice":"rhodes","bar":24},{"beat":97,"duration":1,"midi":48,"velocity":102,"voice":"bass","bar":24},{"beat":97.0,"duration":0.06,"midi":42,"velocity":56,"voice":"hat","bar":24},{"beat":97,"duration":0.18,"midi":36,"velocity":104,"voice":"kick","bar":24},{"beat":97.0,"duration":0.48,"midi":60,"velocity":74,"voice":"rhodes","bar":24},{"beat":97,"duration":0.2,"midi":38,"velocity":110,"voice":"snare","bar":24},{"beat":97.5,"duration":0.06,"midi":42,"velocity":44,"voice":"hat","bar":24},{"beat":97.5,"duration":0.48,"midi":65,"velocity":62,"voice":"rhodes","bar":24},{"beat":98,"duration":2,"midi":45,"velocity":102,"voice":"bass","bar":24},{"beat":98.0,"duration":0.06,"midi":42,"velocity":56,"voice":"hat","bar":24},{"beat":98,"duration":0.18,"midi":36,"velocity":116,"voice":"kick","bar":24},{"beat":98,"duration":1,"midi":72,"velocity":96,"voice":"lead","bar":24},{"beat":98.0,"duration":0.48,"midi":60,"velocity":74,"voice":"rhodes","bar":24},{"beat":98,"duration":2,"midi":72,"velocity":110,"voice":"voxF","bar":24,"vowel":"o"},{"beat":98.5,"duration":0.06,"midi":42,"velocity":44,"voice":"hat","bar":24},{"beat":98.5,"duration":0.48,"midi":57,"velocity":62,"voice":"rhodes","bar":24},{"beat":99.0,"duration":0.06,"midi":42,"velocity":56,"voice":"hat","bar":24},{"beat":99,"duration":0.18,"midi":36,"velocity":104,"voice":"kick","bar":24},{"beat":99,"duration":1,"midi":69,"velocity":96,"voice":"lead","bar":24},{"beat":99.0,"duration":0.48,"midi":53,"velocity":74,"voice":"rhodes","bar":24},{"beat":99,"duration":0.2,"midi":38,"velocity":110,"voice":"snare","bar":24},{"beat":99.5,"duration":0.06,"midi":42,"velocity":44,"voice":"hat","bar":24},{"beat":99.5,"duration":0.48,"midi":57,"velocity":62,"voice":"rhodes","bar":24},{"beat":100,"duration":1,"midi":48,"velocity":102,"voice":"bass","bar":25},{"beat":100.0,"duration":0.06,"midi":42,"velocity":56,"voice":"hat","bar":25},{"beat":100,"duration":0.18,"midi":36,"velocity":116,"voice":"kick","bar":25},{"beat":100,"duration":1.5,"midi":67,"velocity":96,"voice":"lead","bar":25},{"beat":100,"duration":4,"midi":60,"velocity":56,"voice":"pad","bar":25},{"beat":100,"duration":4,"midi":64,"velocity":56,"voice":"pad","bar":25},{"beat":100,"duration":4,"midi":67,"velocity":56,"voice":"pad","bar":25},{"beat":100.0,"duration":0.48,"midi":60,"velocity":74,"voice":"rhodes","bar":25},{"beat":100,"duration":2,"midi":67,"velocity":110,"voice":"voxF","bar":25,"vowel":"e"},{"beat":100.5,"duration":0.06,"midi":42,"velocity":44,"voice":"hat","bar":25},{"beat":100.5,"duration":0.48,"midi":64,"velocity":62,"voice":"rhodes","bar":25},{"beat":101,"duration":1,"midi":43,"velocity":102,"voice":"bass","bar":25},{"beat":101.0,"duration":0.06,"midi":42,"velocity":56,"voice":"hat","bar":25},{"beat":101,"duration":0.18,"midi":36,"velocity":104,"voice":"kick","bar":25},{"beat":101.0,"duration":0.48,"midi":67,"velocity":74,"voice":"rhodes","bar":25},{"beat":101,"duration":0.2,"midi":38,"velocity":110,"voice":"snare","bar":25},{"beat":101.5,"duration":0.06,"midi":42,"velocity":44,"voice":"hat","bar":25},{"beat":101.5,"duration":0.5,"midi":69,"velocity":96,"voice":"lead","bar":25},{"beat":101.5,"duration":0.48,"midi":72,"velocity":62,"voice":"rhodes","bar":25},{"beat":102,"duration":2,"midi":52,"velocity":102,"voice":"bass","bar":25},{"beat":102.0,"duration":0.06,"midi":42,"velocity":56,"voice":"hat","bar":25},{"beat":102,"duration":0.18,"midi":36,"velocity":116,"voice":"kick","bar":25},{"beat":102,"duration":2,"midi":64,"velocity":96,"voice":"lead","bar":25},{"beat":102.0,"duration":0.48,"midi":67,"velocity":74,"voice":"rhodes","bar":25},{"beat":102,"duration":2,"midi":64,"velocity":110,"voice":"voxF","bar":25,"vowel":"a"},{"beat":102.5,"duration":0.06,"midi":42,"velocity":44,"voice":"hat","bar":25},{"beat":102.5,"duration":0.48,"midi":64,"velocity":62,"voice":"rhodes","bar":25},{"beat":103.0,"duration":0.06,"midi":42,"velocity":56,"voice":"hat","bar":25},{"beat":103,"duration":0.18,"midi":36,"velocity":104,"voice":"kick","bar":25},{"beat":103.0,"duration":0.48,"midi":60,"velocity":74,"voice":"rhodes","bar":25},{"beat":103,"duration":0.2,"midi":38,"velocity":110,"voice":"snare","bar":25},{"beat":103.5,"duration":0.06,"midi":42,"velocity":44,"voice":"hat","bar":25},{"beat":103.5,"duration":0.48,"midi":64,"velocity":62,"voice":"rhodes","bar":25},{"beat":104,"duration":1,"midi":38,"velocity":102,"voice":"bass","bar":26},{"beat":104.0,"duration":0.06,"midi":42,"velocity":56,"voice":"hat","bar":26},{"beat":104,"duration":0.18,"midi":36,"velocity":116,"voice":"kick","bar":26},{"beat":104,"duration":1,"midi":65,"velocity":96,"voice":"lead","bar":26},{"beat":104,"duration":4,"midi":50,"velocity":56,"voice":"pad","bar":26},{"beat":104,"duration":4,"midi":53,"velocity":56,"voice":"pad","bar":26},{"beat":104,"duration":4,"midi":57,"velocity":56,"voice":"pad","bar":26},{"beat":104.0,"duration":0.48,"midi":50,"velocity":74,"voice":"rhodes","bar":26},{"beat":104,"duration":2,"midi":65,"velocity":110,"voice":"voxF","bar":26,"vowel":"o"},{"beat":104.5,"duration":0.06,"midi":42,"velocity":44,"voice":"hat","bar":26},{"beat":104.5,"duration":0.48,"midi":53,"velocity":62,"voice":"rhodes","bar":26},{"beat":105,"duration":1,"midi":45,"velocity":102,"voice":"bass","bar":26},{"beat":105.0,"duration":0.06,"midi":42,"velocity":56,"voice":"hat","bar":26},{"beat":105,"duration":0.18,"midi":36,"velocity":104,"voice":"kick","bar":26},{"beat":105,"duration":1,"midi":69,"velocity":96,"voice":"lead","bar":26},{"beat":105.0,"duration":0.48,"midi":57,"velocity":74,"voice":"rhodes","bar":26},{"beat":105,"duration":0.2,"midi":38,"velocity":110,"voice":"snare","bar":26},{"beat":105.5,"duration":0.06,"midi":42,"velocity":44,"voice":"hat","bar":26},{"beat":105.5,"duration":0.48,"midi":62,"velocity":62,"voice":"rhodes","bar":26},{"beat":106,"duration":2,"midi":50,"velocity":102,"voice":"bass","bar":26},{"beat":106.0,"duration":0.06,"midi":42,"velocity":56,"voice":"hat","bar":26},{"beat":106,"duration":0.18,"midi":36,"velocity":116,"voice":"kick","bar":26},{"beat":106,"duration":1,"midi":74,"velocity":96,"voice":"lead","bar":26},{"beat":106.0,"duration":0.48,"midi":57,"velocity":74,"voice":"rhodes","bar":26},{"beat":106,"duration":2,"midi":69,"velocity":110,"voice":"voxF","bar":26,"vowel":"a"},{"beat":106.5,"duration":0.06,"midi":42,"velocity":44,"voice":"hat","bar":26},{"beat":106.5,"duration":0.48,"midi":53,"velocity":62,"voice":"rhodes","bar":26},{"beat":107.0,"duration":0.06,"midi":42,"velocity":56,"voice":"hat","bar":26},{"beat":107,"duration":0.18,"midi":36,"velocity":104,"voice":"kick","bar":26},{"beat":107,"duration":1,"midi":69,"velocity":96,"voice":"lead","bar":26},{"beat":107.0,"duration":0.48,"midi":50,"velocity":74,"voice":"rhodes","bar":26},{"beat":107,"duration":0.2,"midi":38,"velocity":110,"voice":"snare","bar":26},{"beat":107.5,"duration":0.06,"midi":42,"velocity":44,"voice":"hat","bar":26},{"beat":107.5,"duration":0.48,"midi":53,"velocity":62,"voice":"rhodes","bar":26},{"beat":108,"duration":1,"midi":46,"velocity":102,"voice":"bass","bar":27},{"beat":108.0,"duration":0.06,"midi":42,"velocity":56,"voice":"hat","bar":27},{"beat":108,"duration":0.18,"midi":36,"velocity":116,"voice":"kick","bar":27},{"beat":108,"duration":2,"midi":74,"velocity":96,"voice":"lead","bar":27},{"beat":108,"duration":4,"midi":58,"velocity":56,"voice":"pad","bar":27},{"beat":108,"duration":4,"midi":62,"velocity":56,"voice":"pad","bar":27},{"beat":108,"duration":4,"midi":65,"velocity":56,"voice":"pad","bar":27},{"beat":108.0,"duration":0.48,"midi":58,"velocity":74,"voice":"rhodes","bar":27},{"beat":108,"duration":2,"midi":74,"velocity":110,"voice":"voxF","bar":27,"vowel":"a"},{"beat":108.5,"duration":0.06,"midi":42,"velocity":44,"voice":"hat","bar":27},{"beat":108.5,"duration":0.48,"midi":62,"velocity":62,"voice":"rhodes","bar":27},{"beat":109,"duration":1,"midi":41,"velocity":102,"voice":"bass","bar":27},{"beat":109.0,"duration":0.06,"midi":42,"velocity":56,"voice":"hat","bar":27},{"beat":109,"duration":0.18,"midi":36,"velocity":104,"voice":"kick","bar":27},{"beat":109.0,"duration":0.48,"midi":65,"velocity":74,"voice":"rhodes","bar":27},{"beat":109,"duration":0.2,"midi":38,"velocity":110,"voice":"snare","bar":27},{"beat":109.5,"duration":0.06,"midi":42,"velocity":44,"voice":"hat","bar":27},{"beat":109.5,"duration":0.48,"midi":70,"velocity":62,"voice":"rhodes","bar":27},{"beat":110,"duration":2,"midi":50,"velocity":102,"voice":"bass","bar":27},{"beat":110.0,"duration":0.06,"midi":42,"velocity":56,"voice":"hat","bar":27},{"beat":110,"duration":0.18,"midi":36,"velocity":116,"voice":"kick","bar":27},{"beat":110,"duration":1,"midi":72,"velocity":96,"voice":"lead","bar":27},{"beat":110.0,"duration":0.48,"midi":65,"velocity":74,"voice":"rhodes","bar":27},{"beat":110,"duration":2,"midi":74,"velocity":110,"voice":"voxF","bar":27,"vowel":"o"},{"beat":110.5,"duration":0.06,"midi":42,"velocity":44,"voice":"hat","bar":27},{"beat":110.5,"duration":0.48,"midi":62,"velocity":62,"voice":"rhodes","bar":27},{"beat":111.0,"duration":0.06,"midi":42,"velocity":56,"voice":"hat","bar":27},{"beat":111,"duration":0.18,"midi":36,"velocity":104,"voice":"kick","bar":27},{"beat":111,"duration":1,"midi":69,"velocity":96,"voice":"lead","bar":27},{"beat":111.0,"duration":0.48,"midi":58,"velocity":74,"voice":"rhodes","bar":27},{"beat":111,"duration":0.2,"midi":38,"velocity":110,"voice":"snare","bar":27},{"beat":111.5,"duration":0.06,"midi":42,"velocity":44,"voice":"hat","bar":27},{"beat":111.5,"duration":0.48,"midi":62,"velocity":62,"voice":"rhodes","bar":27},{"beat":112,"duration":0.5,"midi":41,"velocity":102,"voice":"bass","bar":28},{"beat":112.0,"duration":0.06,"midi":42,"velocity":56,"voice":"hat","bar":28},{"beat":112,"duration":0.18,"midi":36,"velocity":116,"voice":"kick","bar":28},{"beat":112,"duration":1,"midi":72,"velocity":96,"voice":"lead","bar":28},{"beat":112,"duration":4,"midi":53,"velocity":56,"voice":"pad","bar":28},{"beat":112,"duration":4,"midi":57,"velocity":56,"voice":"pad","bar":28},{"beat":112,"duration":4,"midi":60,"velocity":56,"voice":"pad","bar":28},{"beat":112.0,"duration":0.48,"midi":53,"velocity":74,"voice":"rhodes","bar":28},{"beat":112,"duration":2,"midi":72,"velocity":110,"voice":"voxF","bar":28,"vowel":"e"},{"beat":112.5,"duration":0.5,"midi":45,"velocity":102,"voice":"bass","bar":28},{"beat":112.5,"duration":0.06,"midi":42,"velocity":44,"voice":"hat","bar":28},{"beat":112.5,"duration":0.48,"midi":57,"velocity":62,"voice":"rhodes","bar":28},{"beat":113,"duration":1,"midi":48,"velocity":102,"voice":"bass","bar":28},{"beat":113.0,"duration":0.06,"midi":42,"velocity":56,"voice":"hat","bar":28},{"beat":113,"duration":0.18,"midi":36,"velocity":104,"voice":"kick","bar":28},{"beat":113,"duration":1,"midi":69,"velocity":96,"voice":"lead","bar":28},{"beat":113.0,"duration":0.48,"midi":60,"velocity":74,"voice":"rhodes","bar":28},{"beat":113,"duration":0.2,"midi":38,"velocity":110,"voice":"snare","bar":28},{"beat":113.5,"duration":0.06,"midi":42,"velocity":44,"voice":"hat","bar":28},{"beat":113.5,"duration":0.48,"midi":65,"velocity":62,"voice":"rhodes","bar":28},{"beat":114,"duration":2,"midi":45,"velocity":102,"voice":"bass","bar":28},{"beat":114.0,"duration":0.06,"midi":42,"velocity":56,"voice":"hat","bar":28},{"beat":114,"duration":0.18,"midi":36,"velocity":116,"voice":"kick","bar":28},{"beat":114,"duration":2,"midi":65,"velocity":96,"voice":"lead","bar":28},{"beat":114.0,"duration":0.48,"midi":60,"velocity":74,"voice":"rhodes","bar":28},{"beat":114,"duration":2,"midi":69,"velocity":110,"voice":"voxF","bar":28,"vowel":"a"},{"beat":114.5,"duration":0.06,"midi":42,"velocity":44,"voice":"hat","bar":28},{"beat":114.5,"duration":0.48,"midi":57,"velocity":62,"voice":"rhodes","bar":28},{"beat":115.0,"duration":0.06,"midi":42,"velocity":56,"voice":"hat","bar":28},{"beat":115,"duration":0.18,"midi":36,"velocity":104,"voice":"kick","bar":28},{"beat":115.0,"duration":0.48,"midi":53,"velocity":74,"voice":"rhodes","bar":28},{"beat":115,"duration":0.2,"midi":38,"velocity":110,"voice":"snare","bar":28},{"beat":115.5,"duration":0.06,"midi":42,"velocity":44,"voice":"hat","bar":28},{"beat":115.5,"duration":0.48,"midi":57,"velocity":62,"voice":"rhodes","bar":28},{"beat":116,"duration":1,"midi":48,"velocity":102,"voice":"bass","bar":29},{"beat":116.0,"duration":0.06,"midi":42,"velocity":56,"voice":"hat","bar":29},{"beat":116,"duration":0.18,"midi":36,"velocity":116,"voice":"kick","bar":29},{"beat":116,"duration":1,"midi":64,"velocity":96,"voice":"lead","bar":29},{"beat":116,"duration":4,"midi":60,"velocity":56,"voice":"pad","bar":29},{"beat":116,"duration":4,"midi":64,"velocity":56,"voice":"pad","bar":29},{"beat":116,"duration":4,"midi":67,"velocity":56,"voice":"pad","bar":29},{"beat":116.0,"duration":0.48,"midi":60,"velocity":74,"voice":"rhodes","bar":29},{"beat":116,"duration":2,"midi":64,"velocity":110,"voice":"voxF","bar":29,"vowel":"o"},{"beat":116.5,"duration":0.06,"midi":42,"velocity":44,"voice":"hat","bar":29},{"beat":116.5,"duration":0.48,"midi":64,"velocity":62,"voice":"rhodes","bar":29},{"beat":117,"duration":1,"midi":52,"velocity":102,"voice":"bass","bar":29},{"beat":117.0,"duration":0.06,"midi":42,"velocity":56,"voice":"hat","bar":29},{"beat":117,"duration":0.18,"midi":36,"velocity":104,"voice":"kick","bar":29},{"beat":117,"duration":1,"midi":67,"velocity":96,"voice":"lead","bar":29},{"beat":117.0,"duration":0.48,"midi":67,"velocity":74,"voice":"rhodes","bar":29},{"beat":117,"duration":0.2,"midi":38,"velocity":110,"voice":"snare","bar":29},{"beat":117.5,"duration":0.06,"midi":42,"velocity":44,"voice":"hat","bar":29},{"beat":117.5,"duration":0.48,"midi":72,"velocity":62,"voice":"rhodes","bar":29},{"beat":118,"duration":2,"midi":43,"velocity":102,"voice":"bass","bar":29},{"beat":118.0,"duration":0.06,"midi":42,"velocity":56,"voice":"hat","bar":29},{"beat":118,"duration":0.18,"midi":36,"velocity":116,"voice":"kick","bar":29},{"beat":118,"duration":2,"midi":72,"velocity":96,"voice":"lead","bar":29},{"beat":118.0,"duration":0.48,"midi":67,"velocity":74,"voice":"rhodes","bar":29},{"beat":118,"duration":2,"midi":67,"velocity":110,"voice":"voxF","bar":29,"vowel":"a"},{"beat":118.5,"duration":0.06,"midi":42,"velocity":44,"voice":"hat","bar":29},{"beat":118.5,"duration":0.48,"midi":64,"velocity":62,"voice":"rhodes","bar":29},{"beat":119.0,"duration":0.06,"midi":42,"velocity":56,"voice":"hat","bar":29},{"beat":119,"duration":0.18,"midi":36,"velocity":104,"voice":"kick","bar":29},{"beat":119.0,"duration":0.48,"midi":60,"velocity":74,"voice":"rhodes","bar":29},{"beat":119,"duration":0.2,"midi":38,"velocity":110,"voice":"snare","bar":29},{"beat":119.5,"duration":0.06,"midi":42,"velocity":44,"voice":"hat","bar":29},{"beat":119.5,"duration":0.48,"midi":64,"velocity":62,"voice":"rhodes","bar":29},{"beat":120,"duration":1,"midi":43,"velocity":102,"voice":"bass","bar":30},{"beat":120.0,"duration":0.06,"midi":42,"velocity":56,"voice":"hat","bar":30},{"beat":120,"duration":0.18,"midi":36,"velocity":116,"voice":"kick","bar":30},{"beat":120,"duration":1,"midi":74,"velocity":96,"voice":"lead","bar":30},{"beat":120,"duration":4,"midi":55,"velocity":56,"voice":"pad","bar":30},{"beat":120,"duration":4,"midi":59,"velocity":56,"voice":"pad","bar":30},{"beat":120,"duration":4,"midi":62,"velocity":56,"voice":"pad","bar":30},{"beat":120.0,"duration":0.48,"midi":55,"velocity":74,"voice":"rhodes","bar":30},{"beat":120,"duration":2,"midi":74,"velocity":110,"voice":"voxF","bar":30,"vowel":"a"},{"beat":120.5,"duration":0.06,"midi":42,"velocity":44,"voice":"hat","bar":30},{"beat":120.5,"duration":0.48,"midi":59,"velocity":62,"voice":"rhodes","bar":30},{"beat":121,"duration":1,"midi":50,"velocity":102,"voice":"bass","bar":30},{"beat":121.0,"duration":0.06,"midi":42,"velocity":56,"voice":"hat","bar":30},{"beat":121,"duration":0.18,"midi":36,"velocity":104,"voice":"kick","bar":30},{"beat":121,"duration":0.5,"midi":71,"velocity":96,"voice":"lead","bar":30},{"beat":121.0,"duration":0.48,"midi":62,"velocity":74,"voice":"rhodes","bar":30},{"beat":121,"duration":0.2,"midi":38,"velocity":110,"voice":"snare","bar":30},{"beat":121.5,"duration":0.06,"midi":42,"velocity":44,"voice":"hat","bar":30},{"beat":121.5,"duration":0.5,"midi":74,"velocity":96,"voice":"lead","bar":30},{"beat":121.5,"duration":0.48,"midi":67,"velocity":62,"voice":"rhodes","bar":30},{"beat":122,"duration":2,"midi":47,"velocity":102,"voice":"bass","bar":30},{"beat":122.0,"duration":0.06,"midi":42,"velocity":56,"voice":"hat","bar":30},{"beat":122,"duration":0.18,"midi":36,"velocity":116,"voice":"kick","bar":30},{"beat":122,"duration":2,"midi":71,"velocity":96,"voice":"lead","bar":30},{"beat":122.0,"duration":0.48,"midi":62,"velocity":74,"voice":"rhodes","bar":30},{"beat":122,"duration":2,"midi":71,"velocity":110,"voice":"voxF","bar":30,"vowel":"o"},{"beat":122.5,"duration":0.06,"midi":42,"velocity":44,"voice":"hat","bar":30},{"beat":122.5,"duration":0.48,"midi":59,"velocity":62,"voice":"rhodes","bar":30},{"beat":123.0,"duration":0.06,"midi":42,"velocity":56,"voice":"hat","bar":30},{"beat":123,"duration":0.18,"midi":36,"velocity":104,"voice":"kick","bar":30},{"beat":123.0,"duration":0.48,"midi":55,"velocity":74,"voice":"rhodes","bar":30},{"beat":123,"duration":0.2,"midi":38,"velocity":110,"voice":"snare","bar":30},{"beat":123.5,"duration":0.06,"midi":42,"velocity":44,"voice":"hat","bar":30},{"beat":123.5,"duration":0.48,"midi":59,"velocity":62,"voice":"rhodes","bar":30},{"beat":124,"duration":1,"midi":45,"velocity":102,"voice":"bass","bar":31},{"beat":124.0,"duration":0.06,"midi":42,"velocity":56,"voice":"hat","bar":31},{"beat":124,"duration":0.18,"midi":36,"velocity":116,"voice":"kick","bar":31},{"beat":124,"duration":2,"midi":73,"velocity":96,"voice":"lead","bar":31},{"beat":124,"duration":4,"midi":57,"velocity":56,"voice":"pad","bar":31},{"beat":124,"duration":4,"midi":61,"velocity":56,"voice":"pad","bar":31},{"beat":124,"duration":4,"midi":64,"velocity":56,"voice":"pad","bar":31},{"beat":124.0,"duration":0.48,"midi":57,"velocity":74,"voice":"rhodes","bar":31},{"beat":124,"duration":4,"midi":69,"velocity":110,"voice":"voxF","bar":31,"vowel":"a"},{"beat":124.5,"duration":0.06,"midi":42,"velocity":44,"voice":"hat","bar":31},{"beat":124.5,"duration":0.48,"midi":61,"velocity":62,"voice":"rhodes","bar":31},{"beat":125,"duration":1,"midi":52,"velocity":102,"voice":"bass","bar":31},{"beat":125.0,"duration":0.06,"midi":42,"velocity":56,"voice":"hat","bar":31},{"beat":125,"duration":0.18,"midi":36,"velocity":104,"voice":"kick","bar":31},{"beat":125.0,"duration":0.48,"midi":64,"velocity":74,"voice":"rhodes","bar":31},{"beat":125,"duration":0.2,"midi":38,"velocity":110,"voice":"snare","bar":31},{"beat":125.5,"duration":0.06,"midi":42,"velocity":44,"voice":"hat","bar":31},{"beat":125.5,"duration":0.48,"midi":69,"velocity":62,"voice":"rhodes","bar":31},{"beat":126,"duration":2,"midi":49,"velocity":102,"voice":"bass","bar":31},{"beat":126.0,"duration":0.06,"midi":42,"velocity":56,"voice":"hat","bar":31},{"beat":126,"duration":0.18,"midi":36,"velocity":116,"voice":"kick","bar":31},{"beat":126,"duration":2,"midi":69,"velocity":96,"voice":"lead","bar":31},{"beat":126.0,"duration":0.48,"midi":64,"velocity":74,"voice":"rhodes","bar":31},{"beat":126.5,"duration":0.06,"midi":42,"velocity":44,"voice":"hat","bar":31},{"beat":126.5,"duration":0.48,"midi":61,"velocity":62,"voice":"rhodes","bar":31},{"beat":127.0,"duration":0.06,"midi":42,"velocity":56,"voice":"hat","bar":31},{"beat":127,"duration":0.18,"midi":36,"velocity":104,"voice":"kick","bar":31},{"beat":127.0,"duration":0.48,"midi":57,"velocity":74,"voice":"rhodes","bar":31},{"beat":127,"duration":0.2,"midi":38,"velocity":110,"voice":"snare","bar":31},{"beat":127.5,"duration":0.06,"midi":42,"velocity":44,"voice":"hat","bar":31},{"beat":127.5,"duration":0.48,"midi":61,"velocity":62,"voice":"rhodes","bar":31},{"beat":128,"duration":1,"midi":41,"velocity":102,"voice":"bass","bar":32},{"beat":128.0,"duration":0.06,"midi":42,"velocity":56,"voice":"hat","bar":32},{"beat":128,"duration":0.18,"midi":36,"velocity":116,"voice":"kick","bar":32},{"beat":128,"duration":2,"midi":69,"velocity":96,"voice":"lead","bar":32},{"beat":128,"duration":4,"midi":53,"velocity":56,"voice":"pad","bar":32},{"beat":128,"duration":4,"midi":57,"velocity":56,"voice":"pad","bar":32},{"beat":128,"duration":4,"midi":60,"velocity":56,"voice":"pad","bar":32},{"beat":128.0,"duration":0.48,"midi":53,"velocity":74,"voice":"rhodes","bar":32},{"beat":128,"duration":2,"midi":69,"velocity":110,"voice":"voxF","bar":32,"vowel":"a"},{"beat":128.5,"duration":0.06,"midi":42,"velocity":44,"voice":"hat","bar":32},{"beat":128.5,"duration":0.48,"midi":57,"velocity":62,"voice":"rhodes","bar":32},{"beat":129,"duration":1,"midi":48,"velocity":102,"voice":"bass","bar":32},{"beat":129.0,"duration":0.06,"midi":42,"velocity":56,"voice":"hat","bar":32},{"beat":129,"duration":0.18,"midi":36,"velocity":104,"voice":"kick","bar":32},{"beat":129.0,"duration":0.48,"midi":60,"velocity":74,"voice":"rhodes","bar":32},{"beat":129,"duration":0.2,"midi":38,"velocity":110,"voice":"snare","bar":32},{"beat":129.5,"duration":0.06,"midi":42,"velocity":44,"voice":"hat","bar":32},{"beat":129.5,"duration":0.48,"midi":65,"velocity":62,"voice":"rhodes","bar":32},{"beat":130,"duration":2,"midi":45,"velocity":102,"voice":"bass","bar":32},{"beat":130.0,"duration":0.06,"midi":42,"velocity":56,"voice":"hat","bar":32},{"beat":130,"duration":0.18,"midi":36,"velocity":116,"voice":"kick","bar":32},{"beat":130,"duration":1,"midi":72,"velocity":96,"voice":"lead","bar":32},{"beat":130.0,"duration":0.48,"midi":60,"velocity":74,"voice":"rhodes","bar":32},{"beat":130,"duration":2,"midi":72,"velocity":110,"voice":"voxF","bar":32,"vowel":"o"},{"beat":130.5,"duration":0.06,"midi":42,"velocity":44,"voice":"hat","bar":32},{"beat":130.5,"duration":0.48,"midi":57,"velocity":62,"voice":"rhodes","bar":32},{"beat":131.0,"duration":0.06,"midi":42,"velocity":56,"voice":"hat","bar":32},{"beat":131,"duration":0.18,"midi":36,"velocity":104,"voice":"kick","bar":32},{"beat":131,"duration":1,"midi":69,"velocity":96,"voice":"lead","bar":32},{"beat":131.0,"duration":0.48,"midi":53,"velocity":74,"voice":"rhodes","bar":32},{"beat":131,"duration":0.2,"midi":38,"velocity":110,"voice":"snare","bar":32},{"beat":131.5,"duration":0.06,"midi":42,"velocity":44,"voice":"hat","bar":32},{"beat":131.5,"duration":0.48,"midi":57,"velocity":62,"voice":"rhodes","bar":32},{"beat":132,"duration":1,"midi":48,"velocity":102,"voice":"bass","bar":33},{"beat":132.0,"duration":0.06,"midi":42,"velocity":56,"voice":"hat","bar":33},{"beat":132,"duration":0.18,"midi":36,"velocity":116,"voice":"kick","bar":33},{"beat":132,"duration":1.5,"midi":67,"velocity":96,"voice":"lead","bar":33},{"beat":132,"duration":4,"midi":60,"velocity":56,"voice":"pad","bar":33},{"beat":132,"duration":4,"midi":64,"velocity":56,"voice":"pad","bar":33},{"beat":132,"duration":4,"midi":67,"velocity":56,"voice":"pad","bar":33},{"beat":132.0,"duration":0.48,"midi":60,"velocity":74,"voice":"rhodes","bar":33},{"beat":132,"duration":2,"midi":67,"velocity":110,"voice":"voxF","bar":33,"vowel":"e"},{"beat":132.5,"duration":0.06,"midi":42,"velocity":44,"voice":"hat","bar":33},{"beat":132.5,"duration":0.48,"midi":64,"velocity":62,"voice":"rhodes","bar":33},{"beat":133,"duration":1,"midi":43,"velocity":102,"voice":"bass","bar":33},{"beat":133.0,"duration":0.06,"midi":42,"velocity":56,"voice":"hat","bar":33},{"beat":133,"duration":0.18,"midi":36,"velocity":104,"voice":"kick","bar":33},{"beat":133.0,"duration":0.48,"midi":67,"velocity":74,"voice":"rhodes","bar":33},{"beat":133,"duration":0.2,"midi":38,"velocity":110,"voice":"snare","bar":33},{"beat":133.5,"duration":0.06,"midi":42,"velocity":44,"voice":"hat","bar":33},{"beat":133.5,"duration":0.5,"midi":69,"velocity":96,"voice":"lead","bar":33},{"beat":133.5,"duration":0.48,"midi":72,"velocity":62,"voice":"rhodes","bar":33},{"beat":134,"duration":2,"midi":52,"velocity":102,"voice":"bass","bar":33},{"beat":134.0,"duration":0.06,"midi":42,"velocity":56,"voice":"hat","bar":33},{"beat":134,"duration":0.18,"midi":36,"velocity":116,"voice":"kick","bar":33},{"beat":134,"duration":2,"midi":64,"velocity":96,"voice":"lead","bar":33},{"beat":134.0,"duration":0.48,"midi":67,"velocity":74,"voice":"rhodes","bar":33},{"beat":134,"duration":2,"midi":64,"velocity":110,"voice":"voxF","bar":33,"vowel":"a"},{"beat":134.5,"duration":0.06,"midi":42,"velocity":44,"voice":"hat","bar":33},{"beat":134.5,"duration":0.48,"midi":64,"velocity":62,"voice":"rhodes","bar":33},{"beat":135.0,"duration":0.06,"midi":42,"velocity":56,"voice":"hat","bar":33},{"beat":135,"duration":0.18,"midi":36,"velocity":104,"voice":"kick","bar":33},{"beat":135.0,"duration":0.48,"midi":60,"velocity":74,"voice":"rhodes","bar":33},{"beat":135,"duration":0.2,"midi":38,"velocity":110,"voice":"snare","bar":33},{"beat":135.5,"duration":0.06,"midi":42,"velocity":44,"voice":"hat","bar":33},{"beat":135.5,"duration":0.48,"midi":64,"velocity":62,"voice":"rhodes","bar":33},{"beat":136,"duration":1,"midi":38,"velocity":102,"voice":"bass","bar":34},{"beat":136.0,"duration":0.06,"midi":42,"velocity":56,"voice":"hat","bar":34},{"beat":136,"duration":0.18,"midi":36,"velocity":116,"voice":"kick","bar":34},{"beat":136,"duration":1,"midi":65,"velocity":96,"voice":"lead","bar":34},{"beat":136,"duration":4,"midi":50,"velocity":56,"voice":"pad","bar":34},{"beat":136,"duration":4,"midi":53,"velocity":56,"voice":"pad","bar":34},{"beat":136,"duration":4,"midi":57,"velocity":56,"voice":"pad","bar":34},{"beat":136.0,"duration":0.48,"midi":50,"velocity":74,"voice":"rhodes","bar":34},{"beat":136,"duration":2,"midi":65,"velocity":110,"voice":"voxF","bar":34,"vowel":"o"},{"beat":136.5,"duration":0.06,"midi":42,"velocity":44,"voice":"hat","bar":34},{"beat":136.5,"duration":0.48,"midi":53,"velocity":62,"voice":"rhodes","bar":34},{"beat":137,"duration":1,"midi":45,"velocity":102,"voice":"bass","bar":34},{"beat":137.0,"duration":0.06,"midi":42,"velocity":56,"voice":"hat","bar":34},{"beat":137,"duration":0.18,"midi":36,"velocity":104,"voice":"kick","bar":34},{"beat":137,"duration":1,"midi":69,"velocity":96,"voice":"lead","bar":34},{"beat":137.0,"duration":0.48,"midi":57,"velocity":74,"voice":"rhodes","bar":34},{"beat":137,"duration":0.2,"midi":38,"velocity":110,"voice":"snare","bar":34},{"beat":137.5,"duration":0.06,"midi":42,"velocity":44,"voice":"hat","bar":34},{"beat":137.5,"duration":0.48,"midi":62,"velocity":62,"voice":"rhodes","bar":34},{"beat":138,"duration":2,"midi":50,"velocity":102,"voice":"bass","bar":34},{"beat":138.0,"duration":0.06,"midi":42,"velocity":56,"voice":"hat","bar":34},{"beat":138,"duration":0.18,"midi":36,"velocity":116,"voice":"kick","bar":34},{"beat":138,"duration":1,"midi":74,"velocity":96,"voice":"lead","bar":34},{"beat":138.0,"duration":0.48,"midi":57,"velocity":74,"voice":"rhodes","bar":34},{"beat":138,"duration":2,"midi":69,"velocity":110,"voice":"voxF","bar":34,"vowel":"a"},{"beat":138.5,"duration":0.06,"midi":42,"velocity":44,"voice":"hat","bar":34},{"beat":138.5,"duration":0.48,"midi":53,"velocity":62,"voice":"rhodes","bar":34},{"beat":139.0,"duration":0.06,"midi":42,"velocity":56,"voice":"hat","bar":34},{"beat":139,"duration":0.18,"midi":36,"velocity":104,"voice":"kick","bar":34},{"beat":139,"duration":1,"midi":69,"velocity":96,"voice":"lead","bar":34},{"beat":139.0,"duration":0.48,"midi":50,"velocity":74,"voice":"rhodes","bar":34},{"beat":139,"duration":0.2,"midi":38,"velocity":110,"voice":"snare","bar":34},{"beat":139.5,"duration":0.06,"midi":42,"velocity":44,"voice":"hat","bar":34},{"beat":139.5,"duration":0.48,"midi":53,"velocity":62,"voice":"rhodes","bar":34},{"beat":140,"duration":1,"midi":46,"velocity":102,"voice":"bass","bar":35},{"beat":140.0,"duration":0.06,"midi":42,"velocity":56,"voice":"hat","bar":35},{"beat":140,"duration":0.18,"midi":36,"velocity":116,"voice":"kick","bar":35},{"beat":140,"duration":2,"midi":74,"velocity":96,"voice":"lead","bar":35},{"beat":140,"duration":4,"midi":58,"velocity":56,"voice":"pad","bar":35},{"beat":140,"duration":4,"midi":62,"velocity":56,"voice":"pad","bar":35},{"beat":140,"duration":4,"midi":65,"velocity":56,"voice":"pad","bar":35},{"beat":140.0,"duration":0.48,"midi":58,"velocity":74,"voice":"rhodes","bar":35},{"beat":140,"duration":2,"midi":74,"velocity":110,"voice":"voxF","bar":35,"vowel":"a"},{"beat":140.5,"duration":0.06,"midi":42,"velocity":44,"voice":"hat","bar":35},{"beat":140.5,"duration":0.48,"midi":62,"velocity":62,"voice":"rhodes","bar":35},{"beat":141,"duration":1,"midi":41,"velocity":102,"voice":"bass","bar":35},{"beat":141.0,"duration":0.06,"midi":42,"velocity":56,"voice":"hat","bar":35},{"beat":141,"duration":0.18,"midi":36,"velocity":104,"voice":"kick","bar":35},{"beat":141.0,"duration":0.48,"midi":65,"velocity":74,"voice":"rhodes","bar":35},{"beat":141,"duration":0.2,"midi":38,"velocity":110,"voice":"snare","bar":35},{"beat":141.5,"duration":0.06,"midi":42,"velocity":44,"voice":"hat","bar":35},{"beat":141.5,"duration":0.48,"midi":70,"velocity":62,"voice":"rhodes","bar":35},{"beat":142,"duration":2,"midi":50,"velocity":102,"voice":"bass","bar":35},{"beat":142.0,"duration":0.06,"midi":42,"velocity":56,"voice":"hat","bar":35},{"beat":142,"duration":0.18,"midi":36,"velocity":116,"voice":"kick","bar":35},{"beat":142,"duration":1,"midi":72,"velocity":96,"voice":"lead","bar":35},{"beat":142.0,"duration":0.48,"midi":65,"velocity":74,"voice":"rhodes","bar":35},{"beat":142,"duration":2,"midi":74,"velocity":110,"voice":"voxF","bar":35,"vowel":"o"},{"beat":142.5,"duration":0.06,"midi":42,"velocity":44,"voice":"hat","bar":35},{"beat":142.5,"duration":0.48,"midi":62,"velocity":62,"voice":"rhodes","bar":35},{"beat":143.0,"duration":0.06,"midi":42,"velocity":56,"voice":"hat","bar":35},{"beat":143,"duration":0.18,"midi":36,"velocity":104,"voice":"kick","bar":35},{"beat":143,"duration":1,"midi":69,"velocity":96,"voice":"lead","bar":35},{"beat":143.0,"duration":0.48,"midi":58,"velocity":74,"voice":"rhodes","bar":35},{"beat":143,"duration":0.2,"midi":38,"velocity":110,"voice":"snare","bar":35},{"beat":143.5,"duration":0.06,"midi":42,"velocity":44,"voice":"hat","bar":35},{"beat":143.5,"duration":0.48,"midi":62,"velocity":62,"voice":"rhodes","bar":35},{"beat":144,"duration":0.5,"midi":41,"velocity":102,"voice":"bass","bar":36},{"beat":144.0,"duration":0.06,"midi":42,"velocity":56,"voice":"hat","bar":36},{"beat":144,"duration":0.18,"midi":36,"velocity":116,"voice":"kick","bar":36},{"beat":144,"duration":1,"midi":72,"velocity":96,"voice":"lead","bar":36},{"beat":144,"duration":4,"midi":53,"velocity":56,"voice":"pad","bar":36},{"beat":144,"duration":4,"midi":57,"velocity":56,"voice":"pad","bar":36},{"beat":144,"duration":4,"midi":60,"velocity":56,"voice":"pad","bar":36},{"beat":144.0,"duration":0.48,"midi":53,"velocity":74,"voice":"rhodes","bar":36},{"beat":144,"duration":2,"midi":72,"velocity":110,"voice":"voxF","bar":36,"vowel":"e"},{"beat":144.5,"duration":0.5,"midi":45,"velocity":102,"voice":"bass","bar":36},{"beat":144.5,"duration":0.06,"midi":42,"velocity":44,"voice":"hat","bar":36},{"beat":144.5,"duration":0.48,"midi":57,"velocity":62,"voice":"rhodes","bar":36},{"beat":145,"duration":1,"midi":48,"velocity":102,"voice":"bass","bar":36},{"beat":145.0,"duration":0.06,"midi":42,"velocity":56,"voice":"hat","bar":36},{"beat":145,"duration":0.18,"midi":36,"velocity":104,"voice":"kick","bar":36},{"beat":145,"duration":1,"midi":69,"velocity":96,"voice":"lead","bar":36},{"beat":145.0,"duration":0.48,"midi":60,"velocity":74,"voice":"rhodes","bar":36},{"beat":145,"duration":0.2,"midi":38,"velocity":110,"voice":"snare","bar":36},{"beat":145.5,"duration":0.06,"midi":42,"velocity":44,"voice":"hat","bar":36},{"beat":145.5,"duration":0.48,"midi":65,"velocity":62,"voice":"rhodes","bar":36},{"beat":146,"duration":2,"midi":45,"velocity":102,"voice":"bass","bar":36},{"beat":146.0,"duration":0.06,"midi":42,"velocity":56,"voice":"hat","bar":36},{"beat":146,"duration":0.18,"midi":36,"velocity":116,"voice":"kick","bar":36},{"beat":146,"duration":2,"midi":65,"velocity":96,"voice":"lead","bar":36},{"beat":146.0,"duration":0.48,"midi":60,"velocity":74,"voice":"rhodes","bar":36},{"beat":146,"duration":2,"midi":69,"velocity":110,"voice":"voxF","bar":36,"vowel":"a"},{"beat":146.5,"duration":0.06,"midi":42,"velocity":44,"voice":"hat","bar":36},{"beat":146.5,"duration":0.48,"midi":57,"velocity":62,"voice":"rhodes","bar":36},{"beat":147.0,"duration":0.06,"midi":42,"velocity":56,"voice":"hat","bar":36},{"beat":147,"duration":0.18,"midi":36,"velocity":104,"voice":"kick","bar":36},{"beat":147.0,"duration":0.48,"midi":53,"velocity":74,"voice":"rhodes","bar":36},{"beat":147,"duration":0.2,"midi":38,"velocity":110,"voice":"snare","bar":36},{"beat":147.5,"duration":0.06,"midi":42,"velocity":44,"voice":"hat","bar":36},{"beat":147.5,"duration":0.48,"midi":57,"velocity":62,"voice":"rhodes","bar":36},{"beat":148,"duration":1,"midi":48,"velocity":102,"voice":"bass","bar":37},{"beat":148.0,"duration":0.06,"midi":42,"velocity":56,"voice":"hat","bar":37},{"beat":148,"duration":0.18,"midi":36,"velocity":116,"voice":"kick","bar":37},{"beat":148,"duration":1,"midi":64,"velocity":96,"voice":"lead","bar":37},{"beat":148,"duration":4,"midi":60,"velocity":56,"voice":"pad","bar":37},{"beat":148,"duration":4,"midi":64,"velocity":56,"voice":"pad","bar":37},{"beat":148,"duration":4,"midi":67,"velocity":56,"voice":"pad","bar":37},{"beat":148.0,"duration":0.48,"midi":60,"velocity":74,"voice":"rhodes","bar":37},{"beat":148,"duration":2,"midi":64,"velocity":110,"voice":"voxF","bar":37,"vowel":"o"},{"beat":148.5,"duration":0.06,"midi":42,"velocity":44,"voice":"hat","bar":37},{"beat":148.5,"duration":0.48,"midi":64,"velocity":62,"voice":"rhodes","bar":37},{"beat":149,"duration":1,"midi":52,"velocity":102,"voice":"bass","bar":37},{"beat":149.0,"duration":0.06,"midi":42,"velocity":56,"voice":"hat","bar":37},{"beat":149,"duration":0.18,"midi":36,"velocity":104,"voice":"kick","bar":37},{"beat":149,"duration":1,"midi":67,"velocity":96,"voice":"lead","bar":37},{"beat":149.0,"duration":0.48,"midi":67,"velocity":74,"voice":"rhodes","bar":37},{"beat":149,"duration":0.2,"midi":38,"velocity":110,"voice":"snare","bar":37},{"beat":149.5,"duration":0.06,"midi":42,"velocity":44,"voice":"hat","bar":37},{"beat":149.5,"duration":0.48,"midi":72,"velocity":62,"voice":"rhodes","bar":37},{"beat":150,"duration":2,"midi":43,"velocity":102,"voice":"bass","bar":37},{"beat":150.0,"duration":0.06,"midi":42,"velocity":56,"voice":"hat","bar":37},{"beat":150,"duration":0.18,"midi":36,"velocity":116,"voice":"kick","bar":37},{"beat":150,"duration":2,"midi":72,"velocity":96,"voice":"lead","bar":37},{"beat":150.0,"duration":0.48,"midi":67,"velocity":74,"voice":"rhodes","bar":37},{"beat":150,"duration":2,"midi":67,"velocity":110,"voice":"voxF","bar":37,"vowel":"a"},{"beat":150.5,"duration":0.06,"midi":42,"velocity":44,"voice":"hat","bar":37},{"beat":150.5,"duration":0.48,"midi":64,"velocity":62,"voice":"rhodes","bar":37},{"beat":151.0,"duration":0.06,"midi":42,"velocity":56,"voice":"hat","bar":37},{"beat":151,"duration":0.18,"midi":36,"velocity":104,"voice":"kick","bar":37},{"beat":151.0,"duration":0.48,"midi":60,"velocity":74,"voice":"rhodes","bar":37},{"beat":151,"duration":0.2,"midi":38,"velocity":110,"voice":"snare","bar":37},{"beat":151.5,"duration":0.06,"midi":42,"velocity":44,"voice":"hat","bar":37},{"beat":151.5,"duration":0.48,"midi":64,"velocity":62,"voice":"rhodes","bar":37},{"beat":152,"duration":1,"midi":43,"velocity":102,"voice":"bass","bar":38},{"beat":152.0,"duration":0.06,"midi":42,"velocity":56,"voice":"hat","bar":38},{"beat":152,"duration":0.18,"midi":36,"velocity":116,"voice":"kick","bar":38},{"beat":152,"duration":1,"midi":74,"velocity":96,"voice":"lead","bar":38},{"beat":152,"duration":4,"midi":55,"velocity":56,"voice":"pad","bar":38},{"beat":152,"duration":4,"midi":59,"velocity":56,"voice":"pad","bar":38},{"beat":152,"duration":4,"midi":62,"velocity":56,"voice":"pad","bar":38},{"beat":152.0,"duration":0.48,"midi":55,"velocity":74,"voice":"rhodes","bar":38},{"beat":152,"duration":2,"midi":74,"velocity":110,"voice":"voxF","bar":38,"vowel":"a"},{"beat":152.5,"duration":0.06,"midi":42,"velocity":44,"voice":"hat","bar":38},{"beat":152.5,"duration":0.48,"midi":59,"velocity":62,"voice":"rhodes","bar":38},{"beat":153,"duration":1,"midi":50,"velocity":102,"voice":"bass","bar":38},{"beat":153.0,"duration":0.06,"midi":42,"velocity":56,"voice":"hat","bar":38},{"beat":153,"duration":0.18,"midi":36,"velocity":104,"voice":"kick","bar":38},{"beat":153,"duration":0.5,"midi":71,"velocity":96,"voice":"lead","bar":38},{"beat":153.0,"duration":0.48,"midi":62,"velocity":74,"voice":"rhodes","bar":38},{"beat":153,"duration":0.2,"midi":38,"velocity":110,"voice":"snare","bar":38},{"beat":153.5,"duration":0.06,"midi":42,"velocity":44,"voice":"hat","bar":38},{"beat":153.5,"duration":0.5,"midi":74,"velocity":96,"voice":"lead","bar":38},{"beat":153.5,"duration":0.48,"midi":67,"velocity":62,"voice":"rhodes","bar":38},{"beat":154,"duration":2,"midi":47,"velocity":102,"voice":"bass","bar":38},{"beat":154.0,"duration":0.06,"midi":42,"velocity":56,"voice":"hat","bar":38},{"beat":154,"duration":0.18,"midi":36,"velocity":116,"voice":"kick","bar":38},{"beat":154,"duration":2,"midi":71,"velocity":96,"voice":"lead","bar":38},{"beat":154.0,"duration":0.48,"midi":62,"velocity":74,"voice":"rhodes","bar":38},{"beat":154,"duration":2,"midi":71,"velocity":110,"voice":"voxF","bar":38,"vowel":"o"},{"beat":154.5,"duration":0.06,"midi":42,"velocity":44,"voice":"hat","bar":38},{"beat":154.5,"duration":0.48,"midi":59,"velocity":62,"voice":"rhodes","bar":38},{"beat":155.0,"duration":0.06,"midi":42,"velocity":56,"voice":"hat","bar":38},{"beat":155,"duration":0.18,"midi":36,"velocity":104,"voice":"kick","bar":38},{"beat":155.0,"duration":0.48,"midi":55,"velocity":74,"voice":"rhodes","bar":38},{"beat":155,"duration":0.2,"midi":38,"velocity":110,"voice":"snare","bar":38},{"beat":155.5,"duration":0.06,"midi":42,"velocity":44,"voice":"hat","bar":38},{"beat":155.5,"duration":0.48,"midi":59,"velocity":62,"voice":"rhodes","bar":38},{"beat":156,"duration":1,"midi":45,"velocity":102,"voice":"bass","bar":39},{"beat":156.0,"duration":0.06,"midi":42,"velocity":56,"voice":"hat","bar":39},{"beat":156,"duration":0.18,"midi":36,"velocity":116,"voice":"kick","bar":39},{"beat":156,"duration":2,"midi":73,"velocity":96,"voice":"lead","bar":39},{"beat":156,"duration":4,"midi":57,"velocity":56,"voice":"pad","bar":39},{"beat":156,"duration":4,"midi":61,"velocity":56,"voice":"pad","bar":39},{"beat":156,"duration":4,"midi":64,"velocity":56,"voice":"pad","bar":39},{"beat":156.0,"duration":0.48,"midi":57,"velocity":74,"voice":"rhodes","bar":39},{"beat":156,"duration":4,"midi":69,"velocity":110,"voice":"voxF","bar":39,"vowel":"a"},{"beat":156.5,"duration":0.06,"midi":42,"velocity":44,"voice":"hat","bar":39},{"beat":156.5,"duration":0.48,"midi":61,"velocity":62,"voice":"rhodes","bar":39},{"beat":157,"duration":1,"midi":52,"velocity":102,"voice":"bass","bar":39},{"beat":157.0,"duration":0.06,"midi":42,"velocity":56,"voice":"hat","bar":39},{"beat":157,"duration":0.18,"midi":36,"velocity":104,"voice":"kick","bar":39},{"beat":157.0,"duration":0.48,"midi":64,"velocity":74,"voice":"rhodes","bar":39},{"beat":157,"duration":0.2,"midi":38,"velocity":110,"voice":"snare","bar":39},{"beat":157.5,"duration":0.06,"midi":42,"velocity":44,"voice":"hat","bar":39},{"beat":157.5,"duration":0.48,"midi":69,"velocity":62,"voice":"rhodes","bar":39},{"beat":158,"duration":2,"midi":49,"velocity":102,"voice":"bass","bar":39},{"beat":158.0,"duration":0.06,"midi":42,"velocity":56,"voice":"hat","bar":39},{"beat":158,"duration":0.18,"midi":36,"velocity":116,"voice":"kick","bar":39},{"beat":158,"duration":2,"midi":69,"velocity":96,"voice":"lead","bar":39},{"beat":158.0,"duration":0.48,"midi":64,"velocity":74,"voice":"rhodes","bar":39},{"beat":158.5,"duration":0.06,"midi":42,"velocity":44,"voice":"hat","bar":39},{"beat":158.5,"duration":0.48,"midi":61,"velocity":62,"voice":"rhodes","bar":39},{"beat":159.0,"duration":0.06,"midi":42,"velocity":56,"voice":"hat","bar":39},{"beat":159,"duration":0.18,"midi":36,"velocity":104,"voice":"kick","bar":39},{"beat":159.0,"duration":0.48,"midi":57,"velocity":74,"voice":"rhodes","bar":39},{"beat":159,"duration":0.2,"midi":38,"velocity":110,"voice":"snare","bar":39},{"beat":159.5,"duration":0.06,"midi":42,"velocity":44,"voice":"hat","bar":39},{"beat":159.5,"duration":0.48,"midi":61,"velocity":62,"voice":"rhodes","bar":39},{"beat":160,"duration":0.5,"midi":38,"velocity":102,"voice":"bass","bar":40},{"beat":160.0,"duration":0.06,"midi":42,"velocity":56,"voice":"hat","bar":40},{"beat":160,"duration":0.18,"midi":36,"velocity":116,"voice":"kick","bar":40},{"beat":160,"duration":4,"midi":50,"velocity":56,"voice":"pad","bar":40},{"beat":160,"duration":4,"midi":53,"velocity":56,"voice":"pad","bar":40},{"beat":160,"duration":4,"midi":57,"velocity":56,"voice":"pad","bar":40},{"beat":160.0,"duration":0.48,"midi":50,"velocity":74,"voice":"rhodes","bar":40},{"beat":160,"duration":1,"midi":50,"velocity":104,"voice":"voxM","bar":40,"vowel":"o"},{"beat":160.5,"duration":0.5,"midi":45,"velocity":102,"voice":"bass","bar":40},{"beat":160.5,"duration":0.06,"midi":42,"velocity":44,"voice":"hat","bar":40},{"beat":160.5,"duration":0.48,"midi":53,"velocity":62,"voice":"rhodes","bar":40},{"beat":160.5,"duration":0.16,"midi":45,"velocity":96,"voice":"tom","bar":40},{"beat":161,"duration":0.5,"midi":50,"velocity":102,"voice":"bass","bar":40},{"beat":161.0,"duration":0.06,"midi":42,"velocity":56,"voice":"hat","bar":40},{"beat":161.0,"duration":0.48,"midi":57,"velocity":74,"voice":"rhodes","bar":40},{"beat":161,"duration":0.2,"midi":38,"velocity":110,"voice":"snare","bar":40},{"beat":161,"duration":0.16,"midi":47,"velocity":96,"voice":"tom","bar":40},{"beat":161,"duration":1,"midi":50,"velocity":104,"voice":"voxM","bar":40,"vowel":"o"},{"beat":161.5,"duration":0.5,"midi":45,"velocity":102,"voice":"bass","bar":40},{"beat":161.5,"duration":0.06,"midi":42,"velocity":44,"voice":"hat","bar":40},{"beat":161.5,"duration":0.48,"midi":62,"velocity":62,"voice":"rhodes","bar":40},{"beat":161.5,"duration":0.16,"midi":50,"velocity":96,"voice":"tom","bar":40},{"beat":162,"duration":0.5,"midi":38,"velocity":102,"voice":"bass","bar":40},{"beat":162.0,"duration":0.06,"midi":42,"velocity":56,"voice":"hat","bar":40},{"beat":162,"duration":0.18,"midi":36,"velocity":116,"voice":"kick","bar":40},{"beat":162.0,"duration":0.48,"midi":57,"velocity":74,"voice":"rhodes","bar":40},{"beat":162,"duration":1,"midi":53,"velocity":104,"voice":"voxM","bar":40,"vowel":"a"},{"beat":162.5,"duration":0.5,"midi":41,"velocity":102,"voice":"bass","bar":40},{"beat":162.5,"duration":0.06,"midi":42,"velocity":44,"voice":"hat","bar":40},{"beat":162.5,"duration":0.48,"midi":53,"velocity":62,"voice":"rhodes","bar":40},{"beat":162.5,"duration":0.16,"midi":45,"velocity":96,"voice":"tom","bar":40},{"beat":163,"duration":0.5,"midi":45,"velocity":102,"voice":"bass","bar":40},{"beat":163.0,"duration":0.06,"midi":42,"velocity":56,"voice":"hat","bar":40},{"beat":163.0,"duration":0.48,"midi":50,"velocity":74,"voice":"rhodes","bar":40},{"beat":163,"duration":0.2,"midi":38,"velocity":110,"voice":"snare","bar":40},{"beat":163,"duration":0.16,"midi":47,"velocity":96,"voice":"tom","bar":40},{"beat":163,"duration":1,"midi":52,"velocity":104,"voice":"voxM","bar":40,"vowel":"e"},{"beat":163.5,"duration":0.5,"midi":41,"velocity":102,"voice":"bass","bar":40},{"beat":163.5,"duration":0.06,"midi":42,"velocity":44,"voice":"hat","bar":40},{"beat":163.5,"duration":0.48,"midi":53,"velocity":62,"voice":"rhodes","bar":40},{"beat":163.5,"duration":0.16,"midi":50,"velocity":96,"voice":"tom","bar":40},{"beat":164,"duration":0.5,"midi":38,"velocity":102,"voice":"bass","bar":41},{"beat":164.0,"duration":0.06,"midi":42,"velocity":56,"voice":"hat","bar":41},{"beat":164,"duration":0.18,"midi":36,"velocity":116,"voice":"kick","bar":41},{"beat":164,"duration":4,"midi":50,"velocity":56,"voice":"pad","bar":41},{"beat":164,"duration":4,"midi":53,"velocity":56,"voice":"pad","bar":41},{"beat":164,"duration":4,"midi":57,"velocity":56,"voice":"pad","bar":41},{"beat":164.0,"duration":0.48,"midi":50,"velocity":74,"voice":"rhodes","bar":41},{"beat":164,"duration":2,"midi":50,"velocity":104,"voice":"voxM","bar":41,"vowel":"o"},{"beat":164.5,"duration":0.5,"midi":45,"velocity":102,"voice":"bass","bar":41},{"beat":164.5,"duration":0.06,"midi":42,"velocity":44,"voice":"hat","bar":41},{"beat":164.5,"duration":0.48,"midi":53,"velocity":62,"voice":"rhodes","bar":41},{"beat":164.5,"duration":0.16,"midi":45,"velocity":96,"voice":"tom","bar":41},{"beat":165,"duration":0.5,"midi":50,"velocity":102,"voice":"bass","bar":41},{"beat":165.0,"duration":0.06,"midi":42,"velocity":56,"voice":"hat","bar":41},{"beat":165.0,"duration":0.48,"midi":57,"velocity":74,"voice":"rhodes","bar":41},{"beat":165,"duration":0.2,"midi":38,"velocity":110,"voice":"snare","bar":41},{"beat":165,"duration":0.16,"midi":47,"velocity":96,"voice":"tom","bar":41},{"beat":165.5,"duration":0.5,"midi":45,"velocity":102,"voice":"bass","bar":41},{"beat":165.5,"duration":0.06,"midi":42,"velocity":44,"voice":"hat","bar":41},{"beat":165.5,"duration":0.48,"midi":62,"velocity":62,"voice":"rhodes","bar":41},{"beat":165.5,"duration":0.16,"midi":50,"velocity":96,"voice":"tom","bar":41},{"beat":166,"duration":0.5,"midi":38,"velocity":102,"voice":"bass","bar":41},{"beat":166.0,"duration":0.06,"midi":42,"velocity":56,"voice":"hat","bar":41},{"beat":166,"duration":0.18,"midi":36,"velocity":116,"voice":"kick","bar":41},{"beat":166.0,"duration":0.48,"midi":57,"velocity":74,"voice":"rhodes","bar":41},{"beat":166,"duration":1,"midi":45,"velocity":104,"voice":"voxM","bar":41,"vowel":"u"},{"beat":166.5,"duration":0.5,"midi":41,"velocity":102,"voice":"bass","bar":41},{"beat":166.5,"duration":0.06,"midi":42,"velocity":44,"voice":"hat","bar":41},{"beat":166.5,"duration":0.48,"midi":53,"velocity":62,"voice":"rhodes","bar":41},{"beat":166.5,"duration":0.16,"midi":45,"velocity":96,"voice":"tom","bar":41},{"beat":167,"duration":0.5,"midi":45,"velocity":102,"voice":"bass","bar":41},{"beat":167.0,"duration":0.06,"midi":42,"velocity":56,"voice":"hat","bar":41},{"beat":167.0,"duration":0.48,"midi":50,"velocity":74,"voice":"rhodes","bar":41},{"beat":167,"duration":0.2,"midi":38,"velocity":110,"voice":"snare","bar":41},{"beat":167,"duration":0.16,"midi":47,"velocity":96,"voice":"tom","bar":41},{"beat":167,"duration":1,"midi":50,"velocity":104,"voice":"voxM","bar":41,"vowel":"o"},{"beat":167.5,"duration":0.5,"midi":41,"velocity":102,"voice":"bass","bar":41},{"beat":167.5,"duration":0.06,"midi":42,"velocity":44,"voice":"hat","bar":41},{"beat":167.5,"duration":0.48,"midi":53,"velocity":62,"voice":"rhodes","bar":41},{"beat":167.5,"duration":0.16,"midi":50,"velocity":96,"voice":"tom","bar":41},{"beat":168,"duration":0.5,"midi":46,"velocity":102,"voice":"bass","bar":42},{"beat":168.0,"duration":0.06,"midi":42,"velocity":56,"voice":"hat","bar":42},{"beat":168,"duration":0.18,"midi":36,"velocity":116,"voice":"kick","bar":42},{"beat":168,"duration":4,"midi":58,"velocity":56,"voice":"pad","bar":42},{"beat":168,"duration":4,"midi":62,"velocity":56,"voice":"pad","bar":42},{"beat":168,"duration":4,"midi":65,"velocity":56,"voice":"pad","bar":42},{"beat":168.0,"duration":0.48,"midi":58,"velocity":74,"voice":"rhodes","bar":42},{"beat":168,"duration":1,"midi":53,"velocity":104,"voice":"voxM","bar":42,"vowel":"a"},{"beat":168.5,"duration":0.5,"midi":41,"velocity":102,"voice":"bass","bar":42},{"beat":168.5,"duration":0.06,"midi":42,"velocity":44,"voice":"hat","bar":42},{"beat":168.5,"duration":0.48,"midi":62,"velocity":62,"voice":"rhodes","bar":42},{"beat":168.5,"duration":0.16,"midi":45,"velocity":96,"voice":"tom","bar":42},{"beat":169,"duration":0.5,"midi":46,"velocity":102,"voice":"bass","bar":42},{"beat":169.0,"duration":0.06,"midi":42,"velocity":56,"voice":"hat","bar":42},{"beat":169.0,"duration":0.48,"midi":65,"velocity":74,"voice":"rhodes","bar":42},{"beat":169,"duration":0.2,"midi":38,"velocity":110,"voice":"snare","bar":42},{"beat":169,"duration":0.16,"midi":47,"velocity":96,"voice":"tom","bar":42},{"beat":169,"duration":1,"midi":50,"velocity":104,"voice":"voxM","bar":42,"vowel":"o"},{"beat":169.5,"duration":0.5,"midi":50,"velocity":102,"voice":"bass","bar":42},{"beat":169.5,"duration":0.06,"midi":42,"velocity":44,"voice":"hat","bar":42},{"beat":169.5,"duration":0.48,"midi":70,"velocity":62,"voice":"rhodes","bar":42},{"beat":169.5,"duration":0.16,"midi":50,"velocity":96,"voice":"tom","bar":42},{"beat":170,"duration":0.5,"midi":46,"velocity":102,"voice":"bass","bar":42},{"beat":170.0,"duration":0.06,"midi":42,"velocity":56,"voice":"hat","bar":42},{"beat":170,"duration":0.18,"midi":36,"velocity":116,"voice":"kick","bar":42},{"beat":170.0,"duration":0.48,"midi":65,"velocity":74,"voice":"rhodes","bar":42},{"beat":170,"duration":2,"midi":53,"velocity":104,"voice":"voxM","bar":42,"vowel":"e"},{"beat":170.5,"duration":0.5,"midi":41,"velocity":102,"voice":"bass","bar":42},{"beat":170.5,"duration":0.06,"midi":42,"velocity":44,"voice":"hat","bar":42},{"beat":170.5,"duration":0.48,"midi":62,"velocity":62,"voice":"rhodes","bar":42},{"beat":170.5,"duration":0.16,"midi":45,"velocity":96,"voice":"tom","bar":42},{"beat":171,"duration":1,"midi":50,"velocity":102,"voice":"bass","bar":42},{"beat":171.0,"duration":0.06,"midi":42,"velocity":56,"voice":"hat","bar":42},{"beat":171.0,"duration":0.48,"midi":58,"velocity":74,"voice":"rhodes","bar":42},{"beat":171,"duration":0.2,"midi":38,"velocity":110,"voice":"snare","bar":42},{"beat":171,"duration":0.16,"midi":47,"velocity":96,"voice":"tom","bar":42},{"beat":171.5,"duration":0.06,"midi":42,"velocity":44,"voice":"hat","bar":42},{"beat":171.5,"duration":0.48,"midi":62,"velocity":62,"voice":"rhodes","bar":42},{"beat":171.5,"duration":0.16,"midi":50,"velocity":96,"voice":"tom","bar":42},{"beat":172,"duration":0.5,"midi":48,"velocity":102,"voice":"bass","bar":43},{"beat":172.0,"duration":0.06,"midi":42,"velocity":56,"voice":"hat","bar":43},{"beat":172,"duration":0.18,"midi":36,"velocity":116,"voice":"kick","bar":43},{"beat":172,"duration":4,"midi":60,"velocity":56,"voice":"pad","bar":43},{"beat":172,"duration":4,"midi":64,"velocity":56,"voice":"pad","bar":43},{"beat":172,"duration":4,"midi":67,"velocity":56,"voice":"pad","bar":43},{"beat":172.0,"duration":0.48,"midi":60,"velocity":74,"voice":"rhodes","bar":43},{"beat":172,"duration":1,"midi":52,"velocity":104,"voice":"voxM","bar":43,"vowel":"e"},{"beat":172.5,"duration":0.5,"midi":43,"velocity":102,"voice":"bass","bar":43},{"beat":172.5,"duration":0.06,"midi":42,"velocity":44,"voice":"hat","bar":43},{"beat":172.5,"duration":0.48,"midi":64,"velocity":62,"voice":"rhodes","bar":43},{"beat":172.5,"duration":0.16,"midi":45,"velocity":96,"voice":"tom","bar":43},{"beat":173,"duration":0.5,"midi":48,"velocity":102,"voice":"bass","bar":43},{"beat":173.0,"duration":0.06,"midi":42,"velocity":56,"voice":"hat","bar":43},{"beat":173.0,"duration":0.48,"midi":67,"velocity":74,"voice":"rhodes","bar":43},{"beat":173,"duration":0.2,"midi":38,"velocity":110,"voice":"snare","bar":43},{"beat":173,"duration":0.16,"midi":47,"velocity":96,"voice":"tom","bar":43},{"beat":173,"duration":1,"midi":55,"velocity":104,"voice":"voxM","bar":43,"vowel":"a"},{"beat":173.5,"duration":0.5,"midi":52,"velocity":102,"voice":"bass","bar":43},{"beat":173.5,"duration":0.06,"midi":42,"velocity":44,"voice":"hat","bar":43},{"beat":173.5,"duration":0.48,"midi":72,"velocity":62,"voice":"rhodes","bar":43},{"beat":173.5,"duration":0.16,"midi":50,"velocity":96,"voice":"tom","bar":43},{"beat":174,"duration":0.5,"midi":48,"velocity":102,"voice":"bass","bar":43},{"beat":174.0,"duration":0.06,"midi":42,"velocity":56,"voice":"hat","bar":43},{"beat":174,"duration":0.18,"midi":36,"velocity":116,"voice":"kick","bar":43},{"beat":174.0,"duration":0.48,"midi":67,"velocity":74,"voice":"rhodes","bar":43},{"beat":174,"duration":2,"midi":52,"velocity":104,"voice":"voxM","bar":43,"vowel":"o"},{"beat":174.5,"duration":0.5,"midi":43,"velocity":102,"voice":"bass","bar":43},{"beat":174.5,"duration":0.06,"midi":42,"velocity":44,"voice":"hat","bar":43},{"beat":174.5,"duration":0.48,"midi":64,"velocity":62,"voice":"rhodes","bar":43},{"beat":174.5,"duration":0.16,"midi":45,"velocity":96,"voice":"tom","bar":43},{"beat":175,"duration":1,"midi":52,"velocity":102,"voice":"bass","bar":43},{"beat":175.0,"duration":0.06,"midi":42,"velocity":56,"voice":"hat","bar":43},{"beat":175.0,"duration":0.48,"midi":60,"velocity":74,"voice":"rhodes","bar":43},{"beat":175,"duration":0.2,"midi":38,"velocity":110,"voice":"snare","bar":43},{"beat":175,"duration":0.16,"midi":47,"velocity":96,"voice":"tom","bar":43},{"beat":175.5,"duration":0.06,"midi":42,"velocity":44,"voice":"hat","bar":43},{"beat":175.5,"duration":0.48,"midi":64,"velocity":62,"voice":"rhodes","bar":43},{"beat":175.5,"duration":0.16,"midi":50,"velocity":96,"voice":"tom","bar":43},{"beat":176,"duration":0.5,"midi":38,"velocity":102,"voice":"bass","bar":44},{"beat":176.0,"duration":0.06,"midi":42,"velocity":56,"voice":"hat","bar":44},{"beat":176,"duration":0.18,"midi":36,"velocity":116,"voice":"kick","bar":44},{"beat":176,"duration":4,"midi":50,"velocity":56,"voice":"pad","bar":44},{"beat":176,"duration":4,"midi":53,"velocity":56,"voice":"pad","bar":44},{"beat":176,"duration":4,"midi":57,"velocity":56,"voice":"pad","bar":44},{"beat":176.0,"duration":0.48,"midi":50,"velocity":74,"voice":"rhodes","bar":44},{"beat":176,"duration":1,"midi":50,"velocity":104,"voice":"voxM","bar":44,"vowel":"o"},{"beat":176.5,"duration":0.5,"midi":45,"velocity":102,"voice":"bass","bar":44},{"beat":176.5,"duration":0.06,"midi":42,"velocity":44,"voice":"hat","bar":44},{"beat":176.5,"duration":0.48,"midi":53,"velocity":62,"voice":"rhodes","bar":44},{"beat":176.5,"duration":0.16,"midi":45,"velocity":96,"voice":"tom","bar":44},{"beat":177,"duration":0.5,"midi":50,"velocity":102,"voice":"bass","bar":44},{"beat":177.0,"duration":0.06,"midi":42,"velocity":56,"voice":"hat","bar":44},{"beat":177.0,"duration":0.48,"midi":57,"velocity":74,"voice":"rhodes","bar":44},{"beat":177,"duration":0.2,"midi":38,"velocity":110,"voice":"snare","bar":44},{"beat":177,"duration":0.16,"midi":47,"velocity":96,"voice":"tom","bar":44},{"beat":177,"duration":1,"midi":53,"velocity":104,"voice":"voxM","bar":44,"vowel":"a"},{"beat":177.5,"duration":0.5,"midi":45,"velocity":102,"voice":"bass","bar":44},{"beat":177.5,"duration":0.06,"midi":42,"velocity":44,"voice":"hat","bar":44},{"beat":177.5,"duration":0.48,"midi":62,"velocity":62,"voice":"rhodes","bar":44},{"beat":177.5,"duration":0.16,"midi":50,"velocity":96,"voice":"tom","bar":44},{"beat":178,"duration":0.5,"midi":38,"velocity":102,"voice":"bass","bar":44},{"beat":178.0,"duration":0.06,"midi":42,"velocity":56,"voice":"hat","bar":44},{"beat":178,"duration":0.18,"midi":36,"velocity":116,"voice":"kick","bar":44},{"beat":178.0,"duration":0.48,"midi":57,"velocity":74,"voice":"rhodes","bar":44},{"beat":178,"duration":1,"midi":52,"velocity":104,"voice":"voxM","bar":44,"vowel":"e"},{"beat":178.5,"duration":0.5,"midi":41,"velocity":102,"voice":"bass","bar":44},{"beat":178.5,"duration":0.06,"midi":42,"velocity":44,"voice":"hat","bar":44},{"beat":178.5,"duration":0.48,"midi":53,"velocity":62,"voice":"rhodes","bar":44},{"beat":178.5,"duration":0.16,"midi":45,"velocity":96,"voice":"tom","bar":44},{"beat":179,"duration":0.5,"midi":45,"velocity":102,"voice":"bass","bar":44},{"beat":179.0,"duration":0.06,"midi":42,"velocity":56,"voice":"hat","bar":44},{"beat":179.0,"duration":0.48,"midi":50,"velocity":74,"voice":"rhodes","bar":44},{"beat":179,"duration":0.2,"midi":38,"velocity":110,"voice":"snare","bar":44},{"beat":179,"duration":0.16,"midi":47,"velocity":96,"voice":"tom","bar":44},{"beat":179,"duration":1,"midi":50,"velocity":104,"voice":"voxM","bar":44,"vowel":"o"},{"beat":179.5,"duration":0.5,"midi":41,"velocity":102,"voice":"bass","bar":44},{"beat":179.5,"duration":0.06,"midi":42,"velocity":44,"voice":"hat","bar":44},{"beat":179.5,"duration":0.48,"midi":53,"velocity":62,"voice":"rhodes","bar":44},{"beat":179.5,"duration":0.16,"midi":50,"velocity":96,"voice":"tom","bar":44},{"beat":180,"duration":0.5,"midi":43,"velocity":102,"voice":"bass","bar":45},{"beat":180.0,"duration":0.06,"midi":42,"velocity":56,"voice":"hat","bar":45},{"beat":180,"duration":0.18,"midi":36,"velocity":116,"voice":"kick","bar":45},{"beat":180,"duration":4,"midi":55,"velocity":56,"voice":"pad","bar":45},{"beat":180,"duration":4,"midi":58,"velocity":56,"voice":"pad","bar":45},{"beat":180,"duration":4,"midi":62,"velocity":56,"voice":"pad","bar":45},{"beat":180.0,"duration":0.48,"midi":55,"velocity":74,"voice":"rhodes","bar":45},{"beat":180,"duration":1,"midi":50,"velocity":104,"voice":"voxM","bar":45,"vowel":"o"},{"beat":180.5,"duration":0.5,"midi":50,"velocity":102,"voice":"bass","bar":45},{"beat":180.5,"duration":0.06,"midi":42,"velocity":44,"voice":"hat","bar":45},{"beat":180.5,"duration":0.48,"midi":58,"velocity":62,"voice":"rhodes","bar":45},{"beat":180.5,"duration":0.16,"midi":45,"velocity":96,"voice":"tom","bar":45},{"beat":181,"duration":0.5,"midi":46,"velocity":102,"voice":"bass","bar":45},{"beat":181.0,"duration":0.06,"midi":42,"velocity":56,"voice":"hat","bar":45},{"beat":181.0,"duration":0.48,"midi":62,"velocity":74,"voice":"rhodes","bar":45},{"beat":181,"duration":0.2,"midi":38,"velocity":110,"voice":"snare","bar":45},{"beat":181,"duration":0.16,"midi":47,"velocity":96,"voice":"tom","bar":45},{"beat":181,"duration":1,"midi":46,"velocity":104,"voice":"voxM","bar":45,"vowel":"u"},{"beat":181.5,"duration":0.5,"midi":50,"velocity":102,"voice":"bass","bar":45},{"beat":181.5,"duration":0.06,"midi":42,"velocity":44,"voice":"hat","bar":45},{"beat":181.5,"duration":0.48,"midi":67,"velocity":62,"voice":"rhodes","bar":45},{"beat":181.5,"duration":0.16,"midi":50,"velocity":96,"voice":"tom","bar":45},{"beat":182,"duration":0.5,"midi":43,"velocity":102,"voice":"bass","bar":45},{"beat":182.0,"duration":0.06,"midi":42,"velocity":56,"voice":"hat","bar":45},{"beat":182,"duration":0.18,"midi":36,"velocity":116,"voice":"kick","bar":45},{"beat":182.0,"duration":0.48,"midi":62,"velocity":74,"voice":"rhodes","bar":45},{"beat":182,"duration":2,"midi":50,"velocity":104,"voice":"voxM","bar":45,"vowel":"a"},{"beat":182.5,"duration":0.5,"midi":46,"velocity":102,"voice":"bass","bar":45},{"beat":182.5,"duration":0.06,"midi":42,"velocity":44,"voice":"hat","bar":45},{"beat":182.5,"duration":0.48,"midi":58,"velocity":62,"voice":"rhodes","bar":45},{"beat":182.5,"duration":0.16,"midi":45,"velocity":96,"voice":"tom","bar":45},{"beat":183,"duration":1,"midi":50,"velocity":102,"voice":"bass","bar":45},{"beat":183.0,"duration":0.06,"midi":42,"velocity":56,"voice":"hat","bar":45},{"beat":183.0,"duration":0.48,"midi":55,"velocity":74,"voice":"rhodes","bar":45},{"beat":183,"duration":0.2,"midi":38,"velocity":110,"voice":"snare","bar":45},{"beat":183,"duration":0.16,"midi":47,"velocity":96,"voice":"tom","bar":45},{"beat":183.5,"duration":0.06,"midi":42,"velocity":44,"voice":"hat","bar":45},{"beat":183.5,"duration":0.48,"midi":58,"velocity":62,"voice":"rhodes","bar":45},{"beat":183.5,"duration":0.16,"midi":50,"velocity":96,"voice":"tom","bar":45},{"beat":184,"duration":0.5,"midi":48,"velocity":102,"voice":"bass","bar":46},{"beat":184.0,"duration":0.06,"midi":42,"velocity":56,"voice":"hat","bar":46},{"beat":184,"duration":0.18,"midi":36,"velocity":116,"voice":"kick","bar":46},{"beat":184,"duration":4,"midi":60,"velocity":56,"voice":"pad","bar":46},{"beat":184,"duration":4,"midi":64,"velocity":56,"voice":"pad","bar":46},{"beat":184,"duration":4,"midi":67,"velocity":56,"voice":"pad","bar":46},{"beat":184.0,"duration":0.48,"midi":60,"velocity":74,"voice":"rhodes","bar":46},{"beat":184,"duration":1,"midi":52,"velocity":104,"voice":"voxM","bar":46,"vowel":"e"},{"beat":184.5,"duration":0.5,"midi":43,"velocity":102,"voice":"bass","bar":46},{"beat":184.5,"duration":0.06,"midi":42,"velocity":44,"voice":"hat","bar":46},{"beat":184.5,"duration":0.48,"midi":64,"velocity":62,"voice":"rhodes","bar":46},{"beat":184.5,"duration":0.16,"midi":45,"velocity":96,"voice":"tom","bar":46},{"beat":185,"duration":0.5,"midi":48,"velocity":102,"voice":"bass","bar":46},{"beat":185.0,"duration":0.06,"midi":42,"velocity":56,"voice":"hat","bar":46},{"beat":185.0,"duration":0.48,"midi":67,"velocity":74,"voice":"rhodes","bar":46},{"beat":185,"duration":0.2,"midi":38,"velocity":110,"voice":"snare","bar":46},{"beat":185,"duration":0.16,"midi":47,"velocity":96,"voice":"tom","bar":46},{"beat":185,"duration":1,"midi":48,"velocity":104,"voice":"voxM","bar":46,"vowel":"o"},{"beat":185.5,"duration":0.5,"midi":52,"velocity":102,"voice":"bass","bar":46},{"beat":185.5,"duration":0.06,"midi":42,"velocity":44,"voice":"hat","bar":46},{"beat":185.5,"duration":0.48,"midi":72,"velocity":62,"voice":"rhodes","bar":46},{"beat":185.5,"duration":0.16,"midi":50,"velocity":96,"voice":"tom","bar":46},{"beat":186,"duration":0.5,"midi":48,"velocity":102,"voice":"bass","bar":46},{"beat":186.0,"duration":0.06,"midi":42,"velocity":56,"voice":"hat","bar":46},{"beat":186,"duration":0.18,"midi":36,"velocity":116,"voice":"kick","bar":46},{"beat":186.0,"duration":0.48,"midi":67,"velocity":74,"voice":"rhodes","bar":46},{"beat":186,"duration":2,"midi":43,"velocity":104,"voice":"voxM","bar":46,"vowel":"u"},{"beat":186.5,"duration":0.5,"midi":43,"velocity":102,"voice":"bass","bar":46},{"beat":186.5,"duration":0.06,"midi":42,"velocity":44,"voice":"hat","bar":46},{"beat":186.5,"duration":0.48,"midi":64,"velocity":62,"voice":"rhodes","bar":46},{"beat":186.5,"duration":0.16,"midi":45,"velocity":96,"voice":"tom","bar":46},{"beat":187,"duration":1,"midi":52,"velocity":102,"voice":"bass","bar":46},{"beat":187.0,"duration":0.06,"midi":42,"velocity":56,"voice":"hat","bar":46},{"beat":187.0,"duration":0.48,"midi":60,"velocity":74,"voice":"rhodes","bar":46},{"beat":187,"duration":0.2,"midi":38,"velocity":110,"voice":"snare","bar":46},{"beat":187,"duration":0.16,"midi":47,"velocity":96,"voice":"tom","bar":46},{"beat":187.5,"duration":0.06,"midi":42,"velocity":44,"voice":"hat","bar":46},{"beat":187.5,"duration":0.48,"midi":64,"velocity":62,"voice":"rhodes","bar":46},{"beat":187.5,"duration":0.16,"midi":50,"velocity":96,"voice":"tom","bar":46},{"beat":188,"duration":1,"midi":38,"velocity":102,"voice":"bass","bar":47},{"beat":188.0,"duration":0.06,"midi":42,"velocity":56,"voice":"hat","bar":47},{"beat":188,"duration":0.18,"midi":36,"velocity":116,"voice":"kick","bar":47},{"beat":188,"duration":4,"midi":50,"velocity":56,"voice":"pad","bar":47},{"beat":188,"duration":4,"midi":53,"velocity":56,"voice":"pad","bar":47},{"beat":188,"duration":4,"midi":57,"velocity":56,"voice":"pad","bar":47},{"beat":188.0,"duration":0.48,"midi":50,"velocity":74,"voice":"rhodes","bar":47},{"beat":188,"duration":2,"midi":50,"velocity":104,"voice":"voxM","bar":47,"vowel":"o"},{"beat":188.5,"duration":0.06,"midi":42,"velocity":44,"voice":"hat","bar":47},{"beat":188.5,"duration":0.48,"midi":53,"velocity":62,"voice":"rhodes","bar":47},{"beat":188.5,"duration":0.16,"midi":45,"velocity":96,"voice":"tom","bar":47},{"beat":189,"duration":1,"midi":45,"velocity":102,"voice":"bass","bar":47},{"beat":189.0,"duration":0.06,"midi":42,"velocity":56,"voice":"hat","bar":47},{"beat":189.0,"duration":0.48,"midi":57,"velocity":74,"voice":"rhodes","bar":47},{"beat":189,"duration":0.2,"midi":38,"velocity":110,"voice":"snare","bar":47},{"beat":189,"duration":0.16,"midi":47,"velocity":96,"voice":"tom","bar":47},{"beat":189.5,"duration":0.06,"midi":42,"velocity":44,"voice":"hat","bar":47},{"beat":189.5,"duration":0.48,"midi":62,"velocity":62,"voice":"rhodes","bar":47},{"beat":189.5,"duration":0.16,"midi":50,"velocity":96,"voice":"tom","bar":47},{"beat":190,"duration":2,"midi":50,"velocity":102,"voice":"bass","bar":47},{"beat":190.0,"duration":0.06,"midi":42,"velocity":56,"voice":"hat","bar":47},{"beat":190,"duration":0.18,"midi":36,"velocity":116,"voice":"kick","bar":47},{"beat":190.0,"duration":0.48,"midi":57,"velocity":74,"voice":"rhodes","bar":47},{"beat":190,"duration":2,"midi":45,"velocity":104,"voice":"voxM","bar":47,"vowel":"a"},{"beat":190.5,"duration":0.06,"midi":42,"velocity":44,"voice":"hat","bar":47},{"beat":190.5,"duration":0.48,"midi":53,"velocity":62,"voice":"rhodes","bar":47},{"beat":190.5,"duration":0.16,"midi":45,"velocity":96,"voice":"tom","bar":47},{"beat":191.0,"duration":0.06,"midi":42,"velocity":56,"voice":"hat","bar":47},{"beat":191.0,"duration":0.48,"midi":50,"velocity":74,"voice":"rhodes","bar":47},{"beat":191,"duration":0.2,"midi":38,"velocity":110,"voice":"snare","bar":47},{"beat":191,"duration":0.16,"midi":47,"velocity":96,"voice":"tom","bar":47},{"beat":191.5,"duration":0.06,"midi":42,"velocity":44,"voice":"hat","bar":47},{"beat":191.5,"duration":0.48,"midi":53,"velocity":62,"voice":"rhodes","bar":47},{"beat":191.5,"duration":0.16,"midi":50,"velocity":96,"voice":"tom","bar":47},{"beat":192,"duration":0.5,"midi":38,"velocity":102,"voice":"bass","bar":48},{"beat":192.0,"duration":0.06,"midi":42,"velocity":56,"voice":"hat","bar":48},{"beat":192,"duration":0.18,"midi":36,"velocity":116,"voice":"kick","bar":48},{"beat":192,"duration":4,"midi":50,"velocity":56,"voice":"pad","bar":48},{"beat":192,"duration":4,"midi":53,"velocity":56,"voice":"pad","bar":48},{"beat":192,"duration":4,"midi":57,"velocity":56,"voice":"pad","bar":48},{"beat":192.0,"duration":0.48,"midi":50,"velocity":74,"voice":"rhodes","bar":48},{"beat":192,"duration":1,"midi":50,"velocity":104,"voice":"voxM","bar":48,"vowel":"o"},{"beat":192.5,"duration":0.5,"midi":45,"velocity":102,"voice":"bass","bar":48},{"beat":192.5,"duration":0.06,"midi":42,"velocity":44,"voice":"hat","bar":48},{"beat":192.5,"duration":0.48,"midi":53,"velocity":62,"voice":"rhodes","bar":48},{"beat":192.5,"duration":0.16,"midi":45,"velocity":96,"voice":"tom","bar":48},{"beat":193,"duration":0.5,"midi":50,"velocity":102,"voice":"bass","bar":48},{"beat":193.0,"duration":0.06,"midi":42,"velocity":56,"voice":"hat","bar":48},{"beat":193.0,"duration":0.48,"midi":57,"velocity":74,"voice":"rhodes","bar":48},{"beat":193,"duration":0.2,"midi":38,"velocity":110,"voice":"snare","bar":48},{"beat":193,"duration":0.16,"midi":47,"velocity":96,"voice":"tom","bar":48},{"beat":193,"duration":1,"midi":50,"velocity":104,"voice":"voxM","bar":48,"vowel":"o"},{"beat":193.5,"duration":0.5,"midi":45,"velocity":102,"voice":"bass","bar":48},{"beat":193.5,"duration":0.06,"midi":42,"velocity":44,"voice":"hat","bar":48},{"beat":193.5,"duration":0.48,"midi":62,"velocity":62,"voice":"rhodes","bar":48},{"beat":193.5,"duration":0.16,"midi":50,"velocity":96,"voice":"tom","bar":48},{"beat":194,"duration":0.5,"midi":38,"velocity":102,"voice":"bass","bar":48},{"beat":194.0,"duration":0.06,"midi":42,"velocity":56,"voice":"hat","bar":48},{"beat":194,"duration":0.18,"midi":36,"velocity":116,"voice":"kick","bar":48},{"beat":194.0,"duration":0.48,"midi":57,"velocity":74,"voice":"rhodes","bar":48},{"beat":194,"duration":1,"midi":53,"velocity":104,"voice":"voxM","bar":48,"vowel":"a"},{"beat":194.5,"duration":0.5,"midi":41,"velocity":102,"voice":"bass","bar":48},{"beat":194.5,"duration":0.06,"midi":42,"velocity":44,"voice":"hat","bar":48},{"beat":194.5,"duration":0.48,"midi":53,"velocity":62,"voice":"rhodes","bar":48},{"beat":194.5,"duration":0.16,"midi":45,"velocity":96,"voice":"tom","bar":48},{"beat":195,"duration":0.5,"midi":45,"velocity":102,"voice":"bass","bar":48},{"beat":195.0,"duration":0.06,"midi":42,"velocity":56,"voice":"hat","bar":48},{"beat":195.0,"duration":0.48,"midi":50,"velocity":74,"voice":"rhodes","bar":48},{"beat":195,"duration":0.2,"midi":38,"velocity":110,"voice":"snare","bar":48},{"beat":195,"duration":0.16,"midi":47,"velocity":96,"voice":"tom","bar":48},{"beat":195,"duration":1,"midi":52,"velocity":104,"voice":"voxM","bar":48,"vowel":"e"},{"beat":195.5,"duration":0.5,"midi":41,"velocity":102,"voice":"bass","bar":48},{"beat":195.5,"duration":0.06,"midi":42,"velocity":44,"voice":"hat","bar":48},{"beat":195.5,"duration":0.48,"midi":53,"velocity":62,"voice":"rhodes","bar":48},{"beat":195.5,"duration":0.16,"midi":50,"velocity":96,"voice":"tom","bar":48},{"beat":196,"duration":0.5,"midi":38,"velocity":102,"voice":"bass","bar":49},{"beat":196.0,"duration":0.06,"midi":42,"velocity":56,"voice":"hat","bar":49},{"beat":196,"duration":0.18,"midi":36,"velocity":116,"voice":"kick","bar":49},{"beat":196,"duration":4,"midi":50,"velocity":56,"voice":"pad","bar":49},{"beat":196,"duration":4,"midi":53,"velocity":56,"voice":"pad","bar":49},{"beat":196,"duration":4,"midi":57,"velocity":56,"voice":"pad","bar":49},{"beat":196.0,"duration":0.48,"midi":50,"velocity":74,"voice":"rhodes","bar":49},{"beat":196,"duration":2,"midi":50,"velocity":104,"voice":"voxM","bar":49,"vowel":"o"},{"beat":196.5,"duration":0.5,"midi":45,"velocity":102,"voice":"bass","bar":49},{"beat":196.5,"duration":0.06,"midi":42,"velocity":44,"voice":"hat","bar":49},{"beat":196.5,"duration":0.48,"midi":53,"velocity":62,"voice":"rhodes","bar":49},{"beat":196.5,"duration":0.16,"midi":45,"velocity":96,"voice":"tom","bar":49},{"beat":197,"duration":0.5,"midi":50,"velocity":102,"voice":"bass","bar":49},{"beat":197.0,"duration":0.06,"midi":42,"velocity":56,"voice":"hat","bar":49},{"beat":197.0,"duration":0.48,"midi":57,"velocity":74,"voice":"rhodes","bar":49},{"beat":197,"duration":0.2,"midi":38,"velocity":110,"voice":"snare","bar":49},{"beat":197,"duration":0.16,"midi":47,"velocity":96,"voice":"tom","bar":49},{"beat":197.5,"duration":0.5,"midi":45,"velocity":102,"voice":"bass","bar":49},{"beat":197.5,"duration":0.06,"midi":42,"velocity":44,"voice":"hat","bar":49},{"beat":197.5,"duration":0.48,"midi":62,"velocity":62,"voice":"rhodes","bar":49},{"beat":197.5,"duration":0.16,"midi":50,"velocity":96,"voice":"tom","bar":49},{"beat":198,"duration":0.5,"midi":38,"velocity":102,"voice":"bass","bar":49},{"beat":198.0,"duration":0.06,"midi":42,"velocity":56,"voice":"hat","bar":49},{"beat":198,"duration":0.18,"midi":36,"velocity":116,"voice":"kick","bar":49},{"beat":198.0,"duration":0.48,"midi":57,"velocity":74,"voice":"rhodes","bar":49},{"beat":198,"duration":1,"midi":45,"velocity":104,"voice":"voxM","bar":49,"vowel":"u"},{"beat":198.5,"duration":0.5,"midi":41,"velocity":102,"voice":"bass","bar":49},{"beat":198.5,"duration":0.06,"midi":42,"velocity":44,"voice":"hat","bar":49},{"beat":198.5,"duration":0.48,"midi":53,"velocity":62,"voice":"rhodes","bar":49},{"beat":198.5,"duration":0.16,"midi":45,"velocity":96,"voice":"tom","bar":49},{"beat":199,"duration":0.5,"midi":45,"velocity":102,"voice":"bass","bar":49},{"beat":199.0,"duration":0.06,"midi":42,"velocity":56,"voice":"hat","bar":49},{"beat":199.0,"duration":0.48,"midi":50,"velocity":74,"voice":"rhodes","bar":49},{"beat":199,"duration":0.2,"midi":38,"velocity":110,"voice":"snare","bar":49},{"beat":199,"duration":0.16,"midi":47,"velocity":96,"voice":"tom","bar":49},{"beat":199,"duration":1,"midi":50,"velocity":104,"voice":"voxM","bar":49,"vowel":"o"},{"beat":199.5,"duration":0.5,"midi":41,"velocity":102,"voice":"bass","bar":49},{"beat":199.5,"duration":0.06,"midi":42,"velocity":44,"voice":"hat","bar":49},{"beat":199.5,"duration":0.48,"midi":53,"velocity":62,"voice":"rhodes","bar":49},{"beat":199.5,"duration":0.16,"midi":50,"velocity":96,"voice":"tom","bar":49},{"beat":200,"duration":0.5,"midi":46,"velocity":102,"voice":"bass","bar":50},{"beat":200.0,"duration":0.06,"midi":42,"velocity":56,"voice":"hat","bar":50},{"beat":200,"duration":0.18,"midi":36,"velocity":116,"voice":"kick","bar":50},{"beat":200,"duration":4,"midi":58,"velocity":56,"voice":"pad","bar":50},{"beat":200,"duration":4,"midi":62,"velocity":56,"voice":"pad","bar":50},{"beat":200,"duration":4,"midi":65,"velocity":56,"voice":"pad","bar":50},{"beat":200.0,"duration":0.48,"midi":58,"velocity":74,"voice":"rhodes","bar":50},{"beat":200,"duration":1,"midi":53,"velocity":104,"voice":"voxM","bar":50,"vowel":"a"},{"beat":200.5,"duration":0.5,"midi":41,"velocity":102,"voice":"bass","bar":50},{"beat":200.5,"duration":0.06,"midi":42,"velocity":44,"voice":"hat","bar":50},{"beat":200.5,"duration":0.48,"midi":62,"velocity":62,"voice":"rhodes","bar":50},{"beat":200.5,"duration":0.16,"midi":45,"velocity":96,"voice":"tom","bar":50},{"beat":201,"duration":0.5,"midi":46,"velocity":102,"voice":"bass","bar":50},{"beat":201.0,"duration":0.06,"midi":42,"velocity":56,"voice":"hat","bar":50},{"beat":201.0,"duration":0.48,"midi":65,"velocity":74,"voice":"rhodes","bar":50},{"beat":201,"duration":0.2,"midi":38,"velocity":110,"voice":"snare","bar":50},{"beat":201,"duration":0.16,"midi":47,"velocity":96,"voice":"tom","bar":50},{"beat":201,"duration":1,"midi":50,"velocity":104,"voice":"voxM","bar":50,"vowel":"o"},{"beat":201.5,"duration":0.5,"midi":50,"velocity":102,"voice":"bass","bar":50},{"beat":201.5,"duration":0.06,"midi":42,"velocity":44,"voice":"hat","bar":50},{"beat":201.5,"duration":0.48,"midi":70,"velocity":62,"voice":"rhodes","bar":50},{"beat":201.5,"duration":0.16,"midi":50,"velocity":96,"voice":"tom","bar":50},{"beat":202,"duration":0.5,"midi":46,"velocity":102,"voice":"bass","bar":50},{"beat":202.0,"duration":0.06,"midi":42,"velocity":56,"voice":"hat","bar":50},{"beat":202,"duration":0.18,"midi":36,"velocity":116,"voice":"kick","bar":50},{"beat":202.0,"duration":0.48,"midi":65,"velocity":74,"voice":"rhodes","bar":50},{"beat":202,"duration":2,"midi":53,"velocity":104,"voice":"voxM","bar":50,"vowel":"e"},{"beat":202.5,"duration":0.5,"midi":41,"velocity":102,"voice":"bass","bar":50},{"beat":202.5,"duration":0.06,"midi":42,"velocity":44,"voice":"hat","bar":50},{"beat":202.5,"duration":0.48,"midi":62,"velocity":62,"voice":"rhodes","bar":50},{"beat":202.5,"duration":0.16,"midi":45,"velocity":96,"voice":"tom","bar":50},{"beat":203,"duration":1,"midi":50,"velocity":102,"voice":"bass","bar":50},{"beat":203.0,"duration":0.06,"midi":42,"velocity":56,"voice":"hat","bar":50},{"beat":203.0,"duration":0.48,"midi":58,"velocity":74,"voice":"rhodes","bar":50},{"beat":203,"duration":0.2,"midi":38,"velocity":110,"voice":"snare","bar":50},{"beat":203,"duration":0.16,"midi":47,"velocity":96,"voice":"tom","bar":50},{"beat":203.5,"duration":0.06,"midi":42,"velocity":44,"voice":"hat","bar":50},{"beat":203.5,"duration":0.48,"midi":62,"velocity":62,"voice":"rhodes","bar":50},{"beat":203.5,"duration":0.16,"midi":50,"velocity":96,"voice":"tom","bar":50},{"beat":204,"duration":0.5,"midi":48,"velocity":102,"voice":"bass","bar":51},{"beat":204.0,"duration":0.06,"midi":42,"velocity":56,"voice":"hat","bar":51},{"beat":204,"duration":0.18,"midi":36,"velocity":116,"voice":"kick","bar":51},{"beat":204,"duration":4,"midi":60,"velocity":56,"voice":"pad","bar":51},{"beat":204,"duration":4,"midi":64,"velocity":56,"voice":"pad","bar":51},{"beat":204,"duration":4,"midi":67,"velocity":56,"voice":"pad","bar":51},{"beat":204.0,"duration":0.48,"midi":60,"velocity":74,"voice":"rhodes","bar":51},{"beat":204,"duration":1,"midi":52,"velocity":104,"voice":"voxM","bar":51,"vowel":"e"},{"beat":204.5,"duration":0.5,"midi":43,"velocity":102,"voice":"bass","bar":51},{"beat":204.5,"duration":0.06,"midi":42,"velocity":44,"voice":"hat","bar":51},{"beat":204.5,"duration":0.48,"midi":64,"velocity":62,"voice":"rhodes","bar":51},{"beat":204.5,"duration":0.16,"midi":45,"velocity":96,"voice":"tom","bar":51},{"beat":205,"duration":0.5,"midi":48,"velocity":102,"voice":"bass","bar":51},{"beat":205.0,"duration":0.06,"midi":42,"velocity":56,"voice":"hat","bar":51},{"beat":205.0,"duration":0.48,"midi":67,"velocity":74,"voice":"rhodes","bar":51},{"beat":205,"duration":0.2,"midi":38,"velocity":110,"voice":"snare","bar":51},{"beat":205,"duration":0.16,"midi":47,"velocity":96,"voice":"tom","bar":51},{"beat":205,"duration":1,"midi":55,"velocity":104,"voice":"voxM","bar":51,"vowel":"a"},{"beat":205.5,"duration":0.5,"midi":52,"velocity":102,"voice":"bass","bar":51},{"beat":205.5,"duration":0.06,"midi":42,"velocity":44,"voice":"hat","bar":51},{"beat":205.5,"duration":0.48,"midi":72,"velocity":62,"voice":"rhodes","bar":51},{"beat":205.5,"duration":0.16,"midi":50,"velocity":96,"voice":"tom","bar":51},{"beat":206,"duration":0.5,"midi":48,"velocity":102,"voice":"bass","bar":51},{"beat":206.0,"duration":0.06,"midi":42,"velocity":56,"voice":"hat","bar":51},{"beat":206,"duration":0.18,"midi":36,"velocity":116,"voice":"kick","bar":51},{"beat":206.0,"duration":0.48,"midi":67,"velocity":74,"voice":"rhodes","bar":51},{"beat":206,"duration":2,"midi":52,"velocity":104,"voice":"voxM","bar":51,"vowel":"o"},{"beat":206.5,"duration":0.5,"midi":43,"velocity":102,"voice":"bass","bar":51},{"beat":206.5,"duration":0.06,"midi":42,"velocity":44,"voice":"hat","bar":51},{"beat":206.5,"duration":0.48,"midi":64,"velocity":62,"voice":"rhodes","bar":51},{"beat":206.5,"duration":0.16,"midi":45,"velocity":96,"voice":"tom","bar":51},{"beat":207,"duration":1,"midi":52,"velocity":102,"voice":"bass","bar":51},{"beat":207.0,"duration":0.06,"midi":42,"velocity":56,"voice":"hat","bar":51},{"beat":207.0,"duration":0.48,"midi":60,"velocity":74,"voice":"rhodes","bar":51},{"beat":207,"duration":0.2,"midi":38,"velocity":110,"voice":"snare","bar":51},{"beat":207,"duration":0.16,"midi":47,"velocity":96,"voice":"tom","bar":51},{"beat":207.5,"duration":0.06,"midi":42,"velocity":44,"voice":"hat","bar":51},{"beat":207.5,"duration":0.48,"midi":64,"velocity":62,"voice":"rhodes","bar":51},{"beat":207.5,"duration":0.16,"midi":50,"velocity":96,"voice":"tom","bar":51},{"beat":208,"duration":0.5,"midi":38,"velocity":102,"voice":"bass","bar":52},{"beat":208.0,"duration":0.06,"midi":42,"velocity":56,"voice":"hat","bar":52},{"beat":208,"duration":0.18,"midi":36,"velocity":116,"voice":"kick","bar":52},{"beat":208,"duration":4,"midi":50,"velocity":56,"voice":"pad","bar":52},{"beat":208,"duration":4,"midi":53,"velocity":56,"voice":"pad","bar":52},{"beat":208,"duration":4,"midi":57,"velocity":56,"voice":"pad","bar":52},{"beat":208.0,"duration":0.48,"midi":50,"velocity":74,"voice":"rhodes","bar":52},{"beat":208,"duration":1,"midi":50,"velocity":104,"voice":"voxM","bar":52,"vowel":"o"},{"beat":208.5,"duration":0.5,"midi":45,"velocity":102,"voice":"bass","bar":52},{"beat":208.5,"duration":0.06,"midi":42,"velocity":44,"voice":"hat","bar":52},{"beat":208.5,"duration":0.48,"midi":53,"velocity":62,"voice":"rhodes","bar":52},{"beat":208.5,"duration":0.16,"midi":45,"velocity":96,"voice":"tom","bar":52},{"beat":209,"duration":0.5,"midi":50,"velocity":102,"voice":"bass","bar":52},{"beat":209.0,"duration":0.06,"midi":42,"velocity":56,"voice":"hat","bar":52},{"beat":209.0,"duration":0.48,"midi":57,"velocity":74,"voice":"rhodes","bar":52},{"beat":209,"duration":0.2,"midi":38,"velocity":110,"voice":"snare","bar":52},{"beat":209,"duration":0.16,"midi":47,"velocity":96,"voice":"tom","bar":52},{"beat":209,"duration":1,"midi":53,"velocity":104,"voice":"voxM","bar":52,"vowel":"a"},{"beat":209.5,"duration":0.5,"midi":45,"velocity":102,"voice":"bass","bar":52},{"beat":209.5,"duration":0.06,"midi":42,"velocity":44,"voice":"hat","bar":52},{"beat":209.5,"duration":0.48,"midi":62,"velocity":62,"voice":"rhodes","bar":52},{"beat":209.5,"duration":0.16,"midi":50,"velocity":96,"voice":"tom","bar":52},{"beat":210,"duration":0.5,"midi":38,"velocity":102,"voice":"bass","bar":52},{"beat":210.0,"duration":0.06,"midi":42,"velocity":56,"voice":"hat","bar":52},{"beat":210,"duration":0.18,"midi":36,"velocity":116,"voice":"kick","bar":52},{"beat":210.0,"duration":0.48,"midi":57,"velocity":74,"voice":"rhodes","bar":52},{"beat":210,"duration":1,"midi":52,"velocity":104,"voice":"voxM","bar":52,"vowel":"e"},{"beat":210.5,"duration":0.5,"midi":41,"velocity":102,"voice":"bass","bar":52},{"beat":210.5,"duration":0.06,"midi":42,"velocity":44,"voice":"hat","bar":52},{"beat":210.5,"duration":0.48,"midi":53,"velocity":62,"voice":"rhodes","bar":52},{"beat":210.5,"duration":0.16,"midi":45,"velocity":96,"voice":"tom","bar":52},{"beat":211,"duration":0.5,"midi":45,"velocity":102,"voice":"bass","bar":52},{"beat":211.0,"duration":0.06,"midi":42,"velocity":56,"voice":"hat","bar":52},{"beat":211.0,"duration":0.48,"midi":50,"velocity":74,"voice":"rhodes","bar":52},{"beat":211,"duration":0.2,"midi":38,"velocity":110,"voice":"snare","bar":52},{"beat":211,"duration":0.16,"midi":47,"velocity":96,"voice":"tom","bar":52},{"beat":211,"duration":1,"midi":50,"velocity":104,"voice":"voxM","bar":52,"vowel":"o"},{"beat":211.5,"duration":0.5,"midi":41,"velocity":102,"voice":"bass","bar":52},{"beat":211.5,"duration":0.06,"midi":42,"velocity":44,"voice":"hat","bar":52},{"beat":211.5,"duration":0.48,"midi":53,"velocity":62,"voice":"rhodes","bar":52},{"beat":211.5,"duration":0.16,"midi":50,"velocity":96,"voice":"tom","bar":52},{"beat":212,"duration":0.5,"midi":43,"velocity":102,"voice":"bass","bar":53},{"beat":212.0,"duration":0.06,"midi":42,"velocity":56,"voice":"hat","bar":53},{"beat":212,"duration":0.18,"midi":36,"velocity":116,"voice":"kick","bar":53},{"beat":212,"duration":4,"midi":55,"velocity":56,"voice":"pad","bar":53},{"beat":212,"duration":4,"midi":58,"velocity":56,"voice":"pad","bar":53},{"beat":212,"duration":4,"midi":62,"velocity":56,"voice":"pad","bar":53},{"beat":212.0,"duration":0.48,"midi":55,"velocity":74,"voice":"rhodes","bar":53},{"beat":212,"duration":1,"midi":50,"velocity":104,"voice":"voxM","bar":53,"vowel":"o"},{"beat":212.5,"duration":0.5,"midi":50,"velocity":102,"voice":"bass","bar":53},{"beat":212.5,"duration":0.06,"midi":42,"velocity":44,"voice":"hat","bar":53},{"beat":212.5,"duration":0.48,"midi":58,"velocity":62,"voice":"rhodes","bar":53},{"beat":212.5,"duration":0.16,"midi":45,"velocity":96,"voice":"tom","bar":53},{"beat":213,"duration":0.5,"midi":46,"velocity":102,"voice":"bass","bar":53},{"beat":213.0,"duration":0.06,"midi":42,"velocity":56,"voice":"hat","bar":53},{"beat":213.0,"duration":0.48,"midi":62,"velocity":74,"voice":"rhodes","bar":53},{"beat":213,"duration":0.2,"midi":38,"velocity":110,"voice":"snare","bar":53},{"beat":213,"duration":0.16,"midi":47,"velocity":96,"voice":"tom","bar":53},{"beat":213,"duration":1,"midi":46,"velocity":104,"voice":"voxM","bar":53,"vowel":"u"},{"beat":213.5,"duration":0.5,"midi":50,"velocity":102,"voice":"bass","bar":53},{"beat":213.5,"duration":0.06,"midi":42,"velocity":44,"voice":"hat","bar":53},{"beat":213.5,"duration":0.48,"midi":67,"velocity":62,"voice":"rhodes","bar":53},{"beat":213.5,"duration":0.16,"midi":50,"velocity":96,"voice":"tom","bar":53},{"beat":214,"duration":0.5,"midi":43,"velocity":102,"voice":"bass","bar":53},{"beat":214.0,"duration":0.06,"midi":42,"velocity":56,"voice":"hat","bar":53},{"beat":214,"duration":0.18,"midi":36,"velocity":116,"voice":"kick","bar":53},{"beat":214.0,"duration":0.48,"midi":62,"velocity":74,"voice":"rhodes","bar":53},{"beat":214,"duration":2,"midi":50,"velocity":104,"voice":"voxM","bar":53,"vowel":"a"},{"beat":214.5,"duration":0.5,"midi":46,"velocity":102,"voice":"bass","bar":53},{"beat":214.5,"duration":0.06,"midi":42,"velocity":44,"voice":"hat","bar":53},{"beat":214.5,"duration":0.48,"midi":58,"velocity":62,"voice":"rhodes","bar":53},{"beat":214.5,"duration":0.16,"midi":45,"velocity":96,"voice":"tom","bar":53},{"beat":215,"duration":1,"midi":50,"velocity":102,"voice":"bass","bar":53},{"beat":215.0,"duration":0.06,"midi":42,"velocity":56,"voice":"hat","bar":53},{"beat":215.0,"duration":0.48,"midi":55,"velocity":74,"voice":"rhodes","bar":53},{"beat":215,"duration":0.2,"midi":38,"velocity":110,"voice":"snare","bar":53},{"beat":215,"duration":0.16,"midi":47,"velocity":96,"voice":"tom","bar":53},{"beat":215.5,"duration":0.06,"midi":42,"velocity":44,"voice":"hat","bar":53},{"beat":215.5,"duration":0.48,"midi":58,"velocity":62,"voice":"rhodes","bar":53},{"beat":215.5,"duration":0.16,"midi":50,"velocity":96,"voice":"tom","bar":53},{"beat":216,"duration":0.5,"midi":48,"velocity":102,"voice":"bass","bar":54},{"beat":216.0,"duration":0.06,"midi":42,"velocity":56,"voice":"hat","bar":54},{"beat":216,"duration":0.18,"midi":36,"velocity":116,"voice":"kick","bar":54},{"beat":216,"duration":4,"midi":60,"velocity":56,"voice":"pad","bar":54},{"beat":216,"duration":4,"midi":64,"velocity":56,"voice":"pad","bar":54},{"beat":216,"duration":4,"midi":67,"velocity":56,"voice":"pad","bar":54},{"beat":216.0,"duration":0.48,"midi":60,"velocity":74,"voice":"rhodes","bar":54},{"beat":216,"duration":1,"midi":52,"velocity":104,"voice":"voxM","bar":54,"vowel":"e"},{"beat":216.5,"duration":0.5,"midi":43,"velocity":102,"voice":"bass","bar":54},{"beat":216.5,"duration":0.06,"midi":42,"velocity":44,"voice":"hat","bar":54},{"beat":216.5,"duration":0.48,"midi":64,"velocity":62,"voice":"rhodes","bar":54},{"beat":216.5,"duration":0.16,"midi":45,"velocity":96,"voice":"tom","bar":54},{"beat":217,"duration":0.5,"midi":48,"velocity":102,"voice":"bass","bar":54},{"beat":217.0,"duration":0.06,"midi":42,"velocity":56,"voice":"hat","bar":54},{"beat":217.0,"duration":0.48,"midi":67,"velocity":74,"voice":"rhodes","bar":54},{"beat":217,"duration":0.2,"midi":38,"velocity":110,"voice":"snare","bar":54},{"beat":217,"duration":0.16,"midi":47,"velocity":96,"voice":"tom","bar":54},{"beat":217,"duration":1,"midi":48,"velocity":104,"voice":"voxM","bar":54,"vowel":"o"},{"beat":217.5,"duration":0.5,"midi":52,"velocity":102,"voice":"bass","bar":54},{"beat":217.5,"duration":0.06,"midi":42,"velocity":44,"voice":"hat","bar":54},{"beat":217.5,"duration":0.48,"midi":72,"velocity":62,"voice":"rhodes","bar":54},{"beat":217.5,"duration":0.16,"midi":50,"velocity":96,"voice":"tom","bar":54},{"beat":218,"duration":0.5,"midi":48,"velocity":102,"voice":"bass","bar":54},{"beat":218.0,"duration":0.06,"midi":42,"velocity":56,"voice":"hat","bar":54},{"beat":218,"duration":0.18,"midi":36,"velocity":116,"voice":"kick","bar":54},{"beat":218.0,"duration":0.48,"midi":67,"velocity":74,"voice":"rhodes","bar":54},{"beat":218,"duration":2,"midi":43,"velocity":104,"voice":"voxM","bar":54,"vowel":"u"},{"beat":218.5,"duration":0.5,"midi":43,"velocity":102,"voice":"bass","bar":54},{"beat":218.5,"duration":0.06,"midi":42,"velocity":44,"voice":"hat","bar":54},{"beat":218.5,"duration":0.48,"midi":64,"velocity":62,"voice":"rhodes","bar":54},{"beat":218.5,"duration":0.16,"midi":45,"velocity":96,"voice":"tom","bar":54},{"beat":219,"duration":1,"midi":52,"velocity":102,"voice":"bass","bar":54},{"beat":219.0,"duration":0.06,"midi":42,"velocity":56,"voice":"hat","bar":54},{"beat":219.0,"duration":0.48,"midi":60,"velocity":74,"voice":"rhodes","bar":54},{"beat":219,"duration":0.2,"midi":38,"velocity":110,"voice":"snare","bar":54},{"beat":219,"duration":0.16,"midi":47,"velocity":96,"voice":"tom","bar":54},{"beat":219.5,"duration":0.06,"midi":42,"velocity":44,"voice":"hat","bar":54},{"beat":219.5,"duration":0.48,"midi":64,"velocity":62,"voice":"rhodes","bar":54},{"beat":219.5,"duration":0.16,"midi":50,"velocity":96,"voice":"tom","bar":54},{"beat":220,"duration":1,"midi":38,"velocity":102,"voice":"bass","bar":55},{"beat":220.0,"duration":0.06,"midi":42,"velocity":56,"voice":"hat","bar":55},{"beat":220,"duration":0.18,"midi":36,"velocity":116,"voice":"kick","bar":55},{"beat":220,"duration":4,"midi":50,"velocity":56,"voice":"pad","bar":55},{"beat":220,"duration":4,"midi":53,"velocity":56,"voice":"pad","bar":55},{"beat":220,"duration":4,"midi":57,"velocity":56,"voice":"pad","bar":55},{"beat":220.0,"duration":0.48,"midi":50,"velocity":74,"voice":"rhodes","bar":55},{"beat":220,"duration":2,"midi":50,"velocity":104,"voice":"voxM","bar":55,"vowel":"o"},{"beat":220.5,"duration":0.06,"midi":42,"velocity":44,"voice":"hat","bar":55},{"beat":220.5,"duration":0.48,"midi":53,"velocity":62,"voice":"rhodes","bar":55},{"beat":220.5,"duration":0.16,"midi":45,"velocity":96,"voice":"tom","bar":55},{"beat":221,"duration":1,"midi":45,"velocity":102,"voice":"bass","bar":55},{"beat":221.0,"duration":0.06,"midi":42,"velocity":56,"voice":"hat","bar":55},{"beat":221.0,"duration":0.48,"midi":57,"velocity":74,"voice":"rhodes","bar":55},{"beat":221,"duration":0.2,"midi":38,"velocity":110,"voice":"snare","bar":55},{"beat":221,"duration":0.16,"midi":47,"velocity":96,"voice":"tom","bar":55},{"beat":221.5,"duration":0.06,"midi":42,"velocity":44,"voice":"hat","bar":55},{"beat":221.5,"duration":0.48,"midi":62,"velocity":62,"voice":"rhodes","bar":55},{"beat":221.5,"duration":0.16,"midi":50,"velocity":96,"voice":"tom","bar":55},{"beat":222,"duration":2,"midi":50,"velocity":102,"voice":"bass","bar":55},{"beat":222.0,"duration":0.06,"midi":42,"velocity":56,"voice":"hat","bar":55},{"beat":222,"duration":0.18,"midi":36,"velocity":116,"voice":"kick","bar":55},{"beat":222.0,"duration":0.48,"midi":57,"velocity":74,"voice":"rhodes","bar":55},{"beat":222,"duration":2,"midi":45,"velocity":104,"voice":"voxM","bar":55,"vowel":"a"},{"beat":222.5,"duration":0.06,"midi":42,"velocity":44,"voice":"hat","bar":55},{"beat":222.5,"duration":0.48,"midi":53,"velocity":62,"voice":"rhodes","bar":55},{"beat":222.5,"duration":0.16,"midi":45,"velocity":96,"voice":"tom","bar":55},{"beat":223.0,"duration":0.06,"midi":42,"velocity":56,"voice":"hat","bar":55},{"beat":223.0,"duration":0.48,"midi":50,"velocity":74,"voice":"rhodes","bar":55},{"beat":223,"duration":0.2,"midi":38,"velocity":110,"voice":"snare","bar":55},{"beat":223,"duration":0.16,"midi":47,"velocity":96,"voice":"tom","bar":55},{"beat":223.5,"duration":0.06,"midi":42,"velocity":44,"voice":"hat","bar":55},{"beat":223.5,"duration":0.48,"midi":53,"velocity":62,"voice":"rhodes","bar":55},{"beat":223.5,"duration":0.16,"midi":50,"velocity":96,"voice":"tom","bar":55},{"beat":224,"duration":1,"midi":41,"velocity":102,"voice":"bass","bar":56},{"beat":224.0,"duration":0.06,"midi":42,"velocity":56,"voice":"hat","bar":56},{"beat":224,"duration":0.18,"midi":36,"velocity":116,"voice":"kick","bar":56},{"beat":224,"duration":2,"midi":69,"velocity":96,"voice":"lead","bar":56},{"beat":224,"duration":4,"midi":53,"velocity":56,"voice":"pad","bar":56},{"beat":224,"duration":4,"midi":57,"velocity":56,"voice":"pad","bar":56},{"beat":224,"duration":4,"midi":60,"velocity":56,"voice":"pad","bar":56},{"beat":224.0,"duration":0.48,"midi":53,"velocity":74,"voice":"rhodes","bar":56},{"beat":224.5,"duration":0.06,"midi":42,"velocity":44,"voice":"hat","bar":56},{"beat":224.5,"duration":0.48,"midi":57,"velocity":62,"voice":"rhodes","bar":56},{"beat":224.5,"duration":0.16,"midi":45,"velocity":96,"voice":"tom","bar":56},{"beat":225,"duration":1,"midi":48,"velocity":102,"voice":"bass","bar":56},{"beat":225.0,"duration":0.06,"midi":42,"velocity":56,"voice":"hat","bar":56},{"beat":225,"duration":0.18,"midi":36,"velocity":104,"voice":"kick","bar":56},{"beat":225.0,"duration":0.48,"midi":60,"velocity":74,"voice":"rhodes","bar":56},{"beat":225,"duration":0.2,"midi":38,"velocity":110,"voice":"snare","bar":56},{"beat":225,"duration":0.16,"midi":47,"velocity":96,"voice":"tom","bar":56},{"beat":225.5,"duration":0.06,"midi":42,"velocity":44,"voice":"hat","bar":56},{"beat":225.5,"duration":0.48,"midi":65,"velocity":62,"voice":"rhodes","bar":56},{"beat":225.5,"duration":0.16,"midi":50,"velocity":96,"voice":"tom","bar":56},{"beat":226,"duration":2,"midi":45,"velocity":102,"voice":"bass","bar":56},{"beat":226.0,"duration":0.06,"midi":42,"velocity":56,"voice":"hat","bar":56},{"beat":226,"duration":0.18,"midi":36,"velocity":116,"voice":"kick","bar":56},{"beat":226,"duration":1,"midi":72,"velocity":96,"voice":"lead","bar":56},{"beat":226.0,"duration":0.48,"midi":60,"velocity":74,"voice":"rhodes","bar":56},{"beat":226.5,"duration":0.06,"midi":42,"velocity":44,"voice":"hat","bar":56},{"beat":226.5,"duration":0.48,"midi":57,"velocity":62,"voice":"rhodes","bar":56},{"beat":226.5,"duration":0.16,"midi":45,"velocity":96,"voice":"tom","bar":56},{"beat":227.0,"duration":0.06,"midi":42,"velocity":56,"voice":"hat","bar":56},{"beat":227,"duration":0.18,"midi":36,"velocity":104,"voice":"kick","bar":56},{"beat":227,"duration":1,"midi":69,"velocity":96,"voice":"lead","bar":56},{"beat":227.0,"duration":0.48,"midi":53,"velocity":74,"voice":"rhodes","bar":56},{"beat":227,"duration":0.2,"midi":38,"velocity":110,"voice":"snare","bar":56},{"beat":227,"duration":0.16,"midi":47,"velocity":96,"voice":"tom","bar":56},{"beat":227.5,"duration":0.06,"midi":42,"velocity":44,"voice":"hat","bar":56},{"beat":227.5,"duration":0.48,"midi":57,"velocity":62,"voice":"rhodes","bar":56},{"beat":227.5,"duration":0.16,"midi":50,"velocity":96,"voice":"tom","bar":56},{"beat":228,"duration":1,"midi":48,"velocity":102,"voice":"bass","bar":57},{"beat":228.0,"duration":0.06,"midi":42,"velocity":56,"voice":"hat","bar":57},{"beat":228,"duration":0.18,"midi":36,"velocity":116,"voice":"kick","bar":57},{"beat":228,"duration":1.5,"midi":67,"velocity":96,"voice":"lead","bar":57},{"beat":228,"duration":4,"midi":60,"velocity":56,"voice":"pad","bar":57},{"beat":228,"duration":4,"midi":64,"velocity":56,"voice":"pad","bar":57},{"beat":228,"duration":4,"midi":67,"velocity":56,"voice":"pad","bar":57},{"beat":228.0,"duration":0.48,"midi":60,"velocity":74,"voice":"rhodes","bar":57},{"beat":228.5,"duration":0.06,"midi":42,"velocity":44,"voice":"hat","bar":57},{"beat":228.5,"duration":0.48,"midi":64,"velocity":62,"voice":"rhodes","bar":57},{"beat":228.5,"duration":0.16,"midi":45,"velocity":96,"voice":"tom","bar":57},{"beat":229,"duration":1,"midi":43,"velocity":102,"voice":"bass","bar":57},{"beat":229.0,"duration":0.06,"midi":42,"velocity":56,"voice":"hat","bar":57},{"beat":229,"duration":0.18,"midi":36,"velocity":104,"voice":"kick","bar":57},{"beat":229.0,"duration":0.48,"midi":67,"velocity":74,"voice":"rhodes","bar":57},{"beat":229,"duration":0.2,"midi":38,"velocity":110,"voice":"snare","bar":57},{"beat":229,"duration":0.16,"midi":47,"velocity":96,"voice":"tom","bar":57},{"beat":229.5,"duration":0.06,"midi":42,"velocity":44,"voice":"hat","bar":57},{"beat":229.5,"duration":0.5,"midi":69,"velocity":96,"voice":"lead","bar":57},{"beat":229.5,"duration":0.48,"midi":72,"velocity":62,"voice":"rhodes","bar":57},{"beat":229.5,"duration":0.16,"midi":50,"velocity":96,"voice":"tom","bar":57},{"beat":230,"duration":2,"midi":52,"velocity":102,"voice":"bass","bar":57},{"beat":230.0,"duration":0.06,"midi":42,"velocity":56,"voice":"hat","bar":57},{"beat":230,"duration":0.18,"midi":36,"velocity":116,"voice":"kick","bar":57},{"beat":230,"duration":2,"midi":64,"velocity":96,"voice":"lead","bar":57},{"beat":230.0,"duration":0.48,"midi":67,"velocity":74,"voice":"rhodes","bar":57},{"beat":230.5,"duration":0.06,"midi":42,"velocity":44,"voice":"hat","bar":57},{"beat":230.5,"duration":0.48,"midi":64,"velocity":62,"voice":"rhodes","bar":57},{"beat":230.5,"duration":0.16,"midi":45,"velocity":96,"voice":"tom","bar":57},{"beat":231.0,"duration":0.06,"midi":42,"velocity":56,"voice":"hat","bar":57},{"beat":231,"duration":0.18,"midi":36,"velocity":104,"voice":"kick","bar":57},{"beat":231.0,"duration":0.48,"midi":60,"velocity":74,"voice":"rhodes","bar":57},{"beat":231,"duration":0.2,"midi":38,"velocity":110,"voice":"snare","bar":57},{"beat":231,"duration":0.16,"midi":47,"velocity":96,"voice":"tom","bar":57},{"beat":231.5,"duration":0.06,"midi":42,"velocity":44,"voice":"hat","bar":57},{"beat":231.5,"duration":0.48,"midi":64,"velocity":62,"voice":"rhodes","bar":57},{"beat":231.5,"duration":0.16,"midi":50,"velocity":96,"voice":"tom","bar":57},{"beat":232,"duration":1,"midi":38,"velocity":102,"voice":"bass","bar":58},{"beat":232.0,"duration":0.06,"midi":42,"velocity":56,"voice":"hat","bar":58},{"beat":232,"duration":0.18,"midi":36,"velocity":116,"voice":"kick","bar":58},{"beat":232,"duration":1,"midi":65,"velocity":96,"voice":"lead","bar":58},{"beat":232,"duration":4,"midi":50,"velocity":56,"voice":"pad","bar":58},{"beat":232,"duration":4,"midi":53,"velocity":56,"voice":"pad","bar":58},{"beat":232,"duration":4,"midi":57,"velocity":56,"voice":"pad","bar":58},{"beat":232.0,"duration":0.48,"midi":50,"velocity":74,"voice":"rhodes","bar":58},{"beat":232.5,"duration":0.06,"midi":42,"velocity":44,"voice":"hat","bar":58},{"beat":232.5,"duration":0.48,"midi":53,"velocity":62,"voice":"rhodes","bar":58},{"beat":232.5,"duration":0.16,"midi":45,"velocity":96,"voice":"tom","bar":58},{"beat":233,"duration":1,"midi":45,"velocity":102,"voice":"bass","bar":58},{"beat":233.0,"duration":0.06,"midi":42,"velocity":56,"voice":"hat","bar":58},{"beat":233,"duration":0.18,"midi":36,"velocity":104,"voice":"kick","bar":58},{"beat":233,"duration":1,"midi":69,"velocity":96,"voice":"lead","bar":58},{"beat":233.0,"duration":0.48,"midi":57,"velocity":74,"voice":"rhodes","bar":58},{"beat":233,"duration":0.2,"midi":38,"velocity":110,"voice":"snare","bar":58},{"beat":233,"duration":0.16,"midi":47,"velocity":96,"voice":"tom","bar":58},{"beat":233.5,"duration":0.06,"midi":42,"velocity":44,"voice":"hat","bar":58},{"beat":233.5,"duration":0.48,"midi":62,"velocity":62,"voice":"rhodes","bar":58},{"beat":233.5,"duration":0.16,"midi":50,"velocity":96,"voice":"tom","bar":58},{"beat":234,"duration":2,"midi":50,"velocity":102,"voice":"bass","bar":58},{"beat":234.0,"duration":0.06,"midi":42,"velocity":56,"voice":"hat","bar":58},{"beat":234,"duration":0.18,"midi":36,"velocity":116,"voice":"kick","bar":58},{"beat":234,"duration":1,"midi":74,"velocity":96,"voice":"lead","bar":58},{"beat":234.0,"duration":0.48,"midi":57,"velocity":74,"voice":"rhodes","bar":58},{"beat":234.5,"duration":0.06,"midi":42,"velocity":44,"voice":"hat","bar":58},{"beat":234.5,"duration":0.48,"midi":53,"velocity":62,"voice":"rhodes","bar":58},{"beat":234.5,"duration":0.16,"midi":45,"velocity":96,"voice":"tom","bar":58},{"beat":235.0,"duration":0.06,"midi":42,"velocity":56,"voice":"hat","bar":58},{"beat":235,"duration":0.18,"midi":36,"velocity":104,"voice":"kick","bar":58},{"beat":235,"duration":1,"midi":69,"velocity":96,"voice":"lead","bar":58},{"beat":235.0,"duration":0.48,"midi":50,"velocity":74,"voice":"rhodes","bar":58},{"beat":235,"duration":0.2,"midi":38,"velocity":110,"voice":"snare","bar":58},{"beat":235,"duration":0.16,"midi":47,"velocity":96,"voice":"tom","bar":58},{"beat":235.5,"duration":0.06,"midi":42,"velocity":44,"voice":"hat","bar":58},{"beat":235.5,"duration":0.48,"midi":53,"velocity":62,"voice":"rhodes","bar":58},{"beat":235.5,"duration":0.16,"midi":50,"velocity":96,"voice":"tom","bar":58},{"beat":236,"duration":1,"midi":46,"velocity":102,"voice":"bass","bar":59},{"beat":236.0,"duration":0.06,"midi":42,"velocity":56,"voice":"hat","bar":59},{"beat":236,"duration":0.18,"midi":36,"velocity":116,"voice":"kick","bar":59},{"beat":236,"duration":2,"midi":74,"velocity":96,"voice":"lead","bar":59},{"beat":236,"duration":4,"midi":58,"velocity":56,"voice":"pad","bar":59},{"beat":236,"duration":4,"midi":62,"velocity":56,"voice":"pad","bar":59},{"beat":236,"duration":4,"midi":65,"velocity":56,"voice":"pad","bar":59},{"beat":236.0,"duration":0.48,"midi":58,"velocity":74,"voice":"rhodes","bar":59},{"beat":236.5,"duration":0.06,"midi":42,"velocity":44,"voice":"hat","bar":59},{"beat":236.5,"duration":0.48,"midi":62,"velocity":62,"voice":"rhodes","bar":59},{"beat":236.5,"duration":0.16,"midi":45,"velocity":96,"voice":"tom","bar":59},{"beat":237,"duration":1,"midi":41,"velocity":102,"voice":"bass","bar":59},{"beat":237.0,"duration":0.06,"midi":42,"velocity":56,"voice":"hat","bar":59},{"beat":237,"duration":0.18,"midi":36,"velocity":104,"voice":"kick","bar":59},{"beat":237.0,"duration":0.48,"midi":65,"velocity":74,"voice":"rhodes","bar":59},{"beat":237,"duration":0.2,"midi":38,"velocity":110,"voice":"snare","bar":59},{"beat":237,"duration":0.16,"midi":47,"velocity":96,"voice":"tom","bar":59},{"beat":237.5,"duration":0.06,"midi":42,"velocity":44,"voice":"hat","bar":59},{"beat":237.5,"duration":0.48,"midi":70,"velocity":62,"voice":"rhodes","bar":59},{"beat":237.5,"duration":0.16,"midi":50,"velocity":96,"voice":"tom","bar":59},{"beat":238,"duration":2,"midi":50,"velocity":102,"voice":"bass","bar":59},{"beat":238.0,"duration":0.06,"midi":42,"velocity":56,"voice":"hat","bar":59},{"beat":238,"duration":0.18,"midi":36,"velocity":116,"voice":"kick","bar":59},{"beat":238,"duration":1,"midi":72,"velocity":96,"voice":"lead","bar":59},{"beat":238.0,"duration":0.48,"midi":65,"velocity":74,"voice":"rhodes","bar":59},{"beat":238.5,"duration":0.06,"midi":42,"velocity":44,"voice":"hat","bar":59},{"beat":238.5,"duration":0.48,"midi":62,"velocity":62,"voice":"rhodes","bar":59},{"beat":238.5,"duration":0.16,"midi":45,"velocity":96,"voice":"tom","bar":59},{"beat":239.0,"duration":0.06,"midi":42,"velocity":56,"voice":"hat","bar":59},{"beat":239,"duration":0.18,"midi":36,"velocity":104,"voice":"kick","bar":59},{"beat":239,"duration":1,"midi":69,"velocity":96,"voice":"lead","bar":59},{"beat":239.0,"duration":0.48,"midi":58,"velocity":74,"voice":"rhodes","bar":59},{"beat":239,"duration":0.2,"midi":38,"velocity":110,"voice":"snare","bar":59},{"beat":239,"duration":0.16,"midi":47,"velocity":96,"voice":"tom","bar":59},{"beat":239.5,"duration":0.06,"midi":42,"velocity":44,"voice":"hat","bar":59},{"beat":239.5,"duration":0.48,"midi":62,"velocity":62,"voice":"rhodes","bar":59},{"beat":239.5,"duration":0.16,"midi":50,"velocity":96,"voice":"tom","bar":59},{"beat":240,"duration":0.5,"midi":41,"velocity":102,"voice":"bass","bar":60},{"beat":240.0,"duration":0.06,"midi":42,"velocity":56,"voice":"hat","bar":60},{"beat":240,"duration":0.18,"midi":36,"velocity":116,"voice":"kick","bar":60},{"beat":240,"duration":1,"midi":72,"velocity":96,"voice":"lead","bar":60},{"beat":240,"duration":4,"midi":53,"velocity":56,"voice":"pad","bar":60},{"beat":240,"duration":4,"midi":57,"velocity":56,"voice":"pad","bar":60},{"beat":240,"duration":4,"midi":60,"velocity":56,"voice":"pad","bar":60},{"beat":240.0,"duration":0.48,"midi":53,"velocity":74,"voice":"rhodes","bar":60},{"beat":240.5,"duration":0.5,"midi":45,"velocity":102,"voice":"bass","bar":60},{"beat":240.5,"duration":0.06,"midi":42,"velocity":44,"voice":"hat","bar":60},{"beat":240.5,"duration":0.48,"midi":57,"velocity":62,"voice":"rhodes","bar":60},{"beat":240.5,"duration":0.16,"midi":45,"velocity":96,"voice":"tom","bar":60},{"beat":241,"duration":1,"midi":48,"velocity":102,"voice":"bass","bar":60},{"beat":241.0,"duration":0.06,"midi":42,"velocity":56,"voice":"hat","bar":60},{"beat":241,"duration":0.18,"midi":36,"velocity":104,"voice":"kick","bar":60},{"beat":241,"duration":1,"midi":69,"velocity":96,"voice":"lead","bar":60},{"beat":241.0,"duration":0.48,"midi":60,"velocity":74,"voice":"rhodes","bar":60},{"beat":241,"duration":0.2,"midi":38,"velocity":110,"voice":"snare","bar":60},{"beat":241,"duration":0.16,"midi":47,"velocity":96,"voice":"tom","bar":60},{"beat":241.5,"duration":0.06,"midi":42,"velocity":44,"voice":"hat","bar":60},{"beat":241.5,"duration":0.48,"midi":65,"velocity":62,"voice":"rhodes","bar":60},{"beat":241.5,"duration":0.16,"midi":50,"velocity":96,"voice":"tom","bar":60},{"beat":242,"duration":2,"midi":45,"velocity":102,"voice":"bass","bar":60},{"beat":242.0,"duration":0.06,"midi":42,"velocity":56,"voice":"hat","bar":60},{"beat":242,"duration":0.18,"midi":36,"velocity":116,"voice":"kick","bar":60},{"beat":242,"duration":2,"midi":65,"velocity":96,"voice":"lead","bar":60},{"beat":242.0,"duration":0.48,"midi":60,"velocity":74,"voice":"rhodes","bar":60},{"beat":242.5,"duration":0.06,"midi":42,"velocity":44,"voice":"hat","bar":60},{"beat":242.5,"duration":0.48,"midi":57,"velocity":62,"voice":"rhodes","bar":60},{"beat":242.5,"duration":0.16,"midi":45,"velocity":96,"voice":"tom","bar":60},{"beat":243.0,"duration":0.06,"midi":42,"velocity":56,"voice":"hat","bar":60},{"beat":243,"duration":0.18,"midi":36,"velocity":104,"voice":"kick","bar":60},{"beat":243.0,"duration":0.48,"midi":53,"velocity":74,"voice":"rhodes","bar":60},{"beat":243,"duration":0.2,"midi":38,"velocity":110,"voice":"snare","bar":60},{"beat":243,"duration":0.16,"midi":47,"velocity":96,"voice":"tom","bar":60},{"beat":243.5,"duration":0.06,"midi":42,"velocity":44,"voice":"hat","bar":60},{"beat":243.5,"duration":0.48,"midi":57,"velocity":62,"voice":"rhodes","bar":60},{"beat":243.5,"duration":0.16,"midi":50,"velocity":96,"voice":"tom","bar":60},{"beat":244,"duration":1,"midi":48,"velocity":102,"voice":"bass","bar":61},{"beat":244.0,"duration":0.06,"midi":42,"velocity":56,"voice":"hat","bar":61},{"beat":244,"duration":0.18,"midi":36,"velocity":116,"voice":"kick","bar":61},{"beat":244,"duration":1,"midi":64,"velocity":96,"voice":"lead","bar":61},{"beat":244,"duration":4,"midi":60,"velocity":56,"voice":"pad","bar":61},{"beat":244,"duration":4,"midi":64,"velocity":56,"voice":"pad","bar":61},{"beat":244,"duration":4,"midi":67,"velocity":56,"voice":"pad","bar":61},{"beat":244.0,"duration":0.48,"midi":60,"velocity":74,"voice":"rhodes","bar":61},{"beat":244.5,"duration":0.06,"midi":42,"velocity":44,"voice":"hat","bar":61},{"beat":244.5,"duration":0.48,"midi":64,"velocity":62,"voice":"rhodes","bar":61},{"beat":244.5,"duration":0.16,"midi":45,"velocity":96,"voice":"tom","bar":61},{"beat":245,"duration":1,"midi":52,"velocity":102,"voice":"bass","bar":61},{"beat":245.0,"duration":0.06,"midi":42,"velocity":56,"voice":"hat","bar":61},{"beat":245,"duration":0.18,"midi":36,"velocity":104,"voice":"kick","bar":61},{"beat":245,"duration":1,"midi":67,"velocity":96,"voice":"lead","bar":61},{"beat":245.0,"duration":0.48,"midi":67,"velocity":74,"voice":"rhodes","bar":61},{"beat":245,"duration":0.2,"midi":38,"velocity":110,"voice":"snare","bar":61},{"beat":245,"duration":0.16,"midi":47,"velocity":96,"voice":"tom","bar":61},{"beat":245.5,"duration":0.06,"midi":42,"velocity":44,"voice":"hat","bar":61},{"beat":245.5,"duration":0.48,"midi":72,"velocity":62,"voice":"rhodes","bar":61},{"beat":245.5,"duration":0.16,"midi":50,"velocity":96,"voice":"tom","bar":61},{"beat":246,"duration":2,"midi":43,"velocity":102,"voice":"bass","bar":61},{"beat":246.0,"duration":0.06,"midi":42,"velocity":56,"voice":"hat","bar":61},{"beat":246,"duration":0.18,"midi":36,"velocity":116,"voice":"kick","bar":61},{"beat":246,"duration":2,"midi":72,"velocity":96,"voice":"lead","bar":61},{"beat":246.0,"duration":0.48,"midi":67,"velocity":74,"voice":"rhodes","bar":61},{"beat":246.5,"duration":0.06,"midi":42,"velocity":44,"voice":"hat","bar":61},{"beat":246.5,"duration":0.48,"midi":64,"velocity":62,"voice":"rhodes","bar":61},{"beat":246.5,"duration":0.16,"midi":45,"velocity":96,"voice":"tom","bar":61},{"beat":247.0,"duration":0.06,"midi":42,"velocity":56,"voice":"hat","bar":61},{"beat":247,"duration":0.18,"midi":36,"velocity":104,"voice":"kick","bar":61},{"beat":247.0,"duration":0.48,"midi":60,"velocity":74,"voice":"rhodes","bar":61},{"beat":247,"duration":0.2,"midi":38,"velocity":110,"voice":"snare","bar":61},{"beat":247,"duration":0.16,"midi":47,"velocity":96,"voice":"tom","bar":61},{"beat":247.5,"duration":0.06,"midi":42,"velocity":44,"voice":"hat","bar":61},{"beat":247.5,"duration":0.48,"midi":64,"velocity":62,"voice":"rhodes","bar":61},{"beat":247.5,"duration":0.16,"midi":50,"velocity":96,"voice":"tom","bar":61},{"beat":248,"duration":1,"midi":43,"velocity":102,"voice":"bass","bar":62},{"beat":248.0,"duration":0.06,"midi":42,"velocity":56,"voice":"hat","bar":62},{"beat":248,"duration":0.18,"midi":36,"velocity":116,"voice":"kick","bar":62},{"beat":248,"duration":1,"midi":74,"velocity":96,"voice":"lead","bar":62},{"beat":248,"duration":4,"midi":55,"velocity":56,"voice":"pad","bar":62},{"beat":248,"duration":4,"midi":59,"velocity":56,"voice":"pad","bar":62},{"beat":248,"duration":4,"midi":62,"velocity":56,"voice":"pad","bar":62},{"beat":248.0,"duration":0.48,"midi":55,"velocity":74,"voice":"rhodes","bar":62},{"beat":248.5,"duration":0.06,"midi":42,"velocity":44,"voice":"hat","bar":62},{"beat":248.5,"duration":0.48,"midi":59,"velocity":62,"voice":"rhodes","bar":62},{"beat":248.5,"duration":0.16,"midi":45,"velocity":96,"voice":"tom","bar":62},{"beat":249,"duration":1,"midi":50,"velocity":102,"voice":"bass","bar":62},{"beat":249.0,"duration":0.06,"midi":42,"velocity":56,"voice":"hat","bar":62},{"beat":249,"duration":0.18,"midi":36,"velocity":104,"voice":"kick","bar":62},{"beat":249,"duration":0.5,"midi":71,"velocity":96,"voice":"lead","bar":62},{"beat":249.0,"duration":0.48,"midi":62,"velocity":74,"voice":"rhodes","bar":62},{"beat":249,"duration":0.2,"midi":38,"velocity":110,"voice":"snare","bar":62},{"beat":249,"duration":0.16,"midi":47,"velocity":96,"voice":"tom","bar":62},{"beat":249.5,"duration":0.06,"midi":42,"velocity":44,"voice":"hat","bar":62},{"beat":249.5,"duration":0.5,"midi":74,"velocity":96,"voice":"lead","bar":62},{"beat":249.5,"duration":0.48,"midi":67,"velocity":62,"voice":"rhodes","bar":62},{"beat":249.5,"duration":0.16,"midi":50,"velocity":96,"voice":"tom","bar":62},{"beat":250,"duration":2,"midi":47,"velocity":102,"voice":"bass","bar":62},{"beat":250.0,"duration":0.06,"midi":42,"velocity":56,"voice":"hat","bar":62},{"beat":250,"duration":0.18,"midi":36,"velocity":116,"voice":"kick","bar":62},{"beat":250,"duration":2,"midi":71,"velocity":96,"voice":"lead","bar":62},{"beat":250.0,"duration":0.48,"midi":62,"velocity":74,"voice":"rhodes","bar":62},{"beat":250.5,"duration":0.06,"midi":42,"velocity":44,"voice":"hat","bar":62},{"beat":250.5,"duration":0.48,"midi":59,"velocity":62,"voice":"rhodes","bar":62},{"beat":250.5,"duration":0.16,"midi":45,"velocity":96,"voice":"tom","bar":62},{"beat":251.0,"duration":0.06,"midi":42,"velocity":56,"voice":"hat","bar":62},{"beat":251,"duration":0.18,"midi":36,"velocity":104,"voice":"kick","bar":62},{"beat":251.0,"duration":0.48,"midi":55,"velocity":74,"voice":"rhodes","bar":62},{"beat":251,"duration":0.2,"midi":38,"velocity":110,"voice":"snare","bar":62},{"beat":251,"duration":0.16,"midi":47,"velocity":96,"voice":"tom","bar":62},{"beat":251.5,"duration":0.06,"midi":42,"velocity":44,"voice":"hat","bar":62},{"beat":251.5,"duration":0.48,"midi":59,"velocity":62,"voice":"rhodes","bar":62},{"beat":251.5,"duration":0.16,"midi":50,"velocity":96,"voice":"tom","bar":62},{"beat":252,"duration":1,"midi":45,"velocity":102,"voice":"bass","bar":63},{"beat":252.0,"duration":0.06,"midi":42,"velocity":56,"voice":"hat","bar":63},{"beat":252,"duration":0.18,"midi":36,"velocity":116,"voice":"kick","bar":63},{"beat":252,"duration":2,"midi":73,"velocity":96,"voice":"lead","bar":63},{"beat":252,"duration":4,"midi":57,"velocity":56,"voice":"pad","bar":63},{"beat":252,"duration":4,"midi":61,"velocity":56,"voice":"pad","bar":63},{"beat":252,"duration":4,"midi":64,"velocity":56,"voice":"pad","bar":63},{"beat":252.0,"duration":0.48,"midi":57,"velocity":74,"voice":"rhodes","bar":63},{"beat":252.5,"duration":0.06,"midi":42,"velocity":44,"voice":"hat","bar":63},{"beat":252.5,"duration":0.48,"midi":61,"velocity":62,"voice":"rhodes","bar":63},{"beat":252.5,"duration":0.16,"midi":45,"velocity":96,"voice":"tom","bar":63},{"beat":253,"duration":1,"midi":52,"velocity":102,"voice":"bass","bar":63},{"beat":253.0,"duration":0.06,"midi":42,"velocity":56,"voice":"hat","bar":63},{"beat":253,"duration":0.18,"midi":36,"velocity":104,"voice":"kick","bar":63},{"beat":253.0,"duration":0.48,"midi":64,"velocity":74,"voice":"rhodes","bar":63},{"beat":253,"duration":0.2,"midi":38,"velocity":110,"voice":"snare","bar":63},{"beat":253,"duration":0.16,"midi":47,"velocity":96,"voice":"tom","bar":63},{"beat":253.5,"duration":0.06,"midi":42,"velocity":44,"voice":"hat","bar":63},{"beat":253.5,"duration":0.48,"midi":69,"velocity":62,"voice":"rhodes","bar":63},{"beat":253.5,"duration":0.16,"midi":50,"velocity":96,"voice":"tom","bar":63},{"beat":254,"duration":2,"midi":49,"velocity":102,"voice":"bass","bar":63},{"beat":254.0,"duration":0.06,"midi":42,"velocity":56,"voice":"hat","bar":63},{"beat":254,"duration":0.18,"midi":36,"velocity":116,"voice":"kick","bar":63},{"beat":254,"duration":2,"midi":69,"velocity":96,"voice":"lead","bar":63},{"beat":254.0,"duration":0.48,"midi":64,"velocity":74,"voice":"rhodes","bar":63},{"beat":254.5,"duration":0.06,"midi":42,"velocity":44,"voice":"hat","bar":63},{"beat":254.5,"duration":0.48,"midi":61,"velocity":62,"voice":"rhodes","bar":63},{"beat":254.5,"duration":0.16,"midi":45,"velocity":96,"voice":"tom","bar":63},{"beat":255.0,"duration":0.06,"midi":42,"velocity":56,"voice":"hat","bar":63},{"beat":255,"duration":0.18,"midi":36,"velocity":104,"voice":"kick","bar":63},{"beat":255.0,"duration":0.48,"midi":57,"velocity":74,"voice":"rhodes","bar":63},{"beat":255,"duration":0.2,"midi":38,"velocity":110,"voice":"snare","bar":63},{"beat":255,"duration":0.16,"midi":47,"velocity":96,"voice":"tom","bar":63},{"beat":255.5,"duration":0.06,"midi":42,"velocity":44,"voice":"hat","bar":63},{"beat":255.5,"duration":0.48,"midi":61,"velocity":62,"voice":"rhodes","bar":63},{"beat":255.5,"duration":0.16,"midi":50,"velocity":96,"voice":"tom","bar":63},{"beat":256,"duration":1,"midi":41,"velocity":102,"voice":"bass","bar":64},{"beat":256.0,"duration":0.06,"midi":42,"velocity":56,"voice":"hat","bar":64},{"beat":256,"duration":0.18,"midi":36,"velocity":116,"voice":"kick","bar":64},{"beat":256,"duration":2,"midi":69,"velocity":96,"voice":"lead","bar":64},{"beat":256,"duration":4,"midi":53,"velocity":56,"voice":"pad","bar":64},{"beat":256,"duration":4,"midi":57,"velocity":56,"voice":"pad","bar":64},{"beat":256,"duration":4,"midi":60,"velocity":56,"voice":"pad","bar":64},{"beat":256.0,"duration":0.48,"midi":53,"velocity":74,"voice":"rhodes","bar":64},{"beat":256.5,"duration":0.06,"midi":42,"velocity":44,"voice":"hat","bar":64},{"beat":256.5,"duration":0.48,"midi":57,"velocity":62,"voice":"rhodes","bar":64},{"beat":256.5,"duration":0.16,"midi":45,"velocity":96,"voice":"tom","bar":64},{"beat":257,"duration":1,"midi":48,"velocity":102,"voice":"bass","bar":64},{"beat":257.0,"duration":0.06,"midi":42,"velocity":56,"voice":"hat","bar":64},{"beat":257,"duration":0.18,"midi":36,"velocity":104,"voice":"kick","bar":64},{"beat":257.0,"duration":0.48,"midi":60,"velocity":74,"voice":"rhodes","bar":64},{"beat":257,"duration":0.2,"midi":38,"velocity":110,"voice":"snare","bar":64},{"beat":257,"duration":0.16,"midi":47,"velocity":96,"voice":"tom","bar":64},{"beat":257.5,"duration":0.06,"midi":42,"velocity":44,"voice":"hat","bar":64},{"beat":257.5,"duration":0.48,"midi":65,"velocity":62,"voice":"rhodes","bar":64},{"beat":257.5,"duration":0.16,"midi":50,"velocity":96,"voice":"tom","bar":64},{"beat":258,"duration":2,"midi":45,"velocity":102,"voice":"bass","bar":64},{"beat":258.0,"duration":0.06,"midi":42,"velocity":56,"voice":"hat","bar":64},{"beat":258,"duration":0.18,"midi":36,"velocity":116,"voice":"kick","bar":64},{"beat":258,"duration":1,"midi":72,"velocity":96,"voice":"lead","bar":64},{"beat":258.0,"duration":0.48,"midi":60,"velocity":74,"voice":"rhodes","bar":64},{"beat":258.5,"duration":0.06,"midi":42,"velocity":44,"voice":"hat","bar":64},{"beat":258.5,"duration":0.48,"midi":57,"velocity":62,"voice":"rhodes","bar":64},{"beat":258.5,"duration":0.16,"midi":45,"velocity":96,"voice":"tom","bar":64},{"beat":259.0,"duration":0.06,"midi":42,"velocity":56,"voice":"hat","bar":64},{"beat":259,"duration":0.18,"midi":36,"velocity":104,"voice":"kick","bar":64},{"beat":259,"duration":1,"midi":69,"velocity":96,"voice":"lead","bar":64},{"beat":259.0,"duration":0.48,"midi":53,"velocity":74,"voice":"rhodes","bar":64},{"beat":259,"duration":0.2,"midi":38,"velocity":110,"voice":"snare","bar":64},{"beat":259,"duration":0.16,"midi":47,"velocity":96,"voice":"tom","bar":64},{"beat":259.5,"duration":0.06,"midi":42,"velocity":44,"voice":"hat","bar":64},{"beat":259.5,"duration":0.48,"midi":57,"velocity":62,"voice":"rhodes","bar":64},{"beat":259.5,"duration":0.16,"midi":50,"velocity":96,"voice":"tom","bar":64},{"beat":260,"duration":1,"midi":48,"velocity":102,"voice":"bass","bar":65},{"beat":260.0,"duration":0.06,"midi":42,"velocity":56,"voice":"hat","bar":65},{"beat":260,"duration":0.18,"midi":36,"velocity":116,"voice":"kick","bar":65},{"beat":260,"duration":1.5,"midi":67,"velocity":96,"voice":"lead","bar":65},{"beat":260,"duration":4,"midi":60,"velocity":56,"voice":"pad","bar":65},{"beat":260,"duration":4,"midi":64,"velocity":56,"voice":"pad","bar":65},{"beat":260,"duration":4,"midi":67,"velocity":56,"voice":"pad","bar":65},{"beat":260.0,"duration":0.48,"midi":60,"velocity":74,"voice":"rhodes","bar":65},{"beat":260.5,"duration":0.06,"midi":42,"velocity":44,"voice":"hat","bar":65},{"beat":260.5,"duration":0.48,"midi":64,"velocity":62,"voice":"rhodes","bar":65},{"beat":260.5,"duration":0.16,"midi":45,"velocity":96,"voice":"tom","bar":65},{"beat":261,"duration":1,"midi":43,"velocity":102,"voice":"bass","bar":65},{"beat":261.0,"duration":0.06,"midi":42,"velocity":56,"voice":"hat","bar":65},{"beat":261,"duration":0.18,"midi":36,"velocity":104,"voice":"kick","bar":65},{"beat":261.0,"duration":0.48,"midi":67,"velocity":74,"voice":"rhodes","bar":65},{"beat":261,"duration":0.2,"midi":38,"velocity":110,"voice":"snare","bar":65},{"beat":261,"duration":0.16,"midi":47,"velocity":96,"voice":"tom","bar":65},{"beat":261.5,"duration":0.06,"midi":42,"velocity":44,"voice":"hat","bar":65},{"beat":261.5,"duration":0.5,"midi":69,"velocity":96,"voice":"lead","bar":65},{"beat":261.5,"duration":0.48,"midi":72,"velocity":62,"voice":"rhodes","bar":65},{"beat":261.5,"duration":0.16,"midi":50,"velocity":96,"voice":"tom","bar":65},{"beat":262,"duration":2,"midi":52,"velocity":102,"voice":"bass","bar":65},{"beat":262.0,"duration":0.06,"midi":42,"velocity":56,"voice":"hat","bar":65},{"beat":262,"duration":0.18,"midi":36,"velocity":116,"voice":"kick","bar":65},{"beat":262,"duration":2,"midi":64,"velocity":96,"voice":"lead","bar":65},{"beat":262.0,"duration":0.48,"midi":67,"velocity":74,"voice":"rhodes","bar":65},{"beat":262.5,"duration":0.06,"midi":42,"velocity":44,"voice":"hat","bar":65},{"beat":262.5,"duration":0.48,"midi":64,"velocity":62,"voice":"rhodes","bar":65},{"beat":262.5,"duration":0.16,"midi":45,"velocity":96,"voice":"tom","bar":65},{"beat":263.0,"duration":0.06,"midi":42,"velocity":56,"voice":"hat","bar":65},{"beat":263,"duration":0.18,"midi":36,"velocity":104,"voice":"kick","bar":65},{"beat":263.0,"duration":0.48,"midi":60,"velocity":74,"voice":"rhodes","bar":65},{"beat":263,"duration":0.2,"midi":38,"velocity":110,"voice":"snare","bar":65},{"beat":263,"duration":0.16,"midi":47,"velocity":96,"voice":"tom","bar":65},{"beat":263.5,"duration":0.06,"midi":42,"velocity":44,"voice":"hat","bar":65},{"beat":263.5,"duration":0.48,"midi":64,"velocity":62,"voice":"rhodes","bar":65},{"beat":263.5,"duration":0.16,"midi":50,"velocity":96,"voice":"tom","bar":65},{"beat":264,"duration":1,"midi":38,"velocity":102,"voice":"bass","bar":66},{"beat":264.0,"duration":0.06,"midi":42,"velocity":56,"voice":"hat","bar":66},{"beat":264,"duration":0.18,"midi":36,"velocity":116,"voice":"kick","bar":66},{"beat":264,"duration":1,"midi":65,"velocity":96,"voice":"lead","bar":66},{"beat":264,"duration":4,"midi":50,"velocity":56,"voice":"pad","bar":66},{"beat":264,"duration":4,"midi":53,"velocity":56,"voice":"pad","bar":66},{"beat":264,"duration":4,"midi":57,"velocity":56,"voice":"pad","bar":66},{"beat":264.0,"duration":0.48,"midi":50,"velocity":74,"voice":"rhodes","bar":66},{"beat":264.5,"duration":0.06,"midi":42,"velocity":44,"voice":"hat","bar":66},{"beat":264.5,"duration":0.48,"midi":53,"velocity":62,"voice":"rhodes","bar":66},{"beat":264.5,"duration":0.16,"midi":45,"velocity":96,"voice":"tom","bar":66},{"beat":265,"duration":1,"midi":45,"velocity":102,"voice":"bass","bar":66},{"beat":265.0,"duration":0.06,"midi":42,"velocity":56,"voice":"hat","bar":66},{"beat":265,"duration":0.18,"midi":36,"velocity":104,"voice":"kick","bar":66},{"beat":265,"duration":1,"midi":69,"velocity":96,"voice":"lead","bar":66},{"beat":265.0,"duration":0.48,"midi":57,"velocity":74,"voice":"rhodes","bar":66},{"beat":265,"duration":0.2,"midi":38,"velocity":110,"voice":"snare","bar":66},{"beat":265,"duration":0.16,"midi":47,"velocity":96,"voice":"tom","bar":66},{"beat":265.5,"duration":0.06,"midi":42,"velocity":44,"voice":"hat","bar":66},{"beat":265.5,"duration":0.48,"midi":62,"velocity":62,"voice":"rhodes","bar":66},{"beat":265.5,"duration":0.16,"midi":50,"velocity":96,"voice":"tom","bar":66},{"beat":266,"duration":2,"midi":50,"velocity":102,"voice":"bass","bar":66},{"beat":266.0,"duration":0.06,"midi":42,"velocity":56,"voice":"hat","bar":66},{"beat":266,"duration":0.18,"midi":36,"velocity":116,"voice":"kick","bar":66},{"beat":266,"duration":1,"midi":74,"velocity":96,"voice":"lead","bar":66},{"beat":266.0,"duration":0.48,"midi":57,"velocity":74,"voice":"rhodes","bar":66},{"beat":266.5,"duration":0.06,"midi":42,"velocity":44,"voice":"hat","bar":66},{"beat":266.5,"duration":0.48,"midi":53,"velocity":62,"voice":"rhodes","bar":66},{"beat":266.5,"duration":0.16,"midi":45,"velocity":96,"voice":"tom","bar":66},{"beat":267.0,"duration":0.06,"midi":42,"velocity":56,"voice":"hat","bar":66},{"beat":267,"duration":0.18,"midi":36,"velocity":104,"voice":"kick","bar":66},{"beat":267,"duration":1,"midi":69,"velocity":96,"voice":"lead","bar":66},{"beat":267.0,"duration":0.48,"midi":50,"velocity":74,"voice":"rhodes","bar":66},{"beat":267,"duration":0.2,"midi":38,"velocity":110,"voice":"snare","bar":66},{"beat":267,"duration":0.16,"midi":47,"velocity":96,"voice":"tom","bar":66},{"beat":267.5,"duration":0.06,"midi":42,"velocity":44,"voice":"hat","bar":66},{"beat":267.5,"duration":0.48,"midi":53,"velocity":62,"voice":"rhodes","bar":66},{"beat":267.5,"duration":0.16,"midi":50,"velocity":96,"voice":"tom","bar":66},{"beat":268,"duration":1,"midi":46,"velocity":102,"voice":"bass","bar":67},{"beat":268.0,"duration":0.06,"midi":42,"velocity":56,"voice":"hat","bar":67},{"beat":268,"duration":0.18,"midi":36,"velocity":116,"voice":"kick","bar":67},{"beat":268,"duration":2,"midi":74,"velocity":96,"voice":"lead","bar":67},{"beat":268,"duration":4,"midi":58,"velocity":56,"voice":"pad","bar":67},{"beat":268,"duration":4,"midi":62,"velocity":56,"voice":"pad","bar":67},{"beat":268,"duration":4,"midi":65,"velocity":56,"voice":"pad","bar":67},{"beat":268.0,"duration":0.48,"midi":58,"velocity":74,"voice":"rhodes","bar":67},{"beat":268.5,"duration":0.06,"midi":42,"velocity":44,"voice":"hat","bar":67},{"beat":268.5,"duration":0.48,"midi":62,"velocity":62,"voice":"rhodes","bar":67},{"beat":268.5,"duration":0.16,"midi":45,"velocity":96,"voice":"tom","bar":67},{"beat":269,"duration":1,"midi":41,"velocity":102,"voice":"bass","bar":67},{"beat":269.0,"duration":0.06,"midi":42,"velocity":56,"voice":"hat","bar":67},{"beat":269,"duration":0.18,"midi":36,"velocity":104,"voice":"kick","bar":67},{"beat":269.0,"duration":0.48,"midi":65,"velocity":74,"voice":"rhodes","bar":67},{"beat":269,"duration":0.2,"midi":38,"velocity":110,"voice":"snare","bar":67},{"beat":269,"duration":0.16,"midi":47,"velocity":96,"voice":"tom","bar":67},{"beat":269.5,"duration":0.06,"midi":42,"velocity":44,"voice":"hat","bar":67},{"beat":269.5,"duration":0.48,"midi":70,"velocity":62,"voice":"rhodes","bar":67},{"beat":269.5,"duration":0.16,"midi":50,"velocity":96,"voice":"tom","bar":67},{"beat":270,"duration":2,"midi":50,"velocity":102,"voice":"bass","bar":67},{"beat":270.0,"duration":0.06,"midi":42,"velocity":56,"voice":"hat","bar":67},{"beat":270,"duration":0.18,"midi":36,"velocity":116,"voice":"kick","bar":67},{"beat":270,"duration":1,"midi":72,"velocity":96,"voice":"lead","bar":67},{"beat":270.0,"duration":0.48,"midi":65,"velocity":74,"voice":"rhodes","bar":67},{"beat":270.5,"duration":0.06,"midi":42,"velocity":44,"voice":"hat","bar":67},{"beat":270.5,"duration":0.48,"midi":62,"velocity":62,"voice":"rhodes","bar":67},{"beat":270.5,"duration":0.16,"midi":45,"velocity":96,"voice":"tom","bar":67},{"beat":271.0,"duration":0.06,"midi":42,"velocity":56,"voice":"hat","bar":67},{"beat":271,"duration":0.18,"midi":36,"velocity":104,"voice":"kick","bar":67},{"beat":271,"duration":1,"midi":69,"velocity":96,"voice":"lead","bar":67},{"beat":271.0,"duration":0.48,"midi":58,"velocity":74,"voice":"rhodes","bar":67},{"beat":271,"duration":0.2,"midi":38,"velocity":110,"voice":"snare","bar":67},{"beat":271,"duration":0.16,"midi":47,"velocity":96,"voice":"tom","bar":67},{"beat":271.5,"duration":0.06,"midi":42,"velocity":44,"voice":"hat","bar":67},{"beat":271.5,"duration":0.48,"midi":62,"velocity":62,"voice":"rhodes","bar":67},{"beat":271.5,"duration":0.16,"midi":50,"velocity":96,"voice":"tom","bar":67},{"beat":272,"duration":0.5,"midi":41,"velocity":102,"voice":"bass","bar":68},{"beat":272.0,"duration":0.06,"midi":42,"velocity":56,"voice":"hat","bar":68},{"beat":272,"duration":0.18,"midi":36,"velocity":116,"voice":"kick","bar":68},{"beat":272,"duration":1,"midi":72,"velocity":96,"voice":"lead","bar":68},{"beat":272,"duration":4,"midi":53,"velocity":56,"voice":"pad","bar":68},{"beat":272,"duration":4,"midi":57,"velocity":56,"voice":"pad","bar":68},{"beat":272,"duration":4,"midi":60,"velocity":56,"voice":"pad","bar":68},{"beat":272.0,"duration":0.48,"midi":53,"velocity":74,"voice":"rhodes","bar":68},{"beat":272.5,"duration":0.5,"midi":45,"velocity":102,"voice":"bass","bar":68},{"beat":272.5,"duration":0.06,"midi":42,"velocity":44,"voice":"hat","bar":68},{"beat":272.5,"duration":0.48,"midi":57,"velocity":62,"voice":"rhodes","bar":68},{"beat":272.5,"duration":0.16,"midi":45,"velocity":96,"voice":"tom","bar":68},{"beat":273,"duration":1,"midi":48,"velocity":102,"voice":"bass","bar":68},{"beat":273.0,"duration":0.06,"midi":42,"velocity":56,"voice":"hat","bar":68},{"beat":273,"duration":0.18,"midi":36,"velocity":104,"voice":"kick","bar":68},{"beat":273,"duration":1,"midi":69,"velocity":96,"voice":"lead","bar":68},{"beat":273.0,"duration":0.48,"midi":60,"velocity":74,"voice":"rhodes","bar":68},{"beat":273,"duration":0.2,"midi":38,"velocity":110,"voice":"snare","bar":68},{"beat":273,"duration":0.16,"midi":47,"velocity":96,"voice":"tom","bar":68},{"beat":273.5,"duration":0.06,"midi":42,"velocity":44,"voice":"hat","bar":68},{"beat":273.5,"duration":0.48,"midi":65,"velocity":62,"voice":"rhodes","bar":68},{"beat":273.5,"duration":0.16,"midi":50,"velocity":96,"voice":"tom","bar":68},{"beat":274,"duration":2,"midi":45,"velocity":102,"voice":"bass","bar":68},{"beat":274.0,"duration":0.06,"midi":42,"velocity":56,"voice":"hat","bar":68},{"beat":274,"duration":0.18,"midi":36,"velocity":116,"voice":"kick","bar":68},{"beat":274,"duration":2,"midi":65,"velocity":96,"voice":"lead","bar":68},{"beat":274.0,"duration":0.48,"midi":60,"velocity":74,"voice":"rhodes","bar":68},{"beat":274.5,"duration":0.06,"midi":42,"velocity":44,"voice":"hat","bar":68},{"beat":274.5,"duration":0.48,"midi":57,"velocity":62,"voice":"rhodes","bar":68},{"beat":274.5,"duration":0.16,"midi":45,"velocity":96,"voice":"tom","bar":68},{"beat":275.0,"duration":0.06,"midi":42,"velocity":56,"voice":"hat","bar":68},{"beat":275,"duration":0.18,"midi":36,"velocity":104,"voice":"kick","bar":68},{"beat":275.0,"duration":0.48,"midi":53,"velocity":74,"voice":"rhodes","bar":68},{"beat":275,"duration":0.2,"midi":38,"velocity":110,"voice":"snare","bar":68},{"beat":275,"duration":0.16,"midi":47,"velocity":96,"voice":"tom","bar":68},{"beat":275.5,"duration":0.06,"midi":42,"velocity":44,"voice":"hat","bar":68},{"beat":275.5,"duration":0.48,"midi":57,"velocity":62,"voice":"rhodes","bar":68},{"beat":275.5,"duration":0.16,"midi":50,"velocity":96,"voice":"tom","bar":68},{"beat":276,"duration":1,"midi":48,"velocity":102,"voice":"bass","bar":69},{"beat":276.0,"duration":0.06,"midi":42,"velocity":56,"voice":"hat","bar":69},{"beat":276,"duration":0.18,"midi":36,"velocity":116,"voice":"kick","bar":69},{"beat":276,"duration":1,"midi":64,"velocity":96,"voice":"lead","bar":69},{"beat":276,"duration":4,"midi":60,"velocity":56,"voice":"pad","bar":69},{"beat":276,"duration":4,"midi":64,"velocity":56,"voice":"pad","bar":69},{"beat":276,"duration":4,"midi":67,"velocity":56,"voice":"pad","bar":69},{"beat":276.0,"duration":0.48,"midi":60,"velocity":74,"voice":"rhodes","bar":69},{"beat":276.5,"duration":0.06,"midi":42,"velocity":44,"voice":"hat","bar":69},{"beat":276.5,"duration":0.48,"midi":64,"velocity":62,"voice":"rhodes","bar":69},{"beat":276.5,"duration":0.16,"midi":45,"velocity":96,"voice":"tom","bar":69},{"beat":277,"duration":1,"midi":52,"velocity":102,"voice":"bass","bar":69},{"beat":277.0,"duration":0.06,"midi":42,"velocity":56,"voice":"hat","bar":69},{"beat":277,"duration":0.18,"midi":36,"velocity":104,"voice":"kick","bar":69},{"beat":277,"duration":1,"midi":67,"velocity":96,"voice":"lead","bar":69},{"beat":277.0,"duration":0.48,"midi":67,"velocity":74,"voice":"rhodes","bar":69},{"beat":277,"duration":0.2,"midi":38,"velocity":110,"voice":"snare","bar":69},{"beat":277,"duration":0.16,"midi":47,"velocity":96,"voice":"tom","bar":69},{"beat":277.5,"duration":0.06,"midi":42,"velocity":44,"voice":"hat","bar":69},{"beat":277.5,"duration":0.48,"midi":72,"velocity":62,"voice":"rhodes","bar":69},{"beat":277.5,"duration":0.16,"midi":50,"velocity":96,"voice":"tom","bar":69},{"beat":278,"duration":2,"midi":43,"velocity":102,"voice":"bass","bar":69},{"beat":278.0,"duration":0.06,"midi":42,"velocity":56,"voice":"hat","bar":69},{"beat":278,"duration":0.18,"midi":36,"velocity":116,"voice":"kick","bar":69},{"beat":278,"duration":2,"midi":72,"velocity":96,"voice":"lead","bar":69},{"beat":278.0,"duration":0.48,"midi":67,"velocity":74,"voice":"rhodes","bar":69},{"beat":278.5,"duration":0.06,"midi":42,"velocity":44,"voice":"hat","bar":69},{"beat":278.5,"duration":0.48,"midi":64,"velocity":62,"voice":"rhodes","bar":69},{"beat":278.5,"duration":0.16,"midi":45,"velocity":96,"voice":"tom","bar":69},{"beat":279.0,"duration":0.06,"midi":42,"velocity":56,"voice":"hat","bar":69},{"beat":279,"duration":0.18,"midi":36,"velocity":104,"voice":"kick","bar":69},{"beat":279.0,"duration":0.48,"midi":60,"velocity":74,"voice":"rhodes","bar":69},{"beat":279,"duration":0.2,"midi":38,"velocity":110,"voice":"snare","bar":69},{"beat":279,"duration":0.16,"midi":47,"velocity":96,"voice":"tom","bar":69},{"beat":279.5,"duration":0.06,"midi":42,"velocity":44,"voice":"hat","bar":69},{"beat":279.5,"duration":0.48,"midi":64,"velocity":62,"voice":"rhodes","bar":69},{"beat":279.5,"duration":0.16,"midi":50,"velocity":96,"voice":"tom","bar":69},{"beat":280,"duration":1,"midi":43,"velocity":102,"voice":"bass","bar":70},{"beat":280.0,"duration":0.06,"midi":42,"velocity":56,"voice":"hat","bar":70},{"beat":280,"duration":0.18,"midi":36,"velocity":116,"voice":"kick","bar":70},{"beat":280,"duration":1,"midi":74,"velocity":96,"voice":"lead","bar":70},{"beat":280,"duration":4,"midi":55,"velocity":56,"voice":"pad","bar":70},{"beat":280,"duration":4,"midi":59,"velocity":56,"voice":"pad","bar":70},{"beat":280,"duration":4,"midi":62,"velocity":56,"voice":"pad","bar":70},{"beat":280.0,"duration":0.48,"midi":55,"velocity":74,"voice":"rhodes","bar":70},{"beat":280.5,"duration":0.06,"midi":42,"velocity":44,"voice":"hat","bar":70},{"beat":280.5,"duration":0.48,"midi":59,"velocity":62,"voice":"rhodes","bar":70},{"beat":280.5,"duration":0.16,"midi":45,"velocity":96,"voice":"tom","bar":70},{"beat":281,"duration":1,"midi":50,"velocity":102,"voice":"bass","bar":70},{"beat":281.0,"duration":0.06,"midi":42,"velocity":56,"voice":"hat","bar":70},{"beat":281,"duration":0.18,"midi":36,"velocity":104,"voice":"kick","bar":70},{"beat":281,"duration":0.5,"midi":71,"velocity":96,"voice":"lead","bar":70},{"beat":281.0,"duration":0.48,"midi":62,"velocity":74,"voice":"rhodes","bar":70},{"beat":281,"duration":0.2,"midi":38,"velocity":110,"voice":"snare","bar":70},{"beat":281,"duration":0.16,"midi":47,"velocity":96,"voice":"tom","bar":70},{"beat":281.5,"duration":0.06,"midi":42,"velocity":44,"voice":"hat","bar":70},{"beat":281.5,"duration":0.5,"midi":74,"velocity":96,"voice":"lead","bar":70},{"beat":281.5,"duration":0.48,"midi":67,"velocity":62,"voice":"rhodes","bar":70},{"beat":281.5,"duration":0.16,"midi":50,"velocity":96,"voice":"tom","bar":70},{"beat":282,"duration":2,"midi":47,"velocity":102,"voice":"bass","bar":70},{"beat":282.0,"duration":0.06,"midi":42,"velocity":56,"voice":"hat","bar":70},{"beat":282,"duration":0.18,"midi":36,"velocity":116,"voice":"kick","bar":70},{"beat":282,"duration":2,"midi":71,"velocity":96,"voice":"lead","bar":70},{"beat":282.0,"duration":0.48,"midi":62,"velocity":74,"voice":"rhodes","bar":70},{"beat":282.5,"duration":0.06,"midi":42,"velocity":44,"voice":"hat","bar":70},{"beat":282.5,"duration":0.48,"midi":59,"velocity":62,"voice":"rhodes","bar":70},{"beat":282.5,"duration":0.16,"midi":45,"velocity":96,"voice":"tom","bar":70},{"beat":283.0,"duration":0.06,"midi":42,"velocity":56,"voice":"hat","bar":70},{"beat":283,"duration":0.18,"midi":36,"velocity":104,"voice":"kick","bar":70},{"beat":283.0,"duration":0.48,"midi":55,"velocity":74,"voice":"rhodes","bar":70},{"beat":283,"duration":0.2,"midi":38,"velocity":110,"voice":"snare","bar":70},{"beat":283,"duration":0.16,"midi":47,"velocity":96,"voice":"tom","bar":70},{"beat":283.5,"duration":0.06,"midi":42,"velocity":44,"voice":"hat","bar":70},{"beat":283.5,"duration":0.48,"midi":59,"velocity":62,"voice":"rhodes","bar":70},{"beat":283.5,"duration":0.16,"midi":50,"velocity":96,"voice":"tom","bar":70},{"beat":284,"duration":1,"midi":45,"velocity":102,"voice":"bass","bar":71},{"beat":284.0,"duration":0.06,"midi":42,"velocity":56,"voice":"hat","bar":71},{"beat":284,"duration":0.18,"midi":36,"velocity":116,"voice":"kick","bar":71},{"beat":284,"duration":2,"midi":73,"velocity":96,"voice":"lead","bar":71},{"beat":284,"duration":4,"midi":57,"velocity":56,"voice":"pad","bar":71},{"beat":284,"duration":4,"midi":61,"velocity":56,"voice":"pad","bar":71},{"beat":284,"duration":4,"midi":64,"velocity":56,"voice":"pad","bar":71},{"beat":284.0,"duration":0.48,"midi":57,"velocity":74,"voice":"rhodes","bar":71},{"beat":284.5,"duration":0.06,"midi":42,"velocity":44,"voice":"hat","bar":71},{"beat":284.5,"duration":0.48,"midi":61,"velocity":62,"voice":"rhodes","bar":71},{"beat":284.5,"duration":0.16,"midi":45,"velocity":96,"voice":"tom","bar":71},{"beat":285,"duration":1,"midi":52,"velocity":102,"voice":"bass","bar":71},{"beat":285.0,"duration":0.06,"midi":42,"velocity":56,"voice":"hat","bar":71},{"beat":285,"duration":0.18,"midi":36,"velocity":104,"voice":"kick","bar":71},{"beat":285.0,"duration":0.48,"midi":64,"velocity":74,"voice":"rhodes","bar":71},{"beat":285,"duration":0.2,"midi":38,"velocity":110,"voice":"snare","bar":71},{"beat":285,"duration":0.16,"midi":47,"velocity":96,"voice":"tom","bar":71},{"beat":285.5,"duration":0.06,"midi":42,"velocity":44,"voice":"hat","bar":71},{"beat":285.5,"duration":0.48,"midi":69,"velocity":62,"voice":"rhodes","bar":71},{"beat":285.5,"duration":0.16,"midi":50,"velocity":96,"voice":"tom","bar":71},{"beat":286,"duration":2,"midi":49,"velocity":102,"voice":"bass","bar":71},{"beat":286.0,"duration":0.06,"midi":42,"velocity":56,"voice":"hat","bar":71},{"beat":286,"duration":0.18,"midi":36,"velocity":116,"voice":"kick","bar":71},{"beat":286,"duration":2,"midi":69,"velocity":96,"voice":"lead","bar":71},{"beat":286.0,"duration":0.48,"midi":64,"velocity":74,"voice":"rhodes","bar":71},{"beat":286.5,"duration":0.06,"midi":42,"velocity":44,"voice":"hat","bar":71},{"beat":286.5,"duration":0.48,"midi":61,"velocity":62,"voice":"rhodes","bar":71},{"beat":286.5,"duration":0.16,"midi":45,"velocity":96,"voice":"tom","bar":71},{"beat":287.0,"duration":0.06,"midi":42,"velocity":56,"voice":"hat","bar":71},{"beat":287,"duration":0.18,"midi":36,"velocity":104,"voice":"kick","bar":71},{"beat":287.0,"duration":0.48,"midi":57,"velocity":74,"voice":"rhodes","bar":71},{"beat":287,"duration":0.2,"midi":38,"velocity":110,"voice":"snare","bar":71},{"beat":287,"duration":0.16,"midi":47,"velocity":96,"voice":"tom","bar":71},{"beat":287.5,"duration":0.06,"midi":42,"velocity":44,"voice":"hat","bar":71},{"beat":287.5,"duration":0.48,"midi":61,"velocity":62,"voice":"rhodes","bar":71},{"beat":287.5,"duration":0.16,"midi":50,"velocity":96,"voice":"tom","bar":71},{"beat":288,"duration":1,"midi":41,"velocity":102,"voice":"bass","bar":72},{"beat":288.0,"duration":0.06,"midi":42,"velocity":56,"voice":"hat","bar":72},{"beat":288,"duration":0.18,"midi":36,"velocity":116,"voice":"kick","bar":72},{"beat":288,"duration":2,"midi":69,"velocity":96,"voice":"lead","bar":72},{"beat":288,"duration":4,"midi":53,"velocity":56,"voice":"pad","bar":72},{"beat":288,"duration":4,"midi":57,"velocity":56,"voice":"pad","bar":72},{"beat":288,"duration":4,"midi":60,"velocity":56,"voice":"pad","bar":72},{"beat":288.0,"duration":0.48,"midi":53,"velocity":74,"voice":"rhodes","bar":72},{"beat":288,"duration":2,"midi":69,"velocity":110,"voice":"voxF","bar":72,"vowel":"a"},{"beat":288.5,"duration":0.06,"midi":42,"velocity":44,"voice":"hat","bar":72},{"beat":288.5,"duration":0.48,"midi":57,"velocity":62,"voice":"rhodes","bar":72},{"beat":289,"duration":1,"midi":48,"velocity":102,"voice":"bass","bar":72},{"beat":289.0,"duration":0.06,"midi":42,"velocity":56,"voice":"hat","bar":72},{"beat":289,"duration":0.18,"midi":36,"velocity":104,"voice":"kick","bar":72},{"beat":289.0,"duration":0.48,"midi":60,"velocity":74,"voice":"rhodes","bar":72},{"beat":289,"duration":0.2,"midi":38,"velocity":110,"voice":"snare","bar":72},{"beat":289.5,"duration":0.06,"midi":42,"velocity":44,"voice":"hat","bar":72},{"beat":289.5,"duration":0.48,"midi":65,"velocity":62,"voice":"rhodes","bar":72},{"beat":290,"duration":2,"midi":45,"velocity":102,"voice":"bass","bar":72},{"beat":290.0,"duration":0.06,"midi":42,"velocity":56,"voice":"hat","bar":72},{"beat":290,"duration":0.18,"midi":36,"velocity":116,"voice":"kick","bar":72},{"beat":290,"duration":1,"midi":72,"velocity":96,"voice":"lead","bar":72},{"beat":290.0,"duration":0.48,"midi":60,"velocity":74,"voice":"rhodes","bar":72},{"beat":290,"duration":2,"midi":72,"velocity":110,"voice":"voxF","bar":72,"vowel":"o"},{"beat":290.5,"duration":0.06,"midi":42,"velocity":44,"voice":"hat","bar":72},{"beat":290.5,"duration":0.48,"midi":57,"velocity":62,"voice":"rhodes","bar":72},{"beat":291.0,"duration":0.06,"midi":42,"velocity":56,"voice":"hat","bar":72},{"beat":291,"duration":0.18,"midi":36,"velocity":104,"voice":"kick","bar":72},{"beat":291,"duration":1,"midi":69,"velocity":96,"voice":"lead","bar":72},{"beat":291.0,"duration":0.48,"midi":53,"velocity":74,"voice":"rhodes","bar":72},{"beat":291,"duration":0.2,"midi":38,"velocity":110,"voice":"snare","bar":72},{"beat":291.5,"duration":0.06,"midi":42,"velocity":44,"voice":"hat","bar":72},{"beat":291.5,"duration":0.48,"midi":57,"velocity":62,"voice":"rhodes","bar":72},{"beat":292,"duration":1,"midi":48,"velocity":102,"voice":"bass","bar":73},{"beat":292.0,"duration":0.06,"midi":42,"velocity":56,"voice":"hat","bar":73},{"beat":292,"duration":0.18,"midi":36,"velocity":116,"voice":"kick","bar":73},{"beat":292,"duration":1.5,"midi":67,"velocity":96,"voice":"lead","bar":73},{"beat":292,"duration":4,"midi":60,"velocity":56,"voice":"pad","bar":73},{"beat":292,"duration":4,"midi":64,"velocity":56,"voice":"pad","bar":73},{"beat":292,"duration":4,"midi":67,"velocity":56,"voice":"pad","bar":73},{"beat":292.0,"duration":0.48,"midi":60,"velocity":74,"voice":"rhodes","bar":73},{"beat":292,"duration":2,"midi":67,"velocity":110,"voice":"voxF","bar":73,"vowel":"e"},{"beat":292.5,"duration":0.06,"midi":42,"velocity":44,"voice":"hat","bar":73},{"beat":292.5,"duration":0.48,"midi":64,"velocity":62,"voice":"rhodes","bar":73},{"beat":293,"duration":1,"midi":43,"velocity":102,"voice":"bass","bar":73},{"beat":293.0,"duration":0.06,"midi":42,"velocity":56,"voice":"hat","bar":73},{"beat":293,"duration":0.18,"midi":36,"velocity":104,"voice":"kick","bar":73},{"beat":293.0,"duration":0.48,"midi":67,"velocity":74,"voice":"rhodes","bar":73},{"beat":293,"duration":0.2,"midi":38,"velocity":110,"voice":"snare","bar":73},{"beat":293.5,"duration":0.06,"midi":42,"velocity":44,"voice":"hat","bar":73},{"beat":293.5,"duration":0.5,"midi":69,"velocity":96,"voice":"lead","bar":73},{"beat":293.5,"duration":0.48,"midi":72,"velocity":62,"voice":"rhodes","bar":73},{"beat":294,"duration":2,"midi":52,"velocity":102,"voice":"bass","bar":73},{"beat":294.0,"duration":0.06,"midi":42,"velocity":56,"voice":"hat","bar":73},{"beat":294,"duration":0.18,"midi":36,"velocity":116,"voice":"kick","bar":73},{"beat":294,"duration":2,"midi":64,"velocity":96,"voice":"lead","bar":73},{"beat":294.0,"duration":0.48,"midi":67,"velocity":74,"voice":"rhodes","bar":73},{"beat":294,"duration":2,"midi":64,"velocity":110,"voice":"voxF","bar":73,"vowel":"a"},{"beat":294.5,"duration":0.06,"midi":42,"velocity":44,"voice":"hat","bar":73},{"beat":294.5,"duration":0.48,"midi":64,"velocity":62,"voice":"rhodes","bar":73},{"beat":295.0,"duration":0.06,"midi":42,"velocity":56,"voice":"hat","bar":73},{"beat":295,"duration":0.18,"midi":36,"velocity":104,"voice":"kick","bar":73},{"beat":295.0,"duration":0.48,"midi":60,"velocity":74,"voice":"rhodes","bar":73},{"beat":295,"duration":0.2,"midi":38,"velocity":110,"voice":"snare","bar":73},{"beat":295.5,"duration":0.06,"midi":42,"velocity":44,"voice":"hat","bar":73},{"beat":295.5,"duration":0.48,"midi":64,"velocity":62,"voice":"rhodes","bar":73},{"beat":296,"duration":1,"midi":38,"velocity":102,"voice":"bass","bar":74},{"beat":296.0,"duration":0.06,"midi":42,"velocity":56,"voice":"hat","bar":74},{"beat":296,"duration":0.18,"midi":36,"velocity":116,"voice":"kick","bar":74},{"beat":296,"duration":1,"midi":65,"velocity":96,"voice":"lead","bar":74},{"beat":296,"duration":4,"midi":50,"velocity":56,"voice":"pad","bar":74},{"beat":296,"duration":4,"midi":53,"velocity":56,"voice":"pad","bar":74},{"beat":296,"duration":4,"midi":57,"velocity":56,"voice":"pad","bar":74},{"beat":296.0,"duration":0.48,"midi":50,"velocity":74,"voice":"rhodes","bar":74},{"beat":296,"duration":2,"midi":65,"velocity":110,"voice":"voxF","bar":74,"vowel":"o"},{"beat":296.5,"duration":0.06,"midi":42,"velocity":44,"voice":"hat","bar":74},{"beat":296.5,"duration":0.48,"midi":53,"velocity":62,"voice":"rhodes","bar":74},{"beat":297,"duration":1,"midi":45,"velocity":102,"voice":"bass","bar":74},{"beat":297.0,"duration":0.06,"midi":42,"velocity":56,"voice":"hat","bar":74},{"beat":297,"duration":0.18,"midi":36,"velocity":104,"voice":"kick","bar":74},{"beat":297,"duration":1,"midi":69,"velocity":96,"voice":"lead","bar":74},{"beat":297.0,"duration":0.48,"midi":57,"velocity":74,"voice":"rhodes","bar":74},{"beat":297,"duration":0.2,"midi":38,"velocity":110,"voice":"snare","bar":74},{"beat":297.5,"duration":0.06,"midi":42,"velocity":44,"voice":"hat","bar":74},{"beat":297.5,"duration":0.48,"midi":62,"velocity":62,"voice":"rhodes","bar":74},{"beat":298,"duration":2,"midi":50,"velocity":102,"voice":"bass","bar":74},{"beat":298.0,"duration":0.06,"midi":42,"velocity":56,"voice":"hat","bar":74},{"beat":298,"duration":0.18,"midi":36,"velocity":116,"voice":"kick","bar":74},{"beat":298,"duration":1,"midi":74,"velocity":96,"voice":"lead","bar":74},{"beat":298.0,"duration":0.48,"midi":57,"velocity":74,"voice":"rhodes","bar":74},{"beat":298,"duration":2,"midi":69,"velocity":110,"voice":"voxF","bar":74,"vowel":"a"},{"beat":298.5,"duration":0.06,"midi":42,"velocity":44,"voice":"hat","bar":74},{"beat":298.5,"duration":0.48,"midi":53,"velocity":62,"voice":"rhodes","bar":74},{"beat":299.0,"duration":0.06,"midi":42,"velocity":56,"voice":"hat","bar":74},{"beat":299,"duration":0.18,"midi":36,"velocity":104,"voice":"kick","bar":74},{"beat":299,"duration":1,"midi":69,"velocity":96,"voice":"lead","bar":74},{"beat":299.0,"duration":0.48,"midi":50,"velocity":74,"voice":"rhodes","bar":74},{"beat":299,"duration":0.2,"midi":38,"velocity":110,"voice":"snare","bar":74},{"beat":299.5,"duration":0.06,"midi":42,"velocity":44,"voice":"hat","bar":74},{"beat":299.5,"duration":0.48,"midi":53,"velocity":62,"voice":"rhodes","bar":74},{"beat":300,"duration":1,"midi":46,"velocity":102,"voice":"bass","bar":75},{"beat":300.0,"duration":0.06,"midi":42,"velocity":56,"voice":"hat","bar":75},{"beat":300,"duration":0.18,"midi":36,"velocity":116,"voice":"kick","bar":75},{"beat":300,"duration":2,"midi":74,"velocity":96,"voice":"lead","bar":75},{"beat":300,"duration":4,"midi":58,"velocity":56,"voice":"pad","bar":75},{"beat":300,"duration":4,"midi":62,"velocity":56,"voice":"pad","bar":75},{"beat":300,"duration":4,"midi":65,"velocity":56,"voice":"pad","bar":75},{"beat":300.0,"duration":0.48,"midi":58,"velocity":74,"voice":"rhodes","bar":75},{"beat":300,"duration":2,"midi":74,"velocity":110,"voice":"voxF","bar":75,"vowel":"a"},{"beat":300.5,"duration":0.06,"midi":42,"velocity":44,"voice":"hat","bar":75},{"beat":300.5,"duration":0.48,"midi":62,"velocity":62,"voice":"rhodes","bar":75},{"beat":301,"duration":1,"midi":41,"velocity":102,"voice":"bass","bar":75},{"beat":301.0,"duration":0.06,"midi":42,"velocity":56,"voice":"hat","bar":75},{"beat":301,"duration":0.18,"midi":36,"velocity":104,"voice":"kick","bar":75},{"beat":301.0,"duration":0.48,"midi":65,"velocity":74,"voice":"rhodes","bar":75},{"beat":301,"duration":0.2,"midi":38,"velocity":110,"voice":"snare","bar":75},{"beat":301.5,"duration":0.06,"midi":42,"velocity":44,"voice":"hat","bar":75},{"beat":301.5,"duration":0.48,"midi":70,"velocity":62,"voice":"rhodes","bar":75},{"beat":302,"duration":2,"midi":50,"velocity":102,"voice":"bass","bar":75},{"beat":302.0,"duration":0.06,"midi":42,"velocity":56,"voice":"hat","bar":75},{"beat":302,"duration":0.18,"midi":36,"velocity":116,"voice":"kick","bar":75},{"beat":302,"duration":1,"midi":72,"velocity":96,"voice":"lead","bar":75},{"beat":302.0,"duration":0.48,"midi":65,"velocity":74,"voice":"rhodes","bar":75},{"beat":302,"duration":2,"midi":74,"velocity":110,"voice":"voxF","bar":75,"vowel":"o"},{"beat":302.5,"duration":0.06,"midi":42,"velocity":44,"voice":"hat","bar":75},{"beat":302.5,"duration":0.48,"midi":62,"velocity":62,"voice":"rhodes","bar":75},{"beat":303.0,"duration":0.06,"midi":42,"velocity":56,"voice":"hat","bar":75},{"beat":303,"duration":0.18,"midi":36,"velocity":104,"voice":"kick","bar":75},{"beat":303,"duration":1,"midi":69,"velocity":96,"voice":"lead","bar":75},{"beat":303.0,"duration":0.48,"midi":58,"velocity":74,"voice":"rhodes","bar":75},{"beat":303,"duration":0.2,"midi":38,"velocity":110,"voice":"snare","bar":75},{"beat":303.5,"duration":0.06,"midi":42,"velocity":44,"voice":"hat","bar":75},{"beat":303.5,"duration":0.48,"midi":62,"velocity":62,"voice":"rhodes","bar":75},{"beat":304,"duration":0.5,"midi":41,"velocity":102,"voice":"bass","bar":76},{"beat":304.0,"duration":0.06,"midi":42,"velocity":56,"voice":"hat","bar":76},{"beat":304,"duration":0.18,"midi":36,"velocity":116,"voice":"kick","bar":76},{"beat":304,"duration":1,"midi":72,"velocity":96,"voice":"lead","bar":76},{"beat":304,"duration":4,"midi":53,"velocity":56,"voice":"pad","bar":76},{"beat":304,"duration":4,"midi":57,"velocity":56,"voice":"pad","bar":76},{"beat":304,"duration":4,"midi":60,"velocity":56,"voice":"pad","bar":76},{"beat":304.0,"duration":0.48,"midi":53,"velocity":74,"voice":"rhodes","bar":76},{"beat":304,"duration":2,"midi":72,"velocity":110,"voice":"voxF","bar":76,"vowel":"e"},{"beat":304.5,"duration":0.5,"midi":45,"velocity":102,"voice":"bass","bar":76},{"beat":304.5,"duration":0.06,"midi":42,"velocity":44,"voice":"hat","bar":76},{"beat":304.5,"duration":0.48,"midi":57,"velocity":62,"voice":"rhodes","bar":76},{"beat":305,"duration":1,"midi":48,"velocity":102,"voice":"bass","bar":76},{"beat":305.0,"duration":0.06,"midi":42,"velocity":56,"voice":"hat","bar":76},{"beat":305,"duration":0.18,"midi":36,"velocity":104,"voice":"kick","bar":76},{"beat":305,"duration":1,"midi":69,"velocity":96,"voice":"lead","bar":76},{"beat":305.0,"duration":0.48,"midi":60,"velocity":74,"voice":"rhodes","bar":76},{"beat":305,"duration":0.2,"midi":38,"velocity":110,"voice":"snare","bar":76},{"beat":305.5,"duration":0.06,"midi":42,"velocity":44,"voice":"hat","bar":76},{"beat":305.5,"duration":0.48,"midi":65,"velocity":62,"voice":"rhodes","bar":76},{"beat":306,"duration":2,"midi":45,"velocity":102,"voice":"bass","bar":76},{"beat":306.0,"duration":0.06,"midi":42,"velocity":56,"voice":"hat","bar":76},{"beat":306,"duration":0.18,"midi":36,"velocity":116,"voice":"kick","bar":76},{"beat":306,"duration":2,"midi":65,"velocity":96,"voice":"lead","bar":76},{"beat":306.0,"duration":0.48,"midi":60,"velocity":74,"voice":"rhodes","bar":76},{"beat":306,"duration":2,"midi":69,"velocity":110,"voice":"voxF","bar":76,"vowel":"a"},{"beat":306.5,"duration":0.06,"midi":42,"velocity":44,"voice":"hat","bar":76},{"beat":306.5,"duration":0.48,"midi":57,"velocity":62,"voice":"rhodes","bar":76},{"beat":307.0,"duration":0.06,"midi":42,"velocity":56,"voice":"hat","bar":76},{"beat":307,"duration":0.18,"midi":36,"velocity":104,"voice":"kick","bar":76},{"beat":307.0,"duration":0.48,"midi":53,"velocity":74,"voice":"rhodes","bar":76},{"beat":307,"duration":0.2,"midi":38,"velocity":110,"voice":"snare","bar":76},{"beat":307.5,"duration":0.06,"midi":42,"velocity":44,"voice":"hat","bar":76},{"beat":307.5,"duration":0.48,"midi":57,"velocity":62,"voice":"rhodes","bar":76},{"beat":308,"duration":1,"midi":48,"velocity":102,"voice":"bass","bar":77},{"beat":308.0,"duration":0.06,"midi":42,"velocity":56,"voice":"hat","bar":77},{"beat":308,"duration":0.18,"midi":36,"velocity":116,"voice":"kick","bar":77},{"beat":308,"duration":1,"midi":64,"velocity":96,"voice":"lead","bar":77},{"beat":308,"duration":4,"midi":60,"velocity":56,"voice":"pad","bar":77},{"beat":308,"duration":4,"midi":64,"velocity":56,"voice":"pad","bar":77},{"beat":308,"duration":4,"midi":67,"velocity":56,"voice":"pad","bar":77},{"beat":308.0,"duration":0.48,"midi":60,"velocity":74,"voice":"rhodes","bar":77},{"beat":308,"duration":2,"midi":64,"velocity":110,"voice":"voxF","bar":77,"vowel":"o"},{"beat":308.5,"duration":0.06,"midi":42,"velocity":44,"voice":"hat","bar":77},{"beat":308.5,"duration":0.48,"midi":64,"velocity":62,"voice":"rhodes","bar":77},{"beat":309,"duration":1,"midi":52,"velocity":102,"voice":"bass","bar":77},{"beat":309.0,"duration":0.06,"midi":42,"velocity":56,"voice":"hat","bar":77},{"beat":309,"duration":0.18,"midi":36,"velocity":104,"voice":"kick","bar":77},{"beat":309,"duration":1,"midi":67,"velocity":96,"voice":"lead","bar":77},{"beat":309.0,"duration":0.48,"midi":67,"velocity":74,"voice":"rhodes","bar":77},{"beat":309,"duration":0.2,"midi":38,"velocity":110,"voice":"snare","bar":77},{"beat":309.5,"duration":0.06,"midi":42,"velocity":44,"voice":"hat","bar":77},{"beat":309.5,"duration":0.48,"midi":72,"velocity":62,"voice":"rhodes","bar":77},{"beat":310,"duration":2,"midi":43,"velocity":102,"voice":"bass","bar":77},{"beat":310.0,"duration":0.06,"midi":42,"velocity":56,"voice":"hat","bar":77},{"beat":310,"duration":0.18,"midi":36,"velocity":116,"voice":"kick","bar":77},{"beat":310,"duration":2,"midi":72,"velocity":96,"voice":"lead","bar":77},{"beat":310.0,"duration":0.48,"midi":67,"velocity":74,"voice":"rhodes","bar":77},{"beat":310,"duration":2,"midi":67,"velocity":110,"voice":"voxF","bar":77,"vowel":"a"},{"beat":310.5,"duration":0.06,"midi":42,"velocity":44,"voice":"hat","bar":77},{"beat":310.5,"duration":0.48,"midi":64,"velocity":62,"voice":"rhodes","bar":77},{"beat":311.0,"duration":0.06,"midi":42,"velocity":56,"voice":"hat","bar":77},{"beat":311,"duration":0.18,"midi":36,"velocity":104,"voice":"kick","bar":77},{"beat":311.0,"duration":0.48,"midi":60,"velocity":74,"voice":"rhodes","bar":77},{"beat":311,"duration":0.2,"midi":38,"velocity":110,"voice":"snare","bar":77},{"beat":311.5,"duration":0.06,"midi":42,"velocity":44,"voice":"hat","bar":77},{"beat":311.5,"duration":0.48,"midi":64,"velocity":62,"voice":"rhodes","bar":77},{"beat":312,"duration":1,"midi":43,"velocity":102,"voice":"bass","bar":78},{"beat":312.0,"duration":0.06,"midi":42,"velocity":56,"voice":"hat","bar":78},{"beat":312,"duration":0.18,"midi":36,"velocity":116,"voice":"kick","bar":78},{"beat":312,"duration":1,"midi":74,"velocity":96,"voice":"lead","bar":78},{"beat":312,"duration":4,"midi":55,"velocity":56,"voice":"pad","bar":78},{"beat":312,"duration":4,"midi":59,"velocity":56,"voice":"pad","bar":78},{"beat":312,"duration":4,"midi":62,"velocity":56,"voice":"pad","bar":78},{"beat":312.0,"duration":0.48,"midi":55,"velocity":74,"voice":"rhodes","bar":78},{"beat":312,"duration":2,"midi":74,"velocity":110,"voice":"voxF","bar":78,"vowel":"a"},{"beat":312.5,"duration":0.06,"midi":42,"velocity":44,"voice":"hat","bar":78},{"beat":312.5,"duration":0.48,"midi":59,"velocity":62,"voice":"rhodes","bar":78},{"beat":313,"duration":1,"midi":50,"velocity":102,"voice":"bass","bar":78},{"beat":313.0,"duration":0.06,"midi":42,"velocity":56,"voice":"hat","bar":78},{"beat":313,"duration":0.18,"midi":36,"velocity":104,"voice":"kick","bar":78},{"beat":313,"duration":0.5,"midi":71,"velocity":96,"voice":"lead","bar":78},{"beat":313.0,"duration":0.48,"midi":62,"velocity":74,"voice":"rhodes","bar":78},{"beat":313,"duration":0.2,"midi":38,"velocity":110,"voice":"snare","bar":78},{"beat":313.5,"duration":0.06,"midi":42,"velocity":44,"voice":"hat","bar":78},{"beat":313.5,"duration":0.5,"midi":74,"velocity":96,"voice":"lead","bar":78},{"beat":313.5,"duration":0.48,"midi":67,"velocity":62,"voice":"rhodes","bar":78},{"beat":314,"duration":2,"midi":47,"velocity":102,"voice":"bass","bar":78},{"beat":314.0,"duration":0.06,"midi":42,"velocity":56,"voice":"hat","bar":78},{"beat":314,"duration":0.18,"midi":36,"velocity":116,"voice":"kick","bar":78},{"beat":314,"duration":2,"midi":71,"velocity":96,"voice":"lead","bar":78},{"beat":314.0,"duration":0.48,"midi":62,"velocity":74,"voice":"rhodes","bar":78},{"beat":314,"duration":2,"midi":71,"velocity":110,"voice":"voxF","bar":78,"vowel":"o"},{"beat":314.5,"duration":0.06,"midi":42,"velocity":44,"voice":"hat","bar":78},{"beat":314.5,"duration":0.48,"midi":59,"velocity":62,"voice":"rhodes","bar":78},{"beat":315.0,"duration":0.06,"midi":42,"velocity":56,"voice":"hat","bar":78},{"beat":315,"duration":0.18,"midi":36,"velocity":104,"voice":"kick","bar":78},{"beat":315.0,"duration":0.48,"midi":55,"velocity":74,"voice":"rhodes","bar":78},{"beat":315,"duration":0.2,"midi":38,"velocity":110,"voice":"snare","bar":78},{"beat":315.5,"duration":0.06,"midi":42,"velocity":44,"voice":"hat","bar":78},{"beat":315.5,"duration":0.48,"midi":59,"velocity":62,"voice":"rhodes","bar":78},{"beat":316,"duration":1,"midi":45,"velocity":102,"voice":"bass","bar":79},{"beat":316.0,"duration":0.06,"midi":42,"velocity":56,"voice":"hat","bar":79},{"beat":316,"duration":0.18,"midi":36,"velocity":116,"voice":"kick","bar":79},{"beat":316,"duration":2,"midi":73,"velocity":96,"voice":"lead","bar":79},{"beat":316,"duration":4,"midi":57,"velocity":56,"voice":"pad","bar":79},{"beat":316,"duration":4,"midi":61,"velocity":56,"voice":"pad","bar":79},{"beat":316,"duration":4,"midi":64,"velocity":56,"voice":"pad","bar":79},{"beat":316.0,"duration":0.48,"midi":57,"velocity":74,"voice":"rhodes","bar":79},{"beat":316,"duration":4,"midi":69,"velocity":110,"voice":"voxF","bar":79,"vowel":"a"},{"beat":316.5,"duration":0.06,"midi":42,"velocity":44,"voice":"hat","bar":79},{"beat":316.5,"duration":0.48,"midi":61,"velocity":62,"voice":"rhodes","bar":79},{"beat":317,"duration":1,"midi":52,"velocity":102,"voice":"bass","bar":79},{"beat":317.0,"duration":0.06,"midi":42,"velocity":56,"voice":"hat","bar":79},{"beat":317,"duration":0.18,"midi":36,"velocity":104,"voice":"kick","bar":79},{"beat":317.0,"duration":0.48,"midi":64,"velocity":74,"voice":"rhodes","bar":79},{"beat":317,"duration":0.2,"midi":38,"velocity":110,"voice":"snare","bar":79},{"beat":317.5,"duration":0.06,"midi":42,"velocity":44,"voice":"hat","bar":79},{"beat":317.5,"duration":0.48,"midi":69,"velocity":62,"voice":"rhodes","bar":79},{"beat":318,"duration":2,"midi":49,"velocity":102,"voice":"bass","bar":79},{"beat":318.0,"duration":0.06,"midi":42,"velocity":56,"voice":"hat","bar":79},{"beat":318,"duration":0.18,"midi":36,"velocity":116,"voice":"kick","bar":79},{"beat":318,"duration":2,"midi":69,"velocity":96,"voice":"lead","bar":79},{"beat":318.0,"duration":0.48,"midi":64,"velocity":74,"voice":"rhodes","bar":79},{"beat":318.5,"duration":0.06,"midi":42,"velocity":44,"voice":"hat","bar":79},{"beat":318.5,"duration":0.48,"midi":61,"velocity":62,"voice":"rhodes","bar":79},{"beat":319.0,"duration":0.06,"midi":42,"velocity":56,"voice":"hat","bar":79},{"beat":319,"duration":0.18,"midi":36,"velocity":104,"voice":"kick","bar":79},{"beat":319.0,"duration":0.48,"midi":57,"velocity":74,"voice":"rhodes","bar":79},{"beat":319,"duration":0.2,"midi":38,"velocity":110,"voice":"snare","bar":79},{"beat":319.5,"duration":0.06,"midi":42,"velocity":44,"voice":"hat","bar":79},{"beat":319.5,"duration":0.48,"midi":61,"velocity":62,"voice":"rhodes","bar":79},{"beat":320,"duration":1,"midi":41,"velocity":102,"voice":"bass","bar":80},{"beat":320.0,"duration":0.06,"midi":42,"velocity":56,"voice":"hat","bar":80},{"beat":320,"duration":0.18,"midi":36,"velocity":116,"voice":"kick","bar":80},{"beat":320,"duration":2,"midi":69,"velocity":96,"voice":"lead","bar":80},{"beat":320,"duration":4,"midi":53,"velocity":56,"voice":"pad","bar":80},{"beat":320,"duration":4,"midi":57,"velocity":56,"voice":"pad","bar":80},{"beat":320,"duration":4,"midi":60,"velocity":56,"voice":"pad","bar":80},{"beat":320.0,"duration":0.48,"midi":53,"velocity":74,"voice":"rhodes","bar":80},{"beat":320,"duration":2,"midi":69,"velocity":110,"voice":"voxF","bar":80,"vowel":"a"},{"beat":320.5,"duration":0.06,"midi":42,"velocity":44,"voice":"hat","bar":80},{"beat":320.5,"duration":0.48,"midi":57,"velocity":62,"voice":"rhodes","bar":80},{"beat":321,"duration":1,"midi":48,"velocity":102,"voice":"bass","bar":80},{"beat":321.0,"duration":0.06,"midi":42,"velocity":56,"voice":"hat","bar":80},{"beat":321,"duration":0.18,"midi":36,"velocity":104,"voice":"kick","bar":80},{"beat":321.0,"duration":0.48,"midi":60,"velocity":74,"voice":"rhodes","bar":80},{"beat":321,"duration":0.2,"midi":38,"velocity":110,"voice":"snare","bar":80},{"beat":321.5,"duration":0.06,"midi":42,"velocity":44,"voice":"hat","bar":80},{"beat":321.5,"duration":0.48,"midi":65,"velocity":62,"voice":"rhodes","bar":80},{"beat":322,"duration":2,"midi":45,"velocity":102,"voice":"bass","bar":80},{"beat":322.0,"duration":0.06,"midi":42,"velocity":56,"voice":"hat","bar":80},{"beat":322,"duration":0.18,"midi":36,"velocity":116,"voice":"kick","bar":80},{"beat":322,"duration":1,"midi":72,"velocity":96,"voice":"lead","bar":80},{"beat":322.0,"duration":0.48,"midi":60,"velocity":74,"voice":"rhodes","bar":80},{"beat":322,"duration":2,"midi":72,"velocity":110,"voice":"voxF","bar":80,"vowel":"o"},{"beat":322.5,"duration":0.06,"midi":42,"velocity":44,"voice":"hat","bar":80},{"beat":322.5,"duration":0.48,"midi":57,"velocity":62,"voice":"rhodes","bar":80},{"beat":323.0,"duration":0.06,"midi":42,"velocity":56,"voice":"hat","bar":80},{"beat":323,"duration":0.18,"midi":36,"velocity":104,"voice":"kick","bar":80},{"beat":323,"duration":1,"midi":69,"velocity":96,"voice":"lead","bar":80},{"beat":323.0,"duration":0.48,"midi":53,"velocity":74,"voice":"rhodes","bar":80},{"beat":323,"duration":0.2,"midi":38,"velocity":110,"voice":"snare","bar":80},{"beat":323.5,"duration":0.06,"midi":42,"velocity":44,"voice":"hat","bar":80},{"beat":323.5,"duration":0.48,"midi":57,"velocity":62,"voice":"rhodes","bar":80},{"beat":324,"duration":1,"midi":48,"velocity":102,"voice":"bass","bar":81},{"beat":324.0,"duration":0.06,"midi":42,"velocity":56,"voice":"hat","bar":81},{"beat":324,"duration":0.18,"midi":36,"velocity":116,"voice":"kick","bar":81},{"beat":324,"duration":1.5,"midi":67,"velocity":96,"voice":"lead","bar":81},{"beat":324,"duration":4,"midi":60,"velocity":56,"voice":"pad","bar":81},{"beat":324,"duration":4,"midi":64,"velocity":56,"voice":"pad","bar":81},{"beat":324,"duration":4,"midi":67,"velocity":56,"voice":"pad","bar":81},{"beat":324.0,"duration":0.48,"midi":60,"velocity":74,"voice":"rhodes","bar":81},{"beat":324,"duration":2,"midi":67,"velocity":110,"voice":"voxF","bar":81,"vowel":"e"},{"beat":324.5,"duration":0.06,"midi":42,"velocity":44,"voice":"hat","bar":81},{"beat":324.5,"duration":0.48,"midi":64,"velocity":62,"voice":"rhodes","bar":81},{"beat":325,"duration":1,"midi":43,"velocity":102,"voice":"bass","bar":81},{"beat":325.0,"duration":0.06,"midi":42,"velocity":56,"voice":"hat","bar":81},{"beat":325,"duration":0.18,"midi":36,"velocity":104,"voice":"kick","bar":81},{"beat":325.0,"duration":0.48,"midi":67,"velocity":74,"voice":"rhodes","bar":81},{"beat":325,"duration":0.2,"midi":38,"velocity":110,"voice":"snare","bar":81},{"beat":325.5,"duration":0.06,"midi":42,"velocity":44,"voice":"hat","bar":81},{"beat":325.5,"duration":0.5,"midi":69,"velocity":96,"voice":"lead","bar":81},{"beat":325.5,"duration":0.48,"midi":72,"velocity":62,"voice":"rhodes","bar":81},{"beat":326,"duration":2,"midi":52,"velocity":102,"voice":"bass","bar":81},{"beat":326.0,"duration":0.06,"midi":42,"velocity":56,"voice":"hat","bar":81},{"beat":326,"duration":0.18,"midi":36,"velocity":116,"voice":"kick","bar":81},{"beat":326,"duration":2,"midi":64,"velocity":96,"voice":"lead","bar":81},{"beat":326.0,"duration":0.48,"midi":67,"velocity":74,"voice":"rhodes","bar":81},{"beat":326,"duration":2,"midi":64,"velocity":110,"voice":"voxF","bar":81,"vowel":"a"},{"beat":326.5,"duration":0.06,"midi":42,"velocity":44,"voice":"hat","bar":81},{"beat":326.5,"duration":0.48,"midi":64,"velocity":62,"voice":"rhodes","bar":81},{"beat":327.0,"duration":0.06,"midi":42,"velocity":56,"voice":"hat","bar":81},{"beat":327,"duration":0.18,"midi":36,"velocity":104,"voice":"kick","bar":81},{"beat":327.0,"duration":0.48,"midi":60,"velocity":74,"voice":"rhodes","bar":81},{"beat":327,"duration":0.2,"midi":38,"velocity":110,"voice":"snare","bar":81},{"beat":327.5,"duration":0.06,"midi":42,"velocity":44,"voice":"hat","bar":81},{"beat":327.5,"duration":0.48,"midi":64,"velocity":62,"voice":"rhodes","bar":81},{"beat":328,"duration":1,"midi":38,"velocity":102,"voice":"bass","bar":82},{"beat":328.0,"duration":0.06,"midi":42,"velocity":56,"voice":"hat","bar":82},{"beat":328,"duration":0.18,"midi":36,"velocity":116,"voice":"kick","bar":82},{"beat":328,"duration":1,"midi":65,"velocity":96,"voice":"lead","bar":82},{"beat":328,"duration":4,"midi":50,"velocity":56,"voice":"pad","bar":82},{"beat":328,"duration":4,"midi":53,"velocity":56,"voice":"pad","bar":82},{"beat":328,"duration":4,"midi":57,"velocity":56,"voice":"pad","bar":82},{"beat":328.0,"duration":0.48,"midi":50,"velocity":74,"voice":"rhodes","bar":82},{"beat":328,"duration":2,"midi":65,"velocity":110,"voice":"voxF","bar":82,"vowel":"o"},{"beat":328.5,"duration":0.06,"midi":42,"velocity":44,"voice":"hat","bar":82},{"beat":328.5,"duration":0.48,"midi":53,"velocity":62,"voice":"rhodes","bar":82},{"beat":329,"duration":1,"midi":45,"velocity":102,"voice":"bass","bar":82},{"beat":329.0,"duration":0.06,"midi":42,"velocity":56,"voice":"hat","bar":82},{"beat":329,"duration":0.18,"midi":36,"velocity":104,"voice":"kick","bar":82},{"beat":329,"duration":1,"midi":69,"velocity":96,"voice":"lead","bar":82},{"beat":329.0,"duration":0.48,"midi":57,"velocity":74,"voice":"rhodes","bar":82},{"beat":329,"duration":0.2,"midi":38,"velocity":110,"voice":"snare","bar":82},{"beat":329.5,"duration":0.06,"midi":42,"velocity":44,"voice":"hat","bar":82},{"beat":329.5,"duration":0.48,"midi":62,"velocity":62,"voice":"rhodes","bar":82},{"beat":330,"duration":2,"midi":50,"velocity":102,"voice":"bass","bar":82},{"beat":330.0,"duration":0.06,"midi":42,"velocity":56,"voice":"hat","bar":82},{"beat":330,"duration":0.18,"midi":36,"velocity":116,"voice":"kick","bar":82},{"beat":330,"duration":1,"midi":74,"velocity":96,"voice":"lead","bar":82},{"beat":330.0,"duration":0.48,"midi":57,"velocity":74,"voice":"rhodes","bar":82},{"beat":330,"duration":2,"midi":69,"velocity":110,"voice":"voxF","bar":82,"vowel":"a"},{"beat":330.5,"duration":0.06,"midi":42,"velocity":44,"voice":"hat","bar":82},{"beat":330.5,"duration":0.48,"midi":53,"velocity":62,"voice":"rhodes","bar":82},{"beat":331.0,"duration":0.06,"midi":42,"velocity":56,"voice":"hat","bar":82},{"beat":331,"duration":0.18,"midi":36,"velocity":104,"voice":"kick","bar":82},{"beat":331,"duration":1,"midi":69,"velocity":96,"voice":"lead","bar":82},{"beat":331.0,"duration":0.48,"midi":50,"velocity":74,"voice":"rhodes","bar":82},{"beat":331,"duration":0.2,"midi":38,"velocity":110,"voice":"snare","bar":82},{"beat":331.5,"duration":0.06,"midi":42,"velocity":44,"voice":"hat","bar":82},{"beat":331.5,"duration":0.48,"midi":53,"velocity":62,"voice":"rhodes","bar":82},{"beat":332,"duration":1,"midi":46,"velocity":102,"voice":"bass","bar":83},{"beat":332.0,"duration":0.06,"midi":42,"velocity":56,"voice":"hat","bar":83},{"beat":332,"duration":0.18,"midi":36,"velocity":116,"voice":"kick","bar":83},{"beat":332,"duration":2,"midi":74,"velocity":96,"voice":"lead","bar":83},{"beat":332,"duration":4,"midi":58,"velocity":56,"voice":"pad","bar":83},{"beat":332,"duration":4,"midi":62,"velocity":56,"voice":"pad","bar":83},{"beat":332,"duration":4,"midi":65,"velocity":56,"voice":"pad","bar":83},{"beat":332.0,"duration":0.48,"midi":58,"velocity":74,"voice":"rhodes","bar":83},{"beat":332,"duration":2,"midi":74,"velocity":110,"voice":"voxF","bar":83,"vowel":"a"},{"beat":332.5,"duration":0.06,"midi":42,"velocity":44,"voice":"hat","bar":83},{"beat":332.5,"duration":0.48,"midi":62,"velocity":62,"voice":"rhodes","bar":83},{"beat":333,"duration":1,"midi":41,"velocity":102,"voice":"bass","bar":83},{"beat":333.0,"duration":0.06,"midi":42,"velocity":56,"voice":"hat","bar":83},{"beat":333,"duration":0.18,"midi":36,"velocity":104,"voice":"kick","bar":83},{"beat":333.0,"duration":0.48,"midi":65,"velocity":74,"voice":"rhodes","bar":83},{"beat":333,"duration":0.2,"midi":38,"velocity":110,"voice":"snare","bar":83},{"beat":333.5,"duration":0.06,"midi":42,"velocity":44,"voice":"hat","bar":83},{"beat":333.5,"duration":0.48,"midi":70,"velocity":62,"voice":"rhodes","bar":83},{"beat":334,"duration":2,"midi":50,"velocity":102,"voice":"bass","bar":83},{"beat":334.0,"duration":0.06,"midi":42,"velocity":56,"voice":"hat","bar":83},{"beat":334,"duration":0.18,"midi":36,"velocity":116,"voice":"kick","bar":83},{"beat":334,"duration":1,"midi":72,"velocity":96,"voice":"lead","bar":83},{"beat":334.0,"duration":0.48,"midi":65,"velocity":74,"voice":"rhodes","bar":83},{"beat":334,"duration":2,"midi":74,"velocity":110,"voice":"voxF","bar":83,"vowel":"o"},{"beat":334.5,"duration":0.06,"midi":42,"velocity":44,"voice":"hat","bar":83},{"beat":334.5,"duration":0.48,"midi":62,"velocity":62,"voice":"rhodes","bar":83},{"beat":335.0,"duration":0.06,"midi":42,"velocity":56,"voice":"hat","bar":83},{"beat":335,"duration":0.18,"midi":36,"velocity":104,"voice":"kick","bar":83},{"beat":335,"duration":1,"midi":69,"velocity":96,"voice":"lead","bar":83},{"beat":335.0,"duration":0.48,"midi":58,"velocity":74,"voice":"rhodes","bar":83},{"beat":335,"duration":0.2,"midi":38,"velocity":110,"voice":"snare","bar":83},{"beat":335.5,"duration":0.06,"midi":42,"velocity":44,"voice":"hat","bar":83},{"beat":335.5,"duration":0.48,"midi":62,"velocity":62,"voice":"rhodes","bar":83},{"beat":336,"duration":0.5,"midi":41,"velocity":102,"voice":"bass","bar":84},{"beat":336.0,"duration":0.06,"midi":42,"velocity":56,"voice":"hat","bar":84},{"beat":336,"duration":0.18,"midi":36,"velocity":116,"voice":"kick","bar":84},{"beat":336,"duration":1,"midi":72,"velocity":96,"voice":"lead","bar":84},{"beat":336,"duration":4,"midi":53,"velocity":56,"voice":"pad","bar":84},{"beat":336,"duration":4,"midi":57,"velocity":56,"voice":"pad","bar":84},{"beat":336,"duration":4,"midi":60,"velocity":56,"voice":"pad","bar":84},{"beat":336.0,"duration":0.48,"midi":53,"velocity":74,"voice":"rhodes","bar":84},{"beat":336,"duration":2,"midi":72,"velocity":110,"voice":"voxF","bar":84,"vowel":"e"},{"beat":336.5,"duration":0.5,"midi":45,"velocity":102,"voice":"bass","bar":84},{"beat":336.5,"duration":0.06,"midi":42,"velocity":44,"voice":"hat","bar":84},{"beat":336.5,"duration":0.48,"midi":57,"velocity":62,"voice":"rhodes","bar":84},{"beat":337,"duration":1,"midi":48,"velocity":102,"voice":"bass","bar":84},{"beat":337.0,"duration":0.06,"midi":42,"velocity":56,"voice":"hat","bar":84},{"beat":337,"duration":0.18,"midi":36,"velocity":104,"voice":"kick","bar":84},{"beat":337,"duration":1,"midi":69,"velocity":96,"voice":"lead","bar":84},{"beat":337.0,"duration":0.48,"midi":60,"velocity":74,"voice":"rhodes","bar":84},{"beat":337,"duration":0.2,"midi":38,"velocity":110,"voice":"snare","bar":84},{"beat":337.5,"duration":0.06,"midi":42,"velocity":44,"voice":"hat","bar":84},{"beat":337.5,"duration":0.48,"midi":65,"velocity":62,"voice":"rhodes","bar":84},{"beat":338,"duration":2,"midi":45,"velocity":102,"voice":"bass","bar":84},{"beat":338.0,"duration":0.06,"midi":42,"velocity":56,"voice":"hat","bar":84},{"beat":338,"duration":0.18,"midi":36,"velocity":116,"voice":"kick","bar":84},{"beat":338,"duration":2,"midi":65,"velocity":96,"voice":"lead","bar":84},{"beat":338.0,"duration":0.48,"midi":60,"velocity":74,"voice":"rhodes","bar":84},{"beat":338,"duration":2,"midi":69,"velocity":110,"voice":"voxF","bar":84,"vowel":"a"},{"beat":338.5,"duration":0.06,"midi":42,"velocity":44,"voice":"hat","bar":84},{"beat":338.5,"duration":0.48,"midi":57,"velocity":62,"voice":"rhodes","bar":84},{"beat":339.0,"duration":0.06,"midi":42,"velocity":56,"voice":"hat","bar":84},{"beat":339,"duration":0.18,"midi":36,"velocity":104,"voice":"kick","bar":84},{"beat":339.0,"duration":0.48,"midi":53,"velocity":74,"voice":"rhodes","bar":84},{"beat":339,"duration":0.2,"midi":38,"velocity":110,"voice":"snare","bar":84},{"beat":339.5,"duration":0.06,"midi":42,"velocity":44,"voice":"hat","bar":84},{"beat":339.5,"duration":0.48,"midi":57,"velocity":62,"voice":"rhodes","bar":84},{"beat":340,"duration":1,"midi":48,"velocity":102,"voice":"bass","bar":85},{"beat":340.0,"duration":0.06,"midi":42,"velocity":56,"voice":"hat","bar":85},{"beat":340,"duration":0.18,"midi":36,"velocity":116,"voice":"kick","bar":85},{"beat":340,"duration":1,"midi":64,"velocity":96,"voice":"lead","bar":85},{"beat":340,"duration":4,"midi":60,"velocity":56,"voice":"pad","bar":85},{"beat":340,"duration":4,"midi":64,"velocity":56,"voice":"pad","bar":85},{"beat":340,"duration":4,"midi":67,"velocity":56,"voice":"pad","bar":85},{"beat":340.0,"duration":0.48,"midi":60,"velocity":74,"voice":"rhodes","bar":85},{"beat":340,"duration":2,"midi":64,"velocity":110,"voice":"voxF","bar":85,"vowel":"o"},{"beat":340.5,"duration":0.06,"midi":42,"velocity":44,"voice":"hat","bar":85},{"beat":340.5,"duration":0.48,"midi":64,"velocity":62,"voice":"rhodes","bar":85},{"beat":341,"duration":1,"midi":52,"velocity":102,"voice":"bass","bar":85},{"beat":341.0,"duration":0.06,"midi":42,"velocity":56,"voice":"hat","bar":85},{"beat":341,"duration":0.18,"midi":36,"velocity":104,"voice":"kick","bar":85},{"beat":341,"duration":1,"midi":67,"velocity":96,"voice":"lead","bar":85},{"beat":341.0,"duration":0.48,"midi":67,"velocity":74,"voice":"rhodes","bar":85},{"beat":341,"duration":0.2,"midi":38,"velocity":110,"voice":"snare","bar":85},{"beat":341.5,"duration":0.06,"midi":42,"velocity":44,"voice":"hat","bar":85},{"beat":341.5,"duration":0.48,"midi":72,"velocity":62,"voice":"rhodes","bar":85},{"beat":342,"duration":2,"midi":43,"velocity":102,"voice":"bass","bar":85},{"beat":342.0,"duration":0.06,"midi":42,"velocity":56,"voice":"hat","bar":85},{"beat":342,"duration":0.18,"midi":36,"velocity":116,"voice":"kick","bar":85},{"beat":342,"duration":2,"midi":72,"velocity":96,"voice":"lead","bar":85},{"beat":342.0,"duration":0.48,"midi":67,"velocity":74,"voice":"rhodes","bar":85},{"beat":342,"duration":2,"midi":67,"velocity":110,"voice":"voxF","bar":85,"vowel":"a"},{"beat":342.5,"duration":0.06,"midi":42,"velocity":44,"voice":"hat","bar":85},{"beat":342.5,"duration":0.48,"midi":64,"velocity":62,"voice":"rhodes","bar":85},{"beat":343.0,"duration":0.06,"midi":42,"velocity":56,"voice":"hat","bar":85},{"beat":343,"duration":0.18,"midi":36,"velocity":104,"voice":"kick","bar":85},{"beat":343.0,"duration":0.48,"midi":60,"velocity":74,"voice":"rhodes","bar":85},{"beat":343,"duration":0.2,"midi":38,"velocity":110,"voice":"snare","bar":85},{"beat":343.5,"duration":0.06,"midi":42,"velocity":44,"voice":"hat","bar":85},{"beat":343.5,"duration":0.48,"midi":64,"velocity":62,"voice":"rhodes","bar":85},{"beat":344,"duration":1,"midi":43,"velocity":102,"voice":"bass","bar":86},{"beat":344.0,"duration":0.06,"midi":42,"velocity":56,"voice":"hat","bar":86},{"beat":344,"duration":0.18,"midi":36,"velocity":116,"voice":"kick","bar":86},{"beat":344,"duration":1,"midi":74,"velocity":96,"voice":"lead","bar":86},{"beat":344,"duration":4,"midi":55,"velocity":56,"voice":"pad","bar":86},{"beat":344,"duration":4,"midi":59,"velocity":56,"voice":"pad","bar":86},{"beat":344,"duration":4,"midi":62,"velocity":56,"voice":"pad","bar":86},{"beat":344.0,"duration":0.48,"midi":55,"velocity":74,"voice":"rhodes","bar":86},{"beat":344,"duration":2,"midi":74,"velocity":110,"voice":"voxF","bar":86,"vowel":"a"},{"beat":344.5,"duration":0.06,"midi":42,"velocity":44,"voice":"hat","bar":86},{"beat":344.5,"duration":0.48,"midi":59,"velocity":62,"voice":"rhodes","bar":86},{"beat":345,"duration":1,"midi":50,"velocity":102,"voice":"bass","bar":86},{"beat":345.0,"duration":0.06,"midi":42,"velocity":56,"voice":"hat","bar":86},{"beat":345,"duration":0.18,"midi":36,"velocity":104,"voice":"kick","bar":86},{"beat":345,"duration":0.5,"midi":71,"velocity":96,"voice":"lead","bar":86},{"beat":345.0,"duration":0.48,"midi":62,"velocity":74,"voice":"rhodes","bar":86},{"beat":345,"duration":0.2,"midi":38,"velocity":110,"voice":"snare","bar":86},{"beat":345.5,"duration":0.06,"midi":42,"velocity":44,"voice":"hat","bar":86},{"beat":345.5,"duration":0.5,"midi":74,"velocity":96,"voice":"lead","bar":86},{"beat":345.5,"duration":0.48,"midi":67,"velocity":62,"voice":"rhodes","bar":86},{"beat":346,"duration":2,"midi":47,"velocity":102,"voice":"bass","bar":86},{"beat":346.0,"duration":0.06,"midi":42,"velocity":56,"voice":"hat","bar":86},{"beat":346,"duration":0.18,"midi":36,"velocity":116,"voice":"kick","bar":86},{"beat":346,"duration":2,"midi":71,"velocity":96,"voice":"lead","bar":86},{"beat":346.0,"duration":0.48,"midi":62,"velocity":74,"voice":"rhodes","bar":86},{"beat":346,"duration":2,"midi":71,"velocity":110,"voice":"voxF","bar":86,"vowel":"o"},{"beat":346.5,"duration":0.06,"midi":42,"velocity":44,"voice":"hat","bar":86},{"beat":346.5,"duration":0.48,"midi":59,"velocity":62,"voice":"rhodes","bar":86},{"beat":347.0,"duration":0.06,"midi":42,"velocity":56,"voice":"hat","bar":86},{"beat":347,"duration":0.18,"midi":36,"velocity":104,"voice":"kick","bar":86},{"beat":347.0,"duration":0.48,"midi":55,"velocity":74,"voice":"rhodes","bar":86},{"beat":347,"duration":0.2,"midi":38,"velocity":110,"voice":"snare","bar":86},{"beat":347.5,"duration":0.06,"midi":42,"velocity":44,"voice":"hat","bar":86},{"beat":347.5,"duration":0.48,"midi":59,"velocity":62,"voice":"rhodes","bar":86},{"beat":348,"duration":1,"midi":45,"velocity":102,"voice":"bass","bar":87},{"beat":348.0,"duration":0.06,"midi":42,"velocity":56,"voice":"hat","bar":87},{"beat":348,"duration":0.18,"midi":36,"velocity":116,"voice":"kick","bar":87},{"beat":348,"duration":2,"midi":73,"velocity":96,"voice":"lead","bar":87},{"beat":348,"duration":4,"midi":57,"velocity":56,"voice":"pad","bar":87},{"beat":348,"duration":4,"midi":61,"velocity":56,"voice":"pad","bar":87},{"beat":348,"duration":4,"midi":64,"velocity":56,"voice":"pad","bar":87},{"beat":348.0,"duration":0.48,"midi":57,"velocity":74,"voice":"rhodes","bar":87},{"beat":348,"duration":4,"midi":69,"velocity":110,"voice":"voxF","bar":87,"vowel":"a"},{"beat":348.5,"duration":0.06,"midi":42,"velocity":44,"voice":"hat","bar":87},{"beat":348.5,"duration":0.48,"midi":61,"velocity":62,"voice":"rhodes","bar":87},{"beat":349,"duration":1,"midi":52,"velocity":102,"voice":"bass","bar":87},{"beat":349.0,"duration":0.06,"midi":42,"velocity":56,"voice":"hat","bar":87},{"beat":349,"duration":0.18,"midi":36,"velocity":104,"voice":"kick","bar":87},{"beat":349.0,"duration":0.48,"midi":64,"velocity":74,"voice":"rhodes","bar":87},{"beat":349,"duration":0.2,"midi":38,"velocity":110,"voice":"snare","bar":87},{"beat":349.5,"duration":0.06,"midi":42,"velocity":44,"voice":"hat","bar":87},{"beat":349.5,"duration":0.48,"midi":69,"velocity":62,"voice":"rhodes","bar":87},{"beat":350,"duration":2,"midi":49,"velocity":102,"voice":"bass","bar":87},{"beat":350.0,"duration":0.06,"midi":42,"velocity":56,"voice":"hat","bar":87},{"beat":350,"duration":0.18,"midi":36,"velocity":116,"voice":"kick","bar":87},{"beat":350,"duration":2,"midi":69,"velocity":96,"voice":"lead","bar":87},{"beat":350.0,"duration":0.48,"midi":64,"velocity":74,"voice":"rhodes","bar":87},{"beat":350.5,"duration":0.06,"midi":42,"velocity":44,"voice":"hat","bar":87},{"beat":350.5,"duration":0.48,"midi":61,"velocity":62,"voice":"rhodes","bar":87},{"beat":351.0,"duration":0.06,"midi":42,"velocity":56,"voice":"hat","bar":87},{"beat":351,"duration":0.18,"midi":36,"velocity":104,"voice":"kick","bar":87},{"beat":351.0,"duration":0.48,"midi":57,"velocity":74,"voice":"rhodes","bar":87},{"beat":351,"duration":0.2,"midi":38,"velocity":110,"voice":"snare","bar":87},{"beat":351.5,"duration":0.06,"midi":42,"velocity":44,"voice":"hat","bar":87},{"beat":351.5,"duration":0.48,"midi":61,"velocity":62,"voice":"rhodes","bar":87},{"beat":352,"duration":0.5,"midi":38,"velocity":102,"voice":"bass","bar":88},{"beat":352.0,"duration":0.06,"midi":42,"velocity":56,"voice":"hat","bar":88},{"beat":352,"duration":0.18,"midi":36,"velocity":116,"voice":"kick","bar":88},{"beat":352,"duration":4,"midi":50,"velocity":56,"voice":"pad","bar":88},{"beat":352,"duration":4,"midi":53,"velocity":56,"voice":"pad","bar":88},{"beat":352,"duration":4,"midi":57,"velocity":56,"voice":"pad","bar":88},{"beat":352.0,"duration":0.48,"midi":50,"velocity":74,"voice":"rhodes","bar":88},{"beat":352.5,"duration":0.5,"midi":45,"velocity":102,"voice":"bass","bar":88},{"beat":352.5,"duration":0.06,"midi":42,"velocity":44,"voice":"hat","bar":88},{"beat":352.5,"duration":0.48,"midi":53,"velocity":62,"voice":"rhodes","bar":88},{"beat":353,"duration":0.5,"midi":50,"velocity":102,"voice":"bass","bar":88},{"beat":353.0,"duration":0.06,"midi":42,"velocity":56,"voice":"hat","bar":88},{"beat":353.0,"duration":0.48,"midi":57,"velocity":74,"voice":"rhodes","bar":88},{"beat":353.5,"duration":0.5,"midi":45,"velocity":102,"voice":"bass","bar":88},{"beat":353.5,"duration":0.06,"midi":42,"velocity":44,"voice":"hat","bar":88},{"beat":353.5,"duration":0.48,"midi":62,"velocity":62,"voice":"rhodes","bar":88},{"beat":354,"duration":0.5,"midi":38,"velocity":102,"voice":"bass","bar":88},{"beat":354.0,"duration":0.06,"midi":42,"velocity":56,"voice":"hat","bar":88},{"beat":354,"duration":0.18,"midi":36,"velocity":116,"voice":"kick","bar":88},{"beat":354.0,"duration":0.48,"midi":57,"velocity":74,"voice":"rhodes","bar":88},{"beat":354.5,"duration":0.5,"midi":41,"velocity":102,"voice":"bass","bar":88},{"beat":354.5,"duration":0.06,"midi":42,"velocity":44,"voice":"hat","bar":88},{"beat":354.5,"duration":0.48,"midi":53,"velocity":62,"voice":"rhodes","bar":88},{"beat":355,"duration":0.5,"midi":45,"velocity":102,"voice":"bass","bar":88},{"beat":355.0,"duration":0.06,"midi":42,"velocity":56,"voice":"hat","bar":88},{"beat":355.0,"duration":0.48,"midi":50,"velocity":74,"voice":"rhodes","bar":88},{"beat":355.5,"duration":0.5,"midi":41,"velocity":102,"voice":"bass","bar":88},{"beat":355.5,"duration":0.06,"midi":42,"velocity":44,"voice":"hat","bar":88},{"beat":355.5,"duration":0.48,"midi":53,"velocity":62,"voice":"rhodes","bar":88},{"beat":356,"duration":0.5,"midi":38,"velocity":102,"voice":"bass","bar":89},{"beat":356.0,"duration":0.06,"midi":42,"velocity":56,"voice":"hat","bar":89},{"beat":356,"duration":0.18,"midi":36,"velocity":116,"voice":"kick","bar":89},{"beat":356,"duration":4,"midi":50,"velocity":56,"voice":"pad","bar":89},{"beat":356,"duration":4,"midi":53,"velocity":56,"voice":"pad","bar":89},{"beat":356,"duration":4,"midi":57,"velocity":56,"voice":"pad","bar":89},{"beat":356.0,"duration":0.48,"midi":50,"velocity":74,"voice":"rhodes","bar":89},{"beat":356.5,"duration":0.5,"midi":45,"velocity":102,"voice":"bass","bar":89},{"beat":356.5,"duration":0.06,"midi":42,"velocity":44,"voice":"hat","bar":89},{"beat":356.5,"duration":0.48,"midi":53,"velocity":62,"voice":"rhodes","bar":89},{"beat":357,"duration":0.5,"midi":50,"velocity":102,"voice":"bass","bar":89},{"beat":357.0,"duration":0.06,"midi":42,"velocity":56,"voice":"hat","bar":89},{"beat":357.0,"duration":0.48,"midi":57,"velocity":74,"voice":"rhodes","bar":89},{"beat":357.5,"duration":0.5,"midi":45,"velocity":102,"voice":"bass","bar":89},{"beat":357.5,"duration":0.06,"midi":42,"velocity":44,"voice":"hat","bar":89},{"beat":357.5,"duration":0.48,"midi":62,"velocity":62,"voice":"rhodes","bar":89},{"beat":358,"duration":0.5,"midi":38,"velocity":102,"voice":"bass","bar":89},{"beat":358.0,"duration":0.06,"midi":42,"velocity":56,"voice":"hat","bar":89},{"beat":358,"duration":0.18,"midi":36,"velocity":116,"voice":"kick","bar":89},{"beat":358.0,"duration":0.48,"midi":57,"velocity":74,"voice":"rhodes","bar":89},{"beat":358.5,"duration":0.5,"midi":41,"velocity":102,"voice":"bass","bar":89},{"beat":358.5,"duration":0.06,"midi":42,"velocity":44,"voice":"hat","bar":89},{"beat":358.5,"duration":0.48,"midi":53,"velocity":62,"voice":"rhodes","bar":89},{"beat":359,"duration":0.5,"midi":45,"velocity":102,"voice":"bass","bar":89},{"beat":359.0,"duration":0.06,"midi":42,"velocity":56,"voice":"hat","bar":89},{"beat":359.0,"duration":0.48,"midi":50,"velocity":74,"voice":"rhodes","bar":89},{"beat":359.5,"duration":0.5,"midi":41,"velocity":102,"voice":"bass","bar":89},{"beat":359.5,"duration":0.06,"midi":42,"velocity":44,"voice":"hat","bar":89},{"beat":359.5,"duration":0.48,"midi":53,"velocity":62,"voice":"rhodes","bar":89},{"beat":360,"duration":0.5,"midi":46,"velocity":102,"voice":"bass","bar":90},{"beat":360.0,"duration":0.06,"midi":42,"velocity":56,"voice":"hat","bar":90},{"beat":360,"duration":0.18,"midi":36,"velocity":116,"voice":"kick","bar":90},{"beat":360,"duration":4,"midi":58,"velocity":56,"voice":"pad","bar":90},{"beat":360,"duration":4,"midi":62,"velocity":56,"voice":"pad","bar":90},{"beat":360,"duration":4,"midi":65,"velocity":56,"voice":"pad","bar":90},{"beat":360.0,"duration":0.48,"midi":58,"velocity":74,"voice":"rhodes","bar":90},{"beat":360.5,"duration":0.5,"midi":41,"velocity":102,"voice":"bass","bar":90},{"beat":360.5,"duration":0.06,"midi":42,"velocity":44,"voice":"hat","bar":90},{"beat":360.5,"duration":0.48,"midi":62,"velocity":62,"voice":"rhodes","bar":90},{"beat":361,"duration":0.5,"midi":46,"velocity":102,"voice":"bass","bar":90},{"beat":361.0,"duration":0.06,"midi":42,"velocity":56,"voice":"hat","bar":90},{"beat":361.0,"duration":0.48,"midi":65,"velocity":74,"voice":"rhodes","bar":90},{"beat":361.5,"duration":0.5,"midi":50,"velocity":102,"voice":"bass","bar":90},{"beat":361.5,"duration":0.06,"midi":42,"velocity":44,"voice":"hat","bar":90},{"beat":361.5,"duration":0.48,"midi":70,"velocity":62,"voice":"rhodes","bar":90},{"beat":362,"duration":0.5,"midi":46,"velocity":102,"voice":"bass","bar":90},{"beat":362.0,"duration":0.06,"midi":42,"velocity":56,"voice":"hat","bar":90},{"beat":362,"duration":0.18,"midi":36,"velocity":116,"voice":"kick","bar":90},{"beat":362.0,"duration":0.48,"midi":65,"velocity":74,"voice":"rhodes","bar":90},{"beat":362.5,"duration":0.5,"midi":41,"velocity":102,"voice":"bass","bar":90},{"beat":362.5,"duration":0.06,"midi":42,"velocity":44,"voice":"hat","bar":90},{"beat":362.5,"duration":0.48,"midi":62,"velocity":62,"voice":"rhodes","bar":90},{"beat":363,"duration":1,"midi":50,"velocity":102,"voice":"bass","bar":90},{"beat":363.0,"duration":0.06,"midi":42,"velocity":56,"voice":"hat","bar":90},{"beat":363.0,"duration":0.48,"midi":58,"velocity":74,"voice":"rhodes","bar":90},{"beat":363.5,"duration":0.06,"midi":42,"velocity":44,"voice":"hat","bar":90},{"beat":363.5,"duration":0.48,"midi":62,"velocity":62,"voice":"rhodes","bar":90},{"beat":364,"duration":0.5,"midi":48,"velocity":102,"voice":"bass","bar":91},{"beat":364.0,"duration":0.06,"midi":42,"velocity":56,"voice":"hat","bar":91},{"beat":364,"duration":0.18,"midi":36,"velocity":116,"voice":"kick","bar":91},{"beat":364,"duration":4,"midi":60,"velocity":56,"voice":"pad","bar":91},{"beat":364,"duration":4,"midi":64,"velocity":56,"voice":"pad","bar":91},{"beat":364,"duration":4,"midi":67,"velocity":56,"voice":"pad","bar":91},{"beat":364.0,"duration":0.48,"midi":60,"velocity":74,"voice":"rhodes","bar":91},{"beat":364.5,"duration":0.5,"midi":43,"velocity":102,"voice":"bass","bar":91},{"beat":364.5,"duration":0.06,"midi":42,"velocity":44,"voice":"hat","bar":91},{"beat":364.5,"duration":0.48,"midi":64,"velocity":62,"voice":"rhodes","bar":91},{"beat":365,"duration":0.5,"midi":48,"velocity":102,"voice":"bass","bar":91},{"beat":365.0,"duration":0.06,"midi":42,"velocity":56,"voice":"hat","bar":91},{"beat":365.0,"duration":0.48,"midi":67,"velocity":74,"voice":"rhodes","bar":91},{"beat":365.5,"duration":0.5,"midi":52,"velocity":102,"voice":"bass","bar":91},{"beat":365.5,"duration":0.06,"midi":42,"velocity":44,"voice":"hat","bar":91},{"beat":365.5,"duration":0.48,"midi":72,"velocity":62,"voice":"rhodes","bar":91},{"beat":366,"duration":0.5,"midi":48,"velocity":102,"voice":"bass","bar":91},{"beat":366.0,"duration":0.06,"midi":42,"velocity":56,"voice":"hat","bar":91},{"beat":366,"duration":0.18,"midi":36,"velocity":116,"voice":"kick","bar":91},{"beat":366.0,"duration":0.48,"midi":67,"velocity":74,"voice":"rhodes","bar":91},{"beat":366.5,"duration":0.5,"midi":43,"velocity":102,"voice":"bass","bar":91},{"beat":366.5,"duration":0.06,"midi":42,"velocity":44,"voice":"hat","bar":91},{"beat":366.5,"duration":0.48,"midi":64,"velocity":62,"voice":"rhodes","bar":91},{"beat":367,"duration":1,"midi":52,"velocity":102,"voice":"bass","bar":91},{"beat":367.0,"duration":0.06,"midi":42,"velocity":56,"voice":"hat","bar":91},{"beat":367.0,"duration":0.48,"midi":60,"velocity":74,"voice":"rhodes","bar":91},{"beat":367.5,"duration":0.06,"midi":42,"velocity":44,"voice":"hat","bar":91},{"beat":367.5,"duration":0.48,"midi":64,"velocity":62,"voice":"rhodes","bar":91},{"beat":368,"duration":0.5,"midi":38,"velocity":102,"voice":"bass","bar":92},{"beat":368,"duration":4,"midi":50,"velocity":56,"voice":"pad","bar":92},{"beat":368,"duration":4,"midi":53,"velocity":56,"voice":"pad","bar":92},{"beat":368,"duration":4,"midi":57,"velocity":56,"voice":"pad","bar":92},{"beat":368.0,"duration":0.48,"midi":50,"velocity":74,"voice":"rhodes","bar":92},{"beat":368.5,"duration":0.5,"midi":45,"velocity":102,"voice":"bass","bar":92},{"beat":368.5,"duration":0.48,"midi":53,"velocity":62,"voice":"rhodes","bar":92},{"beat":369,"duration":0.5,"midi":50,"velocity":102,"voice":"bass","bar":92},{"beat":369.0,"duration":0.48,"midi":57,"velocity":74,"voice":"rhodes","bar":92},{"beat":369.5,"duration":0.5,"midi":45,"velocity":102,"voice":"bass","bar":92},{"beat":369.5,"duration":0.48,"midi":62,"velocity":62,"voice":"rhodes","bar":92},{"beat":370,"duration":0.5,"midi":38,"velocity":102,"voice":"bass","bar":92},{"beat":370.0,"duration":0.48,"midi":57,"velocity":74,"voice":"rhodes","bar":92},{"beat":370.5,"duration":0.5,"midi":41,"velocity":102,"voice":"bass","bar":92},{"beat":370.5,"duration":0.48,"midi":53,"velocity":62,"voice":"rhodes","bar":92},{"beat":371,"duration":0.5,"midi":45,"velocity":102,"voice":"bass","bar":92},{"beat":371.0,"duration":0.48,"midi":50,"velocity":74,"voice":"rhodes","bar":92},{"beat":371.5,"duration":0.5,"midi":41,"velocity":102,"voice":"bass","bar":92},{"beat":371.5,"duration":0.48,"midi":53,"velocity":62,"voice":"rhodes","bar":92},{"beat":372,"duration":0.5,"midi":38,"velocity":102,"voice":"bass","bar":93},{"beat":372,"duration":4,"midi":50,"velocity":56,"voice":"pad","bar":93},{"beat":372,"duration":4,"midi":53,"velocity":56,"voice":"pad","bar":93},{"beat":372,"duration":4,"midi":57,"velocity":56,"voice":"pad","bar":93},{"beat":372.0,"duration":0.48,"midi":50,"velocity":74,"voice":"rhodes","bar":93},{"beat":372.5,"duration":0.5,"midi":45,"velocity":102,"voice":"bass","bar":93},{"beat":372.5,"duration":0.48,"midi":53,"velocity":62,"voice":"rhodes","bar":93},{"beat":373,"duration":0.5,"midi":50,"velocity":102,"voice":"bass","bar":93},{"beat":373.0,"duration":0.48,"midi":57,"velocity":74,"voice":"rhodes","bar":93},{"beat":373.5,"duration":0.5,"midi":45,"velocity":102,"voice":"bass","bar":93},{"beat":373.5,"duration":0.48,"midi":62,"velocity":62,"voice":"rhodes","bar":93},{"beat":374,"duration":0.5,"midi":38,"velocity":102,"voice":"bass","bar":93},{"beat":374.0,"duration":0.48,"midi":57,"velocity":74,"voice":"rhodes","bar":93},{"beat":374.5,"duration":0.5,"midi":41,"velocity":102,"voice":"bass","bar":93},{"beat":374.5,"duration":0.48,"midi":53,"velocity":62,"voice":"rhodes","bar":93},{"beat":375,"duration":0.5,"midi":45,"velocity":102,"voice":"bass","bar":93},{"beat":375.0,"duration":0.48,"midi":50,"velocity":74,"voice":"rhodes","bar":93},{"beat":375.5,"duration":0.5,"midi":41,"velocity":102,"voice":"bass","bar":93},{"beat":375.5,"duration":0.48,"midi":53,"velocity":62,"voice":"rhodes","bar":93},{"beat":376,"duration":0.5,"midi":46,"velocity":102,"voice":"bass","bar":94},{"beat":376,"duration":4,"midi":58,"velocity":56,"voice":"pad","bar":94},{"beat":376,"duration":4,"midi":62,"velocity":56,"voice":"pad","bar":94},{"beat":376,"duration":4,"midi":65,"velocity":56,"voice":"pad","bar":94},{"beat":376.0,"duration":0.48,"midi":58,"velocity":74,"voice":"rhodes","bar":94},{"beat":376.5,"duration":0.5,"midi":41,"velocity":102,"voice":"bass","bar":94},{"beat":376.5,"duration":0.48,"midi":62,"velocity":62,"voice":"rhodes","bar":94},{"beat":377,"duration":0.5,"midi":46,"velocity":102,"voice":"bass","bar":94},{"beat":377.0,"duration":0.48,"midi":65,"velocity":74,"voice":"rhodes","bar":94},{"beat":377.5,"duration":0.5,"midi":50,"velocity":102,"voice":"bass","bar":94},{"beat":377.5,"duration":0.48,"midi":70,"velocity":62,"voice":"rhodes","bar":94},{"beat":378,"duration":0.5,"midi":46,"velocity":102,"voice":"bass","bar":94},{"beat":378.0,"duration":0.48,"midi":65,"velocity":74,"voice":"rhodes","bar":94},{"beat":378.5,"duration":0.5,"midi":41,"velocity":102,"voice":"bass","bar":94},{"beat":378.5,"duration":0.48,"midi":62,"velocity":62,"voice":"rhodes","bar":94},{"beat":379,"duration":1,"midi":50,"velocity":102,"voice":"bass","bar":94},{"beat":379.0,"duration":0.48,"midi":58,"velocity":74,"voice":"rhodes","bar":94},{"beat":379.5,"duration":0.48,"midi":62,"velocity":62,"voice":"rhodes","bar":94},{"beat":380,"duration":0.5,"midi":48,"velocity":102,"voice":"bass","bar":95},{"beat":380,"duration":4,"midi":60,"velocity":56,"voice":"pad","bar":95},{"beat":380,"duration":4,"midi":64,"velocity":56,"voice":"pad","bar":95},{"beat":380,"duration":4,"midi":67,"velocity":56,"voice":"pad","bar":95},{"beat":380.0,"duration":0.48,"midi":60,"velocity":74,"voice":"rhodes","bar":95},{"beat":380.5,"duration":0.5,"midi":43,"velocity":102,"voice":"bass","bar":95},{"beat":380.5,"duration":0.48,"midi":64,"velocity":62,"voice":"rhodes","bar":95},{"beat":381,"duration":0.5,"midi":48,"velocity":102,"voice":"bass","bar":95},{"beat":381.0,"duration":0.48,"midi":67,"velocity":74,"voice":"rhodes","bar":95},{"beat":381.5,"duration":0.5,"midi":52,"velocity":102,"voice":"bass","bar":95},{"beat":381.5,"duration":0.48,"midi":72,"velocity":62,"voice":"rhodes","bar":95},{"beat":382,"duration":0.5,"midi":48,"velocity":102,"voice":"bass","bar":95},{"beat":382.0,"duration":0.48,"midi":67,"velocity":74,"voice":"rhodes","bar":95},{"beat":382.5,"duration":0.5,"midi":43,"velocity":102,"voice":"bass","bar":95},{"beat":382.5,"duration":0.48,"midi":64,"velocity":62,"voice":"rhodes","bar":95},{"beat":383,"duration":1,"midi":52,"velocity":102,"voice":"bass","bar":95},{"beat":383.0,"duration":0.48,"midi":60,"velocity":74,"voice":"rhodes","bar":95},{"beat":383.5,"duration":0.48,"midi":64,"velocity":62,"voice":"rhodes","bar":95},{"beat":384,"duration":0.5,"midi":38,"velocity":102,"voice":"bass","bar":96},{"beat":384,"duration":4,"midi":50,"velocity":56,"voice":"pad","bar":96},{"beat":384,"duration":4,"midi":53,"velocity":56,"voice":"pad","bar":96},{"beat":384,"duration":4,"midi":57,"velocity":56,"voice":"pad","bar":96},{"beat":384.5,"duration":0.5,"midi":45,"velocity":102,"voice":"bass","bar":96},{"beat":385,"duration":0.5,"midi":50,"velocity":102,"voice":"bass","bar":96},{"beat":385.5,"duration":0.5,"midi":45,"velocity":102,"voice":"bass","bar":96},{"beat":386,"duration":0.5,"midi":38,"velocity":102,"voice":"bass","bar":96},{"beat":386.5,"duration":0.5,"midi":41,"velocity":102,"voice":"bass","bar":96},{"beat":387,"duration":0.5,"midi":45,"velocity":102,"voice":"bass","bar":96},{"beat":387.5,"duration":0.5,"midi":41,"velocity":102,"voice":"bass","bar":96},{"beat":388,"duration":0.5,"midi":38,"velocity":102,"voice":"bass","bar":97},{"beat":388,"duration":4,"midi":50,"velocity":56,"voice":"pad","bar":97},{"beat":388,"duration":4,"midi":53,"velocity":56,"voice":"pad","bar":97},{"beat":388,"duration":4,"midi":57,"velocity":56,"voice":"pad","bar":97},{"beat":388.5,"duration":0.5,"midi":45,"velocity":102,"voice":"bass","bar":97},{"beat":389,"duration":0.5,"midi":50,"velocity":102,"voice":"bass","bar":97},{"beat":389.5,"duration":0.5,"midi":45,"velocity":102,"voice":"bass","bar":97},{"beat":390,"duration":0.5,"midi":38,"velocity":102,"voice":"bass","bar":97},{"beat":390.5,"duration":0.5,"midi":41,"velocity":102,"voice":"bass","bar":97},{"beat":391,"duration":0.5,"midi":45,"velocity":102,"voice":"bass","bar":97},{"beat":391.5,"duration":0.5,"midi":41,"velocity":102,"voice":"bass","bar":97},{"beat":392,"duration":0.5,"midi":46,"velocity":102,"voice":"bass","bar":98},{"beat":392,"duration":4,"midi":58,"velocity":56,"voice":"pad","bar":98},{"beat":392,"duration":4,"midi":62,"velocity":56,"voice":"pad","bar":98},{"beat":392,"duration":4,"midi":65,"velocity":56,"voice":"pad","bar":98},{"beat":392.5,"duration":0.5,"midi":41,"velocity":102,"voice":"bass","bar":98},{"beat":393,"duration":0.5,"midi":46,"velocity":102,"voice":"bass","bar":98},{"beat":393.5,"duration":0.5,"midi":50,"velocity":102,"voice":"bass","bar":98},{"beat":394,"duration":0.5,"midi":46,"velocity":102,"voice":"bass","bar":98},{"beat":394.5,"duration":0.5,"midi":41,"velocity":102,"voice":"bass","bar":98},{"beat":395,"duration":1,"midi":50,"velocity":102,"voice":"bass","bar":98},{"beat":396,"duration":0.5,"midi":48,"velocity":102,"voice":"bass","bar":99},{"beat":396,"duration":4,"midi":60,"velocity":56,"voice":"pad","bar":99},{"beat":396,"duration":4,"midi":64,"velocity":56,"voice":"pad","bar":99},{"beat":396,"duration":4,"midi":67,"velocity":56,"voice":"pad","bar":99},{"beat":396.5,"duration":0.5,"midi":43,"velocity":102,"voice":"bass","bar":99},{"beat":397,"duration":0.5,"midi":48,"velocity":102,"voice":"bass","bar":99},{"beat":397.5,"duration":0.5,"midi":52,"velocity":102,"voice":"bass","bar":99},{"beat":398,"duration":0.5,"midi":48,"velocity":102,"voice":"bass","bar":99},{"beat":398.5,"duration":0.5,"midi":43,"velocity":102,"voice":"bass","bar":99},{"beat":399,"duration":1,"midi":52,"velocity":102,"voice":"bass","bar":99},{"beat":400,"duration":4,"midi":50,"velocity":56,"voice":"pad","bar":100},{"beat":400,"duration":4,"midi":53,"velocity":56,"voice":"pad","bar":100},{"beat":400,"duration":4,"midi":57,"velocity":56,"voice":"pad","bar":100},{"beat":404,"duration":4,"midi":50,"velocity":56,"voice":"pad","bar":101},{"beat":404,"duration":4,"midi":53,"velocity":56,"voice":"pad","bar":101},{"beat":404,"duration":4,"midi":57,"velocity":56,"voice":"pad","bar":101},{"beat":408,"duration":4,"midi":58,"velocity":56,"voice":"pad","bar":102},{"beat":408,"duration":4,"midi":62,"velocity":56,"voice":"pad","bar":102},{"beat":408,"duration":4,"midi":65,"velocity":56,"voice":"pad","bar":102},{"beat":412,"duration":4,"midi":60,"velocity":56,"voice":"pad","bar":103},{"beat":412,"duration":4,"midi":64,"velocity":56,"voice":"pad","bar":103},{"beat":412,"duration":4,"midi":67,"velocity":56,"voice":"pad","bar":103}],"instruments":[{"voice":"kick","label":"Kick","color":"#e85d5d"},{"voice":"snare","label":"Snare","color":"#f0a35a"},{"voice":"tom","label":"Toms","color":"#d98cff"},{"voice":"hat","label":"Hats","color":"#bcd0e0"},{"voice":"bass","label":"Bass (Hooky)","color":"#5fd0ff"},{"voice":"rhodes","label":"Rhodes","color":"#ffd98a"},{"voice":"pad","label":"Mellotron pad","color":"#8aa0d8"},{"voice":"lead","label":"Lead","color":"#ffe07a"},{"voice":"voxF","label":"Voice \u00b7 female","color":"#ff8ab0"},{"voice":"voxM","label":"Voice \u00b7 male","color":"#7fa8ff"}],"sections":[{"name":"Intro","from":0,"to":8},{"name":"Verse \u00b7 male","from":8,"to":24},{"name":"Chorus \u00b7 female","from":24,"to":40},{"name":"Verse \u00b7 male","from":40,"to":56},{"name":"Bridge \u00b7 lead","from":56,"to":72},{"name":"Chorus \u00b7 duet","from":72,"to":88},{"name":"Outro","from":88,"to":104}]};
