{
  "title": "NEON HIJAZ",
  "subtitle": "Italo-disco x Acid Arab - double harmonic minor - 124 BPM",
  "tempo": 124,
  "beatsPerMeasure": 4,
  "notatedMeasures": 64,
  "playbackMeasures": 64,
  "order": [
    1,
    2,
    3,
    4,
    5,
    6,
    7,
    8,
    9,
    10,
    11,
    12,
    13,
    14,
    15,
    16,
    17,
    18,
    19,
    20,
    21,
    22,
    23,
    24,
    25,
    26,
    27,
    28,
    29,
    30,
    31,
    32,
    33,
    34,
    35,
    36,
    37,
    38,
    39,
    40,
    41,
    42,
    43,
    44,
    45,
    46,
    47,
    48,
    49,
    50,
    51,
    52,
    53,
    54,
    55,
    56,
    57,
    58,
    59,
    60,
    61,
    62,
    63,
    64
  ],
  "notes": [
    {
      "beat": 0,
      "duration": 0.5,
      "midi": 74,
      "velocity": 96,
      "voice": "oud",
      "bar": 0
    },
    {
      "beat": 0,
      "duration": 4,
      "midi": 50,
      "velocity": 58,
      "voice": "pad",
      "bar": 0
    },
    {
      "beat": 0,
      "duration": 4,
      "midi": 54,
      "velocity": 58,
      "voice": "pad",
      "bar": 0
    },
    {
      "beat": 0,
      "duration": 4,
      "midi": 57,
      "velocity": 58,
      "voice": "pad",
      "bar": 0
    },
    {
      "beat": 0,
      "duration": 4,
      "midi": 62,
      "velocity": 58,
      "voice": "pad",
      "bar": 0
    },
    {
      "beat": 0,
      "duration": 0.18,
      "midi": 64,
      "velocity": 96,
      "voice": "perc",
      "bar": 0
    },
    {
      "beat": 0.5,
      "duration": 0.5,
      "midi": 75,
      "velocity": 96,
      "voice": "oud",
      "bar": 0
    },
    {
      "beat": 0.5,
      "duration": 0.1,
      "midi": 62,
      "velocity": 72,
      "voice": "perc",
      "bar": 0
    },
    {
      "beat": 1,
      "duration": 0.5,
      "midi": 74,
      "velocity": 96,
      "voice": "oud",
      "bar": 0
    },
    {
      "beat": 1.5,
      "duration": 0.1,
      "midi": 62,
      "velocity": 72,
      "voice": "perc",
      "bar": 0
    },
    {
      "beat": 2,
      "duration": 0.75,
      "midi": 69,
      "velocity": 96,
      "voice": "oud",
      "bar": 0
    },
    {
      "beat": 2,
      "duration": 0.18,
      "midi": 64,
      "velocity": 96,
      "voice": "perc",
      "bar": 0
    },
    {
      "beat": 2.75,
      "duration": 0.25,
      "midi": 70,
      "velocity": 96,
      "voice": "oud",
      "bar": 0
    },
    {
      "beat": 3,
      "duration": 1,
      "midi": 66,
      "velocity": 96,
      "voice": "oud",
      "bar": 0
    },
    {
      "beat": 3,
      "duration": 0.1,
      "midi": 62,
      "velocity": 72,
      "voice": "perc",
      "bar": 0
    },
    {
      "beat": 3.5,
      "duration": 0.1,
      "midi": 62,
      "velocity": 72,
      "voice": "perc",
      "bar": 0
    },
    {
      "beat": 4,
      "duration": 0.5,
      "midi": 74,
      "velocity": 96,
      "voice": "oud",
      "bar": 1
    },
    {
      "beat": 4,
      "duration": 4,
      "midi": 51,
      "velocity": 58,
      "voice": "pad",
      "bar": 1
    },
    {
      "beat": 4,
      "duration": 4,
      "midi": 55,
      "velocity": 58,
      "voice": "pad",
      "bar": 1
    },
    {
      "beat": 4,
      "duration": 4,
      "midi": 58,
      "velocity": 58,
      "voice": "pad",
      "bar": 1
    },
    {
      "beat": 4,
      "duration": 4,
      "midi": 63,
      "velocity": 58,
      "voice": "pad",
      "bar": 1
    },
    {
      "beat": 4,
      "duration": 0.18,
      "midi": 64,
      "velocity": 96,
      "voice": "perc",
      "bar": 1
    },
    {
      "beat": 4.5,
      "duration": 0.5,
      "midi": 75,
      "velocity": 96,
      "voice": "oud",
      "bar": 1
    },
    {
      "beat": 4.5,
      "duration": 0.1,
      "midi": 62,
      "velocity": 72,
      "voice": "perc",
      "bar": 1
    },
    {
      "beat": 5,
      "duration": 0.5,
      "midi": 74,
      "velocity": 96,
      "voice": "oud",
      "bar": 1
    },
    {
      "beat": 5.5,
      "duration": 0.1,
      "midi": 62,
      "velocity": 72,
      "voice": "perc",
      "bar": 1
    },
    {
      "beat": 6,
      "duration": 0.75,
      "midi": 69,
      "velocity": 96,
      "voice": "oud",
      "bar": 1
    },
    {
      "beat": 6,
      "duration": 0.18,
      "midi": 64,
      "velocity": 96,
      "voice": "perc",
      "bar": 1
    },
    {
      "beat": 6.75,
      "duration": 0.25,
      "midi": 70,
      "velocity": 96,
      "voice": "oud",
      "bar": 1
    },
    {
      "beat": 7,
      "duration": 1,
      "midi": 66,
      "velocity": 96,
      "voice": "oud",
      "bar": 1
    },
    {
      "beat": 7,
      "duration": 0.1,
      "midi": 62,
      "velocity": 72,
      "voice": "perc",
      "bar": 1
    },
    {
      "beat": 7.5,
      "duration": 0.1,
      "midi": 62,
      "velocity": 72,
      "voice": "perc",
      "bar": 1
    },
    {
      "beat": 8,
      "duration": 0.07,
      "midi": 42,
      "velocity": 44,
      "voice": "hat",
      "bar": 2
    },
    {
      "beat": 8,
      "duration": 0.5,
      "midi": 74,
      "velocity": 96,
      "voice": "oud",
      "bar": 2
    },
    {
      "beat": 8,
      "duration": 4,
      "midi": 55,
      "velocity": 58,
      "voice": "pad",
      "bar": 2
    },
    {
      "beat": 8,
      "duration": 4,
      "midi": 58,
      "velocity": 58,
      "voice": "pad",
      "bar": 2
    },
    {
      "beat": 8,
      "duration": 4,
      "midi": 62,
      "velocity": 58,
      "voice": "pad",
      "bar": 2
    },
    {
      "beat": 8,
      "duration": 4,
      "midi": 67,
      "velocity": 58,
      "voice": "pad",
      "bar": 2
    },
    {
      "beat": 8,
      "duration": 0.18,
      "midi": 64,
      "velocity": 96,
      "voice": "perc",
      "bar": 2
    },
    {
      "beat": 8.5,
      "duration": 0.14,
      "midi": 46,
      "velocity": 74,
      "voice": "hat",
      "bar": 2
    },
    {
      "beat": 8.5,
      "duration": 0.5,
      "midi": 75,
      "velocity": 96,
      "voice": "oud",
      "bar": 2
    },
    {
      "beat": 8.5,
      "duration": 0.1,
      "midi": 62,
      "velocity": 72,
      "voice": "perc",
      "bar": 2
    },
    {
      "beat": 9,
      "duration": 0.07,
      "midi": 42,
      "velocity": 44,
      "voice": "hat",
      "bar": 2
    },
    {
      "beat": 9,
      "duration": 0.5,
      "midi": 74,
      "velocity": 96,
      "voice": "oud",
      "bar": 2
    },
    {
      "beat": 9.5,
      "duration": 0.14,
      "midi": 46,
      "velocity": 74,
      "voice": "hat",
      "bar": 2
    },
    {
      "beat": 9.5,
      "duration": 0.1,
      "midi": 62,
      "velocity": 72,
      "voice": "perc",
      "bar": 2
    },
    {
      "beat": 10,
      "duration": 0.07,
      "midi": 42,
      "velocity": 44,
      "voice": "hat",
      "bar": 2
    },
    {
      "beat": 10,
      "duration": 0.75,
      "midi": 69,
      "velocity": 96,
      "voice": "oud",
      "bar": 2
    },
    {
      "beat": 10,
      "duration": 0.18,
      "midi": 64,
      "velocity": 96,
      "voice": "perc",
      "bar": 2
    },
    {
      "beat": 10.5,
      "duration": 0.14,
      "midi": 46,
      "velocity": 74,
      "voice": "hat",
      "bar": 2
    },
    {
      "beat": 10.75,
      "duration": 0.25,
      "midi": 70,
      "velocity": 96,
      "voice": "oud",
      "bar": 2
    },
    {
      "beat": 11,
      "duration": 0.07,
      "midi": 42,
      "velocity": 44,
      "voice": "hat",
      "bar": 2
    },
    {
      "beat": 11,
      "duration": 1,
      "midi": 66,
      "velocity": 96,
      "voice": "oud",
      "bar": 2
    },
    {
      "beat": 11,
      "duration": 0.1,
      "midi": 62,
      "velocity": 72,
      "voice": "perc",
      "bar": 2
    },
    {
      "beat": 11.5,
      "duration": 0.14,
      "midi": 46,
      "velocity": 74,
      "voice": "hat",
      "bar": 2
    },
    {
      "beat": 11.5,
      "duration": 0.1,
      "midi": 62,
      "velocity": 72,
      "voice": "perc",
      "bar": 2
    },
    {
      "beat": 12,
      "duration": 0.07,
      "midi": 42,
      "velocity": 44,
      "voice": "hat",
      "bar": 3
    },
    {
      "beat": 12,
      "duration": 0.5,
      "midi": 74,
      "velocity": 96,
      "voice": "oud",
      "bar": 3
    },
    {
      "beat": 12,
      "duration": 4,
      "midi": 57,
      "velocity": 58,
      "voice": "pad",
      "bar": 3
    },
    {
      "beat": 12,
      "duration": 4,
      "midi": 61,
      "velocity": 58,
      "voice": "pad",
      "bar": 3
    },
    {
      "beat": 12,
      "duration": 4,
      "midi": 64,
      "velocity": 58,
      "voice": "pad",
      "bar": 3
    },
    {
      "beat": 12,
      "duration": 4,
      "midi": 69,
      "velocity": 58,
      "voice": "pad",
      "bar": 3
    },
    {
      "beat": 12,
      "duration": 0.18,
      "midi": 64,
      "velocity": 96,
      "voice": "perc",
      "bar": 3
    },
    {
      "beat": 12.5,
      "duration": 0.14,
      "midi": 46,
      "velocity": 74,
      "voice": "hat",
      "bar": 3
    },
    {
      "beat": 12.5,
      "duration": 0.5,
      "midi": 75,
      "velocity": 96,
      "voice": "oud",
      "bar": 3
    },
    {
      "beat": 12.5,
      "duration": 0.1,
      "midi": 62,
      "velocity": 72,
      "voice": "perc",
      "bar": 3
    },
    {
      "beat": 13,
      "duration": 0.07,
      "midi": 42,
      "velocity": 44,
      "voice": "hat",
      "bar": 3
    },
    {
      "beat": 13,
      "duration": 0.5,
      "midi": 74,
      "velocity": 96,
      "voice": "oud",
      "bar": 3
    },
    {
      "beat": 13.5,
      "duration": 0.14,
      "midi": 46,
      "velocity": 74,
      "voice": "hat",
      "bar": 3
    },
    {
      "beat": 13.5,
      "duration": 0.1,
      "midi": 62,
      "velocity": 72,
      "voice": "perc",
      "bar": 3
    },
    {
      "beat": 14,
      "duration": 0.07,
      "midi": 42,
      "velocity": 44,
      "voice": "hat",
      "bar": 3
    },
    {
      "beat": 14,
      "duration": 0.75,
      "midi": 69,
      "velocity": 96,
      "voice": "oud",
      "bar": 3
    },
    {
      "beat": 14,
      "duration": 0.18,
      "midi": 64,
      "velocity": 96,
      "voice": "perc",
      "bar": 3
    },
    {
      "beat": 14.5,
      "duration": 0.14,
      "midi": 46,
      "velocity": 74,
      "voice": "hat",
      "bar": 3
    },
    {
      "beat": 14.75,
      "duration": 0.25,
      "midi": 70,
      "velocity": 96,
      "voice": "oud",
      "bar": 3
    },
    {
      "beat": 15,
      "duration": 0.07,
      "midi": 42,
      "velocity": 44,
      "voice": "hat",
      "bar": 3
    },
    {
      "beat": 15,
      "duration": 1,
      "midi": 66,
      "velocity": 96,
      "voice": "oud",
      "bar": 3
    },
    {
      "beat": 15,
      "duration": 0.1,
      "midi": 62,
      "velocity": 72,
      "voice": "perc",
      "bar": 3
    },
    {
      "beat": 15.5,
      "duration": 0.14,
      "midi": 46,
      "velocity": 74,
      "voice": "hat",
      "bar": 3
    },
    {
      "beat": 15.5,
      "duration": 0.1,
      "midi": 62,
      "velocity": 72,
      "voice": "perc",
      "bar": 3
    },
    {
      "beat": 16.0,
      "duration": 0.45,
      "midi": 38,
      "velocity": 108,
      "voice": "bass",
      "bar": 4
    },
    {
      "beat": 16,
      "duration": 0.07,
      "midi": 42,
      "velocity": 44,
      "voice": "hat",
      "bar": 4
    },
    {
      "beat": 16,
      "duration": 0.16,
      "midi": 36,
      "velocity": 124,
      "voice": "kick",
      "bar": 4
    },
    {
      "beat": 16,
      "duration": 4,
      "midi": 50,
      "velocity": 58,
      "voice": "pad",
      "bar": 4
    },
    {
      "beat": 16,
      "duration": 4,
      "midi": 54,
      "velocity": 58,
      "voice": "pad",
      "bar": 4
    },
    {
      "beat": 16,
      "duration": 4,
      "midi": 57,
      "velocity": 58,
      "voice": "pad",
      "bar": 4
    },
    {
      "beat": 16,
      "duration": 4,
      "midi": 62,
      "velocity": 58,
      "voice": "pad",
      "bar": 4
    },
    {
      "beat": 16,
      "duration": 0.18,
      "midi": 64,
      "velocity": 96,
      "voice": "perc",
      "bar": 4
    },
    {
      "beat": 16.5,
      "duration": 0.45,
      "midi": 38,
      "velocity": 100,
      "voice": "bass",
      "bar": 4
    },
    {
      "beat": 16.5,
      "duration": 0.14,
      "midi": 46,
      "velocity": 74,
      "voice": "hat",
      "bar": 4
    },
    {
      "beat": 16.5,
      "duration": 0.1,
      "midi": 62,
      "velocity": 72,
      "voice": "perc",
      "bar": 4
    },
    {
      "beat": 17.0,
      "duration": 0.45,
      "midi": 50,
      "velocity": 100,
      "voice": "bass",
      "bar": 4
    },
    {
      "beat": 17,
      "duration": 0.07,
      "midi": 42,
      "velocity": 44,
      "voice": "hat",
      "bar": 4
    },
    {
      "beat": 17,
      "duration": 0.16,
      "midi": 36,
      "velocity": 116,
      "voice": "kick",
      "bar": 4
    },
    {
      "beat": 17.5,
      "duration": 0.45,
      "midi": 38,
      "velocity": 100,
      "voice": "bass",
      "bar": 4
    },
    {
      "beat": 17.5,
      "duration": 0.14,
      "midi": 46,
      "velocity": 74,
      "voice": "hat",
      "bar": 4
    },
    {
      "beat": 17.5,
      "duration": 0.1,
      "midi": 62,
      "velocity": 72,
      "voice": "perc",
      "bar": 4
    },
    {
      "beat": 18.0,
      "duration": 0.45,
      "midi": 38,
      "velocity": 100,
      "voice": "bass",
      "bar": 4
    },
    {
      "beat": 18,
      "duration": 0.07,
      "midi": 42,
      "velocity": 44,
      "voice": "hat",
      "bar": 4
    },
    {
      "beat": 18,
      "duration": 0.16,
      "midi": 36,
      "velocity": 116,
      "voice": "kick",
      "bar": 4
    },
    {
      "beat": 18,
      "duration": 0.18,
      "midi": 64,
      "velocity": 96,
      "voice": "perc",
      "bar": 4
    },
    {
      "beat": 18.5,
      "duration": 0.45,
      "midi": 38,
      "velocity": 100,
      "voice": "bass",
      "bar": 4
    },
    {
      "beat": 18.5,
      "duration": 0.14,
      "midi": 46,
      "velocity": 74,
      "voice": "hat",
      "bar": 4
    },
    {
      "beat": 19.0,
      "duration": 0.45,
      "midi": 50,
      "velocity": 100,
      "voice": "bass",
      "bar": 4
    },
    {
      "beat": 19,
      "duration": 0.07,
      "midi": 42,
      "velocity": 44,
      "voice": "hat",
      "bar": 4
    },
    {
      "beat": 19,
      "duration": 0.16,
      "midi": 36,
      "velocity": 116,
      "voice": "kick",
      "bar": 4
    },
    {
      "beat": 19,
      "duration": 0.1,
      "midi": 62,
      "velocity": 72,
      "voice": "perc",
      "bar": 4
    },
    {
      "beat": 19.5,
      "duration": 0.45,
      "midi": 38,
      "velocity": 100,
      "voice": "bass",
      "bar": 4
    },
    {
      "beat": 19.5,
      "duration": 0.14,
      "midi": 46,
      "velocity": 74,
      "voice": "hat",
      "bar": 4
    },
    {
      "beat": 19.5,
      "duration": 0.1,
      "midi": 62,
      "velocity": 72,
      "voice": "perc",
      "bar": 4
    },
    {
      "beat": 20.0,
      "duration": 0.45,
      "midi": 39,
      "velocity": 108,
      "voice": "bass",
      "bar": 5
    },
    {
      "beat": 20,
      "duration": 0.07,
      "midi": 42,
      "velocity": 44,
      "voice": "hat",
      "bar": 5
    },
    {
      "beat": 20,
      "duration": 0.16,
      "midi": 36,
      "velocity": 124,
      "voice": "kick",
      "bar": 5
    },
    {
      "beat": 20,
      "duration": 4,
      "midi": 51,
      "velocity": 58,
      "voice": "pad",
      "bar": 5
    },
    {
      "beat": 20,
      "duration": 4,
      "midi": 55,
      "velocity": 58,
      "voice": "pad",
      "bar": 5
    },
    {
      "beat": 20,
      "duration": 4,
      "midi": 58,
      "velocity": 58,
      "voice": "pad",
      "bar": 5
    },
    {
      "beat": 20,
      "duration": 4,
      "midi": 63,
      "velocity": 58,
      "voice": "pad",
      "bar": 5
    },
    {
      "beat": 20,
      "duration": 0.18,
      "midi": 64,
      "velocity": 96,
      "voice": "perc",
      "bar": 5
    },
    {
      "beat": 20.5,
      "duration": 0.45,
      "midi": 39,
      "velocity": 100,
      "voice": "bass",
      "bar": 5
    },
    {
      "beat": 20.5,
      "duration": 0.14,
      "midi": 46,
      "velocity": 74,
      "voice": "hat",
      "bar": 5
    },
    {
      "beat": 20.5,
      "duration": 0.1,
      "midi": 62,
      "velocity": 72,
      "voice": "perc",
      "bar": 5
    },
    {
      "beat": 21.0,
      "duration": 0.45,
      "midi": 51,
      "velocity": 100,
      "voice": "bass",
      "bar": 5
    },
    {
      "beat": 21,
      "duration": 0.07,
      "midi": 42,
      "velocity": 44,
      "voice": "hat",
      "bar": 5
    },
    {
      "beat": 21,
      "duration": 0.16,
      "midi": 36,
      "velocity": 116,
      "voice": "kick",
      "bar": 5
    },
    {
      "beat": 21.5,
      "duration": 0.45,
      "midi": 39,
      "velocity": 100,
      "voice": "bass",
      "bar": 5
    },
    {
      "beat": 21.5,
      "duration": 0.14,
      "midi": 46,
      "velocity": 74,
      "voice": "hat",
      "bar": 5
    },
    {
      "beat": 21.5,
      "duration": 0.1,
      "midi": 62,
      "velocity": 72,
      "voice": "perc",
      "bar": 5
    },
    {
      "beat": 22.0,
      "duration": 0.45,
      "midi": 39,
      "velocity": 100,
      "voice": "bass",
      "bar": 5
    },
    {
      "beat": 22,
      "duration": 0.07,
      "midi": 42,
      "velocity": 44,
      "voice": "hat",
      "bar": 5
    },
    {
      "beat": 22,
      "duration": 0.16,
      "midi": 36,
      "velocity": 116,
      "voice": "kick",
      "bar": 5
    },
    {
      "beat": 22,
      "duration": 0.18,
      "midi": 64,
      "velocity": 96,
      "voice": "perc",
      "bar": 5
    },
    {
      "beat": 22.5,
      "duration": 0.45,
      "midi": 39,
      "velocity": 100,
      "voice": "bass",
      "bar": 5
    },
    {
      "beat": 22.5,
      "duration": 0.14,
      "midi": 46,
      "velocity": 74,
      "voice": "hat",
      "bar": 5
    },
    {
      "beat": 23.0,
      "duration": 0.45,
      "midi": 51,
      "velocity": 100,
      "voice": "bass",
      "bar": 5
    },
    {
      "beat": 23,
      "duration": 0.07,
      "midi": 42,
      "velocity": 44,
      "voice": "hat",
      "bar": 5
    },
    {
      "beat": 23,
      "duration": 0.16,
      "midi": 36,
      "velocity": 116,
      "voice": "kick",
      "bar": 5
    },
    {
      "beat": 23,
      "duration": 0.1,
      "midi": 62,
      "velocity": 72,
      "voice": "perc",
      "bar": 5
    },
    {
      "beat": 23.5,
      "duration": 0.45,
      "midi": 39,
      "velocity": 100,
      "voice": "bass",
      "bar": 5
    },
    {
      "beat": 23.5,
      "duration": 0.14,
      "midi": 46,
      "velocity": 74,
      "voice": "hat",
      "bar": 5
    },
    {
      "beat": 23.5,
      "duration": 0.1,
      "midi": 62,
      "velocity": 72,
      "voice": "perc",
      "bar": 5
    },
    {
      "beat": 24.0,
      "duration": 0.22,
      "midi": 55,
      "velocity": 84,
      "voice": "arp",
      "bar": 6
    },
    {
      "beat": 24.0,
      "duration": 0.45,
      "midi": 43,
      "velocity": 108,
      "voice": "bass",
      "bar": 6
    },
    {
      "beat": 24,
      "duration": 0.07,
      "midi": 42,
      "velocity": 44,
      "voice": "hat",
      "bar": 6
    },
    {
      "beat": 24,
      "duration": 0.16,
      "midi": 36,
      "velocity": 124,
      "voice": "kick",
      "bar": 6
    },
    {
      "beat": 24,
      "duration": 4,
      "midi": 55,
      "velocity": 58,
      "voice": "pad",
      "bar": 6
    },
    {
      "beat": 24,
      "duration": 4,
      "midi": 58,
      "velocity": 58,
      "voice": "pad",
      "bar": 6
    },
    {
      "beat": 24,
      "duration": 4,
      "midi": 62,
      "velocity": 58,
      "voice": "pad",
      "bar": 6
    },
    {
      "beat": 24,
      "duration": 4,
      "midi": 67,
      "velocity": 58,
      "voice": "pad",
      "bar": 6
    },
    {
      "beat": 24,
      "duration": 0.18,
      "midi": 64,
      "velocity": 96,
      "voice": "perc",
      "bar": 6
    },
    {
      "beat": 24.25,
      "duration": 0.22,
      "midi": 58,
      "velocity": 70,
      "voice": "arp",
      "bar": 6
    },
    {
      "beat": 24.5,
      "duration": 0.22,
      "midi": 62,
      "velocity": 70,
      "voice": "arp",
      "bar": 6
    },
    {
      "beat": 24.5,
      "duration": 0.45,
      "midi": 43,
      "velocity": 100,
      "voice": "bass",
      "bar": 6
    },
    {
      "beat": 24.5,
      "duration": 0.14,
      "midi": 46,
      "velocity": 74,
      "voice": "hat",
      "bar": 6
    },
    {
      "beat": 24.5,
      "duration": 0.1,
      "midi": 62,
      "velocity": 72,
      "voice": "perc",
      "bar": 6
    },
    {
      "beat": 24.75,
      "duration": 0.22,
      "midi": 67,
      "velocity": 70,
      "voice": "arp",
      "bar": 6
    },
    {
      "beat": 25.0,
      "duration": 0.22,
      "midi": 62,
      "velocity": 84,
      "voice": "arp",
      "bar": 6
    },
    {
      "beat": 25.0,
      "duration": 0.45,
      "midi": 55,
      "velocity": 100,
      "voice": "bass",
      "bar": 6
    },
    {
      "beat": 25,
      "duration": 0.2,
      "midi": 39,
      "velocity": 104,
      "voice": "clap",
      "bar": 6
    },
    {
      "beat": 25,
      "duration": 0.07,
      "midi": 42,
      "velocity": 44,
      "voice": "hat",
      "bar": 6
    },
    {
      "beat": 25,
      "duration": 0.16,
      "midi": 36,
      "velocity": 116,
      "voice": "kick",
      "bar": 6
    },
    {
      "beat": 25.25,
      "duration": 0.22,
      "midi": 58,
      "velocity": 70,
      "voice": "arp",
      "bar": 6
    },
    {
      "beat": 25.5,
      "duration": 0.22,
      "midi": 55,
      "velocity": 70,
      "voice": "arp",
      "bar": 6
    },
    {
      "beat": 25.5,
      "duration": 0.45,
      "midi": 43,
      "velocity": 100,
      "voice": "bass",
      "bar": 6
    },
    {
      "beat": 25.5,
      "duration": 0.14,
      "midi": 46,
      "velocity": 74,
      "voice": "hat",
      "bar": 6
    },
    {
      "beat": 25.5,
      "duration": 0.1,
      "midi": 62,
      "velocity": 72,
      "voice": "perc",
      "bar": 6
    },
    {
      "beat": 25.75,
      "duration": 0.22,
      "midi": 58,
      "velocity": 70,
      "voice": "arp",
      "bar": 6
    },
    {
      "beat": 26.0,
      "duration": 0.22,
      "midi": 62,
      "velocity": 84,
      "voice": "arp",
      "bar": 6
    },
    {
      "beat": 26.0,
      "duration": 0.45,
      "midi": 43,
      "velocity": 100,
      "voice": "bass",
      "bar": 6
    },
    {
      "beat": 26,
      "duration": 0.07,
      "midi": 42,
      "velocity": 44,
      "voice": "hat",
      "bar": 6
    },
    {
      "beat": 26,
      "duration": 0.16,
      "midi": 36,
      "velocity": 116,
      "voice": "kick",
      "bar": 6
    },
    {
      "beat": 26,
      "duration": 0.18,
      "midi": 64,
      "velocity": 96,
      "voice": "perc",
      "bar": 6
    },
    {
      "beat": 26.25,
      "duration": 0.22,
      "midi": 67,
      "velocity": 70,
      "voice": "arp",
      "bar": 6
    },
    {
      "beat": 26.5,
      "duration": 0.22,
      "midi": 62,
      "velocity": 70,
      "voice": "arp",
      "bar": 6
    },
    {
      "beat": 26.5,
      "duration": 0.45,
      "midi": 43,
      "velocity": 100,
      "voice": "bass",
      "bar": 6
    },
    {
      "beat": 26.5,
      "duration": 0.14,
      "midi": 46,
      "velocity": 74,
      "voice": "hat",
      "bar": 6
    },
    {
      "beat": 26.75,
      "duration": 0.22,
      "midi": 58,
      "velocity": 70,
      "voice": "arp",
      "bar": 6
    },
    {
      "beat": 27.0,
      "duration": 0.22,
      "midi": 55,
      "velocity": 84,
      "voice": "arp",
      "bar": 6
    },
    {
      "beat": 27.0,
      "duration": 0.45,
      "midi": 55,
      "velocity": 100,
      "voice": "bass",
      "bar": 6
    },
    {
      "beat": 27,
      "duration": 0.2,
      "midi": 39,
      "velocity": 104,
      "voice": "clap",
      "bar": 6
    },
    {
      "beat": 27,
      "duration": 0.07,
      "midi": 42,
      "velocity": 44,
      "voice": "hat",
      "bar": 6
    },
    {
      "beat": 27,
      "duration": 0.16,
      "midi": 36,
      "velocity": 116,
      "voice": "kick",
      "bar": 6
    },
    {
      "beat": 27,
      "duration": 0.1,
      "midi": 62,
      "velocity": 72,
      "voice": "perc",
      "bar": 6
    },
    {
      "beat": 27.25,
      "duration": 0.22,
      "midi": 58,
      "velocity": 70,
      "voice": "arp",
      "bar": 6
    },
    {
      "beat": 27.5,
      "duration": 0.22,
      "midi": 62,
      "velocity": 70,
      "voice": "arp",
      "bar": 6
    },
    {
      "beat": 27.5,
      "duration": 0.45,
      "midi": 43,
      "velocity": 100,
      "voice": "bass",
      "bar": 6
    },
    {
      "beat": 27.5,
      "duration": 0.14,
      "midi": 46,
      "velocity": 74,
      "voice": "hat",
      "bar": 6
    },
    {
      "beat": 27.5,
      "duration": 0.1,
      "midi": 62,
      "velocity": 72,
      "voice": "perc",
      "bar": 6
    },
    {
      "beat": 27.75,
      "duration": 0.22,
      "midi": 67,
      "velocity": 70,
      "voice": "arp",
      "bar": 6
    },
    {
      "beat": 28.0,
      "duration": 0.22,
      "midi": 57,
      "velocity": 84,
      "voice": "arp",
      "bar": 7
    },
    {
      "beat": 28.0,
      "duration": 0.45,
      "midi": 45,
      "velocity": 108,
      "voice": "bass",
      "bar": 7
    },
    {
      "beat": 28,
      "duration": 0.07,
      "midi": 42,
      "velocity": 44,
      "voice": "hat",
      "bar": 7
    },
    {
      "beat": 28,
      "duration": 0.16,
      "midi": 36,
      "velocity": 124,
      "voice": "kick",
      "bar": 7
    },
    {
      "beat": 28,
      "duration": 4,
      "midi": 57,
      "velocity": 58,
      "voice": "pad",
      "bar": 7
    },
    {
      "beat": 28,
      "duration": 4,
      "midi": 61,
      "velocity": 58,
      "voice": "pad",
      "bar": 7
    },
    {
      "beat": 28,
      "duration": 4,
      "midi": 64,
      "velocity": 58,
      "voice": "pad",
      "bar": 7
    },
    {
      "beat": 28,
      "duration": 4,
      "midi": 69,
      "velocity": 58,
      "voice": "pad",
      "bar": 7
    },
    {
      "beat": 28,
      "duration": 0.18,
      "midi": 64,
      "velocity": 96,
      "voice": "perc",
      "bar": 7
    },
    {
      "beat": 28.25,
      "duration": 0.22,
      "midi": 61,
      "velocity": 70,
      "voice": "arp",
      "bar": 7
    },
    {
      "beat": 28.5,
      "duration": 0.22,
      "midi": 64,
      "velocity": 70,
      "voice": "arp",
      "bar": 7
    },
    {
      "beat": 28.5,
      "duration": 0.45,
      "midi": 45,
      "velocity": 100,
      "voice": "bass",
      "bar": 7
    },
    {
      "beat": 28.5,
      "duration": 0.14,
      "midi": 46,
      "velocity": 74,
      "voice": "hat",
      "bar": 7
    },
    {
      "beat": 28.5,
      "duration": 0.1,
      "midi": 62,
      "velocity": 72,
      "voice": "perc",
      "bar": 7
    },
    {
      "beat": 28.75,
      "duration": 0.22,
      "midi": 69,
      "velocity": 70,
      "voice": "arp",
      "bar": 7
    },
    {
      "beat": 29.0,
      "duration": 0.22,
      "midi": 64,
      "velocity": 84,
      "voice": "arp",
      "bar": 7
    },
    {
      "beat": 29.0,
      "duration": 0.45,
      "midi": 57,
      "velocity": 100,
      "voice": "bass",
      "bar": 7
    },
    {
      "beat": 29,
      "duration": 0.2,
      "midi": 39,
      "velocity": 104,
      "voice": "clap",
      "bar": 7
    },
    {
      "beat": 29,
      "duration": 0.07,
      "midi": 42,
      "velocity": 44,
      "voice": "hat",
      "bar": 7
    },
    {
      "beat": 29,
      "duration": 0.16,
      "midi": 36,
      "velocity": 116,
      "voice": "kick",
      "bar": 7
    },
    {
      "beat": 29.25,
      "duration": 0.22,
      "midi": 61,
      "velocity": 70,
      "voice": "arp",
      "bar": 7
    },
    {
      "beat": 29.5,
      "duration": 0.22,
      "midi": 57,
      "velocity": 70,
      "voice": "arp",
      "bar": 7
    },
    {
      "beat": 29.5,
      "duration": 0.45,
      "midi": 45,
      "velocity": 100,
      "voice": "bass",
      "bar": 7
    },
    {
      "beat": 29.5,
      "duration": 0.14,
      "midi": 46,
      "velocity": 74,
      "voice": "hat",
      "bar": 7
    },
    {
      "beat": 29.5,
      "duration": 0.1,
      "midi": 62,
      "velocity": 72,
      "voice": "perc",
      "bar": 7
    },
    {
      "beat": 29.75,
      "duration": 0.22,
      "midi": 61,
      "velocity": 70,
      "voice": "arp",
      "bar": 7
    },
    {
      "beat": 30.0,
      "duration": 0.22,
      "midi": 64,
      "velocity": 84,
      "voice": "arp",
      "bar": 7
    },
    {
      "beat": 30.0,
      "duration": 0.45,
      "midi": 45,
      "velocity": 100,
      "voice": "bass",
      "bar": 7
    },
    {
      "beat": 30,
      "duration": 0.07,
      "midi": 42,
      "velocity": 44,
      "voice": "hat",
      "bar": 7
    },
    {
      "beat": 30,
      "duration": 0.16,
      "midi": 36,
      "velocity": 116,
      "voice": "kick",
      "bar": 7
    },
    {
      "beat": 30,
      "duration": 0.18,
      "midi": 64,
      "velocity": 96,
      "voice": "perc",
      "bar": 7
    },
    {
      "beat": 30.25,
      "duration": 0.22,
      "midi": 69,
      "velocity": 70,
      "voice": "arp",
      "bar": 7
    },
    {
      "beat": 30.5,
      "duration": 0.22,
      "midi": 64,
      "velocity": 70,
      "voice": "arp",
      "bar": 7
    },
    {
      "beat": 30.5,
      "duration": 0.45,
      "midi": 45,
      "velocity": 100,
      "voice": "bass",
      "bar": 7
    },
    {
      "beat": 30.5,
      "duration": 0.14,
      "midi": 46,
      "velocity": 74,
      "voice": "hat",
      "bar": 7
    },
    {
      "beat": 30.75,
      "duration": 0.22,
      "midi": 61,
      "velocity": 70,
      "voice": "arp",
      "bar": 7
    },
    {
      "beat": 31.0,
      "duration": 0.22,
      "midi": 57,
      "velocity": 84,
      "voice": "arp",
      "bar": 7
    },
    {
      "beat": 31.0,
      "duration": 0.45,
      "midi": 57,
      "velocity": 100,
      "voice": "bass",
      "bar": 7
    },
    {
      "beat": 31,
      "duration": 0.2,
      "midi": 39,
      "velocity": 104,
      "voice": "clap",
      "bar": 7
    },
    {
      "beat": 31,
      "duration": 0.07,
      "midi": 42,
      "velocity": 44,
      "voice": "hat",
      "bar": 7
    },
    {
      "beat": 31,
      "duration": 0.16,
      "midi": 36,
      "velocity": 116,
      "voice": "kick",
      "bar": 7
    },
    {
      "beat": 31,
      "duration": 0.1,
      "midi": 62,
      "velocity": 72,
      "voice": "perc",
      "bar": 7
    },
    {
      "beat": 31.25,
      "duration": 0.22,
      "midi": 61,
      "velocity": 70,
      "voice": "arp",
      "bar": 7
    },
    {
      "beat": 31.5,
      "duration": 0.22,
      "midi": 64,
      "velocity": 70,
      "voice": "arp",
      "bar": 7
    },
    {
      "beat": 31.5,
      "duration": 0.45,
      "midi": 45,
      "velocity": 100,
      "voice": "bass",
      "bar": 7
    },
    {
      "beat": 31.5,
      "duration": 0.14,
      "midi": 46,
      "velocity": 74,
      "voice": "hat",
      "bar": 7
    },
    {
      "beat": 31.5,
      "duration": 0.1,
      "midi": 62,
      "velocity": 72,
      "voice": "perc",
      "bar": 7
    },
    {
      "beat": 31.75,
      "duration": 0.22,
      "midi": 69,
      "velocity": 70,
      "voice": "arp",
      "bar": 7
    },
    {
      "beat": 32.0,
      "duration": 0.24,
      "midi": 50,
      "velocity": 120,
      "voice": "acid",
      "bar": 8,
      "slide": false
    },
    {
      "beat": 32.0,
      "duration": 0.22,
      "midi": 50,
      "velocity": 84,
      "voice": "arp",
      "bar": 8
    },
    {
      "beat": 32.0,
      "duration": 0.45,
      "midi": 38,
      "velocity": 108,
      "voice": "bass",
      "bar": 8
    },
    {
      "beat": 32,
      "duration": 0.07,
      "midi": 42,
      "velocity": 44,
      "voice": "hat",
      "bar": 8
    },
    {
      "beat": 32,
      "duration": 0.16,
      "midi": 36,
      "velocity": 124,
      "voice": "kick",
      "bar": 8
    },
    {
      "beat": 32,
      "duration": 1,
      "midi": 74,
      "velocity": 112,
      "voice": "lead",
      "bar": 8
    },
    {
      "beat": 32,
      "duration": 4,
      "midi": 50,
      "velocity": 58,
      "voice": "pad",
      "bar": 8
    },
    {
      "beat": 32,
      "duration": 4,
      "midi": 54,
      "velocity": 58,
      "voice": "pad",
      "bar": 8
    },
    {
      "beat": 32,
      "duration": 4,
      "midi": 57,
      "velocity": 58,
      "voice": "pad",
      "bar": 8
    },
    {
      "beat": 32,
      "duration": 4,
      "midi": 62,
      "velocity": 58,
      "voice": "pad",
      "bar": 8
    },
    {
      "beat": 32,
      "duration": 0.18,
      "midi": 64,
      "velocity": 96,
      "voice": "perc",
      "bar": 8
    },
    {
      "beat": 32.25,
      "duration": 0.22,
      "midi": 54,
      "velocity": 70,
      "voice": "arp",
      "bar": 8
    },
    {
      "beat": 32.25,
      "duration": 0.05,
      "midi": 42,
      "velocity": 34,
      "voice": "hat",
      "bar": 8
    },
    {
      "beat": 32.5,
      "duration": 0.24,
      "midi": 62,
      "velocity": 80,
      "voice": "acid",
      "bar": 8,
      "slide": true
    },
    {
      "beat": 32.5,
      "duration": 0.22,
      "midi": 57,
      "velocity": 70,
      "voice": "arp",
      "bar": 8
    },
    {
      "beat": 32.5,
      "duration": 0.45,
      "midi": 38,
      "velocity": 100,
      "voice": "bass",
      "bar": 8
    },
    {
      "beat": 32.5,
      "duration": 0.14,
      "midi": 46,
      "velocity": 74,
      "voice": "hat",
      "bar": 8
    },
    {
      "beat": 32.5,
      "duration": 0.1,
      "midi": 62,
      "velocity": 72,
      "voice": "perc",
      "bar": 8
    },
    {
      "beat": 32.5,
      "duration": 0.22,
      "midi": 62,
      "velocity": 92,
      "voice": "stab",
      "bar": 8
    },
    {
      "beat": 32.5,
      "duration": 0.22,
      "midi": 66,
      "velocity": 92,
      "voice": "stab",
      "bar": 8
    },
    {
      "beat": 32.5,
      "duration": 0.22,
      "midi": 69,
      "velocity": 92,
      "voice": "stab",
      "bar": 8
    },
    {
      "beat": 32.75,
      "duration": 0.24,
      "midi": 50,
      "velocity": 80,
      "voice": "acid",
      "bar": 8,
      "slide": false
    },
    {
      "beat": 32.75,
      "duration": 0.22,
      "midi": 62,
      "velocity": 70,
      "voice": "arp",
      "bar": 8
    },
    {
      "beat": 32.75,
      "duration": 0.05,
      "midi": 42,
      "velocity": 34,
      "voice": "hat",
      "bar": 8
    },
    {
      "beat": 33.0,
      "duration": 0.24,
      "midi": 51,
      "velocity": 120,
      "voice": "acid",
      "bar": 8,
      "slide": false
    },
    {
      "beat": 33.0,
      "duration": 0.22,
      "midi": 57,
      "velocity": 84,
      "voice": "arp",
      "bar": 8
    },
    {
      "beat": 33.0,
      "duration": 0.45,
      "midi": 50,
      "velocity": 100,
      "voice": "bass",
      "bar": 8
    },
    {
      "beat": 33,
      "duration": 0.2,
      "midi": 39,
      "velocity": 104,
      "voice": "clap",
      "bar": 8
    },
    {
      "beat": 33,
      "duration": 0.07,
      "midi": 42,
      "velocity": 44,
      "voice": "hat",
      "bar": 8
    },
    {
      "beat": 33,
      "duration": 0.16,
      "midi": 36,
      "velocity": 116,
      "voice": "kick",
      "bar": 8
    },
    {
      "beat": 33,
      "duration": 0.5,
      "midi": 75,
      "velocity": 112,
      "voice": "lead",
      "bar": 8
    },
    {
      "beat": 33.25,
      "duration": 0.22,
      "midi": 54,
      "velocity": 70,
      "voice": "arp",
      "bar": 8
    },
    {
      "beat": 33.25,
      "duration": 0.05,
      "midi": 42,
      "velocity": 34,
      "voice": "hat",
      "bar": 8
    },
    {
      "beat": 33.5,
      "duration": 0.24,
      "midi": 50,
      "velocity": 80,
      "voice": "acid",
      "bar": 8,
      "slide": false
    },
    {
      "beat": 33.5,
      "duration": 0.22,
      "midi": 50,
      "velocity": 70,
      "voice": "arp",
      "bar": 8
    },
    {
      "beat": 33.5,
      "duration": 0.45,
      "midi": 38,
      "velocity": 100,
      "voice": "bass",
      "bar": 8
    },
    {
      "beat": 33.5,
      "duration": 0.14,
      "midi": 46,
      "velocity": 74,
      "voice": "hat",
      "bar": 8
    },
    {
      "beat": 33.5,
      "duration": 0.5,
      "midi": 74,
      "velocity": 112,
      "voice": "lead",
      "bar": 8
    },
    {
      "beat": 33.5,
      "duration": 0.1,
      "midi": 62,
      "velocity": 72,
      "voice": "perc",
      "bar": 8
    },
    {
      "beat": 33.5,
      "duration": 0.22,
      "midi": 62,
      "velocity": 92,
      "voice": "stab",
      "bar": 8
    },
    {
      "beat": 33.5,
      "duration": 0.22,
      "midi": 66,
      "velocity": 92,
      "voice": "stab",
      "bar": 8
    },
    {
      "beat": 33.5,
      "duration": 0.22,
      "midi": 69,
      "velocity": 92,
      "voice": "stab",
      "bar": 8
    },
    {
      "beat": 33.75,
      "duration": 0.24,
      "midi": 62,
      "velocity": 80,
      "voice": "acid",
      "bar": 8,
      "slide": true
    },
    {
      "beat": 33.75,
      "duration": 0.22,
      "midi": 54,
      "velocity": 70,
      "voice": "arp",
      "bar": 8
    },
    {
      "beat": 33.75,
      "duration": 0.05,
      "midi": 42,
      "velocity": 34,
      "voice": "hat",
      "bar": 8
    },
    {
      "beat": 34.0,
      "duration": 0.24,
      "midi": 50,
      "velocity": 120,
      "voice": "acid",
      "bar": 8,
      "slide": false
    },
    {
      "beat": 34.0,
      "duration": 0.22,
      "midi": 57,
      "velocity": 84,
      "voice": "arp",
      "bar": 8
    },
    {
      "beat": 34.0,
      "duration": 0.45,
      "midi": 38,
      "velocity": 100,
      "voice": "bass",
      "bar": 8
    },
    {
      "beat": 34,
      "duration": 0.07,
      "midi": 42,
      "velocity": 44,
      "voice": "hat",
      "bar": 8
    },
    {
      "beat": 34,
      "duration": 0.16,
      "midi": 36,
      "velocity": 116,
      "voice": "kick",
      "bar": 8
    },
    {
      "beat": 34,
      "duration": 1,
      "midi": 69,
      "velocity": 112,
      "voice": "lead",
      "bar": 8
    },
    {
      "beat": 34,
      "duration": 0.18,
      "midi": 64,
      "velocity": 96,
      "voice": "perc",
      "bar": 8
    },
    {
      "beat": 34.25,
      "duration": 0.22,
      "midi": 62,
      "velocity": 70,
      "voice": "arp",
      "bar": 8
    },
    {
      "beat": 34.25,
      "duration": 0.05,
      "midi": 42,
      "velocity": 34,
      "voice": "hat",
      "bar": 8
    },
    {
      "beat": 34.5,
      "duration": 0.24,
      "midi": 63,
      "velocity": 80,
      "voice": "acid",
      "bar": 8,
      "slide": true
    },
    {
      "beat": 34.5,
      "duration": 0.22,
      "midi": 57,
      "velocity": 70,
      "voice": "arp",
      "bar": 8
    },
    {
      "beat": 34.5,
      "duration": 0.45,
      "midi": 38,
      "velocity": 100,
      "voice": "bass",
      "bar": 8
    },
    {
      "beat": 34.5,
      "duration": 0.14,
      "midi": 46,
      "velocity": 74,
      "voice": "hat",
      "bar": 8
    },
    {
      "beat": 34.5,
      "duration": 0.22,
      "midi": 62,
      "velocity": 92,
      "voice": "stab",
      "bar": 8
    },
    {
      "beat": 34.5,
      "duration": 0.22,
      "midi": 66,
      "velocity": 92,
      "voice": "stab",
      "bar": 8
    },
    {
      "beat": 34.5,
      "duration": 0.22,
      "midi": 69,
      "velocity": 92,
      "voice": "stab",
      "bar": 8
    },
    {
      "beat": 34.75,
      "duration": 0.24,
      "midi": 50,
      "velocity": 80,
      "voice": "acid",
      "bar": 8,
      "slide": false
    },
    {
      "beat": 34.75,
      "duration": 0.22,
      "midi": 54,
      "velocity": 70,
      "voice": "arp",
      "bar": 8
    },
    {
      "beat": 34.75,
      "duration": 0.05,
      "midi": 42,
      "velocity": 34,
      "voice": "hat",
      "bar": 8
    },
    {
      "beat": 35.0,
      "duration": 0.22,
      "midi": 50,
      "velocity": 84,
      "voice": "arp",
      "bar": 8
    },
    {
      "beat": 35.0,
      "duration": 0.45,
      "midi": 50,
      "velocity": 100,
      "voice": "bass",
      "bar": 8
    },
    {
      "beat": 35,
      "duration": 0.2,
      "midi": 39,
      "velocity": 104,
      "voice": "clap",
      "bar": 8
    },
    {
      "beat": 35,
      "duration": 0.07,
      "midi": 42,
      "velocity": 44,
      "voice": "hat",
      "bar": 8
    },
    {
      "beat": 35,
      "duration": 0.16,
      "midi": 36,
      "velocity": 116,
      "voice": "kick",
      "bar": 8
    },
    {
      "beat": 35,
      "duration": 1,
      "midi": 66,
      "velocity": 112,
      "voice": "lead",
      "bar": 8
    },
    {
      "beat": 35,
      "duration": 0.1,
      "midi": 62,
      "velocity": 72,
      "voice": "perc",
      "bar": 8
    },
    {
      "beat": 35.25,
      "duration": 0.24,
      "midi": 50,
      "velocity": 120,
      "voice": "acid",
      "bar": 8,
      "slide": false
    },
    {
      "beat": 35.25,
      "duration": 0.22,
      "midi": 54,
      "velocity": 70,
      "voice": "arp",
      "bar": 8
    },
    {
      "beat": 35.25,
      "duration": 0.05,
      "midi": 42,
      "velocity": 34,
      "voice": "hat",
      "bar": 8
    },
    {
      "beat": 35.5,
      "duration": 0.24,
      "midi": 62,
      "velocity": 80,
      "voice": "acid",
      "bar": 8,
      "slide": true
    },
    {
      "beat": 35.5,
      "duration": 0.22,
      "midi": 57,
      "velocity": 70,
      "voice": "arp",
      "bar": 8
    },
    {
      "beat": 35.5,
      "duration": 0.45,
      "midi": 38,
      "velocity": 100,
      "voice": "bass",
      "bar": 8
    },
    {
      "beat": 35.5,
      "duration": 0.14,
      "midi": 46,
      "velocity": 74,
      "voice": "hat",
      "bar": 8
    },
    {
      "beat": 35.5,
      "duration": 0.1,
      "midi": 62,
      "velocity": 72,
      "voice": "perc",
      "bar": 8
    },
    {
      "beat": 35.5,
      "duration": 0.22,
      "midi": 62,
      "velocity": 92,
      "voice": "stab",
      "bar": 8
    },
    {
      "beat": 35.5,
      "duration": 0.22,
      "midi": 66,
      "velocity": 92,
      "voice": "stab",
      "bar": 8
    },
    {
      "beat": 35.5,
      "duration": 0.22,
      "midi": 69,
      "velocity": 92,
      "voice": "stab",
      "bar": 8
    },
    {
      "beat": 35.75,
      "duration": 0.24,
      "midi": 51,
      "velocity": 80,
      "voice": "acid",
      "bar": 8,
      "slide": false
    },
    {
      "beat": 35.75,
      "duration": 0.22,
      "midi": 62,
      "velocity": 70,
      "voice": "arp",
      "bar": 8
    },
    {
      "beat": 35.75,
      "duration": 0.05,
      "midi": 42,
      "velocity": 34,
      "voice": "hat",
      "bar": 8
    },
    {
      "beat": 36.0,
      "duration": 0.24,
      "midi": 51,
      "velocity": 120,
      "voice": "acid",
      "bar": 9,
      "slide": false
    },
    {
      "beat": 36.0,
      "duration": 0.22,
      "midi": 51,
      "velocity": 84,
      "voice": "arp",
      "bar": 9
    },
    {
      "beat": 36.0,
      "duration": 0.45,
      "midi": 39,
      "velocity": 108,
      "voice": "bass",
      "bar": 9
    },
    {
      "beat": 36,
      "duration": 0.07,
      "midi": 42,
      "velocity": 44,
      "voice": "hat",
      "bar": 9
    },
    {
      "beat": 36,
      "duration": 0.16,
      "midi": 36,
      "velocity": 124,
      "voice": "kick",
      "bar": 9
    },
    {
      "beat": 36,
      "duration": 1.5,
      "midi": 67,
      "velocity": 112,
      "voice": "lead",
      "bar": 9
    },
    {
      "beat": 36,
      "duration": 4,
      "midi": 51,
      "velocity": 58,
      "voice": "pad",
      "bar": 9
    },
    {
      "beat": 36,
      "duration": 4,
      "midi": 55,
      "velocity": 58,
      "voice": "pad",
      "bar": 9
    },
    {
      "beat": 36,
      "duration": 4,
      "midi": 58,
      "velocity": 58,
      "voice": "pad",
      "bar": 9
    },
    {
      "beat": 36,
      "duration": 4,
      "midi": 63,
      "velocity": 58,
      "voice": "pad",
      "bar": 9
    },
    {
      "beat": 36,
      "duration": 0.18,
      "midi": 64,
      "velocity": 96,
      "voice": "perc",
      "bar": 9
    },
    {
      "beat": 36.25,
      "duration": 0.22,
      "midi": 55,
      "velocity": 70,
      "voice": "arp",
      "bar": 9
    },
    {
      "beat": 36.25,
      "duration": 0.05,
      "midi": 42,
      "velocity": 34,
      "voice": "hat",
      "bar": 9
    },
    {
      "beat": 36.5,
      "duration": 0.24,
      "midi": 63,
      "velocity": 80,
      "voice": "acid",
      "bar": 9,
      "slide": true
    },
    {
      "beat": 36.5,
      "duration": 0.22,
      "midi": 58,
      "velocity": 70,
      "voice": "arp",
      "bar": 9
    },
    {
      "beat": 36.5,
      "duration": 0.45,
      "midi": 39,
      "velocity": 100,
      "voice": "bass",
      "bar": 9
    },
    {
      "beat": 36.5,
      "duration": 0.14,
      "midi": 46,
      "velocity": 74,
      "voice": "hat",
      "bar": 9
    },
    {
      "beat": 36.5,
      "duration": 0.1,
      "midi": 62,
      "velocity": 72,
      "voice": "perc",
      "bar": 9
    },
    {
      "beat": 36.5,
      "duration": 0.22,
      "midi": 63,
      "velocity": 92,
      "voice": "stab",
      "bar": 9
    },
    {
      "beat": 36.5,
      "duration": 0.22,
      "midi": 67,
      "velocity": 92,
      "voice": "stab",
      "bar": 9
    },
    {
      "beat": 36.5,
      "duration": 0.22,
      "midi": 70,
      "velocity": 92,
      "voice": "stab",
      "bar": 9
    },
    {
      "beat": 36.75,
      "duration": 0.24,
      "midi": 51,
      "velocity": 80,
      "voice": "acid",
      "bar": 9,
      "slide": false
    },
    {
      "beat": 36.75,
      "duration": 0.22,
      "midi": 63,
      "velocity": 70,
      "voice": "arp",
      "bar": 9
    },
    {
      "beat": 36.75,
      "duration": 0.05,
      "midi": 42,
      "velocity": 34,
      "voice": "hat",
      "bar": 9
    },
    {
      "beat": 37.0,
      "duration": 0.24,
      "midi": 52,
      "velocity": 120,
      "voice": "acid",
      "bar": 9,
      "slide": false
    },
    {
      "beat": 37.0,
      "duration": 0.22,
      "midi": 58,
      "velocity": 84,
      "voice": "arp",
      "bar": 9
    },
    {
      "beat": 37.0,
      "duration": 0.45,
      "midi": 51,
      "velocity": 100,
      "voice": "bass",
      "bar": 9
    },
    {
      "beat": 37,
      "duration": 0.2,
      "midi": 39,
      "velocity": 104,
      "voice": "clap",
      "bar": 9
    },
    {
      "beat": 37,
      "duration": 0.07,
      "midi": 42,
      "velocity": 44,
      "voice": "hat",
      "bar": 9
    },
    {
      "beat": 37,
      "duration": 0.16,
      "midi": 36,
      "velocity": 116,
      "voice": "kick",
      "bar": 9
    },
    {
      "beat": 37.25,
      "duration": 0.22,
      "midi": 55,
      "velocity": 70,
      "voice": "arp",
      "bar": 9
    },
    {
      "beat": 37.25,
      "duration": 0.05,
      "midi": 42,
      "velocity": 34,
      "voice": "hat",
      "bar": 9
    },
    {
      "beat": 37.5,
      "duration": 0.24,
      "midi": 51,
      "velocity": 80,
      "voice": "acid",
      "bar": 9,
      "slide": false
    },
    {
      "beat": 37.5,
      "duration": 0.22,
      "midi": 51,
      "velocity": 70,
      "voice": "arp",
      "bar": 9
    },
    {
      "beat": 37.5,
      "duration": 0.45,
      "midi": 39,
      "velocity": 100,
      "voice": "bass",
      "bar": 9
    },
    {
      "beat": 37.5,
      "duration": 0.14,
      "midi": 46,
      "velocity": 74,
      "voice": "hat",
      "bar": 9
    },
    {
      "beat": 37.5,
      "duration": 0.5,
      "midi": 70,
      "velocity": 112,
      "voice": "lead",
      "bar": 9
    },
    {
      "beat": 37.5,
      "duration": 0.1,
      "midi": 62,
      "velocity": 72,
      "voice": "perc",
      "bar": 9
    },
    {
      "beat": 37.5,
      "duration": 0.22,
      "midi": 63,
      "velocity": 92,
      "voice": "stab",
      "bar": 9
    },
    {
      "beat": 37.5,
      "duration": 0.22,
      "midi": 67,
      "velocity": 92,
      "voice": "stab",
      "bar": 9
    },
    {
      "beat": 37.5,
      "duration": 0.22,
      "midi": 70,
      "velocity": 92,
      "voice": "stab",
      "bar": 9
    },
    {
      "beat": 37.75,
      "duration": 0.24,
      "midi": 63,
      "velocity": 80,
      "voice": "acid",
      "bar": 9,
      "slide": true
    },
    {
      "beat": 37.75,
      "duration": 0.22,
      "midi": 55,
      "velocity": 70,
      "voice": "arp",
      "bar": 9
    },
    {
      "beat": 37.75,
      "duration": 0.05,
      "midi": 42,
      "velocity": 34,
      "voice": "hat",
      "bar": 9
    },
    {
      "beat": 38.0,
      "duration": 0.24,
      "midi": 51,
      "velocity": 120,
      "voice": "acid",
      "bar": 9,
      "slide": false
    },
    {
      "beat": 38.0,
      "duration": 0.22,
      "midi": 58,
      "velocity": 84,
      "voice": "arp",
      "bar": 9
    },
    {
      "beat": 38.0,
      "duration": 0.45,
      "midi": 39,
      "velocity": 100,
      "voice": "bass",
      "bar": 9
    },
    {
      "beat": 38,
      "duration": 0.07,
      "midi": 42,
      "velocity": 44,
      "voice": "hat",
      "bar": 9
    },
    {
      "beat": 38,
      "duration": 0.16,
      "midi": 36,
      "velocity": 116,
      "voice": "kick",
      "bar": 9
    },
    {
      "beat": 38,
      "duration": 1,
      "midi": 69,
      "velocity": 112,
      "voice": "lead",
      "bar": 9
    },
    {
      "beat": 38,
      "duration": 0.18,
      "midi": 64,
      "velocity": 96,
      "voice": "perc",
      "bar": 9
    },
    {
      "beat": 38.25,
      "duration": 0.22,
      "midi": 63,
      "velocity": 70,
      "voice": "arp",
      "bar": 9
    },
    {
      "beat": 38.25,
      "duration": 0.05,
      "midi": 42,
      "velocity": 34,
      "voice": "hat",
      "bar": 9
    },
    {
      "beat": 38.5,
      "duration": 0.24,
      "midi": 64,
      "velocity": 80,
      "voice": "acid",
      "bar": 9,
      "slide": true
    },
    {
      "beat": 38.5,
      "duration": 0.22,
      "midi": 58,
      "velocity": 70,
      "voice": "arp",
      "bar": 9
    },
    {
      "beat": 38.5,
      "duration": 0.45,
      "midi": 39,
      "velocity": 100,
      "voice": "bass",
      "bar": 9
    },
    {
      "beat": 38.5,
      "duration": 0.14,
      "midi": 46,
      "velocity": 74,
      "voice": "hat",
      "bar": 9
    },
    {
      "beat": 38.5,
      "duration": 0.22,
      "midi": 63,
      "velocity": 92,
      "voice": "stab",
      "bar": 9
    },
    {
      "beat": 38.5,
      "duration": 0.22,
      "midi": 67,
      "velocity": 92,
      "voice": "stab",
      "bar": 9
    },
    {
      "beat": 38.5,
      "duration": 0.22,
      "midi": 70,
      "velocity": 92,
      "voice": "stab",
      "bar": 9
    },
    {
      "beat": 38.75,
      "duration": 0.24,
      "midi": 51,
      "velocity": 80,
      "voice": "acid",
      "bar": 9,
      "slide": false
    },
    {
      "beat": 38.75,
      "duration": 0.22,
      "midi": 55,
      "velocity": 70,
      "voice": "arp",
      "bar": 9
    },
    {
      "beat": 38.75,
      "duration": 0.05,
      "midi": 42,
      "velocity": 34,
      "voice": "hat",
      "bar": 9
    },
    {
      "beat": 39.0,
      "duration": 0.22,
      "midi": 51,
      "velocity": 84,
      "voice": "arp",
      "bar": 9
    },
    {
      "beat": 39.0,
      "duration": 0.45,
      "midi": 51,
      "velocity": 100,
      "voice": "bass",
      "bar": 9
    },
    {
      "beat": 39,
      "duration": 0.2,
      "midi": 39,
      "velocity": 104,
      "voice": "clap",
      "bar": 9
    },
    {
      "beat": 39,
      "duration": 0.07,
      "midi": 42,
      "velocity": 44,
      "voice": "hat",
      "bar": 9
    },
    {
      "beat": 39,
      "duration": 0.16,
      "midi": 36,
      "velocity": 116,
      "voice": "kick",
      "bar": 9
    },
    {
      "beat": 39,
      "duration": 1,
      "midi": 67,
      "velocity": 112,
      "voice": "lead",
      "bar": 9
    },
    {
      "beat": 39,
      "duration": 0.1,
      "midi": 62,
      "velocity": 72,
      "voice": "perc",
      "bar": 9
    },
    {
      "beat": 39.25,
      "duration": 0.24,
      "midi": 51,
      "velocity": 120,
      "voice": "acid",
      "bar": 9,
      "slide": false
    },
    {
      "beat": 39.25,
      "duration": 0.22,
      "midi": 55,
      "velocity": 70,
      "voice": "arp",
      "bar": 9
    },
    {
      "beat": 39.25,
      "duration": 0.05,
      "midi": 42,
      "velocity": 34,
      "voice": "hat",
      "bar": 9
    },
    {
      "beat": 39.5,
      "duration": 0.24,
      "midi": 63,
      "velocity": 80,
      "voice": "acid",
      "bar": 9,
      "slide": true
    },
    {
      "beat": 39.5,
      "duration": 0.22,
      "midi": 58,
      "velocity": 70,
      "voice": "arp",
      "bar": 9
    },
    {
      "beat": 39.5,
      "duration": 0.45,
      "midi": 39,
      "velocity": 100,
      "voice": "bass",
      "bar": 9
    },
    {
      "beat": 39.5,
      "duration": 0.14,
      "midi": 46,
      "velocity": 74,
      "voice": "hat",
      "bar": 9
    },
    {
      "beat": 39.5,
      "duration": 0.1,
      "midi": 62,
      "velocity": 72,
      "voice": "perc",
      "bar": 9
    },
    {
      "beat": 39.5,
      "duration": 0.22,
      "midi": 63,
      "velocity": 92,
      "voice": "stab",
      "bar": 9
    },
    {
      "beat": 39.5,
      "duration": 0.22,
      "midi": 67,
      "velocity": 92,
      "voice": "stab",
      "bar": 9
    },
    {
      "beat": 39.5,
      "duration": 0.22,
      "midi": 70,
      "velocity": 92,
      "voice": "stab",
      "bar": 9
    },
    {
      "beat": 39.75,
      "duration": 0.24,
      "midi": 52,
      "velocity": 80,
      "voice": "acid",
      "bar": 9,
      "slide": false
    },
    {
      "beat": 39.75,
      "duration": 0.22,
      "midi": 63,
      "velocity": 70,
      "voice": "arp",
      "bar": 9
    },
    {
      "beat": 39.75,
      "duration": 0.05,
      "midi": 42,
      "velocity": 34,
      "voice": "hat",
      "bar": 9
    },
    {
      "beat": 40.0,
      "duration": 0.24,
      "midi": 55,
      "velocity": 120,
      "voice": "acid",
      "bar": 10,
      "slide": false
    },
    {
      "beat": 40.0,
      "duration": 0.22,
      "midi": 55,
      "velocity": 84,
      "voice": "arp",
      "bar": 10
    },
    {
      "beat": 40.0,
      "duration": 0.45,
      "midi": 43,
      "velocity": 108,
      "voice": "bass",
      "bar": 10
    },
    {
      "beat": 40,
      "duration": 0.07,
      "midi": 42,
      "velocity": 44,
      "voice": "hat",
      "bar": 10
    },
    {
      "beat": 40,
      "duration": 0.16,
      "midi": 36,
      "velocity": 124,
      "voice": "kick",
      "bar": 10
    },
    {
      "beat": 40,
      "duration": 1,
      "midi": 70,
      "velocity": 112,
      "voice": "lead",
      "bar": 10
    },
    {
      "beat": 40,
      "duration": 4,
      "midi": 55,
      "velocity": 58,
      "voice": "pad",
      "bar": 10
    },
    {
      "beat": 40,
      "duration": 4,
      "midi": 58,
      "velocity": 58,
      "voice": "pad",
      "bar": 10
    },
    {
      "beat": 40,
      "duration": 4,
      "midi": 62,
      "velocity": 58,
      "voice": "pad",
      "bar": 10
    },
    {
      "beat": 40,
      "duration": 4,
      "midi": 67,
      "velocity": 58,
      "voice": "pad",
      "bar": 10
    },
    {
      "beat": 40,
      "duration": 0.18,
      "midi": 64,
      "velocity": 96,
      "voice": "perc",
      "bar": 10
    },
    {
      "beat": 40.25,
      "duration": 0.22,
      "midi": 58,
      "velocity": 70,
      "voice": "arp",
      "bar": 10
    },
    {
      "beat": 40.25,
      "duration": 0.05,
      "midi": 42,
      "velocity": 34,
      "voice": "hat",
      "bar": 10
    },
    {
      "beat": 40.5,
      "duration": 0.24,
      "midi": 67,
      "velocity": 80,
      "voice": "acid",
      "bar": 10,
      "slide": true
    },
    {
      "beat": 40.5,
      "duration": 0.22,
      "midi": 62,
      "velocity": 70,
      "voice": "arp",
      "bar": 10
    },
    {
      "beat": 40.5,
      "duration": 0.45,
      "midi": 43,
      "velocity": 100,
      "voice": "bass",
      "bar": 10
    },
    {
      "beat": 40.5,
      "duration": 0.14,
      "midi": 46,
      "velocity": 74,
      "voice": "hat",
      "bar": 10
    },
    {
      "beat": 40.5,
      "duration": 0.1,
      "midi": 62,
      "velocity": 72,
      "voice": "perc",
      "bar": 10
    },
    {
      "beat": 40.5,
      "duration": 0.22,
      "midi": 67,
      "velocity": 92,
      "voice": "stab",
      "bar": 10
    },
    {
      "beat": 40.5,
      "duration": 0.22,
      "midi": 70,
      "velocity": 92,
      "voice": "stab",
      "bar": 10
    },
    {
      "beat": 40.5,
      "duration": 0.22,
      "midi": 74,
      "velocity": 92,
      "voice": "stab",
      "bar": 10
    },
    {
      "beat": 40.75,
      "duration": 0.24,
      "midi": 55,
      "velocity": 80,
      "voice": "acid",
      "bar": 10,
      "slide": false
    },
    {
      "beat": 40.75,
      "duration": 0.22,
      "midi": 67,
      "velocity": 70,
      "voice": "arp",
      "bar": 10
    },
    {
      "beat": 40.75,
      "duration": 0.05,
      "midi": 42,
      "velocity": 34,
      "voice": "hat",
      "bar": 10
    },
    {
      "beat": 41.0,
      "duration": 0.24,
      "midi": 56,
      "velocity": 120,
      "voice": "acid",
      "bar": 10,
      "slide": false
    },
    {
      "beat": 41.0,
      "duration": 0.22,
      "midi": 62,
      "velocity": 84,
      "voice": "arp",
      "bar": 10
    },
    {
      "beat": 41.0,
      "duration": 0.45,
      "midi": 55,
      "velocity": 100,
      "voice": "bass",
      "bar": 10
    },
    {
      "beat": 41,
      "duration": 0.2,
      "midi": 39,
      "velocity": 104,
      "voice": "clap",
      "bar": 10
    },
    {
      "beat": 41,
      "duration": 0.07,
      "midi": 42,
      "velocity": 44,
      "voice": "hat",
      "bar": 10
    },
    {
      "beat": 41,
      "duration": 0.16,
      "midi": 36,
      "velocity": 116,
      "voice": "kick",
      "bar": 10
    },
    {
      "beat": 41,
      "duration": 0.5,
      "midi": 69,
      "velocity": 112,
      "voice": "lead",
      "bar": 10
    },
    {
      "beat": 41.25,
      "duration": 0.22,
      "midi": 58,
      "velocity": 70,
      "voice": "arp",
      "bar": 10
    },
    {
      "beat": 41.25,
      "duration": 0.05,
      "midi": 42,
      "velocity": 34,
      "voice": "hat",
      "bar": 10
    },
    {
      "beat": 41.5,
      "duration": 0.24,
      "midi": 55,
      "velocity": 80,
      "voice": "acid",
      "bar": 10,
      "slide": false
    },
    {
      "beat": 41.5,
      "duration": 0.22,
      "midi": 55,
      "velocity": 70,
      "voice": "arp",
      "bar": 10
    },
    {
      "beat": 41.5,
      "duration": 0.45,
      "midi": 43,
      "velocity": 100,
      "voice": "bass",
      "bar": 10
    },
    {
      "beat": 41.5,
      "duration": 0.14,
      "midi": 46,
      "velocity": 74,
      "voice": "hat",
      "bar": 10
    },
    {
      "beat": 41.5,
      "duration": 0.5,
      "midi": 67,
      "velocity": 112,
      "voice": "lead",
      "bar": 10
    },
    {
      "beat": 41.5,
      "duration": 0.1,
      "midi": 62,
      "velocity": 72,
      "voice": "perc",
      "bar": 10
    },
    {
      "beat": 41.5,
      "duration": 0.22,
      "midi": 67,
      "velocity": 92,
      "voice": "stab",
      "bar": 10
    },
    {
      "beat": 41.5,
      "duration": 0.22,
      "midi": 70,
      "velocity": 92,
      "voice": "stab",
      "bar": 10
    },
    {
      "beat": 41.5,
      "duration": 0.22,
      "midi": 74,
      "velocity": 92,
      "voice": "stab",
      "bar": 10
    },
    {
      "beat": 41.75,
      "duration": 0.24,
      "midi": 67,
      "velocity": 80,
      "voice": "acid",
      "bar": 10,
      "slide": true
    },
    {
      "beat": 41.75,
      "duration": 0.22,
      "midi": 58,
      "velocity": 70,
      "voice": "arp",
      "bar": 10
    },
    {
      "beat": 41.75,
      "duration": 0.05,
      "midi": 42,
      "velocity": 34,
      "voice": "hat",
      "bar": 10
    },
    {
      "beat": 42.0,
      "duration": 0.24,
      "midi": 55,
      "velocity": 120,
      "voice": "acid",
      "bar": 10,
      "slide": false
    },
    {
      "beat": 42.0,
      "duration": 0.22,
      "midi": 62,
      "velocity": 84,
      "voice": "arp",
      "bar": 10
    },
    {
      "beat": 42.0,
      "duration": 0.45,
      "midi": 43,
      "velocity": 100,
      "voice": "bass",
      "bar": 10
    },
    {
      "beat": 42,
      "duration": 0.07,
      "midi": 42,
      "velocity": 44,
      "voice": "hat",
      "bar": 10
    },
    {
      "beat": 42,
      "duration": 0.16,
      "midi": 36,
      "velocity": 116,
      "voice": "kick",
      "bar": 10
    },
    {
      "beat": 42,
      "duration": 1,
      "midi": 74,
      "velocity": 112,
      "voice": "lead",
      "bar": 10
    },
    {
      "beat": 42,
      "duration": 0.18,
      "midi": 64,
      "velocity": 96,
      "voice": "perc",
      "bar": 10
    },
    {
      "beat": 42.25,
      "duration": 0.22,
      "midi": 67,
      "velocity": 70,
      "voice": "arp",
      "bar": 10
    },
    {
      "beat": 42.25,
      "duration": 0.05,
      "midi": 42,
      "velocity": 34,
      "voice": "hat",
      "bar": 10
    },
    {
      "beat": 42.5,
      "duration": 0.24,
      "midi": 68,
      "velocity": 80,
      "voice": "acid",
      "bar": 10,
      "slide": true
    },
    {
      "beat": 42.5,
      "duration": 0.22,
      "midi": 62,
      "velocity": 70,
      "voice": "arp",
      "bar": 10
    },
    {
      "beat": 42.5,
      "duration": 0.45,
      "midi": 43,
      "velocity": 100,
      "voice": "bass",
      "bar": 10
    },
    {
      "beat": 42.5,
      "duration": 0.14,
      "midi": 46,
      "velocity": 74,
      "voice": "hat",
      "bar": 10
    },
    {
      "beat": 42.5,
      "duration": 0.22,
      "midi": 67,
      "velocity": 92,
      "voice": "stab",
      "bar": 10
    },
    {
      "beat": 42.5,
      "duration": 0.22,
      "midi": 70,
      "velocity": 92,
      "voice": "stab",
      "bar": 10
    },
    {
      "beat": 42.5,
      "duration": 0.22,
      "midi": 74,
      "velocity": 92,
      "voice": "stab",
      "bar": 10
    },
    {
      "beat": 42.75,
      "duration": 0.24,
      "midi": 55,
      "velocity": 80,
      "voice": "acid",
      "bar": 10,
      "slide": false
    },
    {
      "beat": 42.75,
      "duration": 0.22,
      "midi": 58,
      "velocity": 70,
      "voice": "arp",
      "bar": 10
    },
    {
      "beat": 42.75,
      "duration": 0.05,
      "midi": 42,
      "velocity": 34,
      "voice": "hat",
      "bar": 10
    },
    {
      "beat": 43.0,
      "duration": 0.22,
      "midi": 55,
      "velocity": 84,
      "voice": "arp",
      "bar": 10
    },
    {
      "beat": 43.0,
      "duration": 0.45,
      "midi": 55,
      "velocity": 100,
      "voice": "bass",
      "bar": 10
    },
    {
      "beat": 43,
      "duration": 0.2,
      "midi": 39,
      "velocity": 104,
      "voice": "clap",
      "bar": 10
    },
    {
      "beat": 43,
      "duration": 0.07,
      "midi": 42,
      "velocity": 44,
      "voice": "hat",
      "bar": 10
    },
    {
      "beat": 43,
      "duration": 0.16,
      "midi": 36,
      "velocity": 116,
      "voice": "kick",
      "bar": 10
    },
    {
      "beat": 43,
      "duration": 1,
      "midi": 70,
      "velocity": 112,
      "voice": "lead",
      "bar": 10
    },
    {
      "beat": 43,
      "duration": 0.1,
      "midi": 62,
      "velocity": 72,
      "voice": "perc",
      "bar": 10
    },
    {
      "beat": 43.25,
      "duration": 0.24,
      "midi": 55,
      "velocity": 120,
      "voice": "acid",
      "bar": 10,
      "slide": false
    },
    {
      "beat": 43.25,
      "duration": 0.22,
      "midi": 58,
      "velocity": 70,
      "voice": "arp",
      "bar": 10
    },
    {
      "beat": 43.25,
      "duration": 0.05,
      "midi": 42,
      "velocity": 34,
      "voice": "hat",
      "bar": 10
    },
    {
      "beat": 43.5,
      "duration": 0.24,
      "midi": 67,
      "velocity": 80,
      "voice": "acid",
      "bar": 10,
      "slide": true
    },
    {
      "beat": 43.5,
      "duration": 0.22,
      "midi": 62,
      "velocity": 70,
      "voice": "arp",
      "bar": 10
    },
    {
      "beat": 43.5,
      "duration": 0.45,
      "midi": 43,
      "velocity": 100,
      "voice": "bass",
      "bar": 10
    },
    {
      "beat": 43.5,
      "duration": 0.14,
      "midi": 46,
      "velocity": 74,
      "voice": "hat",
      "bar": 10
    },
    {
      "beat": 43.5,
      "duration": 0.1,
      "midi": 62,
      "velocity": 72,
      "voice": "perc",
      "bar": 10
    },
    {
      "beat": 43.5,
      "duration": 0.22,
      "midi": 67,
      "velocity": 92,
      "voice": "stab",
      "bar": 10
    },
    {
      "beat": 43.5,
      "duration": 0.22,
      "midi": 70,
      "velocity": 92,
      "voice": "stab",
      "bar": 10
    },
    {
      "beat": 43.5,
      "duration": 0.22,
      "midi": 74,
      "velocity": 92,
      "voice": "stab",
      "bar": 10
    },
    {
      "beat": 43.75,
      "duration": 0.24,
      "midi": 56,
      "velocity": 80,
      "voice": "acid",
      "bar": 10,
      "slide": false
    },
    {
      "beat": 43.75,
      "duration": 0.22,
      "midi": 67,
      "velocity": 70,
      "voice": "arp",
      "bar": 10
    },
    {
      "beat": 43.75,
      "duration": 0.05,
      "midi": 42,
      "velocity": 34,
      "voice": "hat",
      "bar": 10
    },
    {
      "beat": 44.0,
      "duration": 0.24,
      "midi": 57,
      "velocity": 120,
      "voice": "acid",
      "bar": 11,
      "slide": false
    },
    {
      "beat": 44.0,
      "duration": 0.22,
      "midi": 57,
      "velocity": 84,
      "voice": "arp",
      "bar": 11
    },
    {
      "beat": 44.0,
      "duration": 0.45,
      "midi": 45,
      "velocity": 108,
      "voice": "bass",
      "bar": 11
    },
    {
      "beat": 44,
      "duration": 0.07,
      "midi": 42,
      "velocity": 44,
      "voice": "hat",
      "bar": 11
    },
    {
      "beat": 44,
      "duration": 0.16,
      "midi": 36,
      "velocity": 124,
      "voice": "kick",
      "bar": 11
    },
    {
      "beat": 44,
      "duration": 1,
      "midi": 73,
      "velocity": 112,
      "voice": "lead",
      "bar": 11
    },
    {
      "beat": 44,
      "duration": 4,
      "midi": 57,
      "velocity": 58,
      "voice": "pad",
      "bar": 11
    },
    {
      "beat": 44,
      "duration": 4,
      "midi": 61,
      "velocity": 58,
      "voice": "pad",
      "bar": 11
    },
    {
      "beat": 44,
      "duration": 4,
      "midi": 64,
      "velocity": 58,
      "voice": "pad",
      "bar": 11
    },
    {
      "beat": 44,
      "duration": 4,
      "midi": 69,
      "velocity": 58,
      "voice": "pad",
      "bar": 11
    },
    {
      "beat": 44,
      "duration": 0.18,
      "midi": 64,
      "velocity": 96,
      "voice": "perc",
      "bar": 11
    },
    {
      "beat": 44.25,
      "duration": 0.22,
      "midi": 61,
      "velocity": 70,
      "voice": "arp",
      "bar": 11
    },
    {
      "beat": 44.25,
      "duration": 0.05,
      "midi": 42,
      "velocity": 34,
      "voice": "hat",
      "bar": 11
    },
    {
      "beat": 44.5,
      "duration": 0.24,
      "midi": 69,
      "velocity": 80,
      "voice": "acid",
      "bar": 11,
      "slide": true
    },
    {
      "beat": 44.5,
      "duration": 0.22,
      "midi": 64,
      "velocity": 70,
      "voice": "arp",
      "bar": 11
    },
    {
      "beat": 44.5,
      "duration": 0.45,
      "midi": 45,
      "velocity": 100,
      "voice": "bass",
      "bar": 11
    },
    {
      "beat": 44.5,
      "duration": 0.14,
      "midi": 46,
      "velocity": 74,
      "voice": "hat",
      "bar": 11
    },
    {
      "beat": 44.5,
      "duration": 0.1,
      "midi": 62,
      "velocity": 72,
      "voice": "perc",
      "bar": 11
    },
    {
      "beat": 44.5,
      "duration": 0.22,
      "midi": 69,
      "velocity": 92,
      "voice": "stab",
      "bar": 11
    },
    {
      "beat": 44.5,
      "duration": 0.22,
      "midi": 73,
      "velocity": 92,
      "voice": "stab",
      "bar": 11
    },
    {
      "beat": 44.5,
      "duration": 0.22,
      "midi": 76,
      "velocity": 92,
      "voice": "stab",
      "bar": 11
    },
    {
      "beat": 44.75,
      "duration": 0.24,
      "midi": 57,
      "velocity": 80,
      "voice": "acid",
      "bar": 11,
      "slide": false
    },
    {
      "beat": 44.75,
      "duration": 0.22,
      "midi": 69,
      "velocity": 70,
      "voice": "arp",
      "bar": 11
    },
    {
      "beat": 44.75,
      "duration": 0.05,
      "midi": 42,
      "velocity": 34,
      "voice": "hat",
      "bar": 11
    },
    {
      "beat": 45.0,
      "duration": 0.24,
      "midi": 58,
      "velocity": 120,
      "voice": "acid",
      "bar": 11,
      "slide": false
    },
    {
      "beat": 45.0,
      "duration": 0.22,
      "midi": 64,
      "velocity": 84,
      "voice": "arp",
      "bar": 11
    },
    {
      "beat": 45.0,
      "duration": 0.45,
      "midi": 57,
      "velocity": 100,
      "voice": "bass",
      "bar": 11
    },
    {
      "beat": 45,
      "duration": 0.2,
      "midi": 39,
      "velocity": 104,
      "voice": "clap",
      "bar": 11
    },
    {
      "beat": 45,
      "duration": 0.07,
      "midi": 42,
      "velocity": 44,
      "voice": "hat",
      "bar": 11
    },
    {
      "beat": 45,
      "duration": 0.16,
      "midi": 36,
      "velocity": 116,
      "voice": "kick",
      "bar": 11
    },
    {
      "beat": 45,
      "duration": 0.5,
      "midi": 74,
      "velocity": 112,
      "voice": "lead",
      "bar": 11
    },
    {
      "beat": 45.25,
      "duration": 0.22,
      "midi": 61,
      "velocity": 70,
      "voice": "arp",
      "bar": 11
    },
    {
      "beat": 45.25,
      "duration": 0.05,
      "midi": 42,
      "velocity": 34,
      "voice": "hat",
      "bar": 11
    },
    {
      "beat": 45.5,
      "duration": 0.24,
      "midi": 57,
      "velocity": 80,
      "voice": "acid",
      "bar": 11,
      "slide": false
    },
    {
      "beat": 45.5,
      "duration": 0.22,
      "midi": 57,
      "velocity": 70,
      "voice": "arp",
      "bar": 11
    },
    {
      "beat": 45.5,
      "duration": 0.45,
      "midi": 45,
      "velocity": 100,
      "voice": "bass",
      "bar": 11
    },
    {
      "beat": 45.5,
      "duration": 0.14,
      "midi": 46,
      "velocity": 74,
      "voice": "hat",
      "bar": 11
    },
    {
      "beat": 45.5,
      "duration": 0.5,
      "midi": 73,
      "velocity": 112,
      "voice": "lead",
      "bar": 11
    },
    {
      "beat": 45.5,
      "duration": 0.1,
      "midi": 62,
      "velocity": 72,
      "voice": "perc",
      "bar": 11
    },
    {
      "beat": 45.5,
      "duration": 0.22,
      "midi": 69,
      "velocity": 92,
      "voice": "stab",
      "bar": 11
    },
    {
      "beat": 45.5,
      "duration": 0.22,
      "midi": 73,
      "velocity": 92,
      "voice": "stab",
      "bar": 11
    },
    {
      "beat": 45.5,
      "duration": 0.22,
      "midi": 76,
      "velocity": 92,
      "voice": "stab",
      "bar": 11
    },
    {
      "beat": 45.75,
      "duration": 0.24,
      "midi": 69,
      "velocity": 80,
      "voice": "acid",
      "bar": 11,
      "slide": true
    },
    {
      "beat": 45.75,
      "duration": 0.22,
      "midi": 61,
      "velocity": 70,
      "voice": "arp",
      "bar": 11
    },
    {
      "beat": 45.75,
      "duration": 0.05,
      "midi": 42,
      "velocity": 34,
      "voice": "hat",
      "bar": 11
    },
    {
      "beat": 46.0,
      "duration": 0.24,
      "midi": 57,
      "velocity": 120,
      "voice": "acid",
      "bar": 11,
      "slide": false
    },
    {
      "beat": 46.0,
      "duration": 0.22,
      "midi": 64,
      "velocity": 84,
      "voice": "arp",
      "bar": 11
    },
    {
      "beat": 46.0,
      "duration": 0.45,
      "midi": 45,
      "velocity": 100,
      "voice": "bass",
      "bar": 11
    },
    {
      "beat": 46,
      "duration": 0.07,
      "midi": 42,
      "velocity": 44,
      "voice": "hat",
      "bar": 11
    },
    {
      "beat": 46,
      "duration": 0.16,
      "midi": 36,
      "velocity": 116,
      "voice": "kick",
      "bar": 11
    },
    {
      "beat": 46,
      "duration": 2,
      "midi": 69,
      "velocity": 112,
      "voice": "lead",
      "bar": 11
    },
    {
      "beat": 46,
      "duration": 0.18,
      "midi": 64,
      "velocity": 96,
      "voice": "perc",
      "bar": 11
    },
    {
      "beat": 46.25,
      "duration": 0.22,
      "midi": 69,
      "velocity": 70,
      "voice": "arp",
      "bar": 11
    },
    {
      "beat": 46.25,
      "duration": 0.05,
      "midi": 42,
      "velocity": 34,
      "voice": "hat",
      "bar": 11
    },
    {
      "beat": 46.5,
      "duration": 0.24,
      "midi": 70,
      "velocity": 80,
      "voice": "acid",
      "bar": 11,
      "slide": true
    },
    {
      "beat": 46.5,
      "duration": 0.22,
      "midi": 64,
      "velocity": 70,
      "voice": "arp",
      "bar": 11
    },
    {
      "beat": 46.5,
      "duration": 0.45,
      "midi": 45,
      "velocity": 100,
      "voice": "bass",
      "bar": 11
    },
    {
      "beat": 46.5,
      "duration": 0.14,
      "midi": 46,
      "velocity": 74,
      "voice": "hat",
      "bar": 11
    },
    {
      "beat": 46.5,
      "duration": 0.22,
      "midi": 69,
      "velocity": 92,
      "voice": "stab",
      "bar": 11
    },
    {
      "beat": 46.5,
      "duration": 0.22,
      "midi": 73,
      "velocity": 92,
      "voice": "stab",
      "bar": 11
    },
    {
      "beat": 46.5,
      "duration": 0.22,
      "midi": 76,
      "velocity": 92,
      "voice": "stab",
      "bar": 11
    },
    {
      "beat": 46.75,
      "duration": 0.24,
      "midi": 57,
      "velocity": 80,
      "voice": "acid",
      "bar": 11,
      "slide": false
    },
    {
      "beat": 46.75,
      "duration": 0.22,
      "midi": 61,
      "velocity": 70,
      "voice": "arp",
      "bar": 11
    },
    {
      "beat": 46.75,
      "duration": 0.05,
      "midi": 42,
      "velocity": 34,
      "voice": "hat",
      "bar": 11
    },
    {
      "beat": 47.0,
      "duration": 0.22,
      "midi": 57,
      "velocity": 84,
      "voice": "arp",
      "bar": 11
    },
    {
      "beat": 47.0,
      "duration": 0.45,
      "midi": 57,
      "velocity": 100,
      "voice": "bass",
      "bar": 11
    },
    {
      "beat": 47,
      "duration": 0.2,
      "midi": 39,
      "velocity": 104,
      "voice": "clap",
      "bar": 11
    },
    {
      "beat": 47,
      "duration": 0.07,
      "midi": 42,
      "velocity": 44,
      "voice": "hat",
      "bar": 11
    },
    {
      "beat": 47,
      "duration": 0.16,
      "midi": 36,
      "velocity": 116,
      "voice": "kick",
      "bar": 11
    },
    {
      "beat": 47,
      "duration": 0.1,
      "midi": 62,
      "velocity": 72,
      "voice": "perc",
      "bar": 11
    },
    {
      "beat": 47.25,
      "duration": 0.24,
      "midi": 57,
      "velocity": 120,
      "voice": "acid",
      "bar": 11,
      "slide": false
    },
    {
      "beat": 47.25,
      "duration": 0.22,
      "midi": 61,
      "velocity": 70,
      "voice": "arp",
      "bar": 11
    },
    {
      "beat": 47.25,
      "duration": 0.05,
      "midi": 42,
      "velocity": 34,
      "voice": "hat",
      "bar": 11
    },
    {
      "beat": 47.5,
      "duration": 0.24,
      "midi": 69,
      "velocity": 80,
      "voice": "acid",
      "bar": 11,
      "slide": true
    },
    {
      "beat": 47.5,
      "duration": 0.22,
      "midi": 64,
      "velocity": 70,
      "voice": "arp",
      "bar": 11
    },
    {
      "beat": 47.5,
      "duration": 0.45,
      "midi": 45,
      "velocity": 100,
      "voice": "bass",
      "bar": 11
    },
    {
      "beat": 47.5,
      "duration": 0.14,
      "midi": 46,
      "velocity": 74,
      "voice": "hat",
      "bar": 11
    },
    {
      "beat": 47.5,
      "duration": 0.1,
      "midi": 62,
      "velocity": 72,
      "voice": "perc",
      "bar": 11
    },
    {
      "beat": 47.5,
      "duration": 0.22,
      "midi": 69,
      "velocity": 92,
      "voice": "stab",
      "bar": 11
    },
    {
      "beat": 47.5,
      "duration": 0.22,
      "midi": 73,
      "velocity": 92,
      "voice": "stab",
      "bar": 11
    },
    {
      "beat": 47.5,
      "duration": 0.22,
      "midi": 76,
      "velocity": 92,
      "voice": "stab",
      "bar": 11
    },
    {
      "beat": 47.75,
      "duration": 0.24,
      "midi": 58,
      "velocity": 80,
      "voice": "acid",
      "bar": 11,
      "slide": false
    },
    {
      "beat": 47.75,
      "duration": 0.22,
      "midi": 69,
      "velocity": 70,
      "voice": "arp",
      "bar": 11
    },
    {
      "beat": 47.75,
      "duration": 0.05,
      "midi": 42,
      "velocity": 34,
      "voice": "hat",
      "bar": 11
    },
    {
      "beat": 48.0,
      "duration": 0.24,
      "midi": 50,
      "velocity": 120,
      "voice": "acid",
      "bar": 12,
      "slide": false
    },
    {
      "beat": 48.0,
      "duration": 0.22,
      "midi": 50,
      "velocity": 84,
      "voice": "arp",
      "bar": 12
    },
    {
      "beat": 48.0,
      "duration": 0.45,
      "midi": 38,
      "velocity": 108,
      "voice": "bass",
      "bar": 12
    },
    {
      "beat": 48,
      "duration": 0.07,
      "midi": 42,
      "velocity": 44,
      "voice": "hat",
      "bar": 12
    },
    {
      "beat": 48,
      "duration": 0.16,
      "midi": 36,
      "velocity": 124,
      "voice": "kick",
      "bar": 12
    },
    {
      "beat": 48,
      "duration": 1,
      "midi": 74,
      "velocity": 112,
      "voice": "lead",
      "bar": 12
    },
    {
      "beat": 48,
      "duration": 4,
      "midi": 50,
      "velocity": 58,
      "voice": "pad",
      "bar": 12
    },
    {
      "beat": 48,
      "duration": 4,
      "midi": 54,
      "velocity": 58,
      "voice": "pad",
      "bar": 12
    },
    {
      "beat": 48,
      "duration": 4,
      "midi": 57,
      "velocity": 58,
      "voice": "pad",
      "bar": 12
    },
    {
      "beat": 48,
      "duration": 4,
      "midi": 62,
      "velocity": 58,
      "voice": "pad",
      "bar": 12
    },
    {
      "beat": 48,
      "duration": 0.18,
      "midi": 64,
      "velocity": 96,
      "voice": "perc",
      "bar": 12
    },
    {
      "beat": 48.25,
      "duration": 0.22,
      "midi": 54,
      "velocity": 70,
      "voice": "arp",
      "bar": 12
    },
    {
      "beat": 48.25,
      "duration": 0.05,
      "midi": 42,
      "velocity": 34,
      "voice": "hat",
      "bar": 12
    },
    {
      "beat": 48.5,
      "duration": 0.24,
      "midi": 62,
      "velocity": 80,
      "voice": "acid",
      "bar": 12,
      "slide": true
    },
    {
      "beat": 48.5,
      "duration": 0.22,
      "midi": 57,
      "velocity": 70,
      "voice": "arp",
      "bar": 12
    },
    {
      "beat": 48.5,
      "duration": 0.45,
      "midi": 38,
      "velocity": 100,
      "voice": "bass",
      "bar": 12
    },
    {
      "beat": 48.5,
      "duration": 0.14,
      "midi": 46,
      "velocity": 74,
      "voice": "hat",
      "bar": 12
    },
    {
      "beat": 48.5,
      "duration": 0.1,
      "midi": 62,
      "velocity": 72,
      "voice": "perc",
      "bar": 12
    },
    {
      "beat": 48.5,
      "duration": 0.22,
      "midi": 62,
      "velocity": 92,
      "voice": "stab",
      "bar": 12
    },
    {
      "beat": 48.5,
      "duration": 0.22,
      "midi": 66,
      "velocity": 92,
      "voice": "stab",
      "bar": 12
    },
    {
      "beat": 48.5,
      "duration": 0.22,
      "midi": 69,
      "velocity": 92,
      "voice": "stab",
      "bar": 12
    },
    {
      "beat": 48.75,
      "duration": 0.24,
      "midi": 50,
      "velocity": 80,
      "voice": "acid",
      "bar": 12,
      "slide": false
    },
    {
      "beat": 48.75,
      "duration": 0.22,
      "midi": 62,
      "velocity": 70,
      "voice": "arp",
      "bar": 12
    },
    {
      "beat": 48.75,
      "duration": 0.05,
      "midi": 42,
      "velocity": 34,
      "voice": "hat",
      "bar": 12
    },
    {
      "beat": 49.0,
      "duration": 0.24,
      "midi": 51,
      "velocity": 120,
      "voice": "acid",
      "bar": 12,
      "slide": false
    },
    {
      "beat": 49.0,
      "duration": 0.22,
      "midi": 57,
      "velocity": 84,
      "voice": "arp",
      "bar": 12
    },
    {
      "beat": 49.0,
      "duration": 0.45,
      "midi": 50,
      "velocity": 100,
      "voice": "bass",
      "bar": 12
    },
    {
      "beat": 49,
      "duration": 0.2,
      "midi": 39,
      "velocity": 104,
      "voice": "clap",
      "bar": 12
    },
    {
      "beat": 49,
      "duration": 0.07,
      "midi": 42,
      "velocity": 44,
      "voice": "hat",
      "bar": 12
    },
    {
      "beat": 49,
      "duration": 0.16,
      "midi": 36,
      "velocity": 116,
      "voice": "kick",
      "bar": 12
    },
    {
      "beat": 49,
      "duration": 0.5,
      "midi": 75,
      "velocity": 112,
      "voice": "lead",
      "bar": 12
    },
    {
      "beat": 49.25,
      "duration": 0.22,
      "midi": 54,
      "velocity": 70,
      "voice": "arp",
      "bar": 12
    },
    {
      "beat": 49.25,
      "duration": 0.05,
      "midi": 42,
      "velocity": 34,
      "voice": "hat",
      "bar": 12
    },
    {
      "beat": 49.5,
      "duration": 0.24,
      "midi": 50,
      "velocity": 80,
      "voice": "acid",
      "bar": 12,
      "slide": false
    },
    {
      "beat": 49.5,
      "duration": 0.22,
      "midi": 50,
      "velocity": 70,
      "voice": "arp",
      "bar": 12
    },
    {
      "beat": 49.5,
      "duration": 0.45,
      "midi": 38,
      "velocity": 100,
      "voice": "bass",
      "bar": 12
    },
    {
      "beat": 49.5,
      "duration": 0.14,
      "midi": 46,
      "velocity": 74,
      "voice": "hat",
      "bar": 12
    },
    {
      "beat": 49.5,
      "duration": 0.5,
      "midi": 74,
      "velocity": 112,
      "voice": "lead",
      "bar": 12
    },
    {
      "beat": 49.5,
      "duration": 0.1,
      "midi": 62,
      "velocity": 72,
      "voice": "perc",
      "bar": 12
    },
    {
      "beat": 49.5,
      "duration": 0.22,
      "midi": 62,
      "velocity": 92,
      "voice": "stab",
      "bar": 12
    },
    {
      "beat": 49.5,
      "duration": 0.22,
      "midi": 66,
      "velocity": 92,
      "voice": "stab",
      "bar": 12
    },
    {
      "beat": 49.5,
      "duration": 0.22,
      "midi": 69,
      "velocity": 92,
      "voice": "stab",
      "bar": 12
    },
    {
      "beat": 49.75,
      "duration": 0.24,
      "midi": 62,
      "velocity": 80,
      "voice": "acid",
      "bar": 12,
      "slide": true
    },
    {
      "beat": 49.75,
      "duration": 0.22,
      "midi": 54,
      "velocity": 70,
      "voice": "arp",
      "bar": 12
    },
    {
      "beat": 49.75,
      "duration": 0.05,
      "midi": 42,
      "velocity": 34,
      "voice": "hat",
      "bar": 12
    },
    {
      "beat": 50.0,
      "duration": 0.24,
      "midi": 50,
      "velocity": 120,
      "voice": "acid",
      "bar": 12,
      "slide": false
    },
    {
      "beat": 50.0,
      "duration": 0.22,
      "midi": 57,
      "velocity": 84,
      "voice": "arp",
      "bar": 12
    },
    {
      "beat": 50.0,
      "duration": 0.45,
      "midi": 38,
      "velocity": 100,
      "voice": "bass",
      "bar": 12
    },
    {
      "beat": 50,
      "duration": 0.07,
      "midi": 42,
      "velocity": 44,
      "voice": "hat",
      "bar": 12
    },
    {
      "beat": 50,
      "duration": 0.16,
      "midi": 36,
      "velocity": 116,
      "voice": "kick",
      "bar": 12
    },
    {
      "beat": 50,
      "duration": 1,
      "midi": 69,
      "velocity": 112,
      "voice": "lead",
      "bar": 12
    },
    {
      "beat": 50,
      "duration": 0.18,
      "midi": 64,
      "velocity": 96,
      "voice": "perc",
      "bar": 12
    },
    {
      "beat": 50.25,
      "duration": 0.22,
      "midi": 62,
      "velocity": 70,
      "voice": "arp",
      "bar": 12
    },
    {
      "beat": 50.25,
      "duration": 0.05,
      "midi": 42,
      "velocity": 34,
      "voice": "hat",
      "bar": 12
    },
    {
      "beat": 50.5,
      "duration": 0.24,
      "midi": 63,
      "velocity": 80,
      "voice": "acid",
      "bar": 12,
      "slide": true
    },
    {
      "beat": 50.5,
      "duration": 0.22,
      "midi": 57,
      "velocity": 70,
      "voice": "arp",
      "bar": 12
    },
    {
      "beat": 50.5,
      "duration": 0.45,
      "midi": 38,
      "velocity": 100,
      "voice": "bass",
      "bar": 12
    },
    {
      "beat": 50.5,
      "duration": 0.14,
      "midi": 46,
      "velocity": 74,
      "voice": "hat",
      "bar": 12
    },
    {
      "beat": 50.5,
      "duration": 0.22,
      "midi": 62,
      "velocity": 92,
      "voice": "stab",
      "bar": 12
    },
    {
      "beat": 50.5,
      "duration": 0.22,
      "midi": 66,
      "velocity": 92,
      "voice": "stab",
      "bar": 12
    },
    {
      "beat": 50.5,
      "duration": 0.22,
      "midi": 69,
      "velocity": 92,
      "voice": "stab",
      "bar": 12
    },
    {
      "beat": 50.75,
      "duration": 0.24,
      "midi": 50,
      "velocity": 80,
      "voice": "acid",
      "bar": 12,
      "slide": false
    },
    {
      "beat": 50.75,
      "duration": 0.22,
      "midi": 54,
      "velocity": 70,
      "voice": "arp",
      "bar": 12
    },
    {
      "beat": 50.75,
      "duration": 0.05,
      "midi": 42,
      "velocity": 34,
      "voice": "hat",
      "bar": 12
    },
    {
      "beat": 51.0,
      "duration": 0.22,
      "midi": 50,
      "velocity": 84,
      "voice": "arp",
      "bar": 12
    },
    {
      "beat": 51.0,
      "duration": 0.45,
      "midi": 50,
      "velocity": 100,
      "voice": "bass",
      "bar": 12
    },
    {
      "beat": 51,
      "duration": 0.2,
      "midi": 39,
      "velocity": 104,
      "voice": "clap",
      "bar": 12
    },
    {
      "beat": 51,
      "duration": 0.07,
      "midi": 42,
      "velocity": 44,
      "voice": "hat",
      "bar": 12
    },
    {
      "beat": 51,
      "duration": 0.16,
      "midi": 36,
      "velocity": 116,
      "voice": "kick",
      "bar": 12
    },
    {
      "beat": 51,
      "duration": 1,
      "midi": 66,
      "velocity": 112,
      "voice": "lead",
      "bar": 12
    },
    {
      "beat": 51,
      "duration": 0.1,
      "midi": 62,
      "velocity": 72,
      "voice": "perc",
      "bar": 12
    },
    {
      "beat": 51.25,
      "duration": 0.24,
      "midi": 50,
      "velocity": 120,
      "voice": "acid",
      "bar": 12,
      "slide": false
    },
    {
      "beat": 51.25,
      "duration": 0.22,
      "midi": 54,
      "velocity": 70,
      "voice": "arp",
      "bar": 12
    },
    {
      "beat": 51.25,
      "duration": 0.05,
      "midi": 42,
      "velocity": 34,
      "voice": "hat",
      "bar": 12
    },
    {
      "beat": 51.5,
      "duration": 0.24,
      "midi": 62,
      "velocity": 80,
      "voice": "acid",
      "bar": 12,
      "slide": true
    },
    {
      "beat": 51.5,
      "duration": 0.22,
      "midi": 57,
      "velocity": 70,
      "voice": "arp",
      "bar": 12
    },
    {
      "beat": 51.5,
      "duration": 0.45,
      "midi": 38,
      "velocity": 100,
      "voice": "bass",
      "bar": 12
    },
    {
      "beat": 51.5,
      "duration": 0.14,
      "midi": 46,
      "velocity": 74,
      "voice": "hat",
      "bar": 12
    },
    {
      "beat": 51.5,
      "duration": 0.1,
      "midi": 62,
      "velocity": 72,
      "voice": "perc",
      "bar": 12
    },
    {
      "beat": 51.5,
      "duration": 0.22,
      "midi": 62,
      "velocity": 92,
      "voice": "stab",
      "bar": 12
    },
    {
      "beat": 51.5,
      "duration": 0.22,
      "midi": 66,
      "velocity": 92,
      "voice": "stab",
      "bar": 12
    },
    {
      "beat": 51.5,
      "duration": 0.22,
      "midi": 69,
      "velocity": 92,
      "voice": "stab",
      "bar": 12
    },
    {
      "beat": 51.75,
      "duration": 0.24,
      "midi": 51,
      "velocity": 80,
      "voice": "acid",
      "bar": 12,
      "slide": false
    },
    {
      "beat": 51.75,
      "duration": 0.22,
      "midi": 62,
      "velocity": 70,
      "voice": "arp",
      "bar": 12
    },
    {
      "beat": 51.75,
      "duration": 0.05,
      "midi": 42,
      "velocity": 34,
      "voice": "hat",
      "bar": 12
    },
    {
      "beat": 52.0,
      "duration": 0.24,
      "midi": 51,
      "velocity": 120,
      "voice": "acid",
      "bar": 13,
      "slide": false
    },
    {
      "beat": 52.0,
      "duration": 0.22,
      "midi": 51,
      "velocity": 84,
      "voice": "arp",
      "bar": 13
    },
    {
      "beat": 52.0,
      "duration": 0.45,
      "midi": 39,
      "velocity": 108,
      "voice": "bass",
      "bar": 13
    },
    {
      "beat": 52,
      "duration": 0.07,
      "midi": 42,
      "velocity": 44,
      "voice": "hat",
      "bar": 13
    },
    {
      "beat": 52,
      "duration": 0.16,
      "midi": 36,
      "velocity": 124,
      "voice": "kick",
      "bar": 13
    },
    {
      "beat": 52,
      "duration": 1.5,
      "midi": 67,
      "velocity": 112,
      "voice": "lead",
      "bar": 13
    },
    {
      "beat": 52,
      "duration": 4,
      "midi": 51,
      "velocity": 58,
      "voice": "pad",
      "bar": 13
    },
    {
      "beat": 52,
      "duration": 4,
      "midi": 55,
      "velocity": 58,
      "voice": "pad",
      "bar": 13
    },
    {
      "beat": 52,
      "duration": 4,
      "midi": 58,
      "velocity": 58,
      "voice": "pad",
      "bar": 13
    },
    {
      "beat": 52,
      "duration": 4,
      "midi": 63,
      "velocity": 58,
      "voice": "pad",
      "bar": 13
    },
    {
      "beat": 52,
      "duration": 0.18,
      "midi": 64,
      "velocity": 96,
      "voice": "perc",
      "bar": 13
    },
    {
      "beat": 52.25,
      "duration": 0.22,
      "midi": 55,
      "velocity": 70,
      "voice": "arp",
      "bar": 13
    },
    {
      "beat": 52.25,
      "duration": 0.05,
      "midi": 42,
      "velocity": 34,
      "voice": "hat",
      "bar": 13
    },
    {
      "beat": 52.5,
      "duration": 0.24,
      "midi": 63,
      "velocity": 80,
      "voice": "acid",
      "bar": 13,
      "slide": true
    },
    {
      "beat": 52.5,
      "duration": 0.22,
      "midi": 58,
      "velocity": 70,
      "voice": "arp",
      "bar": 13
    },
    {
      "beat": 52.5,
      "duration": 0.45,
      "midi": 39,
      "velocity": 100,
      "voice": "bass",
      "bar": 13
    },
    {
      "beat": 52.5,
      "duration": 0.14,
      "midi": 46,
      "velocity": 74,
      "voice": "hat",
      "bar": 13
    },
    {
      "beat": 52.5,
      "duration": 0.1,
      "midi": 62,
      "velocity": 72,
      "voice": "perc",
      "bar": 13
    },
    {
      "beat": 52.5,
      "duration": 0.22,
      "midi": 63,
      "velocity": 92,
      "voice": "stab",
      "bar": 13
    },
    {
      "beat": 52.5,
      "duration": 0.22,
      "midi": 67,
      "velocity": 92,
      "voice": "stab",
      "bar": 13
    },
    {
      "beat": 52.5,
      "duration": 0.22,
      "midi": 70,
      "velocity": 92,
      "voice": "stab",
      "bar": 13
    },
    {
      "beat": 52.75,
      "duration": 0.24,
      "midi": 51,
      "velocity": 80,
      "voice": "acid",
      "bar": 13,
      "slide": false
    },
    {
      "beat": 52.75,
      "duration": 0.22,
      "midi": 63,
      "velocity": 70,
      "voice": "arp",
      "bar": 13
    },
    {
      "beat": 52.75,
      "duration": 0.05,
      "midi": 42,
      "velocity": 34,
      "voice": "hat",
      "bar": 13
    },
    {
      "beat": 53.0,
      "duration": 0.24,
      "midi": 52,
      "velocity": 120,
      "voice": "acid",
      "bar": 13,
      "slide": false
    },
    {
      "beat": 53.0,
      "duration": 0.22,
      "midi": 58,
      "velocity": 84,
      "voice": "arp",
      "bar": 13
    },
    {
      "beat": 53.0,
      "duration": 0.45,
      "midi": 51,
      "velocity": 100,
      "voice": "bass",
      "bar": 13
    },
    {
      "beat": 53,
      "duration": 0.2,
      "midi": 39,
      "velocity": 104,
      "voice": "clap",
      "bar": 13
    },
    {
      "beat": 53,
      "duration": 0.07,
      "midi": 42,
      "velocity": 44,
      "voice": "hat",
      "bar": 13
    },
    {
      "beat": 53,
      "duration": 0.16,
      "midi": 36,
      "velocity": 116,
      "voice": "kick",
      "bar": 13
    },
    {
      "beat": 53.25,
      "duration": 0.22,
      "midi": 55,
      "velocity": 70,
      "voice": "arp",
      "bar": 13
    },
    {
      "beat": 53.25,
      "duration": 0.05,
      "midi": 42,
      "velocity": 34,
      "voice": "hat",
      "bar": 13
    },
    {
      "beat": 53.5,
      "duration": 0.24,
      "midi": 51,
      "velocity": 80,
      "voice": "acid",
      "bar": 13,
      "slide": false
    },
    {
      "beat": 53.5,
      "duration": 0.22,
      "midi": 51,
      "velocity": 70,
      "voice": "arp",
      "bar": 13
    },
    {
      "beat": 53.5,
      "duration": 0.45,
      "midi": 39,
      "velocity": 100,
      "voice": "bass",
      "bar": 13
    },
    {
      "beat": 53.5,
      "duration": 0.14,
      "midi": 46,
      "velocity": 74,
      "voice": "hat",
      "bar": 13
    },
    {
      "beat": 53.5,
      "duration": 0.5,
      "midi": 70,
      "velocity": 112,
      "voice": "lead",
      "bar": 13
    },
    {
      "beat": 53.5,
      "duration": 0.1,
      "midi": 62,
      "velocity": 72,
      "voice": "perc",
      "bar": 13
    },
    {
      "beat": 53.5,
      "duration": 0.22,
      "midi": 63,
      "velocity": 92,
      "voice": "stab",
      "bar": 13
    },
    {
      "beat": 53.5,
      "duration": 0.22,
      "midi": 67,
      "velocity": 92,
      "voice": "stab",
      "bar": 13
    },
    {
      "beat": 53.5,
      "duration": 0.22,
      "midi": 70,
      "velocity": 92,
      "voice": "stab",
      "bar": 13
    },
    {
      "beat": 53.75,
      "duration": 0.24,
      "midi": 63,
      "velocity": 80,
      "voice": "acid",
      "bar": 13,
      "slide": true
    },
    {
      "beat": 53.75,
      "duration": 0.22,
      "midi": 55,
      "velocity": 70,
      "voice": "arp",
      "bar": 13
    },
    {
      "beat": 53.75,
      "duration": 0.05,
      "midi": 42,
      "velocity": 34,
      "voice": "hat",
      "bar": 13
    },
    {
      "beat": 54.0,
      "duration": 0.24,
      "midi": 51,
      "velocity": 120,
      "voice": "acid",
      "bar": 13,
      "slide": false
    },
    {
      "beat": 54.0,
      "duration": 0.22,
      "midi": 58,
      "velocity": 84,
      "voice": "arp",
      "bar": 13
    },
    {
      "beat": 54.0,
      "duration": 0.45,
      "midi": 39,
      "velocity": 100,
      "voice": "bass",
      "bar": 13
    },
    {
      "beat": 54,
      "duration": 0.07,
      "midi": 42,
      "velocity": 44,
      "voice": "hat",
      "bar": 13
    },
    {
      "beat": 54,
      "duration": 0.16,
      "midi": 36,
      "velocity": 116,
      "voice": "kick",
      "bar": 13
    },
    {
      "beat": 54,
      "duration": 1,
      "midi": 69,
      "velocity": 112,
      "voice": "lead",
      "bar": 13
    },
    {
      "beat": 54,
      "duration": 0.18,
      "midi": 64,
      "velocity": 96,
      "voice": "perc",
      "bar": 13
    },
    {
      "beat": 54.25,
      "duration": 0.22,
      "midi": 63,
      "velocity": 70,
      "voice": "arp",
      "bar": 13
    },
    {
      "beat": 54.25,
      "duration": 0.05,
      "midi": 42,
      "velocity": 34,
      "voice": "hat",
      "bar": 13
    },
    {
      "beat": 54.5,
      "duration": 0.24,
      "midi": 64,
      "velocity": 80,
      "voice": "acid",
      "bar": 13,
      "slide": true
    },
    {
      "beat": 54.5,
      "duration": 0.22,
      "midi": 58,
      "velocity": 70,
      "voice": "arp",
      "bar": 13
    },
    {
      "beat": 54.5,
      "duration": 0.45,
      "midi": 39,
      "velocity": 100,
      "voice": "bass",
      "bar": 13
    },
    {
      "beat": 54.5,
      "duration": 0.14,
      "midi": 46,
      "velocity": 74,
      "voice": "hat",
      "bar": 13
    },
    {
      "beat": 54.5,
      "duration": 0.22,
      "midi": 63,
      "velocity": 92,
      "voice": "stab",
      "bar": 13
    },
    {
      "beat": 54.5,
      "duration": 0.22,
      "midi": 67,
      "velocity": 92,
      "voice": "stab",
      "bar": 13
    },
    {
      "beat": 54.5,
      "duration": 0.22,
      "midi": 70,
      "velocity": 92,
      "voice": "stab",
      "bar": 13
    },
    {
      "beat": 54.75,
      "duration": 0.24,
      "midi": 51,
      "velocity": 80,
      "voice": "acid",
      "bar": 13,
      "slide": false
    },
    {
      "beat": 54.75,
      "duration": 0.22,
      "midi": 55,
      "velocity": 70,
      "voice": "arp",
      "bar": 13
    },
    {
      "beat": 54.75,
      "duration": 0.05,
      "midi": 42,
      "velocity": 34,
      "voice": "hat",
      "bar": 13
    },
    {
      "beat": 55.0,
      "duration": 0.22,
      "midi": 51,
      "velocity": 84,
      "voice": "arp",
      "bar": 13
    },
    {
      "beat": 55.0,
      "duration": 0.45,
      "midi": 51,
      "velocity": 100,
      "voice": "bass",
      "bar": 13
    },
    {
      "beat": 55,
      "duration": 0.2,
      "midi": 39,
      "velocity": 104,
      "voice": "clap",
      "bar": 13
    },
    {
      "beat": 55,
      "duration": 0.07,
      "midi": 42,
      "velocity": 44,
      "voice": "hat",
      "bar": 13
    },
    {
      "beat": 55,
      "duration": 0.16,
      "midi": 36,
      "velocity": 116,
      "voice": "kick",
      "bar": 13
    },
    {
      "beat": 55,
      "duration": 1,
      "midi": 67,
      "velocity": 112,
      "voice": "lead",
      "bar": 13
    },
    {
      "beat": 55,
      "duration": 0.1,
      "midi": 62,
      "velocity": 72,
      "voice": "perc",
      "bar": 13
    },
    {
      "beat": 55.25,
      "duration": 0.24,
      "midi": 51,
      "velocity": 120,
      "voice": "acid",
      "bar": 13,
      "slide": false
    },
    {
      "beat": 55.25,
      "duration": 0.22,
      "midi": 55,
      "velocity": 70,
      "voice": "arp",
      "bar": 13
    },
    {
      "beat": 55.25,
      "duration": 0.05,
      "midi": 42,
      "velocity": 34,
      "voice": "hat",
      "bar": 13
    },
    {
      "beat": 55.5,
      "duration": 0.24,
      "midi": 63,
      "velocity": 80,
      "voice": "acid",
      "bar": 13,
      "slide": true
    },
    {
      "beat": 55.5,
      "duration": 0.22,
      "midi": 58,
      "velocity": 70,
      "voice": "arp",
      "bar": 13
    },
    {
      "beat": 55.5,
      "duration": 0.45,
      "midi": 39,
      "velocity": 100,
      "voice": "bass",
      "bar": 13
    },
    {
      "beat": 55.5,
      "duration": 0.14,
      "midi": 46,
      "velocity": 74,
      "voice": "hat",
      "bar": 13
    },
    {
      "beat": 55.5,
      "duration": 0.1,
      "midi": 62,
      "velocity": 72,
      "voice": "perc",
      "bar": 13
    },
    {
      "beat": 55.5,
      "duration": 0.22,
      "midi": 63,
      "velocity": 92,
      "voice": "stab",
      "bar": 13
    },
    {
      "beat": 55.5,
      "duration": 0.22,
      "midi": 67,
      "velocity": 92,
      "voice": "stab",
      "bar": 13
    },
    {
      "beat": 55.5,
      "duration": 0.22,
      "midi": 70,
      "velocity": 92,
      "voice": "stab",
      "bar": 13
    },
    {
      "beat": 55.75,
      "duration": 0.24,
      "midi": 52,
      "velocity": 80,
      "voice": "acid",
      "bar": 13,
      "slide": false
    },
    {
      "beat": 55.75,
      "duration": 0.22,
      "midi": 63,
      "velocity": 70,
      "voice": "arp",
      "bar": 13
    },
    {
      "beat": 55.75,
      "duration": 0.05,
      "midi": 42,
      "velocity": 34,
      "voice": "hat",
      "bar": 13
    },
    {
      "beat": 56.0,
      "duration": 0.24,
      "midi": 55,
      "velocity": 120,
      "voice": "acid",
      "bar": 14,
      "slide": false
    },
    {
      "beat": 56.0,
      "duration": 0.22,
      "midi": 55,
      "velocity": 84,
      "voice": "arp",
      "bar": 14
    },
    {
      "beat": 56.0,
      "duration": 0.45,
      "midi": 43,
      "velocity": 108,
      "voice": "bass",
      "bar": 14
    },
    {
      "beat": 56,
      "duration": 0.07,
      "midi": 42,
      "velocity": 44,
      "voice": "hat",
      "bar": 14
    },
    {
      "beat": 56,
      "duration": 0.16,
      "midi": 36,
      "velocity": 124,
      "voice": "kick",
      "bar": 14
    },
    {
      "beat": 56,
      "duration": 1,
      "midi": 70,
      "velocity": 112,
      "voice": "lead",
      "bar": 14
    },
    {
      "beat": 56,
      "duration": 4,
      "midi": 55,
      "velocity": 58,
      "voice": "pad",
      "bar": 14
    },
    {
      "beat": 56,
      "duration": 4,
      "midi": 58,
      "velocity": 58,
      "voice": "pad",
      "bar": 14
    },
    {
      "beat": 56,
      "duration": 4,
      "midi": 62,
      "velocity": 58,
      "voice": "pad",
      "bar": 14
    },
    {
      "beat": 56,
      "duration": 4,
      "midi": 67,
      "velocity": 58,
      "voice": "pad",
      "bar": 14
    },
    {
      "beat": 56,
      "duration": 0.18,
      "midi": 64,
      "velocity": 96,
      "voice": "perc",
      "bar": 14
    },
    {
      "beat": 56.25,
      "duration": 0.22,
      "midi": 58,
      "velocity": 70,
      "voice": "arp",
      "bar": 14
    },
    {
      "beat": 56.25,
      "duration": 0.05,
      "midi": 42,
      "velocity": 34,
      "voice": "hat",
      "bar": 14
    },
    {
      "beat": 56.5,
      "duration": 0.24,
      "midi": 67,
      "velocity": 80,
      "voice": "acid",
      "bar": 14,
      "slide": true
    },
    {
      "beat": 56.5,
      "duration": 0.22,
      "midi": 62,
      "velocity": 70,
      "voice": "arp",
      "bar": 14
    },
    {
      "beat": 56.5,
      "duration": 0.45,
      "midi": 43,
      "velocity": 100,
      "voice": "bass",
      "bar": 14
    },
    {
      "beat": 56.5,
      "duration": 0.14,
      "midi": 46,
      "velocity": 74,
      "voice": "hat",
      "bar": 14
    },
    {
      "beat": 56.5,
      "duration": 0.1,
      "midi": 62,
      "velocity": 72,
      "voice": "perc",
      "bar": 14
    },
    {
      "beat": 56.5,
      "duration": 0.22,
      "midi": 67,
      "velocity": 92,
      "voice": "stab",
      "bar": 14
    },
    {
      "beat": 56.5,
      "duration": 0.22,
      "midi": 70,
      "velocity": 92,
      "voice": "stab",
      "bar": 14
    },
    {
      "beat": 56.5,
      "duration": 0.22,
      "midi": 74,
      "velocity": 92,
      "voice": "stab",
      "bar": 14
    },
    {
      "beat": 56.75,
      "duration": 0.24,
      "midi": 55,
      "velocity": 80,
      "voice": "acid",
      "bar": 14,
      "slide": false
    },
    {
      "beat": 56.75,
      "duration": 0.22,
      "midi": 67,
      "velocity": 70,
      "voice": "arp",
      "bar": 14
    },
    {
      "beat": 56.75,
      "duration": 0.05,
      "midi": 42,
      "velocity": 34,
      "voice": "hat",
      "bar": 14
    },
    {
      "beat": 57.0,
      "duration": 0.24,
      "midi": 56,
      "velocity": 120,
      "voice": "acid",
      "bar": 14,
      "slide": false
    },
    {
      "beat": 57.0,
      "duration": 0.22,
      "midi": 62,
      "velocity": 84,
      "voice": "arp",
      "bar": 14
    },
    {
      "beat": 57.0,
      "duration": 0.45,
      "midi": 55,
      "velocity": 100,
      "voice": "bass",
      "bar": 14
    },
    {
      "beat": 57,
      "duration": 0.2,
      "midi": 39,
      "velocity": 104,
      "voice": "clap",
      "bar": 14
    },
    {
      "beat": 57,
      "duration": 0.07,
      "midi": 42,
      "velocity": 44,
      "voice": "hat",
      "bar": 14
    },
    {
      "beat": 57,
      "duration": 0.16,
      "midi": 36,
      "velocity": 116,
      "voice": "kick",
      "bar": 14
    },
    {
      "beat": 57,
      "duration": 0.5,
      "midi": 69,
      "velocity": 112,
      "voice": "lead",
      "bar": 14
    },
    {
      "beat": 57.25,
      "duration": 0.22,
      "midi": 58,
      "velocity": 70,
      "voice": "arp",
      "bar": 14
    },
    {
      "beat": 57.25,
      "duration": 0.05,
      "midi": 42,
      "velocity": 34,
      "voice": "hat",
      "bar": 14
    },
    {
      "beat": 57.5,
      "duration": 0.24,
      "midi": 55,
      "velocity": 80,
      "voice": "acid",
      "bar": 14,
      "slide": false
    },
    {
      "beat": 57.5,
      "duration": 0.22,
      "midi": 55,
      "velocity": 70,
      "voice": "arp",
      "bar": 14
    },
    {
      "beat": 57.5,
      "duration": 0.45,
      "midi": 43,
      "velocity": 100,
      "voice": "bass",
      "bar": 14
    },
    {
      "beat": 57.5,
      "duration": 0.14,
      "midi": 46,
      "velocity": 74,
      "voice": "hat",
      "bar": 14
    },
    {
      "beat": 57.5,
      "duration": 0.5,
      "midi": 67,
      "velocity": 112,
      "voice": "lead",
      "bar": 14
    },
    {
      "beat": 57.5,
      "duration": 0.1,
      "midi": 62,
      "velocity": 72,
      "voice": "perc",
      "bar": 14
    },
    {
      "beat": 57.5,
      "duration": 0.22,
      "midi": 67,
      "velocity": 92,
      "voice": "stab",
      "bar": 14
    },
    {
      "beat": 57.5,
      "duration": 0.22,
      "midi": 70,
      "velocity": 92,
      "voice": "stab",
      "bar": 14
    },
    {
      "beat": 57.5,
      "duration": 0.22,
      "midi": 74,
      "velocity": 92,
      "voice": "stab",
      "bar": 14
    },
    {
      "beat": 57.75,
      "duration": 0.24,
      "midi": 67,
      "velocity": 80,
      "voice": "acid",
      "bar": 14,
      "slide": true
    },
    {
      "beat": 57.75,
      "duration": 0.22,
      "midi": 58,
      "velocity": 70,
      "voice": "arp",
      "bar": 14
    },
    {
      "beat": 57.75,
      "duration": 0.05,
      "midi": 42,
      "velocity": 34,
      "voice": "hat",
      "bar": 14
    },
    {
      "beat": 58.0,
      "duration": 0.24,
      "midi": 55,
      "velocity": 120,
      "voice": "acid",
      "bar": 14,
      "slide": false
    },
    {
      "beat": 58.0,
      "duration": 0.22,
      "midi": 62,
      "velocity": 84,
      "voice": "arp",
      "bar": 14
    },
    {
      "beat": 58.0,
      "duration": 0.45,
      "midi": 43,
      "velocity": 100,
      "voice": "bass",
      "bar": 14
    },
    {
      "beat": 58,
      "duration": 0.07,
      "midi": 42,
      "velocity": 44,
      "voice": "hat",
      "bar": 14
    },
    {
      "beat": 58,
      "duration": 0.16,
      "midi": 36,
      "velocity": 116,
      "voice": "kick",
      "bar": 14
    },
    {
      "beat": 58,
      "duration": 1,
      "midi": 74,
      "velocity": 112,
      "voice": "lead",
      "bar": 14
    },
    {
      "beat": 58,
      "duration": 0.18,
      "midi": 64,
      "velocity": 96,
      "voice": "perc",
      "bar": 14
    },
    {
      "beat": 58.25,
      "duration": 0.22,
      "midi": 67,
      "velocity": 70,
      "voice": "arp",
      "bar": 14
    },
    {
      "beat": 58.25,
      "duration": 0.05,
      "midi": 42,
      "velocity": 34,
      "voice": "hat",
      "bar": 14
    },
    {
      "beat": 58.5,
      "duration": 0.24,
      "midi": 68,
      "velocity": 80,
      "voice": "acid",
      "bar": 14,
      "slide": true
    },
    {
      "beat": 58.5,
      "duration": 0.22,
      "midi": 62,
      "velocity": 70,
      "voice": "arp",
      "bar": 14
    },
    {
      "beat": 58.5,
      "duration": 0.45,
      "midi": 43,
      "velocity": 100,
      "voice": "bass",
      "bar": 14
    },
    {
      "beat": 58.5,
      "duration": 0.14,
      "midi": 46,
      "velocity": 74,
      "voice": "hat",
      "bar": 14
    },
    {
      "beat": 58.5,
      "duration": 0.22,
      "midi": 67,
      "velocity": 92,
      "voice": "stab",
      "bar": 14
    },
    {
      "beat": 58.5,
      "duration": 0.22,
      "midi": 70,
      "velocity": 92,
      "voice": "stab",
      "bar": 14
    },
    {
      "beat": 58.5,
      "duration": 0.22,
      "midi": 74,
      "velocity": 92,
      "voice": "stab",
      "bar": 14
    },
    {
      "beat": 58.75,
      "duration": 0.24,
      "midi": 55,
      "velocity": 80,
      "voice": "acid",
      "bar": 14,
      "slide": false
    },
    {
      "beat": 58.75,
      "duration": 0.22,
      "midi": 58,
      "velocity": 70,
      "voice": "arp",
      "bar": 14
    },
    {
      "beat": 58.75,
      "duration": 0.05,
      "midi": 42,
      "velocity": 34,
      "voice": "hat",
      "bar": 14
    },
    {
      "beat": 59.0,
      "duration": 0.22,
      "midi": 55,
      "velocity": 84,
      "voice": "arp",
      "bar": 14
    },
    {
      "beat": 59.0,
      "duration": 0.45,
      "midi": 55,
      "velocity": 100,
      "voice": "bass",
      "bar": 14
    },
    {
      "beat": 59,
      "duration": 0.2,
      "midi": 39,
      "velocity": 104,
      "voice": "clap",
      "bar": 14
    },
    {
      "beat": 59,
      "duration": 0.07,
      "midi": 42,
      "velocity": 44,
      "voice": "hat",
      "bar": 14
    },
    {
      "beat": 59,
      "duration": 0.16,
      "midi": 36,
      "velocity": 116,
      "voice": "kick",
      "bar": 14
    },
    {
      "beat": 59,
      "duration": 1,
      "midi": 70,
      "velocity": 112,
      "voice": "lead",
      "bar": 14
    },
    {
      "beat": 59,
      "duration": 0.1,
      "midi": 62,
      "velocity": 72,
      "voice": "perc",
      "bar": 14
    },
    {
      "beat": 59.25,
      "duration": 0.24,
      "midi": 55,
      "velocity": 120,
      "voice": "acid",
      "bar": 14,
      "slide": false
    },
    {
      "beat": 59.25,
      "duration": 0.22,
      "midi": 58,
      "velocity": 70,
      "voice": "arp",
      "bar": 14
    },
    {
      "beat": 59.25,
      "duration": 0.05,
      "midi": 42,
      "velocity": 34,
      "voice": "hat",
      "bar": 14
    },
    {
      "beat": 59.5,
      "duration": 0.24,
      "midi": 67,
      "velocity": 80,
      "voice": "acid",
      "bar": 14,
      "slide": true
    },
    {
      "beat": 59.5,
      "duration": 0.22,
      "midi": 62,
      "velocity": 70,
      "voice": "arp",
      "bar": 14
    },
    {
      "beat": 59.5,
      "duration": 0.45,
      "midi": 43,
      "velocity": 100,
      "voice": "bass",
      "bar": 14
    },
    {
      "beat": 59.5,
      "duration": 0.14,
      "midi": 46,
      "velocity": 74,
      "voice": "hat",
      "bar": 14
    },
    {
      "beat": 59.5,
      "duration": 0.1,
      "midi": 62,
      "velocity": 72,
      "voice": "perc",
      "bar": 14
    },
    {
      "beat": 59.5,
      "duration": 0.22,
      "midi": 67,
      "velocity": 92,
      "voice": "stab",
      "bar": 14
    },
    {
      "beat": 59.5,
      "duration": 0.22,
      "midi": 70,
      "velocity": 92,
      "voice": "stab",
      "bar": 14
    },
    {
      "beat": 59.5,
      "duration": 0.22,
      "midi": 74,
      "velocity": 92,
      "voice": "stab",
      "bar": 14
    },
    {
      "beat": 59.75,
      "duration": 0.24,
      "midi": 56,
      "velocity": 80,
      "voice": "acid",
      "bar": 14,
      "slide": false
    },
    {
      "beat": 59.75,
      "duration": 0.22,
      "midi": 67,
      "velocity": 70,
      "voice": "arp",
      "bar": 14
    },
    {
      "beat": 59.75,
      "duration": 0.05,
      "midi": 42,
      "velocity": 34,
      "voice": "hat",
      "bar": 14
    },
    {
      "beat": 60.0,
      "duration": 0.24,
      "midi": 57,
      "velocity": 120,
      "voice": "acid",
      "bar": 15,
      "slide": false
    },
    {
      "beat": 60.0,
      "duration": 0.22,
      "midi": 57,
      "velocity": 84,
      "voice": "arp",
      "bar": 15
    },
    {
      "beat": 60.0,
      "duration": 0.45,
      "midi": 45,
      "velocity": 108,
      "voice": "bass",
      "bar": 15
    },
    {
      "beat": 60,
      "duration": 0.07,
      "midi": 42,
      "velocity": 44,
      "voice": "hat",
      "bar": 15
    },
    {
      "beat": 60,
      "duration": 0.16,
      "midi": 36,
      "velocity": 124,
      "voice": "kick",
      "bar": 15
    },
    {
      "beat": 60,
      "duration": 1,
      "midi": 73,
      "velocity": 112,
      "voice": "lead",
      "bar": 15
    },
    {
      "beat": 60,
      "duration": 4,
      "midi": 57,
      "velocity": 58,
      "voice": "pad",
      "bar": 15
    },
    {
      "beat": 60,
      "duration": 4,
      "midi": 61,
      "velocity": 58,
      "voice": "pad",
      "bar": 15
    },
    {
      "beat": 60,
      "duration": 4,
      "midi": 64,
      "velocity": 58,
      "voice": "pad",
      "bar": 15
    },
    {
      "beat": 60,
      "duration": 4,
      "midi": 69,
      "velocity": 58,
      "voice": "pad",
      "bar": 15
    },
    {
      "beat": 60,
      "duration": 0.18,
      "midi": 64,
      "velocity": 96,
      "voice": "perc",
      "bar": 15
    },
    {
      "beat": 60.25,
      "duration": 0.22,
      "midi": 61,
      "velocity": 70,
      "voice": "arp",
      "bar": 15
    },
    {
      "beat": 60.25,
      "duration": 0.05,
      "midi": 42,
      "velocity": 34,
      "voice": "hat",
      "bar": 15
    },
    {
      "beat": 60.5,
      "duration": 0.24,
      "midi": 69,
      "velocity": 80,
      "voice": "acid",
      "bar": 15,
      "slide": true
    },
    {
      "beat": 60.5,
      "duration": 0.22,
      "midi": 64,
      "velocity": 70,
      "voice": "arp",
      "bar": 15
    },
    {
      "beat": 60.5,
      "duration": 0.45,
      "midi": 45,
      "velocity": 100,
      "voice": "bass",
      "bar": 15
    },
    {
      "beat": 60.5,
      "duration": 0.14,
      "midi": 46,
      "velocity": 74,
      "voice": "hat",
      "bar": 15
    },
    {
      "beat": 60.5,
      "duration": 0.1,
      "midi": 62,
      "velocity": 72,
      "voice": "perc",
      "bar": 15
    },
    {
      "beat": 60.5,
      "duration": 0.22,
      "midi": 69,
      "velocity": 92,
      "voice": "stab",
      "bar": 15
    },
    {
      "beat": 60.5,
      "duration": 0.22,
      "midi": 73,
      "velocity": 92,
      "voice": "stab",
      "bar": 15
    },
    {
      "beat": 60.5,
      "duration": 0.22,
      "midi": 76,
      "velocity": 92,
      "voice": "stab",
      "bar": 15
    },
    {
      "beat": 60.75,
      "duration": 0.24,
      "midi": 57,
      "velocity": 80,
      "voice": "acid",
      "bar": 15,
      "slide": false
    },
    {
      "beat": 60.75,
      "duration": 0.22,
      "midi": 69,
      "velocity": 70,
      "voice": "arp",
      "bar": 15
    },
    {
      "beat": 60.75,
      "duration": 0.05,
      "midi": 42,
      "velocity": 34,
      "voice": "hat",
      "bar": 15
    },
    {
      "beat": 61.0,
      "duration": 0.24,
      "midi": 58,
      "velocity": 120,
      "voice": "acid",
      "bar": 15,
      "slide": false
    },
    {
      "beat": 61.0,
      "duration": 0.22,
      "midi": 64,
      "velocity": 84,
      "voice": "arp",
      "bar": 15
    },
    {
      "beat": 61.0,
      "duration": 0.45,
      "midi": 57,
      "velocity": 100,
      "voice": "bass",
      "bar": 15
    },
    {
      "beat": 61,
      "duration": 0.2,
      "midi": 39,
      "velocity": 104,
      "voice": "clap",
      "bar": 15
    },
    {
      "beat": 61,
      "duration": 0.07,
      "midi": 42,
      "velocity": 44,
      "voice": "hat",
      "bar": 15
    },
    {
      "beat": 61,
      "duration": 0.16,
      "midi": 36,
      "velocity": 116,
      "voice": "kick",
      "bar": 15
    },
    {
      "beat": 61,
      "duration": 0.5,
      "midi": 74,
      "velocity": 112,
      "voice": "lead",
      "bar": 15
    },
    {
      "beat": 61.25,
      "duration": 0.22,
      "midi": 61,
      "velocity": 70,
      "voice": "arp",
      "bar": 15
    },
    {
      "beat": 61.25,
      "duration": 0.05,
      "midi": 42,
      "velocity": 34,
      "voice": "hat",
      "bar": 15
    },
    {
      "beat": 61.5,
      "duration": 0.24,
      "midi": 57,
      "velocity": 80,
      "voice": "acid",
      "bar": 15,
      "slide": false
    },
    {
      "beat": 61.5,
      "duration": 0.22,
      "midi": 57,
      "velocity": 70,
      "voice": "arp",
      "bar": 15
    },
    {
      "beat": 61.5,
      "duration": 0.45,
      "midi": 45,
      "velocity": 100,
      "voice": "bass",
      "bar": 15
    },
    {
      "beat": 61.5,
      "duration": 0.14,
      "midi": 46,
      "velocity": 74,
      "voice": "hat",
      "bar": 15
    },
    {
      "beat": 61.5,
      "duration": 0.5,
      "midi": 73,
      "velocity": 112,
      "voice": "lead",
      "bar": 15
    },
    {
      "beat": 61.5,
      "duration": 0.1,
      "midi": 62,
      "velocity": 72,
      "voice": "perc",
      "bar": 15
    },
    {
      "beat": 61.5,
      "duration": 0.22,
      "midi": 69,
      "velocity": 92,
      "voice": "stab",
      "bar": 15
    },
    {
      "beat": 61.5,
      "duration": 0.22,
      "midi": 73,
      "velocity": 92,
      "voice": "stab",
      "bar": 15
    },
    {
      "beat": 61.5,
      "duration": 0.22,
      "midi": 76,
      "velocity": 92,
      "voice": "stab",
      "bar": 15
    },
    {
      "beat": 61.75,
      "duration": 0.24,
      "midi": 69,
      "velocity": 80,
      "voice": "acid",
      "bar": 15,
      "slide": true
    },
    {
      "beat": 61.75,
      "duration": 0.22,
      "midi": 61,
      "velocity": 70,
      "voice": "arp",
      "bar": 15
    },
    {
      "beat": 61.75,
      "duration": 0.05,
      "midi": 42,
      "velocity": 34,
      "voice": "hat",
      "bar": 15
    },
    {
      "beat": 62.0,
      "duration": 0.24,
      "midi": 57,
      "velocity": 120,
      "voice": "acid",
      "bar": 15,
      "slide": false
    },
    {
      "beat": 62.0,
      "duration": 0.22,
      "midi": 64,
      "velocity": 84,
      "voice": "arp",
      "bar": 15
    },
    {
      "beat": 62.0,
      "duration": 0.45,
      "midi": 45,
      "velocity": 100,
      "voice": "bass",
      "bar": 15
    },
    {
      "beat": 62,
      "duration": 0.07,
      "midi": 42,
      "velocity": 44,
      "voice": "hat",
      "bar": 15
    },
    {
      "beat": 62,
      "duration": 0.16,
      "midi": 36,
      "velocity": 116,
      "voice": "kick",
      "bar": 15
    },
    {
      "beat": 62,
      "duration": 2,
      "midi": 69,
      "velocity": 112,
      "voice": "lead",
      "bar": 15
    },
    {
      "beat": 62,
      "duration": 0.18,
      "midi": 64,
      "velocity": 96,
      "voice": "perc",
      "bar": 15
    },
    {
      "beat": 62.25,
      "duration": 0.22,
      "midi": 69,
      "velocity": 70,
      "voice": "arp",
      "bar": 15
    },
    {
      "beat": 62.25,
      "duration": 0.05,
      "midi": 42,
      "velocity": 34,
      "voice": "hat",
      "bar": 15
    },
    {
      "beat": 62.5,
      "duration": 0.24,
      "midi": 70,
      "velocity": 80,
      "voice": "acid",
      "bar": 15,
      "slide": true
    },
    {
      "beat": 62.5,
      "duration": 0.22,
      "midi": 64,
      "velocity": 70,
      "voice": "arp",
      "bar": 15
    },
    {
      "beat": 62.5,
      "duration": 0.45,
      "midi": 45,
      "velocity": 100,
      "voice": "bass",
      "bar": 15
    },
    {
      "beat": 62.5,
      "duration": 0.14,
      "midi": 46,
      "velocity": 74,
      "voice": "hat",
      "bar": 15
    },
    {
      "beat": 62.5,
      "duration": 0.22,
      "midi": 69,
      "velocity": 92,
      "voice": "stab",
      "bar": 15
    },
    {
      "beat": 62.5,
      "duration": 0.22,
      "midi": 73,
      "velocity": 92,
      "voice": "stab",
      "bar": 15
    },
    {
      "beat": 62.5,
      "duration": 0.22,
      "midi": 76,
      "velocity": 92,
      "voice": "stab",
      "bar": 15
    },
    {
      "beat": 62.75,
      "duration": 0.24,
      "midi": 57,
      "velocity": 80,
      "voice": "acid",
      "bar": 15,
      "slide": false
    },
    {
      "beat": 62.75,
      "duration": 0.22,
      "midi": 61,
      "velocity": 70,
      "voice": "arp",
      "bar": 15
    },
    {
      "beat": 62.75,
      "duration": 0.05,
      "midi": 42,
      "velocity": 34,
      "voice": "hat",
      "bar": 15
    },
    {
      "beat": 63.0,
      "duration": 0.22,
      "midi": 57,
      "velocity": 84,
      "voice": "arp",
      "bar": 15
    },
    {
      "beat": 63.0,
      "duration": 0.45,
      "midi": 57,
      "velocity": 100,
      "voice": "bass",
      "bar": 15
    },
    {
      "beat": 63,
      "duration": 0.2,
      "midi": 39,
      "velocity": 104,
      "voice": "clap",
      "bar": 15
    },
    {
      "beat": 63,
      "duration": 0.07,
      "midi": 42,
      "velocity": 44,
      "voice": "hat",
      "bar": 15
    },
    {
      "beat": 63,
      "duration": 0.16,
      "midi": 36,
      "velocity": 116,
      "voice": "kick",
      "bar": 15
    },
    {
      "beat": 63,
      "duration": 0.1,
      "midi": 62,
      "velocity": 72,
      "voice": "perc",
      "bar": 15
    },
    {
      "beat": 63.25,
      "duration": 0.24,
      "midi": 57,
      "velocity": 120,
      "voice": "acid",
      "bar": 15,
      "slide": false
    },
    {
      "beat": 63.25,
      "duration": 0.22,
      "midi": 61,
      "velocity": 70,
      "voice": "arp",
      "bar": 15
    },
    {
      "beat": 63.25,
      "duration": 0.05,
      "midi": 42,
      "velocity": 34,
      "voice": "hat",
      "bar": 15
    },
    {
      "beat": 63.5,
      "duration": 0.24,
      "midi": 69,
      "velocity": 80,
      "voice": "acid",
      "bar": 15,
      "slide": true
    },
    {
      "beat": 63.5,
      "duration": 0.22,
      "midi": 64,
      "velocity": 70,
      "voice": "arp",
      "bar": 15
    },
    {
      "beat": 63.5,
      "duration": 0.45,
      "midi": 45,
      "velocity": 100,
      "voice": "bass",
      "bar": 15
    },
    {
      "beat": 63.5,
      "duration": 0.14,
      "midi": 46,
      "velocity": 74,
      "voice": "hat",
      "bar": 15
    },
    {
      "beat": 63.5,
      "duration": 0.1,
      "midi": 62,
      "velocity": 72,
      "voice": "perc",
      "bar": 15
    },
    {
      "beat": 63.5,
      "duration": 0.22,
      "midi": 69,
      "velocity": 92,
      "voice": "stab",
      "bar": 15
    },
    {
      "beat": 63.5,
      "duration": 0.22,
      "midi": 73,
      "velocity": 92,
      "voice": "stab",
      "bar": 15
    },
    {
      "beat": 63.5,
      "duration": 0.22,
      "midi": 76,
      "velocity": 92,
      "voice": "stab",
      "bar": 15
    },
    {
      "beat": 63.75,
      "duration": 0.24,
      "midi": 58,
      "velocity": 80,
      "voice": "acid",
      "bar": 15,
      "slide": false
    },
    {
      "beat": 63.75,
      "duration": 0.22,
      "midi": 69,
      "velocity": 70,
      "voice": "arp",
      "bar": 15
    },
    {
      "beat": 63.75,
      "duration": 0.05,
      "midi": 42,
      "velocity": 34,
      "voice": "hat",
      "bar": 15
    },
    {
      "beat": 64.0,
      "duration": 0.22,
      "midi": 50,
      "velocity": 84,
      "voice": "arp",
      "bar": 16
    },
    {
      "beat": 64.0,
      "duration": 0.45,
      "midi": 38,
      "velocity": 108,
      "voice": "bass",
      "bar": 16
    },
    {
      "beat": 64,
      "duration": 0.07,
      "midi": 42,
      "velocity": 44,
      "voice": "hat",
      "bar": 16
    },
    {
      "beat": 64,
      "duration": 0.16,
      "midi": 36,
      "velocity": 124,
      "voice": "kick",
      "bar": 16
    },
    {
      "beat": 64,
      "duration": 0.18,
      "midi": 64,
      "velocity": 96,
      "voice": "perc",
      "bar": 16
    },
    {
      "beat": 64.25,
      "duration": 0.22,
      "midi": 54,
      "velocity": 70,
      "voice": "arp",
      "bar": 16
    },
    {
      "beat": 64.5,
      "duration": 0.22,
      "midi": 57,
      "velocity": 70,
      "voice": "arp",
      "bar": 16
    },
    {
      "beat": 64.5,
      "duration": 0.45,
      "midi": 38,
      "velocity": 100,
      "voice": "bass",
      "bar": 16
    },
    {
      "beat": 64.5,
      "duration": 0.14,
      "midi": 46,
      "velocity": 74,
      "voice": "hat",
      "bar": 16
    },
    {
      "beat": 64.5,
      "duration": 0.1,
      "midi": 62,
      "velocity": 72,
      "voice": "perc",
      "bar": 16
    },
    {
      "beat": 64.75,
      "duration": 0.22,
      "midi": 62,
      "velocity": 70,
      "voice": "arp",
      "bar": 16
    },
    {
      "beat": 65.0,
      "duration": 0.22,
      "midi": 57,
      "velocity": 84,
      "voice": "arp",
      "bar": 16
    },
    {
      "beat": 65.0,
      "duration": 0.45,
      "midi": 50,
      "velocity": 100,
      "voice": "bass",
      "bar": 16
    },
    {
      "beat": 65,
      "duration": 0.07,
      "midi": 42,
      "velocity": 44,
      "voice": "hat",
      "bar": 16
    },
    {
      "beat": 65,
      "duration": 0.16,
      "midi": 36,
      "velocity": 116,
      "voice": "kick",
      "bar": 16
    },
    {
      "beat": 65.25,
      "duration": 0.22,
      "midi": 54,
      "velocity": 70,
      "voice": "arp",
      "bar": 16
    },
    {
      "beat": 65.5,
      "duration": 0.22,
      "midi": 50,
      "velocity": 70,
      "voice": "arp",
      "bar": 16
    },
    {
      "beat": 65.5,
      "duration": 0.45,
      "midi": 38,
      "velocity": 100,
      "voice": "bass",
      "bar": 16
    },
    {
      "beat": 65.5,
      "duration": 0.14,
      "midi": 46,
      "velocity": 74,
      "voice": "hat",
      "bar": 16
    },
    {
      "beat": 65.5,
      "duration": 0.1,
      "midi": 62,
      "velocity": 72,
      "voice": "perc",
      "bar": 16
    },
    {
      "beat": 65.75,
      "duration": 0.22,
      "midi": 54,
      "velocity": 70,
      "voice": "arp",
      "bar": 16
    },
    {
      "beat": 66.0,
      "duration": 0.22,
      "midi": 57,
      "velocity": 84,
      "voice": "arp",
      "bar": 16
    },
    {
      "beat": 66.0,
      "duration": 0.45,
      "midi": 38,
      "velocity": 100,
      "voice": "bass",
      "bar": 16
    },
    {
      "beat": 66,
      "duration": 0.07,
      "midi": 42,
      "velocity": 44,
      "voice": "hat",
      "bar": 16
    },
    {
      "beat": 66,
      "duration": 0.16,
      "midi": 36,
      "velocity": 116,
      "voice": "kick",
      "bar": 16
    },
    {
      "beat": 66,
      "duration": 0.18,
      "midi": 64,
      "velocity": 96,
      "voice": "perc",
      "bar": 16
    },
    {
      "beat": 66.25,
      "duration": 0.22,
      "midi": 62,
      "velocity": 70,
      "voice": "arp",
      "bar": 16
    },
    {
      "beat": 66.5,
      "duration": 0.22,
      "midi": 57,
      "velocity": 70,
      "voice": "arp",
      "bar": 16
    },
    {
      "beat": 66.5,
      "duration": 0.45,
      "midi": 38,
      "velocity": 100,
      "voice": "bass",
      "bar": 16
    },
    {
      "beat": 66.5,
      "duration": 0.14,
      "midi": 46,
      "velocity": 74,
      "voice": "hat",
      "bar": 16
    },
    {
      "beat": 66.75,
      "duration": 0.22,
      "midi": 54,
      "velocity": 70,
      "voice": "arp",
      "bar": 16
    },
    {
      "beat": 67.0,
      "duration": 0.22,
      "midi": 50,
      "velocity": 84,
      "voice": "arp",
      "bar": 16
    },
    {
      "beat": 67.0,
      "duration": 0.45,
      "midi": 50,
      "velocity": 100,
      "voice": "bass",
      "bar": 16
    },
    {
      "beat": 67,
      "duration": 0.07,
      "midi": 42,
      "velocity": 44,
      "voice": "hat",
      "bar": 16
    },
    {
      "beat": 67,
      "duration": 0.16,
      "midi": 36,
      "velocity": 116,
      "voice": "kick",
      "bar": 16
    },
    {
      "beat": 67,
      "duration": 0.1,
      "midi": 62,
      "velocity": 72,
      "voice": "perc",
      "bar": 16
    },
    {
      "beat": 67.25,
      "duration": 0.22,
      "midi": 54,
      "velocity": 70,
      "voice": "arp",
      "bar": 16
    },
    {
      "beat": 67.5,
      "duration": 0.22,
      "midi": 57,
      "velocity": 70,
      "voice": "arp",
      "bar": 16
    },
    {
      "beat": 67.5,
      "duration": 0.45,
      "midi": 38,
      "velocity": 100,
      "voice": "bass",
      "bar": 16
    },
    {
      "beat": 67.5,
      "duration": 0.14,
      "midi": 46,
      "velocity": 74,
      "voice": "hat",
      "bar": 16
    },
    {
      "beat": 67.5,
      "duration": 0.1,
      "midi": 62,
      "velocity": 72,
      "voice": "perc",
      "bar": 16
    },
    {
      "beat": 67.75,
      "duration": 0.22,
      "midi": 62,
      "velocity": 70,
      "voice": "arp",
      "bar": 16
    },
    {
      "beat": 68.0,
      "duration": 0.22,
      "midi": 51,
      "velocity": 84,
      "voice": "arp",
      "bar": 17
    },
    {
      "beat": 68.0,
      "duration": 0.45,
      "midi": 39,
      "velocity": 108,
      "voice": "bass",
      "bar": 17
    },
    {
      "beat": 68,
      "duration": 0.07,
      "midi": 42,
      "velocity": 44,
      "voice": "hat",
      "bar": 17
    },
    {
      "beat": 68,
      "duration": 0.16,
      "midi": 36,
      "velocity": 124,
      "voice": "kick",
      "bar": 17
    },
    {
      "beat": 68,
      "duration": 1,
      "midi": 69,
      "velocity": 96,
      "voice": "oud",
      "bar": 17
    },
    {
      "beat": 68,
      "duration": 0.18,
      "midi": 64,
      "velocity": 96,
      "voice": "perc",
      "bar": 17
    },
    {
      "beat": 68.25,
      "duration": 0.22,
      "midi": 55,
      "velocity": 70,
      "voice": "arp",
      "bar": 17
    },
    {
      "beat": 68.5,
      "duration": 0.22,
      "midi": 58,
      "velocity": 70,
      "voice": "arp",
      "bar": 17
    },
    {
      "beat": 68.5,
      "duration": 0.45,
      "midi": 39,
      "velocity": 100,
      "voice": "bass",
      "bar": 17
    },
    {
      "beat": 68.5,
      "duration": 0.14,
      "midi": 46,
      "velocity": 74,
      "voice": "hat",
      "bar": 17
    },
    {
      "beat": 68.5,
      "duration": 0.1,
      "midi": 62,
      "velocity": 72,
      "voice": "perc",
      "bar": 17
    },
    {
      "beat": 68.75,
      "duration": 0.22,
      "midi": 63,
      "velocity": 70,
      "voice": "arp",
      "bar": 17
    },
    {
      "beat": 69.0,
      "duration": 0.22,
      "midi": 58,
      "velocity": 84,
      "voice": "arp",
      "bar": 17
    },
    {
      "beat": 69.0,
      "duration": 0.45,
      "midi": 51,
      "velocity": 100,
      "voice": "bass",
      "bar": 17
    },
    {
      "beat": 69,
      "duration": 0.07,
      "midi": 42,
      "velocity": 44,
      "voice": "hat",
      "bar": 17
    },
    {
      "beat": 69,
      "duration": 0.16,
      "midi": 36,
      "velocity": 116,
      "voice": "kick",
      "bar": 17
    },
    {
      "beat": 69,
      "duration": 0.5,
      "midi": 70,
      "velocity": 96,
      "voice": "oud",
      "bar": 17
    },
    {
      "beat": 69.25,
      "duration": 0.22,
      "midi": 55,
      "velocity": 70,
      "voice": "arp",
      "bar": 17
    },
    {
      "beat": 69.5,
      "duration": 0.22,
      "midi": 51,
      "velocity": 70,
      "voice": "arp",
      "bar": 17
    },
    {
      "beat": 69.5,
      "duration": 0.45,
      "midi": 39,
      "velocity": 100,
      "voice": "bass",
      "bar": 17
    },
    {
      "beat": 69.5,
      "duration": 0.14,
      "midi": 46,
      "velocity": 74,
      "voice": "hat",
      "bar": 17
    },
    {
      "beat": 69.5,
      "duration": 0.5,
      "midi": 69,
      "velocity": 96,
      "voice": "oud",
      "bar": 17
    },
    {
      "beat": 69.5,
      "duration": 0.1,
      "midi": 62,
      "velocity": 72,
      "voice": "perc",
      "bar": 17
    },
    {
      "beat": 69.75,
      "duration": 0.22,
      "midi": 55,
      "velocity": 70,
      "voice": "arp",
      "bar": 17
    },
    {
      "beat": 70.0,
      "duration": 0.22,
      "midi": 58,
      "velocity": 84,
      "voice": "arp",
      "bar": 17
    },
    {
      "beat": 70.0,
      "duration": 0.45,
      "midi": 39,
      "velocity": 100,
      "voice": "bass",
      "bar": 17
    },
    {
      "beat": 70,
      "duration": 0.07,
      "midi": 42,
      "velocity": 44,
      "voice": "hat",
      "bar": 17
    },
    {
      "beat": 70,
      "duration": 0.16,
      "midi": 36,
      "velocity": 116,
      "voice": "kick",
      "bar": 17
    },
    {
      "beat": 70,
      "duration": 0.5,
      "midi": 67,
      "velocity": 96,
      "voice": "oud",
      "bar": 17
    },
    {
      "beat": 70,
      "duration": 0.18,
      "midi": 64,
      "velocity": 96,
      "voice": "perc",
      "bar": 17
    },
    {
      "beat": 70.25,
      "duration": 0.22,
      "midi": 63,
      "velocity": 70,
      "voice": "arp",
      "bar": 17
    },
    {
      "beat": 70.5,
      "duration": 0.22,
      "midi": 58,
      "velocity": 70,
      "voice": "arp",
      "bar": 17
    },
    {
      "beat": 70.5,
      "duration": 0.45,
      "midi": 39,
      "velocity": 100,
      "voice": "bass",
      "bar": 17
    },
    {
      "beat": 70.5,
      "duration": 0.14,
      "midi": 46,
      "velocity": 74,
      "voice": "hat",
      "bar": 17
    },
    {
      "beat": 70.5,
      "duration": 0.5,
      "midi": 66,
      "velocity": 96,
      "voice": "oud",
      "bar": 17
    },
    {
      "beat": 70.75,
      "duration": 0.22,
      "midi": 55,
      "velocity": 70,
      "voice": "arp",
      "bar": 17
    },
    {
      "beat": 71.0,
      "duration": 0.22,
      "midi": 51,
      "velocity": 84,
      "voice": "arp",
      "bar": 17
    },
    {
      "beat": 71.0,
      "duration": 0.45,
      "midi": 51,
      "velocity": 100,
      "voice": "bass",
      "bar": 17
    },
    {
      "beat": 71,
      "duration": 0.07,
      "midi": 42,
      "velocity": 44,
      "voice": "hat",
      "bar": 17
    },
    {
      "beat": 71,
      "duration": 0.16,
      "midi": 36,
      "velocity": 116,
      "voice": "kick",
      "bar": 17
    },
    {
      "beat": 71,
      "duration": 1,
      "midi": 62,
      "velocity": 96,
      "voice": "oud",
      "bar": 17
    },
    {
      "beat": 71,
      "duration": 0.1,
      "midi": 62,
      "velocity": 72,
      "voice": "perc",
      "bar": 17
    },
    {
      "beat": 71.25,
      "duration": 0.22,
      "midi": 55,
      "velocity": 70,
      "voice": "arp",
      "bar": 17
    },
    {
      "beat": 71.5,
      "duration": 0.22,
      "midi": 58,
      "velocity": 70,
      "voice": "arp",
      "bar": 17
    },
    {
      "beat": 71.5,
      "duration": 0.45,
      "midi": 39,
      "velocity": 100,
      "voice": "bass",
      "bar": 17
    },
    {
      "beat": 71.5,
      "duration": 0.14,
      "midi": 46,
      "velocity": 74,
      "voice": "hat",
      "bar": 17
    },
    {
      "beat": 71.5,
      "duration": 0.1,
      "midi": 62,
      "velocity": 72,
      "voice": "perc",
      "bar": 17
    },
    {
      "beat": 71.75,
      "duration": 0.22,
      "midi": 63,
      "velocity": 70,
      "voice": "arp",
      "bar": 17
    },
    {
      "beat": 72.0,
      "duration": 0.22,
      "midi": 55,
      "velocity": 84,
      "voice": "arp",
      "bar": 18
    },
    {
      "beat": 72.0,
      "duration": 0.45,
      "midi": 43,
      "velocity": 108,
      "voice": "bass",
      "bar": 18
    },
    {
      "beat": 72,
      "duration": 0.07,
      "midi": 42,
      "velocity": 44,
      "voice": "hat",
      "bar": 18
    },
    {
      "beat": 72,
      "duration": 0.16,
      "midi": 36,
      "velocity": 124,
      "voice": "kick",
      "bar": 18
    },
    {
      "beat": 72,
      "duration": 0.18,
      "midi": 64,
      "velocity": 96,
      "voice": "perc",
      "bar": 18
    },
    {
      "beat": 72.25,
      "duration": 0.22,
      "midi": 58,
      "velocity": 70,
      "voice": "arp",
      "bar": 18
    },
    {
      "beat": 72.5,
      "duration": 0.22,
      "midi": 62,
      "velocity": 70,
      "voice": "arp",
      "bar": 18
    },
    {
      "beat": 72.5,
      "duration": 0.45,
      "midi": 43,
      "velocity": 100,
      "voice": "bass",
      "bar": 18
    },
    {
      "beat": 72.5,
      "duration": 0.14,
      "midi": 46,
      "velocity": 74,
      "voice": "hat",
      "bar": 18
    },
    {
      "beat": 72.5,
      "duration": 0.1,
      "midi": 62,
      "velocity": 72,
      "voice": "perc",
      "bar": 18
    },
    {
      "beat": 72.75,
      "duration": 0.22,
      "midi": 67,
      "velocity": 70,
      "voice": "arp",
      "bar": 18
    },
    {
      "beat": 73.0,
      "duration": 0.22,
      "midi": 62,
      "velocity": 84,
      "voice": "arp",
      "bar": 18
    },
    {
      "beat": 73.0,
      "duration": 0.45,
      "midi": 55,
      "velocity": 100,
      "voice": "bass",
      "bar": 18
    },
    {
      "beat": 73,
      "duration": 0.07,
      "midi": 42,
      "velocity": 44,
      "voice": "hat",
      "bar": 18
    },
    {
      "beat": 73,
      "duration": 0.16,
      "midi": 36,
      "velocity": 116,
      "voice": "kick",
      "bar": 18
    },
    {
      "beat": 73.25,
      "duration": 0.22,
      "midi": 58,
      "velocity": 70,
      "voice": "arp",
      "bar": 18
    },
    {
      "beat": 73.5,
      "duration": 0.22,
      "midi": 55,
      "velocity": 70,
      "voice": "arp",
      "bar": 18
    },
    {
      "beat": 73.5,
      "duration": 0.45,
      "midi": 43,
      "velocity": 100,
      "voice": "bass",
      "bar": 18
    },
    {
      "beat": 73.5,
      "duration": 0.14,
      "midi": 46,
      "velocity": 74,
      "voice": "hat",
      "bar": 18
    },
    {
      "beat": 73.5,
      "duration": 0.1,
      "midi": 62,
      "velocity": 72,
      "voice": "perc",
      "bar": 18
    },
    {
      "beat": 73.75,
      "duration": 0.22,
      "midi": 58,
      "velocity": 70,
      "voice": "arp",
      "bar": 18
    },
    {
      "beat": 74.0,
      "duration": 0.22,
      "midi": 62,
      "velocity": 84,
      "voice": "arp",
      "bar": 18
    },
    {
      "beat": 74.0,
      "duration": 0.45,
      "midi": 43,
      "velocity": 100,
      "voice": "bass",
      "bar": 18
    },
    {
      "beat": 74,
      "duration": 0.07,
      "midi": 42,
      "velocity": 44,
      "voice": "hat",
      "bar": 18
    },
    {
      "beat": 74,
      "duration": 0.16,
      "midi": 36,
      "velocity": 116,
      "voice": "kick",
      "bar": 18
    },
    {
      "beat": 74,
      "duration": 0.18,
      "midi": 64,
      "velocity": 96,
      "voice": "perc",
      "bar": 18
    },
    {
      "beat": 74.25,
      "duration": 0.22,
      "midi": 67,
      "velocity": 70,
      "voice": "arp",
      "bar": 18
    },
    {
      "beat": 74.5,
      "duration": 0.22,
      "midi": 62,
      "velocity": 70,
      "voice": "arp",
      "bar": 18
    },
    {
      "beat": 74.5,
      "duration": 0.45,
      "midi": 43,
      "velocity": 100,
      "voice": "bass",
      "bar": 18
    },
    {
      "beat": 74.5,
      "duration": 0.14,
      "midi": 46,
      "velocity": 74,
      "voice": "hat",
      "bar": 18
    },
    {
      "beat": 74.75,
      "duration": 0.22,
      "midi": 58,
      "velocity": 70,
      "voice": "arp",
      "bar": 18
    },
    {
      "beat": 75.0,
      "duration": 0.22,
      "midi": 55,
      "velocity": 84,
      "voice": "arp",
      "bar": 18
    },
    {
      "beat": 75.0,
      "duration": 0.45,
      "midi": 55,
      "velocity": 100,
      "voice": "bass",
      "bar": 18
    },
    {
      "beat": 75,
      "duration": 0.07,
      "midi": 42,
      "velocity": 44,
      "voice": "hat",
      "bar": 18
    },
    {
      "beat": 75,
      "duration": 0.16,
      "midi": 36,
      "velocity": 116,
      "voice": "kick",
      "bar": 18
    },
    {
      "beat": 75,
      "duration": 0.1,
      "midi": 62,
      "velocity": 72,
      "voice": "perc",
      "bar": 18
    },
    {
      "beat": 75.25,
      "duration": 0.22,
      "midi": 58,
      "velocity": 70,
      "voice": "arp",
      "bar": 18
    },
    {
      "beat": 75.5,
      "duration": 0.22,
      "midi": 62,
      "velocity": 70,
      "voice": "arp",
      "bar": 18
    },
    {
      "beat": 75.5,
      "duration": 0.45,
      "midi": 43,
      "velocity": 100,
      "voice": "bass",
      "bar": 18
    },
    {
      "beat": 75.5,
      "duration": 0.14,
      "midi": 46,
      "velocity": 74,
      "voice": "hat",
      "bar": 18
    },
    {
      "beat": 75.5,
      "duration": 0.1,
      "midi": 62,
      "velocity": 72,
      "voice": "perc",
      "bar": 18
    },
    {
      "beat": 75.75,
      "duration": 0.22,
      "midi": 67,
      "velocity": 70,
      "voice": "arp",
      "bar": 18
    },
    {
      "beat": 76.0,
      "duration": 0.22,
      "midi": 57,
      "velocity": 84,
      "voice": "arp",
      "bar": 19
    },
    {
      "beat": 76.0,
      "duration": 0.45,
      "midi": 45,
      "velocity": 108,
      "voice": "bass",
      "bar": 19
    },
    {
      "beat": 76,
      "duration": 0.07,
      "midi": 42,
      "velocity": 44,
      "voice": "hat",
      "bar": 19
    },
    {
      "beat": 76,
      "duration": 0.16,
      "midi": 36,
      "velocity": 124,
      "voice": "kick",
      "bar": 19
    },
    {
      "beat": 76,
      "duration": 1,
      "midi": 69,
      "velocity": 96,
      "voice": "oud",
      "bar": 19
    },
    {
      "beat": 76,
      "duration": 0.18,
      "midi": 64,
      "velocity": 96,
      "voice": "perc",
      "bar": 19
    },
    {
      "beat": 76.25,
      "duration": 0.22,
      "midi": 61,
      "velocity": 70,
      "voice": "arp",
      "bar": 19
    },
    {
      "beat": 76.5,
      "duration": 0.22,
      "midi": 64,
      "velocity": 70,
      "voice": "arp",
      "bar": 19
    },
    {
      "beat": 76.5,
      "duration": 0.45,
      "midi": 45,
      "velocity": 100,
      "voice": "bass",
      "bar": 19
    },
    {
      "beat": 76.5,
      "duration": 0.14,
      "midi": 46,
      "velocity": 74,
      "voice": "hat",
      "bar": 19
    },
    {
      "beat": 76.5,
      "duration": 0.1,
      "midi": 62,
      "velocity": 72,
      "voice": "perc",
      "bar": 19
    },
    {
      "beat": 76.75,
      "duration": 0.22,
      "midi": 69,
      "velocity": 70,
      "voice": "arp",
      "bar": 19
    },
    {
      "beat": 77.0,
      "duration": 0.22,
      "midi": 64,
      "velocity": 84,
      "voice": "arp",
      "bar": 19
    },
    {
      "beat": 77.0,
      "duration": 0.45,
      "midi": 57,
      "velocity": 100,
      "voice": "bass",
      "bar": 19
    },
    {
      "beat": 77,
      "duration": 0.07,
      "midi": 42,
      "velocity": 44,
      "voice": "hat",
      "bar": 19
    },
    {
      "beat": 77,
      "duration": 0.16,
      "midi": 36,
      "velocity": 116,
      "voice": "kick",
      "bar": 19
    },
    {
      "beat": 77,
      "duration": 0.5,
      "midi": 70,
      "velocity": 96,
      "voice": "oud",
      "bar": 19
    },
    {
      "beat": 77.25,
      "duration": 0.22,
      "midi": 61,
      "velocity": 70,
      "voice": "arp",
      "bar": 19
    },
    {
      "beat": 77.5,
      "duration": 0.22,
      "midi": 57,
      "velocity": 70,
      "voice": "arp",
      "bar": 19
    },
    {
      "beat": 77.5,
      "duration": 0.45,
      "midi": 45,
      "velocity": 100,
      "voice": "bass",
      "bar": 19
    },
    {
      "beat": 77.5,
      "duration": 0.14,
      "midi": 46,
      "velocity": 74,
      "voice": "hat",
      "bar": 19
    },
    {
      "beat": 77.5,
      "duration": 0.5,
      "midi": 69,
      "velocity": 96,
      "voice": "oud",
      "bar": 19
    },
    {
      "beat": 77.5,
      "duration": 0.1,
      "midi": 62,
      "velocity": 72,
      "voice": "perc",
      "bar": 19
    },
    {
      "beat": 77.75,
      "duration": 0.22,
      "midi": 61,
      "velocity": 70,
      "voice": "arp",
      "bar": 19
    },
    {
      "beat": 78.0,
      "duration": 0.22,
      "midi": 64,
      "velocity": 84,
      "voice": "arp",
      "bar": 19
    },
    {
      "beat": 78.0,
      "duration": 0.45,
      "midi": 45,
      "velocity": 100,
      "voice": "bass",
      "bar": 19
    },
    {
      "beat": 78,
      "duration": 0.07,
      "midi": 42,
      "velocity": 44,
      "voice": "hat",
      "bar": 19
    },
    {
      "beat": 78,
      "duration": 0.16,
      "midi": 36,
      "velocity": 116,
      "voice": "kick",
      "bar": 19
    },
    {
      "beat": 78,
      "duration": 0.5,
      "midi": 67,
      "velocity": 96,
      "voice": "oud",
      "bar": 19
    },
    {
      "beat": 78,
      "duration": 0.18,
      "midi": 64,
      "velocity": 96,
      "voice": "perc",
      "bar": 19
    },
    {
      "beat": 78.25,
      "duration": 0.22,
      "midi": 69,
      "velocity": 70,
      "voice": "arp",
      "bar": 19
    },
    {
      "beat": 78.5,
      "duration": 0.22,
      "midi": 64,
      "velocity": 70,
      "voice": "arp",
      "bar": 19
    },
    {
      "beat": 78.5,
      "duration": 0.45,
      "midi": 45,
      "velocity": 100,
      "voice": "bass",
      "bar": 19
    },
    {
      "beat": 78.5,
      "duration": 0.14,
      "midi": 46,
      "velocity": 74,
      "voice": "hat",
      "bar": 19
    },
    {
      "beat": 78.5,
      "duration": 0.5,
      "midi": 66,
      "velocity": 96,
      "voice": "oud",
      "bar": 19
    },
    {
      "beat": 78.75,
      "duration": 0.22,
      "midi": 61,
      "velocity": 70,
      "voice": "arp",
      "bar": 19
    },
    {
      "beat": 79.0,
      "duration": 0.22,
      "midi": 57,
      "velocity": 84,
      "voice": "arp",
      "bar": 19
    },
    {
      "beat": 79.0,
      "duration": 0.45,
      "midi": 57,
      "velocity": 100,
      "voice": "bass",
      "bar": 19
    },
    {
      "beat": 79,
      "duration": 0.07,
      "midi": 42,
      "velocity": 44,
      "voice": "hat",
      "bar": 19
    },
    {
      "beat": 79,
      "duration": 0.16,
      "midi": 36,
      "velocity": 116,
      "voice": "kick",
      "bar": 19
    },
    {
      "beat": 79,
      "duration": 1,
      "midi": 62,
      "velocity": 96,
      "voice": "oud",
      "bar": 19
    },
    {
      "beat": 79,
      "duration": 0.1,
      "midi": 62,
      "velocity": 72,
      "voice": "perc",
      "bar": 19
    },
    {
      "beat": 79.25,
      "duration": 0.22,
      "midi": 61,
      "velocity": 70,
      "voice": "arp",
      "bar": 19
    },
    {
      "beat": 79.5,
      "duration": 0.22,
      "midi": 64,
      "velocity": 70,
      "voice": "arp",
      "bar": 19
    },
    {
      "beat": 79.5,
      "duration": 0.45,
      "midi": 45,
      "velocity": 100,
      "voice": "bass",
      "bar": 19
    },
    {
      "beat": 79.5,
      "duration": 0.14,
      "midi": 46,
      "velocity": 74,
      "voice": "hat",
      "bar": 19
    },
    {
      "beat": 79.5,
      "duration": 0.1,
      "midi": 62,
      "velocity": 72,
      "voice": "perc",
      "bar": 19
    },
    {
      "beat": 79.75,
      "duration": 0.22,
      "midi": 69,
      "velocity": 70,
      "voice": "arp",
      "bar": 19
    },
    {
      "beat": 80.0,
      "duration": 0.22,
      "midi": 50,
      "velocity": 84,
      "voice": "arp",
      "bar": 20
    },
    {
      "beat": 80.0,
      "duration": 0.45,
      "midi": 38,
      "velocity": 108,
      "voice": "bass",
      "bar": 20
    },
    {
      "beat": 80,
      "duration": 0.07,
      "midi": 42,
      "velocity": 44,
      "voice": "hat",
      "bar": 20
    },
    {
      "beat": 80,
      "duration": 0.16,
      "midi": 36,
      "velocity": 124,
      "voice": "kick",
      "bar": 20
    },
    {
      "beat": 80,
      "duration": 0.18,
      "midi": 64,
      "velocity": 96,
      "voice": "perc",
      "bar": 20
    },
    {
      "beat": 80.25,
      "duration": 0.22,
      "midi": 54,
      "velocity": 70,
      "voice": "arp",
      "bar": 20
    },
    {
      "beat": 80.5,
      "duration": 0.22,
      "midi": 57,
      "velocity": 70,
      "voice": "arp",
      "bar": 20
    },
    {
      "beat": 80.5,
      "duration": 0.45,
      "midi": 38,
      "velocity": 100,
      "voice": "bass",
      "bar": 20
    },
    {
      "beat": 80.5,
      "duration": 0.14,
      "midi": 46,
      "velocity": 74,
      "voice": "hat",
      "bar": 20
    },
    {
      "beat": 80.5,
      "duration": 0.1,
      "midi": 62,
      "velocity": 72,
      "voice": "perc",
      "bar": 20
    },
    {
      "beat": 80.75,
      "duration": 0.22,
      "midi": 62,
      "velocity": 70,
      "voice": "arp",
      "bar": 20
    },
    {
      "beat": 81.0,
      "duration": 0.22,
      "midi": 57,
      "velocity": 84,
      "voice": "arp",
      "bar": 20
    },
    {
      "beat": 81.0,
      "duration": 0.45,
      "midi": 50,
      "velocity": 100,
      "voice": "bass",
      "bar": 20
    },
    {
      "beat": 81,
      "duration": 0.07,
      "midi": 42,
      "velocity": 44,
      "voice": "hat",
      "bar": 20
    },
    {
      "beat": 81,
      "duration": 0.16,
      "midi": 36,
      "velocity": 116,
      "voice": "kick",
      "bar": 20
    },
    {
      "beat": 81.25,
      "duration": 0.22,
      "midi": 54,
      "velocity": 70,
      "voice": "arp",
      "bar": 20
    },
    {
      "beat": 81.5,
      "duration": 0.22,
      "midi": 50,
      "velocity": 70,
      "voice": "arp",
      "bar": 20
    },
    {
      "beat": 81.5,
      "duration": 0.45,
      "midi": 38,
      "velocity": 100,
      "voice": "bass",
      "bar": 20
    },
    {
      "beat": 81.5,
      "duration": 0.14,
      "midi": 46,
      "velocity": 74,
      "voice": "hat",
      "bar": 20
    },
    {
      "beat": 81.5,
      "duration": 0.1,
      "midi": 62,
      "velocity": 72,
      "voice": "perc",
      "bar": 20
    },
    {
      "beat": 81.75,
      "duration": 0.22,
      "midi": 54,
      "velocity": 70,
      "voice": "arp",
      "bar": 20
    },
    {
      "beat": 82.0,
      "duration": 0.22,
      "midi": 57,
      "velocity": 84,
      "voice": "arp",
      "bar": 20
    },
    {
      "beat": 82.0,
      "duration": 0.45,
      "midi": 38,
      "velocity": 100,
      "voice": "bass",
      "bar": 20
    },
    {
      "beat": 82,
      "duration": 0.07,
      "midi": 42,
      "velocity": 44,
      "voice": "hat",
      "bar": 20
    },
    {
      "beat": 82,
      "duration": 0.16,
      "midi": 36,
      "velocity": 116,
      "voice": "kick",
      "bar": 20
    },
    {
      "beat": 82,
      "duration": 0.18,
      "midi": 64,
      "velocity": 96,
      "voice": "perc",
      "bar": 20
    },
    {
      "beat": 82.25,
      "duration": 0.22,
      "midi": 62,
      "velocity": 70,
      "voice": "arp",
      "bar": 20
    },
    {
      "beat": 82.5,
      "duration": 0.22,
      "midi": 57,
      "velocity": 70,
      "voice": "arp",
      "bar": 20
    },
    {
      "beat": 82.5,
      "duration": 0.45,
      "midi": 38,
      "velocity": 100,
      "voice": "bass",
      "bar": 20
    },
    {
      "beat": 82.5,
      "duration": 0.14,
      "midi": 46,
      "velocity": 74,
      "voice": "hat",
      "bar": 20
    },
    {
      "beat": 82.75,
      "duration": 0.22,
      "midi": 54,
      "velocity": 70,
      "voice": "arp",
      "bar": 20
    },
    {
      "beat": 83.0,
      "duration": 0.22,
      "midi": 50,
      "velocity": 84,
      "voice": "arp",
      "bar": 20
    },
    {
      "beat": 83.0,
      "duration": 0.45,
      "midi": 50,
      "velocity": 100,
      "voice": "bass",
      "bar": 20
    },
    {
      "beat": 83,
      "duration": 0.07,
      "midi": 42,
      "velocity": 44,
      "voice": "hat",
      "bar": 20
    },
    {
      "beat": 83,
      "duration": 0.16,
      "midi": 36,
      "velocity": 116,
      "voice": "kick",
      "bar": 20
    },
    {
      "beat": 83,
      "duration": 0.1,
      "midi": 62,
      "velocity": 72,
      "voice": "perc",
      "bar": 20
    },
    {
      "beat": 83.25,
      "duration": 0.22,
      "midi": 54,
      "velocity": 70,
      "voice": "arp",
      "bar": 20
    },
    {
      "beat": 83.5,
      "duration": 0.22,
      "midi": 57,
      "velocity": 70,
      "voice": "arp",
      "bar": 20
    },
    {
      "beat": 83.5,
      "duration": 0.45,
      "midi": 38,
      "velocity": 100,
      "voice": "bass",
      "bar": 20
    },
    {
      "beat": 83.5,
      "duration": 0.14,
      "midi": 46,
      "velocity": 74,
      "voice": "hat",
      "bar": 20
    },
    {
      "beat": 83.5,
      "duration": 0.1,
      "midi": 62,
      "velocity": 72,
      "voice": "perc",
      "bar": 20
    },
    {
      "beat": 83.75,
      "duration": 0.22,
      "midi": 62,
      "velocity": 70,
      "voice": "arp",
      "bar": 20
    },
    {
      "beat": 84.0,
      "duration": 0.22,
      "midi": 51,
      "velocity": 84,
      "voice": "arp",
      "bar": 21
    },
    {
      "beat": 84.0,
      "duration": 0.45,
      "midi": 39,
      "velocity": 108,
      "voice": "bass",
      "bar": 21
    },
    {
      "beat": 84,
      "duration": 0.07,
      "midi": 42,
      "velocity": 44,
      "voice": "hat",
      "bar": 21
    },
    {
      "beat": 84,
      "duration": 0.16,
      "midi": 36,
      "velocity": 124,
      "voice": "kick",
      "bar": 21
    },
    {
      "beat": 84,
      "duration": 1,
      "midi": 69,
      "velocity": 96,
      "voice": "oud",
      "bar": 21
    },
    {
      "beat": 84,
      "duration": 0.18,
      "midi": 64,
      "velocity": 96,
      "voice": "perc",
      "bar": 21
    },
    {
      "beat": 84.25,
      "duration": 0.22,
      "midi": 55,
      "velocity": 70,
      "voice": "arp",
      "bar": 21
    },
    {
      "beat": 84.5,
      "duration": 0.22,
      "midi": 58,
      "velocity": 70,
      "voice": "arp",
      "bar": 21
    },
    {
      "beat": 84.5,
      "duration": 0.45,
      "midi": 39,
      "velocity": 100,
      "voice": "bass",
      "bar": 21
    },
    {
      "beat": 84.5,
      "duration": 0.14,
      "midi": 46,
      "velocity": 74,
      "voice": "hat",
      "bar": 21
    },
    {
      "beat": 84.5,
      "duration": 0.1,
      "midi": 62,
      "velocity": 72,
      "voice": "perc",
      "bar": 21
    },
    {
      "beat": 84.75,
      "duration": 0.22,
      "midi": 63,
      "velocity": 70,
      "voice": "arp",
      "bar": 21
    },
    {
      "beat": 85.0,
      "duration": 0.22,
      "midi": 58,
      "velocity": 84,
      "voice": "arp",
      "bar": 21
    },
    {
      "beat": 85.0,
      "duration": 0.45,
      "midi": 51,
      "velocity": 100,
      "voice": "bass",
      "bar": 21
    },
    {
      "beat": 85,
      "duration": 0.07,
      "midi": 42,
      "velocity": 44,
      "voice": "hat",
      "bar": 21
    },
    {
      "beat": 85,
      "duration": 0.16,
      "midi": 36,
      "velocity": 116,
      "voice": "kick",
      "bar": 21
    },
    {
      "beat": 85,
      "duration": 0.5,
      "midi": 70,
      "velocity": 96,
      "voice": "oud",
      "bar": 21
    },
    {
      "beat": 85.25,
      "duration": 0.22,
      "midi": 55,
      "velocity": 70,
      "voice": "arp",
      "bar": 21
    },
    {
      "beat": 85.5,
      "duration": 0.22,
      "midi": 51,
      "velocity": 70,
      "voice": "arp",
      "bar": 21
    },
    {
      "beat": 85.5,
      "duration": 0.45,
      "midi": 39,
      "velocity": 100,
      "voice": "bass",
      "bar": 21
    },
    {
      "beat": 85.5,
      "duration": 0.14,
      "midi": 46,
      "velocity": 74,
      "voice": "hat",
      "bar": 21
    },
    {
      "beat": 85.5,
      "duration": 0.5,
      "midi": 69,
      "velocity": 96,
      "voice": "oud",
      "bar": 21
    },
    {
      "beat": 85.5,
      "duration": 0.1,
      "midi": 62,
      "velocity": 72,
      "voice": "perc",
      "bar": 21
    },
    {
      "beat": 85.75,
      "duration": 0.22,
      "midi": 55,
      "velocity": 70,
      "voice": "arp",
      "bar": 21
    },
    {
      "beat": 86.0,
      "duration": 0.22,
      "midi": 58,
      "velocity": 84,
      "voice": "arp",
      "bar": 21
    },
    {
      "beat": 86.0,
      "duration": 0.45,
      "midi": 39,
      "velocity": 100,
      "voice": "bass",
      "bar": 21
    },
    {
      "beat": 86,
      "duration": 0.07,
      "midi": 42,
      "velocity": 44,
      "voice": "hat",
      "bar": 21
    },
    {
      "beat": 86,
      "duration": 0.16,
      "midi": 36,
      "velocity": 116,
      "voice": "kick",
      "bar": 21
    },
    {
      "beat": 86,
      "duration": 0.5,
      "midi": 67,
      "velocity": 96,
      "voice": "oud",
      "bar": 21
    },
    {
      "beat": 86,
      "duration": 0.18,
      "midi": 64,
      "velocity": 96,
      "voice": "perc",
      "bar": 21
    },
    {
      "beat": 86.25,
      "duration": 0.22,
      "midi": 63,
      "velocity": 70,
      "voice": "arp",
      "bar": 21
    },
    {
      "beat": 86.5,
      "duration": 0.22,
      "midi": 58,
      "velocity": 70,
      "voice": "arp",
      "bar": 21
    },
    {
      "beat": 86.5,
      "duration": 0.45,
      "midi": 39,
      "velocity": 100,
      "voice": "bass",
      "bar": 21
    },
    {
      "beat": 86.5,
      "duration": 0.14,
      "midi": 46,
      "velocity": 74,
      "voice": "hat",
      "bar": 21
    },
    {
      "beat": 86.5,
      "duration": 0.5,
      "midi": 66,
      "velocity": 96,
      "voice": "oud",
      "bar": 21
    },
    {
      "beat": 86.75,
      "duration": 0.22,
      "midi": 55,
      "velocity": 70,
      "voice": "arp",
      "bar": 21
    },
    {
      "beat": 87.0,
      "duration": 0.22,
      "midi": 51,
      "velocity": 84,
      "voice": "arp",
      "bar": 21
    },
    {
      "beat": 87.0,
      "duration": 0.45,
      "midi": 51,
      "velocity": 100,
      "voice": "bass",
      "bar": 21
    },
    {
      "beat": 87,
      "duration": 0.07,
      "midi": 42,
      "velocity": 44,
      "voice": "hat",
      "bar": 21
    },
    {
      "beat": 87,
      "duration": 0.16,
      "midi": 36,
      "velocity": 116,
      "voice": "kick",
      "bar": 21
    },
    {
      "beat": 87,
      "duration": 1,
      "midi": 62,
      "velocity": 96,
      "voice": "oud",
      "bar": 21
    },
    {
      "beat": 87,
      "duration": 0.1,
      "midi": 62,
      "velocity": 72,
      "voice": "perc",
      "bar": 21
    },
    {
      "beat": 87.25,
      "duration": 0.22,
      "midi": 55,
      "velocity": 70,
      "voice": "arp",
      "bar": 21
    },
    {
      "beat": 87.5,
      "duration": 0.22,
      "midi": 58,
      "velocity": 70,
      "voice": "arp",
      "bar": 21
    },
    {
      "beat": 87.5,
      "duration": 0.45,
      "midi": 39,
      "velocity": 100,
      "voice": "bass",
      "bar": 21
    },
    {
      "beat": 87.5,
      "duration": 0.14,
      "midi": 46,
      "velocity": 74,
      "voice": "hat",
      "bar": 21
    },
    {
      "beat": 87.5,
      "duration": 0.1,
      "midi": 62,
      "velocity": 72,
      "voice": "perc",
      "bar": 21
    },
    {
      "beat": 87.75,
      "duration": 0.22,
      "midi": 63,
      "velocity": 70,
      "voice": "arp",
      "bar": 21
    },
    {
      "beat": 88.0,
      "duration": 0.22,
      "midi": 55,
      "velocity": 84,
      "voice": "arp",
      "bar": 22
    },
    {
      "beat": 88.0,
      "duration": 0.45,
      "midi": 43,
      "velocity": 108,
      "voice": "bass",
      "bar": 22
    },
    {
      "beat": 88,
      "duration": 0.07,
      "midi": 42,
      "velocity": 44,
      "voice": "hat",
      "bar": 22
    },
    {
      "beat": 88,
      "duration": 0.16,
      "midi": 36,
      "velocity": 124,
      "voice": "kick",
      "bar": 22
    },
    {
      "beat": 88,
      "duration": 0.18,
      "midi": 64,
      "velocity": 96,
      "voice": "perc",
      "bar": 22
    },
    {
      "beat": 88.25,
      "duration": 0.22,
      "midi": 58,
      "velocity": 70,
      "voice": "arp",
      "bar": 22
    },
    {
      "beat": 88.5,
      "duration": 0.22,
      "midi": 62,
      "velocity": 70,
      "voice": "arp",
      "bar": 22
    },
    {
      "beat": 88.5,
      "duration": 0.45,
      "midi": 43,
      "velocity": 100,
      "voice": "bass",
      "bar": 22
    },
    {
      "beat": 88.5,
      "duration": 0.14,
      "midi": 46,
      "velocity": 74,
      "voice": "hat",
      "bar": 22
    },
    {
      "beat": 88.5,
      "duration": 0.1,
      "midi": 62,
      "velocity": 72,
      "voice": "perc",
      "bar": 22
    },
    {
      "beat": 88.75,
      "duration": 0.22,
      "midi": 67,
      "velocity": 70,
      "voice": "arp",
      "bar": 22
    },
    {
      "beat": 89.0,
      "duration": 0.22,
      "midi": 62,
      "velocity": 84,
      "voice": "arp",
      "bar": 22
    },
    {
      "beat": 89.0,
      "duration": 0.45,
      "midi": 55,
      "velocity": 100,
      "voice": "bass",
      "bar": 22
    },
    {
      "beat": 89,
      "duration": 0.07,
      "midi": 42,
      "velocity": 44,
      "voice": "hat",
      "bar": 22
    },
    {
      "beat": 89,
      "duration": 0.16,
      "midi": 36,
      "velocity": 116,
      "voice": "kick",
      "bar": 22
    },
    {
      "beat": 89.25,
      "duration": 0.22,
      "midi": 58,
      "velocity": 70,
      "voice": "arp",
      "bar": 22
    },
    {
      "beat": 89.5,
      "duration": 0.22,
      "midi": 55,
      "velocity": 70,
      "voice": "arp",
      "bar": 22
    },
    {
      "beat": 89.5,
      "duration": 0.45,
      "midi": 43,
      "velocity": 100,
      "voice": "bass",
      "bar": 22
    },
    {
      "beat": 89.5,
      "duration": 0.14,
      "midi": 46,
      "velocity": 74,
      "voice": "hat",
      "bar": 22
    },
    {
      "beat": 89.5,
      "duration": 0.1,
      "midi": 62,
      "velocity": 72,
      "voice": "perc",
      "bar": 22
    },
    {
      "beat": 89.75,
      "duration": 0.22,
      "midi": 58,
      "velocity": 70,
      "voice": "arp",
      "bar": 22
    },
    {
      "beat": 90.0,
      "duration": 0.22,
      "midi": 62,
      "velocity": 84,
      "voice": "arp",
      "bar": 22
    },
    {
      "beat": 90.0,
      "duration": 0.45,
      "midi": 43,
      "velocity": 100,
      "voice": "bass",
      "bar": 22
    },
    {
      "beat": 90,
      "duration": 0.07,
      "midi": 42,
      "velocity": 44,
      "voice": "hat",
      "bar": 22
    },
    {
      "beat": 90,
      "duration": 0.16,
      "midi": 36,
      "velocity": 116,
      "voice": "kick",
      "bar": 22
    },
    {
      "beat": 90,
      "duration": 0.18,
      "midi": 64,
      "velocity": 96,
      "voice": "perc",
      "bar": 22
    },
    {
      "beat": 90.25,
      "duration": 0.22,
      "midi": 67,
      "velocity": 70,
      "voice": "arp",
      "bar": 22
    },
    {
      "beat": 90.5,
      "duration": 0.22,
      "midi": 62,
      "velocity": 70,
      "voice": "arp",
      "bar": 22
    },
    {
      "beat": 90.5,
      "duration": 0.45,
      "midi": 43,
      "velocity": 100,
      "voice": "bass",
      "bar": 22
    },
    {
      "beat": 90.5,
      "duration": 0.14,
      "midi": 46,
      "velocity": 74,
      "voice": "hat",
      "bar": 22
    },
    {
      "beat": 90.75,
      "duration": 0.22,
      "midi": 58,
      "velocity": 70,
      "voice": "arp",
      "bar": 22
    },
    {
      "beat": 91.0,
      "duration": 0.22,
      "midi": 55,
      "velocity": 84,
      "voice": "arp",
      "bar": 22
    },
    {
      "beat": 91.0,
      "duration": 0.45,
      "midi": 55,
      "velocity": 100,
      "voice": "bass",
      "bar": 22
    },
    {
      "beat": 91,
      "duration": 0.07,
      "midi": 42,
      "velocity": 44,
      "voice": "hat",
      "bar": 22
    },
    {
      "beat": 91,
      "duration": 0.16,
      "midi": 36,
      "velocity": 116,
      "voice": "kick",
      "bar": 22
    },
    {
      "beat": 91,
      "duration": 0.1,
      "midi": 62,
      "velocity": 72,
      "voice": "perc",
      "bar": 22
    },
    {
      "beat": 91.25,
      "duration": 0.22,
      "midi": 58,
      "velocity": 70,
      "voice": "arp",
      "bar": 22
    },
    {
      "beat": 91.5,
      "duration": 0.22,
      "midi": 62,
      "velocity": 70,
      "voice": "arp",
      "bar": 22
    },
    {
      "beat": 91.5,
      "duration": 0.45,
      "midi": 43,
      "velocity": 100,
      "voice": "bass",
      "bar": 22
    },
    {
      "beat": 91.5,
      "duration": 0.14,
      "midi": 46,
      "velocity": 74,
      "voice": "hat",
      "bar": 22
    },
    {
      "beat": 91.5,
      "duration": 0.1,
      "midi": 62,
      "velocity": 72,
      "voice": "perc",
      "bar": 22
    },
    {
      "beat": 91.75,
      "duration": 0.22,
      "midi": 67,
      "velocity": 70,
      "voice": "arp",
      "bar": 22
    },
    {
      "beat": 92.0,
      "duration": 0.22,
      "midi": 57,
      "velocity": 84,
      "voice": "arp",
      "bar": 23
    },
    {
      "beat": 92.0,
      "duration": 0.45,
      "midi": 45,
      "velocity": 108,
      "voice": "bass",
      "bar": 23
    },
    {
      "beat": 92,
      "duration": 0.07,
      "midi": 42,
      "velocity": 44,
      "voice": "hat",
      "bar": 23
    },
    {
      "beat": 92,
      "duration": 0.16,
      "midi": 36,
      "velocity": 124,
      "voice": "kick",
      "bar": 23
    },
    {
      "beat": 92,
      "duration": 1,
      "midi": 69,
      "velocity": 96,
      "voice": "oud",
      "bar": 23
    },
    {
      "beat": 92,
      "duration": 0.18,
      "midi": 64,
      "velocity": 96,
      "voice": "perc",
      "bar": 23
    },
    {
      "beat": 92.25,
      "duration": 0.22,
      "midi": 61,
      "velocity": 70,
      "voice": "arp",
      "bar": 23
    },
    {
      "beat": 92.5,
      "duration": 0.22,
      "midi": 64,
      "velocity": 70,
      "voice": "arp",
      "bar": 23
    },
    {
      "beat": 92.5,
      "duration": 0.45,
      "midi": 45,
      "velocity": 100,
      "voice": "bass",
      "bar": 23
    },
    {
      "beat": 92.5,
      "duration": 0.14,
      "midi": 46,
      "velocity": 74,
      "voice": "hat",
      "bar": 23
    },
    {
      "beat": 92.5,
      "duration": 0.1,
      "midi": 62,
      "velocity": 72,
      "voice": "perc",
      "bar": 23
    },
    {
      "beat": 92.75,
      "duration": 0.22,
      "midi": 69,
      "velocity": 70,
      "voice": "arp",
      "bar": 23
    },
    {
      "beat": 93.0,
      "duration": 0.22,
      "midi": 64,
      "velocity": 84,
      "voice": "arp",
      "bar": 23
    },
    {
      "beat": 93.0,
      "duration": 0.45,
      "midi": 57,
      "velocity": 100,
      "voice": "bass",
      "bar": 23
    },
    {
      "beat": 93,
      "duration": 0.07,
      "midi": 42,
      "velocity": 44,
      "voice": "hat",
      "bar": 23
    },
    {
      "beat": 93,
      "duration": 0.16,
      "midi": 36,
      "velocity": 116,
      "voice": "kick",
      "bar": 23
    },
    {
      "beat": 93,
      "duration": 0.5,
      "midi": 70,
      "velocity": 96,
      "voice": "oud",
      "bar": 23
    },
    {
      "beat": 93.25,
      "duration": 0.22,
      "midi": 61,
      "velocity": 70,
      "voice": "arp",
      "bar": 23
    },
    {
      "beat": 93.5,
      "duration": 0.22,
      "midi": 57,
      "velocity": 70,
      "voice": "arp",
      "bar": 23
    },
    {
      "beat": 93.5,
      "duration": 0.45,
      "midi": 45,
      "velocity": 100,
      "voice": "bass",
      "bar": 23
    },
    {
      "beat": 93.5,
      "duration": 0.14,
      "midi": 46,
      "velocity": 74,
      "voice": "hat",
      "bar": 23
    },
    {
      "beat": 93.5,
      "duration": 0.5,
      "midi": 69,
      "velocity": 96,
      "voice": "oud",
      "bar": 23
    },
    {
      "beat": 93.5,
      "duration": 0.1,
      "midi": 62,
      "velocity": 72,
      "voice": "perc",
      "bar": 23
    },
    {
      "beat": 93.75,
      "duration": 0.22,
      "midi": 61,
      "velocity": 70,
      "voice": "arp",
      "bar": 23
    },
    {
      "beat": 94.0,
      "duration": 0.22,
      "midi": 64,
      "velocity": 84,
      "voice": "arp",
      "bar": 23
    },
    {
      "beat": 94.0,
      "duration": 0.45,
      "midi": 45,
      "velocity": 100,
      "voice": "bass",
      "bar": 23
    },
    {
      "beat": 94,
      "duration": 0.07,
      "midi": 42,
      "velocity": 44,
      "voice": "hat",
      "bar": 23
    },
    {
      "beat": 94,
      "duration": 0.16,
      "midi": 36,
      "velocity": 116,
      "voice": "kick",
      "bar": 23
    },
    {
      "beat": 94,
      "duration": 0.5,
      "midi": 67,
      "velocity": 96,
      "voice": "oud",
      "bar": 23
    },
    {
      "beat": 94,
      "duration": 0.18,
      "midi": 64,
      "velocity": 96,
      "voice": "perc",
      "bar": 23
    },
    {
      "beat": 94.25,
      "duration": 0.22,
      "midi": 69,
      "velocity": 70,
      "voice": "arp",
      "bar": 23
    },
    {
      "beat": 94.5,
      "duration": 0.22,
      "midi": 64,
      "velocity": 70,
      "voice": "arp",
      "bar": 23
    },
    {
      "beat": 94.5,
      "duration": 0.45,
      "midi": 45,
      "velocity": 100,
      "voice": "bass",
      "bar": 23
    },
    {
      "beat": 94.5,
      "duration": 0.14,
      "midi": 46,
      "velocity": 74,
      "voice": "hat",
      "bar": 23
    },
    {
      "beat": 94.5,
      "duration": 0.5,
      "midi": 66,
      "velocity": 96,
      "voice": "oud",
      "bar": 23
    },
    {
      "beat": 94.75,
      "duration": 0.22,
      "midi": 61,
      "velocity": 70,
      "voice": "arp",
      "bar": 23
    },
    {
      "beat": 95.0,
      "duration": 0.22,
      "midi": 57,
      "velocity": 84,
      "voice": "arp",
      "bar": 23
    },
    {
      "beat": 95.0,
      "duration": 0.45,
      "midi": 57,
      "velocity": 100,
      "voice": "bass",
      "bar": 23
    },
    {
      "beat": 95,
      "duration": 0.07,
      "midi": 42,
      "velocity": 44,
      "voice": "hat",
      "bar": 23
    },
    {
      "beat": 95,
      "duration": 0.16,
      "midi": 36,
      "velocity": 116,
      "voice": "kick",
      "bar": 23
    },
    {
      "beat": 95,
      "duration": 1,
      "midi": 62,
      "velocity": 96,
      "voice": "oud",
      "bar": 23
    },
    {
      "beat": 95,
      "duration": 0.1,
      "midi": 62,
      "velocity": 72,
      "voice": "perc",
      "bar": 23
    },
    {
      "beat": 95.25,
      "duration": 0.22,
      "midi": 61,
      "velocity": 70,
      "voice": "arp",
      "bar": 23
    },
    {
      "beat": 95.5,
      "duration": 0.22,
      "midi": 64,
      "velocity": 70,
      "voice": "arp",
      "bar": 23
    },
    {
      "beat": 95.5,
      "duration": 0.45,
      "midi": 45,
      "velocity": 100,
      "voice": "bass",
      "bar": 23
    },
    {
      "beat": 95.5,
      "duration": 0.14,
      "midi": 46,
      "velocity": 74,
      "voice": "hat",
      "bar": 23
    },
    {
      "beat": 95.5,
      "duration": 0.1,
      "midi": 62,
      "velocity": 72,
      "voice": "perc",
      "bar": 23
    },
    {
      "beat": 95.75,
      "duration": 0.22,
      "midi": 69,
      "velocity": 70,
      "voice": "arp",
      "bar": 23
    },
    {
      "beat": 96.0,
      "duration": 0.24,
      "midi": 50,
      "velocity": 120,
      "voice": "acid",
      "bar": 24,
      "slide": false
    },
    {
      "beat": 96.0,
      "duration": 0.22,
      "midi": 50,
      "velocity": 84,
      "voice": "arp",
      "bar": 24
    },
    {
      "beat": 96.0,
      "duration": 0.45,
      "midi": 38,
      "velocity": 108,
      "voice": "bass",
      "bar": 24
    },
    {
      "beat": 96,
      "duration": 0.07,
      "midi": 42,
      "velocity": 44,
      "voice": "hat",
      "bar": 24
    },
    {
      "beat": 96,
      "duration": 0.16,
      "midi": 36,
      "velocity": 124,
      "voice": "kick",
      "bar": 24
    },
    {
      "beat": 96,
      "duration": 1,
      "midi": 74,
      "velocity": 112,
      "voice": "lead",
      "bar": 24
    },
    {
      "beat": 96,
      "duration": 4,
      "midi": 50,
      "velocity": 58,
      "voice": "pad",
      "bar": 24
    },
    {
      "beat": 96,
      "duration": 4,
      "midi": 54,
      "velocity": 58,
      "voice": "pad",
      "bar": 24
    },
    {
      "beat": 96,
      "duration": 4,
      "midi": 57,
      "velocity": 58,
      "voice": "pad",
      "bar": 24
    },
    {
      "beat": 96,
      "duration": 4,
      "midi": 62,
      "velocity": 58,
      "voice": "pad",
      "bar": 24
    },
    {
      "beat": 96,
      "duration": 0.18,
      "midi": 64,
      "velocity": 96,
      "voice": "perc",
      "bar": 24
    },
    {
      "beat": 96.25,
      "duration": 0.22,
      "midi": 54,
      "velocity": 70,
      "voice": "arp",
      "bar": 24
    },
    {
      "beat": 96.25,
      "duration": 0.05,
      "midi": 42,
      "velocity": 34,
      "voice": "hat",
      "bar": 24
    },
    {
      "beat": 96.5,
      "duration": 0.24,
      "midi": 62,
      "velocity": 80,
      "voice": "acid",
      "bar": 24,
      "slide": true
    },
    {
      "beat": 96.5,
      "duration": 0.22,
      "midi": 57,
      "velocity": 70,
      "voice": "arp",
      "bar": 24
    },
    {
      "beat": 96.5,
      "duration": 0.45,
      "midi": 38,
      "velocity": 100,
      "voice": "bass",
      "bar": 24
    },
    {
      "beat": 96.5,
      "duration": 0.14,
      "midi": 46,
      "velocity": 74,
      "voice": "hat",
      "bar": 24
    },
    {
      "beat": 96.5,
      "duration": 0.1,
      "midi": 62,
      "velocity": 72,
      "voice": "perc",
      "bar": 24
    },
    {
      "beat": 96.5,
      "duration": 0.22,
      "midi": 62,
      "velocity": 92,
      "voice": "stab",
      "bar": 24
    },
    {
      "beat": 96.5,
      "duration": 0.22,
      "midi": 66,
      "velocity": 92,
      "voice": "stab",
      "bar": 24
    },
    {
      "beat": 96.5,
      "duration": 0.22,
      "midi": 69,
      "velocity": 92,
      "voice": "stab",
      "bar": 24
    },
    {
      "beat": 96.75,
      "duration": 0.24,
      "midi": 50,
      "velocity": 80,
      "voice": "acid",
      "bar": 24,
      "slide": false
    },
    {
      "beat": 96.75,
      "duration": 0.22,
      "midi": 62,
      "velocity": 70,
      "voice": "arp",
      "bar": 24
    },
    {
      "beat": 96.75,
      "duration": 0.05,
      "midi": 42,
      "velocity": 34,
      "voice": "hat",
      "bar": 24
    },
    {
      "beat": 97.0,
      "duration": 0.24,
      "midi": 51,
      "velocity": 120,
      "voice": "acid",
      "bar": 24,
      "slide": false
    },
    {
      "beat": 97.0,
      "duration": 0.22,
      "midi": 57,
      "velocity": 84,
      "voice": "arp",
      "bar": 24
    },
    {
      "beat": 97.0,
      "duration": 0.45,
      "midi": 50,
      "velocity": 100,
      "voice": "bass",
      "bar": 24
    },
    {
      "beat": 97,
      "duration": 0.2,
      "midi": 39,
      "velocity": 104,
      "voice": "clap",
      "bar": 24
    },
    {
      "beat": 97,
      "duration": 0.07,
      "midi": 42,
      "velocity": 44,
      "voice": "hat",
      "bar": 24
    },
    {
      "beat": 97,
      "duration": 0.16,
      "midi": 36,
      "velocity": 116,
      "voice": "kick",
      "bar": 24
    },
    {
      "beat": 97,
      "duration": 0.5,
      "midi": 75,
      "velocity": 112,
      "voice": "lead",
      "bar": 24
    },
    {
      "beat": 97.25,
      "duration": 0.22,
      "midi": 54,
      "velocity": 70,
      "voice": "arp",
      "bar": 24
    },
    {
      "beat": 97.25,
      "duration": 0.05,
      "midi": 42,
      "velocity": 34,
      "voice": "hat",
      "bar": 24
    },
    {
      "beat": 97.5,
      "duration": 0.24,
      "midi": 50,
      "velocity": 80,
      "voice": "acid",
      "bar": 24,
      "slide": false
    },
    {
      "beat": 97.5,
      "duration": 0.22,
      "midi": 50,
      "velocity": 70,
      "voice": "arp",
      "bar": 24
    },
    {
      "beat": 97.5,
      "duration": 0.45,
      "midi": 38,
      "velocity": 100,
      "voice": "bass",
      "bar": 24
    },
    {
      "beat": 97.5,
      "duration": 0.14,
      "midi": 46,
      "velocity": 74,
      "voice": "hat",
      "bar": 24
    },
    {
      "beat": 97.5,
      "duration": 0.5,
      "midi": 74,
      "velocity": 112,
      "voice": "lead",
      "bar": 24
    },
    {
      "beat": 97.5,
      "duration": 0.1,
      "midi": 62,
      "velocity": 72,
      "voice": "perc",
      "bar": 24
    },
    {
      "beat": 97.5,
      "duration": 0.22,
      "midi": 62,
      "velocity": 92,
      "voice": "stab",
      "bar": 24
    },
    {
      "beat": 97.5,
      "duration": 0.22,
      "midi": 66,
      "velocity": 92,
      "voice": "stab",
      "bar": 24
    },
    {
      "beat": 97.5,
      "duration": 0.22,
      "midi": 69,
      "velocity": 92,
      "voice": "stab",
      "bar": 24
    },
    {
      "beat": 97.75,
      "duration": 0.24,
      "midi": 62,
      "velocity": 80,
      "voice": "acid",
      "bar": 24,
      "slide": true
    },
    {
      "beat": 97.75,
      "duration": 0.22,
      "midi": 54,
      "velocity": 70,
      "voice": "arp",
      "bar": 24
    },
    {
      "beat": 97.75,
      "duration": 0.05,
      "midi": 42,
      "velocity": 34,
      "voice": "hat",
      "bar": 24
    },
    {
      "beat": 98.0,
      "duration": 0.24,
      "midi": 50,
      "velocity": 120,
      "voice": "acid",
      "bar": 24,
      "slide": false
    },
    {
      "beat": 98.0,
      "duration": 0.22,
      "midi": 57,
      "velocity": 84,
      "voice": "arp",
      "bar": 24
    },
    {
      "beat": 98.0,
      "duration": 0.45,
      "midi": 38,
      "velocity": 100,
      "voice": "bass",
      "bar": 24
    },
    {
      "beat": 98,
      "duration": 0.07,
      "midi": 42,
      "velocity": 44,
      "voice": "hat",
      "bar": 24
    },
    {
      "beat": 98,
      "duration": 0.16,
      "midi": 36,
      "velocity": 116,
      "voice": "kick",
      "bar": 24
    },
    {
      "beat": 98,
      "duration": 1,
      "midi": 69,
      "velocity": 112,
      "voice": "lead",
      "bar": 24
    },
    {
      "beat": 98,
      "duration": 0.18,
      "midi": 64,
      "velocity": 96,
      "voice": "perc",
      "bar": 24
    },
    {
      "beat": 98.25,
      "duration": 0.22,
      "midi": 62,
      "velocity": 70,
      "voice": "arp",
      "bar": 24
    },
    {
      "beat": 98.25,
      "duration": 0.05,
      "midi": 42,
      "velocity": 34,
      "voice": "hat",
      "bar": 24
    },
    {
      "beat": 98.5,
      "duration": 0.24,
      "midi": 63,
      "velocity": 80,
      "voice": "acid",
      "bar": 24,
      "slide": true
    },
    {
      "beat": 98.5,
      "duration": 0.22,
      "midi": 57,
      "velocity": 70,
      "voice": "arp",
      "bar": 24
    },
    {
      "beat": 98.5,
      "duration": 0.45,
      "midi": 38,
      "velocity": 100,
      "voice": "bass",
      "bar": 24
    },
    {
      "beat": 98.5,
      "duration": 0.14,
      "midi": 46,
      "velocity": 74,
      "voice": "hat",
      "bar": 24
    },
    {
      "beat": 98.5,
      "duration": 0.22,
      "midi": 62,
      "velocity": 92,
      "voice": "stab",
      "bar": 24
    },
    {
      "beat": 98.5,
      "duration": 0.22,
      "midi": 66,
      "velocity": 92,
      "voice": "stab",
      "bar": 24
    },
    {
      "beat": 98.5,
      "duration": 0.22,
      "midi": 69,
      "velocity": 92,
      "voice": "stab",
      "bar": 24
    },
    {
      "beat": 98.75,
      "duration": 0.24,
      "midi": 50,
      "velocity": 80,
      "voice": "acid",
      "bar": 24,
      "slide": false
    },
    {
      "beat": 98.75,
      "duration": 0.22,
      "midi": 54,
      "velocity": 70,
      "voice": "arp",
      "bar": 24
    },
    {
      "beat": 98.75,
      "duration": 0.05,
      "midi": 42,
      "velocity": 34,
      "voice": "hat",
      "bar": 24
    },
    {
      "beat": 99.0,
      "duration": 0.22,
      "midi": 50,
      "velocity": 84,
      "voice": "arp",
      "bar": 24
    },
    {
      "beat": 99.0,
      "duration": 0.45,
      "midi": 50,
      "velocity": 100,
      "voice": "bass",
      "bar": 24
    },
    {
      "beat": 99,
      "duration": 0.2,
      "midi": 39,
      "velocity": 104,
      "voice": "clap",
      "bar": 24
    },
    {
      "beat": 99,
      "duration": 0.07,
      "midi": 42,
      "velocity": 44,
      "voice": "hat",
      "bar": 24
    },
    {
      "beat": 99,
      "duration": 0.16,
      "midi": 36,
      "velocity": 116,
      "voice": "kick",
      "bar": 24
    },
    {
      "beat": 99,
      "duration": 1,
      "midi": 66,
      "velocity": 112,
      "voice": "lead",
      "bar": 24
    },
    {
      "beat": 99,
      "duration": 0.1,
      "midi": 62,
      "velocity": 72,
      "voice": "perc",
      "bar": 24
    },
    {
      "beat": 99.25,
      "duration": 0.24,
      "midi": 50,
      "velocity": 120,
      "voice": "acid",
      "bar": 24,
      "slide": false
    },
    {
      "beat": 99.25,
      "duration": 0.22,
      "midi": 54,
      "velocity": 70,
      "voice": "arp",
      "bar": 24
    },
    {
      "beat": 99.25,
      "duration": 0.05,
      "midi": 42,
      "velocity": 34,
      "voice": "hat",
      "bar": 24
    },
    {
      "beat": 99.5,
      "duration": 0.24,
      "midi": 62,
      "velocity": 80,
      "voice": "acid",
      "bar": 24,
      "slide": true
    },
    {
      "beat": 99.5,
      "duration": 0.22,
      "midi": 57,
      "velocity": 70,
      "voice": "arp",
      "bar": 24
    },
    {
      "beat": 99.5,
      "duration": 0.45,
      "midi": 38,
      "velocity": 100,
      "voice": "bass",
      "bar": 24
    },
    {
      "beat": 99.5,
      "duration": 0.14,
      "midi": 46,
      "velocity": 74,
      "voice": "hat",
      "bar": 24
    },
    {
      "beat": 99.5,
      "duration": 0.1,
      "midi": 62,
      "velocity": 72,
      "voice": "perc",
      "bar": 24
    },
    {
      "beat": 99.5,
      "duration": 0.22,
      "midi": 62,
      "velocity": 92,
      "voice": "stab",
      "bar": 24
    },
    {
      "beat": 99.5,
      "duration": 0.22,
      "midi": 66,
      "velocity": 92,
      "voice": "stab",
      "bar": 24
    },
    {
      "beat": 99.5,
      "duration": 0.22,
      "midi": 69,
      "velocity": 92,
      "voice": "stab",
      "bar": 24
    },
    {
      "beat": 99.75,
      "duration": 0.24,
      "midi": 51,
      "velocity": 80,
      "voice": "acid",
      "bar": 24,
      "slide": false
    },
    {
      "beat": 99.75,
      "duration": 0.22,
      "midi": 62,
      "velocity": 70,
      "voice": "arp",
      "bar": 24
    },
    {
      "beat": 99.75,
      "duration": 0.05,
      "midi": 42,
      "velocity": 34,
      "voice": "hat",
      "bar": 24
    },
    {
      "beat": 100.0,
      "duration": 0.24,
      "midi": 51,
      "velocity": 120,
      "voice": "acid",
      "bar": 25,
      "slide": false
    },
    {
      "beat": 100.0,
      "duration": 0.22,
      "midi": 51,
      "velocity": 84,
      "voice": "arp",
      "bar": 25
    },
    {
      "beat": 100.0,
      "duration": 0.45,
      "midi": 39,
      "velocity": 108,
      "voice": "bass",
      "bar": 25
    },
    {
      "beat": 100,
      "duration": 0.07,
      "midi": 42,
      "velocity": 44,
      "voice": "hat",
      "bar": 25
    },
    {
      "beat": 100,
      "duration": 0.16,
      "midi": 36,
      "velocity": 124,
      "voice": "kick",
      "bar": 25
    },
    {
      "beat": 100,
      "duration": 1.5,
      "midi": 67,
      "velocity": 112,
      "voice": "lead",
      "bar": 25
    },
    {
      "beat": 100,
      "duration": 4,
      "midi": 51,
      "velocity": 58,
      "voice": "pad",
      "bar": 25
    },
    {
      "beat": 100,
      "duration": 4,
      "midi": 55,
      "velocity": 58,
      "voice": "pad",
      "bar": 25
    },
    {
      "beat": 100,
      "duration": 4,
      "midi": 58,
      "velocity": 58,
      "voice": "pad",
      "bar": 25
    },
    {
      "beat": 100,
      "duration": 4,
      "midi": 63,
      "velocity": 58,
      "voice": "pad",
      "bar": 25
    },
    {
      "beat": 100,
      "duration": 0.18,
      "midi": 64,
      "velocity": 96,
      "voice": "perc",
      "bar": 25
    },
    {
      "beat": 100.25,
      "duration": 0.22,
      "midi": 55,
      "velocity": 70,
      "voice": "arp",
      "bar": 25
    },
    {
      "beat": 100.25,
      "duration": 0.05,
      "midi": 42,
      "velocity": 34,
      "voice": "hat",
      "bar": 25
    },
    {
      "beat": 100.5,
      "duration": 0.24,
      "midi": 63,
      "velocity": 80,
      "voice": "acid",
      "bar": 25,
      "slide": true
    },
    {
      "beat": 100.5,
      "duration": 0.22,
      "midi": 58,
      "velocity": 70,
      "voice": "arp",
      "bar": 25
    },
    {
      "beat": 100.5,
      "duration": 0.45,
      "midi": 39,
      "velocity": 100,
      "voice": "bass",
      "bar": 25
    },
    {
      "beat": 100.5,
      "duration": 0.14,
      "midi": 46,
      "velocity": 74,
      "voice": "hat",
      "bar": 25
    },
    {
      "beat": 100.5,
      "duration": 0.1,
      "midi": 62,
      "velocity": 72,
      "voice": "perc",
      "bar": 25
    },
    {
      "beat": 100.5,
      "duration": 0.22,
      "midi": 63,
      "velocity": 92,
      "voice": "stab",
      "bar": 25
    },
    {
      "beat": 100.5,
      "duration": 0.22,
      "midi": 67,
      "velocity": 92,
      "voice": "stab",
      "bar": 25
    },
    {
      "beat": 100.5,
      "duration": 0.22,
      "midi": 70,
      "velocity": 92,
      "voice": "stab",
      "bar": 25
    },
    {
      "beat": 100.75,
      "duration": 0.24,
      "midi": 51,
      "velocity": 80,
      "voice": "acid",
      "bar": 25,
      "slide": false
    },
    {
      "beat": 100.75,
      "duration": 0.22,
      "midi": 63,
      "velocity": 70,
      "voice": "arp",
      "bar": 25
    },
    {
      "beat": 100.75,
      "duration": 0.05,
      "midi": 42,
      "velocity": 34,
      "voice": "hat",
      "bar": 25
    },
    {
      "beat": 101.0,
      "duration": 0.24,
      "midi": 52,
      "velocity": 120,
      "voice": "acid",
      "bar": 25,
      "slide": false
    },
    {
      "beat": 101.0,
      "duration": 0.22,
      "midi": 58,
      "velocity": 84,
      "voice": "arp",
      "bar": 25
    },
    {
      "beat": 101.0,
      "duration": 0.45,
      "midi": 51,
      "velocity": 100,
      "voice": "bass",
      "bar": 25
    },
    {
      "beat": 101,
      "duration": 0.2,
      "midi": 39,
      "velocity": 104,
      "voice": "clap",
      "bar": 25
    },
    {
      "beat": 101,
      "duration": 0.07,
      "midi": 42,
      "velocity": 44,
      "voice": "hat",
      "bar": 25
    },
    {
      "beat": 101,
      "duration": 0.16,
      "midi": 36,
      "velocity": 116,
      "voice": "kick",
      "bar": 25
    },
    {
      "beat": 101.25,
      "duration": 0.22,
      "midi": 55,
      "velocity": 70,
      "voice": "arp",
      "bar": 25
    },
    {
      "beat": 101.25,
      "duration": 0.05,
      "midi": 42,
      "velocity": 34,
      "voice": "hat",
      "bar": 25
    },
    {
      "beat": 101.5,
      "duration": 0.24,
      "midi": 51,
      "velocity": 80,
      "voice": "acid",
      "bar": 25,
      "slide": false
    },
    {
      "beat": 101.5,
      "duration": 0.22,
      "midi": 51,
      "velocity": 70,
      "voice": "arp",
      "bar": 25
    },
    {
      "beat": 101.5,
      "duration": 0.45,
      "midi": 39,
      "velocity": 100,
      "voice": "bass",
      "bar": 25
    },
    {
      "beat": 101.5,
      "duration": 0.14,
      "midi": 46,
      "velocity": 74,
      "voice": "hat",
      "bar": 25
    },
    {
      "beat": 101.5,
      "duration": 0.5,
      "midi": 70,
      "velocity": 112,
      "voice": "lead",
      "bar": 25
    },
    {
      "beat": 101.5,
      "duration": 0.1,
      "midi": 62,
      "velocity": 72,
      "voice": "perc",
      "bar": 25
    },
    {
      "beat": 101.5,
      "duration": 0.22,
      "midi": 63,
      "velocity": 92,
      "voice": "stab",
      "bar": 25
    },
    {
      "beat": 101.5,
      "duration": 0.22,
      "midi": 67,
      "velocity": 92,
      "voice": "stab",
      "bar": 25
    },
    {
      "beat": 101.5,
      "duration": 0.22,
      "midi": 70,
      "velocity": 92,
      "voice": "stab",
      "bar": 25
    },
    {
      "beat": 101.75,
      "duration": 0.24,
      "midi": 63,
      "velocity": 80,
      "voice": "acid",
      "bar": 25,
      "slide": true
    },
    {
      "beat": 101.75,
      "duration": 0.22,
      "midi": 55,
      "velocity": 70,
      "voice": "arp",
      "bar": 25
    },
    {
      "beat": 101.75,
      "duration": 0.05,
      "midi": 42,
      "velocity": 34,
      "voice": "hat",
      "bar": 25
    },
    {
      "beat": 102.0,
      "duration": 0.24,
      "midi": 51,
      "velocity": 120,
      "voice": "acid",
      "bar": 25,
      "slide": false
    },
    {
      "beat": 102.0,
      "duration": 0.22,
      "midi": 58,
      "velocity": 84,
      "voice": "arp",
      "bar": 25
    },
    {
      "beat": 102.0,
      "duration": 0.45,
      "midi": 39,
      "velocity": 100,
      "voice": "bass",
      "bar": 25
    },
    {
      "beat": 102,
      "duration": 0.07,
      "midi": 42,
      "velocity": 44,
      "voice": "hat",
      "bar": 25
    },
    {
      "beat": 102,
      "duration": 0.16,
      "midi": 36,
      "velocity": 116,
      "voice": "kick",
      "bar": 25
    },
    {
      "beat": 102,
      "duration": 1,
      "midi": 69,
      "velocity": 112,
      "voice": "lead",
      "bar": 25
    },
    {
      "beat": 102,
      "duration": 0.18,
      "midi": 64,
      "velocity": 96,
      "voice": "perc",
      "bar": 25
    },
    {
      "beat": 102.25,
      "duration": 0.22,
      "midi": 63,
      "velocity": 70,
      "voice": "arp",
      "bar": 25
    },
    {
      "beat": 102.25,
      "duration": 0.05,
      "midi": 42,
      "velocity": 34,
      "voice": "hat",
      "bar": 25
    },
    {
      "beat": 102.5,
      "duration": 0.24,
      "midi": 64,
      "velocity": 80,
      "voice": "acid",
      "bar": 25,
      "slide": true
    },
    {
      "beat": 102.5,
      "duration": 0.22,
      "midi": 58,
      "velocity": 70,
      "voice": "arp",
      "bar": 25
    },
    {
      "beat": 102.5,
      "duration": 0.45,
      "midi": 39,
      "velocity": 100,
      "voice": "bass",
      "bar": 25
    },
    {
      "beat": 102.5,
      "duration": 0.14,
      "midi": 46,
      "velocity": 74,
      "voice": "hat",
      "bar": 25
    },
    {
      "beat": 102.5,
      "duration": 0.22,
      "midi": 63,
      "velocity": 92,
      "voice": "stab",
      "bar": 25
    },
    {
      "beat": 102.5,
      "duration": 0.22,
      "midi": 67,
      "velocity": 92,
      "voice": "stab",
      "bar": 25
    },
    {
      "beat": 102.5,
      "duration": 0.22,
      "midi": 70,
      "velocity": 92,
      "voice": "stab",
      "bar": 25
    },
    {
      "beat": 102.75,
      "duration": 0.24,
      "midi": 51,
      "velocity": 80,
      "voice": "acid",
      "bar": 25,
      "slide": false
    },
    {
      "beat": 102.75,
      "duration": 0.22,
      "midi": 55,
      "velocity": 70,
      "voice": "arp",
      "bar": 25
    },
    {
      "beat": 102.75,
      "duration": 0.05,
      "midi": 42,
      "velocity": 34,
      "voice": "hat",
      "bar": 25
    },
    {
      "beat": 103.0,
      "duration": 0.22,
      "midi": 51,
      "velocity": 84,
      "voice": "arp",
      "bar": 25
    },
    {
      "beat": 103.0,
      "duration": 0.45,
      "midi": 51,
      "velocity": 100,
      "voice": "bass",
      "bar": 25
    },
    {
      "beat": 103,
      "duration": 0.2,
      "midi": 39,
      "velocity": 104,
      "voice": "clap",
      "bar": 25
    },
    {
      "beat": 103,
      "duration": 0.07,
      "midi": 42,
      "velocity": 44,
      "voice": "hat",
      "bar": 25
    },
    {
      "beat": 103,
      "duration": 0.16,
      "midi": 36,
      "velocity": 116,
      "voice": "kick",
      "bar": 25
    },
    {
      "beat": 103,
      "duration": 1,
      "midi": 67,
      "velocity": 112,
      "voice": "lead",
      "bar": 25
    },
    {
      "beat": 103,
      "duration": 0.1,
      "midi": 62,
      "velocity": 72,
      "voice": "perc",
      "bar": 25
    },
    {
      "beat": 103.25,
      "duration": 0.24,
      "midi": 51,
      "velocity": 120,
      "voice": "acid",
      "bar": 25,
      "slide": false
    },
    {
      "beat": 103.25,
      "duration": 0.22,
      "midi": 55,
      "velocity": 70,
      "voice": "arp",
      "bar": 25
    },
    {
      "beat": 103.25,
      "duration": 0.05,
      "midi": 42,
      "velocity": 34,
      "voice": "hat",
      "bar": 25
    },
    {
      "beat": 103.5,
      "duration": 0.24,
      "midi": 63,
      "velocity": 80,
      "voice": "acid",
      "bar": 25,
      "slide": true
    },
    {
      "beat": 103.5,
      "duration": 0.22,
      "midi": 58,
      "velocity": 70,
      "voice": "arp",
      "bar": 25
    },
    {
      "beat": 103.5,
      "duration": 0.45,
      "midi": 39,
      "velocity": 100,
      "voice": "bass",
      "bar": 25
    },
    {
      "beat": 103.5,
      "duration": 0.14,
      "midi": 46,
      "velocity": 74,
      "voice": "hat",
      "bar": 25
    },
    {
      "beat": 103.5,
      "duration": 0.1,
      "midi": 62,
      "velocity": 72,
      "voice": "perc",
      "bar": 25
    },
    {
      "beat": 103.5,
      "duration": 0.22,
      "midi": 63,
      "velocity": 92,
      "voice": "stab",
      "bar": 25
    },
    {
      "beat": 103.5,
      "duration": 0.22,
      "midi": 67,
      "velocity": 92,
      "voice": "stab",
      "bar": 25
    },
    {
      "beat": 103.5,
      "duration": 0.22,
      "midi": 70,
      "velocity": 92,
      "voice": "stab",
      "bar": 25
    },
    {
      "beat": 103.75,
      "duration": 0.24,
      "midi": 52,
      "velocity": 80,
      "voice": "acid",
      "bar": 25,
      "slide": false
    },
    {
      "beat": 103.75,
      "duration": 0.22,
      "midi": 63,
      "velocity": 70,
      "voice": "arp",
      "bar": 25
    },
    {
      "beat": 103.75,
      "duration": 0.05,
      "midi": 42,
      "velocity": 34,
      "voice": "hat",
      "bar": 25
    },
    {
      "beat": 104.0,
      "duration": 0.24,
      "midi": 55,
      "velocity": 120,
      "voice": "acid",
      "bar": 26,
      "slide": false
    },
    {
      "beat": 104.0,
      "duration": 0.22,
      "midi": 55,
      "velocity": 84,
      "voice": "arp",
      "bar": 26
    },
    {
      "beat": 104.0,
      "duration": 0.45,
      "midi": 43,
      "velocity": 108,
      "voice": "bass",
      "bar": 26
    },
    {
      "beat": 104,
      "duration": 0.07,
      "midi": 42,
      "velocity": 44,
      "voice": "hat",
      "bar": 26
    },
    {
      "beat": 104,
      "duration": 0.16,
      "midi": 36,
      "velocity": 124,
      "voice": "kick",
      "bar": 26
    },
    {
      "beat": 104,
      "duration": 1,
      "midi": 70,
      "velocity": 112,
      "voice": "lead",
      "bar": 26
    },
    {
      "beat": 104,
      "duration": 4,
      "midi": 55,
      "velocity": 58,
      "voice": "pad",
      "bar": 26
    },
    {
      "beat": 104,
      "duration": 4,
      "midi": 58,
      "velocity": 58,
      "voice": "pad",
      "bar": 26
    },
    {
      "beat": 104,
      "duration": 4,
      "midi": 62,
      "velocity": 58,
      "voice": "pad",
      "bar": 26
    },
    {
      "beat": 104,
      "duration": 4,
      "midi": 67,
      "velocity": 58,
      "voice": "pad",
      "bar": 26
    },
    {
      "beat": 104,
      "duration": 0.18,
      "midi": 64,
      "velocity": 96,
      "voice": "perc",
      "bar": 26
    },
    {
      "beat": 104.25,
      "duration": 0.22,
      "midi": 58,
      "velocity": 70,
      "voice": "arp",
      "bar": 26
    },
    {
      "beat": 104.25,
      "duration": 0.05,
      "midi": 42,
      "velocity": 34,
      "voice": "hat",
      "bar": 26
    },
    {
      "beat": 104.5,
      "duration": 0.24,
      "midi": 67,
      "velocity": 80,
      "voice": "acid",
      "bar": 26,
      "slide": true
    },
    {
      "beat": 104.5,
      "duration": 0.22,
      "midi": 62,
      "velocity": 70,
      "voice": "arp",
      "bar": 26
    },
    {
      "beat": 104.5,
      "duration": 0.45,
      "midi": 43,
      "velocity": 100,
      "voice": "bass",
      "bar": 26
    },
    {
      "beat": 104.5,
      "duration": 0.14,
      "midi": 46,
      "velocity": 74,
      "voice": "hat",
      "bar": 26
    },
    {
      "beat": 104.5,
      "duration": 0.1,
      "midi": 62,
      "velocity": 72,
      "voice": "perc",
      "bar": 26
    },
    {
      "beat": 104.5,
      "duration": 0.22,
      "midi": 67,
      "velocity": 92,
      "voice": "stab",
      "bar": 26
    },
    {
      "beat": 104.5,
      "duration": 0.22,
      "midi": 70,
      "velocity": 92,
      "voice": "stab",
      "bar": 26
    },
    {
      "beat": 104.5,
      "duration": 0.22,
      "midi": 74,
      "velocity": 92,
      "voice": "stab",
      "bar": 26
    },
    {
      "beat": 104.75,
      "duration": 0.24,
      "midi": 55,
      "velocity": 80,
      "voice": "acid",
      "bar": 26,
      "slide": false
    },
    {
      "beat": 104.75,
      "duration": 0.22,
      "midi": 67,
      "velocity": 70,
      "voice": "arp",
      "bar": 26
    },
    {
      "beat": 104.75,
      "duration": 0.05,
      "midi": 42,
      "velocity": 34,
      "voice": "hat",
      "bar": 26
    },
    {
      "beat": 105.0,
      "duration": 0.24,
      "midi": 56,
      "velocity": 120,
      "voice": "acid",
      "bar": 26,
      "slide": false
    },
    {
      "beat": 105.0,
      "duration": 0.22,
      "midi": 62,
      "velocity": 84,
      "voice": "arp",
      "bar": 26
    },
    {
      "beat": 105.0,
      "duration": 0.45,
      "midi": 55,
      "velocity": 100,
      "voice": "bass",
      "bar": 26
    },
    {
      "beat": 105,
      "duration": 0.2,
      "midi": 39,
      "velocity": 104,
      "voice": "clap",
      "bar": 26
    },
    {
      "beat": 105,
      "duration": 0.07,
      "midi": 42,
      "velocity": 44,
      "voice": "hat",
      "bar": 26
    },
    {
      "beat": 105,
      "duration": 0.16,
      "midi": 36,
      "velocity": 116,
      "voice": "kick",
      "bar": 26
    },
    {
      "beat": 105,
      "duration": 0.5,
      "midi": 69,
      "velocity": 112,
      "voice": "lead",
      "bar": 26
    },
    {
      "beat": 105.25,
      "duration": 0.22,
      "midi": 58,
      "velocity": 70,
      "voice": "arp",
      "bar": 26
    },
    {
      "beat": 105.25,
      "duration": 0.05,
      "midi": 42,
      "velocity": 34,
      "voice": "hat",
      "bar": 26
    },
    {
      "beat": 105.5,
      "duration": 0.24,
      "midi": 55,
      "velocity": 80,
      "voice": "acid",
      "bar": 26,
      "slide": false
    },
    {
      "beat": 105.5,
      "duration": 0.22,
      "midi": 55,
      "velocity": 70,
      "voice": "arp",
      "bar": 26
    },
    {
      "beat": 105.5,
      "duration": 0.45,
      "midi": 43,
      "velocity": 100,
      "voice": "bass",
      "bar": 26
    },
    {
      "beat": 105.5,
      "duration": 0.14,
      "midi": 46,
      "velocity": 74,
      "voice": "hat",
      "bar": 26
    },
    {
      "beat": 105.5,
      "duration": 0.5,
      "midi": 67,
      "velocity": 112,
      "voice": "lead",
      "bar": 26
    },
    {
      "beat": 105.5,
      "duration": 0.1,
      "midi": 62,
      "velocity": 72,
      "voice": "perc",
      "bar": 26
    },
    {
      "beat": 105.5,
      "duration": 0.22,
      "midi": 67,
      "velocity": 92,
      "voice": "stab",
      "bar": 26
    },
    {
      "beat": 105.5,
      "duration": 0.22,
      "midi": 70,
      "velocity": 92,
      "voice": "stab",
      "bar": 26
    },
    {
      "beat": 105.5,
      "duration": 0.22,
      "midi": 74,
      "velocity": 92,
      "voice": "stab",
      "bar": 26
    },
    {
      "beat": 105.75,
      "duration": 0.24,
      "midi": 67,
      "velocity": 80,
      "voice": "acid",
      "bar": 26,
      "slide": true
    },
    {
      "beat": 105.75,
      "duration": 0.22,
      "midi": 58,
      "velocity": 70,
      "voice": "arp",
      "bar": 26
    },
    {
      "beat": 105.75,
      "duration": 0.05,
      "midi": 42,
      "velocity": 34,
      "voice": "hat",
      "bar": 26
    },
    {
      "beat": 106.0,
      "duration": 0.24,
      "midi": 55,
      "velocity": 120,
      "voice": "acid",
      "bar": 26,
      "slide": false
    },
    {
      "beat": 106.0,
      "duration": 0.22,
      "midi": 62,
      "velocity": 84,
      "voice": "arp",
      "bar": 26
    },
    {
      "beat": 106.0,
      "duration": 0.45,
      "midi": 43,
      "velocity": 100,
      "voice": "bass",
      "bar": 26
    },
    {
      "beat": 106,
      "duration": 0.07,
      "midi": 42,
      "velocity": 44,
      "voice": "hat",
      "bar": 26
    },
    {
      "beat": 106,
      "duration": 0.16,
      "midi": 36,
      "velocity": 116,
      "voice": "kick",
      "bar": 26
    },
    {
      "beat": 106,
      "duration": 1,
      "midi": 74,
      "velocity": 112,
      "voice": "lead",
      "bar": 26
    },
    {
      "beat": 106,
      "duration": 0.18,
      "midi": 64,
      "velocity": 96,
      "voice": "perc",
      "bar": 26
    },
    {
      "beat": 106.25,
      "duration": 0.22,
      "midi": 67,
      "velocity": 70,
      "voice": "arp",
      "bar": 26
    },
    {
      "beat": 106.25,
      "duration": 0.05,
      "midi": 42,
      "velocity": 34,
      "voice": "hat",
      "bar": 26
    },
    {
      "beat": 106.5,
      "duration": 0.24,
      "midi": 68,
      "velocity": 80,
      "voice": "acid",
      "bar": 26,
      "slide": true
    },
    {
      "beat": 106.5,
      "duration": 0.22,
      "midi": 62,
      "velocity": 70,
      "voice": "arp",
      "bar": 26
    },
    {
      "beat": 106.5,
      "duration": 0.45,
      "midi": 43,
      "velocity": 100,
      "voice": "bass",
      "bar": 26
    },
    {
      "beat": 106.5,
      "duration": 0.14,
      "midi": 46,
      "velocity": 74,
      "voice": "hat",
      "bar": 26
    },
    {
      "beat": 106.5,
      "duration": 0.22,
      "midi": 67,
      "velocity": 92,
      "voice": "stab",
      "bar": 26
    },
    {
      "beat": 106.5,
      "duration": 0.22,
      "midi": 70,
      "velocity": 92,
      "voice": "stab",
      "bar": 26
    },
    {
      "beat": 106.5,
      "duration": 0.22,
      "midi": 74,
      "velocity": 92,
      "voice": "stab",
      "bar": 26
    },
    {
      "beat": 106.75,
      "duration": 0.24,
      "midi": 55,
      "velocity": 80,
      "voice": "acid",
      "bar": 26,
      "slide": false
    },
    {
      "beat": 106.75,
      "duration": 0.22,
      "midi": 58,
      "velocity": 70,
      "voice": "arp",
      "bar": 26
    },
    {
      "beat": 106.75,
      "duration": 0.05,
      "midi": 42,
      "velocity": 34,
      "voice": "hat",
      "bar": 26
    },
    {
      "beat": 107.0,
      "duration": 0.22,
      "midi": 55,
      "velocity": 84,
      "voice": "arp",
      "bar": 26
    },
    {
      "beat": 107.0,
      "duration": 0.45,
      "midi": 55,
      "velocity": 100,
      "voice": "bass",
      "bar": 26
    },
    {
      "beat": 107,
      "duration": 0.2,
      "midi": 39,
      "velocity": 104,
      "voice": "clap",
      "bar": 26
    },
    {
      "beat": 107,
      "duration": 0.07,
      "midi": 42,
      "velocity": 44,
      "voice": "hat",
      "bar": 26
    },
    {
      "beat": 107,
      "duration": 0.16,
      "midi": 36,
      "velocity": 116,
      "voice": "kick",
      "bar": 26
    },
    {
      "beat": 107,
      "duration": 1,
      "midi": 70,
      "velocity": 112,
      "voice": "lead",
      "bar": 26
    },
    {
      "beat": 107,
      "duration": 0.1,
      "midi": 62,
      "velocity": 72,
      "voice": "perc",
      "bar": 26
    },
    {
      "beat": 107.25,
      "duration": 0.24,
      "midi": 55,
      "velocity": 120,
      "voice": "acid",
      "bar": 26,
      "slide": false
    },
    {
      "beat": 107.25,
      "duration": 0.22,
      "midi": 58,
      "velocity": 70,
      "voice": "arp",
      "bar": 26
    },
    {
      "beat": 107.25,
      "duration": 0.05,
      "midi": 42,
      "velocity": 34,
      "voice": "hat",
      "bar": 26
    },
    {
      "beat": 107.5,
      "duration": 0.24,
      "midi": 67,
      "velocity": 80,
      "voice": "acid",
      "bar": 26,
      "slide": true
    },
    {
      "beat": 107.5,
      "duration": 0.22,
      "midi": 62,
      "velocity": 70,
      "voice": "arp",
      "bar": 26
    },
    {
      "beat": 107.5,
      "duration": 0.45,
      "midi": 43,
      "velocity": 100,
      "voice": "bass",
      "bar": 26
    },
    {
      "beat": 107.5,
      "duration": 0.14,
      "midi": 46,
      "velocity": 74,
      "voice": "hat",
      "bar": 26
    },
    {
      "beat": 107.5,
      "duration": 0.1,
      "midi": 62,
      "velocity": 72,
      "voice": "perc",
      "bar": 26
    },
    {
      "beat": 107.5,
      "duration": 0.22,
      "midi": 67,
      "velocity": 92,
      "voice": "stab",
      "bar": 26
    },
    {
      "beat": 107.5,
      "duration": 0.22,
      "midi": 70,
      "velocity": 92,
      "voice": "stab",
      "bar": 26
    },
    {
      "beat": 107.5,
      "duration": 0.22,
      "midi": 74,
      "velocity": 92,
      "voice": "stab",
      "bar": 26
    },
    {
      "beat": 107.75,
      "duration": 0.24,
      "midi": 56,
      "velocity": 80,
      "voice": "acid",
      "bar": 26,
      "slide": false
    },
    {
      "beat": 107.75,
      "duration": 0.22,
      "midi": 67,
      "velocity": 70,
      "voice": "arp",
      "bar": 26
    },
    {
      "beat": 107.75,
      "duration": 0.05,
      "midi": 42,
      "velocity": 34,
      "voice": "hat",
      "bar": 26
    },
    {
      "beat": 108.0,
      "duration": 0.24,
      "midi": 57,
      "velocity": 120,
      "voice": "acid",
      "bar": 27,
      "slide": false
    },
    {
      "beat": 108.0,
      "duration": 0.22,
      "midi": 57,
      "velocity": 84,
      "voice": "arp",
      "bar": 27
    },
    {
      "beat": 108.0,
      "duration": 0.45,
      "midi": 45,
      "velocity": 108,
      "voice": "bass",
      "bar": 27
    },
    {
      "beat": 108,
      "duration": 0.07,
      "midi": 42,
      "velocity": 44,
      "voice": "hat",
      "bar": 27
    },
    {
      "beat": 108,
      "duration": 0.16,
      "midi": 36,
      "velocity": 124,
      "voice": "kick",
      "bar": 27
    },
    {
      "beat": 108,
      "duration": 1,
      "midi": 73,
      "velocity": 112,
      "voice": "lead",
      "bar": 27
    },
    {
      "beat": 108,
      "duration": 4,
      "midi": 57,
      "velocity": 58,
      "voice": "pad",
      "bar": 27
    },
    {
      "beat": 108,
      "duration": 4,
      "midi": 61,
      "velocity": 58,
      "voice": "pad",
      "bar": 27
    },
    {
      "beat": 108,
      "duration": 4,
      "midi": 64,
      "velocity": 58,
      "voice": "pad",
      "bar": 27
    },
    {
      "beat": 108,
      "duration": 4,
      "midi": 69,
      "velocity": 58,
      "voice": "pad",
      "bar": 27
    },
    {
      "beat": 108,
      "duration": 0.18,
      "midi": 64,
      "velocity": 96,
      "voice": "perc",
      "bar": 27
    },
    {
      "beat": 108.25,
      "duration": 0.22,
      "midi": 61,
      "velocity": 70,
      "voice": "arp",
      "bar": 27
    },
    {
      "beat": 108.25,
      "duration": 0.05,
      "midi": 42,
      "velocity": 34,
      "voice": "hat",
      "bar": 27
    },
    {
      "beat": 108.5,
      "duration": 0.24,
      "midi": 69,
      "velocity": 80,
      "voice": "acid",
      "bar": 27,
      "slide": true
    },
    {
      "beat": 108.5,
      "duration": 0.22,
      "midi": 64,
      "velocity": 70,
      "voice": "arp",
      "bar": 27
    },
    {
      "beat": 108.5,
      "duration": 0.45,
      "midi": 45,
      "velocity": 100,
      "voice": "bass",
      "bar": 27
    },
    {
      "beat": 108.5,
      "duration": 0.14,
      "midi": 46,
      "velocity": 74,
      "voice": "hat",
      "bar": 27
    },
    {
      "beat": 108.5,
      "duration": 0.1,
      "midi": 62,
      "velocity": 72,
      "voice": "perc",
      "bar": 27
    },
    {
      "beat": 108.5,
      "duration": 0.22,
      "midi": 69,
      "velocity": 92,
      "voice": "stab",
      "bar": 27
    },
    {
      "beat": 108.5,
      "duration": 0.22,
      "midi": 73,
      "velocity": 92,
      "voice": "stab",
      "bar": 27
    },
    {
      "beat": 108.5,
      "duration": 0.22,
      "midi": 76,
      "velocity": 92,
      "voice": "stab",
      "bar": 27
    },
    {
      "beat": 108.75,
      "duration": 0.24,
      "midi": 57,
      "velocity": 80,
      "voice": "acid",
      "bar": 27,
      "slide": false
    },
    {
      "beat": 108.75,
      "duration": 0.22,
      "midi": 69,
      "velocity": 70,
      "voice": "arp",
      "bar": 27
    },
    {
      "beat": 108.75,
      "duration": 0.05,
      "midi": 42,
      "velocity": 34,
      "voice": "hat",
      "bar": 27
    },
    {
      "beat": 109.0,
      "duration": 0.24,
      "midi": 58,
      "velocity": 120,
      "voice": "acid",
      "bar": 27,
      "slide": false
    },
    {
      "beat": 109.0,
      "duration": 0.22,
      "midi": 64,
      "velocity": 84,
      "voice": "arp",
      "bar": 27
    },
    {
      "beat": 109.0,
      "duration": 0.45,
      "midi": 57,
      "velocity": 100,
      "voice": "bass",
      "bar": 27
    },
    {
      "beat": 109,
      "duration": 0.2,
      "midi": 39,
      "velocity": 104,
      "voice": "clap",
      "bar": 27
    },
    {
      "beat": 109,
      "duration": 0.07,
      "midi": 42,
      "velocity": 44,
      "voice": "hat",
      "bar": 27
    },
    {
      "beat": 109,
      "duration": 0.16,
      "midi": 36,
      "velocity": 116,
      "voice": "kick",
      "bar": 27
    },
    {
      "beat": 109,
      "duration": 0.5,
      "midi": 74,
      "velocity": 112,
      "voice": "lead",
      "bar": 27
    },
    {
      "beat": 109.25,
      "duration": 0.22,
      "midi": 61,
      "velocity": 70,
      "voice": "arp",
      "bar": 27
    },
    {
      "beat": 109.25,
      "duration": 0.05,
      "midi": 42,
      "velocity": 34,
      "voice": "hat",
      "bar": 27
    },
    {
      "beat": 109.5,
      "duration": 0.24,
      "midi": 57,
      "velocity": 80,
      "voice": "acid",
      "bar": 27,
      "slide": false
    },
    {
      "beat": 109.5,
      "duration": 0.22,
      "midi": 57,
      "velocity": 70,
      "voice": "arp",
      "bar": 27
    },
    {
      "beat": 109.5,
      "duration": 0.45,
      "midi": 45,
      "velocity": 100,
      "voice": "bass",
      "bar": 27
    },
    {
      "beat": 109.5,
      "duration": 0.14,
      "midi": 46,
      "velocity": 74,
      "voice": "hat",
      "bar": 27
    },
    {
      "beat": 109.5,
      "duration": 0.5,
      "midi": 73,
      "velocity": 112,
      "voice": "lead",
      "bar": 27
    },
    {
      "beat": 109.5,
      "duration": 0.1,
      "midi": 62,
      "velocity": 72,
      "voice": "perc",
      "bar": 27
    },
    {
      "beat": 109.5,
      "duration": 0.22,
      "midi": 69,
      "velocity": 92,
      "voice": "stab",
      "bar": 27
    },
    {
      "beat": 109.5,
      "duration": 0.22,
      "midi": 73,
      "velocity": 92,
      "voice": "stab",
      "bar": 27
    },
    {
      "beat": 109.5,
      "duration": 0.22,
      "midi": 76,
      "velocity": 92,
      "voice": "stab",
      "bar": 27
    },
    {
      "beat": 109.75,
      "duration": 0.24,
      "midi": 69,
      "velocity": 80,
      "voice": "acid",
      "bar": 27,
      "slide": true
    },
    {
      "beat": 109.75,
      "duration": 0.22,
      "midi": 61,
      "velocity": 70,
      "voice": "arp",
      "bar": 27
    },
    {
      "beat": 109.75,
      "duration": 0.05,
      "midi": 42,
      "velocity": 34,
      "voice": "hat",
      "bar": 27
    },
    {
      "beat": 110.0,
      "duration": 0.24,
      "midi": 57,
      "velocity": 120,
      "voice": "acid",
      "bar": 27,
      "slide": false
    },
    {
      "beat": 110.0,
      "duration": 0.22,
      "midi": 64,
      "velocity": 84,
      "voice": "arp",
      "bar": 27
    },
    {
      "beat": 110.0,
      "duration": 0.45,
      "midi": 45,
      "velocity": 100,
      "voice": "bass",
      "bar": 27
    },
    {
      "beat": 110,
      "duration": 0.07,
      "midi": 42,
      "velocity": 44,
      "voice": "hat",
      "bar": 27
    },
    {
      "beat": 110,
      "duration": 0.16,
      "midi": 36,
      "velocity": 116,
      "voice": "kick",
      "bar": 27
    },
    {
      "beat": 110,
      "duration": 2,
      "midi": 69,
      "velocity": 112,
      "voice": "lead",
      "bar": 27
    },
    {
      "beat": 110,
      "duration": 0.18,
      "midi": 64,
      "velocity": 96,
      "voice": "perc",
      "bar": 27
    },
    {
      "beat": 110.25,
      "duration": 0.22,
      "midi": 69,
      "velocity": 70,
      "voice": "arp",
      "bar": 27
    },
    {
      "beat": 110.25,
      "duration": 0.05,
      "midi": 42,
      "velocity": 34,
      "voice": "hat",
      "bar": 27
    },
    {
      "beat": 110.5,
      "duration": 0.24,
      "midi": 70,
      "velocity": 80,
      "voice": "acid",
      "bar": 27,
      "slide": true
    },
    {
      "beat": 110.5,
      "duration": 0.22,
      "midi": 64,
      "velocity": 70,
      "voice": "arp",
      "bar": 27
    },
    {
      "beat": 110.5,
      "duration": 0.45,
      "midi": 45,
      "velocity": 100,
      "voice": "bass",
      "bar": 27
    },
    {
      "beat": 110.5,
      "duration": 0.14,
      "midi": 46,
      "velocity": 74,
      "voice": "hat",
      "bar": 27
    },
    {
      "beat": 110.5,
      "duration": 0.22,
      "midi": 69,
      "velocity": 92,
      "voice": "stab",
      "bar": 27
    },
    {
      "beat": 110.5,
      "duration": 0.22,
      "midi": 73,
      "velocity": 92,
      "voice": "stab",
      "bar": 27
    },
    {
      "beat": 110.5,
      "duration": 0.22,
      "midi": 76,
      "velocity": 92,
      "voice": "stab",
      "bar": 27
    },
    {
      "beat": 110.75,
      "duration": 0.24,
      "midi": 57,
      "velocity": 80,
      "voice": "acid",
      "bar": 27,
      "slide": false
    },
    {
      "beat": 110.75,
      "duration": 0.22,
      "midi": 61,
      "velocity": 70,
      "voice": "arp",
      "bar": 27
    },
    {
      "beat": 110.75,
      "duration": 0.05,
      "midi": 42,
      "velocity": 34,
      "voice": "hat",
      "bar": 27
    },
    {
      "beat": 111.0,
      "duration": 0.22,
      "midi": 57,
      "velocity": 84,
      "voice": "arp",
      "bar": 27
    },
    {
      "beat": 111.0,
      "duration": 0.45,
      "midi": 57,
      "velocity": 100,
      "voice": "bass",
      "bar": 27
    },
    {
      "beat": 111,
      "duration": 0.2,
      "midi": 39,
      "velocity": 104,
      "voice": "clap",
      "bar": 27
    },
    {
      "beat": 111,
      "duration": 0.07,
      "midi": 42,
      "velocity": 44,
      "voice": "hat",
      "bar": 27
    },
    {
      "beat": 111,
      "duration": 0.16,
      "midi": 36,
      "velocity": 116,
      "voice": "kick",
      "bar": 27
    },
    {
      "beat": 111,
      "duration": 0.1,
      "midi": 62,
      "velocity": 72,
      "voice": "perc",
      "bar": 27
    },
    {
      "beat": 111.25,
      "duration": 0.24,
      "midi": 57,
      "velocity": 120,
      "voice": "acid",
      "bar": 27,
      "slide": false
    },
    {
      "beat": 111.25,
      "duration": 0.22,
      "midi": 61,
      "velocity": 70,
      "voice": "arp",
      "bar": 27
    },
    {
      "beat": 111.25,
      "duration": 0.05,
      "midi": 42,
      "velocity": 34,
      "voice": "hat",
      "bar": 27
    },
    {
      "beat": 111.5,
      "duration": 0.24,
      "midi": 69,
      "velocity": 80,
      "voice": "acid",
      "bar": 27,
      "slide": true
    },
    {
      "beat": 111.5,
      "duration": 0.22,
      "midi": 64,
      "velocity": 70,
      "voice": "arp",
      "bar": 27
    },
    {
      "beat": 111.5,
      "duration": 0.45,
      "midi": 45,
      "velocity": 100,
      "voice": "bass",
      "bar": 27
    },
    {
      "beat": 111.5,
      "duration": 0.14,
      "midi": 46,
      "velocity": 74,
      "voice": "hat",
      "bar": 27
    },
    {
      "beat": 111.5,
      "duration": 0.1,
      "midi": 62,
      "velocity": 72,
      "voice": "perc",
      "bar": 27
    },
    {
      "beat": 111.5,
      "duration": 0.22,
      "midi": 69,
      "velocity": 92,
      "voice": "stab",
      "bar": 27
    },
    {
      "beat": 111.5,
      "duration": 0.22,
      "midi": 73,
      "velocity": 92,
      "voice": "stab",
      "bar": 27
    },
    {
      "beat": 111.5,
      "duration": 0.22,
      "midi": 76,
      "velocity": 92,
      "voice": "stab",
      "bar": 27
    },
    {
      "beat": 111.75,
      "duration": 0.24,
      "midi": 58,
      "velocity": 80,
      "voice": "acid",
      "bar": 27,
      "slide": false
    },
    {
      "beat": 111.75,
      "duration": 0.22,
      "midi": 69,
      "velocity": 70,
      "voice": "arp",
      "bar": 27
    },
    {
      "beat": 111.75,
      "duration": 0.05,
      "midi": 42,
      "velocity": 34,
      "voice": "hat",
      "bar": 27
    },
    {
      "beat": 112.0,
      "duration": 0.24,
      "midi": 50,
      "velocity": 120,
      "voice": "acid",
      "bar": 28,
      "slide": false
    },
    {
      "beat": 112.0,
      "duration": 0.22,
      "midi": 50,
      "velocity": 84,
      "voice": "arp",
      "bar": 28
    },
    {
      "beat": 112.0,
      "duration": 0.45,
      "midi": 38,
      "velocity": 108,
      "voice": "bass",
      "bar": 28
    },
    {
      "beat": 112,
      "duration": 0.07,
      "midi": 42,
      "velocity": 44,
      "voice": "hat",
      "bar": 28
    },
    {
      "beat": 112,
      "duration": 0.16,
      "midi": 36,
      "velocity": 124,
      "voice": "kick",
      "bar": 28
    },
    {
      "beat": 112,
      "duration": 1,
      "midi": 74,
      "velocity": 112,
      "voice": "lead",
      "bar": 28
    },
    {
      "beat": 112,
      "duration": 4,
      "midi": 50,
      "velocity": 58,
      "voice": "pad",
      "bar": 28
    },
    {
      "beat": 112,
      "duration": 4,
      "midi": 54,
      "velocity": 58,
      "voice": "pad",
      "bar": 28
    },
    {
      "beat": 112,
      "duration": 4,
      "midi": 57,
      "velocity": 58,
      "voice": "pad",
      "bar": 28
    },
    {
      "beat": 112,
      "duration": 4,
      "midi": 62,
      "velocity": 58,
      "voice": "pad",
      "bar": 28
    },
    {
      "beat": 112,
      "duration": 0.18,
      "midi": 64,
      "velocity": 96,
      "voice": "perc",
      "bar": 28
    },
    {
      "beat": 112.25,
      "duration": 0.22,
      "midi": 54,
      "velocity": 70,
      "voice": "arp",
      "bar": 28
    },
    {
      "beat": 112.25,
      "duration": 0.05,
      "midi": 42,
      "velocity": 34,
      "voice": "hat",
      "bar": 28
    },
    {
      "beat": 112.5,
      "duration": 0.24,
      "midi": 62,
      "velocity": 80,
      "voice": "acid",
      "bar": 28,
      "slide": true
    },
    {
      "beat": 112.5,
      "duration": 0.22,
      "midi": 57,
      "velocity": 70,
      "voice": "arp",
      "bar": 28
    },
    {
      "beat": 112.5,
      "duration": 0.45,
      "midi": 38,
      "velocity": 100,
      "voice": "bass",
      "bar": 28
    },
    {
      "beat": 112.5,
      "duration": 0.14,
      "midi": 46,
      "velocity": 74,
      "voice": "hat",
      "bar": 28
    },
    {
      "beat": 112.5,
      "duration": 0.1,
      "midi": 62,
      "velocity": 72,
      "voice": "perc",
      "bar": 28
    },
    {
      "beat": 112.5,
      "duration": 0.22,
      "midi": 62,
      "velocity": 92,
      "voice": "stab",
      "bar": 28
    },
    {
      "beat": 112.5,
      "duration": 0.22,
      "midi": 66,
      "velocity": 92,
      "voice": "stab",
      "bar": 28
    },
    {
      "beat": 112.5,
      "duration": 0.22,
      "midi": 69,
      "velocity": 92,
      "voice": "stab",
      "bar": 28
    },
    {
      "beat": 112.75,
      "duration": 0.24,
      "midi": 50,
      "velocity": 80,
      "voice": "acid",
      "bar": 28,
      "slide": false
    },
    {
      "beat": 112.75,
      "duration": 0.22,
      "midi": 62,
      "velocity": 70,
      "voice": "arp",
      "bar": 28
    },
    {
      "beat": 112.75,
      "duration": 0.05,
      "midi": 42,
      "velocity": 34,
      "voice": "hat",
      "bar": 28
    },
    {
      "beat": 113.0,
      "duration": 0.24,
      "midi": 51,
      "velocity": 120,
      "voice": "acid",
      "bar": 28,
      "slide": false
    },
    {
      "beat": 113.0,
      "duration": 0.22,
      "midi": 57,
      "velocity": 84,
      "voice": "arp",
      "bar": 28
    },
    {
      "beat": 113.0,
      "duration": 0.45,
      "midi": 50,
      "velocity": 100,
      "voice": "bass",
      "bar": 28
    },
    {
      "beat": 113,
      "duration": 0.2,
      "midi": 39,
      "velocity": 104,
      "voice": "clap",
      "bar": 28
    },
    {
      "beat": 113,
      "duration": 0.07,
      "midi": 42,
      "velocity": 44,
      "voice": "hat",
      "bar": 28
    },
    {
      "beat": 113,
      "duration": 0.16,
      "midi": 36,
      "velocity": 116,
      "voice": "kick",
      "bar": 28
    },
    {
      "beat": 113,
      "duration": 0.5,
      "midi": 75,
      "velocity": 112,
      "voice": "lead",
      "bar": 28
    },
    {
      "beat": 113.25,
      "duration": 0.22,
      "midi": 54,
      "velocity": 70,
      "voice": "arp",
      "bar": 28
    },
    {
      "beat": 113.25,
      "duration": 0.05,
      "midi": 42,
      "velocity": 34,
      "voice": "hat",
      "bar": 28
    },
    {
      "beat": 113.5,
      "duration": 0.24,
      "midi": 50,
      "velocity": 80,
      "voice": "acid",
      "bar": 28,
      "slide": false
    },
    {
      "beat": 113.5,
      "duration": 0.22,
      "midi": 50,
      "velocity": 70,
      "voice": "arp",
      "bar": 28
    },
    {
      "beat": 113.5,
      "duration": 0.45,
      "midi": 38,
      "velocity": 100,
      "voice": "bass",
      "bar": 28
    },
    {
      "beat": 113.5,
      "duration": 0.14,
      "midi": 46,
      "velocity": 74,
      "voice": "hat",
      "bar": 28
    },
    {
      "beat": 113.5,
      "duration": 0.5,
      "midi": 74,
      "velocity": 112,
      "voice": "lead",
      "bar": 28
    },
    {
      "beat": 113.5,
      "duration": 0.1,
      "midi": 62,
      "velocity": 72,
      "voice": "perc",
      "bar": 28
    },
    {
      "beat": 113.5,
      "duration": 0.22,
      "midi": 62,
      "velocity": 92,
      "voice": "stab",
      "bar": 28
    },
    {
      "beat": 113.5,
      "duration": 0.22,
      "midi": 66,
      "velocity": 92,
      "voice": "stab",
      "bar": 28
    },
    {
      "beat": 113.5,
      "duration": 0.22,
      "midi": 69,
      "velocity": 92,
      "voice": "stab",
      "bar": 28
    },
    {
      "beat": 113.75,
      "duration": 0.24,
      "midi": 62,
      "velocity": 80,
      "voice": "acid",
      "bar": 28,
      "slide": true
    },
    {
      "beat": 113.75,
      "duration": 0.22,
      "midi": 54,
      "velocity": 70,
      "voice": "arp",
      "bar": 28
    },
    {
      "beat": 113.75,
      "duration": 0.05,
      "midi": 42,
      "velocity": 34,
      "voice": "hat",
      "bar": 28
    },
    {
      "beat": 114.0,
      "duration": 0.24,
      "midi": 50,
      "velocity": 120,
      "voice": "acid",
      "bar": 28,
      "slide": false
    },
    {
      "beat": 114.0,
      "duration": 0.22,
      "midi": 57,
      "velocity": 84,
      "voice": "arp",
      "bar": 28
    },
    {
      "beat": 114.0,
      "duration": 0.45,
      "midi": 38,
      "velocity": 100,
      "voice": "bass",
      "bar": 28
    },
    {
      "beat": 114,
      "duration": 0.07,
      "midi": 42,
      "velocity": 44,
      "voice": "hat",
      "bar": 28
    },
    {
      "beat": 114,
      "duration": 0.16,
      "midi": 36,
      "velocity": 116,
      "voice": "kick",
      "bar": 28
    },
    {
      "beat": 114,
      "duration": 1,
      "midi": 69,
      "velocity": 112,
      "voice": "lead",
      "bar": 28
    },
    {
      "beat": 114,
      "duration": 0.18,
      "midi": 64,
      "velocity": 96,
      "voice": "perc",
      "bar": 28
    },
    {
      "beat": 114.25,
      "duration": 0.22,
      "midi": 62,
      "velocity": 70,
      "voice": "arp",
      "bar": 28
    },
    {
      "beat": 114.25,
      "duration": 0.05,
      "midi": 42,
      "velocity": 34,
      "voice": "hat",
      "bar": 28
    },
    {
      "beat": 114.5,
      "duration": 0.24,
      "midi": 63,
      "velocity": 80,
      "voice": "acid",
      "bar": 28,
      "slide": true
    },
    {
      "beat": 114.5,
      "duration": 0.22,
      "midi": 57,
      "velocity": 70,
      "voice": "arp",
      "bar": 28
    },
    {
      "beat": 114.5,
      "duration": 0.45,
      "midi": 38,
      "velocity": 100,
      "voice": "bass",
      "bar": 28
    },
    {
      "beat": 114.5,
      "duration": 0.14,
      "midi": 46,
      "velocity": 74,
      "voice": "hat",
      "bar": 28
    },
    {
      "beat": 114.5,
      "duration": 0.22,
      "midi": 62,
      "velocity": 92,
      "voice": "stab",
      "bar": 28
    },
    {
      "beat": 114.5,
      "duration": 0.22,
      "midi": 66,
      "velocity": 92,
      "voice": "stab",
      "bar": 28
    },
    {
      "beat": 114.5,
      "duration": 0.22,
      "midi": 69,
      "velocity": 92,
      "voice": "stab",
      "bar": 28
    },
    {
      "beat": 114.75,
      "duration": 0.24,
      "midi": 50,
      "velocity": 80,
      "voice": "acid",
      "bar": 28,
      "slide": false
    },
    {
      "beat": 114.75,
      "duration": 0.22,
      "midi": 54,
      "velocity": 70,
      "voice": "arp",
      "bar": 28
    },
    {
      "beat": 114.75,
      "duration": 0.05,
      "midi": 42,
      "velocity": 34,
      "voice": "hat",
      "bar": 28
    },
    {
      "beat": 115.0,
      "duration": 0.22,
      "midi": 50,
      "velocity": 84,
      "voice": "arp",
      "bar": 28
    },
    {
      "beat": 115.0,
      "duration": 0.45,
      "midi": 50,
      "velocity": 100,
      "voice": "bass",
      "bar": 28
    },
    {
      "beat": 115,
      "duration": 0.2,
      "midi": 39,
      "velocity": 104,
      "voice": "clap",
      "bar": 28
    },
    {
      "beat": 115,
      "duration": 0.07,
      "midi": 42,
      "velocity": 44,
      "voice": "hat",
      "bar": 28
    },
    {
      "beat": 115,
      "duration": 0.16,
      "midi": 36,
      "velocity": 116,
      "voice": "kick",
      "bar": 28
    },
    {
      "beat": 115,
      "duration": 1,
      "midi": 66,
      "velocity": 112,
      "voice": "lead",
      "bar": 28
    },
    {
      "beat": 115,
      "duration": 0.1,
      "midi": 62,
      "velocity": 72,
      "voice": "perc",
      "bar": 28
    },
    {
      "beat": 115.25,
      "duration": 0.24,
      "midi": 50,
      "velocity": 120,
      "voice": "acid",
      "bar": 28,
      "slide": false
    },
    {
      "beat": 115.25,
      "duration": 0.22,
      "midi": 54,
      "velocity": 70,
      "voice": "arp",
      "bar": 28
    },
    {
      "beat": 115.25,
      "duration": 0.05,
      "midi": 42,
      "velocity": 34,
      "voice": "hat",
      "bar": 28
    },
    {
      "beat": 115.5,
      "duration": 0.24,
      "midi": 62,
      "velocity": 80,
      "voice": "acid",
      "bar": 28,
      "slide": true
    },
    {
      "beat": 115.5,
      "duration": 0.22,
      "midi": 57,
      "velocity": 70,
      "voice": "arp",
      "bar": 28
    },
    {
      "beat": 115.5,
      "duration": 0.45,
      "midi": 38,
      "velocity": 100,
      "voice": "bass",
      "bar": 28
    },
    {
      "beat": 115.5,
      "duration": 0.14,
      "midi": 46,
      "velocity": 74,
      "voice": "hat",
      "bar": 28
    },
    {
      "beat": 115.5,
      "duration": 0.1,
      "midi": 62,
      "velocity": 72,
      "voice": "perc",
      "bar": 28
    },
    {
      "beat": 115.5,
      "duration": 0.22,
      "midi": 62,
      "velocity": 92,
      "voice": "stab",
      "bar": 28
    },
    {
      "beat": 115.5,
      "duration": 0.22,
      "midi": 66,
      "velocity": 92,
      "voice": "stab",
      "bar": 28
    },
    {
      "beat": 115.5,
      "duration": 0.22,
      "midi": 69,
      "velocity": 92,
      "voice": "stab",
      "bar": 28
    },
    {
      "beat": 115.75,
      "duration": 0.24,
      "midi": 51,
      "velocity": 80,
      "voice": "acid",
      "bar": 28,
      "slide": false
    },
    {
      "beat": 115.75,
      "duration": 0.22,
      "midi": 62,
      "velocity": 70,
      "voice": "arp",
      "bar": 28
    },
    {
      "beat": 115.75,
      "duration": 0.05,
      "midi": 42,
      "velocity": 34,
      "voice": "hat",
      "bar": 28
    },
    {
      "beat": 116.0,
      "duration": 0.24,
      "midi": 51,
      "velocity": 120,
      "voice": "acid",
      "bar": 29,
      "slide": false
    },
    {
      "beat": 116.0,
      "duration": 0.22,
      "midi": 51,
      "velocity": 84,
      "voice": "arp",
      "bar": 29
    },
    {
      "beat": 116.0,
      "duration": 0.45,
      "midi": 39,
      "velocity": 108,
      "voice": "bass",
      "bar": 29
    },
    {
      "beat": 116,
      "duration": 0.07,
      "midi": 42,
      "velocity": 44,
      "voice": "hat",
      "bar": 29
    },
    {
      "beat": 116,
      "duration": 0.16,
      "midi": 36,
      "velocity": 124,
      "voice": "kick",
      "bar": 29
    },
    {
      "beat": 116,
      "duration": 1.5,
      "midi": 67,
      "velocity": 112,
      "voice": "lead",
      "bar": 29
    },
    {
      "beat": 116,
      "duration": 4,
      "midi": 51,
      "velocity": 58,
      "voice": "pad",
      "bar": 29
    },
    {
      "beat": 116,
      "duration": 4,
      "midi": 55,
      "velocity": 58,
      "voice": "pad",
      "bar": 29
    },
    {
      "beat": 116,
      "duration": 4,
      "midi": 58,
      "velocity": 58,
      "voice": "pad",
      "bar": 29
    },
    {
      "beat": 116,
      "duration": 4,
      "midi": 63,
      "velocity": 58,
      "voice": "pad",
      "bar": 29
    },
    {
      "beat": 116,
      "duration": 0.18,
      "midi": 64,
      "velocity": 96,
      "voice": "perc",
      "bar": 29
    },
    {
      "beat": 116.25,
      "duration": 0.22,
      "midi": 55,
      "velocity": 70,
      "voice": "arp",
      "bar": 29
    },
    {
      "beat": 116.25,
      "duration": 0.05,
      "midi": 42,
      "velocity": 34,
      "voice": "hat",
      "bar": 29
    },
    {
      "beat": 116.5,
      "duration": 0.24,
      "midi": 63,
      "velocity": 80,
      "voice": "acid",
      "bar": 29,
      "slide": true
    },
    {
      "beat": 116.5,
      "duration": 0.22,
      "midi": 58,
      "velocity": 70,
      "voice": "arp",
      "bar": 29
    },
    {
      "beat": 116.5,
      "duration": 0.45,
      "midi": 39,
      "velocity": 100,
      "voice": "bass",
      "bar": 29
    },
    {
      "beat": 116.5,
      "duration": 0.14,
      "midi": 46,
      "velocity": 74,
      "voice": "hat",
      "bar": 29
    },
    {
      "beat": 116.5,
      "duration": 0.1,
      "midi": 62,
      "velocity": 72,
      "voice": "perc",
      "bar": 29
    },
    {
      "beat": 116.5,
      "duration": 0.22,
      "midi": 63,
      "velocity": 92,
      "voice": "stab",
      "bar": 29
    },
    {
      "beat": 116.5,
      "duration": 0.22,
      "midi": 67,
      "velocity": 92,
      "voice": "stab",
      "bar": 29
    },
    {
      "beat": 116.5,
      "duration": 0.22,
      "midi": 70,
      "velocity": 92,
      "voice": "stab",
      "bar": 29
    },
    {
      "beat": 116.75,
      "duration": 0.24,
      "midi": 51,
      "velocity": 80,
      "voice": "acid",
      "bar": 29,
      "slide": false
    },
    {
      "beat": 116.75,
      "duration": 0.22,
      "midi": 63,
      "velocity": 70,
      "voice": "arp",
      "bar": 29
    },
    {
      "beat": 116.75,
      "duration": 0.05,
      "midi": 42,
      "velocity": 34,
      "voice": "hat",
      "bar": 29
    },
    {
      "beat": 117.0,
      "duration": 0.24,
      "midi": 52,
      "velocity": 120,
      "voice": "acid",
      "bar": 29,
      "slide": false
    },
    {
      "beat": 117.0,
      "duration": 0.22,
      "midi": 58,
      "velocity": 84,
      "voice": "arp",
      "bar": 29
    },
    {
      "beat": 117.0,
      "duration": 0.45,
      "midi": 51,
      "velocity": 100,
      "voice": "bass",
      "bar": 29
    },
    {
      "beat": 117,
      "duration": 0.2,
      "midi": 39,
      "velocity": 104,
      "voice": "clap",
      "bar": 29
    },
    {
      "beat": 117,
      "duration": 0.07,
      "midi": 42,
      "velocity": 44,
      "voice": "hat",
      "bar": 29
    },
    {
      "beat": 117,
      "duration": 0.16,
      "midi": 36,
      "velocity": 116,
      "voice": "kick",
      "bar": 29
    },
    {
      "beat": 117.25,
      "duration": 0.22,
      "midi": 55,
      "velocity": 70,
      "voice": "arp",
      "bar": 29
    },
    {
      "beat": 117.25,
      "duration": 0.05,
      "midi": 42,
      "velocity": 34,
      "voice": "hat",
      "bar": 29
    },
    {
      "beat": 117.5,
      "duration": 0.24,
      "midi": 51,
      "velocity": 80,
      "voice": "acid",
      "bar": 29,
      "slide": false
    },
    {
      "beat": 117.5,
      "duration": 0.22,
      "midi": 51,
      "velocity": 70,
      "voice": "arp",
      "bar": 29
    },
    {
      "beat": 117.5,
      "duration": 0.45,
      "midi": 39,
      "velocity": 100,
      "voice": "bass",
      "bar": 29
    },
    {
      "beat": 117.5,
      "duration": 0.14,
      "midi": 46,
      "velocity": 74,
      "voice": "hat",
      "bar": 29
    },
    {
      "beat": 117.5,
      "duration": 0.5,
      "midi": 70,
      "velocity": 112,
      "voice": "lead",
      "bar": 29
    },
    {
      "beat": 117.5,
      "duration": 0.1,
      "midi": 62,
      "velocity": 72,
      "voice": "perc",
      "bar": 29
    },
    {
      "beat": 117.5,
      "duration": 0.22,
      "midi": 63,
      "velocity": 92,
      "voice": "stab",
      "bar": 29
    },
    {
      "beat": 117.5,
      "duration": 0.22,
      "midi": 67,
      "velocity": 92,
      "voice": "stab",
      "bar": 29
    },
    {
      "beat": 117.5,
      "duration": 0.22,
      "midi": 70,
      "velocity": 92,
      "voice": "stab",
      "bar": 29
    },
    {
      "beat": 117.75,
      "duration": 0.24,
      "midi": 63,
      "velocity": 80,
      "voice": "acid",
      "bar": 29,
      "slide": true
    },
    {
      "beat": 117.75,
      "duration": 0.22,
      "midi": 55,
      "velocity": 70,
      "voice": "arp",
      "bar": 29
    },
    {
      "beat": 117.75,
      "duration": 0.05,
      "midi": 42,
      "velocity": 34,
      "voice": "hat",
      "bar": 29
    },
    {
      "beat": 118.0,
      "duration": 0.24,
      "midi": 51,
      "velocity": 120,
      "voice": "acid",
      "bar": 29,
      "slide": false
    },
    {
      "beat": 118.0,
      "duration": 0.22,
      "midi": 58,
      "velocity": 84,
      "voice": "arp",
      "bar": 29
    },
    {
      "beat": 118.0,
      "duration": 0.45,
      "midi": 39,
      "velocity": 100,
      "voice": "bass",
      "bar": 29
    },
    {
      "beat": 118,
      "duration": 0.07,
      "midi": 42,
      "velocity": 44,
      "voice": "hat",
      "bar": 29
    },
    {
      "beat": 118,
      "duration": 0.16,
      "midi": 36,
      "velocity": 116,
      "voice": "kick",
      "bar": 29
    },
    {
      "beat": 118,
      "duration": 1,
      "midi": 69,
      "velocity": 112,
      "voice": "lead",
      "bar": 29
    },
    {
      "beat": 118,
      "duration": 0.18,
      "midi": 64,
      "velocity": 96,
      "voice": "perc",
      "bar": 29
    },
    {
      "beat": 118.25,
      "duration": 0.22,
      "midi": 63,
      "velocity": 70,
      "voice": "arp",
      "bar": 29
    },
    {
      "beat": 118.25,
      "duration": 0.05,
      "midi": 42,
      "velocity": 34,
      "voice": "hat",
      "bar": 29
    },
    {
      "beat": 118.5,
      "duration": 0.24,
      "midi": 64,
      "velocity": 80,
      "voice": "acid",
      "bar": 29,
      "slide": true
    },
    {
      "beat": 118.5,
      "duration": 0.22,
      "midi": 58,
      "velocity": 70,
      "voice": "arp",
      "bar": 29
    },
    {
      "beat": 118.5,
      "duration": 0.45,
      "midi": 39,
      "velocity": 100,
      "voice": "bass",
      "bar": 29
    },
    {
      "beat": 118.5,
      "duration": 0.14,
      "midi": 46,
      "velocity": 74,
      "voice": "hat",
      "bar": 29
    },
    {
      "beat": 118.5,
      "duration": 0.22,
      "midi": 63,
      "velocity": 92,
      "voice": "stab",
      "bar": 29
    },
    {
      "beat": 118.5,
      "duration": 0.22,
      "midi": 67,
      "velocity": 92,
      "voice": "stab",
      "bar": 29
    },
    {
      "beat": 118.5,
      "duration": 0.22,
      "midi": 70,
      "velocity": 92,
      "voice": "stab",
      "bar": 29
    },
    {
      "beat": 118.75,
      "duration": 0.24,
      "midi": 51,
      "velocity": 80,
      "voice": "acid",
      "bar": 29,
      "slide": false
    },
    {
      "beat": 118.75,
      "duration": 0.22,
      "midi": 55,
      "velocity": 70,
      "voice": "arp",
      "bar": 29
    },
    {
      "beat": 118.75,
      "duration": 0.05,
      "midi": 42,
      "velocity": 34,
      "voice": "hat",
      "bar": 29
    },
    {
      "beat": 119.0,
      "duration": 0.22,
      "midi": 51,
      "velocity": 84,
      "voice": "arp",
      "bar": 29
    },
    {
      "beat": 119.0,
      "duration": 0.45,
      "midi": 51,
      "velocity": 100,
      "voice": "bass",
      "bar": 29
    },
    {
      "beat": 119,
      "duration": 0.2,
      "midi": 39,
      "velocity": 104,
      "voice": "clap",
      "bar": 29
    },
    {
      "beat": 119,
      "duration": 0.07,
      "midi": 42,
      "velocity": 44,
      "voice": "hat",
      "bar": 29
    },
    {
      "beat": 119,
      "duration": 0.16,
      "midi": 36,
      "velocity": 116,
      "voice": "kick",
      "bar": 29
    },
    {
      "beat": 119,
      "duration": 1,
      "midi": 67,
      "velocity": 112,
      "voice": "lead",
      "bar": 29
    },
    {
      "beat": 119,
      "duration": 0.1,
      "midi": 62,
      "velocity": 72,
      "voice": "perc",
      "bar": 29
    },
    {
      "beat": 119.25,
      "duration": 0.24,
      "midi": 51,
      "velocity": 120,
      "voice": "acid",
      "bar": 29,
      "slide": false
    },
    {
      "beat": 119.25,
      "duration": 0.22,
      "midi": 55,
      "velocity": 70,
      "voice": "arp",
      "bar": 29
    },
    {
      "beat": 119.25,
      "duration": 0.05,
      "midi": 42,
      "velocity": 34,
      "voice": "hat",
      "bar": 29
    },
    {
      "beat": 119.5,
      "duration": 0.24,
      "midi": 63,
      "velocity": 80,
      "voice": "acid",
      "bar": 29,
      "slide": true
    },
    {
      "beat": 119.5,
      "duration": 0.22,
      "midi": 58,
      "velocity": 70,
      "voice": "arp",
      "bar": 29
    },
    {
      "beat": 119.5,
      "duration": 0.45,
      "midi": 39,
      "velocity": 100,
      "voice": "bass",
      "bar": 29
    },
    {
      "beat": 119.5,
      "duration": 0.14,
      "midi": 46,
      "velocity": 74,
      "voice": "hat",
      "bar": 29
    },
    {
      "beat": 119.5,
      "duration": 0.1,
      "midi": 62,
      "velocity": 72,
      "voice": "perc",
      "bar": 29
    },
    {
      "beat": 119.5,
      "duration": 0.22,
      "midi": 63,
      "velocity": 92,
      "voice": "stab",
      "bar": 29
    },
    {
      "beat": 119.5,
      "duration": 0.22,
      "midi": 67,
      "velocity": 92,
      "voice": "stab",
      "bar": 29
    },
    {
      "beat": 119.5,
      "duration": 0.22,
      "midi": 70,
      "velocity": 92,
      "voice": "stab",
      "bar": 29
    },
    {
      "beat": 119.75,
      "duration": 0.24,
      "midi": 52,
      "velocity": 80,
      "voice": "acid",
      "bar": 29,
      "slide": false
    },
    {
      "beat": 119.75,
      "duration": 0.22,
      "midi": 63,
      "velocity": 70,
      "voice": "arp",
      "bar": 29
    },
    {
      "beat": 119.75,
      "duration": 0.05,
      "midi": 42,
      "velocity": 34,
      "voice": "hat",
      "bar": 29
    },
    {
      "beat": 120.0,
      "duration": 0.24,
      "midi": 55,
      "velocity": 120,
      "voice": "acid",
      "bar": 30,
      "slide": false
    },
    {
      "beat": 120.0,
      "duration": 0.22,
      "midi": 55,
      "velocity": 84,
      "voice": "arp",
      "bar": 30
    },
    {
      "beat": 120.0,
      "duration": 0.45,
      "midi": 43,
      "velocity": 108,
      "voice": "bass",
      "bar": 30
    },
    {
      "beat": 120,
      "duration": 0.07,
      "midi": 42,
      "velocity": 44,
      "voice": "hat",
      "bar": 30
    },
    {
      "beat": 120,
      "duration": 0.16,
      "midi": 36,
      "velocity": 124,
      "voice": "kick",
      "bar": 30
    },
    {
      "beat": 120,
      "duration": 1,
      "midi": 70,
      "velocity": 112,
      "voice": "lead",
      "bar": 30
    },
    {
      "beat": 120,
      "duration": 4,
      "midi": 55,
      "velocity": 58,
      "voice": "pad",
      "bar": 30
    },
    {
      "beat": 120,
      "duration": 4,
      "midi": 58,
      "velocity": 58,
      "voice": "pad",
      "bar": 30
    },
    {
      "beat": 120,
      "duration": 4,
      "midi": 62,
      "velocity": 58,
      "voice": "pad",
      "bar": 30
    },
    {
      "beat": 120,
      "duration": 4,
      "midi": 67,
      "velocity": 58,
      "voice": "pad",
      "bar": 30
    },
    {
      "beat": 120,
      "duration": 0.18,
      "midi": 64,
      "velocity": 96,
      "voice": "perc",
      "bar": 30
    },
    {
      "beat": 120.25,
      "duration": 0.22,
      "midi": 58,
      "velocity": 70,
      "voice": "arp",
      "bar": 30
    },
    {
      "beat": 120.25,
      "duration": 0.05,
      "midi": 42,
      "velocity": 34,
      "voice": "hat",
      "bar": 30
    },
    {
      "beat": 120.5,
      "duration": 0.24,
      "midi": 67,
      "velocity": 80,
      "voice": "acid",
      "bar": 30,
      "slide": true
    },
    {
      "beat": 120.5,
      "duration": 0.22,
      "midi": 62,
      "velocity": 70,
      "voice": "arp",
      "bar": 30
    },
    {
      "beat": 120.5,
      "duration": 0.45,
      "midi": 43,
      "velocity": 100,
      "voice": "bass",
      "bar": 30
    },
    {
      "beat": 120.5,
      "duration": 0.14,
      "midi": 46,
      "velocity": 74,
      "voice": "hat",
      "bar": 30
    },
    {
      "beat": 120.5,
      "duration": 0.1,
      "midi": 62,
      "velocity": 72,
      "voice": "perc",
      "bar": 30
    },
    {
      "beat": 120.5,
      "duration": 0.22,
      "midi": 67,
      "velocity": 92,
      "voice": "stab",
      "bar": 30
    },
    {
      "beat": 120.5,
      "duration": 0.22,
      "midi": 70,
      "velocity": 92,
      "voice": "stab",
      "bar": 30
    },
    {
      "beat": 120.5,
      "duration": 0.22,
      "midi": 74,
      "velocity": 92,
      "voice": "stab",
      "bar": 30
    },
    {
      "beat": 120.75,
      "duration": 0.24,
      "midi": 55,
      "velocity": 80,
      "voice": "acid",
      "bar": 30,
      "slide": false
    },
    {
      "beat": 120.75,
      "duration": 0.22,
      "midi": 67,
      "velocity": 70,
      "voice": "arp",
      "bar": 30
    },
    {
      "beat": 120.75,
      "duration": 0.05,
      "midi": 42,
      "velocity": 34,
      "voice": "hat",
      "bar": 30
    },
    {
      "beat": 121.0,
      "duration": 0.24,
      "midi": 56,
      "velocity": 120,
      "voice": "acid",
      "bar": 30,
      "slide": false
    },
    {
      "beat": 121.0,
      "duration": 0.22,
      "midi": 62,
      "velocity": 84,
      "voice": "arp",
      "bar": 30
    },
    {
      "beat": 121.0,
      "duration": 0.45,
      "midi": 55,
      "velocity": 100,
      "voice": "bass",
      "bar": 30
    },
    {
      "beat": 121,
      "duration": 0.2,
      "midi": 39,
      "velocity": 104,
      "voice": "clap",
      "bar": 30
    },
    {
      "beat": 121,
      "duration": 0.07,
      "midi": 42,
      "velocity": 44,
      "voice": "hat",
      "bar": 30
    },
    {
      "beat": 121,
      "duration": 0.16,
      "midi": 36,
      "velocity": 116,
      "voice": "kick",
      "bar": 30
    },
    {
      "beat": 121,
      "duration": 0.5,
      "midi": 69,
      "velocity": 112,
      "voice": "lead",
      "bar": 30
    },
    {
      "beat": 121.25,
      "duration": 0.22,
      "midi": 58,
      "velocity": 70,
      "voice": "arp",
      "bar": 30
    },
    {
      "beat": 121.25,
      "duration": 0.05,
      "midi": 42,
      "velocity": 34,
      "voice": "hat",
      "bar": 30
    },
    {
      "beat": 121.5,
      "duration": 0.24,
      "midi": 55,
      "velocity": 80,
      "voice": "acid",
      "bar": 30,
      "slide": false
    },
    {
      "beat": 121.5,
      "duration": 0.22,
      "midi": 55,
      "velocity": 70,
      "voice": "arp",
      "bar": 30
    },
    {
      "beat": 121.5,
      "duration": 0.45,
      "midi": 43,
      "velocity": 100,
      "voice": "bass",
      "bar": 30
    },
    {
      "beat": 121.5,
      "duration": 0.14,
      "midi": 46,
      "velocity": 74,
      "voice": "hat",
      "bar": 30
    },
    {
      "beat": 121.5,
      "duration": 0.5,
      "midi": 67,
      "velocity": 112,
      "voice": "lead",
      "bar": 30
    },
    {
      "beat": 121.5,
      "duration": 0.1,
      "midi": 62,
      "velocity": 72,
      "voice": "perc",
      "bar": 30
    },
    {
      "beat": 121.5,
      "duration": 0.22,
      "midi": 67,
      "velocity": 92,
      "voice": "stab",
      "bar": 30
    },
    {
      "beat": 121.5,
      "duration": 0.22,
      "midi": 70,
      "velocity": 92,
      "voice": "stab",
      "bar": 30
    },
    {
      "beat": 121.5,
      "duration": 0.22,
      "midi": 74,
      "velocity": 92,
      "voice": "stab",
      "bar": 30
    },
    {
      "beat": 121.75,
      "duration": 0.24,
      "midi": 67,
      "velocity": 80,
      "voice": "acid",
      "bar": 30,
      "slide": true
    },
    {
      "beat": 121.75,
      "duration": 0.22,
      "midi": 58,
      "velocity": 70,
      "voice": "arp",
      "bar": 30
    },
    {
      "beat": 121.75,
      "duration": 0.05,
      "midi": 42,
      "velocity": 34,
      "voice": "hat",
      "bar": 30
    },
    {
      "beat": 122.0,
      "duration": 0.24,
      "midi": 55,
      "velocity": 120,
      "voice": "acid",
      "bar": 30,
      "slide": false
    },
    {
      "beat": 122.0,
      "duration": 0.22,
      "midi": 62,
      "velocity": 84,
      "voice": "arp",
      "bar": 30
    },
    {
      "beat": 122.0,
      "duration": 0.45,
      "midi": 43,
      "velocity": 100,
      "voice": "bass",
      "bar": 30
    },
    {
      "beat": 122,
      "duration": 0.07,
      "midi": 42,
      "velocity": 44,
      "voice": "hat",
      "bar": 30
    },
    {
      "beat": 122,
      "duration": 0.16,
      "midi": 36,
      "velocity": 116,
      "voice": "kick",
      "bar": 30
    },
    {
      "beat": 122,
      "duration": 1,
      "midi": 74,
      "velocity": 112,
      "voice": "lead",
      "bar": 30
    },
    {
      "beat": 122,
      "duration": 0.18,
      "midi": 64,
      "velocity": 96,
      "voice": "perc",
      "bar": 30
    },
    {
      "beat": 122.25,
      "duration": 0.22,
      "midi": 67,
      "velocity": 70,
      "voice": "arp",
      "bar": 30
    },
    {
      "beat": 122.25,
      "duration": 0.05,
      "midi": 42,
      "velocity": 34,
      "voice": "hat",
      "bar": 30
    },
    {
      "beat": 122.5,
      "duration": 0.24,
      "midi": 68,
      "velocity": 80,
      "voice": "acid",
      "bar": 30,
      "slide": true
    },
    {
      "beat": 122.5,
      "duration": 0.22,
      "midi": 62,
      "velocity": 70,
      "voice": "arp",
      "bar": 30
    },
    {
      "beat": 122.5,
      "duration": 0.45,
      "midi": 43,
      "velocity": 100,
      "voice": "bass",
      "bar": 30
    },
    {
      "beat": 122.5,
      "duration": 0.14,
      "midi": 46,
      "velocity": 74,
      "voice": "hat",
      "bar": 30
    },
    {
      "beat": 122.5,
      "duration": 0.22,
      "midi": 67,
      "velocity": 92,
      "voice": "stab",
      "bar": 30
    },
    {
      "beat": 122.5,
      "duration": 0.22,
      "midi": 70,
      "velocity": 92,
      "voice": "stab",
      "bar": 30
    },
    {
      "beat": 122.5,
      "duration": 0.22,
      "midi": 74,
      "velocity": 92,
      "voice": "stab",
      "bar": 30
    },
    {
      "beat": 122.75,
      "duration": 0.24,
      "midi": 55,
      "velocity": 80,
      "voice": "acid",
      "bar": 30,
      "slide": false
    },
    {
      "beat": 122.75,
      "duration": 0.22,
      "midi": 58,
      "velocity": 70,
      "voice": "arp",
      "bar": 30
    },
    {
      "beat": 122.75,
      "duration": 0.05,
      "midi": 42,
      "velocity": 34,
      "voice": "hat",
      "bar": 30
    },
    {
      "beat": 123.0,
      "duration": 0.22,
      "midi": 55,
      "velocity": 84,
      "voice": "arp",
      "bar": 30
    },
    {
      "beat": 123.0,
      "duration": 0.45,
      "midi": 55,
      "velocity": 100,
      "voice": "bass",
      "bar": 30
    },
    {
      "beat": 123,
      "duration": 0.2,
      "midi": 39,
      "velocity": 104,
      "voice": "clap",
      "bar": 30
    },
    {
      "beat": 123,
      "duration": 0.07,
      "midi": 42,
      "velocity": 44,
      "voice": "hat",
      "bar": 30
    },
    {
      "beat": 123,
      "duration": 0.16,
      "midi": 36,
      "velocity": 116,
      "voice": "kick",
      "bar": 30
    },
    {
      "beat": 123,
      "duration": 1,
      "midi": 70,
      "velocity": 112,
      "voice": "lead",
      "bar": 30
    },
    {
      "beat": 123,
      "duration": 0.1,
      "midi": 62,
      "velocity": 72,
      "voice": "perc",
      "bar": 30
    },
    {
      "beat": 123.25,
      "duration": 0.24,
      "midi": 55,
      "velocity": 120,
      "voice": "acid",
      "bar": 30,
      "slide": false
    },
    {
      "beat": 123.25,
      "duration": 0.22,
      "midi": 58,
      "velocity": 70,
      "voice": "arp",
      "bar": 30
    },
    {
      "beat": 123.25,
      "duration": 0.05,
      "midi": 42,
      "velocity": 34,
      "voice": "hat",
      "bar": 30
    },
    {
      "beat": 123.5,
      "duration": 0.24,
      "midi": 67,
      "velocity": 80,
      "voice": "acid",
      "bar": 30,
      "slide": true
    },
    {
      "beat": 123.5,
      "duration": 0.22,
      "midi": 62,
      "velocity": 70,
      "voice": "arp",
      "bar": 30
    },
    {
      "beat": 123.5,
      "duration": 0.45,
      "midi": 43,
      "velocity": 100,
      "voice": "bass",
      "bar": 30
    },
    {
      "beat": 123.5,
      "duration": 0.14,
      "midi": 46,
      "velocity": 74,
      "voice": "hat",
      "bar": 30
    },
    {
      "beat": 123.5,
      "duration": 0.1,
      "midi": 62,
      "velocity": 72,
      "voice": "perc",
      "bar": 30
    },
    {
      "beat": 123.5,
      "duration": 0.22,
      "midi": 67,
      "velocity": 92,
      "voice": "stab",
      "bar": 30
    },
    {
      "beat": 123.5,
      "duration": 0.22,
      "midi": 70,
      "velocity": 92,
      "voice": "stab",
      "bar": 30
    },
    {
      "beat": 123.5,
      "duration": 0.22,
      "midi": 74,
      "velocity": 92,
      "voice": "stab",
      "bar": 30
    },
    {
      "beat": 123.75,
      "duration": 0.24,
      "midi": 56,
      "velocity": 80,
      "voice": "acid",
      "bar": 30,
      "slide": false
    },
    {
      "beat": 123.75,
      "duration": 0.22,
      "midi": 67,
      "velocity": 70,
      "voice": "arp",
      "bar": 30
    },
    {
      "beat": 123.75,
      "duration": 0.05,
      "midi": 42,
      "velocity": 34,
      "voice": "hat",
      "bar": 30
    },
    {
      "beat": 124.0,
      "duration": 0.24,
      "midi": 57,
      "velocity": 120,
      "voice": "acid",
      "bar": 31,
      "slide": false
    },
    {
      "beat": 124.0,
      "duration": 0.22,
      "midi": 57,
      "velocity": 84,
      "voice": "arp",
      "bar": 31
    },
    {
      "beat": 124.0,
      "duration": 0.45,
      "midi": 45,
      "velocity": 108,
      "voice": "bass",
      "bar": 31
    },
    {
      "beat": 124,
      "duration": 0.07,
      "midi": 42,
      "velocity": 44,
      "voice": "hat",
      "bar": 31
    },
    {
      "beat": 124,
      "duration": 0.16,
      "midi": 36,
      "velocity": 124,
      "voice": "kick",
      "bar": 31
    },
    {
      "beat": 124,
      "duration": 1,
      "midi": 73,
      "velocity": 112,
      "voice": "lead",
      "bar": 31
    },
    {
      "beat": 124,
      "duration": 4,
      "midi": 57,
      "velocity": 58,
      "voice": "pad",
      "bar": 31
    },
    {
      "beat": 124,
      "duration": 4,
      "midi": 61,
      "velocity": 58,
      "voice": "pad",
      "bar": 31
    },
    {
      "beat": 124,
      "duration": 4,
      "midi": 64,
      "velocity": 58,
      "voice": "pad",
      "bar": 31
    },
    {
      "beat": 124,
      "duration": 4,
      "midi": 69,
      "velocity": 58,
      "voice": "pad",
      "bar": 31
    },
    {
      "beat": 124,
      "duration": 0.18,
      "midi": 64,
      "velocity": 96,
      "voice": "perc",
      "bar": 31
    },
    {
      "beat": 124.25,
      "duration": 0.22,
      "midi": 61,
      "velocity": 70,
      "voice": "arp",
      "bar": 31
    },
    {
      "beat": 124.25,
      "duration": 0.05,
      "midi": 42,
      "velocity": 34,
      "voice": "hat",
      "bar": 31
    },
    {
      "beat": 124.5,
      "duration": 0.24,
      "midi": 69,
      "velocity": 80,
      "voice": "acid",
      "bar": 31,
      "slide": true
    },
    {
      "beat": 124.5,
      "duration": 0.22,
      "midi": 64,
      "velocity": 70,
      "voice": "arp",
      "bar": 31
    },
    {
      "beat": 124.5,
      "duration": 0.45,
      "midi": 45,
      "velocity": 100,
      "voice": "bass",
      "bar": 31
    },
    {
      "beat": 124.5,
      "duration": 0.14,
      "midi": 46,
      "velocity": 74,
      "voice": "hat",
      "bar": 31
    },
    {
      "beat": 124.5,
      "duration": 0.1,
      "midi": 62,
      "velocity": 72,
      "voice": "perc",
      "bar": 31
    },
    {
      "beat": 124.5,
      "duration": 0.22,
      "midi": 69,
      "velocity": 92,
      "voice": "stab",
      "bar": 31
    },
    {
      "beat": 124.5,
      "duration": 0.22,
      "midi": 73,
      "velocity": 92,
      "voice": "stab",
      "bar": 31
    },
    {
      "beat": 124.5,
      "duration": 0.22,
      "midi": 76,
      "velocity": 92,
      "voice": "stab",
      "bar": 31
    },
    {
      "beat": 124.75,
      "duration": 0.24,
      "midi": 57,
      "velocity": 80,
      "voice": "acid",
      "bar": 31,
      "slide": false
    },
    {
      "beat": 124.75,
      "duration": 0.22,
      "midi": 69,
      "velocity": 70,
      "voice": "arp",
      "bar": 31
    },
    {
      "beat": 124.75,
      "duration": 0.05,
      "midi": 42,
      "velocity": 34,
      "voice": "hat",
      "bar": 31
    },
    {
      "beat": 125.0,
      "duration": 0.24,
      "midi": 58,
      "velocity": 120,
      "voice": "acid",
      "bar": 31,
      "slide": false
    },
    {
      "beat": 125.0,
      "duration": 0.22,
      "midi": 64,
      "velocity": 84,
      "voice": "arp",
      "bar": 31
    },
    {
      "beat": 125.0,
      "duration": 0.45,
      "midi": 57,
      "velocity": 100,
      "voice": "bass",
      "bar": 31
    },
    {
      "beat": 125,
      "duration": 0.2,
      "midi": 39,
      "velocity": 104,
      "voice": "clap",
      "bar": 31
    },
    {
      "beat": 125,
      "duration": 0.07,
      "midi": 42,
      "velocity": 44,
      "voice": "hat",
      "bar": 31
    },
    {
      "beat": 125,
      "duration": 0.16,
      "midi": 36,
      "velocity": 116,
      "voice": "kick",
      "bar": 31
    },
    {
      "beat": 125,
      "duration": 0.5,
      "midi": 74,
      "velocity": 112,
      "voice": "lead",
      "bar": 31
    },
    {
      "beat": 125.25,
      "duration": 0.22,
      "midi": 61,
      "velocity": 70,
      "voice": "arp",
      "bar": 31
    },
    {
      "beat": 125.25,
      "duration": 0.05,
      "midi": 42,
      "velocity": 34,
      "voice": "hat",
      "bar": 31
    },
    {
      "beat": 125.5,
      "duration": 0.24,
      "midi": 57,
      "velocity": 80,
      "voice": "acid",
      "bar": 31,
      "slide": false
    },
    {
      "beat": 125.5,
      "duration": 0.22,
      "midi": 57,
      "velocity": 70,
      "voice": "arp",
      "bar": 31
    },
    {
      "beat": 125.5,
      "duration": 0.45,
      "midi": 45,
      "velocity": 100,
      "voice": "bass",
      "bar": 31
    },
    {
      "beat": 125.5,
      "duration": 0.14,
      "midi": 46,
      "velocity": 74,
      "voice": "hat",
      "bar": 31
    },
    {
      "beat": 125.5,
      "duration": 0.5,
      "midi": 73,
      "velocity": 112,
      "voice": "lead",
      "bar": 31
    },
    {
      "beat": 125.5,
      "duration": 0.1,
      "midi": 62,
      "velocity": 72,
      "voice": "perc",
      "bar": 31
    },
    {
      "beat": 125.5,
      "duration": 0.22,
      "midi": 69,
      "velocity": 92,
      "voice": "stab",
      "bar": 31
    },
    {
      "beat": 125.5,
      "duration": 0.22,
      "midi": 73,
      "velocity": 92,
      "voice": "stab",
      "bar": 31
    },
    {
      "beat": 125.5,
      "duration": 0.22,
      "midi": 76,
      "velocity": 92,
      "voice": "stab",
      "bar": 31
    },
    {
      "beat": 125.75,
      "duration": 0.24,
      "midi": 69,
      "velocity": 80,
      "voice": "acid",
      "bar": 31,
      "slide": true
    },
    {
      "beat": 125.75,
      "duration": 0.22,
      "midi": 61,
      "velocity": 70,
      "voice": "arp",
      "bar": 31
    },
    {
      "beat": 125.75,
      "duration": 0.05,
      "midi": 42,
      "velocity": 34,
      "voice": "hat",
      "bar": 31
    },
    {
      "beat": 126.0,
      "duration": 0.24,
      "midi": 57,
      "velocity": 120,
      "voice": "acid",
      "bar": 31,
      "slide": false
    },
    {
      "beat": 126.0,
      "duration": 0.22,
      "midi": 64,
      "velocity": 84,
      "voice": "arp",
      "bar": 31
    },
    {
      "beat": 126.0,
      "duration": 0.45,
      "midi": 45,
      "velocity": 100,
      "voice": "bass",
      "bar": 31
    },
    {
      "beat": 126,
      "duration": 0.07,
      "midi": 42,
      "velocity": 44,
      "voice": "hat",
      "bar": 31
    },
    {
      "beat": 126,
      "duration": 0.16,
      "midi": 36,
      "velocity": 116,
      "voice": "kick",
      "bar": 31
    },
    {
      "beat": 126,
      "duration": 2,
      "midi": 69,
      "velocity": 112,
      "voice": "lead",
      "bar": 31
    },
    {
      "beat": 126,
      "duration": 0.18,
      "midi": 64,
      "velocity": 96,
      "voice": "perc",
      "bar": 31
    },
    {
      "beat": 126.25,
      "duration": 0.22,
      "midi": 69,
      "velocity": 70,
      "voice": "arp",
      "bar": 31
    },
    {
      "beat": 126.25,
      "duration": 0.05,
      "midi": 42,
      "velocity": 34,
      "voice": "hat",
      "bar": 31
    },
    {
      "beat": 126.5,
      "duration": 0.24,
      "midi": 70,
      "velocity": 80,
      "voice": "acid",
      "bar": 31,
      "slide": true
    },
    {
      "beat": 126.5,
      "duration": 0.22,
      "midi": 64,
      "velocity": 70,
      "voice": "arp",
      "bar": 31
    },
    {
      "beat": 126.5,
      "duration": 0.45,
      "midi": 45,
      "velocity": 100,
      "voice": "bass",
      "bar": 31
    },
    {
      "beat": 126.5,
      "duration": 0.14,
      "midi": 46,
      "velocity": 74,
      "voice": "hat",
      "bar": 31
    },
    {
      "beat": 126.5,
      "duration": 0.22,
      "midi": 69,
      "velocity": 92,
      "voice": "stab",
      "bar": 31
    },
    {
      "beat": 126.5,
      "duration": 0.22,
      "midi": 73,
      "velocity": 92,
      "voice": "stab",
      "bar": 31
    },
    {
      "beat": 126.5,
      "duration": 0.22,
      "midi": 76,
      "velocity": 92,
      "voice": "stab",
      "bar": 31
    },
    {
      "beat": 126.75,
      "duration": 0.24,
      "midi": 57,
      "velocity": 80,
      "voice": "acid",
      "bar": 31,
      "slide": false
    },
    {
      "beat": 126.75,
      "duration": 0.22,
      "midi": 61,
      "velocity": 70,
      "voice": "arp",
      "bar": 31
    },
    {
      "beat": 126.75,
      "duration": 0.05,
      "midi": 42,
      "velocity": 34,
      "voice": "hat",
      "bar": 31
    },
    {
      "beat": 127.0,
      "duration": 0.22,
      "midi": 57,
      "velocity": 84,
      "voice": "arp",
      "bar": 31
    },
    {
      "beat": 127.0,
      "duration": 0.45,
      "midi": 57,
      "velocity": 100,
      "voice": "bass",
      "bar": 31
    },
    {
      "beat": 127,
      "duration": 0.2,
      "midi": 39,
      "velocity": 104,
      "voice": "clap",
      "bar": 31
    },
    {
      "beat": 127,
      "duration": 0.07,
      "midi": 42,
      "velocity": 44,
      "voice": "hat",
      "bar": 31
    },
    {
      "beat": 127,
      "duration": 0.16,
      "midi": 36,
      "velocity": 116,
      "voice": "kick",
      "bar": 31
    },
    {
      "beat": 127,
      "duration": 0.1,
      "midi": 62,
      "velocity": 72,
      "voice": "perc",
      "bar": 31
    },
    {
      "beat": 127.25,
      "duration": 0.24,
      "midi": 57,
      "velocity": 120,
      "voice": "acid",
      "bar": 31,
      "slide": false
    },
    {
      "beat": 127.25,
      "duration": 0.22,
      "midi": 61,
      "velocity": 70,
      "voice": "arp",
      "bar": 31
    },
    {
      "beat": 127.25,
      "duration": 0.05,
      "midi": 42,
      "velocity": 34,
      "voice": "hat",
      "bar": 31
    },
    {
      "beat": 127.5,
      "duration": 0.24,
      "midi": 69,
      "velocity": 80,
      "voice": "acid",
      "bar": 31,
      "slide": true
    },
    {
      "beat": 127.5,
      "duration": 0.22,
      "midi": 64,
      "velocity": 70,
      "voice": "arp",
      "bar": 31
    },
    {
      "beat": 127.5,
      "duration": 0.45,
      "midi": 45,
      "velocity": 100,
      "voice": "bass",
      "bar": 31
    },
    {
      "beat": 127.5,
      "duration": 0.14,
      "midi": 46,
      "velocity": 74,
      "voice": "hat",
      "bar": 31
    },
    {
      "beat": 127.5,
      "duration": 0.1,
      "midi": 62,
      "velocity": 72,
      "voice": "perc",
      "bar": 31
    },
    {
      "beat": 127.5,
      "duration": 0.22,
      "midi": 69,
      "velocity": 92,
      "voice": "stab",
      "bar": 31
    },
    {
      "beat": 127.5,
      "duration": 0.22,
      "midi": 73,
      "velocity": 92,
      "voice": "stab",
      "bar": 31
    },
    {
      "beat": 127.5,
      "duration": 0.22,
      "midi": 76,
      "velocity": 92,
      "voice": "stab",
      "bar": 31
    },
    {
      "beat": 127.75,
      "duration": 0.24,
      "midi": 58,
      "velocity": 80,
      "voice": "acid",
      "bar": 31,
      "slide": false
    },
    {
      "beat": 127.75,
      "duration": 0.22,
      "midi": 69,
      "velocity": 70,
      "voice": "arp",
      "bar": 31
    },
    {
      "beat": 127.75,
      "duration": 0.05,
      "midi": 42,
      "velocity": 34,
      "voice": "hat",
      "bar": 31
    },
    {
      "beat": 128.0,
      "duration": 0.24,
      "midi": 86,
      "velocity": 92,
      "voice": "oud",
      "bar": 32
    },
    {
      "beat": 128,
      "duration": 4,
      "midi": 50,
      "velocity": 58,
      "voice": "pad",
      "bar": 32
    },
    {
      "beat": 128,
      "duration": 4,
      "midi": 54,
      "velocity": 58,
      "voice": "pad",
      "bar": 32
    },
    {
      "beat": 128,
      "duration": 4,
      "midi": 57,
      "velocity": 58,
      "voice": "pad",
      "bar": 32
    },
    {
      "beat": 128,
      "duration": 4,
      "midi": 62,
      "velocity": 58,
      "voice": "pad",
      "bar": 32
    },
    {
      "beat": 128,
      "duration": 0.18,
      "midi": 64,
      "velocity": 96,
      "voice": "perc",
      "bar": 32
    },
    {
      "beat": 128.25,
      "duration": 0.24,
      "midi": 85,
      "velocity": 78,
      "voice": "oud",
      "bar": 32
    },
    {
      "beat": 128.5,
      "duration": 0.24,
      "midi": 82,
      "velocity": 78,
      "voice": "oud",
      "bar": 32
    },
    {
      "beat": 128.5,
      "duration": 0.1,
      "midi": 62,
      "velocity": 72,
      "voice": "perc",
      "bar": 32
    },
    {
      "beat": 128.75,
      "duration": 0.24,
      "midi": 81,
      "velocity": 78,
      "voice": "oud",
      "bar": 32
    },
    {
      "beat": 129.0,
      "duration": 0.24,
      "midi": 79,
      "velocity": 92,
      "voice": "oud",
      "bar": 32
    },
    {
      "beat": 129.25,
      "duration": 0.24,
      "midi": 78,
      "velocity": 78,
      "voice": "oud",
      "bar": 32
    },
    {
      "beat": 129.5,
      "duration": 0.24,
      "midi": 75,
      "velocity": 78,
      "voice": "oud",
      "bar": 32
    },
    {
      "beat": 129.5,
      "duration": 0.1,
      "midi": 62,
      "velocity": 72,
      "voice": "perc",
      "bar": 32
    },
    {
      "beat": 129.75,
      "duration": 0.24,
      "midi": 74,
      "velocity": 78,
      "voice": "oud",
      "bar": 32
    },
    {
      "beat": 130.0,
      "duration": 0.24,
      "midi": 73,
      "velocity": 92,
      "voice": "oud",
      "bar": 32
    },
    {
      "beat": 130,
      "duration": 0.18,
      "midi": 64,
      "velocity": 96,
      "voice": "perc",
      "bar": 32
    },
    {
      "beat": 130.25,
      "duration": 0.24,
      "midi": 70,
      "velocity": 78,
      "voice": "oud",
      "bar": 32
    },
    {
      "beat": 130.5,
      "duration": 0.24,
      "midi": 69,
      "velocity": 78,
      "voice": "oud",
      "bar": 32
    },
    {
      "beat": 130.75,
      "duration": 0.24,
      "midi": 67,
      "velocity": 78,
      "voice": "oud",
      "bar": 32
    },
    {
      "beat": 131.0,
      "duration": 0.24,
      "midi": 66,
      "velocity": 92,
      "voice": "oud",
      "bar": 32
    },
    {
      "beat": 131,
      "duration": 0.1,
      "midi": 62,
      "velocity": 72,
      "voice": "perc",
      "bar": 32
    },
    {
      "beat": 131.25,
      "duration": 0.24,
      "midi": 63,
      "velocity": 78,
      "voice": "oud",
      "bar": 32
    },
    {
      "beat": 131.5,
      "duration": 0.24,
      "midi": 62,
      "velocity": 78,
      "voice": "oud",
      "bar": 32
    },
    {
      "beat": 131.5,
      "duration": 0.1,
      "midi": 62,
      "velocity": 72,
      "voice": "perc",
      "bar": 32
    },
    {
      "beat": 131.75,
      "duration": 0.24,
      "midi": 61,
      "velocity": 78,
      "voice": "oud",
      "bar": 32
    },
    {
      "beat": 132.0,
      "duration": 0.24,
      "midi": 86,
      "velocity": 92,
      "voice": "oud",
      "bar": 33
    },
    {
      "beat": 132,
      "duration": 4,
      "midi": 51,
      "velocity": 58,
      "voice": "pad",
      "bar": 33
    },
    {
      "beat": 132,
      "duration": 4,
      "midi": 55,
      "velocity": 58,
      "voice": "pad",
      "bar": 33
    },
    {
      "beat": 132,
      "duration": 4,
      "midi": 58,
      "velocity": 58,
      "voice": "pad",
      "bar": 33
    },
    {
      "beat": 132,
      "duration": 4,
      "midi": 63,
      "velocity": 58,
      "voice": "pad",
      "bar": 33
    },
    {
      "beat": 132,
      "duration": 0.18,
      "midi": 64,
      "velocity": 96,
      "voice": "perc",
      "bar": 33
    },
    {
      "beat": 132.25,
      "duration": 0.24,
      "midi": 85,
      "velocity": 78,
      "voice": "oud",
      "bar": 33
    },
    {
      "beat": 132.5,
      "duration": 0.24,
      "midi": 82,
      "velocity": 78,
      "voice": "oud",
      "bar": 33
    },
    {
      "beat": 132.5,
      "duration": 0.1,
      "midi": 62,
      "velocity": 72,
      "voice": "perc",
      "bar": 33
    },
    {
      "beat": 132.75,
      "duration": 0.24,
      "midi": 81,
      "velocity": 78,
      "voice": "oud",
      "bar": 33
    },
    {
      "beat": 133.0,
      "duration": 0.24,
      "midi": 79,
      "velocity": 92,
      "voice": "oud",
      "bar": 33
    },
    {
      "beat": 133.25,
      "duration": 0.24,
      "midi": 78,
      "velocity": 78,
      "voice": "oud",
      "bar": 33
    },
    {
      "beat": 133.5,
      "duration": 0.24,
      "midi": 75,
      "velocity": 78,
      "voice": "oud",
      "bar": 33
    },
    {
      "beat": 133.5,
      "duration": 0.1,
      "midi": 62,
      "velocity": 72,
      "voice": "perc",
      "bar": 33
    },
    {
      "beat": 133.75,
      "duration": 0.24,
      "midi": 74,
      "velocity": 78,
      "voice": "oud",
      "bar": 33
    },
    {
      "beat": 134.0,
      "duration": 0.24,
      "midi": 73,
      "velocity": 92,
      "voice": "oud",
      "bar": 33
    },
    {
      "beat": 134,
      "duration": 0.18,
      "midi": 64,
      "velocity": 96,
      "voice": "perc",
      "bar": 33
    },
    {
      "beat": 134.25,
      "duration": 0.24,
      "midi": 70,
      "velocity": 78,
      "voice": "oud",
      "bar": 33
    },
    {
      "beat": 134.5,
      "duration": 0.24,
      "midi": 69,
      "velocity": 78,
      "voice": "oud",
      "bar": 33
    },
    {
      "beat": 134.75,
      "duration": 0.24,
      "midi": 67,
      "velocity": 78,
      "voice": "oud",
      "bar": 33
    },
    {
      "beat": 135.0,
      "duration": 0.24,
      "midi": 66,
      "velocity": 92,
      "voice": "oud",
      "bar": 33
    },
    {
      "beat": 135,
      "duration": 0.1,
      "midi": 62,
      "velocity": 72,
      "voice": "perc",
      "bar": 33
    },
    {
      "beat": 135.25,
      "duration": 0.24,
      "midi": 63,
      "velocity": 78,
      "voice": "oud",
      "bar": 33
    },
    {
      "beat": 135.5,
      "duration": 0.24,
      "midi": 62,
      "velocity": 78,
      "voice": "oud",
      "bar": 33
    },
    {
      "beat": 135.5,
      "duration": 0.1,
      "midi": 62,
      "velocity": 72,
      "voice": "perc",
      "bar": 33
    },
    {
      "beat": 135.75,
      "duration": 0.24,
      "midi": 61,
      "velocity": 78,
      "voice": "oud",
      "bar": 33
    },
    {
      "beat": 136.0,
      "duration": 0.24,
      "midi": 55,
      "velocity": 120,
      "voice": "acid",
      "bar": 34,
      "slide": false
    },
    {
      "beat": 136.0,
      "duration": 0.24,
      "midi": 62,
      "velocity": 92,
      "voice": "oud",
      "bar": 34
    },
    {
      "beat": 136,
      "duration": 4,
      "midi": 55,
      "velocity": 58,
      "voice": "pad",
      "bar": 34
    },
    {
      "beat": 136,
      "duration": 4,
      "midi": 58,
      "velocity": 58,
      "voice": "pad",
      "bar": 34
    },
    {
      "beat": 136,
      "duration": 4,
      "midi": 62,
      "velocity": 58,
      "voice": "pad",
      "bar": 34
    },
    {
      "beat": 136,
      "duration": 4,
      "midi": 67,
      "velocity": 58,
      "voice": "pad",
      "bar": 34
    },
    {
      "beat": 136,
      "duration": 0.18,
      "midi": 64,
      "velocity": 96,
      "voice": "perc",
      "bar": 34
    },
    {
      "beat": 136.25,
      "duration": 0.24,
      "midi": 63,
      "velocity": 78,
      "voice": "oud",
      "bar": 34
    },
    {
      "beat": 136.5,
      "duration": 0.24,
      "midi": 67,
      "velocity": 80,
      "voice": "acid",
      "bar": 34,
      "slide": true
    },
    {
      "beat": 136.5,
      "duration": 0.24,
      "midi": 66,
      "velocity": 78,
      "voice": "oud",
      "bar": 34
    },
    {
      "beat": 136.5,
      "duration": 0.1,
      "midi": 62,
      "velocity": 72,
      "voice": "perc",
      "bar": 34
    },
    {
      "beat": 136.75,
      "duration": 0.24,
      "midi": 55,
      "velocity": 80,
      "voice": "acid",
      "bar": 34,
      "slide": false
    },
    {
      "beat": 136.75,
      "duration": 0.24,
      "midi": 67,
      "velocity": 78,
      "voice": "oud",
      "bar": 34
    },
    {
      "beat": 137.0,
      "duration": 0.24,
      "midi": 56,
      "velocity": 120,
      "voice": "acid",
      "bar": 34,
      "slide": false
    },
    {
      "beat": 137.0,
      "duration": 0.24,
      "midi": 69,
      "velocity": 92,
      "voice": "oud",
      "bar": 34
    },
    {
      "beat": 137.25,
      "duration": 0.24,
      "midi": 70,
      "velocity": 78,
      "voice": "oud",
      "bar": 34
    },
    {
      "beat": 137.5,
      "duration": 0.24,
      "midi": 55,
      "velocity": 80,
      "voice": "acid",
      "bar": 34,
      "slide": false
    },
    {
      "beat": 137.5,
      "duration": 0.24,
      "midi": 73,
      "velocity": 78,
      "voice": "oud",
      "bar": 34
    },
    {
      "beat": 137.5,
      "duration": 0.1,
      "midi": 62,
      "velocity": 72,
      "voice": "perc",
      "bar": 34
    },
    {
      "beat": 137.75,
      "duration": 0.24,
      "midi": 67,
      "velocity": 80,
      "voice": "acid",
      "bar": 34,
      "slide": true
    },
    {
      "beat": 137.75,
      "duration": 0.24,
      "midi": 74,
      "velocity": 78,
      "voice": "oud",
      "bar": 34
    },
    {
      "beat": 138.0,
      "duration": 0.24,
      "midi": 55,
      "velocity": 120,
      "voice": "acid",
      "bar": 34,
      "slide": false
    },
    {
      "beat": 138.0,
      "duration": 0.24,
      "midi": 75,
      "velocity": 92,
      "voice": "oud",
      "bar": 34
    },
    {
      "beat": 138,
      "duration": 0.18,
      "midi": 64,
      "velocity": 96,
      "voice": "perc",
      "bar": 34
    },
    {
      "beat": 138.25,
      "duration": 0.24,
      "midi": 78,
      "velocity": 78,
      "voice": "oud",
      "bar": 34
    },
    {
      "beat": 138.5,
      "duration": 0.24,
      "midi": 68,
      "velocity": 80,
      "voice": "acid",
      "bar": 34,
      "slide": true
    },
    {
      "beat": 138.5,
      "duration": 0.24,
      "midi": 79,
      "velocity": 78,
      "voice": "oud",
      "bar": 34
    },
    {
      "beat": 138.75,
      "duration": 0.24,
      "midi": 55,
      "velocity": 80,
      "voice": "acid",
      "bar": 34,
      "slide": false
    },
    {
      "beat": 138.75,
      "duration": 0.24,
      "midi": 81,
      "velocity": 78,
      "voice": "oud",
      "bar": 34
    },
    {
      "beat": 139.0,
      "duration": 0.24,
      "midi": 82,
      "velocity": 92,
      "voice": "oud",
      "bar": 34
    },
    {
      "beat": 139,
      "duration": 0.1,
      "midi": 62,
      "velocity": 72,
      "voice": "perc",
      "bar": 34
    },
    {
      "beat": 139.25,
      "duration": 0.24,
      "midi": 55,
      "velocity": 120,
      "voice": "acid",
      "bar": 34,
      "slide": false
    },
    {
      "beat": 139.25,
      "duration": 0.24,
      "midi": 85,
      "velocity": 78,
      "voice": "oud",
      "bar": 34
    },
    {
      "beat": 139.5,
      "duration": 0.24,
      "midi": 67,
      "velocity": 80,
      "voice": "acid",
      "bar": 34,
      "slide": true
    },
    {
      "beat": 139.5,
      "duration": 0.24,
      "midi": 86,
      "velocity": 78,
      "voice": "oud",
      "bar": 34
    },
    {
      "beat": 139.5,
      "duration": 0.1,
      "midi": 62,
      "velocity": 72,
      "voice": "perc",
      "bar": 34
    },
    {
      "beat": 139.75,
      "duration": 0.24,
      "midi": 56,
      "velocity": 80,
      "voice": "acid",
      "bar": 34,
      "slide": false
    },
    {
      "beat": 139.75,
      "duration": 0.24,
      "midi": 87,
      "velocity": 78,
      "voice": "oud",
      "bar": 34
    },
    {
      "beat": 140.0,
      "duration": 0.24,
      "midi": 57,
      "velocity": 120,
      "voice": "acid",
      "bar": 35,
      "slide": false
    },
    {
      "beat": 140.0,
      "duration": 0.24,
      "midi": 62,
      "velocity": 92,
      "voice": "oud",
      "bar": 35
    },
    {
      "beat": 140,
      "duration": 4,
      "midi": 57,
      "velocity": 58,
      "voice": "pad",
      "bar": 35
    },
    {
      "beat": 140,
      "duration": 4,
      "midi": 61,
      "velocity": 58,
      "voice": "pad",
      "bar": 35
    },
    {
      "beat": 140,
      "duration": 4,
      "midi": 64,
      "velocity": 58,
      "voice": "pad",
      "bar": 35
    },
    {
      "beat": 140,
      "duration": 4,
      "midi": 69,
      "velocity": 58,
      "voice": "pad",
      "bar": 35
    },
    {
      "beat": 140,
      "duration": 0.18,
      "midi": 64,
      "velocity": 96,
      "voice": "perc",
      "bar": 35
    },
    {
      "beat": 140.25,
      "duration": 0.24,
      "midi": 63,
      "velocity": 78,
      "voice": "oud",
      "bar": 35
    },
    {
      "beat": 140.5,
      "duration": 0.24,
      "midi": 69,
      "velocity": 80,
      "voice": "acid",
      "bar": 35,
      "slide": true
    },
    {
      "beat": 140.5,
      "duration": 0.24,
      "midi": 66,
      "velocity": 78,
      "voice": "oud",
      "bar": 35
    },
    {
      "beat": 140.5,
      "duration": 0.1,
      "midi": 62,
      "velocity": 72,
      "voice": "perc",
      "bar": 35
    },
    {
      "beat": 140.75,
      "duration": 0.24,
      "midi": 57,
      "velocity": 80,
      "voice": "acid",
      "bar": 35,
      "slide": false
    },
    {
      "beat": 140.75,
      "duration": 0.24,
      "midi": 67,
      "velocity": 78,
      "voice": "oud",
      "bar": 35
    },
    {
      "beat": 141.0,
      "duration": 0.24,
      "midi": 58,
      "velocity": 120,
      "voice": "acid",
      "bar": 35,
      "slide": false
    },
    {
      "beat": 141.0,
      "duration": 0.24,
      "midi": 69,
      "velocity": 92,
      "voice": "oud",
      "bar": 35
    },
    {
      "beat": 141.25,
      "duration": 0.24,
      "midi": 70,
      "velocity": 78,
      "voice": "oud",
      "bar": 35
    },
    {
      "beat": 141.5,
      "duration": 0.24,
      "midi": 57,
      "velocity": 80,
      "voice": "acid",
      "bar": 35,
      "slide": false
    },
    {
      "beat": 141.5,
      "duration": 0.24,
      "midi": 73,
      "velocity": 78,
      "voice": "oud",
      "bar": 35
    },
    {
      "beat": 141.5,
      "duration": 0.1,
      "midi": 62,
      "velocity": 72,
      "voice": "perc",
      "bar": 35
    },
    {
      "beat": 141.75,
      "duration": 0.24,
      "midi": 69,
      "velocity": 80,
      "voice": "acid",
      "bar": 35,
      "slide": true
    },
    {
      "beat": 141.75,
      "duration": 0.24,
      "midi": 74,
      "velocity": 78,
      "voice": "oud",
      "bar": 35
    },
    {
      "beat": 142.0,
      "duration": 0.24,
      "midi": 57,
      "velocity": 120,
      "voice": "acid",
      "bar": 35,
      "slide": false
    },
    {
      "beat": 142.0,
      "duration": 0.24,
      "midi": 75,
      "velocity": 92,
      "voice": "oud",
      "bar": 35
    },
    {
      "beat": 142,
      "duration": 0.18,
      "midi": 64,
      "velocity": 96,
      "voice": "perc",
      "bar": 35
    },
    {
      "beat": 142.25,
      "duration": 0.24,
      "midi": 78,
      "velocity": 78,
      "voice": "oud",
      "bar": 35
    },
    {
      "beat": 142.5,
      "duration": 0.24,
      "midi": 70,
      "velocity": 80,
      "voice": "acid",
      "bar": 35,
      "slide": true
    },
    {
      "beat": 142.5,
      "duration": 0.24,
      "midi": 79,
      "velocity": 78,
      "voice": "oud",
      "bar": 35
    },
    {
      "beat": 142.75,
      "duration": 0.24,
      "midi": 57,
      "velocity": 80,
      "voice": "acid",
      "bar": 35,
      "slide": false
    },
    {
      "beat": 142.75,
      "duration": 0.24,
      "midi": 81,
      "velocity": 78,
      "voice": "oud",
      "bar": 35
    },
    {
      "beat": 143.0,
      "duration": 0.24,
      "midi": 82,
      "velocity": 92,
      "voice": "oud",
      "bar": 35
    },
    {
      "beat": 143,
      "duration": 0.1,
      "midi": 62,
      "velocity": 72,
      "voice": "perc",
      "bar": 35
    },
    {
      "beat": 143.25,
      "duration": 0.24,
      "midi": 57,
      "velocity": 120,
      "voice": "acid",
      "bar": 35,
      "slide": false
    },
    {
      "beat": 143.25,
      "duration": 0.24,
      "midi": 85,
      "velocity": 78,
      "voice": "oud",
      "bar": 35
    },
    {
      "beat": 143.5,
      "duration": 0.24,
      "midi": 69,
      "velocity": 80,
      "voice": "acid",
      "bar": 35,
      "slide": true
    },
    {
      "beat": 143.5,
      "duration": 0.24,
      "midi": 86,
      "velocity": 78,
      "voice": "oud",
      "bar": 35
    },
    {
      "beat": 143.5,
      "duration": 0.1,
      "midi": 62,
      "velocity": 72,
      "voice": "perc",
      "bar": 35
    },
    {
      "beat": 143.75,
      "duration": 0.24,
      "midi": 58,
      "velocity": 80,
      "voice": "acid",
      "bar": 35,
      "slide": false
    },
    {
      "beat": 143.75,
      "duration": 0.24,
      "midi": 87,
      "velocity": 78,
      "voice": "oud",
      "bar": 35
    },
    {
      "beat": 144.0,
      "duration": 0.24,
      "midi": 50,
      "velocity": 120,
      "voice": "acid",
      "bar": 36,
      "slide": false
    },
    {
      "beat": 144.0,
      "duration": 0.45,
      "midi": 38,
      "velocity": 108,
      "voice": "bass",
      "bar": 36
    },
    {
      "beat": 144,
      "duration": 0.07,
      "midi": 42,
      "velocity": 44,
      "voice": "hat",
      "bar": 36
    },
    {
      "beat": 144,
      "duration": 0.16,
      "midi": 36,
      "velocity": 124,
      "voice": "kick",
      "bar": 36
    },
    {
      "beat": 144,
      "duration": 1,
      "midi": 69,
      "velocity": 96,
      "voice": "oud",
      "bar": 36
    },
    {
      "beat": 144,
      "duration": 0.18,
      "midi": 64,
      "velocity": 96,
      "voice": "perc",
      "bar": 36
    },
    {
      "beat": 144.5,
      "duration": 0.24,
      "midi": 62,
      "velocity": 80,
      "voice": "acid",
      "bar": 36,
      "slide": true
    },
    {
      "beat": 144.5,
      "duration": 0.45,
      "midi": 38,
      "velocity": 100,
      "voice": "bass",
      "bar": 36
    },
    {
      "beat": 144.5,
      "duration": 0.14,
      "midi": 46,
      "velocity": 74,
      "voice": "hat",
      "bar": 36
    },
    {
      "beat": 144.5,
      "duration": 0.1,
      "midi": 62,
      "velocity": 72,
      "voice": "perc",
      "bar": 36
    },
    {
      "beat": 144.75,
      "duration": 0.24,
      "midi": 50,
      "velocity": 80,
      "voice": "acid",
      "bar": 36,
      "slide": false
    },
    {
      "beat": 145.0,
      "duration": 0.24,
      "midi": 51,
      "velocity": 120,
      "voice": "acid",
      "bar": 36,
      "slide": false
    },
    {
      "beat": 145.0,
      "duration": 0.45,
      "midi": 50,
      "velocity": 100,
      "voice": "bass",
      "bar": 36
    },
    {
      "beat": 145,
      "duration": 0.07,
      "midi": 42,
      "velocity": 44,
      "voice": "hat",
      "bar": 36
    },
    {
      "beat": 145,
      "duration": 0.16,
      "midi": 36,
      "velocity": 116,
      "voice": "kick",
      "bar": 36
    },
    {
      "beat": 145,
      "duration": 0.5,
      "midi": 70,
      "velocity": 96,
      "voice": "oud",
      "bar": 36
    },
    {
      "beat": 145.5,
      "duration": 0.24,
      "midi": 50,
      "velocity": 80,
      "voice": "acid",
      "bar": 36,
      "slide": false
    },
    {
      "beat": 145.5,
      "duration": 0.45,
      "midi": 38,
      "velocity": 100,
      "voice": "bass",
      "bar": 36
    },
    {
      "beat": 145.5,
      "duration": 0.14,
      "midi": 46,
      "velocity": 74,
      "voice": "hat",
      "bar": 36
    },
    {
      "beat": 145.5,
      "duration": 0.5,
      "midi": 69,
      "velocity": 96,
      "voice": "oud",
      "bar": 36
    },
    {
      "beat": 145.5,
      "duration": 0.1,
      "midi": 62,
      "velocity": 72,
      "voice": "perc",
      "bar": 36
    },
    {
      "beat": 145.75,
      "duration": 0.24,
      "midi": 62,
      "velocity": 80,
      "voice": "acid",
      "bar": 36,
      "slide": true
    },
    {
      "beat": 146.0,
      "duration": 0.24,
      "midi": 50,
      "velocity": 120,
      "voice": "acid",
      "bar": 36,
      "slide": false
    },
    {
      "beat": 146.0,
      "duration": 0.45,
      "midi": 38,
      "velocity": 100,
      "voice": "bass",
      "bar": 36
    },
    {
      "beat": 146,
      "duration": 0.07,
      "midi": 42,
      "velocity": 44,
      "voice": "hat",
      "bar": 36
    },
    {
      "beat": 146,
      "duration": 0.16,
      "midi": 36,
      "velocity": 116,
      "voice": "kick",
      "bar": 36
    },
    {
      "beat": 146,
      "duration": 0.5,
      "midi": 67,
      "velocity": 96,
      "voice": "oud",
      "bar": 36
    },
    {
      "beat": 146,
      "duration": 0.18,
      "midi": 64,
      "velocity": 96,
      "voice": "perc",
      "bar": 36
    },
    {
      "beat": 146.5,
      "duration": 0.24,
      "midi": 63,
      "velocity": 80,
      "voice": "acid",
      "bar": 36,
      "slide": true
    },
    {
      "beat": 146.5,
      "duration": 0.45,
      "midi": 38,
      "velocity": 100,
      "voice": "bass",
      "bar": 36
    },
    {
      "beat": 146.5,
      "duration": 0.14,
      "midi": 46,
      "velocity": 74,
      "voice": "hat",
      "bar": 36
    },
    {
      "beat": 146.5,
      "duration": 0.5,
      "midi": 66,
      "velocity": 96,
      "voice": "oud",
      "bar": 36
    },
    {
      "beat": 146.75,
      "duration": 0.24,
      "midi": 50,
      "velocity": 80,
      "voice": "acid",
      "bar": 36,
      "slide": false
    },
    {
      "beat": 147.0,
      "duration": 0.45,
      "midi": 50,
      "velocity": 100,
      "voice": "bass",
      "bar": 36
    },
    {
      "beat": 147,
      "duration": 0.07,
      "midi": 42,
      "velocity": 44,
      "voice": "hat",
      "bar": 36
    },
    {
      "beat": 147,
      "duration": 0.16,
      "midi": 36,
      "velocity": 116,
      "voice": "kick",
      "bar": 36
    },
    {
      "beat": 147,
      "duration": 1,
      "midi": 62,
      "velocity": 96,
      "voice": "oud",
      "bar": 36
    },
    {
      "beat": 147,
      "duration": 0.1,
      "midi": 62,
      "velocity": 72,
      "voice": "perc",
      "bar": 36
    },
    {
      "beat": 147.25,
      "duration": 0.24,
      "midi": 50,
      "velocity": 120,
      "voice": "acid",
      "bar": 36,
      "slide": false
    },
    {
      "beat": 147.5,
      "duration": 0.24,
      "midi": 62,
      "velocity": 80,
      "voice": "acid",
      "bar": 36,
      "slide": true
    },
    {
      "beat": 147.5,
      "duration": 0.45,
      "midi": 38,
      "velocity": 100,
      "voice": "bass",
      "bar": 36
    },
    {
      "beat": 147.5,
      "duration": 0.14,
      "midi": 46,
      "velocity": 74,
      "voice": "hat",
      "bar": 36
    },
    {
      "beat": 147.5,
      "duration": 0.1,
      "midi": 62,
      "velocity": 72,
      "voice": "perc",
      "bar": 36
    },
    {
      "beat": 147.75,
      "duration": 0.24,
      "midi": 51,
      "velocity": 80,
      "voice": "acid",
      "bar": 36,
      "slide": false
    },
    {
      "beat": 148.0,
      "duration": 0.24,
      "midi": 51,
      "velocity": 120,
      "voice": "acid",
      "bar": 37,
      "slide": false
    },
    {
      "beat": 148.0,
      "duration": 0.45,
      "midi": 39,
      "velocity": 108,
      "voice": "bass",
      "bar": 37
    },
    {
      "beat": 148,
      "duration": 0.07,
      "midi": 42,
      "velocity": 44,
      "voice": "hat",
      "bar": 37
    },
    {
      "beat": 148,
      "duration": 0.16,
      "midi": 36,
      "velocity": 124,
      "voice": "kick",
      "bar": 37
    },
    {
      "beat": 148,
      "duration": 1,
      "midi": 69,
      "velocity": 96,
      "voice": "oud",
      "bar": 37
    },
    {
      "beat": 148,
      "duration": 0.18,
      "midi": 64,
      "velocity": 96,
      "voice": "perc",
      "bar": 37
    },
    {
      "beat": 148.5,
      "duration": 0.24,
      "midi": 63,
      "velocity": 80,
      "voice": "acid",
      "bar": 37,
      "slide": true
    },
    {
      "beat": 148.5,
      "duration": 0.45,
      "midi": 39,
      "velocity": 100,
      "voice": "bass",
      "bar": 37
    },
    {
      "beat": 148.5,
      "duration": 0.14,
      "midi": 46,
      "velocity": 74,
      "voice": "hat",
      "bar": 37
    },
    {
      "beat": 148.5,
      "duration": 0.1,
      "midi": 62,
      "velocity": 72,
      "voice": "perc",
      "bar": 37
    },
    {
      "beat": 148.75,
      "duration": 0.24,
      "midi": 51,
      "velocity": 80,
      "voice": "acid",
      "bar": 37,
      "slide": false
    },
    {
      "beat": 149.0,
      "duration": 0.24,
      "midi": 52,
      "velocity": 120,
      "voice": "acid",
      "bar": 37,
      "slide": false
    },
    {
      "beat": 149.0,
      "duration": 0.45,
      "midi": 51,
      "velocity": 100,
      "voice": "bass",
      "bar": 37
    },
    {
      "beat": 149,
      "duration": 0.07,
      "midi": 42,
      "velocity": 44,
      "voice": "hat",
      "bar": 37
    },
    {
      "beat": 149,
      "duration": 0.16,
      "midi": 36,
      "velocity": 116,
      "voice": "kick",
      "bar": 37
    },
    {
      "beat": 149,
      "duration": 0.5,
      "midi": 70,
      "velocity": 96,
      "voice": "oud",
      "bar": 37
    },
    {
      "beat": 149.5,
      "duration": 0.24,
      "midi": 51,
      "velocity": 80,
      "voice": "acid",
      "bar": 37,
      "slide": false
    },
    {
      "beat": 149.5,
      "duration": 0.45,
      "midi": 39,
      "velocity": 100,
      "voice": "bass",
      "bar": 37
    },
    {
      "beat": 149.5,
      "duration": 0.14,
      "midi": 46,
      "velocity": 74,
      "voice": "hat",
      "bar": 37
    },
    {
      "beat": 149.5,
      "duration": 0.5,
      "midi": 69,
      "velocity": 96,
      "voice": "oud",
      "bar": 37
    },
    {
      "beat": 149.5,
      "duration": 0.1,
      "midi": 62,
      "velocity": 72,
      "voice": "perc",
      "bar": 37
    },
    {
      "beat": 149.75,
      "duration": 0.24,
      "midi": 63,
      "velocity": 80,
      "voice": "acid",
      "bar": 37,
      "slide": true
    },
    {
      "beat": 150.0,
      "duration": 0.24,
      "midi": 51,
      "velocity": 120,
      "voice": "acid",
      "bar": 37,
      "slide": false
    },
    {
      "beat": 150.0,
      "duration": 0.45,
      "midi": 39,
      "velocity": 100,
      "voice": "bass",
      "bar": 37
    },
    {
      "beat": 150,
      "duration": 0.07,
      "midi": 42,
      "velocity": 44,
      "voice": "hat",
      "bar": 37
    },
    {
      "beat": 150,
      "duration": 0.16,
      "midi": 36,
      "velocity": 116,
      "voice": "kick",
      "bar": 37
    },
    {
      "beat": 150,
      "duration": 0.5,
      "midi": 67,
      "velocity": 96,
      "voice": "oud",
      "bar": 37
    },
    {
      "beat": 150,
      "duration": 0.18,
      "midi": 64,
      "velocity": 96,
      "voice": "perc",
      "bar": 37
    },
    {
      "beat": 150.5,
      "duration": 0.24,
      "midi": 64,
      "velocity": 80,
      "voice": "acid",
      "bar": 37,
      "slide": true
    },
    {
      "beat": 150.5,
      "duration": 0.45,
      "midi": 39,
      "velocity": 100,
      "voice": "bass",
      "bar": 37
    },
    {
      "beat": 150.5,
      "duration": 0.14,
      "midi": 46,
      "velocity": 74,
      "voice": "hat",
      "bar": 37
    },
    {
      "beat": 150.5,
      "duration": 0.5,
      "midi": 66,
      "velocity": 96,
      "voice": "oud",
      "bar": 37
    },
    {
      "beat": 150.75,
      "duration": 0.24,
      "midi": 51,
      "velocity": 80,
      "voice": "acid",
      "bar": 37,
      "slide": false
    },
    {
      "beat": 151.0,
      "duration": 0.45,
      "midi": 51,
      "velocity": 100,
      "voice": "bass",
      "bar": 37
    },
    {
      "beat": 151,
      "duration": 0.07,
      "midi": 42,
      "velocity": 44,
      "voice": "hat",
      "bar": 37
    },
    {
      "beat": 151,
      "duration": 0.16,
      "midi": 36,
      "velocity": 116,
      "voice": "kick",
      "bar": 37
    },
    {
      "beat": 151,
      "duration": 1,
      "midi": 62,
      "velocity": 96,
      "voice": "oud",
      "bar": 37
    },
    {
      "beat": 151,
      "duration": 0.1,
      "midi": 62,
      "velocity": 72,
      "voice": "perc",
      "bar": 37
    },
    {
      "beat": 151.25,
      "duration": 0.24,
      "midi": 51,
      "velocity": 120,
      "voice": "acid",
      "bar": 37,
      "slide": false
    },
    {
      "beat": 151.5,
      "duration": 0.24,
      "midi": 63,
      "velocity": 80,
      "voice": "acid",
      "bar": 37,
      "slide": true
    },
    {
      "beat": 151.5,
      "duration": 0.45,
      "midi": 39,
      "velocity": 100,
      "voice": "bass",
      "bar": 37
    },
    {
      "beat": 151.5,
      "duration": 0.14,
      "midi": 46,
      "velocity": 74,
      "voice": "hat",
      "bar": 37
    },
    {
      "beat": 151.5,
      "duration": 0.1,
      "midi": 62,
      "velocity": 72,
      "voice": "perc",
      "bar": 37
    },
    {
      "beat": 151.75,
      "duration": 0.24,
      "midi": 52,
      "velocity": 80,
      "voice": "acid",
      "bar": 37,
      "slide": false
    },
    {
      "beat": 152.0,
      "duration": 0.24,
      "midi": 55,
      "velocity": 120,
      "voice": "acid",
      "bar": 38,
      "slide": false
    },
    {
      "beat": 152.0,
      "duration": 0.22,
      "midi": 55,
      "velocity": 84,
      "voice": "arp",
      "bar": 38
    },
    {
      "beat": 152.0,
      "duration": 0.45,
      "midi": 43,
      "velocity": 108,
      "voice": "bass",
      "bar": 38
    },
    {
      "beat": 152,
      "duration": 0.07,
      "midi": 42,
      "velocity": 44,
      "voice": "hat",
      "bar": 38
    },
    {
      "beat": 152,
      "duration": 0.16,
      "midi": 36,
      "velocity": 124,
      "voice": "kick",
      "bar": 38
    },
    {
      "beat": 152,
      "duration": 0.18,
      "midi": 64,
      "velocity": 96,
      "voice": "perc",
      "bar": 38
    },
    {
      "beat": 152.25,
      "duration": 0.22,
      "midi": 58,
      "velocity": 70,
      "voice": "arp",
      "bar": 38
    },
    {
      "beat": 152.25,
      "duration": 0.05,
      "midi": 42,
      "velocity": 34,
      "voice": "hat",
      "bar": 38
    },
    {
      "beat": 152.5,
      "duration": 0.24,
      "midi": 67,
      "velocity": 80,
      "voice": "acid",
      "bar": 38,
      "slide": true
    },
    {
      "beat": 152.5,
      "duration": 0.22,
      "midi": 62,
      "velocity": 70,
      "voice": "arp",
      "bar": 38
    },
    {
      "beat": 152.5,
      "duration": 0.45,
      "midi": 43,
      "velocity": 100,
      "voice": "bass",
      "bar": 38
    },
    {
      "beat": 152.5,
      "duration": 0.14,
      "midi": 46,
      "velocity": 74,
      "voice": "hat",
      "bar": 38
    },
    {
      "beat": 152.5,
      "duration": 0.1,
      "midi": 62,
      "velocity": 72,
      "voice": "perc",
      "bar": 38
    },
    {
      "beat": 152.75,
      "duration": 0.24,
      "midi": 55,
      "velocity": 80,
      "voice": "acid",
      "bar": 38,
      "slide": false
    },
    {
      "beat": 152.75,
      "duration": 0.22,
      "midi": 67,
      "velocity": 70,
      "voice": "arp",
      "bar": 38
    },
    {
      "beat": 152.75,
      "duration": 0.05,
      "midi": 42,
      "velocity": 34,
      "voice": "hat",
      "bar": 38
    },
    {
      "beat": 153.0,
      "duration": 0.24,
      "midi": 56,
      "velocity": 120,
      "voice": "acid",
      "bar": 38,
      "slide": false
    },
    {
      "beat": 153.0,
      "duration": 0.22,
      "midi": 62,
      "velocity": 84,
      "voice": "arp",
      "bar": 38
    },
    {
      "beat": 153.0,
      "duration": 0.45,
      "midi": 55,
      "velocity": 100,
      "voice": "bass",
      "bar": 38
    },
    {
      "beat": 153,
      "duration": 0.2,
      "midi": 39,
      "velocity": 104,
      "voice": "clap",
      "bar": 38
    },
    {
      "beat": 153,
      "duration": 0.07,
      "midi": 42,
      "velocity": 44,
      "voice": "hat",
      "bar": 38
    },
    {
      "beat": 153,
      "duration": 0.16,
      "midi": 36,
      "velocity": 116,
      "voice": "kick",
      "bar": 38
    },
    {
      "beat": 153.25,
      "duration": 0.22,
      "midi": 58,
      "velocity": 70,
      "voice": "arp",
      "bar": 38
    },
    {
      "beat": 153.25,
      "duration": 0.05,
      "midi": 42,
      "velocity": 34,
      "voice": "hat",
      "bar": 38
    },
    {
      "beat": 153.5,
      "duration": 0.24,
      "midi": 55,
      "velocity": 80,
      "voice": "acid",
      "bar": 38,
      "slide": false
    },
    {
      "beat": 153.5,
      "duration": 0.22,
      "midi": 55,
      "velocity": 70,
      "voice": "arp",
      "bar": 38
    },
    {
      "beat": 153.5,
      "duration": 0.45,
      "midi": 43,
      "velocity": 100,
      "voice": "bass",
      "bar": 38
    },
    {
      "beat": 153.5,
      "duration": 0.14,
      "midi": 46,
      "velocity": 74,
      "voice": "hat",
      "bar": 38
    },
    {
      "beat": 153.5,
      "duration": 0.1,
      "midi": 62,
      "velocity": 72,
      "voice": "perc",
      "bar": 38
    },
    {
      "beat": 153.75,
      "duration": 0.24,
      "midi": 67,
      "velocity": 80,
      "voice": "acid",
      "bar": 38,
      "slide": true
    },
    {
      "beat": 153.75,
      "duration": 0.22,
      "midi": 58,
      "velocity": 70,
      "voice": "arp",
      "bar": 38
    },
    {
      "beat": 153.75,
      "duration": 0.05,
      "midi": 42,
      "velocity": 34,
      "voice": "hat",
      "bar": 38
    },
    {
      "beat": 154.0,
      "duration": 0.24,
      "midi": 55,
      "velocity": 120,
      "voice": "acid",
      "bar": 38,
      "slide": false
    },
    {
      "beat": 154.0,
      "duration": 0.22,
      "midi": 62,
      "velocity": 84,
      "voice": "arp",
      "bar": 38
    },
    {
      "beat": 154.0,
      "duration": 0.45,
      "midi": 43,
      "velocity": 100,
      "voice": "bass",
      "bar": 38
    },
    {
      "beat": 154,
      "duration": 0.07,
      "midi": 42,
      "velocity": 44,
      "voice": "hat",
      "bar": 38
    },
    {
      "beat": 154,
      "duration": 0.16,
      "midi": 36,
      "velocity": 116,
      "voice": "kick",
      "bar": 38
    },
    {
      "beat": 154,
      "duration": 0.18,
      "midi": 64,
      "velocity": 96,
      "voice": "perc",
      "bar": 38
    },
    {
      "beat": 154.25,
      "duration": 0.22,
      "midi": 67,
      "velocity": 70,
      "voice": "arp",
      "bar": 38
    },
    {
      "beat": 154.25,
      "duration": 0.05,
      "midi": 42,
      "velocity": 34,
      "voice": "hat",
      "bar": 38
    },
    {
      "beat": 154.5,
      "duration": 0.24,
      "midi": 68,
      "velocity": 80,
      "voice": "acid",
      "bar": 38,
      "slide": true
    },
    {
      "beat": 154.5,
      "duration": 0.22,
      "midi": 62,
      "velocity": 70,
      "voice": "arp",
      "bar": 38
    },
    {
      "beat": 154.5,
      "duration": 0.45,
      "midi": 43,
      "velocity": 100,
      "voice": "bass",
      "bar": 38
    },
    {
      "beat": 154.5,
      "duration": 0.14,
      "midi": 46,
      "velocity": 74,
      "voice": "hat",
      "bar": 38
    },
    {
      "beat": 154.75,
      "duration": 0.24,
      "midi": 55,
      "velocity": 80,
      "voice": "acid",
      "bar": 38,
      "slide": false
    },
    {
      "beat": 154.75,
      "duration": 0.22,
      "midi": 58,
      "velocity": 70,
      "voice": "arp",
      "bar": 38
    },
    {
      "beat": 154.75,
      "duration": 0.05,
      "midi": 42,
      "velocity": 34,
      "voice": "hat",
      "bar": 38
    },
    {
      "beat": 155.0,
      "duration": 0.22,
      "midi": 55,
      "velocity": 84,
      "voice": "arp",
      "bar": 38
    },
    {
      "beat": 155.0,
      "duration": 0.45,
      "midi": 55,
      "velocity": 100,
      "voice": "bass",
      "bar": 38
    },
    {
      "beat": 155,
      "duration": 0.2,
      "midi": 39,
      "velocity": 104,
      "voice": "clap",
      "bar": 38
    },
    {
      "beat": 155,
      "duration": 0.07,
      "midi": 42,
      "velocity": 44,
      "voice": "hat",
      "bar": 38
    },
    {
      "beat": 155,
      "duration": 0.16,
      "midi": 36,
      "velocity": 116,
      "voice": "kick",
      "bar": 38
    },
    {
      "beat": 155,
      "duration": 0.1,
      "midi": 62,
      "velocity": 72,
      "voice": "perc",
      "bar": 38
    },
    {
      "beat": 155.25,
      "duration": 0.24,
      "midi": 55,
      "velocity": 120,
      "voice": "acid",
      "bar": 38,
      "slide": false
    },
    {
      "beat": 155.25,
      "duration": 0.22,
      "midi": 58,
      "velocity": 70,
      "voice": "arp",
      "bar": 38
    },
    {
      "beat": 155.25,
      "duration": 0.05,
      "midi": 42,
      "velocity": 34,
      "voice": "hat",
      "bar": 38
    },
    {
      "beat": 155.5,
      "duration": 0.24,
      "midi": 67,
      "velocity": 80,
      "voice": "acid",
      "bar": 38,
      "slide": true
    },
    {
      "beat": 155.5,
      "duration": 0.22,
      "midi": 62,
      "velocity": 70,
      "voice": "arp",
      "bar": 38
    },
    {
      "beat": 155.5,
      "duration": 0.45,
      "midi": 43,
      "velocity": 100,
      "voice": "bass",
      "bar": 38
    },
    {
      "beat": 155.5,
      "duration": 0.14,
      "midi": 46,
      "velocity": 74,
      "voice": "hat",
      "bar": 38
    },
    {
      "beat": 155.5,
      "duration": 0.1,
      "midi": 62,
      "velocity": 72,
      "voice": "perc",
      "bar": 38
    },
    {
      "beat": 155.75,
      "duration": 0.24,
      "midi": 56,
      "velocity": 80,
      "voice": "acid",
      "bar": 38,
      "slide": false
    },
    {
      "beat": 155.75,
      "duration": 0.22,
      "midi": 67,
      "velocity": 70,
      "voice": "arp",
      "bar": 38
    },
    {
      "beat": 155.75,
      "duration": 0.05,
      "midi": 42,
      "velocity": 34,
      "voice": "hat",
      "bar": 38
    },
    {
      "beat": 156.0,
      "duration": 0.24,
      "midi": 57,
      "velocity": 120,
      "voice": "acid",
      "bar": 39,
      "slide": false
    },
    {
      "beat": 156.0,
      "duration": 0.22,
      "midi": 57,
      "velocity": 84,
      "voice": "arp",
      "bar": 39
    },
    {
      "beat": 156.0,
      "duration": 0.45,
      "midi": 45,
      "velocity": 108,
      "voice": "bass",
      "bar": 39
    },
    {
      "beat": 156,
      "duration": 0.07,
      "midi": 42,
      "velocity": 44,
      "voice": "hat",
      "bar": 39
    },
    {
      "beat": 156,
      "duration": 0.16,
      "midi": 36,
      "velocity": 124,
      "voice": "kick",
      "bar": 39
    },
    {
      "beat": 156,
      "duration": 0.18,
      "midi": 64,
      "velocity": 96,
      "voice": "perc",
      "bar": 39
    },
    {
      "beat": 156.25,
      "duration": 0.22,
      "midi": 61,
      "velocity": 70,
      "voice": "arp",
      "bar": 39
    },
    {
      "beat": 156.25,
      "duration": 0.05,
      "midi": 42,
      "velocity": 34,
      "voice": "hat",
      "bar": 39
    },
    {
      "beat": 156.5,
      "duration": 0.24,
      "midi": 69,
      "velocity": 80,
      "voice": "acid",
      "bar": 39,
      "slide": true
    },
    {
      "beat": 156.5,
      "duration": 0.22,
      "midi": 64,
      "velocity": 70,
      "voice": "arp",
      "bar": 39
    },
    {
      "beat": 156.5,
      "duration": 0.45,
      "midi": 45,
      "velocity": 100,
      "voice": "bass",
      "bar": 39
    },
    {
      "beat": 156.5,
      "duration": 0.14,
      "midi": 46,
      "velocity": 74,
      "voice": "hat",
      "bar": 39
    },
    {
      "beat": 156.5,
      "duration": 0.1,
      "midi": 62,
      "velocity": 72,
      "voice": "perc",
      "bar": 39
    },
    {
      "beat": 156.75,
      "duration": 0.24,
      "midi": 57,
      "velocity": 80,
      "voice": "acid",
      "bar": 39,
      "slide": false
    },
    {
      "beat": 156.75,
      "duration": 0.22,
      "midi": 69,
      "velocity": 70,
      "voice": "arp",
      "bar": 39
    },
    {
      "beat": 156.75,
      "duration": 0.05,
      "midi": 42,
      "velocity": 34,
      "voice": "hat",
      "bar": 39
    },
    {
      "beat": 157.0,
      "duration": 0.24,
      "midi": 58,
      "velocity": 120,
      "voice": "acid",
      "bar": 39,
      "slide": false
    },
    {
      "beat": 157.0,
      "duration": 0.22,
      "midi": 64,
      "velocity": 84,
      "voice": "arp",
      "bar": 39
    },
    {
      "beat": 157.0,
      "duration": 0.45,
      "midi": 57,
      "velocity": 100,
      "voice": "bass",
      "bar": 39
    },
    {
      "beat": 157,
      "duration": 0.2,
      "midi": 39,
      "velocity": 104,
      "voice": "clap",
      "bar": 39
    },
    {
      "beat": 157,
      "duration": 0.07,
      "midi": 42,
      "velocity": 44,
      "voice": "hat",
      "bar": 39
    },
    {
      "beat": 157,
      "duration": 0.16,
      "midi": 36,
      "velocity": 116,
      "voice": "kick",
      "bar": 39
    },
    {
      "beat": 157.25,
      "duration": 0.22,
      "midi": 61,
      "velocity": 70,
      "voice": "arp",
      "bar": 39
    },
    {
      "beat": 157.25,
      "duration": 0.05,
      "midi": 42,
      "velocity": 34,
      "voice": "hat",
      "bar": 39
    },
    {
      "beat": 157.5,
      "duration": 0.24,
      "midi": 57,
      "velocity": 80,
      "voice": "acid",
      "bar": 39,
      "slide": false
    },
    {
      "beat": 157.5,
      "duration": 0.22,
      "midi": 57,
      "velocity": 70,
      "voice": "arp",
      "bar": 39
    },
    {
      "beat": 157.5,
      "duration": 0.45,
      "midi": 45,
      "velocity": 100,
      "voice": "bass",
      "bar": 39
    },
    {
      "beat": 157.5,
      "duration": 0.14,
      "midi": 46,
      "velocity": 74,
      "voice": "hat",
      "bar": 39
    },
    {
      "beat": 157.5,
      "duration": 0.1,
      "midi": 62,
      "velocity": 72,
      "voice": "perc",
      "bar": 39
    },
    {
      "beat": 157.75,
      "duration": 0.24,
      "midi": 69,
      "velocity": 80,
      "voice": "acid",
      "bar": 39,
      "slide": true
    },
    {
      "beat": 157.75,
      "duration": 0.22,
      "midi": 61,
      "velocity": 70,
      "voice": "arp",
      "bar": 39
    },
    {
      "beat": 157.75,
      "duration": 0.05,
      "midi": 42,
      "velocity": 34,
      "voice": "hat",
      "bar": 39
    },
    {
      "beat": 158.0,
      "duration": 0.24,
      "midi": 57,
      "velocity": 120,
      "voice": "acid",
      "bar": 39,
      "slide": false
    },
    {
      "beat": 158.0,
      "duration": 0.22,
      "midi": 64,
      "velocity": 84,
      "voice": "arp",
      "bar": 39
    },
    {
      "beat": 158.0,
      "duration": 0.45,
      "midi": 45,
      "velocity": 100,
      "voice": "bass",
      "bar": 39
    },
    {
      "beat": 158,
      "duration": 0.07,
      "midi": 42,
      "velocity": 44,
      "voice": "hat",
      "bar": 39
    },
    {
      "beat": 158,
      "duration": 0.16,
      "midi": 36,
      "velocity": 116,
      "voice": "kick",
      "bar": 39
    },
    {
      "beat": 158,
      "duration": 0.18,
      "midi": 64,
      "velocity": 96,
      "voice": "perc",
      "bar": 39
    },
    {
      "beat": 158.25,
      "duration": 0.22,
      "midi": 69,
      "velocity": 70,
      "voice": "arp",
      "bar": 39
    },
    {
      "beat": 158.25,
      "duration": 0.05,
      "midi": 42,
      "velocity": 34,
      "voice": "hat",
      "bar": 39
    },
    {
      "beat": 158.5,
      "duration": 0.24,
      "midi": 70,
      "velocity": 80,
      "voice": "acid",
      "bar": 39,
      "slide": true
    },
    {
      "beat": 158.5,
      "duration": 0.22,
      "midi": 64,
      "velocity": 70,
      "voice": "arp",
      "bar": 39
    },
    {
      "beat": 158.5,
      "duration": 0.45,
      "midi": 45,
      "velocity": 100,
      "voice": "bass",
      "bar": 39
    },
    {
      "beat": 158.5,
      "duration": 0.14,
      "midi": 46,
      "velocity": 74,
      "voice": "hat",
      "bar": 39
    },
    {
      "beat": 158.75,
      "duration": 0.24,
      "midi": 57,
      "velocity": 80,
      "voice": "acid",
      "bar": 39,
      "slide": false
    },
    {
      "beat": 158.75,
      "duration": 0.22,
      "midi": 61,
      "velocity": 70,
      "voice": "arp",
      "bar": 39
    },
    {
      "beat": 158.75,
      "duration": 0.05,
      "midi": 42,
      "velocity": 34,
      "voice": "hat",
      "bar": 39
    },
    {
      "beat": 159.0,
      "duration": 0.22,
      "midi": 57,
      "velocity": 84,
      "voice": "arp",
      "bar": 39
    },
    {
      "beat": 159.0,
      "duration": 0.45,
      "midi": 57,
      "velocity": 100,
      "voice": "bass",
      "bar": 39
    },
    {
      "beat": 159,
      "duration": 0.2,
      "midi": 39,
      "velocity": 104,
      "voice": "clap",
      "bar": 39
    },
    {
      "beat": 159,
      "duration": 0.07,
      "midi": 42,
      "velocity": 44,
      "voice": "hat",
      "bar": 39
    },
    {
      "beat": 159,
      "duration": 0.16,
      "midi": 36,
      "velocity": 116,
      "voice": "kick",
      "bar": 39
    },
    {
      "beat": 159,
      "duration": 0.1,
      "midi": 62,
      "velocity": 72,
      "voice": "perc",
      "bar": 39
    },
    {
      "beat": 159.25,
      "duration": 0.24,
      "midi": 57,
      "velocity": 120,
      "voice": "acid",
      "bar": 39,
      "slide": false
    },
    {
      "beat": 159.25,
      "duration": 0.22,
      "midi": 61,
      "velocity": 70,
      "voice": "arp",
      "bar": 39
    },
    {
      "beat": 159.25,
      "duration": 0.05,
      "midi": 42,
      "velocity": 34,
      "voice": "hat",
      "bar": 39
    },
    {
      "beat": 159.5,
      "duration": 0.24,
      "midi": 69,
      "velocity": 80,
      "voice": "acid",
      "bar": 39,
      "slide": true
    },
    {
      "beat": 159.5,
      "duration": 0.22,
      "midi": 64,
      "velocity": 70,
      "voice": "arp",
      "bar": 39
    },
    {
      "beat": 159.5,
      "duration": 0.45,
      "midi": 45,
      "velocity": 100,
      "voice": "bass",
      "bar": 39
    },
    {
      "beat": 159.5,
      "duration": 0.14,
      "midi": 46,
      "velocity": 74,
      "voice": "hat",
      "bar": 39
    },
    {
      "beat": 159.5,
      "duration": 0.1,
      "midi": 62,
      "velocity": 72,
      "voice": "perc",
      "bar": 39
    },
    {
      "beat": 159.75,
      "duration": 0.24,
      "midi": 58,
      "velocity": 80,
      "voice": "acid",
      "bar": 39,
      "slide": false
    },
    {
      "beat": 159.75,
      "duration": 0.22,
      "midi": 69,
      "velocity": 70,
      "voice": "arp",
      "bar": 39
    },
    {
      "beat": 159.75,
      "duration": 0.05,
      "midi": 42,
      "velocity": 34,
      "voice": "hat",
      "bar": 39
    },
    {
      "beat": 160.0,
      "duration": 0.24,
      "midi": 50,
      "velocity": 120,
      "voice": "acid",
      "bar": 40,
      "slide": false
    },
    {
      "beat": 160.0,
      "duration": 0.22,
      "midi": 50,
      "velocity": 84,
      "voice": "arp",
      "bar": 40
    },
    {
      "beat": 160.0,
      "duration": 0.45,
      "midi": 38,
      "velocity": 108,
      "voice": "bass",
      "bar": 40
    },
    {
      "beat": 160,
      "duration": 0.07,
      "midi": 42,
      "velocity": 44,
      "voice": "hat",
      "bar": 40
    },
    {
      "beat": 160,
      "duration": 0.16,
      "midi": 36,
      "velocity": 124,
      "voice": "kick",
      "bar": 40
    },
    {
      "beat": 160,
      "duration": 1,
      "midi": 74,
      "velocity": 112,
      "voice": "lead",
      "bar": 40
    },
    {
      "beat": 160,
      "duration": 4,
      "midi": 50,
      "velocity": 58,
      "voice": "pad",
      "bar": 40
    },
    {
      "beat": 160,
      "duration": 4,
      "midi": 54,
      "velocity": 58,
      "voice": "pad",
      "bar": 40
    },
    {
      "beat": 160,
      "duration": 4,
      "midi": 57,
      "velocity": 58,
      "voice": "pad",
      "bar": 40
    },
    {
      "beat": 160,
      "duration": 4,
      "midi": 62,
      "velocity": 58,
      "voice": "pad",
      "bar": 40
    },
    {
      "beat": 160,
      "duration": 0.18,
      "midi": 64,
      "velocity": 96,
      "voice": "perc",
      "bar": 40
    },
    {
      "beat": 160.25,
      "duration": 0.22,
      "midi": 54,
      "velocity": 70,
      "voice": "arp",
      "bar": 40
    },
    {
      "beat": 160.25,
      "duration": 0.05,
      "midi": 42,
      "velocity": 34,
      "voice": "hat",
      "bar": 40
    },
    {
      "beat": 160.5,
      "duration": 0.24,
      "midi": 62,
      "velocity": 80,
      "voice": "acid",
      "bar": 40,
      "slide": true
    },
    {
      "beat": 160.5,
      "duration": 0.22,
      "midi": 57,
      "velocity": 70,
      "voice": "arp",
      "bar": 40
    },
    {
      "beat": 160.5,
      "duration": 0.45,
      "midi": 38,
      "velocity": 100,
      "voice": "bass",
      "bar": 40
    },
    {
      "beat": 160.5,
      "duration": 0.14,
      "midi": 46,
      "velocity": 74,
      "voice": "hat",
      "bar": 40
    },
    {
      "beat": 160.5,
      "duration": 0.1,
      "midi": 62,
      "velocity": 72,
      "voice": "perc",
      "bar": 40
    },
    {
      "beat": 160.5,
      "duration": 0.22,
      "midi": 62,
      "velocity": 92,
      "voice": "stab",
      "bar": 40
    },
    {
      "beat": 160.5,
      "duration": 0.22,
      "midi": 66,
      "velocity": 92,
      "voice": "stab",
      "bar": 40
    },
    {
      "beat": 160.5,
      "duration": 0.22,
      "midi": 69,
      "velocity": 92,
      "voice": "stab",
      "bar": 40
    },
    {
      "beat": 160.75,
      "duration": 0.24,
      "midi": 50,
      "velocity": 80,
      "voice": "acid",
      "bar": 40,
      "slide": false
    },
    {
      "beat": 160.75,
      "duration": 0.22,
      "midi": 62,
      "velocity": 70,
      "voice": "arp",
      "bar": 40
    },
    {
      "beat": 160.75,
      "duration": 0.05,
      "midi": 42,
      "velocity": 34,
      "voice": "hat",
      "bar": 40
    },
    {
      "beat": 161.0,
      "duration": 0.24,
      "midi": 51,
      "velocity": 120,
      "voice": "acid",
      "bar": 40,
      "slide": false
    },
    {
      "beat": 161.0,
      "duration": 0.22,
      "midi": 57,
      "velocity": 84,
      "voice": "arp",
      "bar": 40
    },
    {
      "beat": 161.0,
      "duration": 0.45,
      "midi": 50,
      "velocity": 100,
      "voice": "bass",
      "bar": 40
    },
    {
      "beat": 161,
      "duration": 0.2,
      "midi": 39,
      "velocity": 104,
      "voice": "clap",
      "bar": 40
    },
    {
      "beat": 161,
      "duration": 0.07,
      "midi": 42,
      "velocity": 44,
      "voice": "hat",
      "bar": 40
    },
    {
      "beat": 161,
      "duration": 0.16,
      "midi": 36,
      "velocity": 116,
      "voice": "kick",
      "bar": 40
    },
    {
      "beat": 161,
      "duration": 0.5,
      "midi": 75,
      "velocity": 112,
      "voice": "lead",
      "bar": 40
    },
    {
      "beat": 161.25,
      "duration": 0.22,
      "midi": 54,
      "velocity": 70,
      "voice": "arp",
      "bar": 40
    },
    {
      "beat": 161.25,
      "duration": 0.05,
      "midi": 42,
      "velocity": 34,
      "voice": "hat",
      "bar": 40
    },
    {
      "beat": 161.5,
      "duration": 0.24,
      "midi": 50,
      "velocity": 80,
      "voice": "acid",
      "bar": 40,
      "slide": false
    },
    {
      "beat": 161.5,
      "duration": 0.22,
      "midi": 50,
      "velocity": 70,
      "voice": "arp",
      "bar": 40
    },
    {
      "beat": 161.5,
      "duration": 0.45,
      "midi": 38,
      "velocity": 100,
      "voice": "bass",
      "bar": 40
    },
    {
      "beat": 161.5,
      "duration": 0.14,
      "midi": 46,
      "velocity": 74,
      "voice": "hat",
      "bar": 40
    },
    {
      "beat": 161.5,
      "duration": 0.5,
      "midi": 74,
      "velocity": 112,
      "voice": "lead",
      "bar": 40
    },
    {
      "beat": 161.5,
      "duration": 0.1,
      "midi": 62,
      "velocity": 72,
      "voice": "perc",
      "bar": 40
    },
    {
      "beat": 161.5,
      "duration": 0.22,
      "midi": 62,
      "velocity": 92,
      "voice": "stab",
      "bar": 40
    },
    {
      "beat": 161.5,
      "duration": 0.22,
      "midi": 66,
      "velocity": 92,
      "voice": "stab",
      "bar": 40
    },
    {
      "beat": 161.5,
      "duration": 0.22,
      "midi": 69,
      "velocity": 92,
      "voice": "stab",
      "bar": 40
    },
    {
      "beat": 161.75,
      "duration": 0.24,
      "midi": 62,
      "velocity": 80,
      "voice": "acid",
      "bar": 40,
      "slide": true
    },
    {
      "beat": 161.75,
      "duration": 0.22,
      "midi": 54,
      "velocity": 70,
      "voice": "arp",
      "bar": 40
    },
    {
      "beat": 161.75,
      "duration": 0.05,
      "midi": 42,
      "velocity": 34,
      "voice": "hat",
      "bar": 40
    },
    {
      "beat": 162.0,
      "duration": 0.24,
      "midi": 50,
      "velocity": 120,
      "voice": "acid",
      "bar": 40,
      "slide": false
    },
    {
      "beat": 162.0,
      "duration": 0.22,
      "midi": 57,
      "velocity": 84,
      "voice": "arp",
      "bar": 40
    },
    {
      "beat": 162.0,
      "duration": 0.45,
      "midi": 38,
      "velocity": 100,
      "voice": "bass",
      "bar": 40
    },
    {
      "beat": 162,
      "duration": 0.07,
      "midi": 42,
      "velocity": 44,
      "voice": "hat",
      "bar": 40
    },
    {
      "beat": 162,
      "duration": 0.16,
      "midi": 36,
      "velocity": 116,
      "voice": "kick",
      "bar": 40
    },
    {
      "beat": 162,
      "duration": 1,
      "midi": 69,
      "velocity": 112,
      "voice": "lead",
      "bar": 40
    },
    {
      "beat": 162,
      "duration": 0.18,
      "midi": 64,
      "velocity": 96,
      "voice": "perc",
      "bar": 40
    },
    {
      "beat": 162.25,
      "duration": 0.22,
      "midi": 62,
      "velocity": 70,
      "voice": "arp",
      "bar": 40
    },
    {
      "beat": 162.25,
      "duration": 0.05,
      "midi": 42,
      "velocity": 34,
      "voice": "hat",
      "bar": 40
    },
    {
      "beat": 162.5,
      "duration": 0.24,
      "midi": 63,
      "velocity": 80,
      "voice": "acid",
      "bar": 40,
      "slide": true
    },
    {
      "beat": 162.5,
      "duration": 0.22,
      "midi": 57,
      "velocity": 70,
      "voice": "arp",
      "bar": 40
    },
    {
      "beat": 162.5,
      "duration": 0.45,
      "midi": 38,
      "velocity": 100,
      "voice": "bass",
      "bar": 40
    },
    {
      "beat": 162.5,
      "duration": 0.14,
      "midi": 46,
      "velocity": 74,
      "voice": "hat",
      "bar": 40
    },
    {
      "beat": 162.5,
      "duration": 0.22,
      "midi": 62,
      "velocity": 92,
      "voice": "stab",
      "bar": 40
    },
    {
      "beat": 162.5,
      "duration": 0.22,
      "midi": 66,
      "velocity": 92,
      "voice": "stab",
      "bar": 40
    },
    {
      "beat": 162.5,
      "duration": 0.22,
      "midi": 69,
      "velocity": 92,
      "voice": "stab",
      "bar": 40
    },
    {
      "beat": 162.75,
      "duration": 0.24,
      "midi": 50,
      "velocity": 80,
      "voice": "acid",
      "bar": 40,
      "slide": false
    },
    {
      "beat": 162.75,
      "duration": 0.22,
      "midi": 54,
      "velocity": 70,
      "voice": "arp",
      "bar": 40
    },
    {
      "beat": 162.75,
      "duration": 0.05,
      "midi": 42,
      "velocity": 34,
      "voice": "hat",
      "bar": 40
    },
    {
      "beat": 163.0,
      "duration": 0.22,
      "midi": 50,
      "velocity": 84,
      "voice": "arp",
      "bar": 40
    },
    {
      "beat": 163.0,
      "duration": 0.45,
      "midi": 50,
      "velocity": 100,
      "voice": "bass",
      "bar": 40
    },
    {
      "beat": 163,
      "duration": 0.2,
      "midi": 39,
      "velocity": 104,
      "voice": "clap",
      "bar": 40
    },
    {
      "beat": 163,
      "duration": 0.07,
      "midi": 42,
      "velocity": 44,
      "voice": "hat",
      "bar": 40
    },
    {
      "beat": 163,
      "duration": 0.16,
      "midi": 36,
      "velocity": 116,
      "voice": "kick",
      "bar": 40
    },
    {
      "beat": 163,
      "duration": 1,
      "midi": 66,
      "velocity": 112,
      "voice": "lead",
      "bar": 40
    },
    {
      "beat": 163,
      "duration": 0.1,
      "midi": 62,
      "velocity": 72,
      "voice": "perc",
      "bar": 40
    },
    {
      "beat": 163.25,
      "duration": 0.24,
      "midi": 50,
      "velocity": 120,
      "voice": "acid",
      "bar": 40,
      "slide": false
    },
    {
      "beat": 163.25,
      "duration": 0.22,
      "midi": 54,
      "velocity": 70,
      "voice": "arp",
      "bar": 40
    },
    {
      "beat": 163.25,
      "duration": 0.05,
      "midi": 42,
      "velocity": 34,
      "voice": "hat",
      "bar": 40
    },
    {
      "beat": 163.5,
      "duration": 0.24,
      "midi": 62,
      "velocity": 80,
      "voice": "acid",
      "bar": 40,
      "slide": true
    },
    {
      "beat": 163.5,
      "duration": 0.22,
      "midi": 57,
      "velocity": 70,
      "voice": "arp",
      "bar": 40
    },
    {
      "beat": 163.5,
      "duration": 0.45,
      "midi": 38,
      "velocity": 100,
      "voice": "bass",
      "bar": 40
    },
    {
      "beat": 163.5,
      "duration": 0.14,
      "midi": 46,
      "velocity": 74,
      "voice": "hat",
      "bar": 40
    },
    {
      "beat": 163.5,
      "duration": 0.1,
      "midi": 62,
      "velocity": 72,
      "voice": "perc",
      "bar": 40
    },
    {
      "beat": 163.5,
      "duration": 0.22,
      "midi": 62,
      "velocity": 92,
      "voice": "stab",
      "bar": 40
    },
    {
      "beat": 163.5,
      "duration": 0.22,
      "midi": 66,
      "velocity": 92,
      "voice": "stab",
      "bar": 40
    },
    {
      "beat": 163.5,
      "duration": 0.22,
      "midi": 69,
      "velocity": 92,
      "voice": "stab",
      "bar": 40
    },
    {
      "beat": 163.75,
      "duration": 0.24,
      "midi": 51,
      "velocity": 80,
      "voice": "acid",
      "bar": 40,
      "slide": false
    },
    {
      "beat": 163.75,
      "duration": 0.22,
      "midi": 62,
      "velocity": 70,
      "voice": "arp",
      "bar": 40
    },
    {
      "beat": 163.75,
      "duration": 0.05,
      "midi": 42,
      "velocity": 34,
      "voice": "hat",
      "bar": 40
    },
    {
      "beat": 164.0,
      "duration": 0.24,
      "midi": 51,
      "velocity": 120,
      "voice": "acid",
      "bar": 41,
      "slide": false
    },
    {
      "beat": 164.0,
      "duration": 0.22,
      "midi": 51,
      "velocity": 84,
      "voice": "arp",
      "bar": 41
    },
    {
      "beat": 164.0,
      "duration": 0.45,
      "midi": 39,
      "velocity": 108,
      "voice": "bass",
      "bar": 41
    },
    {
      "beat": 164,
      "duration": 0.07,
      "midi": 42,
      "velocity": 44,
      "voice": "hat",
      "bar": 41
    },
    {
      "beat": 164,
      "duration": 0.16,
      "midi": 36,
      "velocity": 124,
      "voice": "kick",
      "bar": 41
    },
    {
      "beat": 164,
      "duration": 1.5,
      "midi": 67,
      "velocity": 112,
      "voice": "lead",
      "bar": 41
    },
    {
      "beat": 164,
      "duration": 4,
      "midi": 51,
      "velocity": 58,
      "voice": "pad",
      "bar": 41
    },
    {
      "beat": 164,
      "duration": 4,
      "midi": 55,
      "velocity": 58,
      "voice": "pad",
      "bar": 41
    },
    {
      "beat": 164,
      "duration": 4,
      "midi": 58,
      "velocity": 58,
      "voice": "pad",
      "bar": 41
    },
    {
      "beat": 164,
      "duration": 4,
      "midi": 63,
      "velocity": 58,
      "voice": "pad",
      "bar": 41
    },
    {
      "beat": 164,
      "duration": 0.18,
      "midi": 64,
      "velocity": 96,
      "voice": "perc",
      "bar": 41
    },
    {
      "beat": 164.25,
      "duration": 0.22,
      "midi": 55,
      "velocity": 70,
      "voice": "arp",
      "bar": 41
    },
    {
      "beat": 164.25,
      "duration": 0.05,
      "midi": 42,
      "velocity": 34,
      "voice": "hat",
      "bar": 41
    },
    {
      "beat": 164.5,
      "duration": 0.24,
      "midi": 63,
      "velocity": 80,
      "voice": "acid",
      "bar": 41,
      "slide": true
    },
    {
      "beat": 164.5,
      "duration": 0.22,
      "midi": 58,
      "velocity": 70,
      "voice": "arp",
      "bar": 41
    },
    {
      "beat": 164.5,
      "duration": 0.45,
      "midi": 39,
      "velocity": 100,
      "voice": "bass",
      "bar": 41
    },
    {
      "beat": 164.5,
      "duration": 0.14,
      "midi": 46,
      "velocity": 74,
      "voice": "hat",
      "bar": 41
    },
    {
      "beat": 164.5,
      "duration": 0.1,
      "midi": 62,
      "velocity": 72,
      "voice": "perc",
      "bar": 41
    },
    {
      "beat": 164.5,
      "duration": 0.22,
      "midi": 63,
      "velocity": 92,
      "voice": "stab",
      "bar": 41
    },
    {
      "beat": 164.5,
      "duration": 0.22,
      "midi": 67,
      "velocity": 92,
      "voice": "stab",
      "bar": 41
    },
    {
      "beat": 164.5,
      "duration": 0.22,
      "midi": 70,
      "velocity": 92,
      "voice": "stab",
      "bar": 41
    },
    {
      "beat": 164.75,
      "duration": 0.24,
      "midi": 51,
      "velocity": 80,
      "voice": "acid",
      "bar": 41,
      "slide": false
    },
    {
      "beat": 164.75,
      "duration": 0.22,
      "midi": 63,
      "velocity": 70,
      "voice": "arp",
      "bar": 41
    },
    {
      "beat": 164.75,
      "duration": 0.05,
      "midi": 42,
      "velocity": 34,
      "voice": "hat",
      "bar": 41
    },
    {
      "beat": 165.0,
      "duration": 0.24,
      "midi": 52,
      "velocity": 120,
      "voice": "acid",
      "bar": 41,
      "slide": false
    },
    {
      "beat": 165.0,
      "duration": 0.22,
      "midi": 58,
      "velocity": 84,
      "voice": "arp",
      "bar": 41
    },
    {
      "beat": 165.0,
      "duration": 0.45,
      "midi": 51,
      "velocity": 100,
      "voice": "bass",
      "bar": 41
    },
    {
      "beat": 165,
      "duration": 0.2,
      "midi": 39,
      "velocity": 104,
      "voice": "clap",
      "bar": 41
    },
    {
      "beat": 165,
      "duration": 0.07,
      "midi": 42,
      "velocity": 44,
      "voice": "hat",
      "bar": 41
    },
    {
      "beat": 165,
      "duration": 0.16,
      "midi": 36,
      "velocity": 116,
      "voice": "kick",
      "bar": 41
    },
    {
      "beat": 165.25,
      "duration": 0.22,
      "midi": 55,
      "velocity": 70,
      "voice": "arp",
      "bar": 41
    },
    {
      "beat": 165.25,
      "duration": 0.05,
      "midi": 42,
      "velocity": 34,
      "voice": "hat",
      "bar": 41
    },
    {
      "beat": 165.5,
      "duration": 0.24,
      "midi": 51,
      "velocity": 80,
      "voice": "acid",
      "bar": 41,
      "slide": false
    },
    {
      "beat": 165.5,
      "duration": 0.22,
      "midi": 51,
      "velocity": 70,
      "voice": "arp",
      "bar": 41
    },
    {
      "beat": 165.5,
      "duration": 0.45,
      "midi": 39,
      "velocity": 100,
      "voice": "bass",
      "bar": 41
    },
    {
      "beat": 165.5,
      "duration": 0.14,
      "midi": 46,
      "velocity": 74,
      "voice": "hat",
      "bar": 41
    },
    {
      "beat": 165.5,
      "duration": 0.5,
      "midi": 70,
      "velocity": 112,
      "voice": "lead",
      "bar": 41
    },
    {
      "beat": 165.5,
      "duration": 0.1,
      "midi": 62,
      "velocity": 72,
      "voice": "perc",
      "bar": 41
    },
    {
      "beat": 165.5,
      "duration": 0.22,
      "midi": 63,
      "velocity": 92,
      "voice": "stab",
      "bar": 41
    },
    {
      "beat": 165.5,
      "duration": 0.22,
      "midi": 67,
      "velocity": 92,
      "voice": "stab",
      "bar": 41
    },
    {
      "beat": 165.5,
      "duration": 0.22,
      "midi": 70,
      "velocity": 92,
      "voice": "stab",
      "bar": 41
    },
    {
      "beat": 165.75,
      "duration": 0.24,
      "midi": 63,
      "velocity": 80,
      "voice": "acid",
      "bar": 41,
      "slide": true
    },
    {
      "beat": 165.75,
      "duration": 0.22,
      "midi": 55,
      "velocity": 70,
      "voice": "arp",
      "bar": 41
    },
    {
      "beat": 165.75,
      "duration": 0.05,
      "midi": 42,
      "velocity": 34,
      "voice": "hat",
      "bar": 41
    },
    {
      "beat": 166.0,
      "duration": 0.24,
      "midi": 51,
      "velocity": 120,
      "voice": "acid",
      "bar": 41,
      "slide": false
    },
    {
      "beat": 166.0,
      "duration": 0.22,
      "midi": 58,
      "velocity": 84,
      "voice": "arp",
      "bar": 41
    },
    {
      "beat": 166.0,
      "duration": 0.45,
      "midi": 39,
      "velocity": 100,
      "voice": "bass",
      "bar": 41
    },
    {
      "beat": 166,
      "duration": 0.07,
      "midi": 42,
      "velocity": 44,
      "voice": "hat",
      "bar": 41
    },
    {
      "beat": 166,
      "duration": 0.16,
      "midi": 36,
      "velocity": 116,
      "voice": "kick",
      "bar": 41
    },
    {
      "beat": 166,
      "duration": 1,
      "midi": 69,
      "velocity": 112,
      "voice": "lead",
      "bar": 41
    },
    {
      "beat": 166,
      "duration": 0.18,
      "midi": 64,
      "velocity": 96,
      "voice": "perc",
      "bar": 41
    },
    {
      "beat": 166.25,
      "duration": 0.22,
      "midi": 63,
      "velocity": 70,
      "voice": "arp",
      "bar": 41
    },
    {
      "beat": 166.25,
      "duration": 0.05,
      "midi": 42,
      "velocity": 34,
      "voice": "hat",
      "bar": 41
    },
    {
      "beat": 166.5,
      "duration": 0.24,
      "midi": 64,
      "velocity": 80,
      "voice": "acid",
      "bar": 41,
      "slide": true
    },
    {
      "beat": 166.5,
      "duration": 0.22,
      "midi": 58,
      "velocity": 70,
      "voice": "arp",
      "bar": 41
    },
    {
      "beat": 166.5,
      "duration": 0.45,
      "midi": 39,
      "velocity": 100,
      "voice": "bass",
      "bar": 41
    },
    {
      "beat": 166.5,
      "duration": 0.14,
      "midi": 46,
      "velocity": 74,
      "voice": "hat",
      "bar": 41
    },
    {
      "beat": 166.5,
      "duration": 0.22,
      "midi": 63,
      "velocity": 92,
      "voice": "stab",
      "bar": 41
    },
    {
      "beat": 166.5,
      "duration": 0.22,
      "midi": 67,
      "velocity": 92,
      "voice": "stab",
      "bar": 41
    },
    {
      "beat": 166.5,
      "duration": 0.22,
      "midi": 70,
      "velocity": 92,
      "voice": "stab",
      "bar": 41
    },
    {
      "beat": 166.75,
      "duration": 0.24,
      "midi": 51,
      "velocity": 80,
      "voice": "acid",
      "bar": 41,
      "slide": false
    },
    {
      "beat": 166.75,
      "duration": 0.22,
      "midi": 55,
      "velocity": 70,
      "voice": "arp",
      "bar": 41
    },
    {
      "beat": 166.75,
      "duration": 0.05,
      "midi": 42,
      "velocity": 34,
      "voice": "hat",
      "bar": 41
    },
    {
      "beat": 167.0,
      "duration": 0.22,
      "midi": 51,
      "velocity": 84,
      "voice": "arp",
      "bar": 41
    },
    {
      "beat": 167.0,
      "duration": 0.45,
      "midi": 51,
      "velocity": 100,
      "voice": "bass",
      "bar": 41
    },
    {
      "beat": 167,
      "duration": 0.2,
      "midi": 39,
      "velocity": 104,
      "voice": "clap",
      "bar": 41
    },
    {
      "beat": 167,
      "duration": 0.07,
      "midi": 42,
      "velocity": 44,
      "voice": "hat",
      "bar": 41
    },
    {
      "beat": 167,
      "duration": 0.16,
      "midi": 36,
      "velocity": 116,
      "voice": "kick",
      "bar": 41
    },
    {
      "beat": 167,
      "duration": 1,
      "midi": 67,
      "velocity": 112,
      "voice": "lead",
      "bar": 41
    },
    {
      "beat": 167,
      "duration": 0.1,
      "midi": 62,
      "velocity": 72,
      "voice": "perc",
      "bar": 41
    },
    {
      "beat": 167.25,
      "duration": 0.24,
      "midi": 51,
      "velocity": 120,
      "voice": "acid",
      "bar": 41,
      "slide": false
    },
    {
      "beat": 167.25,
      "duration": 0.22,
      "midi": 55,
      "velocity": 70,
      "voice": "arp",
      "bar": 41
    },
    {
      "beat": 167.25,
      "duration": 0.05,
      "midi": 42,
      "velocity": 34,
      "voice": "hat",
      "bar": 41
    },
    {
      "beat": 167.5,
      "duration": 0.24,
      "midi": 63,
      "velocity": 80,
      "voice": "acid",
      "bar": 41,
      "slide": true
    },
    {
      "beat": 167.5,
      "duration": 0.22,
      "midi": 58,
      "velocity": 70,
      "voice": "arp",
      "bar": 41
    },
    {
      "beat": 167.5,
      "duration": 0.45,
      "midi": 39,
      "velocity": 100,
      "voice": "bass",
      "bar": 41
    },
    {
      "beat": 167.5,
      "duration": 0.14,
      "midi": 46,
      "velocity": 74,
      "voice": "hat",
      "bar": 41
    },
    {
      "beat": 167.5,
      "duration": 0.1,
      "midi": 62,
      "velocity": 72,
      "voice": "perc",
      "bar": 41
    },
    {
      "beat": 167.5,
      "duration": 0.22,
      "midi": 63,
      "velocity": 92,
      "voice": "stab",
      "bar": 41
    },
    {
      "beat": 167.5,
      "duration": 0.22,
      "midi": 67,
      "velocity": 92,
      "voice": "stab",
      "bar": 41
    },
    {
      "beat": 167.5,
      "duration": 0.22,
      "midi": 70,
      "velocity": 92,
      "voice": "stab",
      "bar": 41
    },
    {
      "beat": 167.75,
      "duration": 0.24,
      "midi": 52,
      "velocity": 80,
      "voice": "acid",
      "bar": 41,
      "slide": false
    },
    {
      "beat": 167.75,
      "duration": 0.22,
      "midi": 63,
      "velocity": 70,
      "voice": "arp",
      "bar": 41
    },
    {
      "beat": 167.75,
      "duration": 0.05,
      "midi": 42,
      "velocity": 34,
      "voice": "hat",
      "bar": 41
    },
    {
      "beat": 168.0,
      "duration": 0.24,
      "midi": 55,
      "velocity": 120,
      "voice": "acid",
      "bar": 42,
      "slide": false
    },
    {
      "beat": 168.0,
      "duration": 0.22,
      "midi": 55,
      "velocity": 84,
      "voice": "arp",
      "bar": 42
    },
    {
      "beat": 168.0,
      "duration": 0.45,
      "midi": 43,
      "velocity": 108,
      "voice": "bass",
      "bar": 42
    },
    {
      "beat": 168,
      "duration": 0.07,
      "midi": 42,
      "velocity": 44,
      "voice": "hat",
      "bar": 42
    },
    {
      "beat": 168,
      "duration": 0.16,
      "midi": 36,
      "velocity": 124,
      "voice": "kick",
      "bar": 42
    },
    {
      "beat": 168,
      "duration": 1,
      "midi": 70,
      "velocity": 112,
      "voice": "lead",
      "bar": 42
    },
    {
      "beat": 168,
      "duration": 4,
      "midi": 55,
      "velocity": 58,
      "voice": "pad",
      "bar": 42
    },
    {
      "beat": 168,
      "duration": 4,
      "midi": 58,
      "velocity": 58,
      "voice": "pad",
      "bar": 42
    },
    {
      "beat": 168,
      "duration": 4,
      "midi": 62,
      "velocity": 58,
      "voice": "pad",
      "bar": 42
    },
    {
      "beat": 168,
      "duration": 4,
      "midi": 67,
      "velocity": 58,
      "voice": "pad",
      "bar": 42
    },
    {
      "beat": 168,
      "duration": 0.18,
      "midi": 64,
      "velocity": 96,
      "voice": "perc",
      "bar": 42
    },
    {
      "beat": 168.25,
      "duration": 0.22,
      "midi": 58,
      "velocity": 70,
      "voice": "arp",
      "bar": 42
    },
    {
      "beat": 168.25,
      "duration": 0.05,
      "midi": 42,
      "velocity": 34,
      "voice": "hat",
      "bar": 42
    },
    {
      "beat": 168.5,
      "duration": 0.24,
      "midi": 67,
      "velocity": 80,
      "voice": "acid",
      "bar": 42,
      "slide": true
    },
    {
      "beat": 168.5,
      "duration": 0.22,
      "midi": 62,
      "velocity": 70,
      "voice": "arp",
      "bar": 42
    },
    {
      "beat": 168.5,
      "duration": 0.45,
      "midi": 43,
      "velocity": 100,
      "voice": "bass",
      "bar": 42
    },
    {
      "beat": 168.5,
      "duration": 0.14,
      "midi": 46,
      "velocity": 74,
      "voice": "hat",
      "bar": 42
    },
    {
      "beat": 168.5,
      "duration": 0.1,
      "midi": 62,
      "velocity": 72,
      "voice": "perc",
      "bar": 42
    },
    {
      "beat": 168.5,
      "duration": 0.22,
      "midi": 67,
      "velocity": 92,
      "voice": "stab",
      "bar": 42
    },
    {
      "beat": 168.5,
      "duration": 0.22,
      "midi": 70,
      "velocity": 92,
      "voice": "stab",
      "bar": 42
    },
    {
      "beat": 168.5,
      "duration": 0.22,
      "midi": 74,
      "velocity": 92,
      "voice": "stab",
      "bar": 42
    },
    {
      "beat": 168.75,
      "duration": 0.24,
      "midi": 55,
      "velocity": 80,
      "voice": "acid",
      "bar": 42,
      "slide": false
    },
    {
      "beat": 168.75,
      "duration": 0.22,
      "midi": 67,
      "velocity": 70,
      "voice": "arp",
      "bar": 42
    },
    {
      "beat": 168.75,
      "duration": 0.05,
      "midi": 42,
      "velocity": 34,
      "voice": "hat",
      "bar": 42
    },
    {
      "beat": 169.0,
      "duration": 0.24,
      "midi": 56,
      "velocity": 120,
      "voice": "acid",
      "bar": 42,
      "slide": false
    },
    {
      "beat": 169.0,
      "duration": 0.22,
      "midi": 62,
      "velocity": 84,
      "voice": "arp",
      "bar": 42
    },
    {
      "beat": 169.0,
      "duration": 0.45,
      "midi": 55,
      "velocity": 100,
      "voice": "bass",
      "bar": 42
    },
    {
      "beat": 169,
      "duration": 0.2,
      "midi": 39,
      "velocity": 104,
      "voice": "clap",
      "bar": 42
    },
    {
      "beat": 169,
      "duration": 0.07,
      "midi": 42,
      "velocity": 44,
      "voice": "hat",
      "bar": 42
    },
    {
      "beat": 169,
      "duration": 0.16,
      "midi": 36,
      "velocity": 116,
      "voice": "kick",
      "bar": 42
    },
    {
      "beat": 169,
      "duration": 0.5,
      "midi": 69,
      "velocity": 112,
      "voice": "lead",
      "bar": 42
    },
    {
      "beat": 169.25,
      "duration": 0.22,
      "midi": 58,
      "velocity": 70,
      "voice": "arp",
      "bar": 42
    },
    {
      "beat": 169.25,
      "duration": 0.05,
      "midi": 42,
      "velocity": 34,
      "voice": "hat",
      "bar": 42
    },
    {
      "beat": 169.5,
      "duration": 0.24,
      "midi": 55,
      "velocity": 80,
      "voice": "acid",
      "bar": 42,
      "slide": false
    },
    {
      "beat": 169.5,
      "duration": 0.22,
      "midi": 55,
      "velocity": 70,
      "voice": "arp",
      "bar": 42
    },
    {
      "beat": 169.5,
      "duration": 0.45,
      "midi": 43,
      "velocity": 100,
      "voice": "bass",
      "bar": 42
    },
    {
      "beat": 169.5,
      "duration": 0.14,
      "midi": 46,
      "velocity": 74,
      "voice": "hat",
      "bar": 42
    },
    {
      "beat": 169.5,
      "duration": 0.5,
      "midi": 67,
      "velocity": 112,
      "voice": "lead",
      "bar": 42
    },
    {
      "beat": 169.5,
      "duration": 0.1,
      "midi": 62,
      "velocity": 72,
      "voice": "perc",
      "bar": 42
    },
    {
      "beat": 169.5,
      "duration": 0.22,
      "midi": 67,
      "velocity": 92,
      "voice": "stab",
      "bar": 42
    },
    {
      "beat": 169.5,
      "duration": 0.22,
      "midi": 70,
      "velocity": 92,
      "voice": "stab",
      "bar": 42
    },
    {
      "beat": 169.5,
      "duration": 0.22,
      "midi": 74,
      "velocity": 92,
      "voice": "stab",
      "bar": 42
    },
    {
      "beat": 169.75,
      "duration": 0.24,
      "midi": 67,
      "velocity": 80,
      "voice": "acid",
      "bar": 42,
      "slide": true
    },
    {
      "beat": 169.75,
      "duration": 0.22,
      "midi": 58,
      "velocity": 70,
      "voice": "arp",
      "bar": 42
    },
    {
      "beat": 169.75,
      "duration": 0.05,
      "midi": 42,
      "velocity": 34,
      "voice": "hat",
      "bar": 42
    },
    {
      "beat": 170.0,
      "duration": 0.24,
      "midi": 55,
      "velocity": 120,
      "voice": "acid",
      "bar": 42,
      "slide": false
    },
    {
      "beat": 170.0,
      "duration": 0.22,
      "midi": 62,
      "velocity": 84,
      "voice": "arp",
      "bar": 42
    },
    {
      "beat": 170.0,
      "duration": 0.45,
      "midi": 43,
      "velocity": 100,
      "voice": "bass",
      "bar": 42
    },
    {
      "beat": 170,
      "duration": 0.07,
      "midi": 42,
      "velocity": 44,
      "voice": "hat",
      "bar": 42
    },
    {
      "beat": 170,
      "duration": 0.16,
      "midi": 36,
      "velocity": 116,
      "voice": "kick",
      "bar": 42
    },
    {
      "beat": 170,
      "duration": 1,
      "midi": 74,
      "velocity": 112,
      "voice": "lead",
      "bar": 42
    },
    {
      "beat": 170,
      "duration": 0.18,
      "midi": 64,
      "velocity": 96,
      "voice": "perc",
      "bar": 42
    },
    {
      "beat": 170.25,
      "duration": 0.22,
      "midi": 67,
      "velocity": 70,
      "voice": "arp",
      "bar": 42
    },
    {
      "beat": 170.25,
      "duration": 0.05,
      "midi": 42,
      "velocity": 34,
      "voice": "hat",
      "bar": 42
    },
    {
      "beat": 170.5,
      "duration": 0.24,
      "midi": 68,
      "velocity": 80,
      "voice": "acid",
      "bar": 42,
      "slide": true
    },
    {
      "beat": 170.5,
      "duration": 0.22,
      "midi": 62,
      "velocity": 70,
      "voice": "arp",
      "bar": 42
    },
    {
      "beat": 170.5,
      "duration": 0.45,
      "midi": 43,
      "velocity": 100,
      "voice": "bass",
      "bar": 42
    },
    {
      "beat": 170.5,
      "duration": 0.14,
      "midi": 46,
      "velocity": 74,
      "voice": "hat",
      "bar": 42
    },
    {
      "beat": 170.5,
      "duration": 0.22,
      "midi": 67,
      "velocity": 92,
      "voice": "stab",
      "bar": 42
    },
    {
      "beat": 170.5,
      "duration": 0.22,
      "midi": 70,
      "velocity": 92,
      "voice": "stab",
      "bar": 42
    },
    {
      "beat": 170.5,
      "duration": 0.22,
      "midi": 74,
      "velocity": 92,
      "voice": "stab",
      "bar": 42
    },
    {
      "beat": 170.75,
      "duration": 0.24,
      "midi": 55,
      "velocity": 80,
      "voice": "acid",
      "bar": 42,
      "slide": false
    },
    {
      "beat": 170.75,
      "duration": 0.22,
      "midi": 58,
      "velocity": 70,
      "voice": "arp",
      "bar": 42
    },
    {
      "beat": 170.75,
      "duration": 0.05,
      "midi": 42,
      "velocity": 34,
      "voice": "hat",
      "bar": 42
    },
    {
      "beat": 171.0,
      "duration": 0.22,
      "midi": 55,
      "velocity": 84,
      "voice": "arp",
      "bar": 42
    },
    {
      "beat": 171.0,
      "duration": 0.45,
      "midi": 55,
      "velocity": 100,
      "voice": "bass",
      "bar": 42
    },
    {
      "beat": 171,
      "duration": 0.2,
      "midi": 39,
      "velocity": 104,
      "voice": "clap",
      "bar": 42
    },
    {
      "beat": 171,
      "duration": 0.07,
      "midi": 42,
      "velocity": 44,
      "voice": "hat",
      "bar": 42
    },
    {
      "beat": 171,
      "duration": 0.16,
      "midi": 36,
      "velocity": 116,
      "voice": "kick",
      "bar": 42
    },
    {
      "beat": 171,
      "duration": 1,
      "midi": 70,
      "velocity": 112,
      "voice": "lead",
      "bar": 42
    },
    {
      "beat": 171,
      "duration": 0.1,
      "midi": 62,
      "velocity": 72,
      "voice": "perc",
      "bar": 42
    },
    {
      "beat": 171.25,
      "duration": 0.24,
      "midi": 55,
      "velocity": 120,
      "voice": "acid",
      "bar": 42,
      "slide": false
    },
    {
      "beat": 171.25,
      "duration": 0.22,
      "midi": 58,
      "velocity": 70,
      "voice": "arp",
      "bar": 42
    },
    {
      "beat": 171.25,
      "duration": 0.05,
      "midi": 42,
      "velocity": 34,
      "voice": "hat",
      "bar": 42
    },
    {
      "beat": 171.5,
      "duration": 0.24,
      "midi": 67,
      "velocity": 80,
      "voice": "acid",
      "bar": 42,
      "slide": true
    },
    {
      "beat": 171.5,
      "duration": 0.22,
      "midi": 62,
      "velocity": 70,
      "voice": "arp",
      "bar": 42
    },
    {
      "beat": 171.5,
      "duration": 0.45,
      "midi": 43,
      "velocity": 100,
      "voice": "bass",
      "bar": 42
    },
    {
      "beat": 171.5,
      "duration": 0.14,
      "midi": 46,
      "velocity": 74,
      "voice": "hat",
      "bar": 42
    },
    {
      "beat": 171.5,
      "duration": 0.1,
      "midi": 62,
      "velocity": 72,
      "voice": "perc",
      "bar": 42
    },
    {
      "beat": 171.5,
      "duration": 0.22,
      "midi": 67,
      "velocity": 92,
      "voice": "stab",
      "bar": 42
    },
    {
      "beat": 171.5,
      "duration": 0.22,
      "midi": 70,
      "velocity": 92,
      "voice": "stab",
      "bar": 42
    },
    {
      "beat": 171.5,
      "duration": 0.22,
      "midi": 74,
      "velocity": 92,
      "voice": "stab",
      "bar": 42
    },
    {
      "beat": 171.75,
      "duration": 0.24,
      "midi": 56,
      "velocity": 80,
      "voice": "acid",
      "bar": 42,
      "slide": false
    },
    {
      "beat": 171.75,
      "duration": 0.22,
      "midi": 67,
      "velocity": 70,
      "voice": "arp",
      "bar": 42
    },
    {
      "beat": 171.75,
      "duration": 0.05,
      "midi": 42,
      "velocity": 34,
      "voice": "hat",
      "bar": 42
    },
    {
      "beat": 172.0,
      "duration": 0.24,
      "midi": 57,
      "velocity": 120,
      "voice": "acid",
      "bar": 43,
      "slide": false
    },
    {
      "beat": 172.0,
      "duration": 0.22,
      "midi": 57,
      "velocity": 84,
      "voice": "arp",
      "bar": 43
    },
    {
      "beat": 172.0,
      "duration": 0.45,
      "midi": 45,
      "velocity": 108,
      "voice": "bass",
      "bar": 43
    },
    {
      "beat": 172,
      "duration": 0.07,
      "midi": 42,
      "velocity": 44,
      "voice": "hat",
      "bar": 43
    },
    {
      "beat": 172,
      "duration": 0.16,
      "midi": 36,
      "velocity": 124,
      "voice": "kick",
      "bar": 43
    },
    {
      "beat": 172,
      "duration": 1,
      "midi": 73,
      "velocity": 112,
      "voice": "lead",
      "bar": 43
    },
    {
      "beat": 172,
      "duration": 4,
      "midi": 57,
      "velocity": 58,
      "voice": "pad",
      "bar": 43
    },
    {
      "beat": 172,
      "duration": 4,
      "midi": 61,
      "velocity": 58,
      "voice": "pad",
      "bar": 43
    },
    {
      "beat": 172,
      "duration": 4,
      "midi": 64,
      "velocity": 58,
      "voice": "pad",
      "bar": 43
    },
    {
      "beat": 172,
      "duration": 4,
      "midi": 69,
      "velocity": 58,
      "voice": "pad",
      "bar": 43
    },
    {
      "beat": 172,
      "duration": 0.18,
      "midi": 64,
      "velocity": 96,
      "voice": "perc",
      "bar": 43
    },
    {
      "beat": 172.25,
      "duration": 0.22,
      "midi": 61,
      "velocity": 70,
      "voice": "arp",
      "bar": 43
    },
    {
      "beat": 172.25,
      "duration": 0.05,
      "midi": 42,
      "velocity": 34,
      "voice": "hat",
      "bar": 43
    },
    {
      "beat": 172.5,
      "duration": 0.24,
      "midi": 69,
      "velocity": 80,
      "voice": "acid",
      "bar": 43,
      "slide": true
    },
    {
      "beat": 172.5,
      "duration": 0.22,
      "midi": 64,
      "velocity": 70,
      "voice": "arp",
      "bar": 43
    },
    {
      "beat": 172.5,
      "duration": 0.45,
      "midi": 45,
      "velocity": 100,
      "voice": "bass",
      "bar": 43
    },
    {
      "beat": 172.5,
      "duration": 0.14,
      "midi": 46,
      "velocity": 74,
      "voice": "hat",
      "bar": 43
    },
    {
      "beat": 172.5,
      "duration": 0.1,
      "midi": 62,
      "velocity": 72,
      "voice": "perc",
      "bar": 43
    },
    {
      "beat": 172.5,
      "duration": 0.22,
      "midi": 69,
      "velocity": 92,
      "voice": "stab",
      "bar": 43
    },
    {
      "beat": 172.5,
      "duration": 0.22,
      "midi": 73,
      "velocity": 92,
      "voice": "stab",
      "bar": 43
    },
    {
      "beat": 172.5,
      "duration": 0.22,
      "midi": 76,
      "velocity": 92,
      "voice": "stab",
      "bar": 43
    },
    {
      "beat": 172.75,
      "duration": 0.24,
      "midi": 57,
      "velocity": 80,
      "voice": "acid",
      "bar": 43,
      "slide": false
    },
    {
      "beat": 172.75,
      "duration": 0.22,
      "midi": 69,
      "velocity": 70,
      "voice": "arp",
      "bar": 43
    },
    {
      "beat": 172.75,
      "duration": 0.05,
      "midi": 42,
      "velocity": 34,
      "voice": "hat",
      "bar": 43
    },
    {
      "beat": 173.0,
      "duration": 0.24,
      "midi": 58,
      "velocity": 120,
      "voice": "acid",
      "bar": 43,
      "slide": false
    },
    {
      "beat": 173.0,
      "duration": 0.22,
      "midi": 64,
      "velocity": 84,
      "voice": "arp",
      "bar": 43
    },
    {
      "beat": 173.0,
      "duration": 0.45,
      "midi": 57,
      "velocity": 100,
      "voice": "bass",
      "bar": 43
    },
    {
      "beat": 173,
      "duration": 0.2,
      "midi": 39,
      "velocity": 104,
      "voice": "clap",
      "bar": 43
    },
    {
      "beat": 173,
      "duration": 0.07,
      "midi": 42,
      "velocity": 44,
      "voice": "hat",
      "bar": 43
    },
    {
      "beat": 173,
      "duration": 0.16,
      "midi": 36,
      "velocity": 116,
      "voice": "kick",
      "bar": 43
    },
    {
      "beat": 173,
      "duration": 0.5,
      "midi": 74,
      "velocity": 112,
      "voice": "lead",
      "bar": 43
    },
    {
      "beat": 173.25,
      "duration": 0.22,
      "midi": 61,
      "velocity": 70,
      "voice": "arp",
      "bar": 43
    },
    {
      "beat": 173.25,
      "duration": 0.05,
      "midi": 42,
      "velocity": 34,
      "voice": "hat",
      "bar": 43
    },
    {
      "beat": 173.5,
      "duration": 0.24,
      "midi": 57,
      "velocity": 80,
      "voice": "acid",
      "bar": 43,
      "slide": false
    },
    {
      "beat": 173.5,
      "duration": 0.22,
      "midi": 57,
      "velocity": 70,
      "voice": "arp",
      "bar": 43
    },
    {
      "beat": 173.5,
      "duration": 0.45,
      "midi": 45,
      "velocity": 100,
      "voice": "bass",
      "bar": 43
    },
    {
      "beat": 173.5,
      "duration": 0.14,
      "midi": 46,
      "velocity": 74,
      "voice": "hat",
      "bar": 43
    },
    {
      "beat": 173.5,
      "duration": 0.5,
      "midi": 73,
      "velocity": 112,
      "voice": "lead",
      "bar": 43
    },
    {
      "beat": 173.5,
      "duration": 0.1,
      "midi": 62,
      "velocity": 72,
      "voice": "perc",
      "bar": 43
    },
    {
      "beat": 173.5,
      "duration": 0.22,
      "midi": 69,
      "velocity": 92,
      "voice": "stab",
      "bar": 43
    },
    {
      "beat": 173.5,
      "duration": 0.22,
      "midi": 73,
      "velocity": 92,
      "voice": "stab",
      "bar": 43
    },
    {
      "beat": 173.5,
      "duration": 0.22,
      "midi": 76,
      "velocity": 92,
      "voice": "stab",
      "bar": 43
    },
    {
      "beat": 173.75,
      "duration": 0.24,
      "midi": 69,
      "velocity": 80,
      "voice": "acid",
      "bar": 43,
      "slide": true
    },
    {
      "beat": 173.75,
      "duration": 0.22,
      "midi": 61,
      "velocity": 70,
      "voice": "arp",
      "bar": 43
    },
    {
      "beat": 173.75,
      "duration": 0.05,
      "midi": 42,
      "velocity": 34,
      "voice": "hat",
      "bar": 43
    },
    {
      "beat": 174.0,
      "duration": 0.24,
      "midi": 57,
      "velocity": 120,
      "voice": "acid",
      "bar": 43,
      "slide": false
    },
    {
      "beat": 174.0,
      "duration": 0.22,
      "midi": 64,
      "velocity": 84,
      "voice": "arp",
      "bar": 43
    },
    {
      "beat": 174.0,
      "duration": 0.45,
      "midi": 45,
      "velocity": 100,
      "voice": "bass",
      "bar": 43
    },
    {
      "beat": 174,
      "duration": 0.07,
      "midi": 42,
      "velocity": 44,
      "voice": "hat",
      "bar": 43
    },
    {
      "beat": 174,
      "duration": 0.16,
      "midi": 36,
      "velocity": 116,
      "voice": "kick",
      "bar": 43
    },
    {
      "beat": 174,
      "duration": 2,
      "midi": 69,
      "velocity": 112,
      "voice": "lead",
      "bar": 43
    },
    {
      "beat": 174,
      "duration": 0.18,
      "midi": 64,
      "velocity": 96,
      "voice": "perc",
      "bar": 43
    },
    {
      "beat": 174.25,
      "duration": 0.22,
      "midi": 69,
      "velocity": 70,
      "voice": "arp",
      "bar": 43
    },
    {
      "beat": 174.25,
      "duration": 0.05,
      "midi": 42,
      "velocity": 34,
      "voice": "hat",
      "bar": 43
    },
    {
      "beat": 174.5,
      "duration": 0.24,
      "midi": 70,
      "velocity": 80,
      "voice": "acid",
      "bar": 43,
      "slide": true
    },
    {
      "beat": 174.5,
      "duration": 0.22,
      "midi": 64,
      "velocity": 70,
      "voice": "arp",
      "bar": 43
    },
    {
      "beat": 174.5,
      "duration": 0.45,
      "midi": 45,
      "velocity": 100,
      "voice": "bass",
      "bar": 43
    },
    {
      "beat": 174.5,
      "duration": 0.14,
      "midi": 46,
      "velocity": 74,
      "voice": "hat",
      "bar": 43
    },
    {
      "beat": 174.5,
      "duration": 0.22,
      "midi": 69,
      "velocity": 92,
      "voice": "stab",
      "bar": 43
    },
    {
      "beat": 174.5,
      "duration": 0.22,
      "midi": 73,
      "velocity": 92,
      "voice": "stab",
      "bar": 43
    },
    {
      "beat": 174.5,
      "duration": 0.22,
      "midi": 76,
      "velocity": 92,
      "voice": "stab",
      "bar": 43
    },
    {
      "beat": 174.75,
      "duration": 0.24,
      "midi": 57,
      "velocity": 80,
      "voice": "acid",
      "bar": 43,
      "slide": false
    },
    {
      "beat": 174.75,
      "duration": 0.22,
      "midi": 61,
      "velocity": 70,
      "voice": "arp",
      "bar": 43
    },
    {
      "beat": 174.75,
      "duration": 0.05,
      "midi": 42,
      "velocity": 34,
      "voice": "hat",
      "bar": 43
    },
    {
      "beat": 175.0,
      "duration": 0.22,
      "midi": 57,
      "velocity": 84,
      "voice": "arp",
      "bar": 43
    },
    {
      "beat": 175.0,
      "duration": 0.45,
      "midi": 57,
      "velocity": 100,
      "voice": "bass",
      "bar": 43
    },
    {
      "beat": 175,
      "duration": 0.2,
      "midi": 39,
      "velocity": 104,
      "voice": "clap",
      "bar": 43
    },
    {
      "beat": 175,
      "duration": 0.07,
      "midi": 42,
      "velocity": 44,
      "voice": "hat",
      "bar": 43
    },
    {
      "beat": 175,
      "duration": 0.16,
      "midi": 36,
      "velocity": 116,
      "voice": "kick",
      "bar": 43
    },
    {
      "beat": 175,
      "duration": 0.1,
      "midi": 62,
      "velocity": 72,
      "voice": "perc",
      "bar": 43
    },
    {
      "beat": 175.25,
      "duration": 0.24,
      "midi": 57,
      "velocity": 120,
      "voice": "acid",
      "bar": 43,
      "slide": false
    },
    {
      "beat": 175.25,
      "duration": 0.22,
      "midi": 61,
      "velocity": 70,
      "voice": "arp",
      "bar": 43
    },
    {
      "beat": 175.25,
      "duration": 0.05,
      "midi": 42,
      "velocity": 34,
      "voice": "hat",
      "bar": 43
    },
    {
      "beat": 175.5,
      "duration": 0.24,
      "midi": 69,
      "velocity": 80,
      "voice": "acid",
      "bar": 43,
      "slide": true
    },
    {
      "beat": 175.5,
      "duration": 0.22,
      "midi": 64,
      "velocity": 70,
      "voice": "arp",
      "bar": 43
    },
    {
      "beat": 175.5,
      "duration": 0.45,
      "midi": 45,
      "velocity": 100,
      "voice": "bass",
      "bar": 43
    },
    {
      "beat": 175.5,
      "duration": 0.14,
      "midi": 46,
      "velocity": 74,
      "voice": "hat",
      "bar": 43
    },
    {
      "beat": 175.5,
      "duration": 0.1,
      "midi": 62,
      "velocity": 72,
      "voice": "perc",
      "bar": 43
    },
    {
      "beat": 175.5,
      "duration": 0.22,
      "midi": 69,
      "velocity": 92,
      "voice": "stab",
      "bar": 43
    },
    {
      "beat": 175.5,
      "duration": 0.22,
      "midi": 73,
      "velocity": 92,
      "voice": "stab",
      "bar": 43
    },
    {
      "beat": 175.5,
      "duration": 0.22,
      "midi": 76,
      "velocity": 92,
      "voice": "stab",
      "bar": 43
    },
    {
      "beat": 175.75,
      "duration": 0.24,
      "midi": 58,
      "velocity": 80,
      "voice": "acid",
      "bar": 43,
      "slide": false
    },
    {
      "beat": 175.75,
      "duration": 0.22,
      "midi": 69,
      "velocity": 70,
      "voice": "arp",
      "bar": 43
    },
    {
      "beat": 175.75,
      "duration": 0.05,
      "midi": 42,
      "velocity": 34,
      "voice": "hat",
      "bar": 43
    },
    {
      "beat": 176.0,
      "duration": 0.24,
      "midi": 50,
      "velocity": 120,
      "voice": "acid",
      "bar": 44,
      "slide": false
    },
    {
      "beat": 176.0,
      "duration": 0.22,
      "midi": 50,
      "velocity": 84,
      "voice": "arp",
      "bar": 44
    },
    {
      "beat": 176.0,
      "duration": 0.45,
      "midi": 38,
      "velocity": 108,
      "voice": "bass",
      "bar": 44
    },
    {
      "beat": 176,
      "duration": 0.07,
      "midi": 42,
      "velocity": 44,
      "voice": "hat",
      "bar": 44
    },
    {
      "beat": 176,
      "duration": 0.16,
      "midi": 36,
      "velocity": 124,
      "voice": "kick",
      "bar": 44
    },
    {
      "beat": 176,
      "duration": 1,
      "midi": 74,
      "velocity": 112,
      "voice": "lead",
      "bar": 44
    },
    {
      "beat": 176,
      "duration": 4,
      "midi": 50,
      "velocity": 58,
      "voice": "pad",
      "bar": 44
    },
    {
      "beat": 176,
      "duration": 4,
      "midi": 54,
      "velocity": 58,
      "voice": "pad",
      "bar": 44
    },
    {
      "beat": 176,
      "duration": 4,
      "midi": 57,
      "velocity": 58,
      "voice": "pad",
      "bar": 44
    },
    {
      "beat": 176,
      "duration": 4,
      "midi": 62,
      "velocity": 58,
      "voice": "pad",
      "bar": 44
    },
    {
      "beat": 176,
      "duration": 0.18,
      "midi": 64,
      "velocity": 96,
      "voice": "perc",
      "bar": 44
    },
    {
      "beat": 176.25,
      "duration": 0.22,
      "midi": 54,
      "velocity": 70,
      "voice": "arp",
      "bar": 44
    },
    {
      "beat": 176.25,
      "duration": 0.05,
      "midi": 42,
      "velocity": 34,
      "voice": "hat",
      "bar": 44
    },
    {
      "beat": 176.5,
      "duration": 0.24,
      "midi": 62,
      "velocity": 80,
      "voice": "acid",
      "bar": 44,
      "slide": true
    },
    {
      "beat": 176.5,
      "duration": 0.22,
      "midi": 57,
      "velocity": 70,
      "voice": "arp",
      "bar": 44
    },
    {
      "beat": 176.5,
      "duration": 0.45,
      "midi": 38,
      "velocity": 100,
      "voice": "bass",
      "bar": 44
    },
    {
      "beat": 176.5,
      "duration": 0.14,
      "midi": 46,
      "velocity": 74,
      "voice": "hat",
      "bar": 44
    },
    {
      "beat": 176.5,
      "duration": 0.1,
      "midi": 62,
      "velocity": 72,
      "voice": "perc",
      "bar": 44
    },
    {
      "beat": 176.5,
      "duration": 0.22,
      "midi": 62,
      "velocity": 92,
      "voice": "stab",
      "bar": 44
    },
    {
      "beat": 176.5,
      "duration": 0.22,
      "midi": 66,
      "velocity": 92,
      "voice": "stab",
      "bar": 44
    },
    {
      "beat": 176.5,
      "duration": 0.22,
      "midi": 69,
      "velocity": 92,
      "voice": "stab",
      "bar": 44
    },
    {
      "beat": 176.75,
      "duration": 0.24,
      "midi": 50,
      "velocity": 80,
      "voice": "acid",
      "bar": 44,
      "slide": false
    },
    {
      "beat": 176.75,
      "duration": 0.22,
      "midi": 62,
      "velocity": 70,
      "voice": "arp",
      "bar": 44
    },
    {
      "beat": 176.75,
      "duration": 0.05,
      "midi": 42,
      "velocity": 34,
      "voice": "hat",
      "bar": 44
    },
    {
      "beat": 177.0,
      "duration": 0.24,
      "midi": 51,
      "velocity": 120,
      "voice": "acid",
      "bar": 44,
      "slide": false
    },
    {
      "beat": 177.0,
      "duration": 0.22,
      "midi": 57,
      "velocity": 84,
      "voice": "arp",
      "bar": 44
    },
    {
      "beat": 177.0,
      "duration": 0.45,
      "midi": 50,
      "velocity": 100,
      "voice": "bass",
      "bar": 44
    },
    {
      "beat": 177,
      "duration": 0.2,
      "midi": 39,
      "velocity": 104,
      "voice": "clap",
      "bar": 44
    },
    {
      "beat": 177,
      "duration": 0.07,
      "midi": 42,
      "velocity": 44,
      "voice": "hat",
      "bar": 44
    },
    {
      "beat": 177,
      "duration": 0.16,
      "midi": 36,
      "velocity": 116,
      "voice": "kick",
      "bar": 44
    },
    {
      "beat": 177,
      "duration": 0.5,
      "midi": 75,
      "velocity": 112,
      "voice": "lead",
      "bar": 44
    },
    {
      "beat": 177.25,
      "duration": 0.22,
      "midi": 54,
      "velocity": 70,
      "voice": "arp",
      "bar": 44
    },
    {
      "beat": 177.25,
      "duration": 0.05,
      "midi": 42,
      "velocity": 34,
      "voice": "hat",
      "bar": 44
    },
    {
      "beat": 177.5,
      "duration": 0.24,
      "midi": 50,
      "velocity": 80,
      "voice": "acid",
      "bar": 44,
      "slide": false
    },
    {
      "beat": 177.5,
      "duration": 0.22,
      "midi": 50,
      "velocity": 70,
      "voice": "arp",
      "bar": 44
    },
    {
      "beat": 177.5,
      "duration": 0.45,
      "midi": 38,
      "velocity": 100,
      "voice": "bass",
      "bar": 44
    },
    {
      "beat": 177.5,
      "duration": 0.14,
      "midi": 46,
      "velocity": 74,
      "voice": "hat",
      "bar": 44
    },
    {
      "beat": 177.5,
      "duration": 0.5,
      "midi": 74,
      "velocity": 112,
      "voice": "lead",
      "bar": 44
    },
    {
      "beat": 177.5,
      "duration": 0.1,
      "midi": 62,
      "velocity": 72,
      "voice": "perc",
      "bar": 44
    },
    {
      "beat": 177.5,
      "duration": 0.22,
      "midi": 62,
      "velocity": 92,
      "voice": "stab",
      "bar": 44
    },
    {
      "beat": 177.5,
      "duration": 0.22,
      "midi": 66,
      "velocity": 92,
      "voice": "stab",
      "bar": 44
    },
    {
      "beat": 177.5,
      "duration": 0.22,
      "midi": 69,
      "velocity": 92,
      "voice": "stab",
      "bar": 44
    },
    {
      "beat": 177.75,
      "duration": 0.24,
      "midi": 62,
      "velocity": 80,
      "voice": "acid",
      "bar": 44,
      "slide": true
    },
    {
      "beat": 177.75,
      "duration": 0.22,
      "midi": 54,
      "velocity": 70,
      "voice": "arp",
      "bar": 44
    },
    {
      "beat": 177.75,
      "duration": 0.05,
      "midi": 42,
      "velocity": 34,
      "voice": "hat",
      "bar": 44
    },
    {
      "beat": 178.0,
      "duration": 0.24,
      "midi": 50,
      "velocity": 120,
      "voice": "acid",
      "bar": 44,
      "slide": false
    },
    {
      "beat": 178.0,
      "duration": 0.22,
      "midi": 57,
      "velocity": 84,
      "voice": "arp",
      "bar": 44
    },
    {
      "beat": 178.0,
      "duration": 0.45,
      "midi": 38,
      "velocity": 100,
      "voice": "bass",
      "bar": 44
    },
    {
      "beat": 178,
      "duration": 0.07,
      "midi": 42,
      "velocity": 44,
      "voice": "hat",
      "bar": 44
    },
    {
      "beat": 178,
      "duration": 0.16,
      "midi": 36,
      "velocity": 116,
      "voice": "kick",
      "bar": 44
    },
    {
      "beat": 178,
      "duration": 1,
      "midi": 69,
      "velocity": 112,
      "voice": "lead",
      "bar": 44
    },
    {
      "beat": 178,
      "duration": 0.18,
      "midi": 64,
      "velocity": 96,
      "voice": "perc",
      "bar": 44
    },
    {
      "beat": 178.25,
      "duration": 0.22,
      "midi": 62,
      "velocity": 70,
      "voice": "arp",
      "bar": 44
    },
    {
      "beat": 178.25,
      "duration": 0.05,
      "midi": 42,
      "velocity": 34,
      "voice": "hat",
      "bar": 44
    },
    {
      "beat": 178.5,
      "duration": 0.24,
      "midi": 63,
      "velocity": 80,
      "voice": "acid",
      "bar": 44,
      "slide": true
    },
    {
      "beat": 178.5,
      "duration": 0.22,
      "midi": 57,
      "velocity": 70,
      "voice": "arp",
      "bar": 44
    },
    {
      "beat": 178.5,
      "duration": 0.45,
      "midi": 38,
      "velocity": 100,
      "voice": "bass",
      "bar": 44
    },
    {
      "beat": 178.5,
      "duration": 0.14,
      "midi": 46,
      "velocity": 74,
      "voice": "hat",
      "bar": 44
    },
    {
      "beat": 178.5,
      "duration": 0.22,
      "midi": 62,
      "velocity": 92,
      "voice": "stab",
      "bar": 44
    },
    {
      "beat": 178.5,
      "duration": 0.22,
      "midi": 66,
      "velocity": 92,
      "voice": "stab",
      "bar": 44
    },
    {
      "beat": 178.5,
      "duration": 0.22,
      "midi": 69,
      "velocity": 92,
      "voice": "stab",
      "bar": 44
    },
    {
      "beat": 178.75,
      "duration": 0.24,
      "midi": 50,
      "velocity": 80,
      "voice": "acid",
      "bar": 44,
      "slide": false
    },
    {
      "beat": 178.75,
      "duration": 0.22,
      "midi": 54,
      "velocity": 70,
      "voice": "arp",
      "bar": 44
    },
    {
      "beat": 178.75,
      "duration": 0.05,
      "midi": 42,
      "velocity": 34,
      "voice": "hat",
      "bar": 44
    },
    {
      "beat": 179.0,
      "duration": 0.22,
      "midi": 50,
      "velocity": 84,
      "voice": "arp",
      "bar": 44
    },
    {
      "beat": 179.0,
      "duration": 0.45,
      "midi": 50,
      "velocity": 100,
      "voice": "bass",
      "bar": 44
    },
    {
      "beat": 179,
      "duration": 0.2,
      "midi": 39,
      "velocity": 104,
      "voice": "clap",
      "bar": 44
    },
    {
      "beat": 179,
      "duration": 0.07,
      "midi": 42,
      "velocity": 44,
      "voice": "hat",
      "bar": 44
    },
    {
      "beat": 179,
      "duration": 0.16,
      "midi": 36,
      "velocity": 116,
      "voice": "kick",
      "bar": 44
    },
    {
      "beat": 179,
      "duration": 1,
      "midi": 66,
      "velocity": 112,
      "voice": "lead",
      "bar": 44
    },
    {
      "beat": 179,
      "duration": 0.1,
      "midi": 62,
      "velocity": 72,
      "voice": "perc",
      "bar": 44
    },
    {
      "beat": 179.25,
      "duration": 0.24,
      "midi": 50,
      "velocity": 120,
      "voice": "acid",
      "bar": 44,
      "slide": false
    },
    {
      "beat": 179.25,
      "duration": 0.22,
      "midi": 54,
      "velocity": 70,
      "voice": "arp",
      "bar": 44
    },
    {
      "beat": 179.25,
      "duration": 0.05,
      "midi": 42,
      "velocity": 34,
      "voice": "hat",
      "bar": 44
    },
    {
      "beat": 179.5,
      "duration": 0.24,
      "midi": 62,
      "velocity": 80,
      "voice": "acid",
      "bar": 44,
      "slide": true
    },
    {
      "beat": 179.5,
      "duration": 0.22,
      "midi": 57,
      "velocity": 70,
      "voice": "arp",
      "bar": 44
    },
    {
      "beat": 179.5,
      "duration": 0.45,
      "midi": 38,
      "velocity": 100,
      "voice": "bass",
      "bar": 44
    },
    {
      "beat": 179.5,
      "duration": 0.14,
      "midi": 46,
      "velocity": 74,
      "voice": "hat",
      "bar": 44
    },
    {
      "beat": 179.5,
      "duration": 0.1,
      "midi": 62,
      "velocity": 72,
      "voice": "perc",
      "bar": 44
    },
    {
      "beat": 179.5,
      "duration": 0.22,
      "midi": 62,
      "velocity": 92,
      "voice": "stab",
      "bar": 44
    },
    {
      "beat": 179.5,
      "duration": 0.22,
      "midi": 66,
      "velocity": 92,
      "voice": "stab",
      "bar": 44
    },
    {
      "beat": 179.5,
      "duration": 0.22,
      "midi": 69,
      "velocity": 92,
      "voice": "stab",
      "bar": 44
    },
    {
      "beat": 179.75,
      "duration": 0.24,
      "midi": 51,
      "velocity": 80,
      "voice": "acid",
      "bar": 44,
      "slide": false
    },
    {
      "beat": 179.75,
      "duration": 0.22,
      "midi": 62,
      "velocity": 70,
      "voice": "arp",
      "bar": 44
    },
    {
      "beat": 179.75,
      "duration": 0.05,
      "midi": 42,
      "velocity": 34,
      "voice": "hat",
      "bar": 44
    },
    {
      "beat": 180.0,
      "duration": 0.24,
      "midi": 51,
      "velocity": 120,
      "voice": "acid",
      "bar": 45,
      "slide": false
    },
    {
      "beat": 180.0,
      "duration": 0.22,
      "midi": 51,
      "velocity": 84,
      "voice": "arp",
      "bar": 45
    },
    {
      "beat": 180.0,
      "duration": 0.45,
      "midi": 39,
      "velocity": 108,
      "voice": "bass",
      "bar": 45
    },
    {
      "beat": 180,
      "duration": 0.07,
      "midi": 42,
      "velocity": 44,
      "voice": "hat",
      "bar": 45
    },
    {
      "beat": 180,
      "duration": 0.16,
      "midi": 36,
      "velocity": 124,
      "voice": "kick",
      "bar": 45
    },
    {
      "beat": 180,
      "duration": 1.5,
      "midi": 67,
      "velocity": 112,
      "voice": "lead",
      "bar": 45
    },
    {
      "beat": 180,
      "duration": 4,
      "midi": 51,
      "velocity": 58,
      "voice": "pad",
      "bar": 45
    },
    {
      "beat": 180,
      "duration": 4,
      "midi": 55,
      "velocity": 58,
      "voice": "pad",
      "bar": 45
    },
    {
      "beat": 180,
      "duration": 4,
      "midi": 58,
      "velocity": 58,
      "voice": "pad",
      "bar": 45
    },
    {
      "beat": 180,
      "duration": 4,
      "midi": 63,
      "velocity": 58,
      "voice": "pad",
      "bar": 45
    },
    {
      "beat": 180,
      "duration": 0.18,
      "midi": 64,
      "velocity": 96,
      "voice": "perc",
      "bar": 45
    },
    {
      "beat": 180.25,
      "duration": 0.22,
      "midi": 55,
      "velocity": 70,
      "voice": "arp",
      "bar": 45
    },
    {
      "beat": 180.25,
      "duration": 0.05,
      "midi": 42,
      "velocity": 34,
      "voice": "hat",
      "bar": 45
    },
    {
      "beat": 180.5,
      "duration": 0.24,
      "midi": 63,
      "velocity": 80,
      "voice": "acid",
      "bar": 45,
      "slide": true
    },
    {
      "beat": 180.5,
      "duration": 0.22,
      "midi": 58,
      "velocity": 70,
      "voice": "arp",
      "bar": 45
    },
    {
      "beat": 180.5,
      "duration": 0.45,
      "midi": 39,
      "velocity": 100,
      "voice": "bass",
      "bar": 45
    },
    {
      "beat": 180.5,
      "duration": 0.14,
      "midi": 46,
      "velocity": 74,
      "voice": "hat",
      "bar": 45
    },
    {
      "beat": 180.5,
      "duration": 0.1,
      "midi": 62,
      "velocity": 72,
      "voice": "perc",
      "bar": 45
    },
    {
      "beat": 180.5,
      "duration": 0.22,
      "midi": 63,
      "velocity": 92,
      "voice": "stab",
      "bar": 45
    },
    {
      "beat": 180.5,
      "duration": 0.22,
      "midi": 67,
      "velocity": 92,
      "voice": "stab",
      "bar": 45
    },
    {
      "beat": 180.5,
      "duration": 0.22,
      "midi": 70,
      "velocity": 92,
      "voice": "stab",
      "bar": 45
    },
    {
      "beat": 180.75,
      "duration": 0.24,
      "midi": 51,
      "velocity": 80,
      "voice": "acid",
      "bar": 45,
      "slide": false
    },
    {
      "beat": 180.75,
      "duration": 0.22,
      "midi": 63,
      "velocity": 70,
      "voice": "arp",
      "bar": 45
    },
    {
      "beat": 180.75,
      "duration": 0.05,
      "midi": 42,
      "velocity": 34,
      "voice": "hat",
      "bar": 45
    },
    {
      "beat": 181.0,
      "duration": 0.24,
      "midi": 52,
      "velocity": 120,
      "voice": "acid",
      "bar": 45,
      "slide": false
    },
    {
      "beat": 181.0,
      "duration": 0.22,
      "midi": 58,
      "velocity": 84,
      "voice": "arp",
      "bar": 45
    },
    {
      "beat": 181.0,
      "duration": 0.45,
      "midi": 51,
      "velocity": 100,
      "voice": "bass",
      "bar": 45
    },
    {
      "beat": 181,
      "duration": 0.2,
      "midi": 39,
      "velocity": 104,
      "voice": "clap",
      "bar": 45
    },
    {
      "beat": 181,
      "duration": 0.07,
      "midi": 42,
      "velocity": 44,
      "voice": "hat",
      "bar": 45
    },
    {
      "beat": 181,
      "duration": 0.16,
      "midi": 36,
      "velocity": 116,
      "voice": "kick",
      "bar": 45
    },
    {
      "beat": 181.25,
      "duration": 0.22,
      "midi": 55,
      "velocity": 70,
      "voice": "arp",
      "bar": 45
    },
    {
      "beat": 181.25,
      "duration": 0.05,
      "midi": 42,
      "velocity": 34,
      "voice": "hat",
      "bar": 45
    },
    {
      "beat": 181.5,
      "duration": 0.24,
      "midi": 51,
      "velocity": 80,
      "voice": "acid",
      "bar": 45,
      "slide": false
    },
    {
      "beat": 181.5,
      "duration": 0.22,
      "midi": 51,
      "velocity": 70,
      "voice": "arp",
      "bar": 45
    },
    {
      "beat": 181.5,
      "duration": 0.45,
      "midi": 39,
      "velocity": 100,
      "voice": "bass",
      "bar": 45
    },
    {
      "beat": 181.5,
      "duration": 0.14,
      "midi": 46,
      "velocity": 74,
      "voice": "hat",
      "bar": 45
    },
    {
      "beat": 181.5,
      "duration": 0.5,
      "midi": 70,
      "velocity": 112,
      "voice": "lead",
      "bar": 45
    },
    {
      "beat": 181.5,
      "duration": 0.1,
      "midi": 62,
      "velocity": 72,
      "voice": "perc",
      "bar": 45
    },
    {
      "beat": 181.5,
      "duration": 0.22,
      "midi": 63,
      "velocity": 92,
      "voice": "stab",
      "bar": 45
    },
    {
      "beat": 181.5,
      "duration": 0.22,
      "midi": 67,
      "velocity": 92,
      "voice": "stab",
      "bar": 45
    },
    {
      "beat": 181.5,
      "duration": 0.22,
      "midi": 70,
      "velocity": 92,
      "voice": "stab",
      "bar": 45
    },
    {
      "beat": 181.75,
      "duration": 0.24,
      "midi": 63,
      "velocity": 80,
      "voice": "acid",
      "bar": 45,
      "slide": true
    },
    {
      "beat": 181.75,
      "duration": 0.22,
      "midi": 55,
      "velocity": 70,
      "voice": "arp",
      "bar": 45
    },
    {
      "beat": 181.75,
      "duration": 0.05,
      "midi": 42,
      "velocity": 34,
      "voice": "hat",
      "bar": 45
    },
    {
      "beat": 182.0,
      "duration": 0.24,
      "midi": 51,
      "velocity": 120,
      "voice": "acid",
      "bar": 45,
      "slide": false
    },
    {
      "beat": 182.0,
      "duration": 0.22,
      "midi": 58,
      "velocity": 84,
      "voice": "arp",
      "bar": 45
    },
    {
      "beat": 182.0,
      "duration": 0.45,
      "midi": 39,
      "velocity": 100,
      "voice": "bass",
      "bar": 45
    },
    {
      "beat": 182,
      "duration": 0.07,
      "midi": 42,
      "velocity": 44,
      "voice": "hat",
      "bar": 45
    },
    {
      "beat": 182,
      "duration": 0.16,
      "midi": 36,
      "velocity": 116,
      "voice": "kick",
      "bar": 45
    },
    {
      "beat": 182,
      "duration": 1,
      "midi": 69,
      "velocity": 112,
      "voice": "lead",
      "bar": 45
    },
    {
      "beat": 182,
      "duration": 0.18,
      "midi": 64,
      "velocity": 96,
      "voice": "perc",
      "bar": 45
    },
    {
      "beat": 182.25,
      "duration": 0.22,
      "midi": 63,
      "velocity": 70,
      "voice": "arp",
      "bar": 45
    },
    {
      "beat": 182.25,
      "duration": 0.05,
      "midi": 42,
      "velocity": 34,
      "voice": "hat",
      "bar": 45
    },
    {
      "beat": 182.5,
      "duration": 0.24,
      "midi": 64,
      "velocity": 80,
      "voice": "acid",
      "bar": 45,
      "slide": true
    },
    {
      "beat": 182.5,
      "duration": 0.22,
      "midi": 58,
      "velocity": 70,
      "voice": "arp",
      "bar": 45
    },
    {
      "beat": 182.5,
      "duration": 0.45,
      "midi": 39,
      "velocity": 100,
      "voice": "bass",
      "bar": 45
    },
    {
      "beat": 182.5,
      "duration": 0.14,
      "midi": 46,
      "velocity": 74,
      "voice": "hat",
      "bar": 45
    },
    {
      "beat": 182.5,
      "duration": 0.22,
      "midi": 63,
      "velocity": 92,
      "voice": "stab",
      "bar": 45
    },
    {
      "beat": 182.5,
      "duration": 0.22,
      "midi": 67,
      "velocity": 92,
      "voice": "stab",
      "bar": 45
    },
    {
      "beat": 182.5,
      "duration": 0.22,
      "midi": 70,
      "velocity": 92,
      "voice": "stab",
      "bar": 45
    },
    {
      "beat": 182.75,
      "duration": 0.24,
      "midi": 51,
      "velocity": 80,
      "voice": "acid",
      "bar": 45,
      "slide": false
    },
    {
      "beat": 182.75,
      "duration": 0.22,
      "midi": 55,
      "velocity": 70,
      "voice": "arp",
      "bar": 45
    },
    {
      "beat": 182.75,
      "duration": 0.05,
      "midi": 42,
      "velocity": 34,
      "voice": "hat",
      "bar": 45
    },
    {
      "beat": 183.0,
      "duration": 0.22,
      "midi": 51,
      "velocity": 84,
      "voice": "arp",
      "bar": 45
    },
    {
      "beat": 183.0,
      "duration": 0.45,
      "midi": 51,
      "velocity": 100,
      "voice": "bass",
      "bar": 45
    },
    {
      "beat": 183,
      "duration": 0.2,
      "midi": 39,
      "velocity": 104,
      "voice": "clap",
      "bar": 45
    },
    {
      "beat": 183,
      "duration": 0.07,
      "midi": 42,
      "velocity": 44,
      "voice": "hat",
      "bar": 45
    },
    {
      "beat": 183,
      "duration": 0.16,
      "midi": 36,
      "velocity": 116,
      "voice": "kick",
      "bar": 45
    },
    {
      "beat": 183,
      "duration": 1,
      "midi": 67,
      "velocity": 112,
      "voice": "lead",
      "bar": 45
    },
    {
      "beat": 183,
      "duration": 0.1,
      "midi": 62,
      "velocity": 72,
      "voice": "perc",
      "bar": 45
    },
    {
      "beat": 183.25,
      "duration": 0.24,
      "midi": 51,
      "velocity": 120,
      "voice": "acid",
      "bar": 45,
      "slide": false
    },
    {
      "beat": 183.25,
      "duration": 0.22,
      "midi": 55,
      "velocity": 70,
      "voice": "arp",
      "bar": 45
    },
    {
      "beat": 183.25,
      "duration": 0.05,
      "midi": 42,
      "velocity": 34,
      "voice": "hat",
      "bar": 45
    },
    {
      "beat": 183.5,
      "duration": 0.24,
      "midi": 63,
      "velocity": 80,
      "voice": "acid",
      "bar": 45,
      "slide": true
    },
    {
      "beat": 183.5,
      "duration": 0.22,
      "midi": 58,
      "velocity": 70,
      "voice": "arp",
      "bar": 45
    },
    {
      "beat": 183.5,
      "duration": 0.45,
      "midi": 39,
      "velocity": 100,
      "voice": "bass",
      "bar": 45
    },
    {
      "beat": 183.5,
      "duration": 0.14,
      "midi": 46,
      "velocity": 74,
      "voice": "hat",
      "bar": 45
    },
    {
      "beat": 183.5,
      "duration": 0.1,
      "midi": 62,
      "velocity": 72,
      "voice": "perc",
      "bar": 45
    },
    {
      "beat": 183.5,
      "duration": 0.22,
      "midi": 63,
      "velocity": 92,
      "voice": "stab",
      "bar": 45
    },
    {
      "beat": 183.5,
      "duration": 0.22,
      "midi": 67,
      "velocity": 92,
      "voice": "stab",
      "bar": 45
    },
    {
      "beat": 183.5,
      "duration": 0.22,
      "midi": 70,
      "velocity": 92,
      "voice": "stab",
      "bar": 45
    },
    {
      "beat": 183.75,
      "duration": 0.24,
      "midi": 52,
      "velocity": 80,
      "voice": "acid",
      "bar": 45,
      "slide": false
    },
    {
      "beat": 183.75,
      "duration": 0.22,
      "midi": 63,
      "velocity": 70,
      "voice": "arp",
      "bar": 45
    },
    {
      "beat": 183.75,
      "duration": 0.05,
      "midi": 42,
      "velocity": 34,
      "voice": "hat",
      "bar": 45
    },
    {
      "beat": 184.0,
      "duration": 0.24,
      "midi": 55,
      "velocity": 120,
      "voice": "acid",
      "bar": 46,
      "slide": false
    },
    {
      "beat": 184.0,
      "duration": 0.22,
      "midi": 55,
      "velocity": 84,
      "voice": "arp",
      "bar": 46
    },
    {
      "beat": 184.0,
      "duration": 0.45,
      "midi": 43,
      "velocity": 108,
      "voice": "bass",
      "bar": 46
    },
    {
      "beat": 184,
      "duration": 0.07,
      "midi": 42,
      "velocity": 44,
      "voice": "hat",
      "bar": 46
    },
    {
      "beat": 184,
      "duration": 0.16,
      "midi": 36,
      "velocity": 124,
      "voice": "kick",
      "bar": 46
    },
    {
      "beat": 184,
      "duration": 1,
      "midi": 70,
      "velocity": 112,
      "voice": "lead",
      "bar": 46
    },
    {
      "beat": 184,
      "duration": 4,
      "midi": 55,
      "velocity": 58,
      "voice": "pad",
      "bar": 46
    },
    {
      "beat": 184,
      "duration": 4,
      "midi": 58,
      "velocity": 58,
      "voice": "pad",
      "bar": 46
    },
    {
      "beat": 184,
      "duration": 4,
      "midi": 62,
      "velocity": 58,
      "voice": "pad",
      "bar": 46
    },
    {
      "beat": 184,
      "duration": 4,
      "midi": 67,
      "velocity": 58,
      "voice": "pad",
      "bar": 46
    },
    {
      "beat": 184,
      "duration": 0.18,
      "midi": 64,
      "velocity": 96,
      "voice": "perc",
      "bar": 46
    },
    {
      "beat": 184.25,
      "duration": 0.22,
      "midi": 58,
      "velocity": 70,
      "voice": "arp",
      "bar": 46
    },
    {
      "beat": 184.25,
      "duration": 0.05,
      "midi": 42,
      "velocity": 34,
      "voice": "hat",
      "bar": 46
    },
    {
      "beat": 184.5,
      "duration": 0.24,
      "midi": 67,
      "velocity": 80,
      "voice": "acid",
      "bar": 46,
      "slide": true
    },
    {
      "beat": 184.5,
      "duration": 0.22,
      "midi": 62,
      "velocity": 70,
      "voice": "arp",
      "bar": 46
    },
    {
      "beat": 184.5,
      "duration": 0.45,
      "midi": 43,
      "velocity": 100,
      "voice": "bass",
      "bar": 46
    },
    {
      "beat": 184.5,
      "duration": 0.14,
      "midi": 46,
      "velocity": 74,
      "voice": "hat",
      "bar": 46
    },
    {
      "beat": 184.5,
      "duration": 0.1,
      "midi": 62,
      "velocity": 72,
      "voice": "perc",
      "bar": 46
    },
    {
      "beat": 184.5,
      "duration": 0.22,
      "midi": 67,
      "velocity": 92,
      "voice": "stab",
      "bar": 46
    },
    {
      "beat": 184.5,
      "duration": 0.22,
      "midi": 70,
      "velocity": 92,
      "voice": "stab",
      "bar": 46
    },
    {
      "beat": 184.5,
      "duration": 0.22,
      "midi": 74,
      "velocity": 92,
      "voice": "stab",
      "bar": 46
    },
    {
      "beat": 184.75,
      "duration": 0.24,
      "midi": 55,
      "velocity": 80,
      "voice": "acid",
      "bar": 46,
      "slide": false
    },
    {
      "beat": 184.75,
      "duration": 0.22,
      "midi": 67,
      "velocity": 70,
      "voice": "arp",
      "bar": 46
    },
    {
      "beat": 184.75,
      "duration": 0.05,
      "midi": 42,
      "velocity": 34,
      "voice": "hat",
      "bar": 46
    },
    {
      "beat": 185.0,
      "duration": 0.24,
      "midi": 56,
      "velocity": 120,
      "voice": "acid",
      "bar": 46,
      "slide": false
    },
    {
      "beat": 185.0,
      "duration": 0.22,
      "midi": 62,
      "velocity": 84,
      "voice": "arp",
      "bar": 46
    },
    {
      "beat": 185.0,
      "duration": 0.45,
      "midi": 55,
      "velocity": 100,
      "voice": "bass",
      "bar": 46
    },
    {
      "beat": 185,
      "duration": 0.2,
      "midi": 39,
      "velocity": 104,
      "voice": "clap",
      "bar": 46
    },
    {
      "beat": 185,
      "duration": 0.07,
      "midi": 42,
      "velocity": 44,
      "voice": "hat",
      "bar": 46
    },
    {
      "beat": 185,
      "duration": 0.16,
      "midi": 36,
      "velocity": 116,
      "voice": "kick",
      "bar": 46
    },
    {
      "beat": 185,
      "duration": 0.5,
      "midi": 69,
      "velocity": 112,
      "voice": "lead",
      "bar": 46
    },
    {
      "beat": 185.25,
      "duration": 0.22,
      "midi": 58,
      "velocity": 70,
      "voice": "arp",
      "bar": 46
    },
    {
      "beat": 185.25,
      "duration": 0.05,
      "midi": 42,
      "velocity": 34,
      "voice": "hat",
      "bar": 46
    },
    {
      "beat": 185.5,
      "duration": 0.24,
      "midi": 55,
      "velocity": 80,
      "voice": "acid",
      "bar": 46,
      "slide": false
    },
    {
      "beat": 185.5,
      "duration": 0.22,
      "midi": 55,
      "velocity": 70,
      "voice": "arp",
      "bar": 46
    },
    {
      "beat": 185.5,
      "duration": 0.45,
      "midi": 43,
      "velocity": 100,
      "voice": "bass",
      "bar": 46
    },
    {
      "beat": 185.5,
      "duration": 0.14,
      "midi": 46,
      "velocity": 74,
      "voice": "hat",
      "bar": 46
    },
    {
      "beat": 185.5,
      "duration": 0.5,
      "midi": 67,
      "velocity": 112,
      "voice": "lead",
      "bar": 46
    },
    {
      "beat": 185.5,
      "duration": 0.1,
      "midi": 62,
      "velocity": 72,
      "voice": "perc",
      "bar": 46
    },
    {
      "beat": 185.5,
      "duration": 0.22,
      "midi": 67,
      "velocity": 92,
      "voice": "stab",
      "bar": 46
    },
    {
      "beat": 185.5,
      "duration": 0.22,
      "midi": 70,
      "velocity": 92,
      "voice": "stab",
      "bar": 46
    },
    {
      "beat": 185.5,
      "duration": 0.22,
      "midi": 74,
      "velocity": 92,
      "voice": "stab",
      "bar": 46
    },
    {
      "beat": 185.75,
      "duration": 0.24,
      "midi": 67,
      "velocity": 80,
      "voice": "acid",
      "bar": 46,
      "slide": true
    },
    {
      "beat": 185.75,
      "duration": 0.22,
      "midi": 58,
      "velocity": 70,
      "voice": "arp",
      "bar": 46
    },
    {
      "beat": 185.75,
      "duration": 0.05,
      "midi": 42,
      "velocity": 34,
      "voice": "hat",
      "bar": 46
    },
    {
      "beat": 186.0,
      "duration": 0.24,
      "midi": 55,
      "velocity": 120,
      "voice": "acid",
      "bar": 46,
      "slide": false
    },
    {
      "beat": 186.0,
      "duration": 0.22,
      "midi": 62,
      "velocity": 84,
      "voice": "arp",
      "bar": 46
    },
    {
      "beat": 186.0,
      "duration": 0.45,
      "midi": 43,
      "velocity": 100,
      "voice": "bass",
      "bar": 46
    },
    {
      "beat": 186,
      "duration": 0.07,
      "midi": 42,
      "velocity": 44,
      "voice": "hat",
      "bar": 46
    },
    {
      "beat": 186,
      "duration": 0.16,
      "midi": 36,
      "velocity": 116,
      "voice": "kick",
      "bar": 46
    },
    {
      "beat": 186,
      "duration": 1,
      "midi": 74,
      "velocity": 112,
      "voice": "lead",
      "bar": 46
    },
    {
      "beat": 186,
      "duration": 0.18,
      "midi": 64,
      "velocity": 96,
      "voice": "perc",
      "bar": 46
    },
    {
      "beat": 186.25,
      "duration": 0.22,
      "midi": 67,
      "velocity": 70,
      "voice": "arp",
      "bar": 46
    },
    {
      "beat": 186.25,
      "duration": 0.05,
      "midi": 42,
      "velocity": 34,
      "voice": "hat",
      "bar": 46
    },
    {
      "beat": 186.5,
      "duration": 0.24,
      "midi": 68,
      "velocity": 80,
      "voice": "acid",
      "bar": 46,
      "slide": true
    },
    {
      "beat": 186.5,
      "duration": 0.22,
      "midi": 62,
      "velocity": 70,
      "voice": "arp",
      "bar": 46
    },
    {
      "beat": 186.5,
      "duration": 0.45,
      "midi": 43,
      "velocity": 100,
      "voice": "bass",
      "bar": 46
    },
    {
      "beat": 186.5,
      "duration": 0.14,
      "midi": 46,
      "velocity": 74,
      "voice": "hat",
      "bar": 46
    },
    {
      "beat": 186.5,
      "duration": 0.22,
      "midi": 67,
      "velocity": 92,
      "voice": "stab",
      "bar": 46
    },
    {
      "beat": 186.5,
      "duration": 0.22,
      "midi": 70,
      "velocity": 92,
      "voice": "stab",
      "bar": 46
    },
    {
      "beat": 186.5,
      "duration": 0.22,
      "midi": 74,
      "velocity": 92,
      "voice": "stab",
      "bar": 46
    },
    {
      "beat": 186.75,
      "duration": 0.24,
      "midi": 55,
      "velocity": 80,
      "voice": "acid",
      "bar": 46,
      "slide": false
    },
    {
      "beat": 186.75,
      "duration": 0.22,
      "midi": 58,
      "velocity": 70,
      "voice": "arp",
      "bar": 46
    },
    {
      "beat": 186.75,
      "duration": 0.05,
      "midi": 42,
      "velocity": 34,
      "voice": "hat",
      "bar": 46
    },
    {
      "beat": 187.0,
      "duration": 0.22,
      "midi": 55,
      "velocity": 84,
      "voice": "arp",
      "bar": 46
    },
    {
      "beat": 187.0,
      "duration": 0.45,
      "midi": 55,
      "velocity": 100,
      "voice": "bass",
      "bar": 46
    },
    {
      "beat": 187,
      "duration": 0.2,
      "midi": 39,
      "velocity": 104,
      "voice": "clap",
      "bar": 46
    },
    {
      "beat": 187,
      "duration": 0.07,
      "midi": 42,
      "velocity": 44,
      "voice": "hat",
      "bar": 46
    },
    {
      "beat": 187,
      "duration": 0.16,
      "midi": 36,
      "velocity": 116,
      "voice": "kick",
      "bar": 46
    },
    {
      "beat": 187,
      "duration": 1,
      "midi": 70,
      "velocity": 112,
      "voice": "lead",
      "bar": 46
    },
    {
      "beat": 187,
      "duration": 0.1,
      "midi": 62,
      "velocity": 72,
      "voice": "perc",
      "bar": 46
    },
    {
      "beat": 187.25,
      "duration": 0.24,
      "midi": 55,
      "velocity": 120,
      "voice": "acid",
      "bar": 46,
      "slide": false
    },
    {
      "beat": 187.25,
      "duration": 0.22,
      "midi": 58,
      "velocity": 70,
      "voice": "arp",
      "bar": 46
    },
    {
      "beat": 187.25,
      "duration": 0.05,
      "midi": 42,
      "velocity": 34,
      "voice": "hat",
      "bar": 46
    },
    {
      "beat": 187.5,
      "duration": 0.24,
      "midi": 67,
      "velocity": 80,
      "voice": "acid",
      "bar": 46,
      "slide": true
    },
    {
      "beat": 187.5,
      "duration": 0.22,
      "midi": 62,
      "velocity": 70,
      "voice": "arp",
      "bar": 46
    },
    {
      "beat": 187.5,
      "duration": 0.45,
      "midi": 43,
      "velocity": 100,
      "voice": "bass",
      "bar": 46
    },
    {
      "beat": 187.5,
      "duration": 0.14,
      "midi": 46,
      "velocity": 74,
      "voice": "hat",
      "bar": 46
    },
    {
      "beat": 187.5,
      "duration": 0.1,
      "midi": 62,
      "velocity": 72,
      "voice": "perc",
      "bar": 46
    },
    {
      "beat": 187.5,
      "duration": 0.22,
      "midi": 67,
      "velocity": 92,
      "voice": "stab",
      "bar": 46
    },
    {
      "beat": 187.5,
      "duration": 0.22,
      "midi": 70,
      "velocity": 92,
      "voice": "stab",
      "bar": 46
    },
    {
      "beat": 187.5,
      "duration": 0.22,
      "midi": 74,
      "velocity": 92,
      "voice": "stab",
      "bar": 46
    },
    {
      "beat": 187.75,
      "duration": 0.24,
      "midi": 56,
      "velocity": 80,
      "voice": "acid",
      "bar": 46,
      "slide": false
    },
    {
      "beat": 187.75,
      "duration": 0.22,
      "midi": 67,
      "velocity": 70,
      "voice": "arp",
      "bar": 46
    },
    {
      "beat": 187.75,
      "duration": 0.05,
      "midi": 42,
      "velocity": 34,
      "voice": "hat",
      "bar": 46
    },
    {
      "beat": 188.0,
      "duration": 0.24,
      "midi": 57,
      "velocity": 120,
      "voice": "acid",
      "bar": 47,
      "slide": false
    },
    {
      "beat": 188.0,
      "duration": 0.22,
      "midi": 57,
      "velocity": 84,
      "voice": "arp",
      "bar": 47
    },
    {
      "beat": 188.0,
      "duration": 0.45,
      "midi": 45,
      "velocity": 108,
      "voice": "bass",
      "bar": 47
    },
    {
      "beat": 188,
      "duration": 0.07,
      "midi": 42,
      "velocity": 44,
      "voice": "hat",
      "bar": 47
    },
    {
      "beat": 188,
      "duration": 0.16,
      "midi": 36,
      "velocity": 124,
      "voice": "kick",
      "bar": 47
    },
    {
      "beat": 188,
      "duration": 1,
      "midi": 73,
      "velocity": 112,
      "voice": "lead",
      "bar": 47
    },
    {
      "beat": 188,
      "duration": 4,
      "midi": 57,
      "velocity": 58,
      "voice": "pad",
      "bar": 47
    },
    {
      "beat": 188,
      "duration": 4,
      "midi": 61,
      "velocity": 58,
      "voice": "pad",
      "bar": 47
    },
    {
      "beat": 188,
      "duration": 4,
      "midi": 64,
      "velocity": 58,
      "voice": "pad",
      "bar": 47
    },
    {
      "beat": 188,
      "duration": 4,
      "midi": 69,
      "velocity": 58,
      "voice": "pad",
      "bar": 47
    },
    {
      "beat": 188,
      "duration": 0.18,
      "midi": 64,
      "velocity": 96,
      "voice": "perc",
      "bar": 47
    },
    {
      "beat": 188.25,
      "duration": 0.22,
      "midi": 61,
      "velocity": 70,
      "voice": "arp",
      "bar": 47
    },
    {
      "beat": 188.25,
      "duration": 0.05,
      "midi": 42,
      "velocity": 34,
      "voice": "hat",
      "bar": 47
    },
    {
      "beat": 188.5,
      "duration": 0.24,
      "midi": 69,
      "velocity": 80,
      "voice": "acid",
      "bar": 47,
      "slide": true
    },
    {
      "beat": 188.5,
      "duration": 0.22,
      "midi": 64,
      "velocity": 70,
      "voice": "arp",
      "bar": 47
    },
    {
      "beat": 188.5,
      "duration": 0.45,
      "midi": 45,
      "velocity": 100,
      "voice": "bass",
      "bar": 47
    },
    {
      "beat": 188.5,
      "duration": 0.14,
      "midi": 46,
      "velocity": 74,
      "voice": "hat",
      "bar": 47
    },
    {
      "beat": 188.5,
      "duration": 0.1,
      "midi": 62,
      "velocity": 72,
      "voice": "perc",
      "bar": 47
    },
    {
      "beat": 188.5,
      "duration": 0.22,
      "midi": 69,
      "velocity": 92,
      "voice": "stab",
      "bar": 47
    },
    {
      "beat": 188.5,
      "duration": 0.22,
      "midi": 73,
      "velocity": 92,
      "voice": "stab",
      "bar": 47
    },
    {
      "beat": 188.5,
      "duration": 0.22,
      "midi": 76,
      "velocity": 92,
      "voice": "stab",
      "bar": 47
    },
    {
      "beat": 188.75,
      "duration": 0.24,
      "midi": 57,
      "velocity": 80,
      "voice": "acid",
      "bar": 47,
      "slide": false
    },
    {
      "beat": 188.75,
      "duration": 0.22,
      "midi": 69,
      "velocity": 70,
      "voice": "arp",
      "bar": 47
    },
    {
      "beat": 188.75,
      "duration": 0.05,
      "midi": 42,
      "velocity": 34,
      "voice": "hat",
      "bar": 47
    },
    {
      "beat": 189.0,
      "duration": 0.24,
      "midi": 58,
      "velocity": 120,
      "voice": "acid",
      "bar": 47,
      "slide": false
    },
    {
      "beat": 189.0,
      "duration": 0.22,
      "midi": 64,
      "velocity": 84,
      "voice": "arp",
      "bar": 47
    },
    {
      "beat": 189.0,
      "duration": 0.45,
      "midi": 57,
      "velocity": 100,
      "voice": "bass",
      "bar": 47
    },
    {
      "beat": 189,
      "duration": 0.2,
      "midi": 39,
      "velocity": 104,
      "voice": "clap",
      "bar": 47
    },
    {
      "beat": 189,
      "duration": 0.07,
      "midi": 42,
      "velocity": 44,
      "voice": "hat",
      "bar": 47
    },
    {
      "beat": 189,
      "duration": 0.16,
      "midi": 36,
      "velocity": 116,
      "voice": "kick",
      "bar": 47
    },
    {
      "beat": 189,
      "duration": 0.5,
      "midi": 74,
      "velocity": 112,
      "voice": "lead",
      "bar": 47
    },
    {
      "beat": 189.25,
      "duration": 0.22,
      "midi": 61,
      "velocity": 70,
      "voice": "arp",
      "bar": 47
    },
    {
      "beat": 189.25,
      "duration": 0.05,
      "midi": 42,
      "velocity": 34,
      "voice": "hat",
      "bar": 47
    },
    {
      "beat": 189.5,
      "duration": 0.24,
      "midi": 57,
      "velocity": 80,
      "voice": "acid",
      "bar": 47,
      "slide": false
    },
    {
      "beat": 189.5,
      "duration": 0.22,
      "midi": 57,
      "velocity": 70,
      "voice": "arp",
      "bar": 47
    },
    {
      "beat": 189.5,
      "duration": 0.45,
      "midi": 45,
      "velocity": 100,
      "voice": "bass",
      "bar": 47
    },
    {
      "beat": 189.5,
      "duration": 0.14,
      "midi": 46,
      "velocity": 74,
      "voice": "hat",
      "bar": 47
    },
    {
      "beat": 189.5,
      "duration": 0.5,
      "midi": 73,
      "velocity": 112,
      "voice": "lead",
      "bar": 47
    },
    {
      "beat": 189.5,
      "duration": 0.1,
      "midi": 62,
      "velocity": 72,
      "voice": "perc",
      "bar": 47
    },
    {
      "beat": 189.5,
      "duration": 0.22,
      "midi": 69,
      "velocity": 92,
      "voice": "stab",
      "bar": 47
    },
    {
      "beat": 189.5,
      "duration": 0.22,
      "midi": 73,
      "velocity": 92,
      "voice": "stab",
      "bar": 47
    },
    {
      "beat": 189.5,
      "duration": 0.22,
      "midi": 76,
      "velocity": 92,
      "voice": "stab",
      "bar": 47
    },
    {
      "beat": 189.75,
      "duration": 0.24,
      "midi": 69,
      "velocity": 80,
      "voice": "acid",
      "bar": 47,
      "slide": true
    },
    {
      "beat": 189.75,
      "duration": 0.22,
      "midi": 61,
      "velocity": 70,
      "voice": "arp",
      "bar": 47
    },
    {
      "beat": 189.75,
      "duration": 0.05,
      "midi": 42,
      "velocity": 34,
      "voice": "hat",
      "bar": 47
    },
    {
      "beat": 190.0,
      "duration": 0.24,
      "midi": 57,
      "velocity": 120,
      "voice": "acid",
      "bar": 47,
      "slide": false
    },
    {
      "beat": 190.0,
      "duration": 0.22,
      "midi": 64,
      "velocity": 84,
      "voice": "arp",
      "bar": 47
    },
    {
      "beat": 190.0,
      "duration": 0.45,
      "midi": 45,
      "velocity": 100,
      "voice": "bass",
      "bar": 47
    },
    {
      "beat": 190,
      "duration": 0.07,
      "midi": 42,
      "velocity": 44,
      "voice": "hat",
      "bar": 47
    },
    {
      "beat": 190,
      "duration": 0.16,
      "midi": 36,
      "velocity": 116,
      "voice": "kick",
      "bar": 47
    },
    {
      "beat": 190,
      "duration": 2,
      "midi": 69,
      "velocity": 112,
      "voice": "lead",
      "bar": 47
    },
    {
      "beat": 190,
      "duration": 0.18,
      "midi": 64,
      "velocity": 96,
      "voice": "perc",
      "bar": 47
    },
    {
      "beat": 190.25,
      "duration": 0.22,
      "midi": 69,
      "velocity": 70,
      "voice": "arp",
      "bar": 47
    },
    {
      "beat": 190.25,
      "duration": 0.05,
      "midi": 42,
      "velocity": 34,
      "voice": "hat",
      "bar": 47
    },
    {
      "beat": 190.5,
      "duration": 0.24,
      "midi": 70,
      "velocity": 80,
      "voice": "acid",
      "bar": 47,
      "slide": true
    },
    {
      "beat": 190.5,
      "duration": 0.22,
      "midi": 64,
      "velocity": 70,
      "voice": "arp",
      "bar": 47
    },
    {
      "beat": 190.5,
      "duration": 0.45,
      "midi": 45,
      "velocity": 100,
      "voice": "bass",
      "bar": 47
    },
    {
      "beat": 190.5,
      "duration": 0.14,
      "midi": 46,
      "velocity": 74,
      "voice": "hat",
      "bar": 47
    },
    {
      "beat": 190.5,
      "duration": 0.22,
      "midi": 69,
      "velocity": 92,
      "voice": "stab",
      "bar": 47
    },
    {
      "beat": 190.5,
      "duration": 0.22,
      "midi": 73,
      "velocity": 92,
      "voice": "stab",
      "bar": 47
    },
    {
      "beat": 190.5,
      "duration": 0.22,
      "midi": 76,
      "velocity": 92,
      "voice": "stab",
      "bar": 47
    },
    {
      "beat": 190.75,
      "duration": 0.24,
      "midi": 57,
      "velocity": 80,
      "voice": "acid",
      "bar": 47,
      "slide": false
    },
    {
      "beat": 190.75,
      "duration": 0.22,
      "midi": 61,
      "velocity": 70,
      "voice": "arp",
      "bar": 47
    },
    {
      "beat": 190.75,
      "duration": 0.05,
      "midi": 42,
      "velocity": 34,
      "voice": "hat",
      "bar": 47
    },
    {
      "beat": 191.0,
      "duration": 0.22,
      "midi": 57,
      "velocity": 84,
      "voice": "arp",
      "bar": 47
    },
    {
      "beat": 191.0,
      "duration": 0.45,
      "midi": 57,
      "velocity": 100,
      "voice": "bass",
      "bar": 47
    },
    {
      "beat": 191,
      "duration": 0.2,
      "midi": 39,
      "velocity": 104,
      "voice": "clap",
      "bar": 47
    },
    {
      "beat": 191,
      "duration": 0.07,
      "midi": 42,
      "velocity": 44,
      "voice": "hat",
      "bar": 47
    },
    {
      "beat": 191,
      "duration": 0.16,
      "midi": 36,
      "velocity": 116,
      "voice": "kick",
      "bar": 47
    },
    {
      "beat": 191,
      "duration": 0.1,
      "midi": 62,
      "velocity": 72,
      "voice": "perc",
      "bar": 47
    },
    {
      "beat": 191.25,
      "duration": 0.24,
      "midi": 57,
      "velocity": 120,
      "voice": "acid",
      "bar": 47,
      "slide": false
    },
    {
      "beat": 191.25,
      "duration": 0.22,
      "midi": 61,
      "velocity": 70,
      "voice": "arp",
      "bar": 47
    },
    {
      "beat": 191.25,
      "duration": 0.05,
      "midi": 42,
      "velocity": 34,
      "voice": "hat",
      "bar": 47
    },
    {
      "beat": 191.5,
      "duration": 0.24,
      "midi": 69,
      "velocity": 80,
      "voice": "acid",
      "bar": 47,
      "slide": true
    },
    {
      "beat": 191.5,
      "duration": 0.22,
      "midi": 64,
      "velocity": 70,
      "voice": "arp",
      "bar": 47
    },
    {
      "beat": 191.5,
      "duration": 0.45,
      "midi": 45,
      "velocity": 100,
      "voice": "bass",
      "bar": 47
    },
    {
      "beat": 191.5,
      "duration": 0.14,
      "midi": 46,
      "velocity": 74,
      "voice": "hat",
      "bar": 47
    },
    {
      "beat": 191.5,
      "duration": 0.1,
      "midi": 62,
      "velocity": 72,
      "voice": "perc",
      "bar": 47
    },
    {
      "beat": 191.5,
      "duration": 0.22,
      "midi": 69,
      "velocity": 92,
      "voice": "stab",
      "bar": 47
    },
    {
      "beat": 191.5,
      "duration": 0.22,
      "midi": 73,
      "velocity": 92,
      "voice": "stab",
      "bar": 47
    },
    {
      "beat": 191.5,
      "duration": 0.22,
      "midi": 76,
      "velocity": 92,
      "voice": "stab",
      "bar": 47
    },
    {
      "beat": 191.75,
      "duration": 0.24,
      "midi": 58,
      "velocity": 80,
      "voice": "acid",
      "bar": 47,
      "slide": false
    },
    {
      "beat": 191.75,
      "duration": 0.22,
      "midi": 69,
      "velocity": 70,
      "voice": "arp",
      "bar": 47
    },
    {
      "beat": 191.75,
      "duration": 0.05,
      "midi": 42,
      "velocity": 34,
      "voice": "hat",
      "bar": 47
    },
    {
      "beat": 192.0,
      "duration": 0.24,
      "midi": 50,
      "velocity": 120,
      "voice": "acid",
      "bar": 48,
      "slide": false
    },
    {
      "beat": 192.0,
      "duration": 0.22,
      "midi": 50,
      "velocity": 84,
      "voice": "arp",
      "bar": 48
    },
    {
      "beat": 192.0,
      "duration": 0.45,
      "midi": 38,
      "velocity": 108,
      "voice": "bass",
      "bar": 48
    },
    {
      "beat": 192,
      "duration": 0.07,
      "midi": 42,
      "velocity": 44,
      "voice": "hat",
      "bar": 48
    },
    {
      "beat": 192,
      "duration": 0.16,
      "midi": 36,
      "velocity": 124,
      "voice": "kick",
      "bar": 48
    },
    {
      "beat": 192,
      "duration": 1,
      "midi": 86,
      "velocity": 112,
      "voice": "lead",
      "bar": 48
    },
    {
      "beat": 192,
      "duration": 4,
      "midi": 50,
      "velocity": 58,
      "voice": "pad",
      "bar": 48
    },
    {
      "beat": 192,
      "duration": 4,
      "midi": 54,
      "velocity": 58,
      "voice": "pad",
      "bar": 48
    },
    {
      "beat": 192,
      "duration": 4,
      "midi": 57,
      "velocity": 58,
      "voice": "pad",
      "bar": 48
    },
    {
      "beat": 192,
      "duration": 4,
      "midi": 62,
      "velocity": 58,
      "voice": "pad",
      "bar": 48
    },
    {
      "beat": 192,
      "duration": 0.18,
      "midi": 64,
      "velocity": 96,
      "voice": "perc",
      "bar": 48
    },
    {
      "beat": 192.25,
      "duration": 0.22,
      "midi": 54,
      "velocity": 70,
      "voice": "arp",
      "bar": 48
    },
    {
      "beat": 192.25,
      "duration": 0.05,
      "midi": 42,
      "velocity": 34,
      "voice": "hat",
      "bar": 48
    },
    {
      "beat": 192.5,
      "duration": 0.24,
      "midi": 62,
      "velocity": 80,
      "voice": "acid",
      "bar": 48,
      "slide": true
    },
    {
      "beat": 192.5,
      "duration": 0.22,
      "midi": 57,
      "velocity": 70,
      "voice": "arp",
      "bar": 48
    },
    {
      "beat": 192.5,
      "duration": 0.45,
      "midi": 38,
      "velocity": 100,
      "voice": "bass",
      "bar": 48
    },
    {
      "beat": 192.5,
      "duration": 0.14,
      "midi": 46,
      "velocity": 74,
      "voice": "hat",
      "bar": 48
    },
    {
      "beat": 192.5,
      "duration": 0.1,
      "midi": 62,
      "velocity": 72,
      "voice": "perc",
      "bar": 48
    },
    {
      "beat": 192.5,
      "duration": 0.22,
      "midi": 62,
      "velocity": 92,
      "voice": "stab",
      "bar": 48
    },
    {
      "beat": 192.5,
      "duration": 0.22,
      "midi": 66,
      "velocity": 92,
      "voice": "stab",
      "bar": 48
    },
    {
      "beat": 192.5,
      "duration": 0.22,
      "midi": 69,
      "velocity": 92,
      "voice": "stab",
      "bar": 48
    },
    {
      "beat": 192.75,
      "duration": 0.24,
      "midi": 50,
      "velocity": 80,
      "voice": "acid",
      "bar": 48,
      "slide": false
    },
    {
      "beat": 192.75,
      "duration": 0.22,
      "midi": 62,
      "velocity": 70,
      "voice": "arp",
      "bar": 48
    },
    {
      "beat": 192.75,
      "duration": 0.05,
      "midi": 42,
      "velocity": 34,
      "voice": "hat",
      "bar": 48
    },
    {
      "beat": 193.0,
      "duration": 0.24,
      "midi": 51,
      "velocity": 120,
      "voice": "acid",
      "bar": 48,
      "slide": false
    },
    {
      "beat": 193.0,
      "duration": 0.22,
      "midi": 57,
      "velocity": 84,
      "voice": "arp",
      "bar": 48
    },
    {
      "beat": 193.0,
      "duration": 0.45,
      "midi": 50,
      "velocity": 100,
      "voice": "bass",
      "bar": 48
    },
    {
      "beat": 193,
      "duration": 0.2,
      "midi": 39,
      "velocity": 104,
      "voice": "clap",
      "bar": 48
    },
    {
      "beat": 193,
      "duration": 0.07,
      "midi": 42,
      "velocity": 44,
      "voice": "hat",
      "bar": 48
    },
    {
      "beat": 193,
      "duration": 0.16,
      "midi": 36,
      "velocity": 116,
      "voice": "kick",
      "bar": 48
    },
    {
      "beat": 193,
      "duration": 0.5,
      "midi": 87,
      "velocity": 112,
      "voice": "lead",
      "bar": 48
    },
    {
      "beat": 193.25,
      "duration": 0.22,
      "midi": 54,
      "velocity": 70,
      "voice": "arp",
      "bar": 48
    },
    {
      "beat": 193.25,
      "duration": 0.05,
      "midi": 42,
      "velocity": 34,
      "voice": "hat",
      "bar": 48
    },
    {
      "beat": 193.5,
      "duration": 0.24,
      "midi": 50,
      "velocity": 80,
      "voice": "acid",
      "bar": 48,
      "slide": false
    },
    {
      "beat": 193.5,
      "duration": 0.22,
      "midi": 50,
      "velocity": 70,
      "voice": "arp",
      "bar": 48
    },
    {
      "beat": 193.5,
      "duration": 0.45,
      "midi": 38,
      "velocity": 100,
      "voice": "bass",
      "bar": 48
    },
    {
      "beat": 193.5,
      "duration": 0.14,
      "midi": 46,
      "velocity": 74,
      "voice": "hat",
      "bar": 48
    },
    {
      "beat": 193.5,
      "duration": 0.5,
      "midi": 86,
      "velocity": 112,
      "voice": "lead",
      "bar": 48
    },
    {
      "beat": 193.5,
      "duration": 0.1,
      "midi": 62,
      "velocity": 72,
      "voice": "perc",
      "bar": 48
    },
    {
      "beat": 193.5,
      "duration": 0.22,
      "midi": 62,
      "velocity": 92,
      "voice": "stab",
      "bar": 48
    },
    {
      "beat": 193.5,
      "duration": 0.22,
      "midi": 66,
      "velocity": 92,
      "voice": "stab",
      "bar": 48
    },
    {
      "beat": 193.5,
      "duration": 0.22,
      "midi": 69,
      "velocity": 92,
      "voice": "stab",
      "bar": 48
    },
    {
      "beat": 193.75,
      "duration": 0.24,
      "midi": 62,
      "velocity": 80,
      "voice": "acid",
      "bar": 48,
      "slide": true
    },
    {
      "beat": 193.75,
      "duration": 0.22,
      "midi": 54,
      "velocity": 70,
      "voice": "arp",
      "bar": 48
    },
    {
      "beat": 193.75,
      "duration": 0.05,
      "midi": 42,
      "velocity": 34,
      "voice": "hat",
      "bar": 48
    },
    {
      "beat": 194.0,
      "duration": 0.24,
      "midi": 50,
      "velocity": 120,
      "voice": "acid",
      "bar": 48,
      "slide": false
    },
    {
      "beat": 194.0,
      "duration": 0.22,
      "midi": 57,
      "velocity": 84,
      "voice": "arp",
      "bar": 48
    },
    {
      "beat": 194.0,
      "duration": 0.45,
      "midi": 38,
      "velocity": 100,
      "voice": "bass",
      "bar": 48
    },
    {
      "beat": 194,
      "duration": 0.07,
      "midi": 42,
      "velocity": 44,
      "voice": "hat",
      "bar": 48
    },
    {
      "beat": 194,
      "duration": 0.16,
      "midi": 36,
      "velocity": 116,
      "voice": "kick",
      "bar": 48
    },
    {
      "beat": 194,
      "duration": 1,
      "midi": 81,
      "velocity": 112,
      "voice": "lead",
      "bar": 48
    },
    {
      "beat": 194,
      "duration": 0.18,
      "midi": 64,
      "velocity": 96,
      "voice": "perc",
      "bar": 48
    },
    {
      "beat": 194.25,
      "duration": 0.22,
      "midi": 62,
      "velocity": 70,
      "voice": "arp",
      "bar": 48
    },
    {
      "beat": 194.25,
      "duration": 0.05,
      "midi": 42,
      "velocity": 34,
      "voice": "hat",
      "bar": 48
    },
    {
      "beat": 194.5,
      "duration": 0.24,
      "midi": 63,
      "velocity": 80,
      "voice": "acid",
      "bar": 48,
      "slide": true
    },
    {
      "beat": 194.5,
      "duration": 0.22,
      "midi": 57,
      "velocity": 70,
      "voice": "arp",
      "bar": 48
    },
    {
      "beat": 194.5,
      "duration": 0.45,
      "midi": 38,
      "velocity": 100,
      "voice": "bass",
      "bar": 48
    },
    {
      "beat": 194.5,
      "duration": 0.14,
      "midi": 46,
      "velocity": 74,
      "voice": "hat",
      "bar": 48
    },
    {
      "beat": 194.5,
      "duration": 0.22,
      "midi": 62,
      "velocity": 92,
      "voice": "stab",
      "bar": 48
    },
    {
      "beat": 194.5,
      "duration": 0.22,
      "midi": 66,
      "velocity": 92,
      "voice": "stab",
      "bar": 48
    },
    {
      "beat": 194.5,
      "duration": 0.22,
      "midi": 69,
      "velocity": 92,
      "voice": "stab",
      "bar": 48
    },
    {
      "beat": 194.75,
      "duration": 0.24,
      "midi": 50,
      "velocity": 80,
      "voice": "acid",
      "bar": 48,
      "slide": false
    },
    {
      "beat": 194.75,
      "duration": 0.22,
      "midi": 54,
      "velocity": 70,
      "voice": "arp",
      "bar": 48
    },
    {
      "beat": 194.75,
      "duration": 0.05,
      "midi": 42,
      "velocity": 34,
      "voice": "hat",
      "bar": 48
    },
    {
      "beat": 195.0,
      "duration": 0.22,
      "midi": 50,
      "velocity": 84,
      "voice": "arp",
      "bar": 48
    },
    {
      "beat": 195.0,
      "duration": 0.45,
      "midi": 50,
      "velocity": 100,
      "voice": "bass",
      "bar": 48
    },
    {
      "beat": 195,
      "duration": 0.2,
      "midi": 39,
      "velocity": 104,
      "voice": "clap",
      "bar": 48
    },
    {
      "beat": 195,
      "duration": 0.07,
      "midi": 42,
      "velocity": 44,
      "voice": "hat",
      "bar": 48
    },
    {
      "beat": 195,
      "duration": 0.16,
      "midi": 36,
      "velocity": 116,
      "voice": "kick",
      "bar": 48
    },
    {
      "beat": 195,
      "duration": 1,
      "midi": 78,
      "velocity": 112,
      "voice": "lead",
      "bar": 48
    },
    {
      "beat": 195,
      "duration": 0.1,
      "midi": 62,
      "velocity": 72,
      "voice": "perc",
      "bar": 48
    },
    {
      "beat": 195.25,
      "duration": 0.24,
      "midi": 50,
      "velocity": 120,
      "voice": "acid",
      "bar": 48,
      "slide": false
    },
    {
      "beat": 195.25,
      "duration": 0.22,
      "midi": 54,
      "velocity": 70,
      "voice": "arp",
      "bar": 48
    },
    {
      "beat": 195.25,
      "duration": 0.05,
      "midi": 42,
      "velocity": 34,
      "voice": "hat",
      "bar": 48
    },
    {
      "beat": 195.5,
      "duration": 0.24,
      "midi": 62,
      "velocity": 80,
      "voice": "acid",
      "bar": 48,
      "slide": true
    },
    {
      "beat": 195.5,
      "duration": 0.22,
      "midi": 57,
      "velocity": 70,
      "voice": "arp",
      "bar": 48
    },
    {
      "beat": 195.5,
      "duration": 0.45,
      "midi": 38,
      "velocity": 100,
      "voice": "bass",
      "bar": 48
    },
    {
      "beat": 195.5,
      "duration": 0.14,
      "midi": 46,
      "velocity": 74,
      "voice": "hat",
      "bar": 48
    },
    {
      "beat": 195.5,
      "duration": 0.1,
      "midi": 62,
      "velocity": 72,
      "voice": "perc",
      "bar": 48
    },
    {
      "beat": 195.5,
      "duration": 0.22,
      "midi": 62,
      "velocity": 92,
      "voice": "stab",
      "bar": 48
    },
    {
      "beat": 195.5,
      "duration": 0.22,
      "midi": 66,
      "velocity": 92,
      "voice": "stab",
      "bar": 48
    },
    {
      "beat": 195.5,
      "duration": 0.22,
      "midi": 69,
      "velocity": 92,
      "voice": "stab",
      "bar": 48
    },
    {
      "beat": 195.75,
      "duration": 0.24,
      "midi": 51,
      "velocity": 80,
      "voice": "acid",
      "bar": 48,
      "slide": false
    },
    {
      "beat": 195.75,
      "duration": 0.22,
      "midi": 62,
      "velocity": 70,
      "voice": "arp",
      "bar": 48
    },
    {
      "beat": 195.75,
      "duration": 0.05,
      "midi": 42,
      "velocity": 34,
      "voice": "hat",
      "bar": 48
    },
    {
      "beat": 196.0,
      "duration": 0.24,
      "midi": 51,
      "velocity": 120,
      "voice": "acid",
      "bar": 49,
      "slide": false
    },
    {
      "beat": 196.0,
      "duration": 0.22,
      "midi": 51,
      "velocity": 84,
      "voice": "arp",
      "bar": 49
    },
    {
      "beat": 196.0,
      "duration": 0.45,
      "midi": 39,
      "velocity": 108,
      "voice": "bass",
      "bar": 49
    },
    {
      "beat": 196,
      "duration": 0.07,
      "midi": 42,
      "velocity": 44,
      "voice": "hat",
      "bar": 49
    },
    {
      "beat": 196,
      "duration": 0.16,
      "midi": 36,
      "velocity": 124,
      "voice": "kick",
      "bar": 49
    },
    {
      "beat": 196,
      "duration": 1.5,
      "midi": 79,
      "velocity": 112,
      "voice": "lead",
      "bar": 49
    },
    {
      "beat": 196,
      "duration": 4,
      "midi": 51,
      "velocity": 58,
      "voice": "pad",
      "bar": 49
    },
    {
      "beat": 196,
      "duration": 4,
      "midi": 55,
      "velocity": 58,
      "voice": "pad",
      "bar": 49
    },
    {
      "beat": 196,
      "duration": 4,
      "midi": 58,
      "velocity": 58,
      "voice": "pad",
      "bar": 49
    },
    {
      "beat": 196,
      "duration": 4,
      "midi": 63,
      "velocity": 58,
      "voice": "pad",
      "bar": 49
    },
    {
      "beat": 196,
      "duration": 0.18,
      "midi": 64,
      "velocity": 96,
      "voice": "perc",
      "bar": 49
    },
    {
      "beat": 196.25,
      "duration": 0.22,
      "midi": 55,
      "velocity": 70,
      "voice": "arp",
      "bar": 49
    },
    {
      "beat": 196.25,
      "duration": 0.05,
      "midi": 42,
      "velocity": 34,
      "voice": "hat",
      "bar": 49
    },
    {
      "beat": 196.5,
      "duration": 0.24,
      "midi": 63,
      "velocity": 80,
      "voice": "acid",
      "bar": 49,
      "slide": true
    },
    {
      "beat": 196.5,
      "duration": 0.22,
      "midi": 58,
      "velocity": 70,
      "voice": "arp",
      "bar": 49
    },
    {
      "beat": 196.5,
      "duration": 0.45,
      "midi": 39,
      "velocity": 100,
      "voice": "bass",
      "bar": 49
    },
    {
      "beat": 196.5,
      "duration": 0.14,
      "midi": 46,
      "velocity": 74,
      "voice": "hat",
      "bar": 49
    },
    {
      "beat": 196.5,
      "duration": 0.1,
      "midi": 62,
      "velocity": 72,
      "voice": "perc",
      "bar": 49
    },
    {
      "beat": 196.5,
      "duration": 0.22,
      "midi": 63,
      "velocity": 92,
      "voice": "stab",
      "bar": 49
    },
    {
      "beat": 196.5,
      "duration": 0.22,
      "midi": 67,
      "velocity": 92,
      "voice": "stab",
      "bar": 49
    },
    {
      "beat": 196.5,
      "duration": 0.22,
      "midi": 70,
      "velocity": 92,
      "voice": "stab",
      "bar": 49
    },
    {
      "beat": 196.75,
      "duration": 0.24,
      "midi": 51,
      "velocity": 80,
      "voice": "acid",
      "bar": 49,
      "slide": false
    },
    {
      "beat": 196.75,
      "duration": 0.22,
      "midi": 63,
      "velocity": 70,
      "voice": "arp",
      "bar": 49
    },
    {
      "beat": 196.75,
      "duration": 0.05,
      "midi": 42,
      "velocity": 34,
      "voice": "hat",
      "bar": 49
    },
    {
      "beat": 197.0,
      "duration": 0.24,
      "midi": 52,
      "velocity": 120,
      "voice": "acid",
      "bar": 49,
      "slide": false
    },
    {
      "beat": 197.0,
      "duration": 0.22,
      "midi": 58,
      "velocity": 84,
      "voice": "arp",
      "bar": 49
    },
    {
      "beat": 197.0,
      "duration": 0.45,
      "midi": 51,
      "velocity": 100,
      "voice": "bass",
      "bar": 49
    },
    {
      "beat": 197,
      "duration": 0.2,
      "midi": 39,
      "velocity": 104,
      "voice": "clap",
      "bar": 49
    },
    {
      "beat": 197,
      "duration": 0.07,
      "midi": 42,
      "velocity": 44,
      "voice": "hat",
      "bar": 49
    },
    {
      "beat": 197,
      "duration": 0.16,
      "midi": 36,
      "velocity": 116,
      "voice": "kick",
      "bar": 49
    },
    {
      "beat": 197.25,
      "duration": 0.22,
      "midi": 55,
      "velocity": 70,
      "voice": "arp",
      "bar": 49
    },
    {
      "beat": 197.25,
      "duration": 0.05,
      "midi": 42,
      "velocity": 34,
      "voice": "hat",
      "bar": 49
    },
    {
      "beat": 197.5,
      "duration": 0.24,
      "midi": 51,
      "velocity": 80,
      "voice": "acid",
      "bar": 49,
      "slide": false
    },
    {
      "beat": 197.5,
      "duration": 0.22,
      "midi": 51,
      "velocity": 70,
      "voice": "arp",
      "bar": 49
    },
    {
      "beat": 197.5,
      "duration": 0.45,
      "midi": 39,
      "velocity": 100,
      "voice": "bass",
      "bar": 49
    },
    {
      "beat": 197.5,
      "duration": 0.14,
      "midi": 46,
      "velocity": 74,
      "voice": "hat",
      "bar": 49
    },
    {
      "beat": 197.5,
      "duration": 0.5,
      "midi": 82,
      "velocity": 112,
      "voice": "lead",
      "bar": 49
    },
    {
      "beat": 197.5,
      "duration": 0.1,
      "midi": 62,
      "velocity": 72,
      "voice": "perc",
      "bar": 49
    },
    {
      "beat": 197.5,
      "duration": 0.22,
      "midi": 63,
      "velocity": 92,
      "voice": "stab",
      "bar": 49
    },
    {
      "beat": 197.5,
      "duration": 0.22,
      "midi": 67,
      "velocity": 92,
      "voice": "stab",
      "bar": 49
    },
    {
      "beat": 197.5,
      "duration": 0.22,
      "midi": 70,
      "velocity": 92,
      "voice": "stab",
      "bar": 49
    },
    {
      "beat": 197.75,
      "duration": 0.24,
      "midi": 63,
      "velocity": 80,
      "voice": "acid",
      "bar": 49,
      "slide": true
    },
    {
      "beat": 197.75,
      "duration": 0.22,
      "midi": 55,
      "velocity": 70,
      "voice": "arp",
      "bar": 49
    },
    {
      "beat": 197.75,
      "duration": 0.05,
      "midi": 42,
      "velocity": 34,
      "voice": "hat",
      "bar": 49
    },
    {
      "beat": 198.0,
      "duration": 0.24,
      "midi": 51,
      "velocity": 120,
      "voice": "acid",
      "bar": 49,
      "slide": false
    },
    {
      "beat": 198.0,
      "duration": 0.22,
      "midi": 58,
      "velocity": 84,
      "voice": "arp",
      "bar": 49
    },
    {
      "beat": 198.0,
      "duration": 0.45,
      "midi": 39,
      "velocity": 100,
      "voice": "bass",
      "bar": 49
    },
    {
      "beat": 198,
      "duration": 0.07,
      "midi": 42,
      "velocity": 44,
      "voice": "hat",
      "bar": 49
    },
    {
      "beat": 198,
      "duration": 0.16,
      "midi": 36,
      "velocity": 116,
      "voice": "kick",
      "bar": 49
    },
    {
      "beat": 198,
      "duration": 1,
      "midi": 81,
      "velocity": 112,
      "voice": "lead",
      "bar": 49
    },
    {
      "beat": 198,
      "duration": 0.18,
      "midi": 64,
      "velocity": 96,
      "voice": "perc",
      "bar": 49
    },
    {
      "beat": 198.25,
      "duration": 0.22,
      "midi": 63,
      "velocity": 70,
      "voice": "arp",
      "bar": 49
    },
    {
      "beat": 198.25,
      "duration": 0.05,
      "midi": 42,
      "velocity": 34,
      "voice": "hat",
      "bar": 49
    },
    {
      "beat": 198.5,
      "duration": 0.24,
      "midi": 64,
      "velocity": 80,
      "voice": "acid",
      "bar": 49,
      "slide": true
    },
    {
      "beat": 198.5,
      "duration": 0.22,
      "midi": 58,
      "velocity": 70,
      "voice": "arp",
      "bar": 49
    },
    {
      "beat": 198.5,
      "duration": 0.45,
      "midi": 39,
      "velocity": 100,
      "voice": "bass",
      "bar": 49
    },
    {
      "beat": 198.5,
      "duration": 0.14,
      "midi": 46,
      "velocity": 74,
      "voice": "hat",
      "bar": 49
    },
    {
      "beat": 198.5,
      "duration": 0.22,
      "midi": 63,
      "velocity": 92,
      "voice": "stab",
      "bar": 49
    },
    {
      "beat": 198.5,
      "duration": 0.22,
      "midi": 67,
      "velocity": 92,
      "voice": "stab",
      "bar": 49
    },
    {
      "beat": 198.5,
      "duration": 0.22,
      "midi": 70,
      "velocity": 92,
      "voice": "stab",
      "bar": 49
    },
    {
      "beat": 198.75,
      "duration": 0.24,
      "midi": 51,
      "velocity": 80,
      "voice": "acid",
      "bar": 49,
      "slide": false
    },
    {
      "beat": 198.75,
      "duration": 0.22,
      "midi": 55,
      "velocity": 70,
      "voice": "arp",
      "bar": 49
    },
    {
      "beat": 198.75,
      "duration": 0.05,
      "midi": 42,
      "velocity": 34,
      "voice": "hat",
      "bar": 49
    },
    {
      "beat": 199.0,
      "duration": 0.22,
      "midi": 51,
      "velocity": 84,
      "voice": "arp",
      "bar": 49
    },
    {
      "beat": 199.0,
      "duration": 0.45,
      "midi": 51,
      "velocity": 100,
      "voice": "bass",
      "bar": 49
    },
    {
      "beat": 199,
      "duration": 0.2,
      "midi": 39,
      "velocity": 104,
      "voice": "clap",
      "bar": 49
    },
    {
      "beat": 199,
      "duration": 0.07,
      "midi": 42,
      "velocity": 44,
      "voice": "hat",
      "bar": 49
    },
    {
      "beat": 199,
      "duration": 0.16,
      "midi": 36,
      "velocity": 116,
      "voice": "kick",
      "bar": 49
    },
    {
      "beat": 199,
      "duration": 1,
      "midi": 79,
      "velocity": 112,
      "voice": "lead",
      "bar": 49
    },
    {
      "beat": 199,
      "duration": 0.1,
      "midi": 62,
      "velocity": 72,
      "voice": "perc",
      "bar": 49
    },
    {
      "beat": 199.25,
      "duration": 0.24,
      "midi": 51,
      "velocity": 120,
      "voice": "acid",
      "bar": 49,
      "slide": false
    },
    {
      "beat": 199.25,
      "duration": 0.22,
      "midi": 55,
      "velocity": 70,
      "voice": "arp",
      "bar": 49
    },
    {
      "beat": 199.25,
      "duration": 0.05,
      "midi": 42,
      "velocity": 34,
      "voice": "hat",
      "bar": 49
    },
    {
      "beat": 199.5,
      "duration": 0.24,
      "midi": 63,
      "velocity": 80,
      "voice": "acid",
      "bar": 49,
      "slide": true
    },
    {
      "beat": 199.5,
      "duration": 0.22,
      "midi": 58,
      "velocity": 70,
      "voice": "arp",
      "bar": 49
    },
    {
      "beat": 199.5,
      "duration": 0.45,
      "midi": 39,
      "velocity": 100,
      "voice": "bass",
      "bar": 49
    },
    {
      "beat": 199.5,
      "duration": 0.14,
      "midi": 46,
      "velocity": 74,
      "voice": "hat",
      "bar": 49
    },
    {
      "beat": 199.5,
      "duration": 0.1,
      "midi": 62,
      "velocity": 72,
      "voice": "perc",
      "bar": 49
    },
    {
      "beat": 199.5,
      "duration": 0.22,
      "midi": 63,
      "velocity": 92,
      "voice": "stab",
      "bar": 49
    },
    {
      "beat": 199.5,
      "duration": 0.22,
      "midi": 67,
      "velocity": 92,
      "voice": "stab",
      "bar": 49
    },
    {
      "beat": 199.5,
      "duration": 0.22,
      "midi": 70,
      "velocity": 92,
      "voice": "stab",
      "bar": 49
    },
    {
      "beat": 199.75,
      "duration": 0.24,
      "midi": 52,
      "velocity": 80,
      "voice": "acid",
      "bar": 49,
      "slide": false
    },
    {
      "beat": 199.75,
      "duration": 0.22,
      "midi": 63,
      "velocity": 70,
      "voice": "arp",
      "bar": 49
    },
    {
      "beat": 199.75,
      "duration": 0.05,
      "midi": 42,
      "velocity": 34,
      "voice": "hat",
      "bar": 49
    },
    {
      "beat": 200.0,
      "duration": 0.24,
      "midi": 55,
      "velocity": 120,
      "voice": "acid",
      "bar": 50,
      "slide": false
    },
    {
      "beat": 200.0,
      "duration": 0.22,
      "midi": 55,
      "velocity": 84,
      "voice": "arp",
      "bar": 50
    },
    {
      "beat": 200.0,
      "duration": 0.45,
      "midi": 43,
      "velocity": 108,
      "voice": "bass",
      "bar": 50
    },
    {
      "beat": 200,
      "duration": 0.07,
      "midi": 42,
      "velocity": 44,
      "voice": "hat",
      "bar": 50
    },
    {
      "beat": 200,
      "duration": 0.16,
      "midi": 36,
      "velocity": 124,
      "voice": "kick",
      "bar": 50
    },
    {
      "beat": 200,
      "duration": 1,
      "midi": 82,
      "velocity": 112,
      "voice": "lead",
      "bar": 50
    },
    {
      "beat": 200,
      "duration": 4,
      "midi": 55,
      "velocity": 58,
      "voice": "pad",
      "bar": 50
    },
    {
      "beat": 200,
      "duration": 4,
      "midi": 58,
      "velocity": 58,
      "voice": "pad",
      "bar": 50
    },
    {
      "beat": 200,
      "duration": 4,
      "midi": 62,
      "velocity": 58,
      "voice": "pad",
      "bar": 50
    },
    {
      "beat": 200,
      "duration": 4,
      "midi": 67,
      "velocity": 58,
      "voice": "pad",
      "bar": 50
    },
    {
      "beat": 200,
      "duration": 0.18,
      "midi": 64,
      "velocity": 96,
      "voice": "perc",
      "bar": 50
    },
    {
      "beat": 200.25,
      "duration": 0.22,
      "midi": 58,
      "velocity": 70,
      "voice": "arp",
      "bar": 50
    },
    {
      "beat": 200.25,
      "duration": 0.05,
      "midi": 42,
      "velocity": 34,
      "voice": "hat",
      "bar": 50
    },
    {
      "beat": 200.5,
      "duration": 0.24,
      "midi": 67,
      "velocity": 80,
      "voice": "acid",
      "bar": 50,
      "slide": true
    },
    {
      "beat": 200.5,
      "duration": 0.22,
      "midi": 62,
      "velocity": 70,
      "voice": "arp",
      "bar": 50
    },
    {
      "beat": 200.5,
      "duration": 0.45,
      "midi": 43,
      "velocity": 100,
      "voice": "bass",
      "bar": 50
    },
    {
      "beat": 200.5,
      "duration": 0.14,
      "midi": 46,
      "velocity": 74,
      "voice": "hat",
      "bar": 50
    },
    {
      "beat": 200.5,
      "duration": 0.1,
      "midi": 62,
      "velocity": 72,
      "voice": "perc",
      "bar": 50
    },
    {
      "beat": 200.5,
      "duration": 0.22,
      "midi": 67,
      "velocity": 92,
      "voice": "stab",
      "bar": 50
    },
    {
      "beat": 200.5,
      "duration": 0.22,
      "midi": 70,
      "velocity": 92,
      "voice": "stab",
      "bar": 50
    },
    {
      "beat": 200.5,
      "duration": 0.22,
      "midi": 74,
      "velocity": 92,
      "voice": "stab",
      "bar": 50
    },
    {
      "beat": 200.75,
      "duration": 0.24,
      "midi": 55,
      "velocity": 80,
      "voice": "acid",
      "bar": 50,
      "slide": false
    },
    {
      "beat": 200.75,
      "duration": 0.22,
      "midi": 67,
      "velocity": 70,
      "voice": "arp",
      "bar": 50
    },
    {
      "beat": 200.75,
      "duration": 0.05,
      "midi": 42,
      "velocity": 34,
      "voice": "hat",
      "bar": 50
    },
    {
      "beat": 201.0,
      "duration": 0.24,
      "midi": 56,
      "velocity": 120,
      "voice": "acid",
      "bar": 50,
      "slide": false
    },
    {
      "beat": 201.0,
      "duration": 0.22,
      "midi": 62,
      "velocity": 84,
      "voice": "arp",
      "bar": 50
    },
    {
      "beat": 201.0,
      "duration": 0.45,
      "midi": 55,
      "velocity": 100,
      "voice": "bass",
      "bar": 50
    },
    {
      "beat": 201,
      "duration": 0.2,
      "midi": 39,
      "velocity": 104,
      "voice": "clap",
      "bar": 50
    },
    {
      "beat": 201,
      "duration": 0.07,
      "midi": 42,
      "velocity": 44,
      "voice": "hat",
      "bar": 50
    },
    {
      "beat": 201,
      "duration": 0.16,
      "midi": 36,
      "velocity": 116,
      "voice": "kick",
      "bar": 50
    },
    {
      "beat": 201,
      "duration": 0.5,
      "midi": 81,
      "velocity": 112,
      "voice": "lead",
      "bar": 50
    },
    {
      "beat": 201.25,
      "duration": 0.22,
      "midi": 58,
      "velocity": 70,
      "voice": "arp",
      "bar": 50
    },
    {
      "beat": 201.25,
      "duration": 0.05,
      "midi": 42,
      "velocity": 34,
      "voice": "hat",
      "bar": 50
    },
    {
      "beat": 201.5,
      "duration": 0.24,
      "midi": 55,
      "velocity": 80,
      "voice": "acid",
      "bar": 50,
      "slide": false
    },
    {
      "beat": 201.5,
      "duration": 0.22,
      "midi": 55,
      "velocity": 70,
      "voice": "arp",
      "bar": 50
    },
    {
      "beat": 201.5,
      "duration": 0.45,
      "midi": 43,
      "velocity": 100,
      "voice": "bass",
      "bar": 50
    },
    {
      "beat": 201.5,
      "duration": 0.14,
      "midi": 46,
      "velocity": 74,
      "voice": "hat",
      "bar": 50
    },
    {
      "beat": 201.5,
      "duration": 0.5,
      "midi": 79,
      "velocity": 112,
      "voice": "lead",
      "bar": 50
    },
    {
      "beat": 201.5,
      "duration": 0.1,
      "midi": 62,
      "velocity": 72,
      "voice": "perc",
      "bar": 50
    },
    {
      "beat": 201.5,
      "duration": 0.22,
      "midi": 67,
      "velocity": 92,
      "voice": "stab",
      "bar": 50
    },
    {
      "beat": 201.5,
      "duration": 0.22,
      "midi": 70,
      "velocity": 92,
      "voice": "stab",
      "bar": 50
    },
    {
      "beat": 201.5,
      "duration": 0.22,
      "midi": 74,
      "velocity": 92,
      "voice": "stab",
      "bar": 50
    },
    {
      "beat": 201.75,
      "duration": 0.24,
      "midi": 67,
      "velocity": 80,
      "voice": "acid",
      "bar": 50,
      "slide": true
    },
    {
      "beat": 201.75,
      "duration": 0.22,
      "midi": 58,
      "velocity": 70,
      "voice": "arp",
      "bar": 50
    },
    {
      "beat": 201.75,
      "duration": 0.05,
      "midi": 42,
      "velocity": 34,
      "voice": "hat",
      "bar": 50
    },
    {
      "beat": 202.0,
      "duration": 0.24,
      "midi": 55,
      "velocity": 120,
      "voice": "acid",
      "bar": 50,
      "slide": false
    },
    {
      "beat": 202.0,
      "duration": 0.22,
      "midi": 62,
      "velocity": 84,
      "voice": "arp",
      "bar": 50
    },
    {
      "beat": 202.0,
      "duration": 0.45,
      "midi": 43,
      "velocity": 100,
      "voice": "bass",
      "bar": 50
    },
    {
      "beat": 202,
      "duration": 0.07,
      "midi": 42,
      "velocity": 44,
      "voice": "hat",
      "bar": 50
    },
    {
      "beat": 202,
      "duration": 0.16,
      "midi": 36,
      "velocity": 116,
      "voice": "kick",
      "bar": 50
    },
    {
      "beat": 202,
      "duration": 1,
      "midi": 86,
      "velocity": 112,
      "voice": "lead",
      "bar": 50
    },
    {
      "beat": 202,
      "duration": 0.18,
      "midi": 64,
      "velocity": 96,
      "voice": "perc",
      "bar": 50
    },
    {
      "beat": 202.25,
      "duration": 0.22,
      "midi": 67,
      "velocity": 70,
      "voice": "arp",
      "bar": 50
    },
    {
      "beat": 202.25,
      "duration": 0.05,
      "midi": 42,
      "velocity": 34,
      "voice": "hat",
      "bar": 50
    },
    {
      "beat": 202.5,
      "duration": 0.24,
      "midi": 68,
      "velocity": 80,
      "voice": "acid",
      "bar": 50,
      "slide": true
    },
    {
      "beat": 202.5,
      "duration": 0.22,
      "midi": 62,
      "velocity": 70,
      "voice": "arp",
      "bar": 50
    },
    {
      "beat": 202.5,
      "duration": 0.45,
      "midi": 43,
      "velocity": 100,
      "voice": "bass",
      "bar": 50
    },
    {
      "beat": 202.5,
      "duration": 0.14,
      "midi": 46,
      "velocity": 74,
      "voice": "hat",
      "bar": 50
    },
    {
      "beat": 202.5,
      "duration": 0.22,
      "midi": 67,
      "velocity": 92,
      "voice": "stab",
      "bar": 50
    },
    {
      "beat": 202.5,
      "duration": 0.22,
      "midi": 70,
      "velocity": 92,
      "voice": "stab",
      "bar": 50
    },
    {
      "beat": 202.5,
      "duration": 0.22,
      "midi": 74,
      "velocity": 92,
      "voice": "stab",
      "bar": 50
    },
    {
      "beat": 202.75,
      "duration": 0.24,
      "midi": 55,
      "velocity": 80,
      "voice": "acid",
      "bar": 50,
      "slide": false
    },
    {
      "beat": 202.75,
      "duration": 0.22,
      "midi": 58,
      "velocity": 70,
      "voice": "arp",
      "bar": 50
    },
    {
      "beat": 202.75,
      "duration": 0.05,
      "midi": 42,
      "velocity": 34,
      "voice": "hat",
      "bar": 50
    },
    {
      "beat": 203.0,
      "duration": 0.22,
      "midi": 55,
      "velocity": 84,
      "voice": "arp",
      "bar": 50
    },
    {
      "beat": 203.0,
      "duration": 0.45,
      "midi": 55,
      "velocity": 100,
      "voice": "bass",
      "bar": 50
    },
    {
      "beat": 203,
      "duration": 0.2,
      "midi": 39,
      "velocity": 104,
      "voice": "clap",
      "bar": 50
    },
    {
      "beat": 203,
      "duration": 0.07,
      "midi": 42,
      "velocity": 44,
      "voice": "hat",
      "bar": 50
    },
    {
      "beat": 203,
      "duration": 0.16,
      "midi": 36,
      "velocity": 116,
      "voice": "kick",
      "bar": 50
    },
    {
      "beat": 203,
      "duration": 1,
      "midi": 82,
      "velocity": 112,
      "voice": "lead",
      "bar": 50
    },
    {
      "beat": 203,
      "duration": 0.1,
      "midi": 62,
      "velocity": 72,
      "voice": "perc",
      "bar": 50
    },
    {
      "beat": 203.25,
      "duration": 0.24,
      "midi": 55,
      "velocity": 120,
      "voice": "acid",
      "bar": 50,
      "slide": false
    },
    {
      "beat": 203.25,
      "duration": 0.22,
      "midi": 58,
      "velocity": 70,
      "voice": "arp",
      "bar": 50
    },
    {
      "beat": 203.25,
      "duration": 0.05,
      "midi": 42,
      "velocity": 34,
      "voice": "hat",
      "bar": 50
    },
    {
      "beat": 203.5,
      "duration": 0.24,
      "midi": 67,
      "velocity": 80,
      "voice": "acid",
      "bar": 50,
      "slide": true
    },
    {
      "beat": 203.5,
      "duration": 0.22,
      "midi": 62,
      "velocity": 70,
      "voice": "arp",
      "bar": 50
    },
    {
      "beat": 203.5,
      "duration": 0.45,
      "midi": 43,
      "velocity": 100,
      "voice": "bass",
      "bar": 50
    },
    {
      "beat": 203.5,
      "duration": 0.14,
      "midi": 46,
      "velocity": 74,
      "voice": "hat",
      "bar": 50
    },
    {
      "beat": 203.5,
      "duration": 0.1,
      "midi": 62,
      "velocity": 72,
      "voice": "perc",
      "bar": 50
    },
    {
      "beat": 203.5,
      "duration": 0.22,
      "midi": 67,
      "velocity": 92,
      "voice": "stab",
      "bar": 50
    },
    {
      "beat": 203.5,
      "duration": 0.22,
      "midi": 70,
      "velocity": 92,
      "voice": "stab",
      "bar": 50
    },
    {
      "beat": 203.5,
      "duration": 0.22,
      "midi": 74,
      "velocity": 92,
      "voice": "stab",
      "bar": 50
    },
    {
      "beat": 203.75,
      "duration": 0.24,
      "midi": 56,
      "velocity": 80,
      "voice": "acid",
      "bar": 50,
      "slide": false
    },
    {
      "beat": 203.75,
      "duration": 0.22,
      "midi": 67,
      "velocity": 70,
      "voice": "arp",
      "bar": 50
    },
    {
      "beat": 203.75,
      "duration": 0.05,
      "midi": 42,
      "velocity": 34,
      "voice": "hat",
      "bar": 50
    },
    {
      "beat": 204.0,
      "duration": 0.24,
      "midi": 57,
      "velocity": 120,
      "voice": "acid",
      "bar": 51,
      "slide": false
    },
    {
      "beat": 204.0,
      "duration": 0.22,
      "midi": 57,
      "velocity": 84,
      "voice": "arp",
      "bar": 51
    },
    {
      "beat": 204.0,
      "duration": 0.45,
      "midi": 45,
      "velocity": 108,
      "voice": "bass",
      "bar": 51
    },
    {
      "beat": 204,
      "duration": 0.07,
      "midi": 42,
      "velocity": 44,
      "voice": "hat",
      "bar": 51
    },
    {
      "beat": 204,
      "duration": 0.16,
      "midi": 36,
      "velocity": 124,
      "voice": "kick",
      "bar": 51
    },
    {
      "beat": 204,
      "duration": 1,
      "midi": 85,
      "velocity": 112,
      "voice": "lead",
      "bar": 51
    },
    {
      "beat": 204,
      "duration": 4,
      "midi": 57,
      "velocity": 58,
      "voice": "pad",
      "bar": 51
    },
    {
      "beat": 204,
      "duration": 4,
      "midi": 61,
      "velocity": 58,
      "voice": "pad",
      "bar": 51
    },
    {
      "beat": 204,
      "duration": 4,
      "midi": 64,
      "velocity": 58,
      "voice": "pad",
      "bar": 51
    },
    {
      "beat": 204,
      "duration": 4,
      "midi": 69,
      "velocity": 58,
      "voice": "pad",
      "bar": 51
    },
    {
      "beat": 204,
      "duration": 0.18,
      "midi": 64,
      "velocity": 96,
      "voice": "perc",
      "bar": 51
    },
    {
      "beat": 204.25,
      "duration": 0.22,
      "midi": 61,
      "velocity": 70,
      "voice": "arp",
      "bar": 51
    },
    {
      "beat": 204.25,
      "duration": 0.05,
      "midi": 42,
      "velocity": 34,
      "voice": "hat",
      "bar": 51
    },
    {
      "beat": 204.5,
      "duration": 0.24,
      "midi": 69,
      "velocity": 80,
      "voice": "acid",
      "bar": 51,
      "slide": true
    },
    {
      "beat": 204.5,
      "duration": 0.22,
      "midi": 64,
      "velocity": 70,
      "voice": "arp",
      "bar": 51
    },
    {
      "beat": 204.5,
      "duration": 0.45,
      "midi": 45,
      "velocity": 100,
      "voice": "bass",
      "bar": 51
    },
    {
      "beat": 204.5,
      "duration": 0.14,
      "midi": 46,
      "velocity": 74,
      "voice": "hat",
      "bar": 51
    },
    {
      "beat": 204.5,
      "duration": 0.1,
      "midi": 62,
      "velocity": 72,
      "voice": "perc",
      "bar": 51
    },
    {
      "beat": 204.5,
      "duration": 0.22,
      "midi": 69,
      "velocity": 92,
      "voice": "stab",
      "bar": 51
    },
    {
      "beat": 204.5,
      "duration": 0.22,
      "midi": 73,
      "velocity": 92,
      "voice": "stab",
      "bar": 51
    },
    {
      "beat": 204.5,
      "duration": 0.22,
      "midi": 76,
      "velocity": 92,
      "voice": "stab",
      "bar": 51
    },
    {
      "beat": 204.75,
      "duration": 0.24,
      "midi": 57,
      "velocity": 80,
      "voice": "acid",
      "bar": 51,
      "slide": false
    },
    {
      "beat": 204.75,
      "duration": 0.22,
      "midi": 69,
      "velocity": 70,
      "voice": "arp",
      "bar": 51
    },
    {
      "beat": 204.75,
      "duration": 0.05,
      "midi": 42,
      "velocity": 34,
      "voice": "hat",
      "bar": 51
    },
    {
      "beat": 205.0,
      "duration": 0.24,
      "midi": 58,
      "velocity": 120,
      "voice": "acid",
      "bar": 51,
      "slide": false
    },
    {
      "beat": 205.0,
      "duration": 0.22,
      "midi": 64,
      "velocity": 84,
      "voice": "arp",
      "bar": 51
    },
    {
      "beat": 205.0,
      "duration": 0.45,
      "midi": 57,
      "velocity": 100,
      "voice": "bass",
      "bar": 51
    },
    {
      "beat": 205,
      "duration": 0.2,
      "midi": 39,
      "velocity": 104,
      "voice": "clap",
      "bar": 51
    },
    {
      "beat": 205,
      "duration": 0.07,
      "midi": 42,
      "velocity": 44,
      "voice": "hat",
      "bar": 51
    },
    {
      "beat": 205,
      "duration": 0.16,
      "midi": 36,
      "velocity": 116,
      "voice": "kick",
      "bar": 51
    },
    {
      "beat": 205,
      "duration": 0.5,
      "midi": 86,
      "velocity": 112,
      "voice": "lead",
      "bar": 51
    },
    {
      "beat": 205.25,
      "duration": 0.22,
      "midi": 61,
      "velocity": 70,
      "voice": "arp",
      "bar": 51
    },
    {
      "beat": 205.25,
      "duration": 0.05,
      "midi": 42,
      "velocity": 34,
      "voice": "hat",
      "bar": 51
    },
    {
      "beat": 205.5,
      "duration": 0.24,
      "midi": 57,
      "velocity": 80,
      "voice": "acid",
      "bar": 51,
      "slide": false
    },
    {
      "beat": 205.5,
      "duration": 0.22,
      "midi": 57,
      "velocity": 70,
      "voice": "arp",
      "bar": 51
    },
    {
      "beat": 205.5,
      "duration": 0.45,
      "midi": 45,
      "velocity": 100,
      "voice": "bass",
      "bar": 51
    },
    {
      "beat": 205.5,
      "duration": 0.14,
      "midi": 46,
      "velocity": 74,
      "voice": "hat",
      "bar": 51
    },
    {
      "beat": 205.5,
      "duration": 0.5,
      "midi": 85,
      "velocity": 112,
      "voice": "lead",
      "bar": 51
    },
    {
      "beat": 205.5,
      "duration": 0.1,
      "midi": 62,
      "velocity": 72,
      "voice": "perc",
      "bar": 51
    },
    {
      "beat": 205.5,
      "duration": 0.22,
      "midi": 69,
      "velocity": 92,
      "voice": "stab",
      "bar": 51
    },
    {
      "beat": 205.5,
      "duration": 0.22,
      "midi": 73,
      "velocity": 92,
      "voice": "stab",
      "bar": 51
    },
    {
      "beat": 205.5,
      "duration": 0.22,
      "midi": 76,
      "velocity": 92,
      "voice": "stab",
      "bar": 51
    },
    {
      "beat": 205.75,
      "duration": 0.24,
      "midi": 69,
      "velocity": 80,
      "voice": "acid",
      "bar": 51,
      "slide": true
    },
    {
      "beat": 205.75,
      "duration": 0.22,
      "midi": 61,
      "velocity": 70,
      "voice": "arp",
      "bar": 51
    },
    {
      "beat": 205.75,
      "duration": 0.05,
      "midi": 42,
      "velocity": 34,
      "voice": "hat",
      "bar": 51
    },
    {
      "beat": 206.0,
      "duration": 0.24,
      "midi": 57,
      "velocity": 120,
      "voice": "acid",
      "bar": 51,
      "slide": false
    },
    {
      "beat": 206.0,
      "duration": 0.22,
      "midi": 64,
      "velocity": 84,
      "voice": "arp",
      "bar": 51
    },
    {
      "beat": 206.0,
      "duration": 0.45,
      "midi": 45,
      "velocity": 100,
      "voice": "bass",
      "bar": 51
    },
    {
      "beat": 206,
      "duration": 0.07,
      "midi": 42,
      "velocity": 44,
      "voice": "hat",
      "bar": 51
    },
    {
      "beat": 206,
      "duration": 0.16,
      "midi": 36,
      "velocity": 116,
      "voice": "kick",
      "bar": 51
    },
    {
      "beat": 206,
      "duration": 2,
      "midi": 81,
      "velocity": 112,
      "voice": "lead",
      "bar": 51
    },
    {
      "beat": 206,
      "duration": 0.18,
      "midi": 64,
      "velocity": 96,
      "voice": "perc",
      "bar": 51
    },
    {
      "beat": 206.25,
      "duration": 0.22,
      "midi": 69,
      "velocity": 70,
      "voice": "arp",
      "bar": 51
    },
    {
      "beat": 206.25,
      "duration": 0.05,
      "midi": 42,
      "velocity": 34,
      "voice": "hat",
      "bar": 51
    },
    {
      "beat": 206.5,
      "duration": 0.24,
      "midi": 70,
      "velocity": 80,
      "voice": "acid",
      "bar": 51,
      "slide": true
    },
    {
      "beat": 206.5,
      "duration": 0.22,
      "midi": 64,
      "velocity": 70,
      "voice": "arp",
      "bar": 51
    },
    {
      "beat": 206.5,
      "duration": 0.45,
      "midi": 45,
      "velocity": 100,
      "voice": "bass",
      "bar": 51
    },
    {
      "beat": 206.5,
      "duration": 0.14,
      "midi": 46,
      "velocity": 74,
      "voice": "hat",
      "bar": 51
    },
    {
      "beat": 206.5,
      "duration": 0.22,
      "midi": 69,
      "velocity": 92,
      "voice": "stab",
      "bar": 51
    },
    {
      "beat": 206.5,
      "duration": 0.22,
      "midi": 73,
      "velocity": 92,
      "voice": "stab",
      "bar": 51
    },
    {
      "beat": 206.5,
      "duration": 0.22,
      "midi": 76,
      "velocity": 92,
      "voice": "stab",
      "bar": 51
    },
    {
      "beat": 206.75,
      "duration": 0.24,
      "midi": 57,
      "velocity": 80,
      "voice": "acid",
      "bar": 51,
      "slide": false
    },
    {
      "beat": 206.75,
      "duration": 0.22,
      "midi": 61,
      "velocity": 70,
      "voice": "arp",
      "bar": 51
    },
    {
      "beat": 206.75,
      "duration": 0.05,
      "midi": 42,
      "velocity": 34,
      "voice": "hat",
      "bar": 51
    },
    {
      "beat": 207.0,
      "duration": 0.22,
      "midi": 57,
      "velocity": 84,
      "voice": "arp",
      "bar": 51
    },
    {
      "beat": 207.0,
      "duration": 0.45,
      "midi": 57,
      "velocity": 100,
      "voice": "bass",
      "bar": 51
    },
    {
      "beat": 207,
      "duration": 0.2,
      "midi": 39,
      "velocity": 104,
      "voice": "clap",
      "bar": 51
    },
    {
      "beat": 207,
      "duration": 0.07,
      "midi": 42,
      "velocity": 44,
      "voice": "hat",
      "bar": 51
    },
    {
      "beat": 207,
      "duration": 0.16,
      "midi": 36,
      "velocity": 116,
      "voice": "kick",
      "bar": 51
    },
    {
      "beat": 207,
      "duration": 0.1,
      "midi": 62,
      "velocity": 72,
      "voice": "perc",
      "bar": 51
    },
    {
      "beat": 207.25,
      "duration": 0.24,
      "midi": 57,
      "velocity": 120,
      "voice": "acid",
      "bar": 51,
      "slide": false
    },
    {
      "beat": 207.25,
      "duration": 0.22,
      "midi": 61,
      "velocity": 70,
      "voice": "arp",
      "bar": 51
    },
    {
      "beat": 207.25,
      "duration": 0.05,
      "midi": 42,
      "velocity": 34,
      "voice": "hat",
      "bar": 51
    },
    {
      "beat": 207.5,
      "duration": 0.24,
      "midi": 69,
      "velocity": 80,
      "voice": "acid",
      "bar": 51,
      "slide": true
    },
    {
      "beat": 207.5,
      "duration": 0.22,
      "midi": 64,
      "velocity": 70,
      "voice": "arp",
      "bar": 51
    },
    {
      "beat": 207.5,
      "duration": 0.45,
      "midi": 45,
      "velocity": 100,
      "voice": "bass",
      "bar": 51
    },
    {
      "beat": 207.5,
      "duration": 0.14,
      "midi": 46,
      "velocity": 74,
      "voice": "hat",
      "bar": 51
    },
    {
      "beat": 207.5,
      "duration": 0.1,
      "midi": 62,
      "velocity": 72,
      "voice": "perc",
      "bar": 51
    },
    {
      "beat": 207.5,
      "duration": 0.22,
      "midi": 69,
      "velocity": 92,
      "voice": "stab",
      "bar": 51
    },
    {
      "beat": 207.5,
      "duration": 0.22,
      "midi": 73,
      "velocity": 92,
      "voice": "stab",
      "bar": 51
    },
    {
      "beat": 207.5,
      "duration": 0.22,
      "midi": 76,
      "velocity": 92,
      "voice": "stab",
      "bar": 51
    },
    {
      "beat": 207.75,
      "duration": 0.24,
      "midi": 58,
      "velocity": 80,
      "voice": "acid",
      "bar": 51,
      "slide": false
    },
    {
      "beat": 207.75,
      "duration": 0.22,
      "midi": 69,
      "velocity": 70,
      "voice": "arp",
      "bar": 51
    },
    {
      "beat": 207.75,
      "duration": 0.05,
      "midi": 42,
      "velocity": 34,
      "voice": "hat",
      "bar": 51
    },
    {
      "beat": 208.0,
      "duration": 0.24,
      "midi": 50,
      "velocity": 120,
      "voice": "acid",
      "bar": 52,
      "slide": false
    },
    {
      "beat": 208.0,
      "duration": 0.22,
      "midi": 50,
      "velocity": 84,
      "voice": "arp",
      "bar": 52
    },
    {
      "beat": 208.0,
      "duration": 0.45,
      "midi": 38,
      "velocity": 108,
      "voice": "bass",
      "bar": 52
    },
    {
      "beat": 208,
      "duration": 0.07,
      "midi": 42,
      "velocity": 44,
      "voice": "hat",
      "bar": 52
    },
    {
      "beat": 208,
      "duration": 0.16,
      "midi": 36,
      "velocity": 124,
      "voice": "kick",
      "bar": 52
    },
    {
      "beat": 208,
      "duration": 1,
      "midi": 86,
      "velocity": 112,
      "voice": "lead",
      "bar": 52
    },
    {
      "beat": 208,
      "duration": 4,
      "midi": 50,
      "velocity": 58,
      "voice": "pad",
      "bar": 52
    },
    {
      "beat": 208,
      "duration": 4,
      "midi": 54,
      "velocity": 58,
      "voice": "pad",
      "bar": 52
    },
    {
      "beat": 208,
      "duration": 4,
      "midi": 57,
      "velocity": 58,
      "voice": "pad",
      "bar": 52
    },
    {
      "beat": 208,
      "duration": 4,
      "midi": 62,
      "velocity": 58,
      "voice": "pad",
      "bar": 52
    },
    {
      "beat": 208,
      "duration": 0.18,
      "midi": 64,
      "velocity": 96,
      "voice": "perc",
      "bar": 52
    },
    {
      "beat": 208.25,
      "duration": 0.22,
      "midi": 54,
      "velocity": 70,
      "voice": "arp",
      "bar": 52
    },
    {
      "beat": 208.25,
      "duration": 0.05,
      "midi": 42,
      "velocity": 34,
      "voice": "hat",
      "bar": 52
    },
    {
      "beat": 208.5,
      "duration": 0.24,
      "midi": 62,
      "velocity": 80,
      "voice": "acid",
      "bar": 52,
      "slide": true
    },
    {
      "beat": 208.5,
      "duration": 0.22,
      "midi": 57,
      "velocity": 70,
      "voice": "arp",
      "bar": 52
    },
    {
      "beat": 208.5,
      "duration": 0.45,
      "midi": 38,
      "velocity": 100,
      "voice": "bass",
      "bar": 52
    },
    {
      "beat": 208.5,
      "duration": 0.14,
      "midi": 46,
      "velocity": 74,
      "voice": "hat",
      "bar": 52
    },
    {
      "beat": 208.5,
      "duration": 0.1,
      "midi": 62,
      "velocity": 72,
      "voice": "perc",
      "bar": 52
    },
    {
      "beat": 208.5,
      "duration": 0.22,
      "midi": 62,
      "velocity": 92,
      "voice": "stab",
      "bar": 52
    },
    {
      "beat": 208.5,
      "duration": 0.22,
      "midi": 66,
      "velocity": 92,
      "voice": "stab",
      "bar": 52
    },
    {
      "beat": 208.5,
      "duration": 0.22,
      "midi": 69,
      "velocity": 92,
      "voice": "stab",
      "bar": 52
    },
    {
      "beat": 208.75,
      "duration": 0.24,
      "midi": 50,
      "velocity": 80,
      "voice": "acid",
      "bar": 52,
      "slide": false
    },
    {
      "beat": 208.75,
      "duration": 0.22,
      "midi": 62,
      "velocity": 70,
      "voice": "arp",
      "bar": 52
    },
    {
      "beat": 208.75,
      "duration": 0.05,
      "midi": 42,
      "velocity": 34,
      "voice": "hat",
      "bar": 52
    },
    {
      "beat": 209.0,
      "duration": 0.24,
      "midi": 51,
      "velocity": 120,
      "voice": "acid",
      "bar": 52,
      "slide": false
    },
    {
      "beat": 209.0,
      "duration": 0.22,
      "midi": 57,
      "velocity": 84,
      "voice": "arp",
      "bar": 52
    },
    {
      "beat": 209.0,
      "duration": 0.45,
      "midi": 50,
      "velocity": 100,
      "voice": "bass",
      "bar": 52
    },
    {
      "beat": 209,
      "duration": 0.2,
      "midi": 39,
      "velocity": 104,
      "voice": "clap",
      "bar": 52
    },
    {
      "beat": 209,
      "duration": 0.07,
      "midi": 42,
      "velocity": 44,
      "voice": "hat",
      "bar": 52
    },
    {
      "beat": 209,
      "duration": 0.16,
      "midi": 36,
      "velocity": 116,
      "voice": "kick",
      "bar": 52
    },
    {
      "beat": 209,
      "duration": 0.5,
      "midi": 87,
      "velocity": 112,
      "voice": "lead",
      "bar": 52
    },
    {
      "beat": 209.25,
      "duration": 0.22,
      "midi": 54,
      "velocity": 70,
      "voice": "arp",
      "bar": 52
    },
    {
      "beat": 209.25,
      "duration": 0.05,
      "midi": 42,
      "velocity": 34,
      "voice": "hat",
      "bar": 52
    },
    {
      "beat": 209.5,
      "duration": 0.24,
      "midi": 50,
      "velocity": 80,
      "voice": "acid",
      "bar": 52,
      "slide": false
    },
    {
      "beat": 209.5,
      "duration": 0.22,
      "midi": 50,
      "velocity": 70,
      "voice": "arp",
      "bar": 52
    },
    {
      "beat": 209.5,
      "duration": 0.45,
      "midi": 38,
      "velocity": 100,
      "voice": "bass",
      "bar": 52
    },
    {
      "beat": 209.5,
      "duration": 0.14,
      "midi": 46,
      "velocity": 74,
      "voice": "hat",
      "bar": 52
    },
    {
      "beat": 209.5,
      "duration": 0.5,
      "midi": 86,
      "velocity": 112,
      "voice": "lead",
      "bar": 52
    },
    {
      "beat": 209.5,
      "duration": 0.1,
      "midi": 62,
      "velocity": 72,
      "voice": "perc",
      "bar": 52
    },
    {
      "beat": 209.5,
      "duration": 0.22,
      "midi": 62,
      "velocity": 92,
      "voice": "stab",
      "bar": 52
    },
    {
      "beat": 209.5,
      "duration": 0.22,
      "midi": 66,
      "velocity": 92,
      "voice": "stab",
      "bar": 52
    },
    {
      "beat": 209.5,
      "duration": 0.22,
      "midi": 69,
      "velocity": 92,
      "voice": "stab",
      "bar": 52
    },
    {
      "beat": 209.75,
      "duration": 0.24,
      "midi": 62,
      "velocity": 80,
      "voice": "acid",
      "bar": 52,
      "slide": true
    },
    {
      "beat": 209.75,
      "duration": 0.22,
      "midi": 54,
      "velocity": 70,
      "voice": "arp",
      "bar": 52
    },
    {
      "beat": 209.75,
      "duration": 0.05,
      "midi": 42,
      "velocity": 34,
      "voice": "hat",
      "bar": 52
    },
    {
      "beat": 210.0,
      "duration": 0.24,
      "midi": 50,
      "velocity": 120,
      "voice": "acid",
      "bar": 52,
      "slide": false
    },
    {
      "beat": 210.0,
      "duration": 0.22,
      "midi": 57,
      "velocity": 84,
      "voice": "arp",
      "bar": 52
    },
    {
      "beat": 210.0,
      "duration": 0.45,
      "midi": 38,
      "velocity": 100,
      "voice": "bass",
      "bar": 52
    },
    {
      "beat": 210,
      "duration": 0.07,
      "midi": 42,
      "velocity": 44,
      "voice": "hat",
      "bar": 52
    },
    {
      "beat": 210,
      "duration": 0.16,
      "midi": 36,
      "velocity": 116,
      "voice": "kick",
      "bar": 52
    },
    {
      "beat": 210,
      "duration": 1,
      "midi": 81,
      "velocity": 112,
      "voice": "lead",
      "bar": 52
    },
    {
      "beat": 210,
      "duration": 0.18,
      "midi": 64,
      "velocity": 96,
      "voice": "perc",
      "bar": 52
    },
    {
      "beat": 210.25,
      "duration": 0.22,
      "midi": 62,
      "velocity": 70,
      "voice": "arp",
      "bar": 52
    },
    {
      "beat": 210.25,
      "duration": 0.05,
      "midi": 42,
      "velocity": 34,
      "voice": "hat",
      "bar": 52
    },
    {
      "beat": 210.5,
      "duration": 0.24,
      "midi": 63,
      "velocity": 80,
      "voice": "acid",
      "bar": 52,
      "slide": true
    },
    {
      "beat": 210.5,
      "duration": 0.22,
      "midi": 57,
      "velocity": 70,
      "voice": "arp",
      "bar": 52
    },
    {
      "beat": 210.5,
      "duration": 0.45,
      "midi": 38,
      "velocity": 100,
      "voice": "bass",
      "bar": 52
    },
    {
      "beat": 210.5,
      "duration": 0.14,
      "midi": 46,
      "velocity": 74,
      "voice": "hat",
      "bar": 52
    },
    {
      "beat": 210.5,
      "duration": 0.22,
      "midi": 62,
      "velocity": 92,
      "voice": "stab",
      "bar": 52
    },
    {
      "beat": 210.5,
      "duration": 0.22,
      "midi": 66,
      "velocity": 92,
      "voice": "stab",
      "bar": 52
    },
    {
      "beat": 210.5,
      "duration": 0.22,
      "midi": 69,
      "velocity": 92,
      "voice": "stab",
      "bar": 52
    },
    {
      "beat": 210.75,
      "duration": 0.24,
      "midi": 50,
      "velocity": 80,
      "voice": "acid",
      "bar": 52,
      "slide": false
    },
    {
      "beat": 210.75,
      "duration": 0.22,
      "midi": 54,
      "velocity": 70,
      "voice": "arp",
      "bar": 52
    },
    {
      "beat": 210.75,
      "duration": 0.05,
      "midi": 42,
      "velocity": 34,
      "voice": "hat",
      "bar": 52
    },
    {
      "beat": 211.0,
      "duration": 0.22,
      "midi": 50,
      "velocity": 84,
      "voice": "arp",
      "bar": 52
    },
    {
      "beat": 211.0,
      "duration": 0.45,
      "midi": 50,
      "velocity": 100,
      "voice": "bass",
      "bar": 52
    },
    {
      "beat": 211,
      "duration": 0.2,
      "midi": 39,
      "velocity": 104,
      "voice": "clap",
      "bar": 52
    },
    {
      "beat": 211,
      "duration": 0.07,
      "midi": 42,
      "velocity": 44,
      "voice": "hat",
      "bar": 52
    },
    {
      "beat": 211,
      "duration": 0.16,
      "midi": 36,
      "velocity": 116,
      "voice": "kick",
      "bar": 52
    },
    {
      "beat": 211,
      "duration": 1,
      "midi": 78,
      "velocity": 112,
      "voice": "lead",
      "bar": 52
    },
    {
      "beat": 211,
      "duration": 0.1,
      "midi": 62,
      "velocity": 72,
      "voice": "perc",
      "bar": 52
    },
    {
      "beat": 211.25,
      "duration": 0.24,
      "midi": 50,
      "velocity": 120,
      "voice": "acid",
      "bar": 52,
      "slide": false
    },
    {
      "beat": 211.25,
      "duration": 0.22,
      "midi": 54,
      "velocity": 70,
      "voice": "arp",
      "bar": 52
    },
    {
      "beat": 211.25,
      "duration": 0.05,
      "midi": 42,
      "velocity": 34,
      "voice": "hat",
      "bar": 52
    },
    {
      "beat": 211.5,
      "duration": 0.24,
      "midi": 62,
      "velocity": 80,
      "voice": "acid",
      "bar": 52,
      "slide": true
    },
    {
      "beat": 211.5,
      "duration": 0.22,
      "midi": 57,
      "velocity": 70,
      "voice": "arp",
      "bar": 52
    },
    {
      "beat": 211.5,
      "duration": 0.45,
      "midi": 38,
      "velocity": 100,
      "voice": "bass",
      "bar": 52
    },
    {
      "beat": 211.5,
      "duration": 0.14,
      "midi": 46,
      "velocity": 74,
      "voice": "hat",
      "bar": 52
    },
    {
      "beat": 211.5,
      "duration": 0.1,
      "midi": 62,
      "velocity": 72,
      "voice": "perc",
      "bar": 52
    },
    {
      "beat": 211.5,
      "duration": 0.22,
      "midi": 62,
      "velocity": 92,
      "voice": "stab",
      "bar": 52
    },
    {
      "beat": 211.5,
      "duration": 0.22,
      "midi": 66,
      "velocity": 92,
      "voice": "stab",
      "bar": 52
    },
    {
      "beat": 211.5,
      "duration": 0.22,
      "midi": 69,
      "velocity": 92,
      "voice": "stab",
      "bar": 52
    },
    {
      "beat": 211.75,
      "duration": 0.24,
      "midi": 51,
      "velocity": 80,
      "voice": "acid",
      "bar": 52,
      "slide": false
    },
    {
      "beat": 211.75,
      "duration": 0.22,
      "midi": 62,
      "velocity": 70,
      "voice": "arp",
      "bar": 52
    },
    {
      "beat": 211.75,
      "duration": 0.05,
      "midi": 42,
      "velocity": 34,
      "voice": "hat",
      "bar": 52
    },
    {
      "beat": 212.0,
      "duration": 0.24,
      "midi": 51,
      "velocity": 120,
      "voice": "acid",
      "bar": 53,
      "slide": false
    },
    {
      "beat": 212.0,
      "duration": 0.22,
      "midi": 51,
      "velocity": 84,
      "voice": "arp",
      "bar": 53
    },
    {
      "beat": 212.0,
      "duration": 0.45,
      "midi": 39,
      "velocity": 108,
      "voice": "bass",
      "bar": 53
    },
    {
      "beat": 212,
      "duration": 0.07,
      "midi": 42,
      "velocity": 44,
      "voice": "hat",
      "bar": 53
    },
    {
      "beat": 212,
      "duration": 0.16,
      "midi": 36,
      "velocity": 124,
      "voice": "kick",
      "bar": 53
    },
    {
      "beat": 212,
      "duration": 1.5,
      "midi": 79,
      "velocity": 112,
      "voice": "lead",
      "bar": 53
    },
    {
      "beat": 212,
      "duration": 4,
      "midi": 51,
      "velocity": 58,
      "voice": "pad",
      "bar": 53
    },
    {
      "beat": 212,
      "duration": 4,
      "midi": 55,
      "velocity": 58,
      "voice": "pad",
      "bar": 53
    },
    {
      "beat": 212,
      "duration": 4,
      "midi": 58,
      "velocity": 58,
      "voice": "pad",
      "bar": 53
    },
    {
      "beat": 212,
      "duration": 4,
      "midi": 63,
      "velocity": 58,
      "voice": "pad",
      "bar": 53
    },
    {
      "beat": 212,
      "duration": 0.18,
      "midi": 64,
      "velocity": 96,
      "voice": "perc",
      "bar": 53
    },
    {
      "beat": 212.25,
      "duration": 0.22,
      "midi": 55,
      "velocity": 70,
      "voice": "arp",
      "bar": 53
    },
    {
      "beat": 212.25,
      "duration": 0.05,
      "midi": 42,
      "velocity": 34,
      "voice": "hat",
      "bar": 53
    },
    {
      "beat": 212.5,
      "duration": 0.24,
      "midi": 63,
      "velocity": 80,
      "voice": "acid",
      "bar": 53,
      "slide": true
    },
    {
      "beat": 212.5,
      "duration": 0.22,
      "midi": 58,
      "velocity": 70,
      "voice": "arp",
      "bar": 53
    },
    {
      "beat": 212.5,
      "duration": 0.45,
      "midi": 39,
      "velocity": 100,
      "voice": "bass",
      "bar": 53
    },
    {
      "beat": 212.5,
      "duration": 0.14,
      "midi": 46,
      "velocity": 74,
      "voice": "hat",
      "bar": 53
    },
    {
      "beat": 212.5,
      "duration": 0.1,
      "midi": 62,
      "velocity": 72,
      "voice": "perc",
      "bar": 53
    },
    {
      "beat": 212.5,
      "duration": 0.22,
      "midi": 63,
      "velocity": 92,
      "voice": "stab",
      "bar": 53
    },
    {
      "beat": 212.5,
      "duration": 0.22,
      "midi": 67,
      "velocity": 92,
      "voice": "stab",
      "bar": 53
    },
    {
      "beat": 212.5,
      "duration": 0.22,
      "midi": 70,
      "velocity": 92,
      "voice": "stab",
      "bar": 53
    },
    {
      "beat": 212.75,
      "duration": 0.24,
      "midi": 51,
      "velocity": 80,
      "voice": "acid",
      "bar": 53,
      "slide": false
    },
    {
      "beat": 212.75,
      "duration": 0.22,
      "midi": 63,
      "velocity": 70,
      "voice": "arp",
      "bar": 53
    },
    {
      "beat": 212.75,
      "duration": 0.05,
      "midi": 42,
      "velocity": 34,
      "voice": "hat",
      "bar": 53
    },
    {
      "beat": 213.0,
      "duration": 0.24,
      "midi": 52,
      "velocity": 120,
      "voice": "acid",
      "bar": 53,
      "slide": false
    },
    {
      "beat": 213.0,
      "duration": 0.22,
      "midi": 58,
      "velocity": 84,
      "voice": "arp",
      "bar": 53
    },
    {
      "beat": 213.0,
      "duration": 0.45,
      "midi": 51,
      "velocity": 100,
      "voice": "bass",
      "bar": 53
    },
    {
      "beat": 213,
      "duration": 0.2,
      "midi": 39,
      "velocity": 104,
      "voice": "clap",
      "bar": 53
    },
    {
      "beat": 213,
      "duration": 0.07,
      "midi": 42,
      "velocity": 44,
      "voice": "hat",
      "bar": 53
    },
    {
      "beat": 213,
      "duration": 0.16,
      "midi": 36,
      "velocity": 116,
      "voice": "kick",
      "bar": 53
    },
    {
      "beat": 213.25,
      "duration": 0.22,
      "midi": 55,
      "velocity": 70,
      "voice": "arp",
      "bar": 53
    },
    {
      "beat": 213.25,
      "duration": 0.05,
      "midi": 42,
      "velocity": 34,
      "voice": "hat",
      "bar": 53
    },
    {
      "beat": 213.5,
      "duration": 0.24,
      "midi": 51,
      "velocity": 80,
      "voice": "acid",
      "bar": 53,
      "slide": false
    },
    {
      "beat": 213.5,
      "duration": 0.22,
      "midi": 51,
      "velocity": 70,
      "voice": "arp",
      "bar": 53
    },
    {
      "beat": 213.5,
      "duration": 0.45,
      "midi": 39,
      "velocity": 100,
      "voice": "bass",
      "bar": 53
    },
    {
      "beat": 213.5,
      "duration": 0.14,
      "midi": 46,
      "velocity": 74,
      "voice": "hat",
      "bar": 53
    },
    {
      "beat": 213.5,
      "duration": 0.5,
      "midi": 82,
      "velocity": 112,
      "voice": "lead",
      "bar": 53
    },
    {
      "beat": 213.5,
      "duration": 0.1,
      "midi": 62,
      "velocity": 72,
      "voice": "perc",
      "bar": 53
    },
    {
      "beat": 213.5,
      "duration": 0.22,
      "midi": 63,
      "velocity": 92,
      "voice": "stab",
      "bar": 53
    },
    {
      "beat": 213.5,
      "duration": 0.22,
      "midi": 67,
      "velocity": 92,
      "voice": "stab",
      "bar": 53
    },
    {
      "beat": 213.5,
      "duration": 0.22,
      "midi": 70,
      "velocity": 92,
      "voice": "stab",
      "bar": 53
    },
    {
      "beat": 213.75,
      "duration": 0.24,
      "midi": 63,
      "velocity": 80,
      "voice": "acid",
      "bar": 53,
      "slide": true
    },
    {
      "beat": 213.75,
      "duration": 0.22,
      "midi": 55,
      "velocity": 70,
      "voice": "arp",
      "bar": 53
    },
    {
      "beat": 213.75,
      "duration": 0.05,
      "midi": 42,
      "velocity": 34,
      "voice": "hat",
      "bar": 53
    },
    {
      "beat": 214.0,
      "duration": 0.24,
      "midi": 51,
      "velocity": 120,
      "voice": "acid",
      "bar": 53,
      "slide": false
    },
    {
      "beat": 214.0,
      "duration": 0.22,
      "midi": 58,
      "velocity": 84,
      "voice": "arp",
      "bar": 53
    },
    {
      "beat": 214.0,
      "duration": 0.45,
      "midi": 39,
      "velocity": 100,
      "voice": "bass",
      "bar": 53
    },
    {
      "beat": 214,
      "duration": 0.07,
      "midi": 42,
      "velocity": 44,
      "voice": "hat",
      "bar": 53
    },
    {
      "beat": 214,
      "duration": 0.16,
      "midi": 36,
      "velocity": 116,
      "voice": "kick",
      "bar": 53
    },
    {
      "beat": 214,
      "duration": 1,
      "midi": 81,
      "velocity": 112,
      "voice": "lead",
      "bar": 53
    },
    {
      "beat": 214,
      "duration": 0.18,
      "midi": 64,
      "velocity": 96,
      "voice": "perc",
      "bar": 53
    },
    {
      "beat": 214.25,
      "duration": 0.22,
      "midi": 63,
      "velocity": 70,
      "voice": "arp",
      "bar": 53
    },
    {
      "beat": 214.25,
      "duration": 0.05,
      "midi": 42,
      "velocity": 34,
      "voice": "hat",
      "bar": 53
    },
    {
      "beat": 214.5,
      "duration": 0.24,
      "midi": 64,
      "velocity": 80,
      "voice": "acid",
      "bar": 53,
      "slide": true
    },
    {
      "beat": 214.5,
      "duration": 0.22,
      "midi": 58,
      "velocity": 70,
      "voice": "arp",
      "bar": 53
    },
    {
      "beat": 214.5,
      "duration": 0.45,
      "midi": 39,
      "velocity": 100,
      "voice": "bass",
      "bar": 53
    },
    {
      "beat": 214.5,
      "duration": 0.14,
      "midi": 46,
      "velocity": 74,
      "voice": "hat",
      "bar": 53
    },
    {
      "beat": 214.5,
      "duration": 0.22,
      "midi": 63,
      "velocity": 92,
      "voice": "stab",
      "bar": 53
    },
    {
      "beat": 214.5,
      "duration": 0.22,
      "midi": 67,
      "velocity": 92,
      "voice": "stab",
      "bar": 53
    },
    {
      "beat": 214.5,
      "duration": 0.22,
      "midi": 70,
      "velocity": 92,
      "voice": "stab",
      "bar": 53
    },
    {
      "beat": 214.75,
      "duration": 0.24,
      "midi": 51,
      "velocity": 80,
      "voice": "acid",
      "bar": 53,
      "slide": false
    },
    {
      "beat": 214.75,
      "duration": 0.22,
      "midi": 55,
      "velocity": 70,
      "voice": "arp",
      "bar": 53
    },
    {
      "beat": 214.75,
      "duration": 0.05,
      "midi": 42,
      "velocity": 34,
      "voice": "hat",
      "bar": 53
    },
    {
      "beat": 215.0,
      "duration": 0.22,
      "midi": 51,
      "velocity": 84,
      "voice": "arp",
      "bar": 53
    },
    {
      "beat": 215.0,
      "duration": 0.45,
      "midi": 51,
      "velocity": 100,
      "voice": "bass",
      "bar": 53
    },
    {
      "beat": 215,
      "duration": 0.2,
      "midi": 39,
      "velocity": 104,
      "voice": "clap",
      "bar": 53
    },
    {
      "beat": 215,
      "duration": 0.07,
      "midi": 42,
      "velocity": 44,
      "voice": "hat",
      "bar": 53
    },
    {
      "beat": 215,
      "duration": 0.16,
      "midi": 36,
      "velocity": 116,
      "voice": "kick",
      "bar": 53
    },
    {
      "beat": 215,
      "duration": 1,
      "midi": 79,
      "velocity": 112,
      "voice": "lead",
      "bar": 53
    },
    {
      "beat": 215,
      "duration": 0.1,
      "midi": 62,
      "velocity": 72,
      "voice": "perc",
      "bar": 53
    },
    {
      "beat": 215.25,
      "duration": 0.24,
      "midi": 51,
      "velocity": 120,
      "voice": "acid",
      "bar": 53,
      "slide": false
    },
    {
      "beat": 215.25,
      "duration": 0.22,
      "midi": 55,
      "velocity": 70,
      "voice": "arp",
      "bar": 53
    },
    {
      "beat": 215.25,
      "duration": 0.05,
      "midi": 42,
      "velocity": 34,
      "voice": "hat",
      "bar": 53
    },
    {
      "beat": 215.5,
      "duration": 0.24,
      "midi": 63,
      "velocity": 80,
      "voice": "acid",
      "bar": 53,
      "slide": true
    },
    {
      "beat": 215.5,
      "duration": 0.22,
      "midi": 58,
      "velocity": 70,
      "voice": "arp",
      "bar": 53
    },
    {
      "beat": 215.5,
      "duration": 0.45,
      "midi": 39,
      "velocity": 100,
      "voice": "bass",
      "bar": 53
    },
    {
      "beat": 215.5,
      "duration": 0.14,
      "midi": 46,
      "velocity": 74,
      "voice": "hat",
      "bar": 53
    },
    {
      "beat": 215.5,
      "duration": 0.1,
      "midi": 62,
      "velocity": 72,
      "voice": "perc",
      "bar": 53
    },
    {
      "beat": 215.5,
      "duration": 0.22,
      "midi": 63,
      "velocity": 92,
      "voice": "stab",
      "bar": 53
    },
    {
      "beat": 215.5,
      "duration": 0.22,
      "midi": 67,
      "velocity": 92,
      "voice": "stab",
      "bar": 53
    },
    {
      "beat": 215.5,
      "duration": 0.22,
      "midi": 70,
      "velocity": 92,
      "voice": "stab",
      "bar": 53
    },
    {
      "beat": 215.75,
      "duration": 0.24,
      "midi": 52,
      "velocity": 80,
      "voice": "acid",
      "bar": 53,
      "slide": false
    },
    {
      "beat": 215.75,
      "duration": 0.22,
      "midi": 63,
      "velocity": 70,
      "voice": "arp",
      "bar": 53
    },
    {
      "beat": 215.75,
      "duration": 0.05,
      "midi": 42,
      "velocity": 34,
      "voice": "hat",
      "bar": 53
    },
    {
      "beat": 216.0,
      "duration": 0.24,
      "midi": 55,
      "velocity": 120,
      "voice": "acid",
      "bar": 54,
      "slide": false
    },
    {
      "beat": 216.0,
      "duration": 0.22,
      "midi": 55,
      "velocity": 84,
      "voice": "arp",
      "bar": 54
    },
    {
      "beat": 216.0,
      "duration": 0.45,
      "midi": 43,
      "velocity": 108,
      "voice": "bass",
      "bar": 54
    },
    {
      "beat": 216,
      "duration": 0.07,
      "midi": 42,
      "velocity": 44,
      "voice": "hat",
      "bar": 54
    },
    {
      "beat": 216,
      "duration": 0.16,
      "midi": 36,
      "velocity": 124,
      "voice": "kick",
      "bar": 54
    },
    {
      "beat": 216,
      "duration": 1,
      "midi": 82,
      "velocity": 112,
      "voice": "lead",
      "bar": 54
    },
    {
      "beat": 216,
      "duration": 4,
      "midi": 55,
      "velocity": 58,
      "voice": "pad",
      "bar": 54
    },
    {
      "beat": 216,
      "duration": 4,
      "midi": 58,
      "velocity": 58,
      "voice": "pad",
      "bar": 54
    },
    {
      "beat": 216,
      "duration": 4,
      "midi": 62,
      "velocity": 58,
      "voice": "pad",
      "bar": 54
    },
    {
      "beat": 216,
      "duration": 4,
      "midi": 67,
      "velocity": 58,
      "voice": "pad",
      "bar": 54
    },
    {
      "beat": 216,
      "duration": 0.18,
      "midi": 64,
      "velocity": 96,
      "voice": "perc",
      "bar": 54
    },
    {
      "beat": 216.25,
      "duration": 0.22,
      "midi": 58,
      "velocity": 70,
      "voice": "arp",
      "bar": 54
    },
    {
      "beat": 216.25,
      "duration": 0.05,
      "midi": 42,
      "velocity": 34,
      "voice": "hat",
      "bar": 54
    },
    {
      "beat": 216.5,
      "duration": 0.24,
      "midi": 67,
      "velocity": 80,
      "voice": "acid",
      "bar": 54,
      "slide": true
    },
    {
      "beat": 216.5,
      "duration": 0.22,
      "midi": 62,
      "velocity": 70,
      "voice": "arp",
      "bar": 54
    },
    {
      "beat": 216.5,
      "duration": 0.45,
      "midi": 43,
      "velocity": 100,
      "voice": "bass",
      "bar": 54
    },
    {
      "beat": 216.5,
      "duration": 0.14,
      "midi": 46,
      "velocity": 74,
      "voice": "hat",
      "bar": 54
    },
    {
      "beat": 216.5,
      "duration": 0.1,
      "midi": 62,
      "velocity": 72,
      "voice": "perc",
      "bar": 54
    },
    {
      "beat": 216.5,
      "duration": 0.22,
      "midi": 67,
      "velocity": 92,
      "voice": "stab",
      "bar": 54
    },
    {
      "beat": 216.5,
      "duration": 0.22,
      "midi": 70,
      "velocity": 92,
      "voice": "stab",
      "bar": 54
    },
    {
      "beat": 216.5,
      "duration": 0.22,
      "midi": 74,
      "velocity": 92,
      "voice": "stab",
      "bar": 54
    },
    {
      "beat": 216.75,
      "duration": 0.24,
      "midi": 55,
      "velocity": 80,
      "voice": "acid",
      "bar": 54,
      "slide": false
    },
    {
      "beat": 216.75,
      "duration": 0.22,
      "midi": 67,
      "velocity": 70,
      "voice": "arp",
      "bar": 54
    },
    {
      "beat": 216.75,
      "duration": 0.05,
      "midi": 42,
      "velocity": 34,
      "voice": "hat",
      "bar": 54
    },
    {
      "beat": 217.0,
      "duration": 0.24,
      "midi": 56,
      "velocity": 120,
      "voice": "acid",
      "bar": 54,
      "slide": false
    },
    {
      "beat": 217.0,
      "duration": 0.22,
      "midi": 62,
      "velocity": 84,
      "voice": "arp",
      "bar": 54
    },
    {
      "beat": 217.0,
      "duration": 0.45,
      "midi": 55,
      "velocity": 100,
      "voice": "bass",
      "bar": 54
    },
    {
      "beat": 217,
      "duration": 0.2,
      "midi": 39,
      "velocity": 104,
      "voice": "clap",
      "bar": 54
    },
    {
      "beat": 217,
      "duration": 0.07,
      "midi": 42,
      "velocity": 44,
      "voice": "hat",
      "bar": 54
    },
    {
      "beat": 217,
      "duration": 0.16,
      "midi": 36,
      "velocity": 116,
      "voice": "kick",
      "bar": 54
    },
    {
      "beat": 217,
      "duration": 0.5,
      "midi": 81,
      "velocity": 112,
      "voice": "lead",
      "bar": 54
    },
    {
      "beat": 217.25,
      "duration": 0.22,
      "midi": 58,
      "velocity": 70,
      "voice": "arp",
      "bar": 54
    },
    {
      "beat": 217.25,
      "duration": 0.05,
      "midi": 42,
      "velocity": 34,
      "voice": "hat",
      "bar": 54
    },
    {
      "beat": 217.5,
      "duration": 0.24,
      "midi": 55,
      "velocity": 80,
      "voice": "acid",
      "bar": 54,
      "slide": false
    },
    {
      "beat": 217.5,
      "duration": 0.22,
      "midi": 55,
      "velocity": 70,
      "voice": "arp",
      "bar": 54
    },
    {
      "beat": 217.5,
      "duration": 0.45,
      "midi": 43,
      "velocity": 100,
      "voice": "bass",
      "bar": 54
    },
    {
      "beat": 217.5,
      "duration": 0.14,
      "midi": 46,
      "velocity": 74,
      "voice": "hat",
      "bar": 54
    },
    {
      "beat": 217.5,
      "duration": 0.5,
      "midi": 79,
      "velocity": 112,
      "voice": "lead",
      "bar": 54
    },
    {
      "beat": 217.5,
      "duration": 0.1,
      "midi": 62,
      "velocity": 72,
      "voice": "perc",
      "bar": 54
    },
    {
      "beat": 217.5,
      "duration": 0.22,
      "midi": 67,
      "velocity": 92,
      "voice": "stab",
      "bar": 54
    },
    {
      "beat": 217.5,
      "duration": 0.22,
      "midi": 70,
      "velocity": 92,
      "voice": "stab",
      "bar": 54
    },
    {
      "beat": 217.5,
      "duration": 0.22,
      "midi": 74,
      "velocity": 92,
      "voice": "stab",
      "bar": 54
    },
    {
      "beat": 217.75,
      "duration": 0.24,
      "midi": 67,
      "velocity": 80,
      "voice": "acid",
      "bar": 54,
      "slide": true
    },
    {
      "beat": 217.75,
      "duration": 0.22,
      "midi": 58,
      "velocity": 70,
      "voice": "arp",
      "bar": 54
    },
    {
      "beat": 217.75,
      "duration": 0.05,
      "midi": 42,
      "velocity": 34,
      "voice": "hat",
      "bar": 54
    },
    {
      "beat": 218.0,
      "duration": 0.24,
      "midi": 55,
      "velocity": 120,
      "voice": "acid",
      "bar": 54,
      "slide": false
    },
    {
      "beat": 218.0,
      "duration": 0.22,
      "midi": 62,
      "velocity": 84,
      "voice": "arp",
      "bar": 54
    },
    {
      "beat": 218.0,
      "duration": 0.45,
      "midi": 43,
      "velocity": 100,
      "voice": "bass",
      "bar": 54
    },
    {
      "beat": 218,
      "duration": 0.07,
      "midi": 42,
      "velocity": 44,
      "voice": "hat",
      "bar": 54
    },
    {
      "beat": 218,
      "duration": 0.16,
      "midi": 36,
      "velocity": 116,
      "voice": "kick",
      "bar": 54
    },
    {
      "beat": 218,
      "duration": 1,
      "midi": 86,
      "velocity": 112,
      "voice": "lead",
      "bar": 54
    },
    {
      "beat": 218,
      "duration": 0.18,
      "midi": 64,
      "velocity": 96,
      "voice": "perc",
      "bar": 54
    },
    {
      "beat": 218.25,
      "duration": 0.22,
      "midi": 67,
      "velocity": 70,
      "voice": "arp",
      "bar": 54
    },
    {
      "beat": 218.25,
      "duration": 0.05,
      "midi": 42,
      "velocity": 34,
      "voice": "hat",
      "bar": 54
    },
    {
      "beat": 218.5,
      "duration": 0.24,
      "midi": 68,
      "velocity": 80,
      "voice": "acid",
      "bar": 54,
      "slide": true
    },
    {
      "beat": 218.5,
      "duration": 0.22,
      "midi": 62,
      "velocity": 70,
      "voice": "arp",
      "bar": 54
    },
    {
      "beat": 218.5,
      "duration": 0.45,
      "midi": 43,
      "velocity": 100,
      "voice": "bass",
      "bar": 54
    },
    {
      "beat": 218.5,
      "duration": 0.14,
      "midi": 46,
      "velocity": 74,
      "voice": "hat",
      "bar": 54
    },
    {
      "beat": 218.5,
      "duration": 0.22,
      "midi": 67,
      "velocity": 92,
      "voice": "stab",
      "bar": 54
    },
    {
      "beat": 218.5,
      "duration": 0.22,
      "midi": 70,
      "velocity": 92,
      "voice": "stab",
      "bar": 54
    },
    {
      "beat": 218.5,
      "duration": 0.22,
      "midi": 74,
      "velocity": 92,
      "voice": "stab",
      "bar": 54
    },
    {
      "beat": 218.75,
      "duration": 0.24,
      "midi": 55,
      "velocity": 80,
      "voice": "acid",
      "bar": 54,
      "slide": false
    },
    {
      "beat": 218.75,
      "duration": 0.22,
      "midi": 58,
      "velocity": 70,
      "voice": "arp",
      "bar": 54
    },
    {
      "beat": 218.75,
      "duration": 0.05,
      "midi": 42,
      "velocity": 34,
      "voice": "hat",
      "bar": 54
    },
    {
      "beat": 219.0,
      "duration": 0.22,
      "midi": 55,
      "velocity": 84,
      "voice": "arp",
      "bar": 54
    },
    {
      "beat": 219.0,
      "duration": 0.45,
      "midi": 55,
      "velocity": 100,
      "voice": "bass",
      "bar": 54
    },
    {
      "beat": 219,
      "duration": 0.2,
      "midi": 39,
      "velocity": 104,
      "voice": "clap",
      "bar": 54
    },
    {
      "beat": 219,
      "duration": 0.07,
      "midi": 42,
      "velocity": 44,
      "voice": "hat",
      "bar": 54
    },
    {
      "beat": 219,
      "duration": 0.16,
      "midi": 36,
      "velocity": 116,
      "voice": "kick",
      "bar": 54
    },
    {
      "beat": 219,
      "duration": 1,
      "midi": 82,
      "velocity": 112,
      "voice": "lead",
      "bar": 54
    },
    {
      "beat": 219,
      "duration": 0.1,
      "midi": 62,
      "velocity": 72,
      "voice": "perc",
      "bar": 54
    },
    {
      "beat": 219.25,
      "duration": 0.24,
      "midi": 55,
      "velocity": 120,
      "voice": "acid",
      "bar": 54,
      "slide": false
    },
    {
      "beat": 219.25,
      "duration": 0.22,
      "midi": 58,
      "velocity": 70,
      "voice": "arp",
      "bar": 54
    },
    {
      "beat": 219.25,
      "duration": 0.05,
      "midi": 42,
      "velocity": 34,
      "voice": "hat",
      "bar": 54
    },
    {
      "beat": 219.5,
      "duration": 0.24,
      "midi": 67,
      "velocity": 80,
      "voice": "acid",
      "bar": 54,
      "slide": true
    },
    {
      "beat": 219.5,
      "duration": 0.22,
      "midi": 62,
      "velocity": 70,
      "voice": "arp",
      "bar": 54
    },
    {
      "beat": 219.5,
      "duration": 0.45,
      "midi": 43,
      "velocity": 100,
      "voice": "bass",
      "bar": 54
    },
    {
      "beat": 219.5,
      "duration": 0.14,
      "midi": 46,
      "velocity": 74,
      "voice": "hat",
      "bar": 54
    },
    {
      "beat": 219.5,
      "duration": 0.1,
      "midi": 62,
      "velocity": 72,
      "voice": "perc",
      "bar": 54
    },
    {
      "beat": 219.5,
      "duration": 0.22,
      "midi": 67,
      "velocity": 92,
      "voice": "stab",
      "bar": 54
    },
    {
      "beat": 219.5,
      "duration": 0.22,
      "midi": 70,
      "velocity": 92,
      "voice": "stab",
      "bar": 54
    },
    {
      "beat": 219.5,
      "duration": 0.22,
      "midi": 74,
      "velocity": 92,
      "voice": "stab",
      "bar": 54
    },
    {
      "beat": 219.75,
      "duration": 0.24,
      "midi": 56,
      "velocity": 80,
      "voice": "acid",
      "bar": 54,
      "slide": false
    },
    {
      "beat": 219.75,
      "duration": 0.22,
      "midi": 67,
      "velocity": 70,
      "voice": "arp",
      "bar": 54
    },
    {
      "beat": 219.75,
      "duration": 0.05,
      "midi": 42,
      "velocity": 34,
      "voice": "hat",
      "bar": 54
    },
    {
      "beat": 220.0,
      "duration": 0.24,
      "midi": 57,
      "velocity": 120,
      "voice": "acid",
      "bar": 55,
      "slide": false
    },
    {
      "beat": 220.0,
      "duration": 0.22,
      "midi": 57,
      "velocity": 84,
      "voice": "arp",
      "bar": 55
    },
    {
      "beat": 220.0,
      "duration": 0.45,
      "midi": 45,
      "velocity": 108,
      "voice": "bass",
      "bar": 55
    },
    {
      "beat": 220,
      "duration": 0.07,
      "midi": 42,
      "velocity": 44,
      "voice": "hat",
      "bar": 55
    },
    {
      "beat": 220,
      "duration": 0.16,
      "midi": 36,
      "velocity": 124,
      "voice": "kick",
      "bar": 55
    },
    {
      "beat": 220,
      "duration": 1,
      "midi": 85,
      "velocity": 112,
      "voice": "lead",
      "bar": 55
    },
    {
      "beat": 220,
      "duration": 4,
      "midi": 57,
      "velocity": 58,
      "voice": "pad",
      "bar": 55
    },
    {
      "beat": 220,
      "duration": 4,
      "midi": 61,
      "velocity": 58,
      "voice": "pad",
      "bar": 55
    },
    {
      "beat": 220,
      "duration": 4,
      "midi": 64,
      "velocity": 58,
      "voice": "pad",
      "bar": 55
    },
    {
      "beat": 220,
      "duration": 4,
      "midi": 69,
      "velocity": 58,
      "voice": "pad",
      "bar": 55
    },
    {
      "beat": 220,
      "duration": 0.18,
      "midi": 64,
      "velocity": 96,
      "voice": "perc",
      "bar": 55
    },
    {
      "beat": 220.25,
      "duration": 0.22,
      "midi": 61,
      "velocity": 70,
      "voice": "arp",
      "bar": 55
    },
    {
      "beat": 220.25,
      "duration": 0.05,
      "midi": 42,
      "velocity": 34,
      "voice": "hat",
      "bar": 55
    },
    {
      "beat": 220.5,
      "duration": 0.24,
      "midi": 69,
      "velocity": 80,
      "voice": "acid",
      "bar": 55,
      "slide": true
    },
    {
      "beat": 220.5,
      "duration": 0.22,
      "midi": 64,
      "velocity": 70,
      "voice": "arp",
      "bar": 55
    },
    {
      "beat": 220.5,
      "duration": 0.45,
      "midi": 45,
      "velocity": 100,
      "voice": "bass",
      "bar": 55
    },
    {
      "beat": 220.5,
      "duration": 0.14,
      "midi": 46,
      "velocity": 74,
      "voice": "hat",
      "bar": 55
    },
    {
      "beat": 220.5,
      "duration": 0.1,
      "midi": 62,
      "velocity": 72,
      "voice": "perc",
      "bar": 55
    },
    {
      "beat": 220.5,
      "duration": 0.22,
      "midi": 69,
      "velocity": 92,
      "voice": "stab",
      "bar": 55
    },
    {
      "beat": 220.5,
      "duration": 0.22,
      "midi": 73,
      "velocity": 92,
      "voice": "stab",
      "bar": 55
    },
    {
      "beat": 220.5,
      "duration": 0.22,
      "midi": 76,
      "velocity": 92,
      "voice": "stab",
      "bar": 55
    },
    {
      "beat": 220.75,
      "duration": 0.24,
      "midi": 57,
      "velocity": 80,
      "voice": "acid",
      "bar": 55,
      "slide": false
    },
    {
      "beat": 220.75,
      "duration": 0.22,
      "midi": 69,
      "velocity": 70,
      "voice": "arp",
      "bar": 55
    },
    {
      "beat": 220.75,
      "duration": 0.05,
      "midi": 42,
      "velocity": 34,
      "voice": "hat",
      "bar": 55
    },
    {
      "beat": 221.0,
      "duration": 0.24,
      "midi": 58,
      "velocity": 120,
      "voice": "acid",
      "bar": 55,
      "slide": false
    },
    {
      "beat": 221.0,
      "duration": 0.22,
      "midi": 64,
      "velocity": 84,
      "voice": "arp",
      "bar": 55
    },
    {
      "beat": 221.0,
      "duration": 0.45,
      "midi": 57,
      "velocity": 100,
      "voice": "bass",
      "bar": 55
    },
    {
      "beat": 221,
      "duration": 0.2,
      "midi": 39,
      "velocity": 104,
      "voice": "clap",
      "bar": 55
    },
    {
      "beat": 221,
      "duration": 0.07,
      "midi": 42,
      "velocity": 44,
      "voice": "hat",
      "bar": 55
    },
    {
      "beat": 221,
      "duration": 0.16,
      "midi": 36,
      "velocity": 116,
      "voice": "kick",
      "bar": 55
    },
    {
      "beat": 221,
      "duration": 0.5,
      "midi": 86,
      "velocity": 112,
      "voice": "lead",
      "bar": 55
    },
    {
      "beat": 221.25,
      "duration": 0.22,
      "midi": 61,
      "velocity": 70,
      "voice": "arp",
      "bar": 55
    },
    {
      "beat": 221.25,
      "duration": 0.05,
      "midi": 42,
      "velocity": 34,
      "voice": "hat",
      "bar": 55
    },
    {
      "beat": 221.5,
      "duration": 0.24,
      "midi": 57,
      "velocity": 80,
      "voice": "acid",
      "bar": 55,
      "slide": false
    },
    {
      "beat": 221.5,
      "duration": 0.22,
      "midi": 57,
      "velocity": 70,
      "voice": "arp",
      "bar": 55
    },
    {
      "beat": 221.5,
      "duration": 0.45,
      "midi": 45,
      "velocity": 100,
      "voice": "bass",
      "bar": 55
    },
    {
      "beat": 221.5,
      "duration": 0.14,
      "midi": 46,
      "velocity": 74,
      "voice": "hat",
      "bar": 55
    },
    {
      "beat": 221.5,
      "duration": 0.5,
      "midi": 85,
      "velocity": 112,
      "voice": "lead",
      "bar": 55
    },
    {
      "beat": 221.5,
      "duration": 0.1,
      "midi": 62,
      "velocity": 72,
      "voice": "perc",
      "bar": 55
    },
    {
      "beat": 221.5,
      "duration": 0.22,
      "midi": 69,
      "velocity": 92,
      "voice": "stab",
      "bar": 55
    },
    {
      "beat": 221.5,
      "duration": 0.22,
      "midi": 73,
      "velocity": 92,
      "voice": "stab",
      "bar": 55
    },
    {
      "beat": 221.5,
      "duration": 0.22,
      "midi": 76,
      "velocity": 92,
      "voice": "stab",
      "bar": 55
    },
    {
      "beat": 221.75,
      "duration": 0.24,
      "midi": 69,
      "velocity": 80,
      "voice": "acid",
      "bar": 55,
      "slide": true
    },
    {
      "beat": 221.75,
      "duration": 0.22,
      "midi": 61,
      "velocity": 70,
      "voice": "arp",
      "bar": 55
    },
    {
      "beat": 221.75,
      "duration": 0.05,
      "midi": 42,
      "velocity": 34,
      "voice": "hat",
      "bar": 55
    },
    {
      "beat": 222.0,
      "duration": 0.24,
      "midi": 57,
      "velocity": 120,
      "voice": "acid",
      "bar": 55,
      "slide": false
    },
    {
      "beat": 222.0,
      "duration": 0.22,
      "midi": 64,
      "velocity": 84,
      "voice": "arp",
      "bar": 55
    },
    {
      "beat": 222.0,
      "duration": 0.45,
      "midi": 45,
      "velocity": 100,
      "voice": "bass",
      "bar": 55
    },
    {
      "beat": 222,
      "duration": 0.07,
      "midi": 42,
      "velocity": 44,
      "voice": "hat",
      "bar": 55
    },
    {
      "beat": 222,
      "duration": 0.16,
      "midi": 36,
      "velocity": 116,
      "voice": "kick",
      "bar": 55
    },
    {
      "beat": 222,
      "duration": 2,
      "midi": 81,
      "velocity": 112,
      "voice": "lead",
      "bar": 55
    },
    {
      "beat": 222,
      "duration": 0.18,
      "midi": 64,
      "velocity": 96,
      "voice": "perc",
      "bar": 55
    },
    {
      "beat": 222.25,
      "duration": 0.22,
      "midi": 69,
      "velocity": 70,
      "voice": "arp",
      "bar": 55
    },
    {
      "beat": 222.25,
      "duration": 0.05,
      "midi": 42,
      "velocity": 34,
      "voice": "hat",
      "bar": 55
    },
    {
      "beat": 222.5,
      "duration": 0.24,
      "midi": 70,
      "velocity": 80,
      "voice": "acid",
      "bar": 55,
      "slide": true
    },
    {
      "beat": 222.5,
      "duration": 0.22,
      "midi": 64,
      "velocity": 70,
      "voice": "arp",
      "bar": 55
    },
    {
      "beat": 222.5,
      "duration": 0.45,
      "midi": 45,
      "velocity": 100,
      "voice": "bass",
      "bar": 55
    },
    {
      "beat": 222.5,
      "duration": 0.14,
      "midi": 46,
      "velocity": 74,
      "voice": "hat",
      "bar": 55
    },
    {
      "beat": 222.5,
      "duration": 0.22,
      "midi": 69,
      "velocity": 92,
      "voice": "stab",
      "bar": 55
    },
    {
      "beat": 222.5,
      "duration": 0.22,
      "midi": 73,
      "velocity": 92,
      "voice": "stab",
      "bar": 55
    },
    {
      "beat": 222.5,
      "duration": 0.22,
      "midi": 76,
      "velocity": 92,
      "voice": "stab",
      "bar": 55
    },
    {
      "beat": 222.75,
      "duration": 0.24,
      "midi": 57,
      "velocity": 80,
      "voice": "acid",
      "bar": 55,
      "slide": false
    },
    {
      "beat": 222.75,
      "duration": 0.22,
      "midi": 61,
      "velocity": 70,
      "voice": "arp",
      "bar": 55
    },
    {
      "beat": 222.75,
      "duration": 0.05,
      "midi": 42,
      "velocity": 34,
      "voice": "hat",
      "bar": 55
    },
    {
      "beat": 223.0,
      "duration": 0.22,
      "midi": 57,
      "velocity": 84,
      "voice": "arp",
      "bar": 55
    },
    {
      "beat": 223.0,
      "duration": 0.45,
      "midi": 57,
      "velocity": 100,
      "voice": "bass",
      "bar": 55
    },
    {
      "beat": 223,
      "duration": 0.2,
      "midi": 39,
      "velocity": 104,
      "voice": "clap",
      "bar": 55
    },
    {
      "beat": 223,
      "duration": 0.07,
      "midi": 42,
      "velocity": 44,
      "voice": "hat",
      "bar": 55
    },
    {
      "beat": 223,
      "duration": 0.16,
      "midi": 36,
      "velocity": 116,
      "voice": "kick",
      "bar": 55
    },
    {
      "beat": 223,
      "duration": 0.1,
      "midi": 62,
      "velocity": 72,
      "voice": "perc",
      "bar": 55
    },
    {
      "beat": 223.25,
      "duration": 0.24,
      "midi": 57,
      "velocity": 120,
      "voice": "acid",
      "bar": 55,
      "slide": false
    },
    {
      "beat": 223.25,
      "duration": 0.22,
      "midi": 61,
      "velocity": 70,
      "voice": "arp",
      "bar": 55
    },
    {
      "beat": 223.25,
      "duration": 0.05,
      "midi": 42,
      "velocity": 34,
      "voice": "hat",
      "bar": 55
    },
    {
      "beat": 223.5,
      "duration": 0.24,
      "midi": 69,
      "velocity": 80,
      "voice": "acid",
      "bar": 55,
      "slide": true
    },
    {
      "beat": 223.5,
      "duration": 0.22,
      "midi": 64,
      "velocity": 70,
      "voice": "arp",
      "bar": 55
    },
    {
      "beat": 223.5,
      "duration": 0.45,
      "midi": 45,
      "velocity": 100,
      "voice": "bass",
      "bar": 55
    },
    {
      "beat": 223.5,
      "duration": 0.14,
      "midi": 46,
      "velocity": 74,
      "voice": "hat",
      "bar": 55
    },
    {
      "beat": 223.5,
      "duration": 0.1,
      "midi": 62,
      "velocity": 72,
      "voice": "perc",
      "bar": 55
    },
    {
      "beat": 223.5,
      "duration": 0.22,
      "midi": 69,
      "velocity": 92,
      "voice": "stab",
      "bar": 55
    },
    {
      "beat": 223.5,
      "duration": 0.22,
      "midi": 73,
      "velocity": 92,
      "voice": "stab",
      "bar": 55
    },
    {
      "beat": 223.5,
      "duration": 0.22,
      "midi": 76,
      "velocity": 92,
      "voice": "stab",
      "bar": 55
    },
    {
      "beat": 223.75,
      "duration": 0.24,
      "midi": 58,
      "velocity": 80,
      "voice": "acid",
      "bar": 55,
      "slide": false
    },
    {
      "beat": 223.75,
      "duration": 0.22,
      "midi": 69,
      "velocity": 70,
      "voice": "arp",
      "bar": 55
    },
    {
      "beat": 223.75,
      "duration": 0.05,
      "midi": 42,
      "velocity": 34,
      "voice": "hat",
      "bar": 55
    },
    {
      "beat": 224.0,
      "duration": 0.45,
      "midi": 38,
      "velocity": 108,
      "voice": "bass",
      "bar": 56
    },
    {
      "beat": 224,
      "duration": 0.5,
      "midi": 74,
      "velocity": 96,
      "voice": "oud",
      "bar": 56
    },
    {
      "beat": 224,
      "duration": 4,
      "midi": 50,
      "velocity": 58,
      "voice": "pad",
      "bar": 56
    },
    {
      "beat": 224,
      "duration": 4,
      "midi": 54,
      "velocity": 58,
      "voice": "pad",
      "bar": 56
    },
    {
      "beat": 224,
      "duration": 4,
      "midi": 57,
      "velocity": 58,
      "voice": "pad",
      "bar": 56
    },
    {
      "beat": 224,
      "duration": 4,
      "midi": 62,
      "velocity": 58,
      "voice": "pad",
      "bar": 56
    },
    {
      "beat": 224,
      "duration": 0.18,
      "midi": 64,
      "velocity": 96,
      "voice": "perc",
      "bar": 56
    },
    {
      "beat": 224.5,
      "duration": 0.45,
      "midi": 38,
      "velocity": 100,
      "voice": "bass",
      "bar": 56
    },
    {
      "beat": 224.5,
      "duration": 0.5,
      "midi": 75,
      "velocity": 96,
      "voice": "oud",
      "bar": 56
    },
    {
      "beat": 224.5,
      "duration": 0.1,
      "midi": 62,
      "velocity": 72,
      "voice": "perc",
      "bar": 56
    },
    {
      "beat": 225.0,
      "duration": 0.45,
      "midi": 50,
      "velocity": 100,
      "voice": "bass",
      "bar": 56
    },
    {
      "beat": 225,
      "duration": 0.5,
      "midi": 74,
      "velocity": 96,
      "voice": "oud",
      "bar": 56
    },
    {
      "beat": 225.5,
      "duration": 0.45,
      "midi": 38,
      "velocity": 100,
      "voice": "bass",
      "bar": 56
    },
    {
      "beat": 225.5,
      "duration": 0.1,
      "midi": 62,
      "velocity": 72,
      "voice": "perc",
      "bar": 56
    },
    {
      "beat": 226.0,
      "duration": 0.45,
      "midi": 38,
      "velocity": 100,
      "voice": "bass",
      "bar": 56
    },
    {
      "beat": 226,
      "duration": 0.75,
      "midi": 69,
      "velocity": 96,
      "voice": "oud",
      "bar": 56
    },
    {
      "beat": 226,
      "duration": 0.18,
      "midi": 64,
      "velocity": 96,
      "voice": "perc",
      "bar": 56
    },
    {
      "beat": 226.5,
      "duration": 0.45,
      "midi": 38,
      "velocity": 100,
      "voice": "bass",
      "bar": 56
    },
    {
      "beat": 226.75,
      "duration": 0.25,
      "midi": 70,
      "velocity": 96,
      "voice": "oud",
      "bar": 56
    },
    {
      "beat": 227.0,
      "duration": 0.45,
      "midi": 50,
      "velocity": 100,
      "voice": "bass",
      "bar": 56
    },
    {
      "beat": 227,
      "duration": 1,
      "midi": 66,
      "velocity": 96,
      "voice": "oud",
      "bar": 56
    },
    {
      "beat": 227,
      "duration": 0.1,
      "midi": 62,
      "velocity": 72,
      "voice": "perc",
      "bar": 56
    },
    {
      "beat": 227.5,
      "duration": 0.45,
      "midi": 38,
      "velocity": 100,
      "voice": "bass",
      "bar": 56
    },
    {
      "beat": 227.5,
      "duration": 0.1,
      "midi": 62,
      "velocity": 72,
      "voice": "perc",
      "bar": 56
    },
    {
      "beat": 228.0,
      "duration": 0.45,
      "midi": 39,
      "velocity": 108,
      "voice": "bass",
      "bar": 57
    },
    {
      "beat": 228,
      "duration": 0.5,
      "midi": 74,
      "velocity": 96,
      "voice": "oud",
      "bar": 57
    },
    {
      "beat": 228,
      "duration": 4,
      "midi": 51,
      "velocity": 58,
      "voice": "pad",
      "bar": 57
    },
    {
      "beat": 228,
      "duration": 4,
      "midi": 55,
      "velocity": 58,
      "voice": "pad",
      "bar": 57
    },
    {
      "beat": 228,
      "duration": 4,
      "midi": 58,
      "velocity": 58,
      "voice": "pad",
      "bar": 57
    },
    {
      "beat": 228,
      "duration": 4,
      "midi": 63,
      "velocity": 58,
      "voice": "pad",
      "bar": 57
    },
    {
      "beat": 228,
      "duration": 0.18,
      "midi": 64,
      "velocity": 96,
      "voice": "perc",
      "bar": 57
    },
    {
      "beat": 228.5,
      "duration": 0.45,
      "midi": 39,
      "velocity": 100,
      "voice": "bass",
      "bar": 57
    },
    {
      "beat": 228.5,
      "duration": 0.5,
      "midi": 75,
      "velocity": 96,
      "voice": "oud",
      "bar": 57
    },
    {
      "beat": 228.5,
      "duration": 0.1,
      "midi": 62,
      "velocity": 72,
      "voice": "perc",
      "bar": 57
    },
    {
      "beat": 229.0,
      "duration": 0.45,
      "midi": 51,
      "velocity": 100,
      "voice": "bass",
      "bar": 57
    },
    {
      "beat": 229,
      "duration": 0.5,
      "midi": 74,
      "velocity": 96,
      "voice": "oud",
      "bar": 57
    },
    {
      "beat": 229.5,
      "duration": 0.45,
      "midi": 39,
      "velocity": 100,
      "voice": "bass",
      "bar": 57
    },
    {
      "beat": 229.5,
      "duration": 0.1,
      "midi": 62,
      "velocity": 72,
      "voice": "perc",
      "bar": 57
    },
    {
      "beat": 230.0,
      "duration": 0.45,
      "midi": 39,
      "velocity": 100,
      "voice": "bass",
      "bar": 57
    },
    {
      "beat": 230,
      "duration": 0.75,
      "midi": 69,
      "velocity": 96,
      "voice": "oud",
      "bar": 57
    },
    {
      "beat": 230,
      "duration": 0.18,
      "midi": 64,
      "velocity": 96,
      "voice": "perc",
      "bar": 57
    },
    {
      "beat": 230.5,
      "duration": 0.45,
      "midi": 39,
      "velocity": 100,
      "voice": "bass",
      "bar": 57
    },
    {
      "beat": 230.75,
      "duration": 0.25,
      "midi": 70,
      "velocity": 96,
      "voice": "oud",
      "bar": 57
    },
    {
      "beat": 231.0,
      "duration": 0.45,
      "midi": 51,
      "velocity": 100,
      "voice": "bass",
      "bar": 57
    },
    {
      "beat": 231,
      "duration": 1,
      "midi": 66,
      "velocity": 96,
      "voice": "oud",
      "bar": 57
    },
    {
      "beat": 231,
      "duration": 0.1,
      "midi": 62,
      "velocity": 72,
      "voice": "perc",
      "bar": 57
    },
    {
      "beat": 231.5,
      "duration": 0.45,
      "midi": 39,
      "velocity": 100,
      "voice": "bass",
      "bar": 57
    },
    {
      "beat": 231.5,
      "duration": 0.1,
      "midi": 62,
      "velocity": 72,
      "voice": "perc",
      "bar": 57
    },
    {
      "beat": 232,
      "duration": 0.5,
      "midi": 74,
      "velocity": 96,
      "voice": "oud",
      "bar": 58
    },
    {
      "beat": 232,
      "duration": 4,
      "midi": 55,
      "velocity": 58,
      "voice": "pad",
      "bar": 58
    },
    {
      "beat": 232,
      "duration": 4,
      "midi": 58,
      "velocity": 58,
      "voice": "pad",
      "bar": 58
    },
    {
      "beat": 232,
      "duration": 4,
      "midi": 62,
      "velocity": 58,
      "voice": "pad",
      "bar": 58
    },
    {
      "beat": 232,
      "duration": 4,
      "midi": 67,
      "velocity": 58,
      "voice": "pad",
      "bar": 58
    },
    {
      "beat": 232.5,
      "duration": 0.5,
      "midi": 75,
      "velocity": 96,
      "voice": "oud",
      "bar": 58
    },
    {
      "beat": 233,
      "duration": 0.5,
      "midi": 74,
      "velocity": 96,
      "voice": "oud",
      "bar": 58
    },
    {
      "beat": 234,
      "duration": 0.75,
      "midi": 69,
      "velocity": 96,
      "voice": "oud",
      "bar": 58
    },
    {
      "beat": 234.75,
      "duration": 0.25,
      "midi": 70,
      "velocity": 96,
      "voice": "oud",
      "bar": 58
    },
    {
      "beat": 235,
      "duration": 1,
      "midi": 66,
      "velocity": 96,
      "voice": "oud",
      "bar": 58
    },
    {
      "beat": 236,
      "duration": 0.5,
      "midi": 74,
      "velocity": 96,
      "voice": "oud",
      "bar": 59
    },
    {
      "beat": 236,
      "duration": 4,
      "midi": 57,
      "velocity": 58,
      "voice": "pad",
      "bar": 59
    },
    {
      "beat": 236,
      "duration": 4,
      "midi": 61,
      "velocity": 58,
      "voice": "pad",
      "bar": 59
    },
    {
      "beat": 236,
      "duration": 4,
      "midi": 64,
      "velocity": 58,
      "voice": "pad",
      "bar": 59
    },
    {
      "beat": 236,
      "duration": 4,
      "midi": 69,
      "velocity": 58,
      "voice": "pad",
      "bar": 59
    },
    {
      "beat": 236.5,
      "duration": 0.5,
      "midi": 75,
      "velocity": 96,
      "voice": "oud",
      "bar": 59
    },
    {
      "beat": 237,
      "duration": 0.5,
      "midi": 74,
      "velocity": 96,
      "voice": "oud",
      "bar": 59
    },
    {
      "beat": 238,
      "duration": 0.75,
      "midi": 69,
      "velocity": 96,
      "voice": "oud",
      "bar": 59
    },
    {
      "beat": 238.75,
      "duration": 0.25,
      "midi": 70,
      "velocity": 96,
      "voice": "oud",
      "bar": 59
    },
    {
      "beat": 239,
      "duration": 1,
      "midi": 66,
      "velocity": 96,
      "voice": "oud",
      "bar": 59
    },
    {
      "beat": 240,
      "duration": 4,
      "midi": 50,
      "velocity": 58,
      "voice": "pad",
      "bar": 60
    },
    {
      "beat": 240,
      "duration": 4,
      "midi": 54,
      "velocity": 58,
      "voice": "pad",
      "bar": 60
    },
    {
      "beat": 240,
      "duration": 4,
      "midi": 57,
      "velocity": 58,
      "voice": "pad",
      "bar": 60
    },
    {
      "beat": 240,
      "duration": 4,
      "midi": 62,
      "velocity": 58,
      "voice": "pad",
      "bar": 60
    },
    {
      "beat": 244,
      "duration": 4,
      "midi": 51,
      "velocity": 58,
      "voice": "pad",
      "bar": 61
    },
    {
      "beat": 244,
      "duration": 4,
      "midi": 55,
      "velocity": 58,
      "voice": "pad",
      "bar": 61
    },
    {
      "beat": 244,
      "duration": 4,
      "midi": 58,
      "velocity": 58,
      "voice": "pad",
      "bar": 61
    },
    {
      "beat": 244,
      "duration": 4,
      "midi": 63,
      "velocity": 58,
      "voice": "pad",
      "bar": 61
    },
    {
      "beat": 248,
      "duration": 4,
      "midi": 55,
      "velocity": 58,
      "voice": "pad",
      "bar": 62
    },
    {
      "beat": 248,
      "duration": 4,
      "midi": 58,
      "velocity": 58,
      "voice": "pad",
      "bar": 62
    },
    {
      "beat": 248,
      "duration": 4,
      "midi": 62,
      "velocity": 58,
      "voice": "pad",
      "bar": 62
    },
    {
      "beat": 248,
      "duration": 4,
      "midi": 67,
      "velocity": 58,
      "voice": "pad",
      "bar": 62
    },
    {
      "beat": 252,
      "duration": 4,
      "midi": 57,
      "velocity": 58,
      "voice": "pad",
      "bar": 63
    },
    {
      "beat": 252,
      "duration": 4,
      "midi": 61,
      "velocity": 58,
      "voice": "pad",
      "bar": 63
    },
    {
      "beat": 252,
      "duration": 4,
      "midi": 64,
      "velocity": 58,
      "voice": "pad",
      "bar": 63
    },
    {
      "beat": 252,
      "duration": 4,
      "midi": 69,
      "velocity": 58,
      "voice": "pad",
      "bar": 63
    }
  ],
  "instruments": [
    {
      "voice": "kick",
      "label": "Kick",
      "color": "#ff5d73"
    },
    {
      "voice": "clap",
      "label": "Clap",
      "color": "#ff9a3d"
    },
    {
      "voice": "hat",
      "label": "Hats",
      "color": "#c8c2d8"
    },
    {
      "voice": "perc",
      "label": "Darbuka",
      "color": "#e0a96d"
    },
    {
      "voice": "bass",
      "label": "Octave bass",
      "color": "#5be0c0"
    },
    {
      "voice": "acid",
      "label": "Acid reed",
      "color": "#b4ff3d"
    },
    {
      "voice": "arp",
      "label": "Arp",
      "color": "#7df0ff"
    },
    {
      "voice": "pad",
      "label": "Pad",
      "color": "#8f7dff"
    },
    {
      "voice": "stab",
      "label": "Stab",
      "color": "#ff6fe0"
    },
    {
      "voice": "lead",
      "label": "Lead hook",
      "color": "#ffe14d"
    },
    {
      "voice": "oud",
      "label": "Oud",
      "color": "#ff8a5b"
    }
  ],
  "sections": [
    {
      "name": "Intro",
      "from": 0,
      "to": 8
    },
    {
      "name": "Chorus",
      "from": 8,
      "to": 16
    },
    {
      "name": "Verse",
      "from": 16,
      "to": 24
    },
    {
      "name": "Chorus",
      "from": 24,
      "to": 32
    },
    {
      "name": "Break \u00b7 Arabic",
      "from": 32,
      "to": 40
    },
    {
      "name": "Final Chorus",
      "from": 40,
      "to": 56
    },
    {
      "name": "Outro",
      "from": 56,
      "to": 64
    }
  ]
}