window.COMPOSITION={"title":"The Cartographer of Rain","subtitle":"For classical guitar, cello and celesta \u2014 after Bach's Air","tempo":60,"beatsPerMeasure":4,"notatedMeasures":16,"playbackMeasures":32,"order":[1,2,3,4,5,6,7,8,1,2,3,4,5,6,7,8,9,10,11,12,13,14,15,16,9,10,11,12,13,14,15,16],"notes":[{"beat":0,"duration":2,"midi":38,"velocity":68,"measure":1,"voice":"bass"},{"beat":0,"duration":1,"midi":86,"velocity":60,"measure":1,"voice":"celesta"},{"beat":0,"duration":2,"midi":50,"velocity":72,"measure":1,"voice":"cello"},{"beat":0,"duration":1,"midi":53,"velocity":52,"measure":1,"voice":"inner"},{"beat":0,"duration":1.5,"midi":69,"velocity":80,"measure":1,"voice":"melody"},{"beat":1,"duration":1,"midi":57,"velocity":52,"measure":1,"voice":"inner"},{"beat":1.5,"duration":0.5,"midi":70,"velocity":80,"measure":1,"voice":"melody"},{"beat":2,"duration":2,"midi":45,"velocity":68,"measure":1,"voice":"bass"},{"beat":2,"duration":1,"midi":81,"velocity":60,"measure":1,"voice":"celesta"},{"beat":2,"duration":2,"midi":53,"velocity":72,"measure":1,"voice":"cello"},{"beat":2,"duration":1,"midi":62,"velocity":52,"measure":1,"voice":"inner"},{"beat":2,"duration":1,"midi":69,"velocity":80,"measure":1,"voice":"melody"},{"beat":3,"duration":1,"midi":57,"velocity":52,"measure":1,"voice":"inner"},{"beat":3,"duration":1,"midi":65,"velocity":80,"measure":1,"voice":"melody"},{"beat":4,"duration":2,"midi":49,"velocity":68,"measure":2,"voice":"bass"},{"beat":4,"duration":2,"midi":49,"velocity":72,"measure":2,"voice":"cello"},{"beat":4,"duration":1,"midi":52,"velocity":52,"measure":2,"voice":"inner"},{"beat":4,"duration":1.5,"midi":67,"velocity":80,"measure":2,"voice":"melody"},{"beat":5,"duration":1,"midi":55,"velocity":52,"measure":2,"voice":"inner"},{"beat":5.5,"duration":0.5,"midi":65,"velocity":80,"measure":2,"voice":"melody"},{"beat":6,"duration":2,"midi":52,"velocity":68,"measure":2,"voice":"bass"},{"beat":6,"duration":2,"midi":52,"velocity":72,"measure":2,"voice":"cello"},{"beat":6,"duration":1,"midi":61,"velocity":52,"measure":2,"voice":"inner"},{"beat":6,"duration":2,"midi":64,"velocity":80,"measure":2,"voice":"melody"},{"beat":7,"duration":1,"midi":55,"velocity":52,"measure":2,"voice":"inner"},{"beat":8,"duration":2,"midi":38,"velocity":68,"measure":3,"voice":"bass"},{"beat":8,"duration":3,"midi":50,"velocity":72,"measure":3,"voice":"cello"},{"beat":8,"duration":1,"midi":53,"velocity":52,"measure":3,"voice":"inner"},{"beat":8,"duration":1,"midi":65,"velocity":80,"measure":3,"voice":"melody"},{"beat":9,"duration":1,"midi":57,"velocity":52,"measure":3,"voice":"inner"},{"beat":9,"duration":0.5,"midi":67,"velocity":80,"measure":3,"voice":"melody"},{"beat":9.5,"duration":0.5,"midi":69,"velocity":80,"measure":3,"voice":"melody"},{"beat":10,"duration":2,"midi":45,"velocity":68,"measure":3,"voice":"bass"},{"beat":10,"duration":1,"midi":86,"velocity":60,"measure":3,"voice":"celesta"},{"beat":10,"duration":1,"midi":62,"velocity":52,"measure":3,"voice":"inner"},{"beat":10,"duration":1,"midi":74,"velocity":80,"measure":3,"voice":"melody"},{"beat":11,"duration":1,"midi":45,"velocity":72,"measure":3,"voice":"cello"},{"beat":11,"duration":1,"midi":57,"velocity":52,"measure":3,"voice":"inner"},{"beat":11,"duration":1,"midi":69,"velocity":80,"measure":3,"voice":"melody"},{"beat":12,"duration":2,"midi":43,"velocity":68,"measure":4,"voice":"bass"},{"beat":12,"duration":2,"midi":55,"velocity":72,"measure":4,"voice":"cello"},{"beat":12,"duration":1,"midi":55,"velocity":52,"measure":4,"voice":"inner"},{"beat":12,"duration":1.5,"midi":70,"velocity":80,"measure":4,"voice":"melody"},{"beat":13,"duration":1,"midi":58,"velocity":52,"measure":4,"voice":"inner"},{"beat":13.5,"duration":0.5,"midi":69,"velocity":80,"measure":4,"voice":"melody"},{"beat":14,"duration":2,"midi":50,"velocity":68,"measure":4,"voice":"bass"},{"beat":14,"duration":2,"midi":50,"velocity":72,"measure":4,"voice":"cello"},{"beat":14,"duration":1,"midi":62,"velocity":52,"measure":4,"voice":"inner"},{"beat":14,"duration":1,"midi":67,"velocity":80,"measure":4,"voice":"melody"},{"beat":15,"duration":1,"midi":58,"velocity":52,"measure":4,"voice":"inner"},{"beat":15,"duration":1,"midi":62,"velocity":80,"measure":4,"voice":"melody"},{"beat":16,"duration":2,"midi":41,"velocity":68,"measure":5,"voice":"bass"},{"beat":16,"duration":1,"midi":89,"velocity":60,"measure":5,"voice":"celesta"},{"beat":16,"duration":2,"midi":57,"velocity":72,"measure":5,"voice":"cello"},{"beat":16,"duration":1,"midi":57,"velocity":52,"measure":5,"voice":"inner"},{"beat":16,"duration":1,"midi":69,"velocity":80,"measure":5,"voice":"melody"},{"beat":17,"duration":1,"midi":62,"velocity":52,"measure":5,"voice":"inner"},{"beat":17,"duration":0.5,"midi":70,"velocity":80,"measure":5,"voice":"melody"},{"beat":17.5,"duration":0.5,"midi":69,"velocity":80,"measure":5,"voice":"melody"},{"beat":18,"duration":2,"midi":48,"velocity":68,"measure":5,"voice":"bass"},{"beat":18,"duration":2,"midi":53,"velocity":72,"measure":5,"voice":"cello"},{"beat":18,"duration":1,"midi":65,"velocity":52,"measure":5,"voice":"inner"},{"beat":18,"duration":1,"midi":65,"velocity":80,"measure":5,"voice":"melody"},{"beat":19,"duration":1,"midi":62,"velocity":52,"measure":5,"voice":"inner"},{"beat":19,"duration":1,"midi":69,"velocity":80,"measure":5,"voice":"melody"},{"beat":20,"duration":2,"midi":46,"velocity":68,"measure":6,"voice":"bass"},{"beat":20,"duration":1,"midi":86,"velocity":60,"measure":6,"voice":"celesta"},{"beat":20,"duration":2,"midi":58,"velocity":72,"measure":6,"voice":"cello"},{"beat":20,"duration":1,"midi":62,"velocity":52,"measure":6,"voice":"inner"},{"beat":20,"duration":2,"midi":74,"velocity":80,"measure":6,"voice":"melody"},{"beat":21,"duration":1,"midi":65,"velocity":52,"measure":6,"voice":"inner"},{"beat":22,"duration":2,"midi":41,"velocity":68,"measure":6,"voice":"bass"},{"beat":22,"duration":1,"midi":89,"velocity":60,"measure":6,"voice":"celesta"},{"beat":22,"duration":2,"midi":50,"velocity":72,"measure":6,"voice":"cello"},{"beat":22,"duration":1,"midi":58,"velocity":52,"measure":6,"voice":"inner"},{"beat":22,"duration":1,"midi":72,"velocity":80,"measure":6,"voice":"melody"},{"beat":23,"duration":1,"midi":65,"velocity":52,"measure":6,"voice":"inner"},{"beat":23,"duration":1,"midi":70,"velocity":80,"measure":6,"voice":"melody"},{"beat":24,"duration":2,"midi":45,"velocity":68,"measure":7,"voice":"bass"},{"beat":24,"duration":2,"midi":52,"velocity":72,"measure":7,"voice":"cello"},{"beat":24,"duration":1,"midi":52,"velocity":52,"measure":7,"voice":"inner"},{"beat":24,"duration":1,"midi":67,"velocity":80,"measure":7,"voice":"melody"},{"beat":25,"duration":1,"midi":55,"velocity":52,"measure":7,"voice":"inner"},{"beat":25,"duration":1,"midi":64,"velocity":80,"measure":7,"voice":"melody"},{"beat":26,"duration":2,"midi":52,"velocity":68,"measure":7,"voice":"bass"},{"beat":26,"duration":1,"midi":55,"velocity":72,"measure":7,"voice":"cello"},{"beat":26,"duration":1,"midi":61,"velocity":52,"measure":7,"voice":"inner"},{"beat":26,"duration":0.5,"midi":67,"velocity":80,"measure":7,"voice":"melody"},{"beat":26.5,"duration":0.5,"midi":65,"velocity":80,"measure":7,"voice":"melody"},{"beat":27,"duration":1,"midi":52,"velocity":72,"measure":7,"voice":"cello"},{"beat":27,"duration":1,"midi":64,"velocity":52,"measure":7,"voice":"inner"},{"beat":27,"duration":1,"midi":64,"velocity":80,"measure":7,"voice":"melody"},{"beat":28,"duration":2,"midi":38,"velocity":68,"measure":8,"voice":"bass"},{"beat":28,"duration":1,"midi":81,"velocity":60,"measure":8,"voice":"celesta"},{"beat":28,"duration":4,"midi":50,"velocity":72,"measure":8,"voice":"cello"},{"beat":28,"duration":1,"midi":53,"velocity":52,"measure":8,"voice":"inner"},{"beat":28,"duration":3,"midi":62,"velocity":80,"measure":8,"voice":"melody"},{"beat":29,"duration":1,"midi":57,"velocity":52,"measure":8,"voice":"inner"},{"beat":30,"duration":2,"midi":45,"velocity":68,"measure":8,"voice":"bass"},{"beat":30,"duration":1,"midi":62,"velocity":52,"measure":8,"voice":"inner"},{"beat":31,"duration":1,"midi":57,"velocity":52,"measure":8,"voice":"inner"},{"beat":31,"duration":1,"midi":69,"velocity":80,"measure":8,"voice":"melody"},{"beat":32,"duration":2,"midi":38,"velocity":68,"measure":1,"voice":"bass"},{"beat":32,"duration":1,"midi":86,"velocity":60,"measure":1,"voice":"celesta"},{"beat":32,"duration":2,"midi":50,"velocity":72,"measure":1,"voice":"cello"},{"beat":32,"duration":1,"midi":53,"velocity":52,"measure":1,"voice":"inner"},{"beat":32,"duration":1.5,"midi":69,"velocity":80,"measure":1,"voice":"melody"},{"beat":33,"duration":1,"midi":57,"velocity":52,"measure":1,"voice":"inner"},{"beat":33.5,"duration":0.5,"midi":70,"velocity":80,"measure":1,"voice":"melody"},{"beat":34,"duration":2,"midi":45,"velocity":68,"measure":1,"voice":"bass"},{"beat":34,"duration":1,"midi":81,"velocity":60,"measure":1,"voice":"celesta"},{"beat":34,"duration":2,"midi":53,"velocity":72,"measure":1,"voice":"cello"},{"beat":34,"duration":1,"midi":62,"velocity":52,"measure":1,"voice":"inner"},{"beat":34,"duration":1,"midi":69,"velocity":80,"measure":1,"voice":"melody"},{"beat":35,"duration":1,"midi":57,"velocity":52,"measure":1,"voice":"inner"},{"beat":35,"duration":1,"midi":65,"velocity":80,"measure":1,"voice":"melody"},{"beat":36,"duration":2,"midi":49,"velocity":68,"measure":2,"voice":"bass"},{"beat":36,"duration":2,"midi":49,"velocity":72,"measure":2,"voice":"cello"},{"beat":36,"duration":1,"midi":52,"velocity":52,"measure":2,"voice":"inner"},{"beat":36,"duration":1.5,"midi":67,"velocity":80,"measure":2,"voice":"melody"},{"beat":37,"duration":1,"midi":55,"velocity":52,"measure":2,"voice":"inner"},{"beat":37.5,"duration":0.5,"midi":65,"velocity":80,"measure":2,"voice":"melody"},{"beat":38,"duration":2,"midi":52,"velocity":68,"measure":2,"voice":"bass"},{"beat":38,"duration":2,"midi":52,"velocity":72,"measure":2,"voice":"cello"},{"beat":38,"duration":1,"midi":61,"velocity":52,"measure":2,"voice":"inner"},{"beat":38,"duration":2,"midi":64,"velocity":80,"measure":2,"voice":"melody"},{"beat":39,"duration":1,"midi":55,"velocity":52,"measure":2,"voice":"inner"},{"beat":40,"duration":2,"midi":38,"velocity":68,"measure":3,"voice":"bass"},{"beat":40,"duration":3,"midi":50,"velocity":72,"measure":3,"voice":"cello"},{"beat":40,"duration":1,"midi":53,"velocity":52,"measure":3,"voice":"inner"},{"beat":40,"duration":1,"midi":65,"velocity":80,"measure":3,"voice":"melody"},{"beat":41,"duration":1,"midi":57,"velocity":52,"measure":3,"voice":"inner"},{"beat":41,"duration":0.5,"midi":67,"velocity":80,"measure":3,"voice":"melody"},{"beat":41.5,"duration":0.5,"midi":69,"velocity":80,"measure":3,"voice":"melody"},{"beat":42,"duration":2,"midi":45,"velocity":68,"measure":3,"voice":"bass"},{"beat":42,"duration":1,"midi":86,"velocity":60,"measure":3,"voice":"celesta"},{"beat":42,"duration":1,"midi":62,"velocity":52,"measure":3,"voice":"inner"},{"beat":42,"duration":1,"midi":74,"velocity":80,"measure":3,"voice":"melody"},{"beat":43,"duration":1,"midi":45,"velocity":72,"measure":3,"voice":"cello"},{"beat":43,"duration":1,"midi":57,"velocity":52,"measure":3,"voice":"inner"},{"beat":43,"duration":1,"midi":69,"velocity":80,"measure":3,"voice":"melody"},{"beat":44,"duration":2,"midi":43,"velocity":68,"measure":4,"voice":"bass"},{"beat":44,"duration":2,"midi":55,"velocity":72,"measure":4,"voice":"cello"},{"beat":44,"duration":1,"midi":55,"velocity":52,"measure":4,"voice":"inner"},{"beat":44,"duration":1.5,"midi":70,"velocity":80,"measure":4,"voice":"melody"},{"beat":45,"duration":1,"midi":58,"velocity":52,"measure":4,"voice":"inner"},{"beat":45.5,"duration":0.5,"midi":69,"velocity":80,"measure":4,"voice":"melody"},{"beat":46,"duration":2,"midi":50,"velocity":68,"measure":4,"voice":"bass"},{"beat":46,"duration":2,"midi":50,"velocity":72,"measure":4,"voice":"cello"},{"beat":46,"duration":1,"midi":62,"velocity":52,"measure":4,"voice":"inner"},{"beat":46,"duration":1,"midi":67,"velocity":80,"measure":4,"voice":"melody"},{"beat":47,"duration":1,"midi":58,"velocity":52,"measure":4,"voice":"inner"},{"beat":47,"duration":1,"midi":62,"velocity":80,"measure":4,"voice":"melody"},{"beat":48,"duration":2,"midi":41,"velocity":68,"measure":5,"voice":"bass"},{"beat":48,"duration":1,"midi":89,"velocity":60,"measure":5,"voice":"celesta"},{"beat":48,"duration":2,"midi":57,"velocity":72,"measure":5,"voice":"cello"},{"beat":48,"duration":1,"midi":57,"velocity":52,"measure":5,"voice":"inner"},{"beat":48,"duration":1,"midi":69,"velocity":80,"measure":5,"voice":"melody"},{"beat":49,"duration":1,"midi":62,"velocity":52,"measure":5,"voice":"inner"},{"beat":49,"duration":0.5,"midi":70,"velocity":80,"measure":5,"voice":"melody"},{"beat":49.5,"duration":0.5,"midi":69,"velocity":80,"measure":5,"voice":"melody"},{"beat":50,"duration":2,"midi":48,"velocity":68,"measure":5,"voice":"bass"},{"beat":50,"duration":2,"midi":53,"velocity":72,"measure":5,"voice":"cello"},{"beat":50,"duration":1,"midi":65,"velocity":52,"measure":5,"voice":"inner"},{"beat":50,"duration":1,"midi":65,"velocity":80,"measure":5,"voice":"melody"},{"beat":51,"duration":1,"midi":62,"velocity":52,"measure":5,"voice":"inner"},{"beat":51,"duration":1,"midi":69,"velocity":80,"measure":5,"voice":"melody"},{"beat":52,"duration":2,"midi":46,"velocity":68,"measure":6,"voice":"bass"},{"beat":52,"duration":1,"midi":86,"velocity":60,"measure":6,"voice":"celesta"},{"beat":52,"duration":2,"midi":58,"velocity":72,"measure":6,"voice":"cello"},{"beat":52,"duration":1,"midi":62,"velocity":52,"measure":6,"voice":"inner"},{"beat":52,"duration":2,"midi":74,"velocity":80,"measure":6,"voice":"melody"},{"beat":53,"duration":1,"midi":65,"velocity":52,"measure":6,"voice":"inner"},{"beat":54,"duration":2,"midi":41,"velocity":68,"measure":6,"voice":"bass"},{"beat":54,"duration":1,"midi":89,"velocity":60,"measure":6,"voice":"celesta"},{"beat":54,"duration":2,"midi":50,"velocity":72,"measure":6,"voice":"cello"},{"beat":54,"duration":1,"midi":58,"velocity":52,"measure":6,"voice":"inner"},{"beat":54,"duration":1,"midi":72,"velocity":80,"measure":6,"voice":"melody"},{"beat":55,"duration":1,"midi":65,"velocity":52,"measure":6,"voice":"inner"},{"beat":55,"duration":1,"midi":70,"velocity":80,"measure":6,"voice":"melody"},{"beat":56,"duration":2,"midi":45,"velocity":68,"measure":7,"voice":"bass"},{"beat":56,"duration":2,"midi":52,"velocity":72,"measure":7,"voice":"cello"},{"beat":56,"duration":1,"midi":52,"velocity":52,"measure":7,"voice":"inner"},{"beat":56,"duration":1,"midi":67,"velocity":80,"measure":7,"voice":"melody"},{"beat":57,"duration":1,"midi":55,"velocity":52,"measure":7,"voice":"inner"},{"beat":57,"duration":1,"midi":64,"velocity":80,"measure":7,"voice":"melody"},{"beat":58,"duration":2,"midi":52,"velocity":68,"measure":7,"voice":"bass"},{"beat":58,"duration":1,"midi":55,"velocity":72,"measure":7,"voice":"cello"},{"beat":58,"duration":1,"midi":61,"velocity":52,"measure":7,"voice":"inner"},{"beat":58,"duration":0.5,"midi":67,"velocity":80,"measure":7,"voice":"melody"},{"beat":58.5,"duration":0.5,"midi":65,"velocity":80,"measure":7,"voice":"melody"},{"beat":59,"duration":1,"midi":52,"velocity":72,"measure":7,"voice":"cello"},{"beat":59,"duration":1,"midi":64,"velocity":52,"measure":7,"voice":"inner"},{"beat":59,"duration":1,"midi":64,"velocity":80,"measure":7,"voice":"melody"},{"beat":60,"duration":2,"midi":38,"velocity":68,"measure":8,"voice":"bass"},{"beat":60,"duration":1,"midi":81,"velocity":60,"measure":8,"voice":"celesta"},{"beat":60,"duration":4,"midi":50,"velocity":72,"measure":8,"voice":"cello"},{"beat":60,"duration":1,"midi":53,"velocity":52,"measure":8,"voice":"inner"},{"beat":60,"duration":3,"midi":62,"velocity":80,"measure":8,"voice":"melody"},{"beat":61,"duration":1,"midi":57,"velocity":52,"measure":8,"voice":"inner"},{"beat":62,"duration":2,"midi":45,"velocity":68,"measure":8,"voice":"bass"},{"beat":62,"duration":1,"midi":62,"velocity":52,"measure":8,"voice":"inner"},{"beat":63,"duration":1,"midi":57,"velocity":52,"measure":8,"voice":"inner"},{"beat":63,"duration":1,"midi":69,"velocity":80,"measure":8,"voice":"melody"},{"beat":64,"duration":2,"midi":38,"velocity":68,"measure":9,"voice":"bass"},{"beat":64,"duration":1,"midi":86,"velocity":60,"measure":9,"voice":"celesta"},{"beat":64,"duration":2,"midi":53,"velocity":72,"measure":9,"voice":"cello"},{"beat":64,"duration":1,"midi":53,"velocity":52,"measure":9,"voice":"inner"},{"beat":64,"duration":1,"midi":69,"velocity":80,"measure":9,"voice":"melody"},{"beat":65,"duration":1,"midi":81,"velocity":60,"measure":9,"voice":"celesta"},{"beat":65,"duration":1,"midi":57,"velocity":52,"measure":9,"voice":"inner"},{"beat":65,"duration":0.5,"midi":74,"velocity":80,"measure":9,"voice":"melody"},{"beat":65.5,"duration":0.5,"midi":72,"velocity":80,"measure":9,"voice":"melody"},{"beat":66,"duration":2,"midi":45,"velocity":68,"measure":9,"voice":"bass"},{"beat":66,"duration":2,"midi":57,"velocity":72,"measure":9,"voice":"cello"},{"beat":66,"duration":1,"midi":62,"velocity":52,"measure":9,"voice":"inner"},{"beat":66,"duration":1,"midi":70,"velocity":80,"measure":9,"voice":"melody"},{"beat":67,"duration":1,"midi":57,"velocity":52,"measure":9,"voice":"inner"},{"beat":67,"duration":1,"midi":69,"velocity":80,"measure":9,"voice":"melody"},{"beat":68,"duration":2,"midi":48,"velocity":68,"measure":10,"voice":"bass"},{"beat":68,"duration":2,"midi":52,"velocity":72,"measure":10,"voice":"cello"},{"beat":68,"duration":1,"midi":52,"velocity":52,"measure":10,"voice":"inner"},{"beat":68,"duration":1.5,"midi":67,"velocity":80,"measure":10,"voice":"melody"},{"beat":69,"duration":1,"midi":55,"velocity":52,"measure":10,"voice":"inner"},{"beat":69.5,"duration":0.5,"midi":69,"velocity":80,"measure":10,"voice":"melody"},{"beat":70,"duration":2,"midi":43,"velocity":68,"measure":10,"voice":"bass"},{"beat":70,"duration":2,"midi":55,"velocity":72,"measure":10,"voice":"cello"},{"beat":70,"duration":1,"midi":60,"velocity":52,"measure":10,"voice":"inner"},{"beat":70,"duration":1,"midi":67,"velocity":80,"measure":10,"voice":"melody"},{"beat":71,"duration":1,"midi":55,"velocity":52,"measure":10,"voice":"inner"},{"beat":71,"duration":1,"midi":64,"velocity":80,"measure":10,"voice":"melody"},{"beat":72,"duration":2,"midi":41,"velocity":68,"measure":11,"voice":"bass"},{"beat":72,"duration":2,"midi":57,"velocity":72,"measure":11,"voice":"cello"},{"beat":72,"duration":1,"midi":57,"velocity":52,"measure":11,"voice":"inner"},{"beat":72,"duration":1,"midi":69,"velocity":80,"measure":11,"voice":"melody"},{"beat":73,"duration":1,"midi":60,"velocity":52,"measure":11,"voice":"inner"},{"beat":73,"duration":0.5,"midi":72,"velocity":80,"measure":11,"voice":"melody"},{"beat":73.5,"duration":0.5,"midi":74,"velocity":80,"measure":11,"voice":"melody"},{"beat":74,"duration":2,"midi":48,"velocity":68,"measure":11,"voice":"bass"},{"beat":74,"duration":1,"midi":86,"velocity":60,"measure":11,"voice":"celesta"},{"beat":74,"duration":2,"midi":60,"velocity":72,"measure":11,"voice":"cello"},{"beat":74,"duration":1,"midi":65,"velocity":52,"measure":11,"voice":"inner"},{"beat":74,"duration":1,"midi":72,"velocity":80,"measure":11,"voice":"melody"},{"beat":75,"duration":1,"midi":60,"velocity":52,"measure":11,"voice":"inner"},{"beat":75,"duration":1,"midi":69,"velocity":80,"measure":11,"voice":"melody"},{"beat":76,"duration":2,"midi":43,"velocity":68,"measure":12,"voice":"bass"},{"beat":76,"duration":2,"midi":58,"velocity":72,"measure":12,"voice":"cello"},{"beat":76,"duration":1,"midi":55,"velocity":52,"measure":12,"voice":"inner"},{"beat":76,"duration":1.5,"midi":70,"velocity":80,"measure":12,"voice":"melody"},{"beat":77,"duration":1,"midi":58,"velocity":52,"measure":12,"voice":"inner"},{"beat":77.5,"duration":0.5,"midi":74,"velocity":80,"measure":12,"voice":"melody"},{"beat":78,"duration":2,"midi":50,"velocity":68,"measure":12,"voice":"bass"},{"beat":78,"duration":2,"midi":55,"velocity":72,"measure":12,"voice":"cello"},{"beat":78,"duration":1,"midi":62,"velocity":52,"measure":12,"voice":"inner"},{"beat":78,"duration":1,"midi":70,"velocity":80,"measure":12,"voice":"melody"},{"beat":79,"duration":1,"midi":58,"velocity":52,"measure":12,"voice":"inner"},{"beat":79,"duration":1,"midi":67,"velocity":80,"measure":12,"voice":"melody"},{"beat":80,"duration":2,"midi":45,"velocity":68,"measure":13,"voice":"bass"},{"beat":80,"duration":1,"midi":88,"velocity":60,"measure":13,"voice":"celesta"},{"beat":80,"duration":2,"midi":52,"velocity":72,"measure":13,"voice":"cello"},{"beat":80,"duration":1,"midi":52,"velocity":52,"measure":13,"voice":"inner"},{"beat":80,"duration":1,"midi":73,"velocity":80,"measure":13,"voice":"melody"},{"beat":81,"duration":1,"midi":55,"velocity":52,"measure":13,"voice":"inner"},{"beat":81,"duration":0.5,"midi":76,"velocity":80,"measure":13,"voice":"melody"},{"beat":81.5,"duration":0.5,"midi":74,"velocity":80,"measure":13,"voice":"melody"},{"beat":82,"duration":2,"midi":52,"velocity":68,"measure":13,"voice":"bass"},{"beat":82,"duration":1,"midi":85,"velocity":60,"measure":13,"voice":"celesta"},{"beat":82,"duration":1,"midi":55,"velocity":72,"measure":13,"voice":"cello"},{"beat":82,"duration":1,"midi":61,"velocity":52,"measure":13,"voice":"inner"},{"beat":82,"duration":1,"midi":73,"velocity":80,"measure":13,"voice":"melody"},{"beat":83,"duration":1,"midi":57,"velocity":72,"measure":13,"voice":"cello"},{"beat":83,"duration":1,"midi":55,"velocity":52,"measure":13,"voice":"inner"},{"beat":83,"duration":1,"midi":69,"velocity":80,"measure":13,"voice":"melody"},{"beat":84,"duration":2,"midi":38,"velocity":68,"measure":14,"voice":"bass"},{"beat":84,"duration":1,"midi":86,"velocity":60,"measure":14,"voice":"celesta"},{"beat":84,"duration":2,"midi":53,"velocity":72,"measure":14,"voice":"cello"},{"beat":84,"duration":1,"midi":53,"velocity":52,"measure":14,"voice":"inner"},{"beat":84,"duration":2,"midi":74,"velocity":80,"measure":14,"voice":"melody"},{"beat":85,"duration":1,"midi":57,"velocity":52,"measure":14,"voice":"inner"},{"beat":86,"duration":2,"midi":45,"velocity":68,"measure":14,"voice":"bass"},{"beat":86,"duration":2,"midi":50,"velocity":72,"measure":14,"voice":"cello"},{"beat":86,"duration":1,"midi":62,"velocity":52,"measure":14,"voice":"inner"},{"beat":86,"duration":1,"midi":72,"velocity":80,"measure":14,"voice":"melody"},{"beat":87,"duration":1,"midi":57,"velocity":52,"measure":14,"voice":"inner"},{"beat":87,"duration":1,"midi":69,"velocity":80,"measure":14,"voice":"melody"},{"beat":88,"duration":2,"midi":45,"velocity":68,"measure":15,"voice":"bass"},{"beat":88,"duration":2,"midi":52,"velocity":72,"measure":15,"voice":"cello"},{"beat":88,"duration":1,"midi":52,"velocity":52,"measure":15,"voice":"inner"},{"beat":88,"duration":1,"midi":76,"velocity":80,"measure":15,"voice":"melody"},{"beat":89,"duration":1,"midi":55,"velocity":52,"measure":15,"voice":"inner"},{"beat":89,"duration":0.5,"midi":74,"velocity":80,"measure":15,"voice":"melody"},{"beat":89.5,"duration":0.5,"midi":73,"velocity":80,"measure":15,"voice":"melody"},{"beat":90,"duration":2,"midi":52,"velocity":68,"measure":15,"voice":"bass"},{"beat":90,"duration":2,"midi":61,"velocity":72,"measure":15,"voice":"cello"},{"beat":90,"duration":1,"midi":61,"velocity":52,"measure":15,"voice":"inner"},{"beat":90,"duration":2,"midi":64,"velocity":80,"measure":15,"voice":"melody"},{"beat":91,"duration":1,"midi":64,"velocity":52,"measure":15,"voice":"inner"},{"beat":92,"duration":2,"midi":38,"velocity":68,"measure":16,"voice":"bass"},{"beat":92,"duration":2,"midi":86,"velocity":60,"measure":16,"voice":"celesta"},{"beat":92,"duration":4,"midi":54,"velocity":72,"measure":16,"voice":"cello"},{"beat":92,"duration":1,"midi":66,"velocity":52,"measure":16,"voice":"inner"},{"beat":92,"duration":4,"midi":74,"velocity":80,"measure":16,"voice":"melody"},{"beat":93,"duration":1,"midi":57,"velocity":52,"measure":16,"voice":"inner"},{"beat":94,"duration":2,"midi":45,"velocity":68,"measure":16,"voice":"bass"},{"beat":94,"duration":2,"midi":90,"velocity":60,"measure":16,"voice":"celesta"},{"beat":94,"duration":1,"midi":62,"velocity":52,"measure":16,"voice":"inner"},{"beat":95,"duration":1,"midi":57,"velocity":52,"measure":16,"voice":"inner"},{"beat":96,"duration":2,"midi":38,"velocity":68,"measure":9,"voice":"bass"},{"beat":96,"duration":1,"midi":86,"velocity":60,"measure":9,"voice":"celesta"},{"beat":96,"duration":2,"midi":53,"velocity":72,"measure":9,"voice":"cello"},{"beat":96,"duration":1,"midi":53,"velocity":52,"measure":9,"voice":"inner"},{"beat":96,"duration":1,"midi":69,"velocity":80,"measure":9,"voice":"melody"},{"beat":97,"duration":1,"midi":81,"velocity":60,"measure":9,"voice":"celesta"},{"beat":97,"duration":1,"midi":57,"velocity":52,"measure":9,"voice":"inner"},{"beat":97,"duration":0.5,"midi":74,"velocity":80,"measure":9,"voice":"melody"},{"beat":97.5,"duration":0.5,"midi":72,"velocity":80,"measure":9,"voice":"melody"},{"beat":98,"duration":2,"midi":45,"velocity":68,"measure":9,"voice":"bass"},{"beat":98,"duration":2,"midi":57,"velocity":72,"measure":9,"voice":"cello"},{"beat":98,"duration":1,"midi":62,"velocity":52,"measure":9,"voice":"inner"},{"beat":98,"duration":1,"midi":70,"velocity":80,"measure":9,"voice":"melody"},{"beat":99,"duration":1,"midi":57,"velocity":52,"measure":9,"voice":"inner"},{"beat":99,"duration":1,"midi":69,"velocity":80,"measure":9,"voice":"melody"},{"beat":100,"duration":2,"midi":48,"velocity":68,"measure":10,"voice":"bass"},{"beat":100,"duration":2,"midi":52,"velocity":72,"measure":10,"voice":"cello"},{"beat":100,"duration":1,"midi":52,"velocity":52,"measure":10,"voice":"inner"},{"beat":100,"duration":1.5,"midi":67,"velocity":80,"measure":10,"voice":"melody"},{"beat":101,"duration":1,"midi":55,"velocity":52,"measure":10,"voice":"inner"},{"beat":101.5,"duration":0.5,"midi":69,"velocity":80,"measure":10,"voice":"melody"},{"beat":102,"duration":2,"midi":43,"velocity":68,"measure":10,"voice":"bass"},{"beat":102,"duration":2,"midi":55,"velocity":72,"measure":10,"voice":"cello"},{"beat":102,"duration":1,"midi":60,"velocity":52,"measure":10,"voice":"inner"},{"beat":102,"duration":1,"midi":67,"velocity":80,"measure":10,"voice":"melody"},{"beat":103,"duration":1,"midi":55,"velocity":52,"measure":10,"voice":"inner"},{"beat":103,"duration":1,"midi":64,"velocity":80,"measure":10,"voice":"melody"},{"beat":104,"duration":2,"midi":41,"velocity":68,"measure":11,"voice":"bass"},{"beat":104,"duration":2,"midi":57,"velocity":72,"measure":11,"voice":"cello"},{"beat":104,"duration":1,"midi":57,"velocity":52,"measure":11,"voice":"inner"},{"beat":104,"duration":1,"midi":69,"velocity":80,"measure":11,"voice":"melody"},{"beat":105,"duration":1,"midi":60,"velocity":52,"measure":11,"voice":"inner"},{"beat":105,"duration":0.5,"midi":72,"velocity":80,"measure":11,"voice":"melody"},{"beat":105.5,"duration":0.5,"midi":74,"velocity":80,"measure":11,"voice":"melody"},{"beat":106,"duration":2,"midi":48,"velocity":68,"measure":11,"voice":"bass"},{"beat":106,"duration":1,"midi":86,"velocity":60,"measure":11,"voice":"celesta"},{"beat":106,"duration":2,"midi":60,"velocity":72,"measure":11,"voice":"cello"},{"beat":106,"duration":1,"midi":65,"velocity":52,"measure":11,"voice":"inner"},{"beat":106,"duration":1,"midi":72,"velocity":80,"measure":11,"voice":"melody"},{"beat":107,"duration":1,"midi":60,"velocity":52,"measure":11,"voice":"inner"},{"beat":107,"duration":1,"midi":69,"velocity":80,"measure":11,"voice":"melody"},{"beat":108,"duration":2,"midi":43,"velocity":68,"measure":12,"voice":"bass"},{"beat":108,"duration":2,"midi":58,"velocity":72,"measure":12,"voice":"cello"},{"beat":108,"duration":1,"midi":55,"velocity":52,"measure":12,"voice":"inner"},{"beat":108,"duration":1.5,"midi":70,"velocity":80,"measure":12,"voice":"melody"},{"beat":109,"duration":1,"midi":58,"velocity":52,"measure":12,"voice":"inner"},{"beat":109.5,"duration":0.5,"midi":74,"velocity":80,"measure":12,"voice":"melody"},{"beat":110,"duration":2,"midi":50,"velocity":68,"measure":12,"voice":"bass"},{"beat":110,"duration":2,"midi":55,"velocity":72,"measure":12,"voice":"cello"},{"beat":110,"duration":1,"midi":62,"velocity":52,"measure":12,"voice":"inner"},{"beat":110,"duration":1,"midi":70,"velocity":80,"measure":12,"voice":"melody"},{"beat":111,"duration":1,"midi":58,"velocity":52,"measure":12,"voice":"inner"},{"beat":111,"duration":1,"midi":67,"velocity":80,"measure":12,"voice":"melody"},{"beat":112,"duration":2,"midi":45,"velocity":68,"measure":13,"voice":"bass"},{"beat":112,"duration":1,"midi":88,"velocity":60,"measure":13,"voice":"celesta"},{"beat":112,"duration":2,"midi":52,"velocity":72,"measure":13,"voice":"cello"},{"beat":112,"duration":1,"midi":52,"velocity":52,"measure":13,"voice":"inner"},{"beat":112,"duration":1,"midi":73,"velocity":80,"measure":13,"voice":"melody"},{"beat":113,"duration":1,"midi":55,"velocity":52,"measure":13,"voice":"inner"},{"beat":113,"duration":0.5,"midi":76,"velocity":80,"measure":13,"voice":"melody"},{"beat":113.5,"duration":0.5,"midi":74,"velocity":80,"measure":13,"voice":"melody"},{"beat":114,"duration":2,"midi":52,"velocity":68,"measure":13,"voice":"bass"},{"beat":114,"duration":1,"midi":85,"velocity":60,"measure":13,"voice":"celesta"},{"beat":114,"duration":1,"midi":55,"velocity":72,"measure":13,"voice":"cello"},{"beat":114,"duration":1,"midi":61,"velocity":52,"measure":13,"voice":"inner"},{"beat":114,"duration":1,"midi":73,"velocity":80,"measure":13,"voice":"melody"},{"beat":115,"duration":1,"midi":57,"velocity":72,"measure":13,"voice":"cello"},{"beat":115,"duration":1,"midi":55,"velocity":52,"measure":13,"voice":"inner"},{"beat":115,"duration":1,"midi":69,"velocity":80,"measure":13,"voice":"melody"},{"beat":116,"duration":2,"midi":38,"velocity":68,"measure":14,"voice":"bass"},{"beat":116,"duration":1,"midi":86,"velocity":60,"measure":14,"voice":"celesta"},{"beat":116,"duration":2,"midi":53,"velocity":72,"measure":14,"voice":"cello"},{"beat":116,"duration":1,"midi":53,"velocity":52,"measure":14,"voice":"inner"},{"beat":116,"duration":2,"midi":74,"velocity":80,"measure":14,"voice":"melody"},{"beat":117,"duration":1,"midi":57,"velocity":52,"measure":14,"voice":"inner"},{"beat":118,"duration":2,"midi":45,"velocity":68,"measure":14,"voice":"bass"},{"beat":118,"duration":2,"midi":50,"velocity":72,"measure":14,"voice":"cello"},{"beat":118,"duration":1,"midi":62,"velocity":52,"measure":14,"voice":"inner"},{"beat":118,"duration":1,"midi":72,"velocity":80,"measure":14,"voice":"melody"},{"beat":119,"duration":1,"midi":57,"velocity":52,"measure":14,"voice":"inner"},{"beat":119,"duration":1,"midi":69,"velocity":80,"measure":14,"voice":"melody"},{"beat":120,"duration":2,"midi":45,"velocity":68,"measure":15,"voice":"bass"},{"beat":120,"duration":2,"midi":52,"velocity":72,"measure":15,"voice":"cello"},{"beat":120,"duration":1,"midi":52,"velocity":52,"measure":15,"voice":"inner"},{"beat":120,"duration":1,"midi":76,"velocity":80,"measure":15,"voice":"melody"},{"beat":121,"duration":1,"midi":55,"velocity":52,"measure":15,"voice":"inner"},{"beat":121,"duration":0.5,"midi":74,"velocity":80,"measure":15,"voice":"melody"},{"beat":121.5,"duration":0.5,"midi":73,"velocity":80,"measure":15,"voice":"melody"},{"beat":122,"duration":2,"midi":52,"velocity":68,"measure":15,"voice":"bass"},{"beat":122,"duration":2,"midi":61,"velocity":72,"measure":15,"voice":"cello"},{"beat":122,"duration":1,"midi":61,"velocity":52,"measure":15,"voice":"inner"},{"beat":122,"duration":2,"midi":64,"velocity":80,"measure":15,"voice":"melody"},{"beat":123,"duration":1,"midi":64,"velocity":52,"measure":15,"voice":"inner"},{"beat":124,"duration":2,"midi":38,"velocity":68,"measure":16,"voice":"bass"},{"beat":124,"duration":2,"midi":86,"velocity":60,"measure":16,"voice":"celesta"},{"beat":124,"duration":4,"midi":54,"velocity":72,"measure":16,"voice":"cello"},{"beat":124,"duration":1,"midi":66,"velocity":52,"measure":16,"voice":"inner"},{"beat":124,"duration":4,"midi":74,"velocity":80,"measure":16,"voice":"melody"},{"beat":125,"duration":1,"midi":57,"velocity":52,"measure":16,"voice":"inner"},{"beat":126,"duration":2,"midi":45,"velocity":68,"measure":16,"voice":"bass"},{"beat":126,"duration":2,"midi":90,"velocity":60,"measure":16,"voice":"celesta"},{"beat":126,"duration":1,"midi":62,"velocity":52,"measure":16,"voice":"inner"},{"beat":127,"duration":1,"midi":57,"velocity":52,"measure":16,"voice":"inner"}],"instruments":[{"voice":"melody","label":"Guitar \u00b7 melody","instrument":"guitar"},{"voice":"inner","label":"Guitar \u00b7 inner","instrument":"guitar"},{"voice":"bass","label":"Guitar \u00b7 bass","instrument":"guitar"},{"voice":"cello","label":"Cello \u00b7 counter-voice","instrument":"cello"},{"voice":"celesta","label":"Celesta \u00b7 rain","instrument":"celesta"}],"sections":[{"name":"A \u00b7 The falling","from":0,"to":16},{"name":"B \u00b7 The clearing","from":16,"to":32}]};
